<svg class="main-svg" xmlns="http://www.w3.org/2000/svg" xmlns:xlink="http://www.w3.org/1999/xlink" width="1238" height="461" style=""><rect x="0" y="0" width="1238" height="461" style="fill: rgb(255, 255, 255); fill-opacity: 1;"/><defs id="defs-8c221f"><g class="clips"><clipPath id="clip8c221fxyplot" class="plotclip"><rect width="1020" height="351"/></clipPath><clipPath class="axesclip" id="clip8c221fx"><rect x="50" y="0" width="1020" height="461"/></clipPath><clipPath class="axesclip" id="clip8c221fy"><rect x="0" y="60" width="1238" height="351"/></clipPath><clipPath class="axesclip" id="clip8c221fxy"><rect x="50" y="60" width="1020" height="351"/></clipPath></g><g class="gradients"/><g class="patterns"/></defs><g class="bglayer"><rect class="bg" x="50" y="60" width="1020" height="351" style="fill: rgb(229, 236, 246); fill-opacity: 1; stroke-width: 0;"/></g><g class="layer-below"><g class="imagelayer"/><g class="shapelayer"/></g><g class="cartesianlayer"><g class="subplot xy"><g class="layer-subplot"><g class="shapelayer"/><g class="imagelayer"/></g><g class="gridlayer"><g class="x"><path class="xgrid crisp" transform="translate(223.93,0)" d="M0,60v351" style="stroke: rgb(255, 255, 255); stroke-opacity: 1; stroke-width: 1px;"/><path class="xgrid crisp" transform="translate(403.76,0)" d="M0,60v351" style="stroke: rgb(255, 255, 255); stroke-opacity: 1; stroke-width: 1px;"/><path class="xgrid crisp" transform="translate(586.53,0)" d="M0,60v351" style="stroke: rgb(255, 255, 255); stroke-opacity: 1; stroke-width: 1px;"/><path class="xgrid crisp" transform="translate(766.36,0)" d="M0,60v351" style="stroke: rgb(255, 255, 255); stroke-opacity: 1; stroke-width: 1px;"/><path class="xgrid crisp" transform="translate(946.18,0)" d="M0,60v351" style="stroke: rgb(255, 255, 255); stroke-opacity: 1; stroke-width: 1px;"/></g><g class="y"><path class="ygrid crisp" transform="translate(0,380.01)" d="M50,0h1020" style="stroke: rgb(255, 255, 255); stroke-opacity: 1; stroke-width: 1px;"/><path class="ygrid crisp" transform="translate(0,326.24)" d="M50,0h1020" style="stroke: rgb(255, 255, 255); stroke-opacity: 1; stroke-width: 1px;"/><path class="ygrid crisp" transform="translate(0,272.47)" d="M50,0h1020" style="stroke: rgb(255, 255, 255); stroke-opacity: 1; stroke-width: 1px;"/><path class="ygrid crisp" transform="translate(0,218.69)" d="M50,0h1020" style="stroke: rgb(255, 255, 255); stroke-opacity: 1; stroke-width: 1px;"/><path class="ygrid crisp" transform="translate(0,164.92000000000002)" d="M50,0h1020" style="stroke: rgb(255, 255, 255); stroke-opacity: 1; stroke-width: 1px;"/><path class="ygrid crisp" transform="translate(0,111.15)" d="M50,0h1020" style="stroke: rgb(255, 255, 255); stroke-opacity: 1; stroke-width: 1px;"/></g></g><g class="zerolinelayer"/><path class="xlines-below"/><path class="ylines-below"/><g class="overlines-below"/><g class="xaxislayer-below"/><g class="yaxislayer-below"/><g class="overaxes-below"/><g class="plot" transform="translate(50,60)" clip-path="url(#clip8c221fxyplot)"><g class="scatterlayer mlayer"><g class="trace scatter trace485976" style="stroke-miterlimit: 2; opacity: 1;"><g class="fills"/><g class="errorbars"/><g class="lines"><path class="js-line" d="M0,29.27L2.95,40.07L5.9,37.88L8.84,70.35L17.69,61.42L20.64,89.48L23.58,103.85L26.53,77.63L29.48,86.2L38.32,58.87L41.27,70.44L44.22,51.06L47.17,63.14L50.12,42.53L58.96,30.71L61.91,39.27L64.86,66.74L70.75,74.32L79.6,49.11L85.49,79.76L88.44,75.29L100.23,66.01L103.18,69.42L109.08,61.92L112.02,52.84L120.87,61.27L123.82,58.71L126.76,59.39L129.71,66.34L132.66,88.63L141.5,68.93L144.45,79.82L147.4,62.52L150.35,57.64L153.29,48.22L162.14,60.23L165.09,51.93L170.98,75.27L173.93,55.84L182.77,56.25L185.72,69.1L188.67,73.6L191.62,67.57L194.57,45.7L203.41,60.08L206.36,60.56L209.31,63.52L212.25,46.64L215.2,41.39L224.05,38.18L226.99,39.54L232.89,46.95L235.84,56.07L247.63,73.44L250.58,64.72L253.53,71.03L256.47,82.23L265.32,79.42L268.27,83.61L271.21,80.57L274.16,97.03L277.11,114.57L285.95,119.78L288.9,119.58L291.85,104.11L294.8,100.36L297.75,116.06L306.59,128.65L309.54,114.69L312.49,108.06L315.43,90.37L318.38,100.19L327.23,93.67L330.17,93.42L333.12,104.97L336.07,113.36L339.02,105.09L347.86,135.09L350.81,139.12L353.76,119.8L356.71,116.78L368.5,118.61L371.45,99.52L374.39,118.76L377.34,117.75L380.29,96.54L389.13,79.46L392.08,75.62L395.03,73.71L397.98,67.4L400.92,73.05L409.77,70.42L412.72,89.08L415.66,96.1L418.61,101.04L421.56,119.15L430.4,126.27L433.35,108.34L436.3,95.77L439.25,100.82L442.2,101.33L451.04,107L453.99,115.05L456.94,102.29L459.88,112.09L462.83,125.38L471.68,107.5L474.62,115.98L477.57,111.67L480.52,112.05L483.47,109.26L492.31,100.91L495.26,114.39L498.21,127.7L501.16,148.87L504.1,199.9L512.95,266.78L515.9,295.1L518.84,230.16L521.79,197.71L524.74,207.32L533.58,220.41L536.53,261.61L539.48,233.88L542.43,230.18L545.38,258.09L557.17,215.48L560.12,244.25L563.06,241.6L566.01,227.05L574.86,232.35L577.8,211.76L580.75,201.18L583.7,208.19L586.65,233.85L595.49,223.61L598.44,236.04L601.39,236.96L604.34,233.38L607.28,230.31L616.13,249.94L619.08,241.62L622.02,225.4L624.97,232.86L627.92,214.91L636.76,187.56L639.71,191.28L645.61,163.04L648.55,161.88L657.4,158.06L660.35,164.21L663.29,199.59L666.24,184.56L669.19,176.09L678.03,178.63L680.98,188.36L683.93,195L686.88,147.05L689.83,132.83L698.67,139.44L701.62,148.36L704.57,132.56L707.51,129.94L710.46,139.63L719.31,129.04L722.25,123.9L725.2,125.87L728.15,126.61L731.1,132.32L739.94,147.34L742.89,144.04L745.84,148.15L748.79,174.03L751.73,195.18L760.58,165.85L763.53,158.46L766.47,132.77L769.42,129.09L772.37,129.21L781.21,128.5L784.16,126.16L787.11,127.22L793.01,124.39L801.85,134.67L804.8,120.29L810.69,145.75L813.64,109.17L822.49,106.2L825.43,120.76L828.38,130.99L831.33,123.81L834.28,142.55L843.12,127.55L846.07,112.41L849.02,90.15L854.91,140.64L863.76,127.23L869.65,93.04L872.6,98.33L884.39,101.02L887.34,80.82L890.29,89.76L893.24,109.21L905.03,126.02L907.98,109.96L910.92,121.01L913.87,140.95L916.82,161.2L925.66,150.07L928.61,144.14L931.56,175.18L934.51,147.54L937.46,176.9L949.25,161.91L952.2,195.29L958.09,152.87L966.94,156.14L969.88,125.41L972.83,131.74L975.78,119.66L978.73,80.58L987.57,73.92L990.52,95.73L993.47,89.96L996.42,90.75L999.36,109.09L1008.21,103.82L1011.16,108.71L1014.1,116.99L1017.05,134.91L1020,110.63" style="vector-effect: non-scaling-stroke; fill: none; stroke: rgb(99, 110, 250); stroke-opacity: 1; stroke-width: 2px; opacity: 1;"/></g><g class="points"/><g class="text"/></g><g class="trace scatter trace5d4c3d" style="stroke-miterlimit: 2; opacity: 1;"><g class="fills"/><g class="errorbars"/><g class="lines"><path class="js-line" d="M0,29.27L2.95,39.77L5.9,39.84L8.84,70.93L17.69,62.92L20.64,91.22L23.58,106.33L26.53,81.21L29.48,89.45L38.32,63.54L41.27,74.15L44.22,54.12L47.17,68.29L50.12,48.83L58.96,36.5L61.91,43.39L64.86,70.16L67.8,73.36L70.75,78.82L79.6,52.73L82.54,68.35L85.49,83.33L88.44,79.41L100.23,68.57L103.18,71.94L109.08,67.15L112.02,57.99L120.87,65.71L123.82,61.97L126.76,61.84L129.71,69.67L132.66,92.26L141.5,71.25L144.45,82.72L147.4,62.73L150.35,57.97L153.29,48.37L162.14,59.49L165.09,49.26L170.98,71.9L173.93,51.03L182.77,52.29L185.72,65.59L188.67,70.23L191.62,64.8L194.57,42.78L203.41,58.37L206.36,57.78L209.31,60.97L212.25,44.46L215.2,39.72L224.05,37.14L226.99,38.51L229.94,42.65L232.89,45.4L235.84,54.05L247.63,72.36L250.58,63.32L253.53,70.4L256.47,80.5L265.32,77.54L268.27,81.74L271.21,78.92L277.11,113.04L285.95,117.78L288.9,119.3L291.85,103.97L294.8,101.05L297.75,117.41L306.59,129.69L309.54,115.87L312.49,109.59L315.43,92.91L318.38,102.64L327.23,95.39L330.17,94.87L333.12,105.85L336.07,114.94L339.02,107.19L347.86,137.17L350.81,141.08L353.76,123.92L356.71,119.76L368.5,122.18L371.45,104.37L374.39,123.9L377.34,124.69L380.29,103.09L389.13,86.86L392.08,82.21L395.03,80.55L397.98,74.76L400.92,79.89L409.77,77.7L412.72,97.4L415.66,105.66L418.61,111.41L421.56,130.27L430.4,137.6L433.35,118.16L436.3,105.92L451.04,118.97L453.99,128.37L456.94,114.87L459.88,122.32L462.83,136.98L471.68,117.61L474.62,127.88L477.57,121.71L480.52,121.67L483.47,119.08L492.31,110.24L495.26,124.41L498.21,138.67L501.16,161.77L504.1,213.52L512.95,280.38L515.9,307.49L518.84,241.42L521.79,207.74L524.74,214.92L533.58,227.22L536.53,269.52L539.48,240.81L542.43,236.68L545.38,264.53L557.17,223.11L560.12,251.53L563.06,249.03L566.01,233.65L574.86,238.64L577.8,219.24L580.75,207.84L583.7,216.17L586.65,242.76L595.49,231.61L598.44,244.92L601.39,246.03L604.34,242.54L607.28,239.88L616.13,259.67L619.08,252.51L622.02,234.36L624.97,242.69L627.92,224.65L636.76,196.85L639.71,197.87L645.61,169.57L648.55,168.98L657.4,165.94L660.35,171.97L663.29,208.14L666.24,194.96L669.19,187.2L678.03,191.31L683.93,207.85L686.88,154.94L689.83,141.67L698.67,151.45L701.62,162.21L704.57,143.18L707.51,140.71L710.46,148.71L719.31,138.18L722.25,131.28L728.15,134.48L731.1,139.14L739.94,154.92L742.89,153.03L745.84,158.28L748.79,184.42L751.73,206.53L760.58,175.61L763.53,168L766.47,142.05L769.42,136.17L772.37,137.91L781.21,135.88L784.16,132.97L787.11,135.35L793.01,132.35L801.85,141.18L804.8,128.88L807.75,144.33L810.69,154.9L813.64,119.34L822.49,118.34L825.43,133.76L828.38,143.09L831.33,135.33L834.28,155.61L843.12,140.45L846.07,125.36L849.02,104.6L851.97,129.18L854.91,154.55L863.76,141.3L866.71,125.67L869.65,105.13L872.6,111.36L884.39,114.56L887.34,94.16L890.29,103.79L893.24,122.72L905.03,136.82L907.98,120.88L910.92,131.58L916.82,172.37L925.66,161.3L928.61,153.53L931.56,184.06L934.51,154L937.46,184.04L949.25,170.94L952.2,207.14L958.09,161.06L966.94,165.61L969.88,137.25L972.83,147.77L975.78,134.69L978.73,95.91L987.57,89.63L990.52,112.69L993.47,105.33L996.42,103.65L999.36,120.97L1008.21,115.11L1011.16,120.87L1014.1,130.5L1017.05,147.68L1020,123.18" style="vector-effect: non-scaling-stroke; fill: none; stroke: rgb(239, 85, 59); stroke-opacity: 1; stroke-width: 2px; opacity: 1;"/></g><g class="points"/><g class="text"/></g><g class="trace scatter tracedd371d" style="stroke-miterlimit: 2; opacity: 1;"><g class="fills"/><g class="errorbars"/><g class="lines"><path class="js-line" d="M0,29.27L2.95,38.34L5.9,41.48L8.84,70.57L17.69,63.92L20.64,92.72L23.58,107.56L26.53,86.46L29.48,92.84L38.32,69.44L41.27,79.97L44.22,60.34L47.17,76.81L50.12,57.11L58.96,43.17L61.91,48.93L64.86,76.85L67.8,78.49L70.75,82.95L79.6,57.67L82.54,72.43L85.49,88.48L88.44,85.73L100.23,73.48L103.18,77.12L109.08,74.26L112.02,63.39L120.87,70.13L123.82,66.17L126.76,64.14L129.71,72.9L132.66,95.63L141.5,73.59L144.45,85.38L147.4,61.97L150.35,56.63L153.29,46.54L162.14,57.19L165.09,46.64L170.98,68.26L173.93,45.32L182.77,48.06L185.72,62.52L188.67,67.56L191.62,62.66L194.57,40.47L203.41,56.62L206.36,54L209.31,58.41L212.25,43.04L215.2,38.23L224.05,35.65L226.99,38.89L229.94,42.94L232.89,44.53L235.84,51.92L247.63,71.39L250.58,61.65L253.53,69.76L256.47,78.3L265.32,75.53L268.27,80.33L271.21,78.34L277.11,112.44L285.95,117.5L288.9,120.94L291.85,105.26L294.8,103.2L297.75,120.24L306.59,131.33L309.54,118.45L312.49,112.32L315.43,97.3L318.38,106.03L327.23,98.43L330.17,97.39L333.12,107.44L336.07,117.14L339.02,110.45L347.86,139.85L350.81,143.73L353.76,129.77L356.71,124.15L368.5,127.35L371.45,111.32L374.39,131.01L377.34,134.74L380.29,112.96L389.13,96.17L392.08,91.37L395.03,90.23L397.98,86.25L400.92,90.68L409.77,89.52L412.72,111.69L415.66,120.89L418.61,127.55L421.56,147.4L430.4,154.17L433.35,131.56L436.3,119.71L439.25,120.27L442.2,126.22L451.04,135.78L453.99,146.53L456.94,131.77L459.88,137.01L462.83,153.44L471.68,131.81L474.62,143.83L477.57,134.7L480.52,135.37L483.47,133.26L492.31,124.59L495.26,140.99L498.21,156.5L501.16,181.12L504.1,234.17L512.95,301.16L515.9,326.28L518.84,258.81L521.79,222.69L524.74,228.23L533.58,238.56L536.53,282.18L539.48,250.92L542.43,245.34L545.38,272.97L557.17,230.89L560.12,259.02L563.06,257.61L566.01,239.93L574.86,245.91L577.8,228.16L580.75,217.14L583.7,227.74L586.65,254.54L595.49,241.69L598.44,255.91L601.39,256.49L604.34,252.85L607.28,248.66L616.13,270L619.08,264.34L622.02,242.92L624.97,251.12L627.92,232.78L636.76,204.31L639.71,200.77L645.61,173.65L648.55,174.18L657.4,171.82L660.35,176.58L663.29,216.08L666.24,206.62L669.19,200.04L678.03,204.49L683.93,224.79L686.88,167.45L689.83,153.68L698.67,166.43L701.62,179.81L704.57,158.13L707.51,157.6L710.46,164.74L719.31,153.72L722.25,144.59L725.2,146.21L728.15,148.95L731.1,151.61L739.94,167.89L742.89,168.42L745.84,176.21L751.73,227.24L760.58,195.59L763.53,186.04L766.47,159.63L769.42,152.52L772.37,154.26L781.21,152.92L784.16,149.08L787.11,150.98L793.01,148.34L801.85,154.31L804.8,144.59L807.75,161.71L810.69,170.06L813.64,135.76L822.49,135.61L825.43,151.58L828.38,159.82L831.33,152.25L834.28,173.4L843.12,157.32L846.07,144.97L849.02,126.49L851.97,150.94L854.91,173.24L863.76,158.61L866.71,144.09L869.65,122.08L872.6,129.46L884.39,133.03L887.34,111.77L890.29,122.48L893.24,140.96L905.03,150.78L907.98,134.28L910.92,144.77L916.82,185.96L925.66,172.81L928.61,165.15L931.56,196.9L934.51,164.03L937.46,197.86L949.25,186.12L952.2,223.74L958.09,172.85L966.94,177.74L969.88,153.03L972.83,166.51L975.78,152.29L978.73,113.19L987.57,106.9L990.52,131.39L993.47,125.29L996.42,121.22L999.36,139.05L1008.21,134.15L1014.1,151.35L1017.05,166L1020,141.48" style="vector-effect: non-scaling-stroke; fill: none; stroke: rgb(0, 204, 150); stroke-opacity: 1; stroke-width: 2px; opacity: 1;"/></g><g class="points"/><g class="text"/></g><g class="trace scatter trace7045a5" style="stroke-miterlimit: 2; opacity: 1;"><g class="fills"/><g class="errorbars"/><g class="lines"><path class="js-line" d="M0,29.27L2.95,38.03L5.9,41.49L8.84,70.48L17.69,64.23L20.64,93.43L23.58,107.59L26.53,88.83L29.48,94.46L38.32,71.78L41.27,82.95L44.22,63.82L47.17,80.34L50.12,59.72L58.96,45.69L61.91,51.57L64.86,80.92L67.8,82.05L70.75,84.6L79.6,60.66L82.54,75.01L85.49,91.91L88.44,89.37L100.23,77.38L103.18,80.72L106.13,78.2L109.08,77.69L112.02,65.72L120.87,72.58L126.76,66L129.71,75.42L132.66,98.02L141.5,75.84L144.45,87.92L147.4,63.97L150.35,58.75L153.29,48.39L162.14,58.73L165.09,48.42L168.03,57.63L170.98,69.46L173.93,46.16L182.77,49.52L185.72,64.39L188.67,69.58L191.62,64.78L194.57,42.24L203.41,58.1L206.36,55.18L209.31,59.86L212.25,45.11L215.2,40.2L224.05,36.84L229.94,45.3L232.89,46.57L235.84,53.9L247.63,73.41L250.58,63.34L253.53,71.61L256.47,80.16L265.32,77.66L268.27,82.75L271.21,81.2L277.11,115.69L285.95,121.55L288.9,125.17L291.85,109.26L294.8,107.25L297.75,124.39L306.59,135.24L309.54,122.9L312.49,116.2L315.43,101.28L318.38,109.77L327.23,102.22L330.17,101.59L333.12,111.21L336.07,121.06L339.02,115.25L347.86,144.68L350.81,148.76L353.76,135.33L356.71,129.13L368.5,132.66L371.45,117L374.39,136.49L377.34,140.94L380.29,119.59L389.13,102.14L392.08,98.22L395.03,97.09L397.98,93.5L400.92,98.29L409.77,97.63L412.72,120.3L418.61,135.5L421.56,155.43L430.4,161.84L433.35,139.15L436.3,127.35L439.25,127.81L442.2,133.73L451.04,143.42L453.99,154.09L456.94,139.11L459.88,144.26L462.83,160.96L471.68,138.73L474.62,150.84L477.57,141.16L480.52,142.32L483.47,140.23L492.31,132.08L498.21,164.94L501.16,189.2L504.1,242.07L512.95,308.33L515.9,333.45L518.84,265.67L521.79,229.79L524.74,235.19L533.58,244.9L536.53,288.19L539.48,256.19L542.43,249.97L545.38,277.51L557.17,234.54L560.12,262.56L563.06,262.1L566.01,244.03L574.86,250.39L577.8,233.04L580.75,222.83L583.7,234.17L586.65,260.92L595.49,247.84L598.44,262.07L601.39,262.62L604.34,259.18L607.28,254.08L616.13,274.9L619.08,268.72L622.02,246.77L624.97,255L627.92,237.16L636.76,208.22L639.71,203.14L645.61,175.98L648.55,177.37L657.4,175.08L660.35,179.5L663.29,220.31L666.24,211.64L669.19,205.14L678.03,209.09L683.93,230.17L686.88,171.45L689.83,157.25L698.67,170.1L701.62,184.46L704.57,163.27L707.51,163.39L710.46,170.29L719.31,159.58L722.25,150.19L725.2,151.2L728.15,154.16L731.1,156.18L739.94,172.46L742.89,173.48L745.84,181.66L751.73,233.17L760.58,202.03L763.53,191.01L766.47,164.78L769.42,156.43L772.37,157.58L781.21,156.62L784.16,153.56L787.11,155.37L793.01,152.82L801.85,157.98L804.8,148.9L807.75,166.02L810.69,173.66L813.64,139.34L822.49,138.18L825.43,154.27L828.38,162.09L831.33,154.82L834.28,175.73L843.12,159.33L846.07,147.72L849.02,129.74L851.97,154.25L854.91,175.91L863.76,160.98L866.71,146.17L869.65,124.5L872.6,131.74L884.39,135.21L887.34,113.55L890.29,124.37L893.24,142.86L905.03,152.38L907.98,135.61L910.92,146.03L916.82,187.27L925.66,173.01L928.61,166.13L931.56,198.75L934.51,165.54L937.46,202.27L949.25,190.48L952.2,228.56L958.09,177.31L966.94,181.57L969.88,156.42L972.83,168.93L975.78,154.55L978.73,114.81L987.57,108.23L990.52,133.25L996.42,123.5L999.36,142.63L1008.21,137.77L1011.16,146.63L1014.1,156.43L1017.05,169.92L1020,145.52" style="vector-effect: non-scaling-stroke; fill: none; stroke: rgb(171, 99, 250); stroke-opacity: 1; stroke-width: 2px; opacity: 1;"/></g><g class="points"/><g class="text"/></g><g class="trace scatter tracecea922" style="stroke-miterlimit: 2; opacity: 1;"><g class="fills"/><g class="errorbars"/><g class="lines"><path class="js-line" d="M0,29.27L2.95,37.41L5.9,41.13L8.84,70.28L17.69,64L20.64,93.63L23.58,107.09L26.53,89.04L29.48,94.08L38.32,71.68L41.27,83.25L44.22,64.38L47.17,80.57L50.12,59.96L58.96,46.08L61.91,51.81L64.86,81.75L70.75,83.95L79.6,60.66L85.49,92.09L88.44,89.69L100.23,78.02L103.18,81.26L106.13,77.93L109.08,77.83L112.02,65.27L120.87,72.09L126.76,66.15L129.71,74.91L132.66,97.61L141.5,75.59L144.45,87.88L147.4,63.69L150.35,58.72L153.29,48.03L162.14,58.97L165.09,48.56L170.98,69.81L173.93,46.53L182.77,50.29L185.72,65.19L188.67,70.38L191.62,65.33L194.57,42.74L203.41,58.25L206.36,55.39L209.31,59.7L212.25,45.14L215.2,40.23L224.05,36.55L226.99,40.16L229.94,44.28L232.89,45.73L235.84,53.09L247.63,72.28L250.58,61.99L253.53,70.36L256.47,78.63L265.32,76.55L268.27,82.04L271.21,80.68L277.11,115.64L285.95,121.75L288.9,125.59L291.85,109.63L294.8,107.18L297.75,124.36L306.59,134.82L309.54,122.46L312.49,115.88L315.43,100.77L318.38,109.2L327.23,101.66L330.17,100.63L333.12,110.77L336.07,119.97L339.02,114.24L347.86,143.99L350.81,148.12L353.76,134.78L356.71,128.62L368.5,132.41L371.45,117.25L374.39,136.58L377.34,140.95L380.29,119.43L389.13,101.85L392.08,97.82L395.03,96.54L397.98,93.48L400.92,98.81L409.77,98.45L412.72,121.21L418.61,135.96L421.56,155.84L430.4,161.75L433.35,139.05L436.3,127.21L439.25,127.18L442.2,131.94L451.04,141.1L453.99,151.28L456.94,135.96L459.88,141.51L462.83,157.93L471.68,135.84L474.62,147.58L477.57,138.4L480.52,139.57L483.47,137.44L492.31,129L498.21,161.09L501.16,185.56L504.1,238.12L512.95,304.44L515.9,329.88L518.84,262.18L521.79,226.02L524.74,231.27L533.58,240.99L536.53,283.8L539.48,251.45L542.43,244.89L545.38,272.45L557.17,228.9L560.12,256.48L563.06,256.25L566.01,237.63L574.86,244.27L577.8,226.69L580.75,216.93L583.7,228.47L586.65,254.98L595.49,241.73L598.44,256.11L601.39,256.66L604.34,253.85L607.28,249L616.13,269.98L619.08,263.05L622.02,240.89L624.97,249.03L627.92,231.39L636.76,202.03L639.71,196.82L645.61,169.74L648.55,171.1L657.4,168.12L660.35,172.02L663.29,212.63L666.24,204.44L669.19,197.91L678.03,201.27L683.93,222.55L686.88,163.17L689.83,148.65L698.67,160.91L701.62,174.91L704.57,154.19L707.51,154.9L710.46,161.85L719.31,151.79L722.25,143.13L725.2,144.32L728.15,146.63L731.1,148.62L739.94,164.75L742.89,165.6L745.84,173.58L751.73,225.46L760.58,194.78L763.53,183.23L766.47,156.88L769.42,148.67L772.37,149.08L781.21,148.44L784.16,145.78L787.11,147.24L793.01,144.46L801.85,149.37L804.8,140.08L807.75,156.62L810.69,164.58L813.64,129.59L822.49,127.98L825.43,143.59L828.38,151.39L831.33,144.18L834.28,164.89L843.12,148.63L846.07,137.26L849.02,119.11L851.97,143.01L854.91,164.89L863.76,149.57L866.71,134.74L869.65,113.31L872.6,120.39L884.39,123.58L887.34,101.59L890.29,112.58L893.24,131.42L905.03,141.2L907.98,124.14L910.92,134.81L916.82,176.78L925.66,162.02L928.61,155.03L931.56,188.65L934.51,155.68L937.46,193.76L949.25,180.87L952.2,218.12L958.09,167.1L966.94,170.65L969.88,145.53L972.83,156.75L975.78,142.66L978.73,102.46L987.57,95.15L990.52,120.56L993.47,117.35L996.42,112.29L999.36,133.22L1008.21,129.01L1014.1,147.08L1017.05,160.17L1020,135.65" style="vector-effect: non-scaling-stroke; fill: none; stroke: rgb(255, 161, 90); stroke-opacity: 1; stroke-width: 2px; opacity: 1;"/></g><g class="points"/><g class="text"/></g><g class="trace scatter trace1a089c" style="stroke-miterlimit: 2; opacity: 1;"><g class="fills"/><g class="errorbars"/><g class="lines"><path class="js-line" d="M0,29.27L2.95,40.73L5.9,36.55L8.84,66.55L17.69,51.61L20.64,87.4L23.58,90.36L26.53,62.42L29.48,78.11L38.32,53.58L41.27,67.38L44.22,42.95L47.17,55.55L50.12,37.42L58.96,38.67L61.91,49.95L64.86,81.42L67.8,85.75L70.75,82.05L79.6,53.69L82.54,75.22L85.49,83.61L88.44,76.61L100.23,63.96L103.18,64.54L106.13,61.63L109.08,55.59L112.02,44.95L120.87,53.62L126.76,39.04L129.71,39.77L132.66,69.83L141.5,47.39L144.45,56.57L147.4,47.03L153.29,42.53L162.14,47.06L165.09,39.3L168.03,47.33L170.98,68.3L173.93,48.56L182.77,43.58L185.72,58.87L188.67,68.14L191.62,59.31L194.57,30.59L203.41,39.84L206.36,43.81L209.31,44.64L212.25,24.02L215.2,21.83L226.99,17.55L229.94,20.45L232.89,20.42L235.84,26.19L247.63,46.68L250.58,33.62L253.53,37.58L256.47,50L265.32,46.81L268.27,49.86L271.21,42.94L274.16,61.3L277.11,67.34L285.95,76.25L288.9,76.52L291.85,51.1L294.8,46.91L297.75,62.03L306.59,73.61L309.54,61.42L312.49,58.06L315.43,38.69L318.38,49.43L327.23,38.26L330.17,35.65L333.12,54.8L336.07,62.94L339.02,56.88L347.86,94.56L350.81,92.07L353.76,77.18L356.71,80.17L368.5,85.18L371.45,75.14L374.39,103.26L377.34,99.69L380.29,76.91L389.13,53.55L392.08,45.38L395.03,45.75L397.98,38.21L400.92,41.85L409.77,40.35L412.72,59.83L415.66,67.17L418.61,79.98L421.56,97.55L430.4,111.31L433.35,90.91L436.3,77.88L439.25,78.47L442.2,84.5L451.04,94.36L453.99,99.47L456.94,100.57L459.88,113.55L462.83,118.54L471.68,92.53L474.62,115.37L477.57,115.4L480.52,114.79L483.47,107.35L492.31,100.06L495.26,103.7L498.21,121.19L501.16,159.69L504.1,216.8L512.95,280.08L515.9,302.11L518.84,235.53L521.79,195.82L524.74,197.09L533.58,209.45L536.53,259.96L539.48,228.45L542.43,225.94L545.38,255.23L557.17,213.25L560.12,238.97L563.06,230.71L566.01,219.66L574.86,226.34L577.8,201.73L580.75,186.66L583.7,193.67L586.65,224.88L595.49,211.37L598.44,230.7L601.39,236.14L604.34,244.59L607.28,232.4L616.13,266.04L619.08,260.96L622.02,235.62L624.97,236.99L627.92,215.44L636.76,182.74L639.71,181.26L645.61,153.24L648.55,149.61L657.4,144.51L660.35,149.89L663.29,166.79L666.24,143.45L669.19,135.47L678.03,133.9L680.98,135.34L683.93,140.56L686.88,106.09L689.83,89.14L698.67,91.69L701.62,96.16L704.57,74.86L707.51,77.41L710.46,87.33L719.31,69.56L722.25,59.95L725.2,65.39L728.15,65.83L731.1,60.79L739.94,80.13L742.89,77.15L745.84,83.17L748.79,110.5L751.73,132.32L760.58,106.75L763.53,106.05L766.47,79.41L769.42,79.89L772.37,70.1L781.21,73.44L784.16,71.35L793.01,71.22L801.85,81.27L804.8,63.15L807.75,80.22L810.69,107.32L813.64,67.53L822.49,80.13L825.43,97.61L828.38,105.75L831.33,96.88L834.28,130.17L843.12,119.06L846.07,102.24L849.02,78.13L851.97,105.37L854.91,144.87L863.76,131.63L866.71,113.82L869.65,93.88L872.6,99.31L884.39,101.88L887.34,81.15L890.29,93.75L893.24,112.98L905.03,142.68L907.98,141.63L910.92,168.75L913.87,210.95L916.82,228.98L925.66,223.38L928.61,210.72L931.56,249.96L934.51,225.47L937.46,267.52L949.25,264.52L952.2,291.33L955.14,278.86L958.09,256.18L966.94,278.58L969.88,248.26L972.83,272.21L975.78,258.75L978.73,216.09L987.57,217.93L990.52,249.73L993.47,230.03L996.42,221.44L999.36,244.2L1008.21,263.33L1011.16,264.69L1014.1,275.41L1017.05,302.79L1020,269.05" style="vector-effect: non-scaling-stroke; fill: none; stroke: rgb(254, 203, 82); stroke-opacity: 1; stroke-width: 2px; opacity: 1;"/></g><g class="points"/><g class="text"/></g></g></g><g class="overplot"/><path class="xlines-above crisp" d="M0,0" style="fill: none;"/><path class="ylines-above crisp" d="M0,0" style="fill: none;"/><g class="overlines-above"/><g class="xaxislayer-above"><g class="xtick"><text text-anchor="middle" x="0" y="424" transform="translate(223.93,0)" style="font-family: 'Open Sans', verdana, arial, sans-serif; font-size: 12px; fill: rgb(42, 63, 95); fill-opacity: 1; white-space: pre; opacity: 1;">May 2015</text></g><g class="xtick"><text text-anchor="middle" x="0" y="424" style="font-family: 'Open Sans', verdana, arial, sans-serif; font-size: 12px; fill: rgb(42, 63, 95); fill-opacity: 1; white-space: pre; opacity: 1;" transform="translate(403.76,0)">Jul 2015</text></g><g class="xtick"><text text-anchor="middle" x="0" y="424" style="font-family: 'Open Sans', verdana, arial, sans-serif; font-size: 12px; fill: rgb(42, 63, 95); fill-opacity: 1; white-space: pre; opacity: 1;" transform="translate(586.53,0)">Sep 2015</text></g><g class="xtick"><text text-anchor="middle" x="0" y="424" style="font-family: 'Open Sans', verdana, arial, sans-serif; font-size: 12px; fill: rgb(42, 63, 95); fill-opacity: 1; white-space: pre; opacity: 1;" transform="translate(766.36,0)">Nov 2015</text></g><g class="xtick"><text text-anchor="middle" x="0" y="424" style="font-family: 'Open Sans', verdana, arial, sans-serif; font-size: 12px; fill: rgb(42, 63, 95); fill-opacity: 1; white-space: pre; opacity: 1;" transform="translate(946.18,0)">Jan 2016</text></g></g><g class="yaxislayer-above"><g class="ytick"><text text-anchor="end" x="49" y="4.199999999999999" transform="translate(0,380.01)" style="font-family: 'Open Sans', verdana, arial, sans-serif; font-size: 12px; fill: rgb(42, 63, 95); fill-opacity: 1; white-space: pre; opacity: 1;">15.5k</text></g><g class="ytick"><text text-anchor="end" x="49" y="4.199999999999999" style="font-family: 'Open Sans', verdana, arial, sans-serif; font-size: 12px; fill: rgb(42, 63, 95); fill-opacity: 1; white-space: pre; opacity: 1;" transform="translate(0,326.24)">16k</text></g><g class="ytick"><text text-anchor="end" x="49" y="4.199999999999999" style="font-family: 'Open Sans', verdana, arial, sans-serif; font-size: 12px; fill: rgb(42, 63, 95); fill-opacity: 1; white-space: pre; opacity: 1;" transform="translate(0,272.47)">16.5k</text></g><g class="ytick"><text text-anchor="end" x="49" y="4.199999999999999" style="font-family: 'Open Sans', verdana, arial, sans-serif; font-size: 12px; fill: rgb(42, 63, 95); fill-opacity: 1; white-space: pre; opacity: 1;" transform="translate(0,218.69)">17k</text></g><g class="ytick"><text text-anchor="end" x="49" y="4.199999999999999" style="font-family: 'Open Sans', verdana, arial, sans-serif; font-size: 12px; fill: rgb(42, 63, 95); fill-opacity: 1; white-space: pre; opacity: 1;" transform="translate(0,164.92000000000002)">17.5k</text></g><g class="ytick"><text text-anchor="end" x="49" y="4.199999999999999" style="font-family: 'Open Sans', verdana, arial, sans-serif; font-size: 12px; fill: rgb(42, 63, 95); fill-opacity: 1; white-space: pre; opacity: 1;" transform="translate(0,111.15)">18k</text></g></g><g class="overaxes-above"/></g></g><g class="polarlayer"/><g class="ternarylayer"/><g class="geolayer"/><g class="funnelarealayer"/><g class="pielayer"/><g class="iciclelayer"/><g class="treemaplayer"/><g class="sunburstlayer"/><g class="glimages"/><defs id="topdefs-8c221f"><g class="clips"/><clipPath id="legend8c221f"><rect width="136" height="200" x="0" y="0"/></clipPath></defs><g class="layer-above"><g class="imagelayer"/><g class="shapelayer"/></g><g class="infolayer"><g class="legend" pointer-events="all" transform="translate(1090.4,60)"><rect class="bg" shape-rendering="crispEdges" width="136" height="200" x="0" y="0" style="stroke: rgb(68, 68, 68); stroke-opacity: 1; fill: rgb(255, 255, 255); fill-opacity: 1; stroke-width: 0px;"/><g class="scrollbox" transform="" clip-path="url(#legend8c221f)"><g class="groups"><g class="traces" transform="translate(0,14.5)" style="opacity: 1;"><text class="legendtext" text-anchor="start" x="40" y="4.680000000000001" style="font-family: 'Open Sans', verdana, arial, sans-serif; font-size: 12px; fill: rgb(42, 63, 95); fill-opacity: 1; white-space: pre;">Conic γ=0.1</text><g class="layers" style="opacity: 1;"><g class="legendfill"/><g class="legendlines"><path class="js-line" d="M5,0h30" style="fill: none; stroke: rgb(99, 110, 250); stroke-opacity: 1; stroke-width: 2px;"/></g><g class="legendsymbols"><g class="legendpoints"/></g></g><rect class="legendtoggle" x="0" y="-9.5" width="130.8186798095703" height="19" style="fill: rgb(0, 0, 0); fill-opacity: 0;"/></g><g class="traces" transform="translate(0,33.5)" style="opacity: 1;"><text class="legendtext" text-anchor="start" x="40" y="4.680000000000001" style="font-family: 'Open Sans', verdana, arial, sans-serif; font-size: 12px; fill: rgb(42, 63, 95); fill-opacity: 1; white-space: pre;">Conic γ=3.275</text><g class="layers" style="opacity: 1;"><g class="legendfill"/><g class="legendlines"><path class="js-line" d="M5,0h30" style="fill: none; stroke: rgb(239, 85, 59); stroke-opacity: 1; stroke-width: 2px;"/></g><g class="legendsymbols"><g class="legendpoints"/></g></g><rect class="legendtoggle" x="0" y="-9.5" width="130.8186798095703" height="19" style="fill: rgb(0, 0, 0); fill-opacity: 0;"/></g><g class="traces" transform="translate(0,52.5)" style="opacity: 1;"><text class="legendtext" text-anchor="start" x="40" y="4.680000000000001" style="font-family: 'Open Sans', verdana, arial, sans-serif; font-size: 12px; fill: rgb(42, 63, 95); fill-opacity: 1; white-space: pre;">Conic γ=6.45</text><g class="layers" style="opacity: 1;"><g class="legendfill"/><g class="legendlines"><path class="js-line" d="M5,0h30" style="fill: none; stroke: rgb(0, 204, 150); stroke-opacity: 1; stroke-width: 2px;"/></g><g class="legendsymbols"><g class="legendpoints"/></g></g><rect class="legendtoggle" x="0" y="-9.5" width="130.8186798095703" height="19" style="fill: rgb(0, 0, 0); fill-opacity: 0;"/></g><g class="traces" transform="translate(0,71.5)" style="opacity: 1;"><text class="legendtext" text-anchor="start" x="40" y="4.680000000000001" style="font-family: 'Open Sans', verdana, arial, sans-serif; font-size: 12px; fill: rgb(42, 63, 95); fill-opacity: 1; white-space: pre;">Conic γ=9.625</text><g class="layers" style="opacity: 1;"><g class="legendfill"/><g class="legendlines"><path class="js-line" d="M5,0h30" style="fill: none; stroke: rgb(171, 99, 250); stroke-opacity: 1; stroke-width: 2px;"/></g><g class="legendsymbols"><g class="legendpoints"/></g></g><rect class="legendtoggle" x="0" y="-9.5" width="130.8186798095703" height="19" style="fill: rgb(0, 0, 0); fill-opacity: 0;"/></g><g class="traces" transform="translate(0,90.5)" style="opacity: 1;"><text class="legendtext" text-anchor="start" x="40" y="4.680000000000001" style="font-family: 'Open Sans', verdana, arial, sans-serif; font-size: 12px; fill: rgb(42, 63, 95); fill-opacity: 1; white-space: pre;">Conic γ=12.8</text><g class="layers" style="opacity: 1;"><g class="legendfill"/><g class="legendlines"><path class="js-line" d="M5,0h30" style="fill: none; stroke: rgb(255, 161, 90); stroke-opacity: 1; stroke-width: 2px;"/></g><g class="legendsymbols"><g class="legendpoints"/></g></g><rect class="legendtoggle" x="0" y="-9.5" width="130.8186798095703" height="19" style="fill: rgb(0, 0, 0); fill-opacity: 0;"/></g><g class="traces" transform="translate(0,109.5)" style="opacity: 0.5;"><text class="legendtext" text-anchor="start" x="40" y="4.680000000000001" style="font-family: 'Open Sans', verdana, arial, sans-serif; font-size: 12px; fill: rgb(42, 63, 95); fill-opacity: 1; white-space: pre;">Mean-Variance</text><g class="layers" style="opacity: 1;"><g class="legendfill"/><g class="legendlines"><path class="js-line" d="M5,0h30" style="fill: none; stroke: rgb(25, 211, 243); stroke-opacity: 1; stroke-width: 2px;"/></g><g class="legendsymbols"><g class="legendpoints"/></g></g><rect class="legendtoggle" x="0" y="-9.5" width="130.8186798095703" height="19" style="fill: rgb(0, 0, 0); fill-opacity: 0;"/></g><g class="traces" transform="translate(0,128.5)" style="opacity: 0.5;"><text class="legendtext" text-anchor="start" x="40" y="4.680000000000001" style="font-family: 'Open Sans', verdana, arial, sans-serif; font-size: 12px; fill: rgb(42, 63, 95); fill-opacity: 1; white-space: pre;">Mean-VaR</text><g class="layers" style="opacity: 1;"><g class="legendfill"/><g class="legendlines"><path class="js-line" d="M5,0h30" style="fill: none; stroke: rgb(255, 102, 146); stroke-opacity: 1; stroke-width: 2px;"/></g><g class="legendsymbols"><g class="legendpoints"/></g></g><rect class="legendtoggle" x="0" y="-9.5" width="130.8186798095703" height="19" style="fill: rgb(0, 0, 0); fill-opacity: 0;"/></g><g class="traces" transform="translate(0,147.5)" style="opacity: 0.5;"><text class="legendtext" text-anchor="start" x="40" y="4.680000000000001" style="font-family: 'Open Sans', verdana, arial, sans-serif; font-size: 12px; fill: rgb(42, 63, 95); fill-opacity: 1; white-space: pre;">Mean-CVaR 95%</text><g class="layers" style="opacity: 1;"><g class="legendfill"/><g class="legendlines"><path class="js-line" d="M5,0h30" style="fill: none; stroke: rgb(182, 232, 128); stroke-opacity: 1; stroke-width: 2px;"/></g><g class="legendsymbols"><g class="legendpoints"/></g></g><rect class="legendtoggle" x="0" y="-9.5" width="130.8186798095703" height="19" style="fill: rgb(0, 0, 0); fill-opacity: 0;"/></g><g class="traces" transform="translate(0,166.5)" style="opacity: 0.5;"><text class="legendtext" text-anchor="start" x="40" y="4.680000000000001" style="font-family: 'Open Sans', verdana, arial, sans-serif; font-size: 12px; fill: rgb(42, 63, 95); fill-opacity: 1; white-space: pre;">Mean-CVaR 99%</text><g class="layers" style="opacity: 1;"><g class="legendfill"/><g class="legendlines"><path class="js-line" d="M5,0h30" style="fill: none; stroke: rgb(255, 151, 255); stroke-opacity: 1; stroke-width: 2px;"/></g><g class="legendsymbols"><g class="legendpoints"/></g></g><rect class="legendtoggle" x="0" y="-9.5" width="130.8186798095703" height="19" style="fill: rgb(0, 0, 0); fill-opacity: 0;"/></g><g class="traces" transform="translate(0,185.5)" style="opacity: 1;"><text class="legendtext" text-anchor="start" x="40" y="4.680000000000001" style="font-family: 'Open Sans', verdana, arial, sans-serif; font-size: 12px; fill: rgb(42, 63, 95); fill-opacity: 1; white-space: pre;">DJIA</text><g class="layers" style="opacity: 1;"><g class="legendfill"/><g class="legendlines"><path class="js-line" d="M5,0h30" style="fill: none; stroke: rgb(254, 203, 82); stroke-opacity: 1; stroke-width: 2px;"/></g><g class="legendsymbols"><g class="legendpoints"/></g></g><rect class="legendtoggle" x="0" y="-9.5" width="130.8186798095703" height="19" style="fill: rgb(0, 0, 0); fill-opacity: 0;"/></g></g></g><rect class="scrollbar" rx="20" ry="3" width="0" height="0" x="0" y="0" style="fill: rgb(128, 139, 164); fill-opacity: 1;"/></g><g class="g-gtitle"/><g class="g-xtitle"/><g class="g-ytitle"/></g></svg>