<svg class="main-svg" xmlns="http://www.w3.org/2000/svg" xmlns:xlink="http://www.w3.org/1999/xlink" width="1238" height="461" style=""><rect x="0" y="0" width="1238" height="461" style="fill: rgb(255, 255, 255); fill-opacity: 1;"/><defs id="defs-4a0e5e"><g class="clips"><clipPath id="clip4a0e5exyplot" class="plotclip"><rect width="1020" height="351"/></clipPath><clipPath class="axesclip" id="clip4a0e5ex"><rect x="50" y="0" width="1020" height="461"/></clipPath><clipPath class="axesclip" id="clip4a0e5ey"><rect x="0" y="60" width="1238" height="351"/></clipPath><clipPath class="axesclip" id="clip4a0e5exy"><rect x="50" y="60" width="1020" height="351"/></clipPath></g><g class="gradients"/><g class="patterns"/></defs><g class="bglayer"><rect class="bg" x="50" y="60" width="1020" height="351" style="fill: rgb(229, 236, 246); fill-opacity: 1; stroke-width: 0;"/></g><g class="layer-below"><g class="imagelayer"/><g class="shapelayer"/></g><g class="cartesianlayer"><g class="subplot xy"><g class="layer-subplot"><g class="shapelayer"/><g class="imagelayer"/></g><g class="gridlayer"><g class="x"><path class="xgrid crisp" transform="translate(223.93,0)" d="M0,60v351" style="stroke: rgb(255, 255, 255); stroke-opacity: 1; stroke-width: 1px;"/><path class="xgrid crisp" transform="translate(403.76,0)" d="M0,60v351" style="stroke: rgb(255, 255, 255); stroke-opacity: 1; stroke-width: 1px;"/><path class="xgrid crisp" transform="translate(586.53,0)" d="M0,60v351" style="stroke: rgb(255, 255, 255); stroke-opacity: 1; stroke-width: 1px;"/><path class="xgrid crisp" transform="translate(766.36,0)" d="M0,60v351" style="stroke: rgb(255, 255, 255); stroke-opacity: 1; stroke-width: 1px;"/><path class="xgrid crisp" transform="translate(946.18,0)" d="M0,60v351" style="stroke: rgb(255, 255, 255); stroke-opacity: 1; stroke-width: 1px;"/></g><g class="y"><path class="ygrid crisp" transform="translate(0,364.75)" d="M50,0h1020" style="stroke: rgb(255, 255, 255); stroke-opacity: 1; stroke-width: 1px;"/><path class="ygrid crisp" transform="translate(0,313.69)" d="M50,0h1020" style="stroke: rgb(255, 255, 255); stroke-opacity: 1; stroke-width: 1px;"/><path class="ygrid crisp" transform="translate(0,262.63)" d="M50,0h1020" style="stroke: rgb(255, 255, 255); stroke-opacity: 1; stroke-width: 1px;"/><path class="ygrid crisp" transform="translate(0,211.57)" d="M50,0h1020" style="stroke: rgb(255, 255, 255); stroke-opacity: 1; stroke-width: 1px;"/><path class="ygrid crisp" transform="translate(0,160.51)" d="M50,0h1020" style="stroke: rgb(255, 255, 255); stroke-opacity: 1; stroke-width: 1px;"/><path class="ygrid crisp" transform="translate(0,109.45)" d="M50,0h1020" style="stroke: rgb(255, 255, 255); stroke-opacity: 1; stroke-width: 1px;"/></g></g><g class="zerolinelayer"/><path class="xlines-below"/><path class="ylines-below"/><g class="overlines-below"/><g class="xaxislayer-below"/><g class="yaxislayer-below"/><g class="overaxes-below"/><g class="plot" transform="translate(50,60)" clip-path="url(#clip4a0e5exyplot)"><g class="scatterlayer mlayer"><g class="trace scatter trace2c99c1" style="stroke-miterlimit: 2; opacity: 1;"><g class="fills"/><g class="errorbars"/><g class="lines"><path class="js-line" d="M0,28.68L2.95,38.15L5.9,35.43L8.84,65.01L17.69,56.31L20.64,80.02L23.58,96.23L26.53,76.44L29.48,84.53L38.32,56.93L41.27,66.25L44.22,46.79L47.17,56.27L50.12,39.32L58.96,25.08L61.91,34.35L64.86,58.14L67.8,61.67L70.75,68.3L79.6,39.92L82.54,54.39L85.49,76.75L88.44,72.55L100.23,62L103.18,63.01L106.13,61.33L109.08,61.42L112.02,60.49L120.87,66.76L123.82,65.39L126.76,67.47L129.71,73.34L132.66,96.24L141.5,73.91L144.45,84.27L147.4,71.78L150.35,67.07L153.29,58.08L162.14,70.31L165.09,62.14L168.03,74.37L170.98,88.56L173.93,69.48L182.77,70.34L185.72,81.76L188.67,85.66L191.62,80.28L194.57,60.23L203.41,75.89L206.36,75.45L209.31,78.86L212.25,62.07L215.2,56.46L224.05,54.76L226.99,55.97L232.89,63.93L235.84,77.3L247.63,94.76L250.58,88.6L253.53,95.78L256.47,105.47L265.32,104.99L268.27,108.9L271.21,108.09L274.16,126.02L277.11,143.68L285.95,147.28L288.9,147.34L291.85,134.1L294.8,129.55L297.75,145.62L306.59,158.2L309.54,145.08L312.49,140.17L315.43,122.92L318.38,132.39L327.23,129.29L330.17,131.06L333.12,141.03L336.07,149.8L339.02,140.55L347.86,165.39L350.81,170.48L353.76,152.49L356.71,149.67L368.5,149.32L371.45,130.45L374.39,145.02L377.34,144.94L380.29,125.41L389.13,110.54L392.08,108.69L395.03,107.73L397.98,99.53L400.92,106.19L409.77,103.56L412.72,122.6L415.66,130.87L418.61,130.51L421.56,144.96L430.4,152.07L433.35,131.08L436.3,119.55L439.25,123.83L442.2,126.18L451.04,133.37L453.99,143.9L456.94,125.47L459.88,132.86L462.83,147.7L471.68,131.37L474.62,134.42L477.57,129.28L492.31,118.48L495.26,129.43L501.16,162.56L504.1,210.81L512.95,273.02L515.9,299.29L518.84,236.82L521.79,209.77L524.74,220.16L533.58,234.06L536.53,270.48L539.48,245.19L542.43,241.58L545.38,265.96L557.17,229.37L560.12,258.59L563.06,253.95L566.01,239.8L574.86,242.68L577.8,223.94L580.75,215.81L583.7,218.92L586.65,241.25L595.49,234.53L598.44,246.73L601.39,247.17L604.34,240.38L607.28,236.05L616.13,247.82L619.08,240.31L622.02,228.49L624.97,240.14L627.92,219.95L636.76,199.78L639.71,205.89L642.66,191.45L645.61,176.18L648.55,172.74L657.4,168.63L660.35,175.73L663.29,209.23L666.24,196.07L669.19,189.56L678.03,194.17L680.98,202.18L683.93,203.39L686.88,159.48L689.83,147.68L698.67,158.18L701.62,165.45L704.57,150.83L707.51,147.92L710.46,155.2L719.31,141.94L722.25,138.4L725.2,141.18L728.15,143.89L731.1,158.78L739.94,175.5L742.89,174.7L745.84,180.77L748.79,204.01L751.73,227.46L760.58,195.92L763.53,190.25L766.47,167.02L772.37,164.23L781.21,162.76L784.16,157.23L787.11,156.29L793.01,152.82L801.85,161.21L804.8,149.76L807.75,163.06L810.69,174.53L813.64,142.94L822.49,138.12L825.43,151.88L828.38,169.06L831.33,160.16L834.28,173.9L843.12,153.84L846.07,141L849.02,123.25L854.91,165.88L863.76,154.45L869.65,121.33L872.6,127.81L884.39,131.41L887.34,111.89L890.29,119.74L893.24,139.34L905.03,152.78L907.98,130.8L910.92,139.18L913.87,154.78L916.82,176.19L925.66,167.57L928.61,158.9L931.56,181.43L934.51,152.83L937.46,175.56L949.25,162.22L952.2,195.83L958.09,152.63L966.94,153.03L969.88,119.46L972.83,128.51L975.78,114.41L978.73,80.99L987.57,74.65L990.52,95.48L993.47,87.09L996.42,91.6L999.36,107.47L1008.21,92.02L1014.1,102.18L1017.05,112.76L1020,95.15" style="vector-effect: non-scaling-stroke; fill: none; stroke: rgb(99, 110, 250); stroke-opacity: 1; stroke-width: 2px; opacity: 1;"/></g><g class="points"/><g class="text"/></g><g class="trace scatter trace1d1d6c" style="stroke-miterlimit: 2; opacity: 1;"><g class="fills"/><g class="errorbars"/><g class="lines"><path class="js-line" d="M0,28.68L2.95,37.6L5.9,37.55L8.84,66.12L17.69,60.22L20.64,84.06L23.58,100.24L26.53,82.27L29.48,89.21L38.32,64.03L41.27,71.58L44.22,52.57L47.17,65.93L50.12,47.34L58.96,34.48L61.91,40.74L64.86,63.17L67.8,65.1L70.75,72.61L79.6,43.02L82.54,57.38L85.49,80.04L88.44,76.66L100.23,64.35L103.18,62.83L106.13,64.26L109.08,67.63L112.02,75.69L120.87,79.1L123.82,76.29L126.76,74.94L129.71,83.9L132.66,106.28L141.5,81.03L144.45,94.23L147.4,79.18L150.35,73.4L153.29,63.3L162.14,75.47L165.09,64.72L168.03,75.84L170.98,89.7L173.93,70.54L182.77,72.85L185.72,84.17L188.67,89.19L191.62,84.57L194.57,63.52L203.41,80.41L206.36,79.31L209.31,83.71L212.25,68.13L215.2,62.73L224.05,61.56L226.99,65.08L232.89,74.16L235.84,87.15L247.63,105.08L250.58,97.64L256.47,113.64L265.32,112.76L268.27,116.79L271.21,116.59L277.11,153.44L285.95,157.7L288.9,161.04L291.85,148.39L294.8,144.04L297.75,160.5L306.59,173.13L309.54,159.67L312.49,154.99L315.43,138.16L318.38,148.47L327.23,144.09L330.17,146.6L333.12,155.95L336.07,165.91L339.02,158.35L347.86,183.83L350.81,188.58L353.76,172.03L356.71,167.99L368.5,167.48L371.45,148.88L374.39,162.14L377.34,162.59L380.29,143.35L389.13,129.9L392.08,127.44L395.03,127.79L397.98,120.47L400.92,128.96L409.77,127.13L412.72,143.03L415.66,148.62L418.61,147.41L421.56,163.43L430.4,171.21L433.35,149.47L436.3,137.25L439.25,137.11L442.2,143.24L451.04,149.93L453.99,159.49L456.94,140.78L459.88,145.93L462.83,165.78L471.68,150.1L474.62,152.39L477.57,146.11L480.52,142.59L483.47,141.14L492.31,136.23L495.26,147.71L501.16,181.43L504.1,231.42L515.9,319.74L518.84,256.57L521.79,229.53L524.74,236.09L533.58,247.96L536.53,283.53L539.48,259.3L542.43,253.09L545.38,277.98L557.17,244.01L560.12,272.51L563.06,269.02L566.01,255.57L574.86,257.82L577.8,241.4L580.75,232.83L583.7,236.56L586.65,261.44L595.49,254.28L598.44,268.04L601.39,269.74L604.34,260.63L607.28,255.11L616.13,265.09L619.08,258.6L622.02,244.87L624.97,257.27L627.92,236.32L636.76,218.31L639.71,221.31L645.61,189.17L648.55,189.51L657.4,186.53L660.35,193.41L663.29,228.82L666.24,215.73L669.19,211.13L678.03,217.82L680.98,224.41L683.93,225.59L686.88,170.02L689.83,162.63L698.67,176L701.62,185.7L704.57,166.92L707.51,164.69L710.46,168.28L719.31,155.78L722.25,149.67L725.2,150.06L728.15,154.24L731.1,166.88L739.94,184.93L742.89,184.97L745.84,192.33L748.79,216.59L751.73,239.7L760.58,205.63L763.53,196.82L766.47,173.36L769.42,165.39L772.37,169.55L781.21,164.47L784.16,158.61L787.11,159.87L793.01,155.33L801.85,161.25L804.8,151.37L810.69,179.97L813.64,147.94L822.49,145.51L825.43,160.52L828.38,175.53L831.33,166.01L834.28,183.1L843.12,161.58L849.02,130.45L851.97,154.01L854.91,175.22L863.76,164.26L866.71,148.06L869.65,127.27L872.6,134.8L884.39,139.1L887.34,119.35L890.29,127.71L893.24,147.51L905.03,159.76L907.98,136.15L910.92,143.73L916.82,179.68L925.66,171.02L928.61,159.74L931.56,183.4L934.51,152.54L937.46,177.29L949.25,166.93L952.2,209.42L955.14,189.66L958.09,154.32L966.94,155.92L969.88,122.76L972.83,133.96L975.78,115.91L978.73,83.37L987.57,76.65L990.52,99.93L993.47,90.53L996.42,94.2L999.36,108.57L1008.21,91.48L1011.16,99.98L1014.1,107.33L1017.05,118.96L1020,98.92" style="vector-effect: non-scaling-stroke; fill: none; stroke: rgb(239, 85, 59); stroke-opacity: 1; stroke-width: 2px; opacity: 1;"/></g><g class="points"/><g class="text"/></g><g class="trace scatter traced589c0" style="stroke-miterlimit: 2; opacity: 1;"><g class="fills"/><g class="errorbars"/><g class="lines"><path class="js-line" d="M0,28.68L2.95,38.35L5.9,38.22L8.84,66.5L17.69,61.46L20.64,85.48L23.58,101.01L26.53,85.64L29.48,92.34L38.32,67.48L41.27,74.93L44.22,55.25L47.17,68.46L50.12,48.69L58.96,37.45L61.91,43.3L64.86,65.93L67.8,67.06L70.75,73L79.6,43.66L82.54,58.66L85.49,81.88L88.44,78.12L100.23,64.95L103.18,62.98L106.13,65.05L109.08,70.62L112.02,83.33L120.87,85.3L126.76,77.68L129.71,87.29L132.66,110.4L141.5,83.31L144.45,96.57L147.4,82.08L150.35,75.73L153.29,66.73L162.14,77.1L165.09,63.29L170.98,88.78L173.93,69.5L182.77,71.21L185.72,82.42L188.67,87.93L191.62,83.98L194.57,62.78L203.41,80.38L206.36,79.83L209.31,84.4L212.25,68.94L215.2,63.34L224.05,62.63L226.99,69.65L229.94,74.79L232.89,78.21L235.84,92.03L247.63,110.67L250.58,102.11L253.53,109.43L256.47,116.4L265.32,115.51L268.27,120.39L271.21,120.96L277.11,160.34L285.95,164.9L288.9,168.41L291.85,155.15L294.8,151.32L297.75,168.57L306.59,180.96L309.54,166.95L312.49,162L315.43,145.55L318.38,156.38L327.23,152.05L330.17,155.16L333.12,164.47L336.07,174.09L339.02,168.1L347.86,193.66L350.81,198.4L353.76,181.63L356.71,176.47L368.5,175.48L371.45,157.03L374.39,169.6L377.34,171.7L380.29,152.65L389.13,139.57L392.08,137.06L395.03,138.23L397.98,129.66L400.92,138.7L409.77,137.1L412.72,153.63L415.66,159.3L418.61,157.47L421.56,172.45L430.4,180.48L433.35,158.62L436.3,145.96L439.25,146.62L442.2,153.63L451.04,160.1L453.99,169.95L456.94,150.48L459.88,154.82L462.83,177.25L471.68,161.24L474.62,163.11L477.57,155.26L480.52,152.01L483.47,150.63L492.31,147.18L495.26,159.18L501.16,194.24L504.1,243.82L512.95,305.76L515.9,332.02L518.84,268.04L521.79,242.4L524.74,246.82L533.58,258.2L536.53,293.5L539.48,270.54L542.43,262.92L545.38,288.25L557.17,255.31L560.12,283.66L563.06,280.59L566.01,268.41L574.86,270.53L577.8,254.51L580.75,246.08L583.7,249.79L586.65,275.98L595.49,269.16L598.44,283.21L601.39,285.35L604.34,275.97L607.28,269.71L616.13,279.48L619.08,273.78L622.02,259.38L624.97,273.03L627.92,252.46L636.76,234.54L639.71,237.05L642.66,220.25L645.61,203.04L648.55,204.78L657.4,202.67L660.35,210.25L663.29,246.28L666.24,235.24L669.19,232.11L678.03,238.48L680.98,246.6L683.93,246.49L686.88,189.56L689.83,183.82L698.67,197.34L701.62,208.59L704.57,188.67L707.51,186.64L710.46,188.01L719.31,177.81L722.25,170.31L725.2,169.52L728.15,175.14L731.1,189.26L739.94,207.82L742.89,208.07L745.84,217.24L748.79,241.85L751.73,263.58L760.58,228.62L763.53,217.43L766.47,194.03L769.42,183.28L772.37,188.58L781.21,182.35L784.16,176.72L787.11,179.33L793.01,174.77L801.85,180.15L804.8,170.17L810.69,199.36L813.64,167.35L822.49,164.95L825.43,180.66L828.38,195.49L831.33,185.88L834.28,203.61L843.12,181.32L849.02,150.45L851.97,175.49L854.91,197.08L863.76,186.08L866.71,168.91L869.65,147.22L872.6,155.31L884.39,159.39L887.34,139.57L890.29,148.08L893.24,167.84L905.03,179.25L907.98,154.81L910.92,161.38L916.82,197.07L925.66,187.93L928.61,176.16L931.56,199.88L934.51,169.2L937.46,195.58L949.25,186.47L952.2,231.77L955.14,210.92L958.09,171L966.94,173.14L969.88,141.19L972.83,154.88L975.78,136.85L978.73,102.48L987.57,94.83L990.52,118.05L993.47,107.06L996.42,110.83L999.36,120.43L1008.21,103.74L1011.16,114.38L1014.1,123.63L1017.05,135.69L1020,115.28" style="vector-effect: non-scaling-stroke; fill: none; stroke: rgb(0, 204, 150); stroke-opacity: 1; stroke-width: 2px; opacity: 1;"/></g><g class="points"/><g class="text"/></g><g class="trace scatter trace36ab75" style="stroke-miterlimit: 2; opacity: 1;"><g class="fills"/><g class="errorbars"/><g class="lines"><path class="js-line" d="M0,28.68L2.95,38.6L5.9,37.95L8.84,66.3L17.69,61.08L20.64,85.11L23.58,100.55L26.53,86.21L29.48,93.24L38.32,68.28L41.27,75.7L44.22,55.87L47.17,68.68L50.12,48.58L58.96,38.13L61.91,43.88L64.86,66.65L67.8,67.99L70.75,73.82L79.6,44.32L82.54,59.44L85.49,83.16L88.44,79.23L100.23,65.97L103.18,64.02L106.13,66.07L109.08,72.34L112.02,86.18L120.87,87.72L123.82,84.33L126.76,79.61L129.71,89.13L132.66,112.97L141.5,85.36L144.45,98.91L147.4,84.69L150.35,77.91L153.29,68.53L162.14,78.45L165.09,63.68L168.03,75.11L170.98,89.54L173.93,70.52L182.77,72.4L185.72,83.26L188.67,88.69L191.62,84.73L194.57,63.1L203.41,80.63L206.36,80.56L209.31,84.98L212.25,69.47L215.2,64.02L224.05,63.37L226.99,70.94L229.94,76.19L232.89,79.8L235.84,94.27L247.63,113.23L250.58,104.55L253.53,112.02L256.47,119.06L265.32,118.08L268.27,122.9L271.21,123.54L277.11,163.6L285.95,168.44L288.9,171.65L291.85,158.11L294.8,154.26L297.75,171.48L306.59,184.01L309.54,169.89L312.49,164.54L315.43,148.18L318.38,159.44L327.23,155.31L330.17,158.91L333.12,168.25L336.07,177.88L339.02,172.24L347.86,198.15L350.81,203.06L353.76,185.82L356.71,180.43L368.5,179.35L371.45,160.81L374.39,173.1L377.34,175.14L380.29,156.17L389.13,142.96L392.08,140.39L395.03,141.83L397.98,132.7L400.92,142.13L409.77,140.83L412.72,157.48L415.66,163.06L418.61,160.54L421.56,174.85L430.4,183.16L433.35,161.87L436.3,148.97L439.25,149.8L442.2,156.64L451.04,162.87L453.99,172.8L456.94,151.88L459.88,156.06L462.83,178.74L471.68,162.89L474.62,164.07L477.57,156.25L480.52,152.44L483.47,150.84L492.31,148.03L495.26,159.81L501.16,194.65L504.1,244.35L512.95,306.44L515.9,333.45L518.84,269.55L521.79,244.49L533.58,260.25L536.53,295.33L539.48,272.89L542.43,264.86L545.38,290.24L557.17,257.59L560.12,285.7L563.06,282.88L566.01,271.29L574.86,273.47L577.8,257.29L580.75,248.59L583.7,252.17L586.65,278.46L595.49,271.59L598.44,285.78L601.39,288.27L604.34,279.28L607.28,272.57L616.13,282.11L619.08,276.35L622.02,261.93L624.97,276.29L627.92,255.86L636.76,237.37L639.71,239.74L645.61,204.82L648.55,206.99L657.4,204.98L660.35,212.94L663.29,249.49L666.24,239.05L669.19,236.1L678.03,242.41L680.98,250.39L683.93,249.19L686.88,192.57L689.83,186.66L698.67,199.88L701.62,211.65L704.57,191.99L707.51,189.89L710.46,190.62L719.31,181.94L722.25,174.07L725.2,172.43L728.15,178.16L731.1,193.38L739.94,212.18L742.89,212.25L745.84,221.82L748.79,246.59L751.73,267.82L760.58,232.66L763.53,220.95L766.47,197.44L769.42,185.93L772.37,191.16L781.21,184.33L784.16,179.08L787.11,182.63L793.01,177.73L801.85,183.07L804.8,172.96L810.69,201.92L813.64,169.94L822.49,167.32L825.43,183.45L828.38,197.97L831.33,188.57L834.28,206.04L843.12,184.04L849.02,151.86L851.97,177.45L854.91,199.35L863.76,188L869.65,148.03L872.6,156.22L884.39,160.15L887.34,139.99L890.29,148.48L893.24,168.31L905.03,180.13L907.98,155.07L910.92,161.34L913.87,177.36L916.82,197.76L925.66,188.72L928.61,176.9L931.56,200.42L934.51,170.37L937.46,196.91L949.25,187.93L952.2,234.06L955.14,213.34L958.09,173.96L966.94,175.84L969.88,144.49L972.83,159.22L975.78,141.34L978.73,106.2L987.57,97.48L990.52,120.39L993.47,109.19L996.42,112.49L999.36,121.67L1008.21,105.26L1011.16,116.53L1014.1,125.77L1017.05,138.31L1020,117.48" style="vector-effect: non-scaling-stroke; fill: none; stroke: rgb(171, 99, 250); stroke-opacity: 1; stroke-width: 2px; opacity: 1;"/></g><g class="points"/><g class="text"/></g><g class="trace scatter traceaff56d" style="stroke-miterlimit: 2; opacity: 1;"><g class="fills"/><g class="errorbars"/><g class="lines"><path class="js-line" d="M0,28.68L2.95,38.69L5.9,37.77L8.84,66.34L17.69,61.24L20.64,85.24L23.58,100.41L26.53,86.73L29.48,93.65L38.32,68.64L41.27,76.19L44.22,56.05L47.17,68.52L50.12,48.39L58.96,38.48L61.91,44.49L64.86,67.26L67.8,68.71L70.75,73.79L79.6,44.25L82.54,59.71L85.49,83.39L88.44,79.33L100.23,66.35L103.18,64.42L106.13,66.36L109.08,72.75L112.02,86.66L120.87,88.03L123.82,84.66L126.76,79.52L129.71,88.61L132.66,112.52L141.5,84.99L144.45,98.76L147.4,85.03L150.35,78.04L153.29,68.9L162.14,78.51L165.09,63.21L168.03,74.75L170.98,89.49L173.93,70.38L182.77,72.34L185.72,83.16L188.67,88.48L191.62,84.66L194.57,62.94L203.41,80.09L206.36,80.59L209.31,84.71L212.25,69.24L215.2,63.74L224.05,62.76L226.99,70.41L232.89,79.14L235.84,93.97L247.63,112.91L250.58,104.2L256.47,118.71L265.32,117.87L268.27,122.88L271.21,123.7L277.11,164.09L285.95,168.98L288.9,172.01L291.85,158.36L294.8,154.37L297.75,171.6L306.59,183.77L309.54,169.42L312.49,163.87L315.43,147.46L318.38,158.87L327.23,154.79L330.17,158.53L333.12,168.02L336.07,177.28L339.02,172.04L347.86,198.28L350.81,203.2L353.76,185.77L356.71,180.21L368.5,179.33L371.45,160.83L374.39,173.1L377.34,175.29L380.29,156.25L389.13,143.01L392.08,140.28L395.03,141.57L397.98,132.32L400.92,142.31L409.77,141.52L412.72,157.55L415.66,162.95L418.61,160.1L421.56,174.47L430.4,182.83L433.35,161.73L436.3,148.94L439.25,150.07L442.2,156.34L451.04,162.27L453.99,172.22L456.94,150.39L459.88,154.47L462.83,177.16L471.68,161.13L474.62,162.11L477.57,154.58L480.52,150.68L483.47,148.91L492.31,146.2L495.26,157.61L501.16,192.4L504.1,242.15L512.95,304.3L515.9,331.56L518.84,267.76L521.79,242.94L533.58,258.34L536.53,293.16L539.48,270.99L542.43,263.11L545.38,288.6L557.17,255.9L560.12,283.69L563.06,280.93L566.01,269.72L574.86,271.71L577.8,255.26L580.75,246.5L583.7,249.97L586.65,276.25L595.49,269.4L598.44,283.46L601.39,286.28L604.34,278.28L607.28,272.01L616.13,281.25L619.08,275.37L622.02,260.98L624.97,275.69L627.92,255.54L636.76,236.76L639.71,239.16L645.61,204.02L648.55,206.38L657.4,204.15L660.35,212.03L663.29,248.15L666.24,237.83L669.19,234.95L678.03,240.98L680.98,248.74L683.93,247.37L686.88,191.14L689.83,185.25L698.67,198.39L701.62,209.93L704.57,190.56L707.51,188.3L710.46,188.55L719.31,180.61L722.25,173.07L725.2,171.21L728.15,176.86L731.1,192.66L739.94,211.62L742.89,211.41L745.84,221.09L748.79,246.48L751.73,267.13L760.58,232.08L763.53,220.01L766.47,196.31L769.42,184.57L772.37,189.43L781.21,182.37L784.16,177.31L787.11,181.31L793.01,176.18L801.85,181.38L804.8,171.07L810.69,200.07L813.64,167.88L822.49,165.33L825.43,181.74L828.38,196.03L831.33,186.7L834.28,203.94L843.12,182.47L849.02,148.42L851.97,174.4L854.91,196.92L863.76,185.54L869.65,144.75L872.6,152.9L884.39,156.85L887.34,136.53L890.29,145.09L893.24,165.1L905.03,177.34L907.98,152.46L910.92,158.54L913.87,175.24L916.82,195.92L925.66,187.22L928.61,175.03L931.56,198.66L934.51,168.95L937.46,196.08L949.25,186.61L952.2,232.83L955.14,212.51L958.09,173.38L966.94,175.43L969.88,143.94L972.83,159.11L975.78,141.1L978.73,105.73L987.57,96.27L990.52,119.5L993.47,108.22L996.42,110.77L999.36,120.26L1008.21,104.02L1011.16,115.57L1014.1,125.3L1017.05,138.1L1020,117.22" style="vector-effect: non-scaling-stroke; fill: none; stroke: rgb(255, 161, 90); stroke-opacity: 1; stroke-width: 2px; opacity: 1;"/></g><g class="points"/><g class="text"/></g><g class="trace scatter tracea87d02" style="stroke-miterlimit: 2; opacity: 1;"><g class="fills"/><g class="errorbars"/><g class="lines"><path class="js-line" d="M0,28.68L2.95,37.67L5.9,35.35L8.84,64.23L17.69,55.76L20.64,79.14L23.58,94.93L26.53,75.31L29.48,82.58L38.32,55.4L41.27,65.28L44.22,47.27L47.17,57.53L50.12,40.4L58.96,26.54L61.91,35.16L64.86,58.58L70.75,68.03L79.6,39.75L82.54,54.3L85.49,77.51L88.44,73.59L100.23,63.56L103.18,64.49L106.13,61.78L109.08,62.17L112.02,57.52L120.87,65.24L123.82,64.11L126.76,67.56L129.71,74.1L132.66,95.85L141.5,75.46L144.45,85.67L147.4,73.65L150.35,68.97L153.29,61.21L162.14,75.14L165.09,67.79L170.98,94.79L173.93,75.82L182.77,77.4L185.72,89.24L188.67,92.28L191.62,86.71L194.57,65.91L203.41,82.08L206.36,80.64L209.31,86.06L212.25,70.46L215.2,63.7L224.05,61.73L226.99,64.92L232.89,72.47L235.84,85.52L247.63,102.75L250.58,97.12L253.53,103.97L256.47,112.72L265.32,112.45L268.27,115.88L271.21,114.66L274.16,132.77L277.11,150.99L285.95,154.36L288.9,155.16L291.85,142.43L294.8,137.71L297.75,153.18L306.59,166.07L309.54,153.61L312.49,148.64L315.43,131.4L318.38,140.13L327.23,137.24L330.17,139.34L333.12,149.35L336.07,158.46L339.02,148.59L347.86,173.18L350.81,178.67L353.76,161.1L356.71,158.42L368.5,158.36L371.45,137.98L374.39,152.22L377.34,152.1L380.29,133.07L389.13,118.39L392.08,116.14L395.03,115.51L397.98,108.73L400.92,115.79L409.77,114.13L412.72,131.04L415.66,137.4L418.61,136.62L421.56,151.09L430.4,157.25L433.35,135.45L436.3,123.23L439.25,127.53L442.2,129.84L451.04,136.08L453.99,146.09L456.94,126.82L459.88,134.32L462.83,151.58L471.68,135.88L474.62,138.27L477.57,132.5L480.52,128.26L483.47,125.94L492.31,120.65L495.26,131.92L498.21,146.38L501.16,165.55L504.1,214.13L512.95,276.58L515.9,304.43L518.84,242.54L521.79,214.02L524.74,224.19L533.58,239.34L536.53,274.55L539.48,248.65L542.43,244.88L545.38,269.12L557.17,231.59L560.12,260.93L563.06,256.65L566.01,241.88L574.86,245.16L577.8,226.81L580.75,218.07L583.7,221.21L586.65,243.62L595.49,237.72L598.44,249.71L601.39,249.52L604.34,242.56L607.28,237.76L616.13,250.81L619.08,243.36L622.02,230.22L624.97,240.95L627.92,219.77L636.76,199.25L639.71,204.22L645.61,173.16L648.55,170.16L657.4,165.33L660.35,172.38L663.29,209L666.24,194.99L669.19,187.27L678.03,190.95L680.98,196.53L683.93,197.21L686.88,150.8L689.83,141.28L698.67,151.32L701.62,156.36L704.57,143.31L707.51,141.37L710.46,148.82L719.31,135.56L722.25,131.71L725.2,134.27L728.15,136.4L731.1,151.48L739.94,167.06L742.89,165.64L745.84,171.92L748.79,194.29L751.73,219.4L760.58,188.5L763.53,179.94L766.47,157.54L769.42,157.2L772.37,155.32L781.21,153.95L784.16,147.92L793.01,143.03L801.85,152.5L804.8,140.75L807.75,154.5L810.69,165.87L813.64,134.17L822.49,128.31L825.43,141.82L828.38,158.42L831.33,149.29L834.28,162.69L843.12,142.74L846.07,130.84L849.02,112.58L854.91,153.58L863.76,141.28L869.65,108.55L872.6,115.49L884.39,118.46L887.34,98.47L890.29,106.46L893.24,125.5L905.03,137.75L907.98,113.88L910.92,122.53L913.87,138.17L916.82,161.4L925.66,151.41L928.61,143.08L931.56,167.93L934.51,139.74L937.46,162.85L949.25,148.19L952.2,182.37L958.09,132.99L966.94,132.65L969.88,100.08L972.83,109.92L975.78,95.87L978.73,62.02L987.57,55.46L990.52,75.66L993.47,69.25L996.42,76.52L999.36,94.45L1008.21,81.32L1011.16,85.7L1014.1,86.31L1017.05,96.19L1020,79.83" style="vector-effect: non-scaling-stroke; fill: none; stroke: rgb(25, 211, 243); stroke-opacity: 1; stroke-width: 2px; opacity: 1;"/></g><g class="points"/><g class="text"/></g><g class="trace scatter trace961a03" style="stroke-miterlimit: 2; opacity: 1;"><g class="fills"/><g class="errorbars"/><g class="lines"><path class="js-line" d="M0,28.68L2.95,38.15L5.9,35.69L8.84,65.19L17.69,56.83L20.64,80.29L23.58,96.9L26.53,76.75L29.48,84.76L38.32,57.2L41.27,66.71L44.22,47.49L47.17,57.81L50.12,41.4L58.96,26.43L61.91,35.31L64.86,58.85L67.8,62.23L70.75,69.57L79.6,40.83L82.54,54.79L85.49,77.67L88.44,73.65L100.23,62.68L103.18,63.69L106.13,62.42L109.08,62.4L112.02,61.59L120.87,67.96L123.82,66.66L126.76,69.01L129.71,75.34L132.66,98.16L141.5,76.08L144.45,86.21L147.4,73.13L150.35,69.08L153.29,60.28L162.14,73.06L165.09,65.52L168.03,77.82L170.98,91.5L173.93,72.41L182.77,73.02L185.72,84.58L188.67,88.55L191.62,83.15L194.57,63.06L203.41,78.5L206.36,77.68L209.31,81.36L212.25,64.5L215.2,59.24L224.05,57.67L226.99,59.06L232.89,66.83L235.84,80.13L247.63,97.53L250.58,91.56L253.53,98.98L256.47,108.69L265.32,108.18L268.27,111.68L271.21,110.8L274.16,128.61L277.11,146.3L285.95,149.41L288.9,149.65L291.85,136.83L294.8,132.3L297.75,148.32L306.59,161.2L309.54,148.48L312.49,143.71L315.43,126.61L318.38,135.82L327.23,132.79L330.17,134.54L333.12,144.3L336.07,153.58L339.02,144.48L347.86,168.87L350.81,174.07L353.76,156.77L356.71,154.07L368.5,153.64L371.45,134.76L374.39,149.12L377.34,148.93L380.29,129.48L389.13,114.8L392.08,112.78L395.03,112.04L397.98,104.07L400.92,110.63L409.77,108.01L412.72,127.2L415.66,135.51L418.61,136.31L421.56,151L430.4,157.99L433.35,136.21L436.3,124.96L442.2,131.07L451.04,138.3L453.99,148.82L456.94,129.31L459.88,136.63L462.83,151.53L471.68,135.29L474.62,138.17L477.57,132.55L480.52,130.73L492.31,122.21L495.26,133.38L501.16,165.87L504.1,213.71L515.9,301.53L518.84,239.45L521.79,212.8L524.74,223.81L533.58,237.68L536.53,273.99L539.48,248.64L542.43,245.08L545.38,269.34L557.17,232.78L560.12,262.06L563.06,257.68L566.01,243.42L574.86,246.3L577.8,227.88L580.75,219.86L583.7,223.05L586.65,245.71L595.49,239.18L598.44,251.37L601.39,251.64L604.34,244.76L607.28,241.35L616.13,252.74L619.08,244.93L622.02,233.56L624.97,245.17L627.92,224.43L636.76,204.49L639.71,210.77L645.61,181.15L648.55,177.82L657.4,173.92L660.35,181.03L663.29,215.73L666.24,202.78L669.19,196.75L678.03,202.13L680.98,209.88L683.93,211.43L686.88,167.35L689.83,155.83L698.67,166.56L701.62,173.6L704.57,158.8L707.51,156.18L710.46,163.64L719.31,149.56L722.25,146.16L725.2,148.87L728.15,151.39L731.1,166.13L739.94,183.22L742.89,182.59L745.84,188.38L748.79,211.74L751.73,234.64L760.58,203.14L763.53,197.7L766.47,174.84L772.37,173.35L781.21,172.01L784.16,165.91L787.11,164.53L793.01,160.87L801.85,169.03L804.8,158.32L807.75,172.08L810.69,182.72L813.64,151.87L822.49,147.27L825.43,161.38L828.38,178.36L831.33,169.39L834.28,182.77L843.12,162.57L846.07,151.65L849.02,134.45L854.91,175.67L863.76,164.16L869.65,130.67L872.6,137L884.39,140.93L887.34,121.48L890.29,129.07L893.24,148.48L905.03,161.36L907.98,138.98L910.92,147.03L913.87,161.75L916.82,182.98L925.66,174.91L928.61,166.51L931.56,188.44L934.51,159.22L937.46,180.71L949.25,167.99L952.2,201.77L955.14,182.89L958.09,159.06L966.94,159.5L969.88,125.68L972.83,134.31L975.78,119.98L978.73,87.21L987.57,81.22L990.52,101.48L993.47,92.61L996.42,96.81L999.36,111.31L1008.21,95.74L1011.16,100.98L1014.1,105.23L1017.05,116.35L1020,98.77" style="vector-effect: non-scaling-stroke; fill: none; stroke: rgb(255, 102, 146); stroke-opacity: 1; stroke-width: 2px; opacity: 1;"/></g><g class="points"/><g class="text"/></g><g class="trace scatter trace405ac5" style="stroke-miterlimit: 2; opacity: 1;"><g class="fills"/><g class="errorbars"/><g class="lines"><path class="js-line" d="M0,28.68L2.95,38.16L5.9,35.75L8.84,65.27L17.69,56.91L20.64,80.4L23.58,97.05L26.53,76.79L29.48,84.72L38.32,57.12L41.27,66.72L44.22,47.44L47.17,57.76L50.12,41.33L58.96,26.46L61.91,35.48L64.86,59.08L67.8,62.32L70.75,69.67L79.6,40.93L82.54,54.96L85.49,77.67L88.44,73.64L100.23,62.81L103.18,63.62L106.13,62.29L109.08,62.23L112.02,61.56L120.87,67.87L123.82,66.45L126.76,68.64L129.71,75.07L132.66,97.69L141.5,75.59L144.45,85.51L147.4,72.38L150.35,68.41L153.29,59.84L162.14,72.43L165.09,64.95L168.03,77.09L170.98,90.82L173.93,71.76L182.77,72.3L185.72,83.83L188.67,87.83L191.62,82.53L194.57,62.32L203.41,77.84L206.36,76.94L209.31,80.69L212.25,63.87L215.2,58.54L224.05,56.88L226.99,58.41L232.89,66.21L235.84,79.49L247.63,96.94L250.58,90.88L253.53,98.27L256.47,108.07L265.32,107.43L268.27,110.97L271.21,110.12L274.16,127.91L277.11,145.48L285.95,148.59L288.9,148.81L291.85,135.93L294.8,131.45L297.75,147.49L306.59,160.23L309.54,147.41L312.49,142.7L315.43,125.6L318.38,134.76L327.23,131.72L330.17,133.41L333.12,143.13L336.07,152.27L339.02,143.18L347.86,167.68L350.81,172.74L353.76,155.39L356.71,152.6L368.5,152.08L371.45,133.31L374.39,147.76L377.34,147.71L380.29,128.21L389.13,113.52L392.08,111.5L395.03,110.7L397.98,102.7L400.92,109.26L409.77,106.47L412.72,125.62L415.66,133.8L418.61,134.57L421.56,149.02L430.4,156.21L433.35,134.44L436.3,123.1L442.2,129.82L451.04,137.13L453.99,147.79L456.94,128.77L459.88,136.1L462.83,151.2L471.68,134.78L474.62,137.88L477.57,132.3L480.52,130.53L483.47,128.66L492.31,122.09L495.26,133.54L498.21,148.57L501.16,166.17L504.1,214L515.9,301.77L518.84,239.4L521.79,212.64L524.74,223.59L533.58,237.34L536.53,273.85L539.48,248.51L542.43,244.94L545.38,269.22L557.17,232.59L560.12,261.96L563.06,257.55L566.01,243.34L574.86,246.23L577.8,227.93L580.75,220.03L583.7,223.36L586.65,245.98L595.49,239.37L598.44,251.43L601.39,251.74L604.34,244.83L607.28,241.34L616.13,252.91L619.08,245.12L622.02,233.68L624.97,245.18L627.92,224.76L636.76,204.97L639.71,211.09L645.61,181.58L648.55,178.27L657.4,174.35L660.35,181.29L663.29,216.15L666.24,203.1L669.19,197.12L678.03,202.41L680.98,210.46L683.93,212.23L686.88,167.88L689.83,156.5L698.67,167.26L701.62,174.41L704.57,159.47L707.51,156.7L710.46,164.04L719.31,150.08L722.25,146.48L725.2,149.27L728.15,151.86L731.1,166.29L739.94,183.34L742.89,182.67L745.84,188.55L748.79,212L751.73,234.9L760.58,203.23L763.53,197.7L766.47,174.75L769.42,173.62L772.37,173.31L781.21,172.03L784.16,166.02L787.11,164.75L793.01,161.21L801.85,169.45L804.8,158.69L810.69,183.03L813.64,152.02L822.49,147.5L825.43,161.75L828.38,178.69L831.33,169.7L834.28,183.29L843.12,163.01L846.07,151.82L849.02,134.59L854.91,176.19L863.76,164.78L869.65,131.41L872.6,137.77L884.39,141.65L887.34,122.3L890.29,129.96L893.24,149.32L905.03,162.3L907.98,140.07L910.92,147.98L913.87,162.69L916.82,184.04L925.66,175.92L928.61,167.54L931.56,189.57L934.51,160.25L937.46,182.01L949.25,169.32L952.2,203.39L955.14,184.33L958.09,159.66L966.94,160.33L969.88,126.1L972.83,134.94L975.78,120.69L978.73,87.55L987.57,81.78L990.52,102.25L993.47,92.96L996.42,97.02L999.36,111.45L1008.21,95.88L1011.16,101.47L1014.1,106L1017.05,117.06L1020,99.35" style="vector-effect: non-scaling-stroke; fill: none; stroke: rgb(182, 232, 128); stroke-opacity: 1; stroke-width: 2px; opacity: 1;"/></g><g class="points"/><g class="text"/></g><g class="trace scatter trace88829e" style="stroke-miterlimit: 2; opacity: 1;"><g class="fills"/><g class="errorbars"/><g class="lines"><path class="js-line" d="M0,28.68L2.95,38.54L5.9,36.33L8.84,65.68L17.69,56.75L20.64,80.82L23.58,97.01L26.53,75.47L29.48,83.54L38.32,56.03L41.27,65.16L44.22,45.76L47.17,56.19L50.12,39.18L58.96,25.61L61.91,34.24L64.86,57.45L67.8,61.72L70.75,70.7L79.6,41.77L82.54,55.55L85.49,76.58L88.44,72.04L100.23,60.93L103.18,62.46L106.13,61.15L109.08,62.26L112.02,65.25L120.87,69.72L123.82,67.39L126.76,69.16L129.71,74.74L132.66,99.15L141.5,75.91L144.45,85.49L147.4,71.98L150.35,67.76L153.29,58.13L162.14,71.1L165.09,62.12L168.03,74L170.98,86.97L173.93,68.9L182.77,68.99L185.72,80.24L188.67,84L191.62,78.81L194.57,59.33L203.41,74.15L206.36,73.31L209.31,76.58L212.25,60.07L215.2,54.98L224.05,54.08L226.99,54.96L229.94,60.12L232.89,63.69L235.84,76.68L247.63,94.39L250.58,87.91L253.53,95.81L256.47,105.37L265.32,104.4L268.27,107.8L271.21,106.39L277.11,141.83L285.95,145.02L288.9,145.23L291.85,132.17L294.8,127.79L297.75,144.11L306.59,156.85L309.54,143.88L312.49,139.1L315.43,122.65L318.38,132.08L327.23,128.33L330.17,129.59L333.12,139.69L336.07,148.62L339.02,139.59L347.86,164.81L350.81,169.87L353.76,152.29L356.71,150.11L368.5,149.27L371.45,131.19L374.39,145.64L377.34,145.48L380.29,125.67L389.13,111.02L392.08,108.18L395.03,107.71L397.98,99.98L400.92,106.53L409.77,103.66L412.72,123.72L415.66,132.27L418.61,133.08L421.56,147.74L430.4,155.97L433.35,135.5L436.3,123.83L442.2,129.96L451.04,137.51L453.99,148.24L456.94,130.04L459.88,136.69L462.83,149.71L471.68,133.24L474.62,135.31L477.57,130.49L480.52,128.34L483.47,126.68L492.31,120.62L495.26,130.85L498.21,145.92L501.16,164.29L504.1,211.96L515.9,301.27L518.84,239.16L521.79,212.66L524.74,222.94L533.58,235.82L536.53,272.7L539.48,248.16L542.43,244.25L545.38,268.85L557.17,233.74L560.12,262.63L563.06,258.4L566.01,244.85L574.86,247.95L577.8,229.16L580.75,221.23L583.7,225.16L586.65,248.12L595.49,241.08L598.44,253.96L601.39,254.91L604.34,247.83L607.28,244.33L616.13,256.56L619.08,249.95L622.02,238.48L624.97,250.21L627.92,230.91L636.76,210.04L639.71,215.89L645.61,187.24L648.55,184L657.4,180.93L660.35,187.92L663.29,222.32L666.24,210.33L669.19,205.56L678.03,211.77L680.98,219.7L683.93,222.11L686.88,179.31L689.83,166.22L698.67,177.15L701.62,185.61L704.57,169.5L707.51,166.62L710.46,173.36L719.31,160.08L722.25,156.39L725.2,158.99L728.15,162.07L731.1,175.5L739.94,192.89L742.89,192.66L745.84,199.08L748.79,222.2L751.73,245.93L760.58,213.53L763.53,208.22L766.47,185.46L769.42,183.3L772.37,184.68L781.21,182.65L784.16,177.12L787.11,176.34L793.01,172.51L801.85,179.93L804.8,169.03L810.69,193.53L813.64,162.53L822.49,158.69L825.43,172.86L828.38,190.04L831.33,180.78L834.28,195.2L843.12,174.97L846.07,162.75L849.02,145.16L854.91,187.97L863.76,176.31L869.65,141.92L872.6,148.19L884.39,152.51L887.34,133.35L890.29,140.74L893.24,160.18L905.03,173.21L907.98,152.01L910.92,160.57L913.87,175.15L916.82,195.7L925.66,187.67L928.61,179.38L931.56,202.3L934.51,174.36L937.46,194.57L949.25,182.15L952.2,216.38L958.09,175.7L966.94,176.6L969.88,143.94L972.83,152.1L975.78,138.98L978.73,106.52L987.57,99.49L990.52,121.37L993.47,112.79L996.42,116.05L999.36,128.82L1008.21,113.75L1014.1,126.63L1017.05,137.36L1020,117.31" style="vector-effect: non-scaling-stroke; fill: none; stroke: rgb(255, 151, 255); stroke-opacity: 1; stroke-width: 2px; opacity: 1;"/></g><g class="points"/><g class="text"/></g><g class="trace scatter trace97acb5" style="stroke-miterlimit: 2; opacity: 1;"><g class="fills"/><g class="errorbars"/><g class="lines"><path class="js-line" d="M0,28.68L2.95,39.56L5.9,35.59L8.84,64.08L17.69,49.89L20.64,83.87L23.58,86.69L26.53,60.15L29.48,75.05L38.32,51.76L41.27,64.86L44.22,41.67L47.17,53.64L50.12,36.42L58.96,37.6L61.91,48.31L64.86,78.19L67.8,82.31L70.75,78.8L79.6,51.87L82.54,72.31L85.49,80.27L88.44,73.63L100.23,61.62L103.18,62.17L106.13,59.41L109.08,53.67L112.02,43.56L120.87,51.8L126.76,37.95L129.71,38.65L132.66,67.19L141.5,45.88L144.45,54.6L147.4,45.54L153.29,41.27L162.14,45.57L165.09,38.2L168.03,45.82L170.98,65.74L173.93,46.99L182.77,42.26L185.72,56.78L188.67,65.59L191.62,57.21L194.57,29.94L203.41,38.71L206.36,42.48L209.31,43.27L212.25,23.69L215.2,21.62L226.99,17.55L229.94,20.31L232.89,20.27L235.84,25.76L247.63,45.21L250.58,32.81L253.53,36.57L256.47,48.36L265.32,45.33L268.27,48.23L271.21,41.66L274.16,59.09L277.11,64.82L285.95,73.29L288.9,73.55L291.85,49.41L294.8,45.43L297.75,59.78L306.59,70.78L309.54,59.21L312.49,56.01L315.43,37.62L318.38,47.82L327.23,37.22L330.17,34.74L333.12,52.92L336.07,60.65L339.02,54.9L347.86,90.67L350.81,88.31L353.76,74.17L356.71,77.01L368.5,81.76L371.45,72.23L374.39,98.94L377.34,95.55L380.29,73.92L389.13,51.73L392.08,43.98L395.03,44.33L397.98,37.17L400.92,40.62L409.77,39.2L412.72,57.69L415.66,64.66L418.61,76.83L421.56,93.51L430.4,106.58L433.35,87.21L436.3,74.84L439.25,75.39L442.2,81.12L451.04,90.48L453.99,95.34L456.94,96.38L459.88,108.71L462.83,113.44L471.68,88.75L474.62,110.43L477.57,110.47L480.52,109.88L483.47,102.82L492.31,95.9L495.26,99.35L498.21,115.96L501.16,152.52L504.1,206.74L512.95,266.83L515.9,287.76L518.84,224.54L521.79,186.83L524.74,188.03L533.58,199.77L536.53,247.73L539.48,217.81L542.43,215.42L545.38,243.24L557.17,203.38L560.12,227.8L563.06,219.95L566.01,209.47L574.86,215.81L577.8,192.44L580.75,178.13L583.7,184.79L586.65,214.42L595.49,201.59L598.44,219.95L601.39,225.11L604.34,233.13L607.28,221.56L616.13,253.5L619.08,248.68L622.02,224.62L624.97,225.92L627.92,205.45L636.76,174.4L639.71,173L645.61,146.39L648.55,142.94L657.4,138.11L660.35,143.21L663.29,159.26L666.24,137.1L669.19,129.52L678.03,128.03L680.98,129.4L683.93,134.35L686.88,101.62L689.83,85.53L698.67,87.95L701.62,92.2L704.57,71.97L707.51,74.39L710.46,83.81L719.31,66.94L722.25,57.81L725.2,62.97L728.15,63.4L731.1,58.61L739.94,76.98L742.89,74.14L745.84,79.86L748.79,105.82L751.73,126.53L760.58,102.25L763.53,101.58L766.47,76.29L769.42,76.74L772.37,67.44L781.21,70.62L784.16,68.63L793.01,68.51L801.85,78.05L804.8,60.85L807.75,77.06L810.69,102.79L813.64,65.01L822.49,76.97L825.43,93.57L828.38,101.3L831.33,92.88L834.28,124.49L843.12,113.94L846.07,97.97L849.02,75.07L851.97,100.94L854.91,138.44L863.76,125.88L866.71,108.96L869.65,90.03L872.6,95.18L884.39,97.63L887.34,77.95L890.29,89.9L893.24,108.17L905.03,136.36L907.98,135.37L910.92,161.12L913.87,201.19L916.82,218.31L925.66,212.99L928.61,200.98L931.56,238.23L934.51,214.98L937.46,254.91L949.25,252.06L952.2,277.51L955.14,265.67L958.09,244.14L966.94,265.41L969.88,236.62L972.83,259.37L975.78,246.58L978.73,206.07L987.57,207.82L990.52,238.01L993.47,219.31L996.42,211.15L999.36,232.76L1008.21,250.93L1011.16,252.22L1014.1,262.4L1017.05,288.4L1020,256.36" style="vector-effect: non-scaling-stroke; fill: none; stroke: rgb(254, 203, 82); stroke-opacity: 1; stroke-width: 2px; opacity: 1;"/></g><g class="points"/><g class="text"/></g></g></g><g class="overplot"/><path class="xlines-above crisp" d="M0,0" style="fill: none;"/><path class="ylines-above crisp" d="M0,0" style="fill: none;"/><g class="overlines-above"/><g class="xaxislayer-above"><g class="xtick"><text text-anchor="middle" x="0" y="424" transform="translate(223.93,0)" style="font-family: 'Open Sans', verdana, arial, sans-serif; font-size: 12px; fill: rgb(42, 63, 95); fill-opacity: 1; white-space: pre; opacity: 1;">May 2015</text></g><g class="xtick"><text text-anchor="middle" x="0" y="424" style="font-family: 'Open Sans', verdana, arial, sans-serif; font-size: 12px; fill: rgb(42, 63, 95); fill-opacity: 1; white-space: pre; opacity: 1;" transform="translate(403.76,0)">Jul 2015</text></g><g class="xtick"><text text-anchor="middle" x="0" y="424" style="font-family: 'Open Sans', verdana, arial, sans-serif; font-size: 12px; fill: rgb(42, 63, 95); fill-opacity: 1; white-space: pre; opacity: 1;" transform="translate(586.53,0)">Sep 2015</text></g><g class="xtick"><text text-anchor="middle" x="0" y="424" style="font-family: 'Open Sans', verdana, arial, sans-serif; font-size: 12px; fill: rgb(42, 63, 95); fill-opacity: 1; white-space: pre; opacity: 1;" transform="translate(766.36,0)">Nov 2015</text></g><g class="xtick"><text text-anchor="middle" x="0" y="424" style="font-family: 'Open Sans', verdana, arial, sans-serif; font-size: 12px; fill: rgb(42, 63, 95); fill-opacity: 1; white-space: pre; opacity: 1;" transform="translate(946.18,0)">Jan 2016</text></g></g><g class="yaxislayer-above"><g class="ytick"><text text-anchor="end" x="49" y="4.199999999999999" transform="translate(0,364.75)" style="font-family: 'Open Sans', verdana, arial, sans-serif; font-size: 12px; fill: rgb(42, 63, 95); fill-opacity: 1; white-space: pre; opacity: 1;">15.5k</text></g><g class="ytick"><text text-anchor="end" x="49" y="4.199999999999999" style="font-family: 'Open Sans', verdana, arial, sans-serif; font-size: 12px; fill: rgb(42, 63, 95); fill-opacity: 1; white-space: pre; opacity: 1;" transform="translate(0,313.69)">16k</text></g><g class="ytick"><text text-anchor="end" x="49" y="4.199999999999999" style="font-family: 'Open Sans', verdana, arial, sans-serif; font-size: 12px; fill: rgb(42, 63, 95); fill-opacity: 1; white-space: pre; opacity: 1;" transform="translate(0,262.63)">16.5k</text></g><g class="ytick"><text text-anchor="end" x="49" y="4.199999999999999" style="font-family: 'Open Sans', verdana, arial, sans-serif; font-size: 12px; fill: rgb(42, 63, 95); fill-opacity: 1; white-space: pre; opacity: 1;" transform="translate(0,211.57)">17k</text></g><g class="ytick"><text text-anchor="end" x="49" y="4.199999999999999" style="font-family: 'Open Sans', verdana, arial, sans-serif; font-size: 12px; fill: rgb(42, 63, 95); fill-opacity: 1; white-space: pre; opacity: 1;" transform="translate(0,160.51)">17.5k</text></g><g class="ytick"><text text-anchor="end" x="49" y="4.199999999999999" style="font-family: 'Open Sans', verdana, arial, sans-serif; font-size: 12px; fill: rgb(42, 63, 95); fill-opacity: 1; white-space: pre; opacity: 1;" transform="translate(0,109.45)">18k</text></g></g><g class="overaxes-above"/></g></g><g class="polarlayer"/><g class="ternarylayer"/><g class="geolayer"/><g class="funnelarealayer"/><g class="pielayer"/><g class="iciclelayer"/><g class="treemaplayer"/><g class="sunburstlayer"/><g class="glimages"/><defs id="topdefs-4a0e5e"><g class="clips"/><clipPath id="legend4a0e5e"><rect width="136" height="200" x="0" y="0"/></clipPath></defs><g class="layer-above"><g class="imagelayer"/><g class="shapelayer"/></g><g class="infolayer"><g class="legend" pointer-events="all" transform="translate(1090.4,60)"><rect class="bg" shape-rendering="crispEdges" width="136" height="200" x="0" y="0" style="stroke: rgb(68, 68, 68); stroke-opacity: 1; fill: rgb(255, 255, 255); fill-opacity: 1; stroke-width: 0px;"/><g class="scrollbox" transform="" clip-path="url(#legend4a0e5e)"><g class="groups"><g class="traces" transform="translate(0,14.5)" style="opacity: 1;"><text class="legendtext" text-anchor="start" x="40" y="4.680000000000001" style="font-family: 'Open Sans', verdana, arial, sans-serif; font-size: 12px; fill: rgb(42, 63, 95); fill-opacity: 1; white-space: pre;">Conic γ=0.1</text><g class="layers" style="opacity: 1;"><g class="legendfill"/><g class="legendlines"><path class="js-line" d="M5,0h30" style="fill: none; stroke: rgb(99, 110, 250); stroke-opacity: 1; stroke-width: 2px;"/></g><g class="legendsymbols"><g class="legendpoints"/></g></g><rect class="legendtoggle" x="0" y="-9.5" width="130.8186798095703" height="19" style="fill: rgb(0, 0, 0); fill-opacity: 0;"/></g><g class="traces" transform="translate(0,33.5)" style="opacity: 1;"><text class="legendtext" text-anchor="start" x="40" y="4.680000000000001" style="font-family: 'Open Sans', verdana, arial, sans-serif; font-size: 12px; fill: rgb(42, 63, 95); fill-opacity: 1; white-space: pre;">Conic γ=3.275</text><g class="layers" style="opacity: 1;"><g class="legendfill"/><g class="legendlines"><path class="js-line" d="M5,0h30" style="fill: none; stroke: rgb(239, 85, 59); stroke-opacity: 1; stroke-width: 2px;"/></g><g class="legendsymbols"><g class="legendpoints"/></g></g><rect class="legendtoggle" x="0" y="-9.5" width="130.8186798095703" height="19" style="fill: rgb(0, 0, 0); fill-opacity: 0;"/></g><g class="traces" transform="translate(0,52.5)" style="opacity: 1;"><text class="legendtext" text-anchor="start" x="40" y="4.680000000000001" style="font-family: 'Open Sans', verdana, arial, sans-serif; font-size: 12px; fill: rgb(42, 63, 95); fill-opacity: 1; white-space: pre;">Conic γ=6.45</text><g class="layers" style="opacity: 1;"><g class="legendfill"/><g class="legendlines"><path class="js-line" d="M5,0h30" style="fill: none; stroke: rgb(0, 204, 150); stroke-opacity: 1; stroke-width: 2px;"/></g><g class="legendsymbols"><g class="legendpoints"/></g></g><rect class="legendtoggle" x="0" y="-9.5" width="130.8186798095703" height="19" style="fill: rgb(0, 0, 0); fill-opacity: 0;"/></g><g class="traces" transform="translate(0,71.5)" style="opacity: 1;"><text class="legendtext" text-anchor="start" x="40" y="4.680000000000001" style="font-family: 'Open Sans', verdana, arial, sans-serif; font-size: 12px; fill: rgb(42, 63, 95); fill-opacity: 1; white-space: pre;">Conic γ=9.625</text><g class="layers" style="opacity: 1;"><g class="legendfill"/><g class="legendlines"><path class="js-line" d="M5,0h30" style="fill: none; stroke: rgb(171, 99, 250); stroke-opacity: 1; stroke-width: 2px;"/></g><g class="legendsymbols"><g class="legendpoints"/></g></g><rect class="legendtoggle" x="0" y="-9.5" width="130.8186798095703" height="19" style="fill: rgb(0, 0, 0); fill-opacity: 0;"/></g><g class="traces" transform="translate(0,90.5)" style="opacity: 1;"><text class="legendtext" text-anchor="start" x="40" y="4.680000000000001" style="font-family: 'Open Sans', verdana, arial, sans-serif; font-size: 12px; fill: rgb(42, 63, 95); fill-opacity: 1; white-space: pre;">Conic γ=12.8</text><g class="layers" style="opacity: 1;"><g class="legendfill"/><g class="legendlines"><path class="js-line" d="M5,0h30" style="fill: none; stroke: rgb(255, 161, 90); stroke-opacity: 1; stroke-width: 2px;"/></g><g class="legendsymbols"><g class="legendpoints"/></g></g><rect class="legendtoggle" x="0" y="-9.5" width="130.8186798095703" height="19" style="fill: rgb(0, 0, 0); fill-opacity: 0;"/></g><g class="traces" transform="translate(0,109.5)" style="opacity: 1;"><text class="legendtext" text-anchor="start" x="40" y="4.680000000000001" style="font-family: 'Open Sans', verdana, arial, sans-serif; font-size: 12px; fill: rgb(42, 63, 95); fill-opacity: 1; white-space: pre;">Mean-Variance</text><g class="layers" style="opacity: 1;"><g class="legendfill"/><g class="legendlines"><path class="js-line" d="M5,0h30" style="fill: none; stroke: rgb(25, 211, 243); stroke-opacity: 1; stroke-width: 2px;"/></g><g class="legendsymbols"><g class="legendpoints"/></g></g><rect class="legendtoggle" x="0" y="-9.5" width="130.8186798095703" height="19" style="fill: rgb(0, 0, 0); fill-opacity: 0;"/></g><g class="traces" transform="translate(0,128.5)" style="opacity: 1;"><text class="legendtext" text-anchor="start" x="40" y="4.680000000000001" style="font-family: 'Open Sans', verdana, arial, sans-serif; font-size: 12px; fill: rgb(42, 63, 95); fill-opacity: 1; white-space: pre;">Mean-VaR</text><g class="layers" style="opacity: 1;"><g class="legendfill"/><g class="legendlines"><path class="js-line" d="M5,0h30" style="fill: none; stroke: rgb(255, 102, 146); stroke-opacity: 1; stroke-width: 2px;"/></g><g class="legendsymbols"><g class="legendpoints"/></g></g><rect class="legendtoggle" x="0" y="-9.5" width="130.8186798095703" height="19" style="fill: rgb(0, 0, 0); fill-opacity: 0;"/></g><g class="traces" transform="translate(0,147.5)" style="opacity: 1;"><text class="legendtext" text-anchor="start" x="40" y="4.680000000000001" style="font-family: 'Open Sans', verdana, arial, sans-serif; font-size: 12px; fill: rgb(42, 63, 95); fill-opacity: 1; white-space: pre;">Mean-CVaR 95%</text><g class="layers" style="opacity: 1;"><g class="legendfill"/><g class="legendlines"><path class="js-line" d="M5,0h30" style="fill: none; stroke: rgb(182, 232, 128); stroke-opacity: 1; stroke-width: 2px;"/></g><g class="legendsymbols"><g class="legendpoints"/></g></g><rect class="legendtoggle" x="0" y="-9.5" width="130.8186798095703" height="19" style="fill: rgb(0, 0, 0); fill-opacity: 0;"/></g><g class="traces" transform="translate(0,166.5)" style="opacity: 1;"><text class="legendtext" text-anchor="start" x="40" y="4.680000000000001" style="font-family: 'Open Sans', verdana, arial, sans-serif; font-size: 12px; fill: rgb(42, 63, 95); fill-opacity: 1; white-space: pre;">Mean-CVaR 99%</text><g class="layers" style="opacity: 1;"><g class="legendfill"/><g class="legendlines"><path class="js-line" d="M5,0h30" style="fill: none; stroke: rgb(255, 151, 255); stroke-opacity: 1; stroke-width: 2px;"/></g><g class="legendsymbols"><g class="legendpoints"/></g></g><rect class="legendtoggle" x="0" y="-9.5" width="130.8186798095703" height="19" style="fill: rgb(0, 0, 0); fill-opacity: 0;"/></g><g class="traces" transform="translate(0,185.5)" style="opacity: 1;"><text class="legendtext" text-anchor="start" x="40" y="4.680000000000001" style="font-family: 'Open Sans', verdana, arial, sans-serif; font-size: 12px; fill: rgb(42, 63, 95); fill-opacity: 1; white-space: pre;">DJIA</text><g class="layers" style="opacity: 1;"><g class="legendfill"/><g class="legendlines"><path class="js-line" d="M5,0h30" style="fill: none; stroke: rgb(254, 203, 82); stroke-opacity: 1; stroke-width: 2px;"/></g><g class="legendsymbols"><g class="legendpoints"/></g></g><rect class="legendtoggle" x="0" y="-9.5" width="130.8186798095703" height="19" style="fill: rgb(0, 0, 0); fill-opacity: 0;"/></g></g></g><rect class="scrollbar" rx="20" ry="3" width="0" height="0" x="0" y="0" style="fill: rgb(128, 139, 164); fill-opacity: 1;"/></g><g class="g-gtitle"/><g class="g-xtitle"/><g class="g-ytitle"/></g></svg>