<svg class="main-svg" xmlns="http://www.w3.org/2000/svg" xmlns:xlink="http://www.w3.org/1999/xlink" width="1238" height="461" style=""><rect x="0" y="0" width="1238" height="461" style="fill: rgb(255, 255, 255); fill-opacity: 1;"/><defs id="defs-2ab1d1"><g class="clips"><clipPath id="clip2ab1d1xyplot" class="plotclip"><rect width="1020" height="351"/></clipPath><clipPath class="axesclip" id="clip2ab1d1x"><rect x="50" y="0" width="1020" height="461"/></clipPath><clipPath class="axesclip" id="clip2ab1d1y"><rect x="0" y="60" width="1238" height="351"/></clipPath><clipPath class="axesclip" id="clip2ab1d1xy"><rect x="50" y="60" width="1020" height="351"/></clipPath></g><g class="gradients"/><g class="patterns"/></defs><g class="bglayer"><rect class="bg" x="50" y="60" width="1020" height="351" style="fill: rgb(229, 236, 246); fill-opacity: 1; stroke-width: 0;"/></g><g class="layer-below"><g class="imagelayer"/><g class="shapelayer"/></g><g class="cartesianlayer"><g class="subplot xy"><g class="layer-subplot"><g class="shapelayer"/><g class="imagelayer"/></g><g class="gridlayer"><g class="x"><path class="xgrid crisp" transform="translate(223.93,0)" d="M0,60v351" style="stroke: rgb(255, 255, 255); stroke-opacity: 1; stroke-width: 1px;"/><path class="xgrid crisp" transform="translate(403.76,0)" d="M0,60v351" style="stroke: rgb(255, 255, 255); stroke-opacity: 1; stroke-width: 1px;"/><path class="xgrid crisp" transform="translate(586.53,0)" d="M0,60v351" style="stroke: rgb(255, 255, 255); stroke-opacity: 1; stroke-width: 1px;"/><path class="xgrid crisp" transform="translate(766.36,0)" d="M0,60v351" style="stroke: rgb(255, 255, 255); stroke-opacity: 1; stroke-width: 1px;"/><path class="xgrid crisp" transform="translate(946.18,0)" d="M0,60v351" style="stroke: rgb(255, 255, 255); stroke-opacity: 1; stroke-width: 1px;"/></g><g class="y"><path class="ygrid crisp" transform="translate(0,393.8)" d="M50,0h1020" style="stroke: rgb(255, 255, 255); stroke-opacity: 1; stroke-width: 1px;"/><path class="ygrid crisp" transform="translate(0,337.58)" d="M50,0h1020" style="stroke: rgb(255, 255, 255); stroke-opacity: 1; stroke-width: 1px;"/><path class="ygrid crisp" transform="translate(0,281.35)" d="M50,0h1020" style="stroke: rgb(255, 255, 255); stroke-opacity: 1; stroke-width: 1px;"/><path class="ygrid crisp" transform="translate(0,225.13)" d="M50,0h1020" style="stroke: rgb(255, 255, 255); stroke-opacity: 1; stroke-width: 1px;"/><path class="ygrid crisp" transform="translate(0,168.9)" d="M50,0h1020" style="stroke: rgb(255, 255, 255); stroke-opacity: 1; stroke-width: 1px;"/><path class="ygrid crisp" transform="translate(0,112.68)" d="M50,0h1020" style="stroke: rgb(255, 255, 255); stroke-opacity: 1; stroke-width: 1px;"/></g></g><g class="zerolinelayer"/><path class="xlines-below"/><path class="ylines-below"/><g class="overlines-below"/><g class="xaxislayer-below"/><g class="yaxislayer-below"/><g class="overaxes-below"/><g class="plot" transform="translate(50,60)" clip-path="url(#clip2ab1d1xyplot)"><g class="scatterlayer mlayer"><g class="trace scatter traceb8e969" style="stroke-miterlimit: 2; opacity: 1;"><g class="fills"/><g class="errorbars"/><g class="lines"><path class="js-line" d="M0,29.81L2.95,39.7L5.9,37.15L8.84,68.95L17.69,59.63L20.64,85.37L23.58,102.76L26.53,81.15L29.48,89.16L38.32,59.22L41.27,70.11L44.22,50.28L47.17,61.57L50.12,42.71L58.96,27.45L61.91,36.94L64.86,62.73L70.75,73.14L79.6,41.99L82.54,58.01L85.49,83.58L88.44,79.26L100.23,68.21L103.18,69.24L106.13,66.26L109.08,66.68L112.02,61.56L120.87,70.07L123.82,68.82L126.76,72.62L129.71,79.82L132.66,103.77L141.5,81.32L144.45,92.56L147.4,79.33L150.35,74.17L153.29,65.63L162.14,80.97L165.09,72.88L170.98,102.6L173.93,81.71L182.77,83.45L185.72,96.49L188.67,99.84L191.62,93.7L194.57,70.81L203.41,88.61L206.36,87.02L209.31,92.99L212.25,75.81L215.2,68.36L224.05,66.2L226.99,69.71L232.89,78.02L235.84,92.39L247.63,111.36L250.58,105.17L253.53,112.71L256.47,122.35L265.32,122.05L268.27,125.82L271.21,124.49L274.16,144.43L277.11,164.49L285.95,168.2L288.9,169.08L291.85,155.06L294.8,149.87L297.75,166.9L306.59,181.09L309.54,167.37L312.49,161.9L315.43,142.91L318.38,152.53L327.23,149.34L330.17,151.66L333.12,162.68L336.07,172.71L339.02,161.85L347.86,188.92L350.81,194.97L353.76,175.62L356.71,172.67L368.5,172.6L371.45,150.16L374.39,165.84L377.34,165.71L380.29,144.75L389.13,128.58L392.08,126.11L395.03,125.41L397.98,117.96L400.92,125.73L409.77,123.9L412.72,142.52L415.66,149.52L418.61,148.66L421.56,164.6L430.4,171.38L433.35,147.38L436.3,133.92L439.25,138.65L442.2,141.19L451.04,148.07L453.99,159.1L456.94,137.87L459.88,146.13L462.83,165.14L471.68,147.85L474.62,150.48L477.57,144.13L480.52,139.45L483.47,136.9L492.31,131.08L495.26,143.49L498.21,159.41L501.16,180.52L504.1,234.01L512.95,302.77L515.9,333.45L518.84,265.3L521.79,233.9L524.74,245.09L533.58,261.78L536.53,300.54L539.48,272.02L542.43,267.87L545.38,294.56L557.17,253.24L560.12,285.55L563.06,280.84L566.01,264.57L574.86,268.19L577.8,247.97L580.75,238.35L583.7,241.81L586.65,266.48L595.49,259.99L598.44,273.19L601.39,272.98L604.34,265.32L607.28,260.03L616.13,274.41L619.08,266.2L622.02,251.73L624.97,263.54L627.92,240.22L636.76,217.62L639.71,223.1L645.61,188.9L648.55,185.6L657.4,180.28L660.35,188.05L663.29,228.36L666.24,212.94L669.19,204.44L678.03,208.48L680.98,214.63L683.93,215.39L686.88,164.27L689.83,153.79L698.67,164.85L701.62,170.39L704.57,156.03L707.51,153.9L710.46,162.1L719.31,147.49L722.25,143.26L725.2,146.08L728.15,148.42L731.1,165.03L739.94,182.18L742.89,180.62L745.84,187.53L748.79,212.17L751.73,239.81L760.58,205.8L763.53,196.36L766.47,171.7L769.42,171.32L772.37,169.26L781.21,167.74L784.16,161.1L793.01,155.73L801.85,166.15L804.8,153.21L807.75,168.35L810.69,180.88L813.64,145.97L822.49,139.51L825.43,154.39L828.38,172.67L831.33,162.62L834.28,177.37L843.12,155.4L846.07,142.3L849.02,122.19L854.91,167.34L863.76,153.79L869.65,117.75L872.6,125.39L884.39,128.67L887.34,106.65L890.29,115.45L893.24,136.42L905.03,149.91L907.98,123.63L910.92,133.15L913.87,150.37L916.82,175.95L925.66,164.95L928.61,155.77L931.56,183.13L934.51,152.1L937.46,177.54L949.25,161.4L952.2,199.04L958.09,144.67L966.94,144.3L969.88,108.42L972.83,119.26L975.78,103.8L978.73,66.52L987.57,59.3L990.52,81.54L993.47,74.48L996.42,82.49L999.36,102.23L1008.21,87.77L1011.16,92.6L1014.1,93.27L1017.05,104.15L1020,86.13" style="vector-effect: non-scaling-stroke; fill: none; stroke: rgb(25, 211, 243); stroke-opacity: 1; stroke-width: 2px; opacity: 1;"/></g><g class="points"/><g class="text"/></g><g class="trace scatter traceb2d544" style="stroke-miterlimit: 2; opacity: 1;"><g class="fills"/><g class="errorbars"/><g class="lines"><path class="js-line" d="M0,29.81L2.95,40.24L5.9,37.53L8.84,70.01L17.69,60.81L20.64,86.63L23.58,104.93L26.53,82.73L29.48,91.56L38.32,61.21L41.27,71.68L44.22,50.52L47.17,61.89L50.12,43.81L58.96,27.33L61.91,37.11L64.86,63.03L67.8,66.74L70.75,74.83L79.6,43.18L82.54,58.56L85.49,83.75L88.44,79.33L100.23,67.24L103.18,68.36L106.13,66.96L109.08,66.93L112.02,66.05L120.87,73.06L123.82,71.63L126.76,74.22L129.71,81.19L132.66,106.31L141.5,82L144.45,93.15L147.4,78.75L150.35,74.3L153.29,64.61L162.14,78.67L165.09,70.37L168.03,83.92L170.98,98.98L173.93,77.96L182.77,78.64L185.72,91.36L188.67,95.73L191.62,89.79L194.57,67.66L203.41,84.66L206.36,83.77L209.31,87.81L212.25,69.24L215.2,63.46L224.05,61.73L226.99,63.26L232.89,71.82L235.84,86.46L247.63,105.62L250.58,99.04L253.53,107.22L256.47,117.9L265.32,117.34L268.27,121.2L271.21,120.23L274.16,139.84L277.11,159.32L285.95,162.75L288.9,163.01L291.85,148.89L294.8,143.91L297.75,161.55L306.59,175.73L309.54,161.72L312.49,156.47L315.43,137.64L318.38,147.78L327.23,144.45L330.17,146.37L333.12,157.12L336.07,167.33L339.02,157.32L347.86,184.18L350.81,189.9L353.76,170.85L356.71,167.88L368.5,167.41L371.45,146.61L374.39,162.43L377.34,162.21L380.29,140.8L389.13,124.63L392.08,122.41L395.03,121.6L397.98,112.82L400.92,120.04L409.77,117.16L412.72,138.29L415.66,147.44L418.61,148.32L421.56,164.5L430.4,172.19L433.35,148.22L436.3,135.83L442.2,142.55L451.04,150.51L453.99,162.09L456.94,140.61L459.88,148.68L462.83,165.08L471.68,147.19L474.62,150.37L477.57,144.18L480.52,142.18L492.31,132.79L495.26,145.1L501.16,180.88L504.1,233.55L515.9,330.25L518.84,261.9L521.79,232.55L524.74,244.68L533.58,259.95L536.53,299.93L539.48,272.02L542.43,268.09L545.38,294.81L557.17,254.55L560.12,286.79L563.06,281.97L566.01,266.27L574.86,269.44L577.8,249.16L580.75,240.32L583.7,243.84L586.65,268.79L595.49,261.6L598.44,275.02L601.39,275.31L604.34,267.74L607.28,263.99L616.13,276.53L619.08,267.93L622.02,255.41L624.97,268.19L627.92,245.36L636.76,223.4L639.71,230.31L645.61,197.69L648.55,194.03L657.4,189.73L660.35,197.57L663.29,235.78L666.24,221.52L669.19,214.88L678.03,220.8L680.98,229.33L683.93,231.04L686.88,182.5L689.83,169.81L698.67,181.63L701.62,189.38L704.57,173.09L707.51,170.21L710.46,178.41L719.31,162.91L722.25,159.17L725.2,162.16L728.15,164.93L731.1,181.16L739.94,199.98L742.89,199.28L745.84,205.66L748.79,231.38L751.73,256.59L760.58,221.91L763.53,215.92L766.47,190.75L772.37,189.11L781.21,187.63L784.16,180.92L787.11,179.4L793.01,175.37L801.85,184.35L804.8,172.56L807.75,187.71L810.69,199.43L813.64,165.45L822.49,160.39L825.43,175.92L828.38,194.62L831.33,184.74L834.28,199.49L843.12,177.23L846.07,165.21L849.02,146.27L854.91,191.67L863.76,178.99L869.65,142.11L872.6,149.08L884.39,153.4L887.34,131.99L890.29,140.35L893.24,161.72L905.03,175.9L907.98,151.26L910.92,160.13L913.87,176.33L916.82,199.71L925.66,190.83L928.61,181.58L931.56,205.73L934.51,173.55L937.46,197.21L949.25,183.21L952.2,220.4L955.14,199.61L958.09,173.38L966.94,173.85L969.88,136.62L972.83,146.12L975.78,130.34L978.73,94.25L987.57,87.66L990.52,109.97L993.47,100.2L996.42,104.83L999.36,120.8L1008.21,103.65L1011.16,109.42L1014.1,114.09L1017.05,126.34L1020,106.99" style="vector-effect: non-scaling-stroke; fill: none; stroke: rgb(255, 102, 146); stroke-opacity: 1; stroke-width: 2px; opacity: 1;"/></g><g class="points"/><g class="text"/></g><g class="trace scatter tracec2e761" style="stroke-miterlimit: 2; opacity: 1;"><g class="fills"/><g class="errorbars"/><g class="lines"><path class="js-line" d="M0,29.81L2.95,40.24L5.9,37.59L8.84,70.1L17.69,60.89L20.64,86.76L23.58,105.09L26.53,82.79L29.48,91.51L38.32,61.12L41.27,71.7L44.22,50.47L47.17,61.83L50.12,43.74L58.96,27.36L61.91,37.29L64.86,63.29L67.8,66.84L70.75,74.94L79.6,43.3L82.54,58.75L85.49,83.75L88.44,79.31L100.23,67.38L103.18,68.28L106.13,66.82L109.08,66.75L112.02,66.01L120.87,72.96L123.82,71.39L126.76,73.81L129.71,80.88L132.66,105.8L141.5,81.46L144.45,92.38L147.4,77.93L150.35,73.56L153.29,64.12L162.14,77.98L165.09,69.75L168.03,83.11L170.98,98.23L173.93,77.24L182.77,77.84L185.72,90.53L188.67,94.94L191.62,89.11L194.57,66.85L203.41,83.93L206.36,82.95L209.31,87.08L212.25,68.55L215.2,62.69L224.05,60.86L226.99,62.54L232.89,71.13L235.84,85.76L247.63,104.97L250.58,98.3L253.53,106.44L256.47,117.22L265.32,116.52L268.27,120.42L271.21,119.48L274.16,139.07L277.11,158.42L285.95,161.85L288.9,162.08L291.85,147.9L294.8,142.97L297.75,160.63L306.59,174.66L309.54,160.55L312.49,155.35L315.43,136.53L318.38,146.61L327.23,143.27L330.17,145.13L333.12,155.83L336.07,165.89L339.02,155.89L347.86,182.86L350.81,188.44L353.76,169.33L356.71,166.26L368.5,165.69L371.45,145.02L374.39,160.93L377.34,160.87L380.29,139.4L389.13,123.23L392.08,121.01L395.03,120.12L397.98,111.31L400.92,118.53L409.77,115.46L412.72,136.55L415.66,145.56L418.61,146.4L421.56,162.31L430.4,170.23L433.35,146.27L436.3,133.78L442.2,141.17L451.04,149.22L453.99,160.96L456.94,140.02L459.88,148.09L462.83,164.72L471.68,146.63L474.62,150.05L477.57,143.91L480.52,141.96L483.47,139.89L492.31,132.66L495.26,145.27L498.21,161.82L501.16,181.2L504.1,233.87L515.9,330.52L518.84,261.84L521.79,232.38L524.74,244.43L533.58,259.57L536.53,299.77L539.48,271.87L542.43,267.93L545.38,294.67L557.17,254.34L560.12,286.68L563.06,281.83L566.01,266.18L574.86,269.36L577.8,249.21L580.75,240.51L583.7,244.17L586.65,269.09L595.49,261.81L598.44,275.09L601.39,275.43L604.34,267.82L607.28,263.98L616.13,276.72L619.08,268.14L622.02,255.54L624.97,268.21L627.92,245.72L636.76,223.93L639.71,230.67L645.61,198.17L648.55,194.53L657.4,190.2L660.35,197.85L663.29,236.24L666.24,221.87L669.19,215.28L678.03,221.11L680.98,229.98L683.93,231.92L686.88,183.08L689.83,170.55L698.67,182.41L701.62,190.27L704.57,173.82L707.51,170.78L710.46,178.86L719.31,163.48L722.25,159.52L725.2,162.59L728.15,165.44L731.1,181.34L739.94,200.11L742.89,199.37L745.84,205.84L748.79,231.66L751.73,256.88L760.58,222.01L763.53,215.92L766.47,190.65L769.42,189.4L772.37,189.06L781.21,187.66L784.16,181.03L787.11,179.63L793.01,175.75L801.85,184.81L804.8,172.97L810.69,199.77L813.64,165.62L822.49,160.64L825.43,176.33L828.38,194.99L831.33,185.09L834.28,200.06L843.12,177.73L846.07,165.4L849.02,146.43L854.91,192.24L863.76,179.67L869.65,142.93L872.6,149.93L884.39,154.2L887.34,132.89L890.29,141.33L893.24,162.65L905.03,176.94L907.98,152.47L910.92,161.17L913.87,177.37L916.82,200.88L925.66,191.93L928.61,182.71L931.56,206.96L934.51,174.68L937.46,198.65L949.25,184.67L952.2,222.18L955.14,201.19L958.09,174.04L966.94,174.77L969.88,137.08L972.83,146.81L975.78,131.12L978.73,94.63L987.57,88.27L990.52,110.82L993.47,100.58L996.42,105.06L999.36,120.95L1008.21,103.8L1011.16,109.95L1014.1,114.94L1017.05,127.13L1020,107.62" style="vector-effect: non-scaling-stroke; fill: none; stroke: rgb(182, 232, 128); stroke-opacity: 1; stroke-width: 2px; opacity: 1;"/></g><g class="points"/><g class="text"/></g><g class="trace scatter traceb17434" style="stroke-miterlimit: 2; opacity: 1;"><g class="fills"/><g class="errorbars"/><g class="lines"><path class="js-line" d="M0,29.81L2.95,40.66L5.9,38.22L8.84,70.55L17.69,60.72L20.64,87.22L23.58,105.05L26.53,81.33L29.48,90.21L38.32,59.92L41.27,69.98L44.22,48.61L47.17,60.1L50.12,41.37L58.96,26.43L61.91,35.93L64.86,61.48L67.8,66.18L70.75,76.08L79.6,44.22L82.54,59.39L85.49,82.55L88.44,77.55L100.23,65.32L103.18,67.01L106.13,65.56L109.08,66.78L112.02,70.08L120.87,75L123.82,72.43L126.76,74.38L129.71,80.53L132.66,107.4L141.5,81.81L144.45,92.37L147.4,77.49L150.35,72.84L153.29,62.23L162.14,76.51L165.09,66.63L168.03,79.71L170.98,94L173.93,74.09L182.77,74.2L185.72,86.58L188.67,90.73L191.62,85.01L194.57,63.55L203.41,79.88L206.36,78.95L209.31,82.55L212.25,64.37L215.2,58.77L224.05,57.77L226.99,58.74L229.94,64.43L232.89,68.36L235.84,82.66L247.63,102.16L250.58,95.03L253.53,103.72L256.47,114.25L265.32,113.19L268.27,116.93L271.21,115.38L277.11,154.4L285.95,157.91L288.9,158.14L291.85,143.76L294.8,138.94L297.75,156.91L306.59,170.94L309.54,156.66L312.49,151.4L315.43,133.29L318.38,143.66L327.23,139.54L330.17,140.93L333.12,152.04L336.07,161.88L339.02,151.94L347.86,179.7L350.81,185.27L353.76,165.92L356.71,163.52L368.5,162.59L371.45,142.69L374.39,158.6L377.34,158.42L380.29,136.61L389.13,120.47L392.08,117.35L395.03,116.83L397.98,108.32L400.92,115.53L409.77,112.37L412.72,134.46L415.66,143.88L418.61,144.76L421.56,160.91L430.4,169.97L433.35,147.43L436.3,134.58L442.2,141.33L451.04,149.65L453.99,161.46L456.94,141.42L459.88,148.74L462.83,163.08L471.68,144.95L474.62,147.22L477.57,141.92L480.52,139.55L483.47,137.71L492.31,131.05L495.26,142.31L498.21,158.91L501.16,179.13L504.1,231.62L515.9,329.97L518.84,261.57L521.79,232.39L524.74,243.71L533.58,257.89L536.53,298.5L539.48,271.48L542.43,267.18L545.38,294.27L557.17,255.6L560.12,287.42L563.06,282.76L566.01,267.84L574.86,271.25L577.8,250.57L580.75,241.83L583.7,246.16L586.65,271.44L595.49,263.69L598.44,277.87L601.39,278.91L604.34,271.12L607.28,267.26L616.13,280.73L619.08,273.45L622.02,260.83L624.97,273.74L627.92,252.49L636.76,229.51L639.71,235.95L645.61,204.4L648.55,200.83L657.4,197.45L660.35,205.15L663.29,243.03L666.24,229.83L669.19,224.58L678.03,231.41L680.98,240.14L683.93,242.8L686.88,195.67L689.83,181.26L698.67,193.29L701.62,202.61L704.57,184.87L707.51,181.7L710.46,189.12L719.31,174.49L722.25,170.44L725.2,173.3L728.15,176.68L731.1,191.48L739.94,210.63L742.89,210.37L745.84,217.44L748.79,242.9L751.73,269.03L760.58,233.36L763.53,227.5L766.47,202.44L769.42,200.06L772.37,201.58L781.21,199.35L784.16,193.26L787.11,192.4L793.01,188.18L801.85,196.36L804.8,184.35L810.69,211.33L813.64,177.19L822.49,172.96L825.43,188.56L828.38,207.49L831.33,197.29L834.28,213.17L843.12,190.89L846.07,177.44L849.02,158.06L854.91,205.21L863.76,192.37L869.65,154.5L872.6,161.4L884.39,166.16L887.34,145.06L890.29,153.2L893.24,174.6L905.03,188.95L907.98,165.61L910.92,175.04L913.87,191.09L916.82,213.72L925.66,204.88L928.61,195.75L931.56,220.99L934.51,190.22L937.46,212.48L949.25,198.8L952.2,236.49L958.09,191.7L966.94,192.69L969.88,156.73L972.83,165.71L975.78,151.26L978.73,115.52L987.57,107.78L990.52,131.87L993.47,122.42L996.42,126.02L999.36,140.08L1008.21,123.48L1014.1,137.67L1017.05,149.47L1020,127.4" style="vector-effect: non-scaling-stroke; fill: none; stroke: rgb(255, 151, 255); stroke-opacity: 1; stroke-width: 2px; opacity: 1;"/></g><g class="points"/><g class="text"/></g><g class="trace scatter trace6c18ee" style="stroke-miterlimit: 2; opacity: 1;"><g class="fills"/><g class="errorbars"/><g class="lines"><path class="js-line" d="M0,29.81L2.95,41.78L5.9,37.42L8.84,68.78L17.69,53.16L20.64,90.58L23.58,93.68L26.53,64.46L29.48,80.87L38.32,55.22L41.27,69.65L44.22,44.11L47.17,57.29L50.12,38.32L58.96,39.63L61.91,51.43L64.86,84.33L67.8,88.86L70.75,84.99L79.6,55.34L82.54,77.85L85.49,86.62L88.44,79.3L100.23,66.08L103.18,66.69L106.13,63.64L109.08,57.32L112.02,46.2L120.87,55.26L126.76,40.02L129.71,40.78L132.66,72.21L141.5,48.75L144.45,58.35L147.4,48.37L153.29,43.67L162.14,48.41L165.09,40.29L168.03,48.68L170.98,70.61L173.93,49.97L182.77,44.76L185.72,60.75L188.67,70.45L191.62,61.22L194.57,31.19L203.41,40.85L206.36,45.01L209.31,45.88L212.25,24.31L215.2,22.03L226.99,17.55L229.94,20.59L232.89,20.55L235.84,26.59L247.63,48.01L250.58,34.35L253.53,38.5L256.47,51.48L265.32,48.14L268.27,51.34L271.21,44.1L274.16,63.3L277.11,69.61L285.95,78.93L288.9,79.21L291.85,52.63L294.8,48.25L297.75,64.05L306.59,76.16L309.54,63.42L312.49,59.9L315.43,39.65L318.38,50.88L327.23,39.21L330.17,36.48L333.12,56.49L336.07,65.01L339.02,58.67L347.86,98.07L350.81,95.46L353.76,79.9L356.71,83.03L368.5,88.26L371.45,77.76L374.39,107.17L377.34,103.44L380.29,79.62L389.13,55.19L392.08,46.65L395.03,47.04L397.98,39.16L400.92,42.96L409.77,41.39L412.72,61.75L415.66,69.43L418.61,82.82L421.56,101.2L430.4,115.58L433.35,94.25L436.3,80.63L439.25,81.24L442.2,87.55L451.04,97.86L453.99,103.2L456.94,104.35L459.88,117.93L462.83,123.14L471.68,95.95L474.62,119.83L477.57,119.87L480.52,119.22L483.47,111.44L492.31,103.82L495.26,107.63L498.21,125.91L501.16,166.18L504.1,225.88L512.95,292.04L515.9,315.09L518.84,245.47L521.79,203.95L524.74,205.27L533.58,218.2L536.53,271.02L539.48,238.07L542.43,235.44L545.38,266.07L557.17,222.18L560.12,249.06L563.06,240.42L566.01,228.88L574.86,235.86L577.8,210.12L580.75,194.37L583.7,201.7L586.65,234.33L595.49,220.21L598.44,240.42L601.39,246.1L604.34,254.94L607.28,242.19L616.13,277.37L619.08,272.05L622.02,245.56L624.97,246.99L627.92,224.46L636.76,190.27L639.71,188.72L645.61,159.42L648.55,155.63L657.4,150.3L660.35,155.92L663.29,173.59L666.24,149.19L669.19,140.84L678.03,139.2L680.98,140.71L683.93,146.17L686.88,110.12L689.83,92.41L698.67,95.07L701.62,99.75L704.57,77.47L707.51,80.14L710.46,90.51L719.31,71.93L722.25,61.88L725.2,67.57L728.15,68.04L731.1,62.76L739.94,82.99L742.89,79.87L745.84,86.16L748.79,114.74L751.73,137.55L760.58,110.81L763.53,110.08L766.47,82.23L769.42,82.73L772.37,72.49L781.21,75.99L784.16,73.8L793.01,73.66L801.85,84.17L804.8,65.23L807.75,83.08L810.69,111.41L813.64,69.81L822.49,82.98L825.43,101.26L828.38,109.77L831.33,100.5L834.28,135.31L843.12,123.69L846.07,106.1L849.02,80.89L851.97,109.37L854.91,150.67L863.76,136.83L866.71,118.21L869.65,97.36L872.6,103.04L884.39,105.72L887.34,84.05L890.29,97.22L893.24,117.33L905.03,148.38L907.98,147.29L910.92,175.64L913.87,219.77L916.82,238.62L925.66,232.76L928.61,219.53L931.56,260.55L934.51,234.95L937.46,278.92L949.25,275.78L952.2,303.81L955.14,290.77L958.09,267.06L966.94,290.49L969.88,258.77L972.83,283.82L975.78,269.75L978.73,225.14L987.57,227.07L990.52,260.31L993.47,239.72L996.42,230.73L999.36,254.53L1008.21,274.54L1011.16,275.96L1014.1,287.17L1017.05,315.79L1020,280.52" style="vector-effect: non-scaling-stroke; fill: none; stroke: rgb(254, 203, 82); stroke-opacity: 1; stroke-width: 2px; opacity: 1;"/></g><g class="points"/><g class="text"/></g></g></g><g class="overplot"/><path class="xlines-above crisp" d="M0,0" style="fill: none;"/><path class="ylines-above crisp" d="M0,0" style="fill: none;"/><g class="overlines-above"/><g class="xaxislayer-above"><g class="xtick"><text text-anchor="middle" x="0" y="424" transform="translate(223.93,0)" style="font-family: 'Open Sans', verdana, arial, sans-serif; font-size: 12px; fill: rgb(42, 63, 95); fill-opacity: 1; white-space: pre; opacity: 1;">May 2015</text></g><g class="xtick"><text text-anchor="middle" x="0" y="424" style="font-family: 'Open Sans', verdana, arial, sans-serif; font-size: 12px; fill: rgb(42, 63, 95); fill-opacity: 1; white-space: pre; opacity: 1;" transform="translate(403.76,0)">Jul 2015</text></g><g class="xtick"><text text-anchor="middle" x="0" y="424" style="font-family: 'Open Sans', verdana, arial, sans-serif; font-size: 12px; fill: rgb(42, 63, 95); fill-opacity: 1; white-space: pre; opacity: 1;" transform="translate(586.53,0)">Sep 2015</text></g><g class="xtick"><text text-anchor="middle" x="0" y="424" style="font-family: 'Open Sans', verdana, arial, sans-serif; font-size: 12px; fill: rgb(42, 63, 95); fill-opacity: 1; white-space: pre; opacity: 1;" transform="translate(766.36,0)">Nov 2015</text></g><g class="xtick"><text text-anchor="middle" x="0" y="424" style="font-family: 'Open Sans', verdana, arial, sans-serif; font-size: 12px; fill: rgb(42, 63, 95); fill-opacity: 1; white-space: pre; opacity: 1;" transform="translate(946.18,0)">Jan 2016</text></g></g><g class="yaxislayer-above"><g class="ytick"><text text-anchor="end" x="49" y="4.199999999999999" transform="translate(0,393.8)" style="font-family: 'Open Sans', verdana, arial, sans-serif; font-size: 12px; fill: rgb(42, 63, 95); fill-opacity: 1; white-space: pre; opacity: 1;">15.5k</text></g><g class="ytick"><text text-anchor="end" x="49" y="4.199999999999999" style="font-family: 'Open Sans', verdana, arial, sans-serif; font-size: 12px; fill: rgb(42, 63, 95); fill-opacity: 1; white-space: pre; opacity: 1;" transform="translate(0,337.58)">16k</text></g><g class="ytick"><text text-anchor="end" x="49" y="4.199999999999999" style="font-family: 'Open Sans', verdana, arial, sans-serif; font-size: 12px; fill: rgb(42, 63, 95); fill-opacity: 1; white-space: pre; opacity: 1;" transform="translate(0,281.35)">16.5k</text></g><g class="ytick"><text text-anchor="end" x="49" y="4.199999999999999" style="font-family: 'Open Sans', verdana, arial, sans-serif; font-size: 12px; fill: rgb(42, 63, 95); fill-opacity: 1; white-space: pre; opacity: 1;" transform="translate(0,225.13)">17k</text></g><g class="ytick"><text text-anchor="end" x="49" y="4.199999999999999" style="font-family: 'Open Sans', verdana, arial, sans-serif; font-size: 12px; fill: rgb(42, 63, 95); fill-opacity: 1; white-space: pre; opacity: 1;" transform="translate(0,168.9)">17.5k</text></g><g class="ytick"><text text-anchor="end" x="49" y="4.199999999999999" style="font-family: 'Open Sans', verdana, arial, sans-serif; font-size: 12px; fill: rgb(42, 63, 95); fill-opacity: 1; white-space: pre; opacity: 1;" transform="translate(0,112.68)">18k</text></g></g><g class="overaxes-above"/></g></g><g class="polarlayer"/><g class="ternarylayer"/><g class="geolayer"/><g class="funnelarealayer"/><g class="pielayer"/><g class="iciclelayer"/><g class="treemaplayer"/><g class="sunburstlayer"/><g class="glimages"/><defs id="topdefs-2ab1d1"><g class="clips"/><clipPath id="legend2ab1d1"><rect width="136" height="200" x="0" y="0"/></clipPath></defs><g class="layer-above"><g class="imagelayer"/><g class="shapelayer"/></g><g class="infolayer"><g class="legend" pointer-events="all" transform="translate(1090.4,60)"><rect class="bg" shape-rendering="crispEdges" width="136" height="200" x="0" y="0" style="stroke: rgb(68, 68, 68); stroke-opacity: 1; fill: rgb(255, 255, 255); fill-opacity: 1; stroke-width: 0px;"/><g class="scrollbox" transform="" clip-path="url(#legend2ab1d1)"><g class="groups"><g class="traces" transform="translate(0,14.5)" style="opacity: 0.5;"><text class="legendtext" text-anchor="start" x="40" y="4.680000000000001" style="font-family: 'Open Sans', verdana, arial, sans-serif; font-size: 12px; fill: rgb(42, 63, 95); fill-opacity: 1; white-space: pre;">Conic γ=0.1</text><g class="layers" style="opacity: 1;"><g class="legendfill"/><g class="legendlines"><path class="js-line" d="M5,0h30" style="fill: none; stroke: rgb(99, 110, 250); stroke-opacity: 1; stroke-width: 2px;"/></g><g class="legendsymbols"><g class="legendpoints"/></g></g><rect class="legendtoggle" x="0" y="-9.5" width="130.8186798095703" height="19" style="fill: rgb(0, 0, 0); fill-opacity: 0;"/></g><g class="traces" transform="translate(0,33.5)" style="opacity: 0.5;"><text class="legendtext" text-anchor="start" x="40" y="4.680000000000001" style="font-family: 'Open Sans', verdana, arial, sans-serif; font-size: 12px; fill: rgb(42, 63, 95); fill-opacity: 1; white-space: pre;">Conic γ=3.275</text><g class="layers" style="opacity: 1;"><g class="legendfill"/><g class="legendlines"><path class="js-line" d="M5,0h30" style="fill: none; stroke: rgb(239, 85, 59); stroke-opacity: 1; stroke-width: 2px;"/></g><g class="legendsymbols"><g class="legendpoints"/></g></g><rect class="legendtoggle" x="0" y="-9.5" width="130.8186798095703" height="19" style="fill: rgb(0, 0, 0); fill-opacity: 0;"/></g><g class="traces" transform="translate(0,52.5)" style="opacity: 0.5;"><text class="legendtext" text-anchor="start" x="40" y="4.680000000000001" style="font-family: 'Open Sans', verdana, arial, sans-serif; font-size: 12px; fill: rgb(42, 63, 95); fill-opacity: 1; white-space: pre;">Conic γ=6.45</text><g class="layers" style="opacity: 1;"><g class="legendfill"/><g class="legendlines"><path class="js-line" d="M5,0h30" style="fill: none; stroke: rgb(0, 204, 150); stroke-opacity: 1; stroke-width: 2px;"/></g><g class="legendsymbols"><g class="legendpoints"/></g></g><rect class="legendtoggle" x="0" y="-9.5" width="130.8186798095703" height="19" style="fill: rgb(0, 0, 0); fill-opacity: 0;"/></g><g class="traces" transform="translate(0,71.5)" style="opacity: 0.5;"><text class="legendtext" text-anchor="start" x="40" y="4.680000000000001" style="font-family: 'Open Sans', verdana, arial, sans-serif; font-size: 12px; fill: rgb(42, 63, 95); fill-opacity: 1; white-space: pre;">Conic γ=9.625</text><g class="layers" style="opacity: 1;"><g class="legendfill"/><g class="legendlines"><path class="js-line" d="M5,0h30" style="fill: none; stroke: rgb(171, 99, 250); stroke-opacity: 1; stroke-width: 2px;"/></g><g class="legendsymbols"><g class="legendpoints"/></g></g><rect class="legendtoggle" x="0" y="-9.5" width="130.8186798095703" height="19" style="fill: rgb(0, 0, 0); fill-opacity: 0;"/></g><g class="traces" transform="translate(0,90.5)" style="opacity: 0.5;"><text class="legendtext" text-anchor="start" x="40" y="4.680000000000001" style="font-family: 'Open Sans', verdana, arial, sans-serif; font-size: 12px; fill: rgb(42, 63, 95); fill-opacity: 1; white-space: pre;">Conic γ=12.8</text><g class="layers" style="opacity: 1;"><g class="legendfill"/><g class="legendlines"><path class="js-line" d="M5,0h30" style="fill: none; stroke: rgb(255, 161, 90); stroke-opacity: 1; stroke-width: 2px;"/></g><g class="legendsymbols"><g class="legendpoints"/></g></g><rect class="legendtoggle" x="0" y="-9.5" width="130.8186798095703" height="19" style="fill: rgb(0, 0, 0); fill-opacity: 0;"/></g><g class="traces" transform="translate(0,109.5)" style="opacity: 1;"><text class="legendtext" text-anchor="start" x="40" y="4.680000000000001" style="font-family: 'Open Sans', verdana, arial, sans-serif; font-size: 12px; fill: rgb(42, 63, 95); fill-opacity: 1; white-space: pre;">Mean-Variance</text><g class="layers" style="opacity: 1;"><g class="legendfill"/><g class="legendlines"><path class="js-line" d="M5,0h30" style="fill: none; stroke: rgb(25, 211, 243); stroke-opacity: 1; stroke-width: 2px;"/></g><g class="legendsymbols"><g class="legendpoints"/></g></g><rect class="legendtoggle" x="0" y="-9.5" width="130.8186798095703" height="19" style="fill: rgb(0, 0, 0); fill-opacity: 0;"/></g><g class="traces" transform="translate(0,128.5)" style="opacity: 1;"><text class="legendtext" text-anchor="start" x="40" y="4.680000000000001" style="font-family: 'Open Sans', verdana, arial, sans-serif; font-size: 12px; fill: rgb(42, 63, 95); fill-opacity: 1; white-space: pre;">Mean-VaR</text><g class="layers" style="opacity: 1;"><g class="legendfill"/><g class="legendlines"><path class="js-line" d="M5,0h30" style="fill: none; stroke: rgb(255, 102, 146); stroke-opacity: 1; stroke-width: 2px;"/></g><g class="legendsymbols"><g class="legendpoints"/></g></g><rect class="legendtoggle" x="0" y="-9.5" width="130.8186798095703" height="19" style="fill: rgb(0, 0, 0); fill-opacity: 0;"/></g><g class="traces" transform="translate(0,147.5)" style="opacity: 1;"><text class="legendtext" text-anchor="start" x="40" y="4.680000000000001" style="font-family: 'Open Sans', verdana, arial, sans-serif; font-size: 12px; fill: rgb(42, 63, 95); fill-opacity: 1; white-space: pre;">Mean-CVaR 95%</text><g class="layers" style="opacity: 1;"><g class="legendfill"/><g class="legendlines"><path class="js-line" d="M5,0h30" style="fill: none; stroke: rgb(182, 232, 128); stroke-opacity: 1; stroke-width: 2px;"/></g><g class="legendsymbols"><g class="legendpoints"/></g></g><rect class="legendtoggle" x="0" y="-9.5" width="130.8186798095703" height="19" style="fill: rgb(0, 0, 0); fill-opacity: 0;"/></g><g class="traces" transform="translate(0,166.5)" style="opacity: 1;"><text class="legendtext" text-anchor="start" x="40" y="4.680000000000001" style="font-family: 'Open Sans', verdana, arial, sans-serif; font-size: 12px; fill: rgb(42, 63, 95); fill-opacity: 1; white-space: pre;">Mean-CVaR 99%</text><g class="layers" style="opacity: 1;"><g class="legendfill"/><g class="legendlines"><path class="js-line" d="M5,0h30" style="fill: none; stroke: rgb(255, 151, 255); stroke-opacity: 1; stroke-width: 2px;"/></g><g class="legendsymbols"><g class="legendpoints"/></g></g><rect class="legendtoggle" x="0" y="-9.5" width="130.8186798095703" height="19" style="fill: rgb(0, 0, 0); fill-opacity: 0;"/></g><g class="traces" transform="translate(0,185.5)" style="opacity: 1;"><text class="legendtext" text-anchor="start" x="40" y="4.680000000000001" style="font-family: 'Open Sans', verdana, arial, sans-serif; font-size: 12px; fill: rgb(42, 63, 95); fill-opacity: 1; white-space: pre;">DJIA</text><g class="layers" style="opacity: 1;"><g class="legendfill"/><g class="legendlines"><path class="js-line" d="M5,0h30" style="fill: none; stroke: rgb(254, 203, 82); stroke-opacity: 1; stroke-width: 2px;"/></g><g class="legendsymbols"><g class="legendpoints"/></g></g><rect class="legendtoggle" x="0" y="-9.5" width="130.8186798095703" height="19" style="fill: rgb(0, 0, 0); fill-opacity: 0;"/></g></g></g><rect class="scrollbar" rx="20" ry="3" width="0" height="0" x="0" y="0" style="fill: rgb(128, 139, 164); fill-opacity: 1;"/></g><g class="g-gtitle"/><g class="g-xtitle"/><g class="g-ytitle"/></g></svg>