<svg class="main-svg" xmlns="http://www.w3.org/2000/svg" xmlns:xlink="http://www.w3.org/1999/xlink" width="1238" height="461" style=""><rect x="0" y="0" width="1238" height="461" style="fill: rgb(255, 255, 255); fill-opacity: 1;"/><defs id="defs-8914f1"><g class="clips"><clipPath id="clip8914f1xyplot" class="plotclip"><rect width="1020" height="351"/></clipPath><clipPath class="axesclip" id="clip8914f1x"><rect x="50" y="0" width="1020" height="461"/></clipPath><clipPath class="axesclip" id="clip8914f1y"><rect x="0" y="60" width="1238" height="351"/></clipPath><clipPath class="axesclip" id="clip8914f1xy"><rect x="50" y="60" width="1020" height="351"/></clipPath></g><g class="gradients"/><g class="patterns"/></defs><g class="bglayer"><rect class="bg" x="50" y="60" width="1020" height="351" style="fill: rgb(229, 236, 246); fill-opacity: 1; stroke-width: 0;"/></g><g class="layer-below"><g class="imagelayer"/><g class="shapelayer"/></g><g class="cartesianlayer"><g class="subplot xy"><g class="layer-subplot"><g class="shapelayer"/><g class="imagelayer"/></g><g class="gridlayer"><g class="x"><path class="xgrid crisp" transform="translate(166.79000000000002,0)" d="M0,60v351" style="stroke: rgb(255, 255, 255); stroke-opacity: 1; stroke-width: 1px;"/><path class="xgrid crisp" transform="translate(325.11,0)" d="M0,60v351" style="stroke: rgb(255, 255, 255); stroke-opacity: 1; stroke-width: 1px;"/><path class="xgrid crisp" transform="translate(483.44,0)" d="M0,60v351" style="stroke: rgb(255, 255, 255); stroke-opacity: 1; stroke-width: 1px;"/><path class="xgrid crisp" transform="translate(644.35,0)" d="M0,60v351" style="stroke: rgb(255, 255, 255); stroke-opacity: 1; stroke-width: 1px;"/><path class="xgrid crisp" transform="translate(802.67,0)" d="M0,60v351" style="stroke: rgb(255, 255, 255); stroke-opacity: 1; stroke-width: 1px;"/><path class="xgrid crisp" transform="translate(960.99,0)" d="M0,60v351" style="stroke: rgb(255, 255, 255); stroke-opacity: 1; stroke-width: 1px;"/></g><g class="y"><path class="ygrid crisp" transform="translate(0,409.01)" d="M50,0h1020" style="stroke: rgb(255, 255, 255); stroke-opacity: 1; stroke-width: 1px;"/><path class="ygrid crisp" transform="translate(0,365.54)" d="M50,0h1020" style="stroke: rgb(255, 255, 255); stroke-opacity: 1; stroke-width: 1px;"/><path class="ygrid crisp" transform="translate(0,322.07)" d="M50,0h1020" style="stroke: rgb(255, 255, 255); stroke-opacity: 1; stroke-width: 1px;"/><path class="ygrid crisp" transform="translate(0,278.6)" d="M50,0h1020" style="stroke: rgb(255, 255, 255); stroke-opacity: 1; stroke-width: 1px;"/><path class="ygrid crisp" transform="translate(0,235.13)" d="M50,0h1020" style="stroke: rgb(255, 255, 255); stroke-opacity: 1; stroke-width: 1px;"/><path class="ygrid crisp" transform="translate(0,191.65)" d="M50,0h1020" style="stroke: rgb(255, 255, 255); stroke-opacity: 1; stroke-width: 1px;"/><path class="ygrid crisp" transform="translate(0,148.18)" d="M50,0h1020" style="stroke: rgb(255, 255, 255); stroke-opacity: 1; stroke-width: 1px;"/><path class="ygrid crisp" transform="translate(0,104.71000000000001)" d="M50,0h1020" style="stroke: rgb(255, 255, 255); stroke-opacity: 1; stroke-width: 1px;"/><path class="ygrid crisp" transform="translate(0,61.24)" d="M50,0h1020" style="stroke: rgb(255, 255, 255); stroke-opacity: 1; stroke-width: 1px;"/></g></g><g class="zerolinelayer"/><path class="xlines-below"/><path class="ylines-below"/><g class="overlines-below"/><g class="xaxislayer-below"/><g class="yaxislayer-below"/><g class="overaxes-below"/><g class="plot" transform="translate(50,60)" clip-path="url(#clip8914f1xyplot)"><g class="scatterlayer mlayer"><g class="trace scatter trace229a54" style="stroke-miterlimit: 2; opacity: 1;"><g class="fills"/><g class="errorbars"/><g class="lines"><path class="js-line" d="M0,103.77L2.6,87.17L12.98,88.65L15.57,93.8L18.17,72L20.76,87.78L28.55,83.31L31.15,103.91L33.74,113.3L36.34,92.1L38.93,119.76L46.72,102.92L49.31,86.14L51.91,92.68L54.5,84.16L64.89,104.01L67.48,85.08L70.08,86.05L72.67,82.35L75.27,76.09L85.65,80.3L88.24,78.83L90.84,88.54L93.44,84.93L101.22,84.1L103.82,80.25L106.41,78.62L109.01,70.63L111.6,70.6L119.39,67.38L121.98,74.04L124.58,81.86L127.18,79.61L129.77,104.05L137.56,96.86L140.15,116.45L142.75,129.84L145.34,113.49L147.94,120.17L155.73,97.37L158.32,105.07L160.92,89L163.51,96.83L166.11,82.83L173.89,71.06L176.49,78.72L179.08,98.37L181.68,101.29L184.27,106.76L192.06,83.32L194.66,95.27L197.25,113.74L199.85,110.28L210.23,101.56L212.82,102.4L215.42,101.01L218.02,101.08L220.61,100.31L228.4,105.49L230.99,104.36L233.59,106.07L236.18,110.93L238.78,129.85L246.56,111.4L249.16,119.96L251.76,109.64L254.35,105.75L256.95,98.32L264.73,108.43L267.33,101.68L269.92,111.78L272.52,123.5L275.11,107.74L282.9,108.45L285.5,117.88L288.09,121.1L290.69,116.66L293.28,100.09L301.07,113.04L303.66,112.67L306.26,115.49L308.85,101.61L311.45,96.98L319.24,95.58L321.83,96.58L327.02,103.16L329.62,114.2L340,128.62L342.6,123.53L345.19,129.47L347.79,137.47L355.57,137.08L358.17,140.3L360.76,139.64L363.36,154.44L365.95,169.04L373.74,172.01L376.34,172.06L378.93,161.12L381.53,157.36L384.12,170.64L391.91,181.03L394.5,170.19L397.1,166.14L399.69,151.89L402.29,159.71L410.08,157.15L412.67,158.61L415.27,166.85L417.86,174.09L420.46,166.45L428.24,186.97L430.84,191.17L433.44,176.31L436.03,173.98L446.41,173.69L449.01,158.11L451.6,170.14L454.2,170.07L456.79,153.94L464.58,141.66L469.77,139.34L472.37,132.57L474.96,138.07L482.75,135.9L485.34,151.62L487.94,158.45L490.53,158.15L493.13,170.09L500.92,175.97L503.51,158.63L506.11,149.1L508.7,152.64L519.08,160.52L521.68,169.21L524.27,153.99L526.87,160.09L529.47,172.35L537.25,158.86L539.85,161.38L542.44,157.13L555.42,148.22L558.02,157.26L563.21,184.63L565.8,224.49L576.18,297.58L578.78,245.98L581.37,223.63L583.97,232.21L591.76,243.69L594.35,273.78L596.95,252.89L599.54,249.91L602.14,270.05L612.52,239.82L615.11,263.96L617.71,260.13L620.31,248.44L628.09,250.82L630.69,235.34L633.28,228.62L635.88,231.19L638.47,249.64L646.26,244.08L648.85,254.16L651.45,254.52L654.05,248.92L656.64,245.34L664.43,255.06L667.02,248.86L669.62,239.09L672.21,248.72L674.81,232.04L682.6,215.38L685.19,220.42L690.38,195.88L692.98,193.04L700.76,189.64L703.36,195.51L705.95,223.19L708.55,212.31L711.15,206.94L718.93,210.74L721.53,217.36L724.12,218.36L726.72,182.08L729.31,172.34L737.1,181.01L739.69,187.02L742.29,174.94L744.89,172.54L747.48,178.55L755.27,167.6L757.86,164.67L760.46,166.97L763.05,169.21L765.65,181.51L773.44,195.32L776.03,194.66L778.63,199.67L781.22,218.87L783.82,238.24L791.6,212.19L794.2,207.51L796.79,188.32L801.98,186.01L809.77,184.79L812.37,180.23L814.96,179.45L820.15,176.59L827.94,183.51L830.53,174.05L833.13,185.04L835.73,194.52L838.32,168.42L846.11,164.44L848.7,175.81L851.3,190L853.89,182.65L856.49,194L864.27,177.43L866.87,166.82L869.47,152.15L874.66,187.37L882.44,177.93L887.63,150.57L890.23,155.92L900.61,158.9L903.21,142.78L905.8,149.26L908.4,165.45L918.78,176.56L921.37,158.39L923.97,165.31L926.56,178.2L929.16,195.89L936.95,188.77L939.54,181.61L942.14,200.22L944.73,176.59L947.33,195.37L957.71,184.35L960.31,212.11L965.5,176.43L973.28,176.76L975.88,149.02L978.47,156.51L981.07,144.86L983.66,117.25L991.45,112.01L994.05,129.22L996.64,122.28L999.24,126.01L1001.83,139.12L1009.62,126.35L1014.81,134.75L1017.4,143.49L1020,128.94" style="vector-effect: non-scaling-stroke; fill: none; stroke: rgb(99, 110, 250); stroke-opacity: 1; stroke-width: 2px; opacity: 1;"/></g><g class="points"/><g class="text"/></g><g class="trace scatter trace953f18" style="stroke-miterlimit: 2; opacity: 1;"><g class="fills"/><g class="errorbars"/><g class="lines"><path class="js-line" d="M0,103.77L2.6,86.12L12.98,89.23L15.57,95.19L18.17,71.73L20.76,88.73L28.55,82.8L31.15,101.36L33.74,110.75L36.34,84.98L38.93,112.86L46.72,94.74L49.31,77.04L51.91,82.85L54.5,77.67L57.1,80.7L64.89,96.75L67.48,77.2L70.08,77.71L75.27,64.05L85.65,69.24L88.24,71.6L90.84,81.64L93.44,79.24L101.22,82.01L103.82,75.82L106.41,76.24L109.01,68.33L111.6,67.11L119.39,65.72L121.98,70.25L124.58,77.64L127.18,77.59L129.77,101.26L137.56,96.37L140.15,116.11L142.75,129.51L145.34,114.63L147.94,120.37L155.73,99.52L158.32,105.77L160.92,90.03L163.51,101.1L166.11,85.7L173.89,75.06L176.49,80.23L179.08,98.81L181.68,100.41L184.27,106.63L192.06,82.12L194.66,94.01L197.25,112.78L199.85,109.98L210.23,99.79L212.82,98.53L215.42,99.71L218.02,102.5L220.61,109.18L228.4,112L230.99,109.68L233.59,108.56L236.18,115.98L238.78,134.51L246.56,113.6L249.16,124.53L251.76,112.07L254.35,107.28L256.95,98.92L264.73,108.99L267.33,100.1L269.92,109.3L272.52,120.78L275.11,104.92L282.9,106.82L285.5,116.2L288.09,120.36L290.69,116.53L293.28,99.11L301.07,113.08L303.66,112.18L306.26,115.82L308.85,102.92L311.45,98.44L319.24,97.48L321.83,100.39L327.02,107.91L329.62,118.67L340,133.51L342.6,127.35L347.79,140.61L355.57,139.88L358.17,143.22L360.76,143.05L365.95,173.57L373.74,177.09L376.34,179.86L378.93,169.39L381.53,165.78L384.12,179.41L391.91,189.87L394.5,178.73L397.1,174.85L399.69,160.91L402.29,169.45L410.08,165.82L412.67,167.9L415.27,175.65L417.86,183.89L420.46,177.64L428.24,198.73L430.84,202.67L433.44,188.96L436.03,185.62L446.41,185.2L449.01,169.79L451.6,180.77L454.2,181.15L456.79,165.21L464.58,154.08L467.18,152.03L469.77,152.33L472.37,146.27L474.96,153.29L482.75,151.78L485.34,164.94L487.94,169.57L490.53,168.57L493.13,181.84L500.92,188.28L503.51,170.28L506.11,160.16L508.7,160.04L511.3,165.12L519.08,170.66L521.68,178.58L524.27,163.08L526.87,167.35L529.47,183.79L537.25,170.8L539.85,172.7L542.44,167.5L545.04,164.58L547.63,163.38L555.42,159.31L558.02,168.82L563.21,196.74L565.8,238.14L576.18,311.29L578.78,258.97L581.37,236.58L583.97,242.01L591.76,251.84L594.35,281.3L596.95,261.23L599.54,256.09L602.14,276.7L612.52,248.57L615.11,272.17L617.71,269.28L620.31,258.14L628.09,260.01L630.69,246.41L633.28,239.31L635.88,242.4L638.47,263.01L646.26,257.08L648.85,268.47L651.45,269.87L654.05,262.34L656.64,257.76L664.43,266.03L667.02,260.65L669.62,249.28L672.21,259.55L674.81,242.2L682.6,227.29L685.19,229.77L690.38,203.15L692.98,203.44L700.76,200.97L703.36,206.66L705.95,235.99L708.55,225.15L711.15,221.34L718.93,226.88L721.53,232.34L724.12,233.31L726.72,187.3L729.31,181.18L737.1,192.25L739.69,200.28L742.29,184.73L744.89,182.89L747.48,185.86L755.27,175.51L757.86,170.44L760.46,170.77L763.05,174.23L765.65,184.7L773.44,199.65L776.03,199.68L778.63,205.77L781.22,225.87L783.82,245L791.6,216.79L794.2,209.49L796.79,190.07L799.39,183.46L801.98,186.9L809.77,182.7L812.37,177.84L814.96,178.89L820.15,175.13L827.94,180.04L830.53,171.85L835.73,195.54L838.32,169.01L846.11,167L848.7,179.43L851.3,191.86L853.89,183.97L856.49,198.13L864.27,180.3L869.47,154.53L872.06,174.04L874.66,191.6L882.44,182.53L887.63,151.89L890.23,158.13L900.61,161.69L903.21,145.34L905.8,152.26L908.4,168.66L918.78,178.8L921.37,159.25L923.97,165.53L926.56,179.34L929.16,195.3L936.95,188.13L939.54,178.78L942.14,198.38L944.73,172.82L947.33,193.32L957.71,184.74L960.31,219.93L962.9,203.56L965.5,174.29L973.28,175.62L975.88,148.16L978.47,157.43L981.07,142.49L983.66,115.54L991.45,109.97L994.05,129.26L996.64,121.46L999.24,124.51L1001.83,136.41L1009.62,122.25L1012.21,129.29L1014.81,135.38L1017.4,145.01L1020,128.41" style="vector-effect: non-scaling-stroke; fill: none; stroke: rgb(239, 85, 59); stroke-opacity: 1; stroke-width: 2px; opacity: 1;"/></g><g class="points"/><g class="text"/></g><g class="trace scatter trace6b2e02" style="stroke-miterlimit: 2; opacity: 1;"><g class="fills"/><g class="errorbars"/><g class="lines"><path class="js-line" d="M0,103.77L2.6,84.87L12.98,88.31L15.57,95.04L18.17,70.55L20.76,87.3L28.55,81.94L31.15,102.09L33.74,110.83L36.34,84.53L38.93,112.61L46.72,94.17L49.31,76.89L51.91,83.49L54.5,79.56L57.1,82.64L64.89,99.02L67.48,79.82L70.08,80.89L75.27,65.14L85.65,70.18L88.24,73.3L90.84,84.22L93.44,82.28L101.22,86.33L103.82,79.44L106.41,83.6L109.01,77.56L111.6,75.68L119.39,75.18L121.98,78.62L124.58,86.58L127.18,86.47L129.77,109.76L137.56,105.61L140.15,125.39L142.75,138.19L145.34,125.53L147.94,131.05L155.73,110.57L158.32,116.71L160.92,100.5L163.51,111.38L166.11,95.1L173.89,85.84L176.49,90.66L179.08,109.29L181.68,110.22L184.27,115.12L192.06,90.95L194.66,103.31L197.25,122.43L199.85,119.34L210.23,108.49L212.82,106.87L215.42,108.57L218.02,113.15L220.61,123.63L228.4,125.25L233.59,118.97L236.18,126.89L238.78,145.92L246.56,123.61L249.16,134.53L251.76,122.59L254.35,117.37L256.95,109.96L264.73,118.49L267.33,107.12L272.52,128.12L275.11,112.24L282.9,113.64L285.5,122.88L288.09,127.42L290.69,124.16L293.28,106.7L301.07,121.19L303.66,120.74L306.26,124.51L308.85,111.78L311.45,107.16L319.24,106.57L321.83,112.36L327.02,119.41L329.62,130.79L340,146.15L342.6,139.09L347.79,150.86L355.57,150.13L358.17,154.15L360.76,154.62L365.95,187.05L373.74,190.81L376.34,193.7L378.93,182.78L381.53,179.62L384.12,193.83L391.91,204.04L394.5,192.5L397.1,188.42L399.69,174.87L402.29,183.79L410.08,180.23L412.67,182.79L415.27,190.46L417.86,198.38L420.46,193.45L428.24,214.5L430.84,218.4L433.44,204.59L436.03,200.34L446.41,199.52L449.01,184.33L451.6,194.68L454.2,196.41L456.79,180.72L464.58,169.94L467.18,167.88L469.77,168.84L472.37,161.79L474.96,169.23L482.75,167.92L485.34,181.53L487.94,186.19L490.53,184.69L493.13,197.03L500.92,203.64L503.51,185.63L506.11,175.21L508.7,175.76L511.3,181.53L519.08,186.86L521.68,194.97L524.27,178.93L526.87,182.51L529.47,200.98L537.25,187.79L539.85,189.33L542.44,182.87L545.04,180.19L547.63,179.05L555.42,176.21L558.02,186.1L563.21,214.97L565.8,255.81L576.18,328.45L578.78,275.76L581.37,254.64L583.97,258.28L591.76,267.65L594.35,296.73L596.95,277.82L599.54,271.54L602.14,292.4L612.52,265.27L615.11,288.63L617.71,286.09L620.31,276.06L628.09,277.81L630.69,264.61L633.28,257.67L635.88,260.73L638.47,282.3L646.26,276.68L648.85,288.25L651.45,290.02L654.05,282.29L656.64,277.13L664.43,285.18L667.02,280.49L669.62,268.63L672.21,279.87L674.81,262.93L682.6,248.16L685.19,250.23L690.38,222.22L692.98,223.66L700.76,221.92L703.36,228.16L705.95,257.83L708.55,248.74L711.15,246.17L718.93,251.42L721.53,258.1L724.12,258.01L726.72,211.12L729.31,206.4L737.1,217.53L739.69,226.79L742.29,210.39L744.89,208.72L747.48,209.84L755.27,201.45L757.86,195.27L760.46,194.61L763.05,199.24L765.65,210.88L773.44,226.16L776.03,226.36L778.63,233.92L781.22,254.18L783.82,272.09L791.6,243.29L794.2,234.08L796.79,214.8L799.39,205.94L801.98,210.31L809.77,205.18L812.37,200.55L814.96,202.7L820.15,198.93L827.94,203.37L830.53,195.15L835.73,219.19L838.32,192.83L846.11,190.85L848.7,203.79L851.3,216.01L853.89,208.09L856.49,222.69L864.27,204.33L869.47,178.9L872.06,199.54L874.66,217.32L882.44,208.25L887.63,176.25L890.23,182.91L900.61,186.27L903.21,169.95L905.8,176.95L908.4,193.23L918.78,202.63L921.37,182.5L923.97,187.91L926.56,200.99L929.16,217.3L936.95,209.77L939.54,200.09L942.14,219.62L944.73,194.35L947.33,216.07L957.71,208.57L960.31,245.89L962.9,228.72L965.5,195.83L973.28,197.6L975.88,171.29L978.47,182.56L981.07,167.7L983.66,139.39L991.45,133.1L994.05,152.22L996.64,143.17L999.24,146.28L1001.83,154.18L1009.62,140.44L1012.21,149.2L1014.81,156.82L1017.4,166.75L1020,149.94" style="vector-effect: non-scaling-stroke; fill: none; stroke: rgb(0, 204, 150); stroke-opacity: 1; stroke-width: 2px; opacity: 1;"/></g><g class="points"/><g class="text"/></g><g class="trace scatter traceda7f04" style="stroke-miterlimit: 2; opacity: 1;"><g class="fills"/><g class="errorbars"/><g class="lines"><path class="js-line" d="M0,103.77L2.6,84.27L12.98,87.92L15.57,94.83L18.17,69.91L20.76,86.58L28.55,81.8L31.15,102.97L33.74,111.46L36.34,84.85L38.93,112.63L46.72,94.35L49.31,77.17L51.91,84.97L54.5,81.13L57.1,84.65L64.89,101.2L67.48,82.59L70.08,84.01L75.27,68.03L85.65,73L88.24,75.89L90.84,86.74L93.44,84.73L101.22,89.36L103.82,82.43L106.41,87.48L109.01,81.65L111.6,79.6L119.39,79.3L121.98,82.66L124.58,90.81L127.18,90.28L129.77,113.56L137.56,109.27L140.15,129.01L142.75,141.69L145.34,129.91L147.94,135.69L155.73,115.19L158.32,121.28L160.92,104.99L163.51,115.52L166.11,99L173.89,90.42L176.49,95.14L179.08,113.84L181.68,114.95L184.27,119.74L192.06,95.5L194.66,107.92L197.25,127.41L199.85,124.19L210.23,113.29L212.82,111.69L215.42,113.37L218.02,118.52L220.61,129.89L228.4,131.16L233.59,124.5L236.18,132.32L238.78,151.89L246.56,129.22L249.16,140.35L251.76,128.67L254.35,123.09L256.95,115.39L264.73,123.54L267.33,111.41L272.52,132.65L275.11,117.02L282.9,118.57L285.5,127.49L288.09,131.95L290.69,128.7L293.28,110.93L301.07,125.33L303.66,125.27L306.26,128.91L308.85,116.17L311.45,111.69L319.24,111.15L321.83,117.38L327.02,124.65L329.62,136.54L340,152.11L342.6,144.98L347.79,156.9L355.57,156.09L358.17,160.05L360.76,160.58L365.95,193.49L373.74,197.47L376.34,200.1L378.93,188.97L381.53,185.82L384.12,199.96L391.91,210.25L394.5,198.65L397.1,194.26L399.69,180.82L402.29,190.07L410.08,186.68L412.67,189.63L415.27,197.31L417.86,205.22L420.46,200.59L428.24,221.87L430.84,225.9L433.44,211.74L436.03,207.31L446.41,206.42L449.01,191.2L451.6,201.29L454.2,202.97L456.79,187.38L464.58,176.53L467.18,174.42L469.77,175.6L472.37,168.1L474.96,175.85L482.75,174.78L485.34,188.46L487.94,193.04L490.53,190.98L493.13,202.73L500.92,209.55L503.51,192.07L506.11,181.47L508.7,182.16L511.3,187.77L519.08,192.89L521.68,201.05L524.27,183.86L526.87,187.29L529.47,205.92L537.25,192.9L539.85,193.87L542.44,187.45L545.04,184.32L547.63,183.01L555.42,180.7L558.02,190.37L563.21,218.99L565.8,259.82L573.59,310.82L576.18,333.01L578.78,280.52L581.37,259.93L591.76,272.88L594.35,301.69L596.95,283.26L599.54,276.67L602.14,297.52L612.52,270.69L615.11,293.78L617.71,291.47L620.31,281.95L628.09,283.74L630.69,270.45L633.28,263.3L635.88,266.24L638.47,287.84L646.26,282.2L648.85,293.85L651.45,295.9L654.05,288.52L656.64,283L664.43,290.84L667.02,286.11L669.62,274.26L672.21,286.05L674.81,269.27L682.6,254.09L685.19,256.03L690.38,227.35L692.98,229.13L700.76,227.48L703.36,234.01L705.95,264.04L708.55,255.46L711.15,253.04L718.93,258.23L721.53,264.78L724.12,263.8L726.72,217.28L729.31,212.43L737.1,223.29L739.69,232.96L742.29,216.81L744.89,215.08L747.48,215.69L755.27,208.55L757.86,202.09L760.46,200.74L763.05,205.45L765.65,217.95L773.44,233.39L776.03,233.45L778.63,241.31L781.22,261.66L783.82,279.1L791.6,250.22L794.2,240.6L796.79,221.29L799.39,211.83L801.98,216.13L809.77,210.52L812.37,206.2L814.96,209.12L820.15,205.1L827.94,209.48L830.53,201.18L835.73,224.97L838.32,198.7L846.11,196.54L848.7,209.8L851.3,221.72L853.89,214L856.49,228.35L864.27,210.28L869.47,183.84L872.06,204.86L874.66,222.86L882.44,213.53L887.63,180.7L890.23,187.42L900.61,190.65L903.21,174.09L905.8,181.06L908.4,197.36L918.78,207.07L921.37,186.48L923.97,191.63L926.56,204.79L929.16,221.55L936.95,214.12L939.54,204.41L942.14,223.73L944.73,199.05L947.33,220.85L957.71,213.48L960.31,251.37L962.9,234.35L965.5,202L973.28,203.54L975.88,177.79L978.47,189.89L981.07,175.2L983.66,146.33L991.45,139.17L994.05,157.99L996.64,148.79L999.24,151.5L1001.83,159.04L1009.62,145.57L1012.21,154.82L1014.81,162.41L1017.4,172.72L1020,155.6" style="vector-effect: non-scaling-stroke; fill: none; stroke: rgb(171, 99, 250); stroke-opacity: 1; stroke-width: 2px; opacity: 1;"/></g><g class="points"/><g class="text"/></g><g class="trace scatter trace15d391" style="stroke-miterlimit: 2; opacity: 1;"><g class="fills"/><g class="errorbars"/><g class="lines"><path class="js-line" d="M0,103.77L2.6,84.18L12.98,88.59L15.57,94.91L18.17,69.51L20.76,86.56L28.55,82.26L31.15,104.26L33.74,112.23L36.34,85.45L38.93,113.31L46.72,95.15L49.31,77.97L51.91,86.51L54.5,82.83L57.1,86.72L64.89,103.35L67.48,84.94L70.08,86.31L75.27,70.7L85.65,75.45L88.24,78.47L90.84,88.94L93.44,86.79L101.22,91.76L103.82,84.58L106.41,90.11L109.01,84.29L111.6,82.22L119.39,81.89L121.98,85.04L124.58,93.25L127.18,92.49L129.77,115.92L137.56,111.75L140.15,131.42L142.75,143.86L145.34,132.64L147.94,138.32L155.73,117.81L158.32,124L160.92,107.48L163.51,117.71L166.11,101.21L173.89,93.08L176.49,98L179.08,116.68L181.68,117.87L184.27,122.03L192.06,97.81L194.66,110.48L197.25,129.91L199.85,126.58L210.23,115.93L212.82,114.35L215.42,115.94L218.02,121.19L220.61,132.59L228.4,133.71L230.99,130.95L233.59,126.73L236.18,134.19L238.78,153.8L246.56,131.22L249.16,142.52L251.76,131.26L254.35,125.52L256.95,118.03L264.73,125.9L267.33,113.36L269.92,122.82L272.52,134.92L275.11,119.24L282.9,120.85L285.5,129.72L288.09,134.08L290.69,130.95L293.28,113.14L301.07,127.2L303.66,127.61L306.26,130.99L308.85,118.3L311.45,113.79L319.24,112.99L321.83,119.27L327.02,126.42L329.62,138.59L340,154.12L342.6,146.98L347.79,158.88L355.57,158.19L358.17,162.29L360.76,162.97L365.95,196.09L373.74,200.11L376.34,202.59L378.93,191.4L381.53,188.13L384.12,202.26L391.91,212.23L394.5,200.47L397.1,195.92L399.69,182.46L402.29,191.81L410.08,188.47L412.67,191.54L415.27,199.32L417.86,206.91L420.46,202.62L428.24,224.14L430.84,228.17L433.44,213.87L436.03,209.31L446.41,208.6L449.01,193.42L451.6,203.48L454.2,205.28L456.79,189.66L464.58,178.81L467.18,176.57L469.77,177.62L472.37,170.04L474.96,178.23L482.75,177.59L485.34,190.74L487.94,195.16L490.53,192.83L493.13,204.61L500.92,211.47L503.51,194.16L506.11,183.67L508.7,184.6L511.3,189.74L519.08,194.6L521.68,202.76L524.27,184.86L526.87,188.2L529.47,206.82L537.25,193.67L539.85,194.47L542.44,188.3L545.04,185.1L547.63,183.64L555.42,181.42L558.02,190.78L563.21,219.32L565.8,260.12L573.59,311.09L576.18,333.45L578.78,281.13L581.37,260.76L591.76,273.4L594.35,301.96L596.95,283.78L599.54,277.31L602.14,298.21L612.52,271.39L615.11,294.19L617.71,291.92L620.31,282.73L628.09,284.37L630.69,270.87L633.28,263.68L635.88,266.53L638.47,288.08L646.26,282.47L648.85,294L651.45,296.32L654.05,289.75L656.64,284.61L664.43,292.19L667.02,287.37L669.62,275.56L672.21,287.62L674.81,271.1L682.6,255.7L685.19,257.67L690.38,228.85L692.98,230.78L700.76,228.95L703.36,235.42L705.95,265.04L708.55,256.57L711.15,254.22L718.93,259.16L721.53,265.52L724.12,264.4L726.72,218.29L729.31,213.45L737.1,224.23L739.69,233.69L742.29,217.81L744.89,215.95L747.48,216.16L755.27,209.65L757.86,203.46L760.46,201.94L763.05,206.57L765.65,219.53L773.44,235.08L776.03,234.91L778.63,242.85L781.22,263.67L783.82,280.61L791.6,251.86L794.2,241.96L796.79,222.52L799.39,212.89L801.98,216.88L809.77,211.09L812.37,206.94L814.96,210.22L820.15,206.01L827.94,210.27L830.53,201.82L835.73,225.61L838.32,199.21L846.11,197.11L848.7,210.58L851.3,222.29L853.89,214.64L856.49,228.78L864.27,211.17L869.47,183.25L872.06,204.56L874.66,223.02L882.44,213.69L887.63,180.24L890.23,186.92L900.61,190.16L903.21,173.5L905.8,180.51L908.4,196.93L918.78,206.96L921.37,186.55L923.97,191.54L926.56,205.24L929.16,222.2L936.95,215.07L939.54,205.07L942.14,224.45L944.73,200.08L947.33,222.34L957.71,214.57L960.31,252.48L962.9,235.81L965.5,203.72L973.28,205.4L975.88,179.57L978.47,192.01L981.07,177.24L983.66,148.23L991.45,140.47L994.05,159.52L996.64,150.28L999.24,152.36L1001.83,160.15L1009.62,146.82L1012.21,156.3L1014.81,164.28L1017.4,174.78L1020,157.66" style="vector-effect: non-scaling-stroke; fill: none; stroke: rgb(255, 161, 90); stroke-opacity: 1; stroke-width: 2px; opacity: 1;"/></g><g class="points"/><g class="text"/></g><g class="trace scatter tracee7dafa" style="stroke-miterlimit: 2; opacity: 1;"><g class="fills"/><g class="errorbars"/><g class="lines"><path class="js-line" d="M0,103.77L2.6,87.3L12.98,88.16L15.57,92.69L18.17,70.78L20.76,86.1L28.55,80.83L31.15,100.01L33.74,109.44L36.34,87.61L38.93,115.13L46.72,98.8L49.31,82.29L51.91,88.37L54.5,79.09L64.89,98.8L67.48,79.69L70.08,81.17L72.67,73.22L75.27,66.91L85.65,72.3L88.24,70.61L90.84,81.56L93.44,77.37L101.22,77.53L106.41,70.55L109.01,62.92L111.6,63.37L119.39,58.4L124.58,73.07L127.18,71.14L129.77,95.13L137.56,88.09L140.15,107.51L142.75,120.63L145.34,104.33L147.94,110.37L155.73,87.79L158.32,96L160.92,81.04L163.51,89.56L166.11,75.34L173.89,63.82L176.49,70.98L179.08,90.43L184.27,98.29L192.06,74.79L194.66,86.88L197.25,106.16L199.85,102.9L210.23,94.57L212.82,95.35L215.42,93.1L218.02,93.42L220.61,89.55L228.4,95.97L230.99,95.03L233.59,97.89L236.18,103.33L238.78,121.39L246.56,104.46L249.16,112.94L251.76,102.95L254.35,99.06L256.95,92.62L264.73,104.19L267.33,98.09L272.52,120.51L275.11,104.75L282.9,106.07L285.5,115.9L288.09,118.43L290.69,113.8L293.28,96.53L301.07,109.96L303.66,108.76L306.26,113.26L308.85,100.3L311.45,94.68L319.24,93.05L321.83,95.7L327.02,101.97L329.62,112.81L340,127.12L342.6,122.45L347.79,135.41L355.57,135.18L358.17,138.03L360.76,137.02L365.95,167.19L373.74,170L376.34,170.66L378.93,160.08L381.53,156.17L384.12,169.02L391.91,179.72L394.5,169.37L397.1,165.25L399.69,150.92L402.29,158.17L410.08,155.77L412.67,157.52L415.27,165.83L417.86,173.4L420.46,165.2L428.24,185.63L430.84,190.19L433.44,175.59L436.03,173.37L446.41,173.31L449.01,156.39L451.6,168.22L454.2,168.12L456.79,152.31L464.58,140.11L467.18,138.25L469.77,137.72L472.37,132.09L474.96,137.96L482.75,136.58L485.34,150.63L487.94,155.9L490.53,155.25L493.13,167.28L500.92,172.39L503.51,154.29L506.11,144.14L508.7,147.71L511.3,149.62L519.08,154.81L521.68,163.13L524.27,147.11L526.87,153.35L529.47,167.69L537.25,154.64L539.85,156.63L542.44,151.84L545.04,148.31L547.63,146.38L555.42,141.99L558.02,151.35L560.61,163.37L563.21,179.29L565.8,219.64L573.59,271.51L576.18,294.65L578.78,243.24L581.37,219.55L583.97,227.99L591.76,240.58L594.35,269.83L596.95,248.31L599.54,245.18L602.14,265.32L612.52,234.14L615.11,258.51L617.71,254.96L620.31,242.69L628.09,245.42L630.69,230.17L633.28,222.91L635.88,225.52L638.47,244.13L646.26,239.24L648.85,249.2L651.45,249.03L654.05,243.26L656.64,239.26L664.43,250.11L667.02,243.92L669.62,233.01L672.21,241.91L674.81,224.32L682.6,207.28L685.19,211.4L690.38,185.61L692.98,183.12L700.76,179.1L703.36,184.96L705.95,215.38L708.55,203.74L711.15,197.33L718.93,200.38L721.53,205.02L724.12,205.59L726.72,167.03L729.31,159.12L737.1,167.47L739.69,171.65L742.29,160.81L744.89,159.2L747.48,165.4L755.27,154.37L757.86,151.18L760.46,153.31L763.05,155.07L765.65,167.6L773.44,180.54L776.03,179.36L778.63,184.58L781.22,203.16L783.82,224.01L791.6,198.35L794.2,191.24L796.79,172.64L799.39,172.35L801.98,170.79L809.77,169.65L812.37,164.64L820.15,160.59L827.94,168.45L830.53,158.69L833.13,170.11L835.73,179.56L838.32,153.22L846.11,148.35L848.7,159.58L851.3,173.36L853.89,165.78L856.49,176.91L864.27,160.34L866.87,150.46L869.47,135.29L874.66,169.35L882.44,159.13L887.63,131.94L890.23,137.71L900.61,140.17L903.21,123.57L905.8,130.2L908.4,146.02L918.78,156.2L921.37,136.37L923.97,143.56L926.56,156.55L929.16,175.84L936.95,167.54L939.54,160.62L942.14,181.26L944.73,157.85L947.33,177.04L957.71,164.87L960.31,193.26L965.5,152.24L973.28,151.96L975.88,124.9L978.47,133.08L981.07,121.41L983.66,93.29L991.45,87.84L994.05,104.63L996.64,99.3L999.24,105.34L1001.83,120.23L1009.62,109.33L1012.21,112.97L1014.81,113.47L1017.4,121.68L1020,108.09" style="vector-effect: non-scaling-stroke; fill: none; stroke: rgb(25, 211, 243); stroke-opacity: 1; stroke-width: 2px; opacity: 1;"/></g><g class="points"/><g class="text"/></g><g class="trace scatter tracee22d5e" style="stroke-miterlimit: 2; opacity: 1;"><g class="fills"/><g class="errorbars"/><g class="lines"><path class="js-line" d="M0,103.77L2.6,87.46L12.98,88.59L15.57,93.74L18.17,72.31L20.76,88.23L28.55,83.42L31.15,103.34L33.74,112.46L36.34,91.36L38.93,118.78L46.72,101.86L49.31,85.12L51.91,91.8L54.5,83.16L64.89,102.53L67.48,83.31L70.08,84.29L72.67,81.18L75.27,75.13L85.65,79.35L88.24,78.25L90.84,88.39L93.44,84.65L101.22,83.95L103.82,80.09L106.41,78.32L109.01,70.27L111.6,70.15L119.39,67.23L121.98,73.98L124.58,81.8L127.18,79.77L129.77,104.13L137.56,97.23L140.15,116.61L142.75,130.33L145.34,113.68L147.94,120.3L155.73,97.53L158.32,105.39L160.92,89.51L163.51,98.04L166.11,84.48L173.89,72.11L176.49,79.45L179.08,98.9L181.68,101.69L184.27,107.75L192.06,84.01L194.66,95.55L197.25,114.44L199.85,111.13L210.23,102.06L212.82,102.89L215.42,101.85L218.02,101.83L220.61,101.16L228.4,106.42L230.99,105.35L233.59,107.29L236.18,112.52L238.78,131.37L246.56,113.13L249.16,121.5L251.76,110.7L254.35,107.35L256.95,100.08L264.73,110.64L267.33,104.4L269.92,114.57L272.52,125.87L275.11,110.1L282.9,110.61L285.5,120.15L288.09,123.43L290.69,118.97L293.28,102.37L301.07,115.13L303.66,114.46L306.26,117.49L308.85,103.56L311.45,99.22L319.24,97.92L321.83,99.07L327.02,105.49L329.62,116.47L340,130.85L342.6,125.92L347.79,140.07L355.57,139.65L358.17,142.54L360.76,141.81L365.95,171.14L373.74,173.71L376.34,173.9L378.93,163.32L381.53,159.58L384.12,172.81L391.91,183.45L394.5,172.94L397.1,169L399.69,154.88L402.29,162.48L410.08,159.98L412.67,161.42L415.27,169.49L417.86,177.15L420.46,169.64L428.24,189.79L430.84,194.08L433.44,179.79L436.03,177.56L446.41,177.21L449.01,161.6L451.6,173.47L454.2,173.31L456.79,157.24L464.58,145.12L467.18,143.45L469.77,142.84L472.37,136.25L474.96,141.67L482.75,139.51L485.34,155.36L487.94,162.23L490.53,162.89L493.13,175.03L500.92,180.8L503.51,162.81L506.11,153.52L511.3,158.56L519.08,164.53L521.68,173.22L524.27,157.1L526.87,163.15L529.47,175.46L537.25,162.04L539.85,164.42L542.44,159.78L545.04,158.28L555.42,151.24L558.02,160.47L563.21,187.31L565.8,226.83L576.18,299.38L578.78,248.1L581.37,226.08L583.97,235.18L591.76,246.64L594.35,276.63L596.95,255.69L599.54,252.74L602.14,272.79L612.52,242.58L615.11,266.77L617.71,263.15L620.31,251.38L628.09,253.75L630.69,238.54L633.28,231.91L635.88,234.55L638.47,253.27L646.26,247.87L648.85,257.94L651.45,258.16L654.05,252.48L656.64,249.67L664.43,259.07L667.02,252.62L669.62,243.23L672.21,252.82L674.81,235.69L682.6,219.22L685.19,224.4L690.38,199.93L692.98,197.18L700.76,193.96L703.36,199.84L705.95,228.5L708.55,217.8L711.15,212.82L718.93,217.26L721.53,223.67L724.12,224.95L726.72,188.53L729.31,179.01L737.1,187.88L739.69,193.69L742.29,181.47L744.89,179.31L747.48,185.47L755.27,173.83L757.86,171.03L760.46,173.27L763.05,175.35L765.65,187.52L773.44,201.64L776.03,201.12L778.63,205.9L781.22,225.2L783.82,244.12L791.6,218.1L794.2,213.6L796.79,194.72L801.98,193.49L809.77,192.38L812.37,187.34L814.96,186.2L820.15,183.18L827.94,189.92L830.53,181.07L833.13,192.44L835.73,201.23L838.32,175.74L846.11,171.94L848.7,183.6L851.3,197.63L853.89,190.21L856.49,201.27L864.27,184.58L866.87,175.56L869.47,161.35L874.66,195.41L882.44,185.9L887.63,158.23L890.23,163.46L900.61,166.7L903.21,150.64L905.8,156.9L908.4,172.94L918.78,183.58L921.37,165.09L923.97,171.74L926.56,183.9L929.16,201.44L936.95,194.78L939.54,187.84L942.14,205.96L944.73,181.81L947.33,199.57L957.71,189.06L960.31,216.96L965.5,181.68L973.28,182.04L975.88,154.11L978.47,161.24L981.07,149.39L983.66,122.32L991.45,117.37L994.05,134.11L996.64,126.79L999.24,130.26L1001.83,142.24L1009.62,129.37L1014.81,137.21L1017.4,146.4L1020,131.88" style="vector-effect: non-scaling-stroke; fill: none; stroke: rgb(255, 102, 146); stroke-opacity: 1; stroke-width: 2px; opacity: 1;"/></g><g class="points"/><g class="text"/></g><g class="trace scatter tracece05f7" style="stroke-miterlimit: 2; opacity: 1;"><g class="fills"/><g class="errorbars"/><g class="lines"><path class="js-line" d="M0,103.77L2.6,87.49L12.98,88.79L15.57,93.9L18.17,72.38L20.76,88.35L28.55,83.53L31.15,103.45L33.74,112.48L36.34,91.26L38.93,118.55L46.72,101.6L49.31,84.73L51.91,91.08L54.5,82.44L64.89,101.73L67.48,82.7L70.08,83.65L72.67,80.18L75.27,74.05L85.65,78.22L88.24,77.26L90.84,87.46L93.44,83.68L101.22,82.94L103.82,79.09L106.41,77.43L109.01,69.48L111.6,69.41L119.39,66.38L121.98,73.01L124.58,80.84L127.18,78.85L129.77,103.25L137.56,96.34L140.15,115.76L142.75,129.53L145.34,112.78L147.94,119.33L155.73,96.51L158.32,104.46L160.92,88.52L163.51,97.04L166.11,83.47L173.89,71.17L176.49,78.63L179.08,98.14L181.68,100.81L184.27,106.89L192.06,83.13L194.66,94.73L197.25,113.5L199.85,110.17L210.23,101.22L212.82,101.89L215.42,100.79L218.02,100.74L220.61,100.19L228.4,105.4L230.99,104.23L233.59,106.04L236.18,111.35L238.78,130.05L246.56,111.78L249.16,119.98L251.76,109.13L254.35,105.85L256.95,98.77L264.73,109.17L267.33,102.99L269.92,113.02L272.52,124.37L275.11,108.62L282.9,109.07L285.5,118.6L288.09,121.9L290.69,117.52L293.28,100.82L301.07,113.64L303.66,112.9L306.26,116L308.85,102.09L311.45,97.69L319.24,96.32L321.83,97.58L327.02,104.03L329.62,115.01L340,129.43L342.6,124.43L345.19,130.54L347.79,138.63L355.57,138.1L358.17,141.03L360.76,140.33L363.36,155.03L365.95,169.56L373.74,172.13L376.34,172.31L378.93,161.66L381.53,157.96L384.12,171.22L391.91,181.75L394.5,171.16L397.1,167.26L399.69,153.13L402.29,160.7L410.08,158.18L412.67,159.58L415.27,167.61L417.86,175.17L420.46,167.66L428.24,187.91L430.84,192.09L433.44,177.75L436.03,175.45L446.41,175.02L449.01,159.5L451.6,171.44L454.2,171.4L456.79,155.28L464.58,143.14L467.18,141.47L469.77,140.81L472.37,134.2L474.96,139.61L482.75,137.31L485.34,153.14L487.94,159.91L490.53,160.54L493.13,172.48L500.92,178.43L503.51,160.44L506.11,151.06L511.3,156.61L519.08,162.65L521.68,171.47L524.27,155.75L526.87,161.8L529.47,174.29L537.25,160.71L539.85,163.28L542.44,158.66L545.04,157.2L555.42,150.22L558.02,159.69L563.21,186.66L565.8,226.2L576.18,298.75L578.78,247.2L581.37,225.08L583.97,234.12L591.76,245.5L594.35,275.67L596.95,254.73L599.54,251.77L602.14,271.84L612.52,241.57L615.11,265.85L617.71,262.2L620.31,250.46L628.09,252.84L630.69,237.72L633.28,231.18L635.88,233.93L638.47,252.64L646.26,247.18L648.85,257.14L651.45,257.4L654.05,251.69L656.64,248.8L664.43,258.37L667.02,251.92L669.62,242.47L672.21,251.98L674.81,235.09L682.6,218.74L685.19,223.8L690.38,199.4L692.98,196.67L700.76,193.42L703.36,199.16L705.95,227.98L708.55,217.19L711.15,212.24L718.93,216.62L721.53,223.28L724.12,224.74L726.72,188.07L729.31,178.67L737.1,187.57L739.69,193.47L742.29,181.12L744.89,178.84L747.48,184.9L755.27,173.36L757.86,170.39L760.46,172.69L763.05,174.83L765.65,186.76L773.44,200.86L776.03,200.3L778.63,205.16L781.22,224.54L783.82,243.48L791.6,217.3L794.2,212.72L796.79,193.76L801.98,192.56L809.77,191.51L812.37,186.53L814.96,185.49L820.15,182.57L827.94,189.37L830.53,180.48L833.13,191.89L835.73,200.6L838.32,174.96L846.11,171.23L848.7,183L851.3,197.01L853.89,189.58L856.49,200.82L864.27,184.05L866.87,174.8L869.47,160.56L874.66,194.94L882.44,185.52L887.63,157.93L890.23,163.18L900.61,166.39L903.21,150.39L905.8,156.73L908.4,172.73L918.78,183.46L921.37,165.09L923.97,171.62L926.56,183.78L929.16,201.43L936.95,194.72L939.54,187.79L942.14,206L944.73,181.77L947.33,199.76L957.71,189.26L960.31,217.43L965.5,181.28L973.28,181.83L975.88,153.54L978.47,160.84L981.07,149.06L983.66,121.67L991.45,116.9L994.05,133.83L996.64,126.14L999.24,129.5L1001.83,141.43L1009.62,128.55L1014.81,136.92L1017.4,146.07L1020,131.43" style="vector-effect: non-scaling-stroke; fill: none; stroke: rgb(182, 232, 128); stroke-opacity: 1; stroke-width: 2px; opacity: 1;"/></g><g class="points"/><g class="text"/></g><g class="trace scatter trace4cabb0" style="stroke-miterlimit: 2; opacity: 1;"><g class="fills"/><g class="errorbars"/><g class="lines"><path class="js-line" d="M0,103.77L2.6,86.92L12.98,87.45L15.57,92.75L18.17,72.47L20.76,88.8L28.55,84.18L31.15,104.84L33.74,114.52L36.34,92.82L38.93,120.54L46.72,102.85L49.31,85.23L51.91,91.94L54.5,84.18L57.1,87.28L64.89,101.44L67.48,82.3L70.08,83.25L72.67,80.82L75.27,75.77L85.65,80.01L88.24,79.02L90.84,89.81L93.44,86.01L101.22,84.7L103.82,80.07L106.41,78.51L109.01,70.35L111.6,70.54L119.39,68.52L121.98,74.62L124.58,82.76L127.18,80.93L129.77,105.18L137.56,97.8L140.15,117.68L142.75,131.04L145.34,113.26L147.94,119.92L155.73,97.2L158.32,104.74L160.92,88.72L163.51,97.34L166.11,83.29L173.89,72.09L176.49,79.21L179.08,98.37L181.68,101.9L184.27,109.32L192.06,85.43L194.66,96.81L197.25,114.17L199.85,110.43L210.23,101.25L212.82,102.52L215.42,101.44L218.02,102.35L220.61,104.82L228.4,108.51L230.99,106.58L233.59,108.05L236.18,112.66L238.78,132.81L246.56,113.62L249.16,121.53L251.76,110.38L254.35,106.89L256.95,98.94L264.73,109.65L267.33,102.23L272.52,122.76L275.11,107.83L282.9,107.91L285.5,117.2L288.09,120.31L290.69,116.02L293.28,99.93L301.07,112.17L303.66,111.48L306.26,114.18L308.85,100.54L311.45,96.34L319.24,95.59L321.83,96.32L327.02,103.53L329.62,114.26L340,128.88L342.6,123.53L347.79,137.95L355.57,137.15L358.17,139.96L360.76,138.79L365.95,168.06L373.74,170.69L376.34,170.86L378.93,160.08L381.53,156.46L384.12,169.94L391.91,180.46L394.5,169.75L397.1,165.81L399.69,152.22L402.29,160L410.08,156.91L412.67,157.95L415.27,166.29L417.86,173.66L420.46,166.21L428.24,187.03L430.84,191.21L433.44,176.69L436.03,174.89L446.41,174.2L449.01,159.27L451.6,171.2L454.2,171.07L456.79,154.72L464.58,142.61L467.18,140.27L469.77,139.88L472.37,133.5L474.96,138.9L482.75,136.54L485.34,153.11L487.94,160.16L490.53,160.83L493.13,172.94L500.92,179.73L503.51,162.83L506.11,153.19L511.3,158.25L519.08,164.49L521.68,173.35L524.27,158.32L526.87,163.81L529.47,174.57L537.25,160.97L539.85,162.67L542.44,158.7L545.04,156.92L555.42,150.54L558.02,158.99L563.21,186.6L565.8,225.97L576.18,299.72L578.78,248.43L581.37,226.54L583.97,235.04L591.76,245.67L594.35,276.12L596.95,255.86L599.54,252.63L602.14,272.95L612.52,243.95L615.11,267.81L617.71,264.32L620.31,253.13L628.09,255.68L630.69,240.17L633.28,233.62L635.88,236.87L638.47,255.83L646.26,250.02L648.85,260.65L651.45,261.43L654.05,255.59L656.64,252.69L664.43,262.8L667.02,257.34L669.62,247.87L672.21,257.55L674.81,241.62L682.6,224.38L685.19,229.21L690.38,205.56L692.98,202.88L700.76,200.34L703.36,206.12L705.95,234.52L708.55,224.62L711.15,220.68L718.93,225.81L721.53,232.36L724.12,234.35L726.72,199.01L729.31,188.2L737.1,197.22L739.69,204.21L742.29,190.9L744.89,188.53L747.48,194.09L755.27,183.12L757.86,180.08L760.46,182.23L763.05,184.77L765.65,195.86L773.44,210.22L776.03,210.03L778.63,215.33L781.22,234.42L783.82,254.02L791.6,227.27L794.2,222.88L796.79,204.08L799.39,202.3L801.98,203.44L809.77,201.76L812.37,197.2L814.96,196.56L820.15,193.39L827.94,199.52L830.53,190.52L835.73,210.75L838.32,185.15L846.11,181.98L848.7,193.68L851.3,207.87L853.89,200.22L856.49,212.13L864.27,195.42L866.87,185.33L869.47,170.8L874.66,206.16L882.44,196.53L887.63,168.13L890.23,173.31L900.61,176.87L903.21,161.05L905.8,167.16L908.4,183.21L918.78,193.97L921.37,176.46L923.97,183.53L926.56,195.57L929.16,212.54L936.95,205.91L939.54,199.06L942.14,217.99L944.73,194.92L947.33,211.61L957.71,201.35L960.31,229.62L965.5,196.03L973.28,196.77L975.88,169.8L978.47,176.54L981.07,165.7L983.66,138.9L991.45,133.09L994.05,151.16L996.64,144.07L999.24,146.77L1001.83,157.31L1009.62,144.87L1014.81,155.51L1017.4,164.36L1020,147.81" style="vector-effect: non-scaling-stroke; fill: none; stroke: rgb(255, 151, 255); stroke-opacity: 1; stroke-width: 2px; opacity: 1;"/></g><g class="points"/><g class="text"/></g><g class="trace scatter trace816456" style="stroke-miterlimit: 2; opacity: 1;"><g class="fills"/><g class="errorbars"/><g class="lines"><path class="js-line" d="M0,103.77L2.6,87.18L12.98,86.86L15.57,83.46L18.17,60.88L20.76,73.18L28.55,72.65L31.15,97.99L33.74,115.02L36.34,95.41L38.93,117.31L46.72,100.26L49.31,73.71L51.91,73.14L54.5,54.72L57.1,59.99L64.89,68.25L67.48,56.12L70.08,56.7L72.67,47.11L75.27,43.03L85.65,40.57L88.24,42.12L90.84,45.95L93.44,32.5L101.22,34.55L103.82,26.52L106.41,25.19L109.01,26.07L111.6,33.17L119.39,19.62L124.58,36.29L127.18,32.91L129.77,57.16L137.56,45.08L140.15,74.02L142.75,76.41L145.34,53.82L147.94,66.51L155.73,46.67L158.32,57.83L160.92,38.09L163.51,48.27L166.11,33.61L173.89,34.62L176.49,43.74L179.08,69.18L181.68,72.69L184.27,69.69L192.06,46.77L194.66,64.18L197.25,70.95L199.85,65.3L210.23,55.07L212.82,55.54L215.42,53.19L218.02,48.3L220.61,39.7L228.4,46.71L233.59,34.92L236.18,35.51L238.78,59.81L246.56,41.67L249.16,49.09L251.76,41.38L256.95,37.74L264.73,41.41L267.33,35.13L269.92,41.62L272.52,58.58L275.11,42.62L282.9,38.59L285.5,50.95L288.09,58.45L290.69,51.31L293.28,28.09L301.07,35.57L303.66,38.78L306.26,39.45L308.85,22.78L311.45,21.01L321.83,17.55L324.43,19.9L327.02,19.87L329.62,24.54L340,41.1L342.6,30.54L345.19,33.75L347.79,43.78L355.57,41.2L358.17,43.67L360.76,38.08L363.36,52.92L365.95,57.8L373.74,65.01L376.34,65.23L378.93,44.68L381.53,41.29L384.12,53.51L391.91,62.87L394.5,53.02L397.1,50.3L399.69,34.64L402.29,43.32L410.08,34.3L412.67,32.18L415.27,47.66L417.86,54.24L420.46,49.35L428.24,79.81L430.84,77.79L433.44,65.76L436.03,68.18L446.41,72.22L449.01,64.11L451.6,86.84L454.2,83.96L456.79,65.54L464.58,46.65L467.18,40.05L469.77,40.35L472.37,34.26L474.96,37.19L482.75,35.98L485.34,51.73L487.94,57.66L490.53,68.02L493.13,82.22L500.92,93.35L503.51,76.86L506.11,66.33L508.7,66.8L511.3,71.68L519.08,79.64L521.68,83.78L524.27,84.66L526.87,95.16L529.47,99.19L537.25,78.17L539.85,96.63L542.44,96.66L545.04,96.16L547.63,90.15L555.42,84.25L558.02,87.2L560.61,101.33L563.21,132.46L565.8,178.63L573.59,229.78L576.18,247.6L578.78,193.77L581.37,161.67L583.97,162.69L591.76,172.69L594.35,213.52L596.95,188.05L599.54,186.01L602.14,209.7L612.52,175.76L615.11,196.55L617.71,189.87L620.31,180.94L628.09,186.34L630.69,166.44L633.28,154.26L635.88,159.93L638.47,185.16L646.26,174.24L648.85,189.87L651.45,194.26L654.05,201.09L656.64,191.24L664.43,218.43L667.02,214.33L669.62,193.84L672.21,194.95L674.81,177.53L682.6,151.09L685.19,149.9L690.38,127.24L692.98,124.31L700.76,120.19L703.36,124.53L705.95,138.2L708.55,119.33L711.15,112.88L718.93,111.61L721.53,112.78L724.12,116.99L726.72,89.12L729.31,75.43L737.1,77.48L739.69,81.1L742.29,63.88L744.89,65.94L747.48,73.96L755.27,59.6L757.86,51.83L760.46,56.22L763.05,56.58L765.65,52.51L773.44,68.14L776.03,65.73L778.63,70.6L781.22,92.7L783.82,110.33L791.6,89.66L794.2,89.1L796.79,67.56L799.39,67.95L801.98,60.03L809.77,62.74L812.37,61.04L820.15,60.93L827.94,69.06L830.53,54.42L833.13,68.21L835.73,90.12L838.32,57.96L846.11,68.14L848.7,82.27L851.3,88.85L853.89,81.68L856.49,108.6L864.27,99.62L866.87,86.02L869.47,66.53L872.06,88.54L874.66,120.48L882.44,109.78L885.04,95.38L887.63,79.26L890.23,83.65L900.61,85.72L903.21,68.97L905.8,79.15L908.4,94.7L918.78,118.7L921.37,117.86L923.97,139.78L926.56,173.9L929.16,188.48L936.95,183.94L939.54,173.72L942.14,205.43L944.73,185.64L947.33,219.63L957.71,217.2L960.31,238.88L962.9,228.8L965.5,210.47L973.28,228.58L975.88,204.06L978.47,223.43L981.07,212.54L983.66,178.06L991.45,179.54L994.05,205.25L996.64,189.33L999.24,182.38L1001.83,200.78L1009.62,216.25L1012.21,217.35L1014.81,226.01L1017.4,248.14L1020,220.87" style="vector-effect: non-scaling-stroke; fill: none; stroke: rgb(254, 203, 82); stroke-opacity: 1; stroke-width: 2px; opacity: 1;"/></g><g class="points"/><g class="text"/></g></g></g><g class="overplot"/><path class="xlines-above crisp" d="M0,0" style="fill: none;"/><path class="ylines-above crisp" d="M0,0" style="fill: none;"/><g class="overlines-above"/><g class="xaxislayer-above"><g class="xtick"><text text-anchor="middle" x="0" y="424" transform="translate(166.79000000000002,0)" style="font-family: 'Open Sans', verdana, arial, sans-serif; font-size: 12px; fill: rgb(42, 63, 95); fill-opacity: 1; white-space: pre; opacity: 1;">Mar 2015</text></g><g class="xtick"><text text-anchor="middle" x="0" y="424" style="font-family: 'Open Sans', verdana, arial, sans-serif; font-size: 12px; fill: rgb(42, 63, 95); fill-opacity: 1; white-space: pre; opacity: 1;" transform="translate(325.11,0)">May 2015</text></g><g class="xtick"><text text-anchor="middle" x="0" y="424" style="font-family: 'Open Sans', verdana, arial, sans-serif; font-size: 12px; fill: rgb(42, 63, 95); fill-opacity: 1; white-space: pre; opacity: 1;" transform="translate(483.44,0)">Jul 2015</text></g><g class="xtick"><text text-anchor="middle" x="0" y="424" style="font-family: 'Open Sans', verdana, arial, sans-serif; font-size: 12px; fill: rgb(42, 63, 95); fill-opacity: 1; white-space: pre; opacity: 1;" transform="translate(644.35,0)">Sep 2015</text></g><g class="xtick"><text text-anchor="middle" x="0" y="424" style="font-family: 'Open Sans', verdana, arial, sans-serif; font-size: 12px; fill: rgb(42, 63, 95); fill-opacity: 1; white-space: pre; opacity: 1;" transform="translate(802.67,0)">Nov 2015</text></g><g class="xtick"><text text-anchor="middle" x="0" y="424" style="font-family: 'Open Sans', verdana, arial, sans-serif; font-size: 12px; fill: rgb(42, 63, 95); fill-opacity: 1; white-space: pre; opacity: 1;" transform="translate(960.99,0)">Jan 2016</text></g></g><g class="yaxislayer-above"><g class="ytick"><text text-anchor="end" x="49" y="4.199999999999999" transform="translate(0,409.01)" style="font-family: 'Open Sans', verdana, arial, sans-serif; font-size: 12px; fill: rgb(42, 63, 95); fill-opacity: 1; white-space: pre; opacity: 1;">14.5k</text></g><g class="ytick"><text text-anchor="end" x="49" y="4.199999999999999" style="font-family: 'Open Sans', verdana, arial, sans-serif; font-size: 12px; fill: rgb(42, 63, 95); fill-opacity: 1; white-space: pre; opacity: 1;" transform="translate(0,365.54)">15k</text></g><g class="ytick"><text text-anchor="end" x="49" y="4.199999999999999" style="font-family: 'Open Sans', verdana, arial, sans-serif; font-size: 12px; fill: rgb(42, 63, 95); fill-opacity: 1; white-space: pre; opacity: 1;" transform="translate(0,322.07)">15.5k</text></g><g class="ytick"><text text-anchor="end" x="49" y="4.199999999999999" style="font-family: 'Open Sans', verdana, arial, sans-serif; font-size: 12px; fill: rgb(42, 63, 95); fill-opacity: 1; white-space: pre; opacity: 1;" transform="translate(0,278.6)">16k</text></g><g class="ytick"><text text-anchor="end" x="49" y="4.199999999999999" style="font-family: 'Open Sans', verdana, arial, sans-serif; font-size: 12px; fill: rgb(42, 63, 95); fill-opacity: 1; white-space: pre; opacity: 1;" transform="translate(0,235.13)">16.5k</text></g><g class="ytick"><text text-anchor="end" x="49" y="4.199999999999999" style="font-family: 'Open Sans', verdana, arial, sans-serif; font-size: 12px; fill: rgb(42, 63, 95); fill-opacity: 1; white-space: pre; opacity: 1;" transform="translate(0,191.65)">17k</text></g><g class="ytick"><text text-anchor="end" x="49" y="4.199999999999999" style="font-family: 'Open Sans', verdana, arial, sans-serif; font-size: 12px; fill: rgb(42, 63, 95); fill-opacity: 1; white-space: pre; opacity: 1;" transform="translate(0,148.18)">17.5k</text></g><g class="ytick"><text text-anchor="end" x="49" y="4.199999999999999" style="font-family: 'Open Sans', verdana, arial, sans-serif; font-size: 12px; fill: rgb(42, 63, 95); fill-opacity: 1; white-space: pre; opacity: 1;" transform="translate(0,104.71000000000001)">18k</text></g><g class="ytick"><text text-anchor="end" x="49" y="4.199999999999999" style="font-family: 'Open Sans', verdana, arial, sans-serif; font-size: 12px; fill: rgb(42, 63, 95); fill-opacity: 1; white-space: pre; opacity: 1;" transform="translate(0,61.24)">18.5k</text></g></g><g class="overaxes-above"/></g></g><g class="polarlayer"/><g class="ternarylayer"/><g class="geolayer"/><g class="funnelarealayer"/><g class="pielayer"/><g class="iciclelayer"/><g class="treemaplayer"/><g class="sunburstlayer"/><g class="glimages"/><defs id="topdefs-8914f1"><g class="clips"/><clipPath id="legend8914f1"><rect width="136" height="200" x="0" y="0"/></clipPath></defs><g class="layer-above"><g class="imagelayer"/><g class="shapelayer"/></g><g class="infolayer"><g class="legend" pointer-events="all" transform="translate(1090.4,60)"><rect class="bg" shape-rendering="crispEdges" width="136" height="200" x="0" y="0" style="stroke: rgb(68, 68, 68); stroke-opacity: 1; fill: rgb(255, 255, 255); fill-opacity: 1; stroke-width: 0px;"/><g class="scrollbox" transform="" clip-path="url(#legend8914f1)"><g class="groups"><g class="traces" transform="translate(0,14.5)" style="opacity: 1;"><text class="legendtext" text-anchor="start" x="40" y="4.680000000000001" style="font-family: 'Open Sans', verdana, arial, sans-serif; font-size: 12px; fill: rgb(42, 63, 95); fill-opacity: 1; white-space: pre;">Conic γ=0.1</text><g class="layers" style="opacity: 1;"><g class="legendfill"/><g class="legendlines"><path class="js-line" d="M5,0h30" style="fill: none; stroke: rgb(99, 110, 250); stroke-opacity: 1; stroke-width: 2px;"/></g><g class="legendsymbols"><g class="legendpoints"/></g></g><rect class="legendtoggle" x="0" y="-9.5" width="130.8186798095703" height="19" style="fill: rgb(0, 0, 0); fill-opacity: 0;"/></g><g class="traces" transform="translate(0,33.5)" style="opacity: 1;"><text class="legendtext" text-anchor="start" x="40" y="4.680000000000001" style="font-family: 'Open Sans', verdana, arial, sans-serif; font-size: 12px; fill: rgb(42, 63, 95); fill-opacity: 1; white-space: pre;">Conic γ=3.275</text><g class="layers" style="opacity: 1;"><g class="legendfill"/><g class="legendlines"><path class="js-line" d="M5,0h30" style="fill: none; stroke: rgb(239, 85, 59); stroke-opacity: 1; stroke-width: 2px;"/></g><g class="legendsymbols"><g class="legendpoints"/></g></g><rect class="legendtoggle" x="0" y="-9.5" width="130.8186798095703" height="19" style="fill: rgb(0, 0, 0); fill-opacity: 0;"/></g><g class="traces" transform="translate(0,52.5)" style="opacity: 1;"><text class="legendtext" text-anchor="start" x="40" y="4.680000000000001" style="font-family: 'Open Sans', verdana, arial, sans-serif; font-size: 12px; fill: rgb(42, 63, 95); fill-opacity: 1; white-space: pre;">Conic γ=6.45</text><g class="layers" style="opacity: 1;"><g class="legendfill"/><g class="legendlines"><path class="js-line" d="M5,0h30" style="fill: none; stroke: rgb(0, 204, 150); stroke-opacity: 1; stroke-width: 2px;"/></g><g class="legendsymbols"><g class="legendpoints"/></g></g><rect class="legendtoggle" x="0" y="-9.5" width="130.8186798095703" height="19" style="fill: rgb(0, 0, 0); fill-opacity: 0;"/></g><g class="traces" transform="translate(0,71.5)" style="opacity: 1;"><text class="legendtext" text-anchor="start" x="40" y="4.680000000000001" style="font-family: 'Open Sans', verdana, arial, sans-serif; font-size: 12px; fill: rgb(42, 63, 95); fill-opacity: 1; white-space: pre;">Conic γ=9.625</text><g class="layers" style="opacity: 1;"><g class="legendfill"/><g class="legendlines"><path class="js-line" d="M5,0h30" style="fill: none; stroke: rgb(171, 99, 250); stroke-opacity: 1; stroke-width: 2px;"/></g><g class="legendsymbols"><g class="legendpoints"/></g></g><rect class="legendtoggle" x="0" y="-9.5" width="130.8186798095703" height="19" style="fill: rgb(0, 0, 0); fill-opacity: 0;"/></g><g class="traces" transform="translate(0,90.5)" style="opacity: 1;"><text class="legendtext" text-anchor="start" x="40" y="4.680000000000001" style="font-family: 'Open Sans', verdana, arial, sans-serif; font-size: 12px; fill: rgb(42, 63, 95); fill-opacity: 1; white-space: pre;">Conic γ=12.8</text><g class="layers" style="opacity: 1;"><g class="legendfill"/><g class="legendlines"><path class="js-line" d="M5,0h30" style="fill: none; stroke: rgb(255, 161, 90); stroke-opacity: 1; stroke-width: 2px;"/></g><g class="legendsymbols"><g class="legendpoints"/></g></g><rect class="legendtoggle" x="0" y="-9.5" width="130.8186798095703" height="19" style="fill: rgb(0, 0, 0); fill-opacity: 0;"/></g><g class="traces" transform="translate(0,109.5)" style="opacity: 1;"><text class="legendtext" text-anchor="start" x="40" y="4.680000000000001" style="font-family: 'Open Sans', verdana, arial, sans-serif; font-size: 12px; fill: rgb(42, 63, 95); fill-opacity: 1; white-space: pre;">Mean-Variance</text><g class="layers" style="opacity: 1;"><g class="legendfill"/><g class="legendlines"><path class="js-line" d="M5,0h30" style="fill: none; stroke: rgb(25, 211, 243); stroke-opacity: 1; stroke-width: 2px;"/></g><g class="legendsymbols"><g class="legendpoints"/></g></g><rect class="legendtoggle" x="0" y="-9.5" width="130.8186798095703" height="19" style="fill: rgb(0, 0, 0); fill-opacity: 0;"/></g><g class="traces" transform="translate(0,128.5)" style="opacity: 1;"><text class="legendtext" text-anchor="start" x="40" y="4.680000000000001" style="font-family: 'Open Sans', verdana, arial, sans-serif; font-size: 12px; fill: rgb(42, 63, 95); fill-opacity: 1; white-space: pre;">Mean-VaR</text><g class="layers" style="opacity: 1;"><g class="legendfill"/><g class="legendlines"><path class="js-line" d="M5,0h30" style="fill: none; stroke: rgb(255, 102, 146); stroke-opacity: 1; stroke-width: 2px;"/></g><g class="legendsymbols"><g class="legendpoints"/></g></g><rect class="legendtoggle" x="0" y="-9.5" width="130.8186798095703" height="19" style="fill: rgb(0, 0, 0); fill-opacity: 0;"/></g><g class="traces" transform="translate(0,147.5)" style="opacity: 1;"><text class="legendtext" text-anchor="start" x="40" y="4.680000000000001" style="font-family: 'Open Sans', verdana, arial, sans-serif; font-size: 12px; fill: rgb(42, 63, 95); fill-opacity: 1; white-space: pre;">Mean-CVaR 95%</text><g class="layers" style="opacity: 1;"><g class="legendfill"/><g class="legendlines"><path class="js-line" d="M5,0h30" style="fill: none; stroke: rgb(182, 232, 128); stroke-opacity: 1; stroke-width: 2px;"/></g><g class="legendsymbols"><g class="legendpoints"/></g></g><rect class="legendtoggle" x="0" y="-9.5" width="130.8186798095703" height="19" style="fill: rgb(0, 0, 0); fill-opacity: 0;"/></g><g class="traces" transform="translate(0,166.5)" style="opacity: 1;"><text class="legendtext" text-anchor="start" x="40" y="4.680000000000001" style="font-family: 'Open Sans', verdana, arial, sans-serif; font-size: 12px; fill: rgb(42, 63, 95); fill-opacity: 1; white-space: pre;">Mean-CVaR 99%</text><g class="layers" style="opacity: 1;"><g class="legendfill"/><g class="legendlines"><path class="js-line" d="M5,0h30" style="fill: none; stroke: rgb(255, 151, 255); stroke-opacity: 1; stroke-width: 2px;"/></g><g class="legendsymbols"><g class="legendpoints"/></g></g><rect class="legendtoggle" x="0" y="-9.5" width="130.8186798095703" height="19" style="fill: rgb(0, 0, 0); fill-opacity: 0;"/></g><g class="traces" transform="translate(0,185.5)" style="opacity: 1;"><text class="legendtext" text-anchor="start" x="40" y="4.680000000000001" style="font-family: 'Open Sans', verdana, arial, sans-serif; font-size: 12px; fill: rgb(42, 63, 95); fill-opacity: 1; white-space: pre;">DJIA</text><g class="layers" style="opacity: 1;"><g class="legendfill"/><g class="legendlines"><path class="js-line" d="M5,0h30" style="fill: none; stroke: rgb(254, 203, 82); stroke-opacity: 1; stroke-width: 2px;"/></g><g class="legendsymbols"><g class="legendpoints"/></g></g><rect class="legendtoggle" x="0" y="-9.5" width="130.8186798095703" height="19" style="fill: rgb(0, 0, 0); fill-opacity: 0;"/></g></g></g><rect class="scrollbar" rx="20" ry="3" width="0" height="0" x="0" y="0" style="fill: rgb(128, 139, 164); fill-opacity: 1;"/></g><g class="g-gtitle"/><g class="g-xtitle"/><g class="g-ytitle"/></g></svg>