<svg class="main-svg" xmlns="http://www.w3.org/2000/svg" xmlns:xlink="http://www.w3.org/1999/xlink" width="1238" height="461" style=""><rect x="0" y="0" width="1238" height="461" style="fill: rgb(255, 255, 255); fill-opacity: 1;"/><defs id="defs-c9df9a"><g class="clips"><clipPath id="clipc9df9axyplot" class="plotclip"><rect width="1020" height="351"/></clipPath><clipPath class="axesclip" id="clipc9df9ax"><rect x="50" y="0" width="1020" height="461"/></clipPath><clipPath class="axesclip" id="clipc9df9ay"><rect x="0" y="60" width="1238" height="351"/></clipPath><clipPath class="axesclip" id="clipc9df9axy"><rect x="50" y="60" width="1020" height="351"/></clipPath></g><g class="gradients"/><g class="patterns"/></defs><g class="bglayer"><rect class="bg" x="50" y="60" width="1020" height="351" style="fill: rgb(229, 236, 246); fill-opacity: 1; stroke-width: 0;"/></g><g class="layer-below"><g class="imagelayer"/><g class="shapelayer"/></g><g class="cartesianlayer"><g class="subplot xy"><g class="layer-subplot"><g class="shapelayer"/><g class="imagelayer"/></g><g class="gridlayer"><g class="x"><path class="xgrid crisp" transform="translate(66.26,0)" d="M0,60v351" style="stroke: rgb(255, 255, 255); stroke-opacity: 1; stroke-width: 1px;"/><path class="xgrid crisp" transform="translate(173.14,0)" d="M0,60v351" style="stroke: rgb(255, 255, 255); stroke-opacity: 1; stroke-width: 1px;"/><path class="xgrid crisp" transform="translate(277.7,0)" d="M0,60v351" style="stroke: rgb(255, 255, 255); stroke-opacity: 1; stroke-width: 1px;"/><path class="xgrid crisp" transform="translate(383.42,0)" d="M0,60v351" style="stroke: rgb(255, 255, 255); stroke-opacity: 1; stroke-width: 1px;"/><path class="xgrid crisp" transform="translate(490.3,0)" d="M0,60v351" style="stroke: rgb(255, 255, 255); stroke-opacity: 1; stroke-width: 1px;"/><path class="xgrid crisp" transform="translate(597.18,0)" d="M0,60v351" style="stroke: rgb(255, 255, 255); stroke-opacity: 1; stroke-width: 1px;"/><path class="xgrid crisp" transform="translate(701.73,0)" d="M0,60v351" style="stroke: rgb(255, 255, 255); stroke-opacity: 1; stroke-width: 1px;"/><path class="xgrid crisp" transform="translate(807.45,0)" d="M0,60v351" style="stroke: rgb(255, 255, 255); stroke-opacity: 1; stroke-width: 1px;"/><path class="xgrid crisp" transform="translate(914.33,0)" d="M0,60v351" style="stroke: rgb(255, 255, 255); stroke-opacity: 1; stroke-width: 1px;"/><path class="xgrid crisp" transform="translate(1021.21,0)" d="M0,60v351" style="stroke: rgb(255, 255, 255); stroke-opacity: 1; stroke-width: 1px;"/></g><g class="y"><path class="ygrid crisp" transform="translate(0,401.8)" d="M50,0h1020" style="stroke: rgb(255, 255, 255); stroke-opacity: 1; stroke-width: 1px;"/><path class="ygrid crisp" transform="translate(0,359.27)" d="M50,0h1020" style="stroke: rgb(255, 255, 255); stroke-opacity: 1; stroke-width: 1px;"/><path class="ygrid crisp" transform="translate(0,316.74)" d="M50,0h1020" style="stroke: rgb(255, 255, 255); stroke-opacity: 1; stroke-width: 1px;"/><path class="ygrid crisp" transform="translate(0,274.22)" d="M50,0h1020" style="stroke: rgb(255, 255, 255); stroke-opacity: 1; stroke-width: 1px;"/><path class="ygrid crisp" transform="translate(0,231.69)" d="M50,0h1020" style="stroke: rgb(255, 255, 255); stroke-opacity: 1; stroke-width: 1px;"/><path class="ygrid crisp" transform="translate(0,189.17)" d="M50,0h1020" style="stroke: rgb(255, 255, 255); stroke-opacity: 1; stroke-width: 1px;"/><path class="ygrid crisp" transform="translate(0,146.64)" d="M50,0h1020" style="stroke: rgb(255, 255, 255); stroke-opacity: 1; stroke-width: 1px;"/><path class="ygrid crisp" transform="translate(0,104.12)" d="M50,0h1020" style="stroke: rgb(255, 255, 255); stroke-opacity: 1; stroke-width: 1px;"/><path class="ygrid crisp" transform="translate(0,61.59)" d="M50,0h1020" style="stroke: rgb(255, 255, 255); stroke-opacity: 1; stroke-width: 1px;"/></g></g><g class="zerolinelayer"/><path class="xlines-below"/><path class="ylines-below"/><g class="overlines-below"/><g class="xaxislayer-below"/><g class="yaxislayer-below"/><g class="overaxes-below"/><g class="plot" transform="translate(50,60)" clip-path="url(#clipc9df9axyplot)"><g class="scatterlayer mlayer"><g class="trace scatter trace05e33a" style="stroke-miterlimit: 2; opacity: 1;"><g class="fills"/><g class="errorbars"/><g class="lines"><path class="js-line" d="M0,254.22L1.16,240.94L2.32,242.93L3.49,255.19L6.97,247.77L8.13,252.65L9.29,263.53L10.46,258.7L11.62,264.1L15.1,274.8L16.26,270.46L18.59,282.91L19.75,280.67L23.23,286.21L24.4,291.31L25.56,291.12L26.72,271.89L27.88,266.68L31.37,262.15L32.53,271.13L33.69,253.61L34.85,252.43L36.01,252.98L39.5,258.38L40.66,245.48L41.82,245.37L42.98,243.24L44.15,245.72L47.63,238L48.79,228L49.95,234.37L51.12,234.01L52.28,228.83L55.76,219.35L56.92,223.36L58.09,211.77L59.25,215.84L60.41,210.84L63.9,206.68L65.06,206.24L66.22,202.37L68.54,195.88L72.03,193.83L73.19,192.78L74.35,195.79L75.51,194.38L76.67,187.56L80.16,183.61L81.32,187.77L82.48,186.68L84.81,186.58L88.29,199.02L89.45,193.48L91.78,207.43L92.94,191.43L96.42,195.71L97.59,207.63L101.07,237.88L104.56,230.08L105.72,242.13L106.88,221.11L108.04,227.73L109.2,224.6L112.69,220.19L113.85,217.05L116.17,208.19L117.33,207.05L120.82,207.46L121.98,206.56L125.47,219.02L128.95,220.86L130.11,205.22L131.28,215.53L132.44,217.68L133.6,216.97L137.08,225.16L138.25,217.96L139.41,213.27L140.57,213.3L141.73,222.82L146.38,227.62L149.86,253.06L153.35,253.72L154.51,256.53L155.67,270.39L156.83,267.92L158,273.14L161.48,294.8L162.64,291.71L164.97,282.3L166.13,267.23L169.61,264.8L170.77,250.59L171.94,255.05L173.1,247.68L174.26,237.32L178.91,245.67L180.07,249.2L181.23,244.28L182.39,248.92L185.88,248.63L187.04,248.6L188.2,246.31L190.52,238.01L194.01,246.1L195.17,234.07L196.33,245.99L198.66,241.82L202.14,243.36L203.3,232.85L204.46,231.84L205.63,243.23L206.79,246.01L211.44,232.99L212.6,243.31L213.76,232.84L214.92,233.9L218.41,227.49L219.57,213.08L220.73,215.23L221.89,212.56L223.05,206.71L226.54,198.17L227.7,199.38L228.86,199.27L231.18,197.5L234.67,197.34L236.99,181.17L238.15,189.8L239.32,192.4L242.8,184.87L243.96,178.45L245.13,176.22L246.29,178.27L250.93,172.58L252.1,175.28L253.26,175.43L254.42,173.43L255.58,168.33L260.23,144.64L261.39,145.95L262.55,148.43L263.71,152.98L267.2,151.71L268.36,159.53L269.52,148.94L270.68,150.44L271.85,144.03L275.33,144.81L276.49,141.29L277.65,146.4L278.82,155.76L279.98,148.4L283.46,151.39L284.62,160.94L285.79,151.23L286.95,151.52L292.76,152.24L293.92,159.31L296.24,145.53L299.73,143.93L300.89,149.53L302.05,143.94L303.21,139.52L304.37,143.88L309.02,145.78L310.18,151.02L311.34,158.46L312.51,156.7L315.99,153.39L317.15,157.54L319.48,145.52L320.64,144.78L324.12,144.87L325.28,151.26L326.45,147.82L327.61,152.45L328.77,150.91L332.26,156.42L333.42,142.54L334.58,139.45L335.74,137.37L340.39,134.09L341.55,134.98L342.71,125.06L343.87,126.54L345.03,130.03L348.52,123.7L349.68,129.74L350.84,130.59L352,143.46L353.17,131.86L356.65,139.72L358.97,150.25L360.14,148.6L361.3,151.19L364.78,148.39L367.11,160.33L368.27,188.38L369.43,187.15L372.92,185.88L374.08,196.16L375.24,189.6L376.4,198.55L377.56,189.42L382.21,188.73L383.37,182.39L384.53,177.37L385.69,179.45L390.34,165.93L391.5,164.94L392.67,160.21L393.83,162.24L397.31,158.28L398.47,154.64L399.64,151.6L400.8,152.53L401.96,152.12L406.61,157.62L407.77,156.03L408.93,157.06L410.09,148.62L413.58,158.18L414.74,161.63L415.9,153.17L417.06,154.78L418.22,162.46L421.71,158.24L422.87,150.84L424.03,151.35L425.19,146.73L426.36,137.53L429.84,140.78L431,149.9L432.16,137.36L433.33,156.4L434.49,143.71L437.97,143.77L439.13,145.69L440.3,158.07L441.46,158.81L442.62,147.45L446.1,147.71L447.27,160.85L448.43,139.09L449.59,156.26L450.75,154.53L455.4,173.91L456.56,189.37L457.72,199.17L458.88,187.8L463.53,190.5L464.69,188.73L467.02,172.83L470.5,166.07L475.15,143.86L478.63,145.15L479.79,134.41L480.96,131.69L482.12,131.35L483.28,123.96L489.09,116.59L490.25,102.35L494.9,99.09L496.06,95.61L497.22,90.85L498.38,92.68L499.54,89.51L503.03,91.97L504.19,93.57L505.35,86.82L507.68,73.45L511.16,81.82L512.32,81.2L513.49,83.13L515.81,89.1L519.29,103.09L521.62,134.93L522.78,129.6L523.94,148.31L527.43,157.02L528.59,160.84L529.75,133.65L530.91,102.67L532.07,107.78L535.56,94.57L536.72,95.41L537.88,98.71L540.21,91.69L543.69,95.97L544.85,99.72L546.01,113.47L548.34,113.46L551.82,123.93L552.98,118.44L555.31,73.67L556.47,84.43L561.12,91.36L562.28,103.28L563.44,106.81L564.6,90.63L569.25,92.07L570.41,97.09L571.57,75.84L572.73,91.23L576.22,86.87L577.38,106.95L578.54,116.1L579.7,95.43L580.87,122.4L584.35,105.99L585.51,89.63L586.67,96L587.84,87.69L589,92.8L592.48,107.04L593.64,88.59L594.81,89.53L595.97,85.93L597.13,79.83L601.78,83.93L602.94,82.5L604.1,91.97L605.26,88.44L608.75,87.64L611.07,82.3L612.23,74.51L613.39,74.47L616.88,71.34L619.2,85.45L620.36,83.26L621.53,107.08L625.01,100.08L627.33,132.23L628.5,116.28L629.66,122.81L633.14,100.58L634.31,108.08L635.47,92.41L636.63,100.04L637.79,86.39L641.28,74.92L642.44,82.39L643.6,101.55L644.76,104.39L645.92,109.73L649.41,86.87L651.73,116.53L652.89,113.15L657.54,104.66L658.7,105.47L659.86,104.12L661.03,104.19L662.19,103.44L665.67,108.49L666.83,107.39L668,109.06L669.16,113.79L670.32,132.24L673.8,114.25L674.97,122.59L677.29,108.74L678.45,101.5L681.94,111.35L683.1,104.77L685.42,126.05L686.58,110.68L690.07,111.38L691.23,120.57L692.39,123.71L693.55,119.38L694.72,103.23L698.2,115.85L699.36,115.49L700.52,118.24L701.69,104.71L702.85,100.19L706.33,98.83L707.49,99.8L709.82,106.21L710.98,116.98L715.63,131.04L716.79,126.08L719.11,139.67L722.6,139.28L723.76,142.43L724.92,141.78L727.24,170.44L730.73,173.34L731.89,173.39L733.05,162.73L734.21,159.06L735.38,172.01L738.86,182.14L740.02,171.57L741.18,167.62L742.35,153.73L743.51,161.35L746.99,158.85L748.15,160.28L749.32,168.31L750.48,175.37L751.64,167.92L756.29,192.02L757.45,177.54L758.61,175.27L763.26,174.98L764.42,159.79L765.58,171.52L766.74,171.46L767.9,155.73L772.55,142.26L773.71,141.49L774.87,134.89L776.04,140.25L779.52,138.13L780.68,153.47L781.85,160.12L783.01,159.84L784.17,171.47L787.65,177.2L789.98,151L791.14,154.46L795.79,162.14L796.95,170.62L798.11,155.78L799.27,161.73L800.43,173.68L803.92,160.52L805.08,162.98L806.24,158.84L812.05,150.15L813.21,158.97L815.54,185.65L816.7,224.51L821.34,295.77L822.51,245.46L823.67,223.67L824.83,232.04L828.31,243.23L829.48,272.57L830.64,252.2L831.8,249.29L832.96,268.93L837.61,239.46L838.77,262.99L839.93,259.25L841.09,247.86L844.58,250.18L846.9,228.53L848.06,231.04L849.23,249.03L852.71,243.61L853.87,253.44L855.03,253.79L857.36,244.84L860.84,254.31L863.17,238.75L864.33,248.14L865.49,231.87L868.97,215.62L870.14,220.54L871.3,208.92L872.46,196.62L873.62,193.85L877.11,190.54L878.27,196.26L879.43,223.24L880.59,212.64L881.75,207.4L885.24,211.11L886.4,217.56L887.56,218.54L888.72,183.16L889.89,173.67L893.37,182.12L894.53,187.98L895.69,176.2L896.86,173.86L898.02,179.72L901.5,169.04L902.67,166.19L903.83,168.43L904.99,170.61L906.15,182.61L909.64,196.07L910.8,195.43L911.96,200.31L913.12,219.03L914.28,237.92L917.77,212.52L918.93,207.95L920.09,189.24L922.41,186.99L925.9,185.81L927.06,181.36L928.22,180.6L930.55,177.81L934.03,184.56L935.19,175.34L936.36,186.05L937.52,195.29L938.68,169.84L942.16,165.96L943.33,177.05L944.49,190.88L945.65,183.71L946.81,194.78L950.3,178.63L952.62,153.99L953.78,171.63L954.94,188.32L958.43,179.12L960.75,152.44L961.91,157.66L966.56,160.56L967.72,144.84L968.88,151.16L970.05,166.95L974.69,177.78L975.85,160.07L977.02,166.81L978.18,179.38L979.34,196.63L982.82,189.69L983.99,182.7L985.15,200.85L986.31,177.81L987.47,196.12L992.12,185.37L993.28,212.44L995.6,177.65L999.09,177.97L1000.25,150.93L1001.41,158.23L1002.57,146.87L1003.74,119.95L1007.22,114.84L1008.38,131.62L1009.54,124.86L1010.71,128.5L1011.87,141.28L1015.35,128.83L1017.68,137.02L1018.84,145.54L1020,131.35" style="vector-effect: non-scaling-stroke; fill: none; stroke: rgb(99, 110, 250); stroke-opacity: 1; stroke-width: 2px; opacity: 1;"/></g><g class="points"/><g class="text"/></g><g class="trace scatter traceb330e0" style="stroke-miterlimit: 2; opacity: 1;"><g class="fills"/><g class="errorbars"/><g class="lines"><path class="js-line" d="M0,254.22L1.16,239.7L2.32,240.09L3.49,251.78L6.97,246.56L8.13,251.81L9.29,261.08L10.46,255.91L11.62,263.92L15.1,274.59L16.26,271.87L18.59,285.65L19.75,283.58L23.23,288.33L24.4,292.71L25.56,294.28L26.72,277.17L27.88,272.81L31.37,269.8L32.53,278.6L33.69,260.9L34.85,261.58L36.01,264.42L39.5,270.29L40.66,258.32L42.98,253.21L44.15,254.59L47.63,247.57L48.79,239.38L49.95,244.93L51.12,242.18L52.28,239.69L55.76,228.92L56.92,233.98L58.09,221.83L59.25,226.16L60.41,222.3L63.9,217.01L65.06,216.8L66.22,214.49L67.38,209.07L68.54,205.66L72.03,201.46L73.19,198.34L74.35,204.1L75.51,201.18L76.67,195.99L80.16,192.25L81.32,197L82.48,194.92L84.81,193.82L88.29,205.76L89.45,199.62L91.78,213.96L92.94,198.81L96.42,203.7L97.59,214.95L98.75,221.69L99.91,234.52L101.07,240L104.56,230.93L105.72,243.44L106.88,222.02L108.04,228.43L109.2,224.38L112.69,220.09L113.85,216.81L116.17,207.44L117.33,206.42L120.82,207.67L121.98,205.24L125.47,217.37L128.95,219.32L130.11,205.43L131.28,216.56L132.44,220.45L133.6,216.97L137.08,225.28L138.25,218.22L140.57,214.42L141.73,224.65L146.38,229.09L147.54,238.21L148.7,241.01L149.86,252.57L153.35,253.62L154.51,258.73L155.67,272.79L156.83,273.51L158,278.58L161.48,300.56L163.8,295.24L164.97,290.39L166.13,276.32L169.61,274.81L170.77,260.72L171.94,264.66L174.26,247.44L178.91,255.71L180.07,260.01L181.23,253.37L182.39,259.01L185.88,259.89L187.04,258.92L188.2,256.46L190.52,248.25L194.01,255.08L195.17,245.5L196.33,257.34L197.49,255.96L198.66,253.3L202.14,254.66L203.3,244.4L204.46,243.01L205.63,254.06L206.79,255.3L210.27,246.38L211.44,244.68L212.6,255.16L213.76,242.95L214.92,244.92L218.41,237.54L219.57,225.09L220.73,227.8L221.89,224.77L223.05,217.56L226.54,209.19L228.86,211.28L230.02,211.31L231.18,209.19L234.67,207.7L236.99,191.97L238.15,198L239.32,199.48L242.8,191.76L245.13,180.27L246.29,181.68L250.93,176.42L252.1,179.39L254.42,176.22L255.58,170.57L260.23,147.58L261.39,147.26L263.71,152.03L267.2,150.06L268.36,156.89L269.52,148.57L270.68,151.15L271.85,143.77L275.33,144.96L276.49,140.12L277.65,143.89L278.82,156.92L279.98,149.23L283.46,152.8L284.62,160.4L285.79,150.93L288.11,153.64L292.76,153.82L293.92,161.11L295.08,151.83L296.24,146.94L299.73,145.85L300.89,149.86L302.05,143.49L303.21,139.58L304.37,143.45L309.02,147.09L310.18,152.52L311.34,159.01L312.51,154.67L315.99,148.58L317.15,151.77L319.48,140.49L320.64,141.04L324.12,138.19L325.28,144.74L326.45,143.91L327.61,147.7L328.77,148.08L332.26,153.08L333.42,140.51L334.58,138.97L335.74,137.5L340.39,135.4L341.55,135.64L342.71,126.36L343.87,127.29L345.03,131.98L348.52,125.23L349.68,129.94L350.84,129.27L352,141.37L353.17,129.25L356.65,134.28L358.97,145.3L360.14,143.65L361.3,144.97L364.78,141.77L365.95,145.82L367.11,152.92L368.27,180.67L369.43,183.62L372.92,180.99L374.08,193.52L375.24,187.81L376.4,195.24L377.56,186.35L381.05,186.03L382.21,184.67L383.37,178.27L384.53,173.15L385.69,172.83L389.18,164.99L390.34,160.45L391.5,159.48L392.67,154.9L393.83,157.01L397.31,152.48L399.64,145.43L400.8,145.31L401.96,144.62L406.61,152.2L407.77,150.87L408.93,153.06L410.09,144.83L413.58,154.49L414.74,159.07L415.9,150.36L417.06,152.06L418.22,160.09L421.71,155.9L422.87,148.5L424.03,149.62L425.19,145.72L426.36,134.98L429.84,137.45L431,146.41L432.16,133.43L433.33,152.07L434.49,141.79L437.97,140.75L439.13,143.47L440.3,154.35L441.46,154.78L442.62,142.39L446.1,140.25L447.27,151.6L448.43,130.43L449.59,147.96L450.75,146.93L455.4,165.01L456.56,185.15L457.72,197.42L458.88,187.75L462.37,190.25L463.53,194.8L464.69,193.58L465.85,186.9L467.02,179.25L470.5,174.75L473.99,161.54L475.15,152.62L478.63,155.38L479.79,146.9L482.12,144.28L483.28,134.64L487.93,129.9L489.09,130.04L490.25,112.91L491.41,110.29L494.9,108.15L496.06,106.49L497.22,99.7L498.38,99.71L499.54,96.68L503.03,98.16L504.19,103.62L505.35,97.39L507.68,86.85L511.16,93.12L512.32,93.16L513.49,95.68L515.81,101.34L519.29,118.68L521.62,157.36L522.78,151.35L523.94,170.53L527.43,179.48L528.59,182.13L529.75,151.94L530.91,122.46L532.07,125.2L536.72,110.16L537.88,114.15L540.21,107.68L543.69,110.65L544.85,114.57L546.01,126.91L548.34,125.65L551.82,135.8L552.98,128.36L554.15,108.31L555.31,82.28L556.47,93.67L561.12,103.64L562.28,117.23L563.44,120.55L564.6,103.51L569.25,106.51L570.41,112.26L571.57,89.61L572.73,106.03L576.22,100.3L577.38,118.22L578.54,127.3L579.7,102.41L580.87,129.34L584.35,111.83L585.51,94.74L586.67,100.35L587.84,95.34L589,98.27L592.48,113.78L593.64,94.89L594.81,95.39L595.97,89.58L597.13,82.19L601.78,87.2L602.94,89.49L604.1,99.18L605.26,96.87L608.75,99.54L609.91,93.56L611.07,93.97L612.23,86.33L613.39,85.14L616.88,83.8L618.04,88.18L619.2,95.32L620.36,95.27L621.53,118.12L625.01,113.4L627.33,145.41L628.5,131.04L629.66,136.59L633.14,116.45L634.31,122.49L635.47,107.29L636.63,117.97L637.79,103.1L641.28,92.82L642.44,97.82L643.6,115.76L644.76,117.31L645.92,123.32L649.41,99.65L651.73,129.26L652.89,126.55L658.7,115.49L659.86,116.64L661.03,119.33L662.19,125.78L665.67,128.51L666.83,126.26L668,125.18L669.16,132.35L670.32,150.24L673.8,130.05L674.97,140.61L676.13,128.57L677.29,123.95L678.45,115.87L681.94,125.6L683.1,117.01L685.42,136.98L686.58,121.66L690.07,123.5L691.23,132.56L692.39,136.58L693.55,132.88L694.72,116.05L698.2,129.55L699.36,128.68L700.52,132.2L701.69,119.73L702.85,115.41L706.33,114.48L707.49,117.29L709.82,124.55L710.98,134.94L715.63,149.28L716.79,143.33L719.11,156.14L722.6,155.43L723.76,158.65L724.92,158.49L727.24,187.96L730.73,191.37L731.89,194.04L733.05,183.93L734.21,180.45L735.38,193.61L738.86,203.71L740.02,192.95L741.18,189.2L742.35,175.74L743.51,183.99L746.99,180.49L748.15,182.5L749.32,189.98L750.48,197.94L751.64,191.9L756.29,216.07L757.45,202.83L758.61,199.6L763.26,199.2L764.42,184.32L765.58,194.92L766.74,195.29L767.9,179.9L772.55,167.17L773.71,167.45L774.87,161.6L776.04,168.39L779.52,166.92L780.68,179.64L781.85,184.11L783.01,183.14L784.17,195.96L787.65,202.18L789.98,175.01L791.14,174.91L792.3,179.81L795.79,185.16L796.95,192.81L798.11,177.84L799.27,181.96L800.43,197.84L803.92,185.29L805.08,187.12L807.4,179.28L808.56,178.13L812.05,174.2L813.21,183.38L815.54,210.35L816.7,250.33L821.34,320.98L822.51,270.45L823.67,248.82L824.83,254.07L828.31,263.57L829.48,292.01L830.64,272.64L831.8,267.67L832.96,287.57L837.61,260.41L838.77,283.2L839.93,280.41L841.09,269.65L844.58,271.45L846.9,251.46L848.06,254.45L849.23,274.35L852.71,268.62L853.87,279.63L855.03,280.98L857.36,269.28L860.84,277.27L862,272.07L863.17,261.09L864.33,271.01L865.49,254.26L868.97,239.85L870.14,242.25L872.46,216.54L873.62,216.82L877.11,214.43L878.27,219.93L879.43,248.26L880.59,237.79L881.75,234.11L885.24,239.46L886.4,244.73L887.56,245.67L888.72,201.23L889.89,195.32L893.37,206.01L894.53,213.77L895.69,198.75L896.86,196.97L898.02,199.84L901.5,189.84L902.67,184.95L903.83,185.26L904.99,188.6L906.15,198.71L909.64,213.16L910.8,213.19L911.96,219.07L913.12,238.48L914.28,256.96L917.77,229.71L918.93,222.66L920.09,203.9L921.25,197.53L922.41,200.85L925.9,196.78L927.06,192.1L928.22,193.11L930.55,189.48L934.03,194.21L935.19,186.31L937.52,209.19L938.68,183.57L942.16,181.62L943.33,193.63L944.49,205.63L945.65,198.02L946.81,211.69L950.3,194.47L952.62,169.58L953.78,188.42L954.94,205.39L958.43,196.62L960.75,167.03L961.91,173.06L966.56,176.5L967.72,160.7L968.88,167.39L970.05,183.22L974.69,193.02L975.85,174.14L977.02,180.2L978.18,193.55L979.34,208.95L982.82,202.03L983.99,193L985.15,211.93L986.31,187.25L987.47,207.04L992.12,198.76L993.28,232.74L994.44,216.94L995.6,188.67L999.09,189.95L1000.25,163.43L1001.41,172.38L1002.57,157.95L1003.74,131.92L1007.22,126.54L1008.38,145.17L1009.54,137.64L1010.71,140.58L1011.87,152.08L1015.35,138.41L1016.51,145.2L1018.84,160.38L1020,144.36" style="vector-effect: non-scaling-stroke; fill: none; stroke: rgb(239, 85, 59); stroke-opacity: 1; stroke-width: 2px; opacity: 1;"/></g><g class="points"/><g class="text"/></g><g class="trace scatter tracee896fe" style="stroke-miterlimit: 2; opacity: 1;"><g class="fills"/><g class="errorbars"/><g class="lines"><path class="js-line" d="M0,254.22L1.16,239.41L2.32,239.05L3.49,251.15L6.97,246.03L9.29,260.38L10.46,255.28L11.62,264.49L15.1,275.29L16.26,272.47L17.43,278.78L18.59,285.81L19.75,283.83L23.23,288.28L24.4,292.24L25.56,293.8L26.72,277.62L27.88,273.92L31.37,271.87L32.53,280.9L33.69,263.24L36.01,269.92L39.5,276.03L40.66,263.83L41.82,260.52L42.98,257.89L44.15,259.41L47.63,253.32L48.79,245.27L49.95,251.19L51.12,248.3L52.28,247.45L55.76,236.1L56.92,241.81L58.09,228.94L59.25,232.72L60.41,229.6L66.22,220.76L67.38,214.59L68.54,210.87L72.03,206.31L73.19,202.94L74.35,209.66L76.67,202.79L80.16,199.3L81.32,203.81L82.48,201.05L84.81,199.77L88.29,211.55L89.45,205.31L90.62,212.76L91.78,219.31L92.94,204.48L96.42,208.92L97.59,220.5L98.75,225.3L99.91,237.04L101.07,242.76L104.56,233.84L105.72,245.65L106.88,224.65L108.04,230.64L109.2,226.61L112.69,221.88L113.85,218.36L116.17,208.59L117.33,207.73L120.82,208.81L121.98,206.06L125.47,218.45L128.95,220.7L130.11,206.81L131.28,218.62L132.44,223.28L133.6,218.7L137.08,224.56L138.25,216.92L140.57,213.85L141.73,224.35L146.38,228.67L147.54,239.43L148.7,241.41L149.86,250.78L153.35,250.94L154.51,256.9L155.67,271.07L156.83,272.97L158,277.62L161.48,299.93L162.64,298.21L163.8,294.39L164.97,290.75L166.13,276.63L169.61,275.38L170.77,261.41L171.94,265.18L173.1,256.57L174.26,247.64L178.91,256.12L180.07,260.49L181.23,253.05L182.39,259.51L185.88,261.38L187.04,259.85L188.2,256.35L189.36,250.29L190.52,248.23L194.01,255L195.17,246.72L196.33,259.41L197.49,258.22L198.66,255.62L202.14,256.89L203.3,247.68L204.46,245.93L205.63,256.03L206.79,257.01L211.44,246.7L212.6,257L213.76,244.54L214.92,247.57L218.41,239.5L219.57,226.23L220.73,229.12L221.89,226.7L223.05,219.54L226.54,210.73L230.02,213.42L231.18,211.08L234.67,207.4L235.83,197.04L236.99,190.43L238.15,196.12L239.32,197.18L242.8,189.38L245.13,178.06L246.29,179.75L250.93,174.37L252.1,177.44L254.42,174.25L255.58,169.88L260.23,146.01L261.39,144.96L262.55,145.47L263.71,148.8L267.2,145.55L268.36,152.4L269.52,145.73L270.68,149.12L271.85,141.33L275.33,142.91L276.49,138.09L277.65,141.31L278.82,155.76L279.98,147.63L283.46,151.08L284.62,158.33L285.79,149.52L286.95,152.36L288.11,152.17L292.76,152.94L293.92,159.94L295.08,149.8L296.24,144.69L299.73,144.16L300.89,148.03L302.05,141.85L303.21,138.07L304.37,141.91L309.02,145.87L310.18,151.23L311.34,157.58L312.51,151.9L315.99,145.39L317.15,148.69L319.48,138.21L320.64,139.55L324.12,135.69L325.28,142.21L326.45,141.95L327.61,145.77L328.77,146.8L332.26,151.3L333.42,138.13L334.58,136.12L335.74,134.81L340.39,133.18L341.55,132.61L342.71,122.92L343.87,123.03L345.03,127.86L348.52,121.09L349.68,125.18L350.84,121.81L352,133.6L353.17,121.35L356.65,124.68L358.97,134.82L360.14,133.21L361.3,134.87L364.78,131.59L365.95,134.64L367.11,142.54L368.27,170.14L369.43,173.39L372.92,170.19L374.08,183.67L375.24,178.05L376.4,185.45L377.56,176.53L381.05,175.73L382.21,173.32L383.37,166.52L384.53,160.89L385.69,160.04L389.18,153.24L390.34,148.07L391.5,146.44L392.67,142.24L393.83,144.09L397.31,139.27L399.64,131.77L400.8,131.75L401.96,130.96L406.61,139.11L407.77,137.87L408.93,140.12L410.09,131.33L413.58,140.71L414.74,145.23L415.9,137.64L417.06,139.98L418.22,149.14L421.71,145.14L422.87,137.45L424.03,139.12L425.19,135.69L426.36,124.72L429.84,126.61L431,136L432.16,123L433.33,141.57L434.49,131.96L437.97,130.78L439.13,133.36L440.3,143.79L441.46,144.21L442.62,131.45L446.1,128.11L447.27,138.86L448.43,117.38L449.59,134.49L450.75,134.06L454.24,150.47L455.4,151.4L457.72,187.36L458.88,178.64L462.37,183.07L463.53,187.79L464.69,186.87L465.85,180.31L467.02,172.99L470.5,169.79L473.99,157.38L475.15,147.28L478.63,149.88L479.79,142.11L482.12,140.01L483.28,129.23L486.77,127.03L487.93,125.1L489.09,125.37L490.25,106.58L491.41,103.41L494.9,100.77L496.06,100.19L497.22,92.98L498.38,91.87L499.54,88.35L503.03,89.25L504.19,95.71L507.68,78.69L511.16,84.64L512.32,84.6L513.49,87.57L515.81,93.92L519.29,110.99L521.62,152.18L522.78,146.38L523.94,166.45L527.43,174.51L528.59,176.89L529.75,146.46L530.91,118.06L532.07,120.01L536.72,103.82L537.88,107.6L540.21,101.37L543.69,104.86L544.85,108.81L546.01,121.18L548.34,118.99L551.82,128.12L552.98,118.72L554.15,98.68L555.31,71.32L556.47,82.25L561.12,92.7L562.28,105.96L563.44,108.82L564.6,90.42L569.25,93.77L570.41,100.32L571.57,76.48L572.73,92.78L576.22,87.57L577.38,107.19L578.54,115.69L579.7,90.09L580.87,117.43L584.35,99.47L585.51,82.65L586.67,89.08L587.84,85.25L589,88.25L592.48,104.19L593.64,85.5L594.81,86.54L595.97,78.93L597.13,71.21L601.78,76.12L602.94,79.15L604.1,89.79L605.26,87.89L608.75,91.84L609.91,85.13L611.07,89.18L612.23,83.3L613.39,81.47L616.88,80.99L618.04,84.33L619.2,92.08L620.36,91.98L621.53,114.66L625.01,110.61L627.33,142.33L628.5,130L629.66,135.38L633.14,115.44L634.31,121.42L635.47,105.64L636.63,116.23L637.79,100.38L641.28,91.36L642.44,96.06L643.6,114.2L644.76,115.1L645.92,119.87L649.41,96.34L651.73,126.99L652.89,123.98L658.7,111.84L659.86,113.5L661.03,117.96L662.19,128.16L665.67,129.73L666.83,127L668,123.62L669.16,131.33L670.32,149.86L673.8,128.14L674.97,138.77L676.13,127.15L678.45,114.84L681.94,123.15L683.1,112.09L684.26,121.23L685.42,132.53L686.58,117.07L690.07,118.44L691.23,127.43L692.39,131.84L693.55,128.67L694.72,111.68L698.2,125.79L699.36,125.35L700.52,129.01L702.85,112.12L706.33,111.55L708.66,121.3L709.82,124.05L710.98,135.13L715.63,150.08L716.79,143.21L717.95,149.08L719.11,154.67L722.6,153.96L723.76,157.87L724.92,158.33L727.24,189.91L730.73,193.56L731.89,196.38L733.05,185.74L734.21,182.67L735.38,196.51L738.86,206.44L740.02,195.21L741.18,191.24L742.35,178.05L743.51,186.73L746.99,183.26L748.15,185.75L749.32,193.22L750.48,200.93L751.64,196.13L756.29,220.42L757.45,206.98L758.61,202.84L763.26,202.05L764.42,187.25L765.58,197.34L766.74,199.02L767.9,183.74L772.55,171.24L773.71,172.18L774.87,165.31L776.04,172.55L779.52,171.28L780.68,184.53L781.85,189.07L783.01,187.6L784.17,199.62L787.65,206.06L789.98,178.38L791.14,178.91L792.3,184.53L795.79,189.71L796.95,197.62L798.11,182L799.27,185.48L800.43,203.47L803.92,190.63L805.08,192.13L807.4,183.23L808.56,182.12L812.05,179.35L813.21,188.98L815.54,217.09L816.7,256.85L821.34,327.58L822.51,276.28L823.67,255.71L824.83,259.26L828.31,268.38L829.48,296.69L830.64,278.28L831.8,272.17L832.96,292.48L837.61,266.06L838.77,288.8L839.93,286.33L841.09,276.57L844.58,278.27L846.9,258.66L848.06,261.64L849.23,282.64L852.71,277.17L853.87,288.44L855.03,290.15L857.36,277.61L860.84,285.44L862,280.88L863.17,269.33L864.33,280.28L865.49,263.78L868.97,249.41L870.14,251.42L872.46,224.15L873.62,225.55L877.11,223.86L878.27,229.93L879.43,258.82L880.59,249.97L881.75,247.46L885.24,252.57L886.4,259.08L887.56,258.99L888.72,213.34L889.89,208.74L893.37,219.58L894.53,228.6L895.69,212.63L896.86,211L898.02,212.09L901.5,203.92L902.67,197.91L903.83,197.27L904.99,201.78L906.15,213.1L909.64,227.98L910.8,228.18L911.96,235.54L913.12,255.27L914.28,272.7L917.77,244.66L918.93,235.69L920.09,216.92L921.25,208.3L922.41,212.56L925.9,207.56L927.06,203.05L928.22,205.14L930.55,201.48L934.03,205.79L935.19,197.79L937.52,221.2L938.68,195.53L942.16,193.61L943.33,206.2L944.49,218.1L945.65,210.39L946.81,224.6L950.3,206.73L952.62,181.97L953.78,202.06L954.94,219.37L958.43,210.55L960.75,179.39L961.91,185.88L966.56,189.15L967.72,173.25L968.88,180.07L970.05,195.92L974.69,205.07L975.85,185.47L977.02,190.75L978.18,203.47L979.34,219.36L982.82,212.03L983.99,202.6L985.15,221.61L986.31,197.01L987.47,218.16L992.12,210.86L993.28,247.19L994.44,230.47L995.6,198.45L999.09,200.18L1000.25,174.56L1001.41,185.53L1002.57,171.07L1003.74,143.51L1007.22,137.37L1008.38,156L1009.54,147.18L1010.71,150.21L1011.87,157.9L1015.35,144.52L1016.51,153.05L1018.84,170.14L1020,153.77" style="vector-effect: non-scaling-stroke; fill: none; stroke: rgb(0, 204, 150); stroke-opacity: 1; stroke-width: 2px; opacity: 1;"/></g><g class="points"/><g class="text"/></g><g class="trace scatter trace6fcd1e" style="stroke-miterlimit: 2; opacity: 1;"><g class="fills"/><g class="errorbars"/><g class="lines"><path class="js-line" d="M0,254.22L1.16,239.24L2.32,238.34L3.49,250.85L6.97,245.91L9.29,259.88L10.46,255.03L11.62,264.53L15.1,275.31L16.26,272.59L17.43,279L18.59,285.93L19.75,283.85L23.23,288.46L24.4,292.39L25.56,294.08L26.72,277.62L27.88,274.02L31.37,272.21L32.53,281.28L33.69,263.54L36.01,271.05L39.5,277.67L40.66,265.71L41.82,262.07L42.98,259.65L44.15,261.11L47.63,255.38L48.79,247.25L49.95,253.33L51.12,250.82L52.28,250.12L55.76,239.02L56.92,244.41L58.09,231.16L59.25,234.54L60.41,231.64L65.06,224.6L66.22,222.88L68.54,213.42L72.03,208.91L73.19,205.58L74.35,212.65L76.67,205.48L80.16,202.18L81.32,206.8L82.48,203.98L84.81,202.76L88.29,214.24L89.45,208.04L90.62,215.59L91.78,222.29L92.94,207.28L96.42,211.64L97.59,223.34L98.75,227.62L99.91,239.52L101.07,245.11L104.56,236.34L105.72,248.14L106.88,227.73L108.04,233.66L109.2,229.07L112.69,224.56L113.85,220.82L116.17,211L117.33,210.33L120.82,211.4L121.98,208.7L125.47,221.01L128.95,223.38L130.11,209.35L131.28,221.26L132.44,225.7L133.6,220.9L137.08,226.11L138.25,218.69L140.57,215.62L141.73,225.64L146.38,229.83L147.54,240.96L148.7,243.33L149.86,251.99L153.35,251.46L154.51,257.27L155.67,271.7L156.83,273.81L158,278.42L161.48,300.56L162.64,299.65L163.8,295.7L164.97,292.51L166.13,278.13L169.61,276.64L170.77,262.75L171.94,266.59L173.1,258L174.26,249L178.91,257.51L180.07,261.74L181.23,254.35L182.39,260.92L185.88,263.27L187.04,261.83L188.2,258.03L190.52,250.17L194.01,256.88L195.17,248.88L196.33,262.18L197.49,260.82L198.66,258.26L202.14,259.57L203.3,250.38L204.46,248.51L205.63,258.26L206.79,259.1L210.27,250L211.44,248.89L212.6,259.1L213.76,246.67L214.92,249.76L218.41,241.24L219.57,227.52L220.73,230.65L221.89,228.65L223.05,221.34L226.54,212.29L230.02,214.99L231.18,212.74L234.67,208.12L235.83,197.76L236.99,190.56L238.15,196.36L239.32,196.99L242.8,189.11L245.13,177.55L246.29,179.85L250.93,174.68L252.1,177.78L255.58,170.34L259.07,154.61L260.23,146.28L261.39,145.22L262.55,145.86L263.71,149.23L267.2,145.42L268.36,152.29L269.52,145.45L270.68,149.13L271.85,141.23L275.33,142.82L276.49,137.74L277.65,140.79L278.82,155.25L279.98,147.18L283.46,150.78L284.62,158.29L285.79,149.74L286.95,152.71L288.11,152.35L292.76,153.19L293.92,160.13L295.08,149.73L296.24,144.64L299.73,143.98L300.89,148.13L302.05,141.94L303.21,137.94L304.37,141.71L309.02,145.73L310.18,151.23L311.34,157.6L312.51,151.73L315.99,145.45L317.15,148.93L319.48,138.69L320.64,140.12L324.12,136.03L325.28,142.63L326.45,142.67L327.61,146.63L332.26,152.43L333.42,138.97L335.74,135.95L340.39,134.35L341.55,133.58L342.71,123.7L343.87,123.59L345.03,128.34L348.52,121.55L349.68,125.55L350.84,122.06L352,133.75L353.17,121.43L356.65,124.31L358.97,135.63L360.14,134.21L361.3,136.28L364.78,133.43L365.95,136.2L367.11,144.56L368.27,171.85L369.43,174.93L372.92,171.78L374.08,185L375.24,179.36L376.4,186.37L377.56,177.62L381.05,176.77L382.21,174.08L383.37,167.12L384.53,161.56L385.69,160.82L389.18,154.04L390.34,148.8L391.5,146.96L392.67,142.66L393.83,144.59L397.31,139.69L399.64,132.25L400.8,132.48L401.96,131.69L406.61,140L407.77,138.4L408.93,140.52L410.09,131.97L413.58,140.94L414.74,145.08L415.9,137.94L417.06,140.74L418.22,150.18L421.71,146.48L422.87,138.59L424.03,140.65L425.19,137.33L426.36,126.24L429.84,128L431,137.75L432.16,124.52L433.33,142.85L434.49,133.05L437.97,131.96L439.13,134.44L440.3,144.72L441.46,145.25L442.62,132.46L446.1,129.01L447.27,139.85L448.43,118.6L449.59,135.5L450.75,135.22L454.24,151.6L455.4,152.35L457.72,188.52L458.88,179.76L462.37,185.12L463.53,190.03L464.69,189.16L465.85,182.93L467.02,176.03L470.5,173.11L473.99,160.38L475.15,150.12L478.63,152.78L479.79,144.83L480.96,142.91L482.12,142.54L483.28,131.3L486.77,129.33L487.93,127.39L489.09,127.64L490.25,108.57L491.41,105.52L496.06,102.17L497.22,94.68L498.38,93.37L499.54,89.38L503.03,90.37L504.19,96.63L507.68,80.13L511.16,85.93L512.32,86.1L513.49,89.29L515.81,95.88L519.29,112.64L521.62,154.06L522.78,148.59L523.94,169.02L527.43,176.57L528.59,178.93L529.75,148.72L530.91,120.84L532.07,123.02L536.72,106.4L537.88,109.92L540.21,103.82L543.69,107.45L544.85,111.22L546.01,123.77L548.34,121.3L551.82,130.02L552.98,120.56L554.15,100.41L555.31,73.05L556.47,84.01L561.12,94.38L562.28,107.71L563.44,110.51L564.6,91.55L569.25,95.1L570.41,101.82L571.57,77.58L572.73,93.8L576.22,89.15L577.38,109.74L578.54,118L579.7,92.11L580.87,119.13L584.35,101.36L585.51,84.65L586.67,92.23L587.84,88.49L589,91.91L592.48,108.01L593.64,89.91L594.81,91.3L595.97,83.68L597.13,75.75L601.78,80.59L602.94,83.4L604.1,93.95L605.26,92L608.75,96.5L609.91,89.76L611.07,94.67L613.39,87.01L616.88,86.72L618.04,89.98L619.2,97.91L620.36,97.39L621.53,120.04L625.01,115.86L626.17,135.06L627.33,147.39L628.5,135.94L629.66,141.56L633.14,121.61L634.31,127.54L635.47,111.7L636.63,121.94L637.79,105.88L641.28,97.53L642.44,102.12L643.6,120.31L644.76,121.38L645.92,126.04L649.41,102.47L651.73,133.5L652.89,130.37L658.7,118.21L659.86,119.85L661.03,124.86L662.19,135.92L665.67,137.14L666.83,134.43L668,130.67L669.16,138.27L670.32,157.31L673.8,135.26L674.97,146.09L676.13,134.73L678.45,121.81L681.94,129.74L683.1,117.94L684.26,127.07L685.42,138.6L686.58,123.4L690.07,124.91L691.23,133.58L692.39,137.92L693.55,134.76L694.72,117.48L698.2,131.48L699.36,131.43L700.52,134.96L702.85,118.21L706.33,117.69L708.66,127.94L709.82,130.82L710.98,142.38L715.63,157.52L716.79,150.59L717.95,156.56L719.11,162.18L722.6,161.4L723.76,165.25L724.92,165.76L727.24,197.77L730.73,201.63L731.89,204.2L733.05,193.37L734.21,190.3L735.38,204.06L738.86,214.06L740.02,202.79L741.18,198.51L742.35,185.45L743.51,194.44L746.99,191.14L748.15,194.01L749.32,201.48L750.48,209.17L751.64,204.67L756.29,229.28L757.45,215.51L758.61,211.2L763.26,210.34L764.42,195.54L765.58,205.35L766.74,206.98L767.9,191.82L772.55,179.22L773.71,180.37L774.87,173.08L776.04,180.61L779.52,179.57L780.68,192.87L781.85,197.33L783.01,195.32L784.17,206.75L787.65,213.39L789.98,186.08L791.14,186.74L792.3,192.2L795.79,197.18L796.95,205.12L798.11,188.4L799.27,191.74L800.43,209.85L803.92,197.2L805.08,198.14L807.4,188.85L808.56,187.57L812.05,185.33L813.21,194.73L815.54,222.57L816.7,262.27L821.34,333.45L822.51,282.4L823.67,262.38L824.83,265.73L828.31,274.97L829.48,302.99L831.8,278.66L832.96,298.93L837.61,272.85L838.77,295.3L839.93,293.05L841.09,283.79L844.58,285.53L845.74,272.61L846.9,265.66L848.06,268.52L849.23,289.52L852.71,284.03L853.87,295.37L855.03,297.36L857.36,284.81L860.84,292.44L862,287.84L863.17,276.32L864.33,287.78L865.49,271.46L868.97,256.7L870.14,258.59L872.46,230.69L873.62,232.43L877.11,230.82L878.27,237.18L879.43,266.38L880.59,258.03L881.75,255.68L885.24,260.72L886.4,267.1L887.56,266.14L888.72,220.9L889.89,216.18L893.37,226.75L894.53,236.15L895.69,220.44L896.86,218.76L898.02,219.35L901.5,212.41L902.67,206.13L903.83,204.82L904.99,209.4L906.15,221.56L909.64,236.57L910.8,236.63L911.96,244.27L913.12,264.06L914.28,281.02L917.77,252.93L918.93,243.58L920.09,224.8L921.25,215.6L922.41,219.78L925.9,214.32L927.06,210.13L928.22,212.97L930.55,209.05L934.03,213.32L935.19,205.24L937.52,228.38L938.68,202.83L942.16,200.74L943.33,213.62L944.49,225.22L945.65,217.71L946.81,231.67L950.3,214.09L952.62,188.39L953.78,208.82L954.94,226.32L958.43,217.25L960.75,185.33L961.91,191.87L966.56,195.01L967.72,178.9L968.88,185.68L970.05,201.52L974.69,210.97L975.85,190.95L977.02,195.96L978.18,208.76L979.34,225.05L982.82,217.83L983.99,208.39L985.15,227.18L986.31,203.18L987.47,224.38L992.12,217.2L993.28,254.05L994.44,237.5L995.6,206.04L999.09,207.54L1000.25,182.49L1001.41,194.27L1002.57,179.98L1003.74,151.91L1007.22,144.94L1008.38,163.24L1009.54,154.29L1010.71,156.93L1011.87,164.27L1015.35,151.16L1016.51,160.16L1018.84,177.56L1020,160.92" style="vector-effect: non-scaling-stroke; fill: none; stroke: rgb(171, 99, 250); stroke-opacity: 1; stroke-width: 2px; opacity: 1;"/></g><g class="points"/><g class="text"/></g><g class="trace scatter trace27e118" style="stroke-miterlimit: 2; opacity: 1;"><g class="fills"/><g class="errorbars"/><g class="lines"><path class="js-line" d="M0,254.22L1.16,239.43L2.32,238.52L3.49,251.21L6.97,246.53L9.29,260.3L10.46,255.76L11.62,265.74L15.1,276.36L16.26,273.57L17.43,279.85L18.59,286.69L19.75,284.46L23.23,289.04L24.4,293.01L25.56,294.74L26.72,277.99L27.88,274.34L31.37,272.66L32.53,281.64L33.69,263.74L36.01,272.02L39.5,278.79L40.66,266.71L41.82,263.24L42.98,261.06L44.15,262.54L47.63,257.03L48.79,248.82L49.95,254.96L51.12,252.56L52.28,251.96L55.76,241.16L56.92,246.51L58.09,233.2L59.25,236.4L60.41,233.56L63.9,227.22L65.06,226.74L66.22,225.1L67.38,219.9L68.54,215.91L72.03,211.31L73.19,207.86L74.35,215.24L76.67,208.06L80.16,204.79L81.32,209.55L82.48,206.82L84.81,205.71L88.29,216.84L89.45,210.65L90.62,218.17L91.78,224.91L92.94,209.62L96.42,213.88L97.59,225.35L98.75,229.66L99.91,241.76L101.07,247.22L104.56,238.55L105.72,250.58L106.88,230.42L108.04,236.38L109.2,231.44L112.69,226.9L113.85,223.14L116.17,213.41L117.33,212.99L120.82,214.01L121.98,211.52L125.47,223.57L128.95,225.91L130.11,211.55L131.28,223.45L132.44,227.65L133.6,222.72L137.08,227.51L138.25,220.29L140.57,217.39L141.73,227.35L146.38,231.7L147.54,242.85L148.7,245.6L149.86,254L153.35,252.78L154.51,258.57L155.67,273.51L156.83,275.52L158,280.14L161.48,302.12L162.64,301.83L163.8,297.71L164.97,294.59L166.13,280.2L169.61,278.55L170.77,264.64L171.94,268.68L173.1,260.08L174.26,251.16L178.91,259.74L180.07,263.95L181.23,256.4L182.39,263.09L185.88,265.75L187.04,264.56L188.2,260.56L190.52,252.7L194.01,259.22L195.17,251.24L196.33,264.77L198.66,260.81L202.14,262.01L203.3,252.92L204.46,251.04L205.63,260.41L206.79,261.16L210.27,252.12L211.44,251.22L212.6,260.95L213.76,248.45L214.92,251.45L218.41,242.79L219.57,228.77L220.73,231.93L221.89,229.96L223.05,222.56L226.54,213.61L227.7,214.84L228.86,216.14L230.02,216.09L231.18,213.65L234.67,208.38L236.99,190.63L238.15,196.55L239.32,196.89L242.8,189.03L245.13,177.66L246.29,180.3L250.93,175.4L252.1,178.39L255.58,170.82L259.07,155.72L260.23,147.08L261.39,145.98L262.55,146.8L263.71,150.1L267.2,146L268.36,152.66L269.52,145.41L270.68,149.34L271.85,141.42L275.33,143.15L276.49,137.84L277.65,140.76L278.82,155.07L279.98,147.02L283.46,150.65L284.62,158.26L285.79,149.81L286.95,152.6L288.11,152.14L292.76,152.94L293.92,159.84L295.08,149.37L296.24,144.32L299.73,143.42L300.89,147.4L302.05,141.14L303.21,137.15L304.37,140.65L307.86,144.58L309.02,144.47L311.34,156.5L312.51,150.23L315.99,144.18L317.15,147.76L319.48,137.19L320.64,138.38L324.12,134.18L325.28,140.59L326.45,140.65L327.61,144.57L332.26,150.67L333.42,137.22L335.74,134.3L340.39,132.77L341.55,132.11L342.71,122.08L343.87,121.74L345.03,126.41L348.52,119.54L349.68,123.76L350.84,120.05L352,131.74L353.17,119.28L356.65,121.78L358.97,133.51L360.14,132.43L361.3,134.57L364.78,131.9L365.95,134.38L367.11,142.95L368.27,170.19L369.43,173.18L372.92,169.9L374.08,183.08L375.24,177.27L376.4,184.32L377.56,175.69L381.05,174.6L382.21,171.76L383.37,164.48L384.53,158.98L385.69,158.32L389.18,151.54L390.34,146.32L391.5,144.38L392.67,139.75L393.83,141.81L397.31,136.78L399.64,129.19L400.8,129.54L401.96,128.39L406.61,136.99L407.77,135.17L408.93,137.09L410.09,128.8L413.58,137.48L414.74,141.53L415.9,134.65L417.06,137.66L418.22,147.26L421.71,143.77L422.87,135.66L424.03,137.83L425.19,134.35L426.36,123.37L429.84,124.85L431,134.77L432.16,121.17L433.33,139.46L434.49,129.7L437.97,128.58L439.13,131.11L440.3,141.57L441.46,142.21L442.62,129.25L446.1,125.74L447.27,136.85L448.43,115.55L449.59,132.67L450.75,132.41L454.24,149.04L455.4,149.98L457.72,185.95L458.88,176.78L462.37,182.38L463.53,187.24L464.69,186.41L465.85,180.34L467.02,173.66L470.5,170.72L473.99,158.14L475.15,147.54L478.63,150.24L479.79,142.29L480.96,140.49L482.12,140.17L483.28,129.18L486.77,127.28L487.93,125.13L489.09,125.43L490.25,106.48L491.41,103.57L496.06,99.78L497.22,92.4L498.38,90.79L499.54,86.49L503.03,87.44L504.19,93.6L507.68,77.3L511.16,83.13L512.32,83.47L513.49,87L515.81,93.56L519.29,110.24L521.62,152.37L522.78,147.07L523.94,167.79L527.43,175.2L528.59,177.82L529.75,147.63L530.91,120.1L532.07,122.57L536.72,105.77L537.88,109.03L540.21,102.92L543.69,106.53L544.85,110.21L546.01,122.99L548.34,120.51L551.82,129.17L552.98,119.79L554.15,99.38L555.31,72.11L556.47,83.21L561.12,93.44L562.28,106.67L563.44,109.52L564.6,90.46L569.25,94.75L570.41,100.9L571.57,76.18L572.73,92.78L576.22,88.59L577.38,110L578.54,117.75L579.7,91.69L580.87,118.81L584.35,101.13L585.51,84.41L586.67,92.73L587.84,89.15L589,92.93L592.48,109.12L593.64,91.2L594.81,92.53L595.97,85.42L597.13,77.34L601.78,81.96L602.94,84.9L604.1,95.09L605.26,93L608.75,97.84L609.91,90.85L611.07,96.23L613.39,88.55L616.88,88.23L618.04,91.3L619.2,99.28L620.36,98.55L621.53,121.35L625.01,117.28L626.17,136.44L627.33,148.54L628.5,137.62L629.66,143.15L633.14,123.19L634.31,129.21L635.47,113.14L636.63,123.09L637.79,107.03L641.28,99.12L642.44,103.91L643.6,122.09L644.76,123.25L645.92,127.3L649.41,103.72L651.73,134.96L652.89,131.72L658.7,119.82L659.86,121.37L661.03,126.47L662.19,137.57L665.67,138.66L666.83,135.97L668,131.87L669.16,139.12L670.32,158.21L673.8,136.24L674.97,147.23L676.13,136.27L678.45,123.4L681.94,131.06L683.1,118.86L684.26,128.06L685.42,139.83L686.58,124.58L690.07,126.14L691.23,134.78L692.39,139.02L693.55,135.97L694.72,118.64L698.2,132.32L699.36,132.73L700.52,136.01L702.85,119.28L706.33,118.49L708.66,128.68L709.82,131.57L710.98,143.4L715.63,158.52L716.79,151.57L717.95,157.6L719.11,163.15L722.6,162.48L723.76,166.48L724.92,167.13L727.24,199.37L730.73,203.28L731.89,205.69L733.05,194.8L734.21,191.61L735.38,205.36L738.86,215.08L740.02,203.62L741.18,199.2L742.35,186.1L743.51,195.2L746.99,191.95L748.15,194.94L749.32,202.51L750.48,209.9L751.64,205.72L756.29,230.58L757.45,216.67L758.61,212.23L763.26,211.53L764.42,196.77L765.58,206.56L766.74,208.31L767.9,193.11L772.55,180.36L773.71,181.4L774.87,174.01L776.04,181.99L779.52,181.36L780.68,194.15L781.85,198.46L783.01,196.19L784.17,207.66L787.65,214.33L789.98,187.28L791.14,188.18L792.3,193.18L795.79,197.92L796.95,205.86L798.11,188.44L799.27,191.69L800.43,209.8L803.92,197.01L805.08,197.79L807.4,188.67L808.56,187.25L812.05,185.09L813.21,194.2L815.54,221.97L816.7,261.68L821.34,333.04L822.51,282.12L823.67,262.3L824.83,265.48L828.31,274.6L829.48,302.39L831.8,278.4L832.96,298.75L837.61,272.65L838.77,294.83L839.93,292.63L841.09,283.68L844.58,285.27L845.74,272.14L846.9,265.14L848.06,267.91L849.23,288.89L852.71,283.43L853.87,294.65L855.03,296.9L857.36,285.51L860.84,292.89L862,288.19L863.17,276.7L864.33,288.44L865.49,272.36L868.97,257.37L870.14,259.29L872.46,231.24L873.62,233.13L877.11,231.34L878.27,237.64L879.43,266.47L880.59,258.22L881.75,255.93L885.24,260.74L886.4,266.93L887.56,265.84L888.72,220.96L889.89,216.26L893.37,226.75L894.53,235.96L895.69,220.5L896.86,218.69L898.02,218.89L901.5,212.56L902.67,206.54L903.83,205.06L904.99,209.56L906.15,222.18L909.64,237.31L910.8,237.14L911.96,244.87L913.12,265.13L914.28,281.62L917.77,253.64L918.93,244.01L920.09,225.09L921.25,215.72L922.41,219.6L925.9,213.96L927.06,209.92L928.22,213.12L930.55,209.02L934.03,213.17L935.19,204.94L937.52,228.09L938.68,202.4L942.16,200.36L943.33,213.46L944.49,224.86L945.65,217.42L946.81,231.18L950.3,214.04L952.62,186.87L953.78,207.6L954.94,225.57L958.43,216.49L960.75,183.94L961.91,190.44L966.56,193.59L967.72,177.38L968.88,184.21L970.05,200.18L974.69,209.94L975.85,190.09L977.02,194.94L978.18,208.27L979.34,224.77L982.82,217.83L983.99,208.1L985.15,226.96L986.31,203.25L987.47,224.91L992.12,217.35L993.28,254.24L994.44,238.02L995.6,206.79L999.09,208.43L1000.25,183.29L1001.41,195.4L1002.57,181.02L1003.74,152.79L1007.22,145.24L1008.38,163.78L1009.54,154.78L1010.71,156.81L1011.87,164.39L1015.35,151.42L1016.51,160.65L1018.84,178.63L1020,161.96" style="vector-effect: non-scaling-stroke; fill: none; stroke: rgb(255, 161, 90); stroke-opacity: 1; stroke-width: 2px; opacity: 1;"/></g><g class="points"/><g class="text"/></g><g class="trace scatter trace27be40" style="stroke-miterlimit: 2; opacity: 1;"><g class="fills"/><g class="errorbars"/><g class="lines"><path class="js-line" d="M0,254.22L1.16,240.14L2.32,241.55L3.49,253.9L6.97,246.4L8.13,250.29L9.29,261.53L10.46,257.22L11.62,262.21L15.1,272.7L16.26,268.99L18.59,281.6L19.75,279.8L23.23,284.92L24.4,289.62L25.56,290.5L26.72,271.23L27.88,266.63L31.37,262.51L32.53,271.72L33.69,254.63L34.85,250.93L36.01,250.24L39.5,255.25L40.66,243.11L41.82,242.43L42.98,239.61L44.15,242.99L47.63,235.52L48.79,225.74L49.95,231.55L51.12,230.97L52.28,225.61L55.76,216.39L56.92,219.66L58.09,208.59L59.25,213.19L60.41,208.5L63.9,204.79L65.06,203.53L66.22,198.99L67.38,197.58L68.54,193.6L73.19,191.28L74.35,195.14L75.51,194.11L76.67,186.42L80.16,182.73L81.32,186.29L82.48,185.92L84.81,186.57L88.29,197.91L89.45,192.99L91.78,207.12L92.94,190.57L96.42,195.05L97.59,207.21L101.07,236.32L104.56,229.68L105.72,241.03L106.88,220.85L108.04,227.62L109.2,225.12L112.69,221.3L113.85,218.07L116.17,209.04L117.33,207.72L120.82,208.17L121.98,207.53L125.47,219.89L128.95,221.99L130.11,207L131.28,216.76L132.44,218.77L133.6,218.23L137.08,225.22L138.25,218.35L139.41,214.64L140.57,214.69L141.73,225.48L146.38,230.08L148.7,240.81L149.86,254.22L153.35,254.18L154.51,255.82L155.67,270.54L156.83,267.5L158,273.13L161.48,294.36L163.8,288.7L164.97,283.22L166.13,268.06L169.61,266.33L170.77,252.25L171.94,257L174.26,240.12L178.91,248.04L180.07,251.94L181.23,247.32L182.39,252L185.88,251.47L187.04,250.52L188.2,247.51L190.52,240.26L194.01,248.21L195.17,236.3L196.33,248.2L198.66,244.86L202.14,246.65L203.3,236.03L204.46,235.37L205.63,247.62L206.79,249.49L211.44,237.73L212.6,248.35L213.76,239.36L214.92,240.87L218.41,235.54L219.57,222.37L220.73,223.39L221.89,220.49L223.05,215.14L226.54,206.47L227.7,207.53L228.86,206.41L231.18,204.32L234.67,205.72L236.99,189.96L238.15,198.07L239.32,201L242.8,193.02L245.13,184.47L246.29,183.41L250.93,177.76L252.1,180.06L253.26,180.03L254.42,178.53L255.58,173.9L259.07,153.56L260.23,150.66L261.39,152.49L262.55,154.27L263.71,158.56L267.2,157.87L268.36,166.29L269.52,157.03L270.68,158.09L271.85,151.62L275.33,152.44L276.49,149.34L277.65,153.85L278.82,161.96L279.98,154.24L283.46,157.93L284.62,166.99L285.79,157.51L286.95,157.56L292.76,158.34L293.92,164.59L296.24,151.25L299.73,149.39L300.89,155.24L302.05,149.99L303.21,146.44L304.37,151.17L309.02,153.15L310.18,158.55L311.34,166.16L312.51,164.56L315.99,161.02L317.15,165.05L319.48,153.22L320.64,152.93L324.12,153.72L325.28,159.91L326.45,156.75L327.61,161.6L328.77,160.23L332.26,165.9L333.42,152.82L334.58,149.72L335.74,147.06L340.39,144.27L341.55,145.44L342.71,135.77L345.03,140.34L348.52,134.78L349.68,139.81L350.84,141.14L352,154.35L353.17,143L356.65,151.28L357.81,158.38L358.97,162.99L360.14,161.63L361.3,164.3L364.78,162.29L367.11,173.04L368.27,200.34L369.43,198.24L372.92,197.57L374.08,207.44L375.24,201.04L376.4,208.84L377.56,199.65L381.05,198.86L382.21,199.48L384.53,188.28L385.69,190.91L392.67,170.5L393.83,172.42L397.31,168.95L398.47,165.75L399.64,162.06L400.8,162.9L401.96,163.16L406.61,169.36L407.77,167.81L408.93,168.2L410.09,159.2L413.58,168.73L414.74,173.05L415.9,165.01L417.06,166.75L418.22,174.4L421.71,169.62L422.87,162.19L424.03,162.5L425.19,158.41L426.36,149.11L429.84,153.01L431,162.12L432.16,149.16L433.33,166.9L434.49,154.07L437.97,153.63L439.13,155.85L440.3,167.91L441.46,168.01L442.62,156.63L446.1,157.79L447.27,170.51L448.43,150.19L449.59,166.61L450.75,165.06L454.24,182.7L455.4,183.58L457.72,208.46L458.88,197.81L462.37,196.77L463.53,194.29L464.69,192.73L465.85,186.83L467.02,177.64L470.5,171.07L475.15,149.7L478.63,151.56L479.79,139.99L480.96,137.39L482.12,136.25L483.28,128.38L489.09,120.46L490.25,104.93L494.9,101.34L496.06,97.41L497.22,92.08L498.38,93.27L499.54,89.7L503.03,92.33L504.19,93.75L505.35,86.69L507.68,73.19L511.16,82.21L512.32,82.61L513.49,83.87L515.81,90.22L519.29,104.19L521.62,135.93L522.78,130.55L523.94,147.8L527.43,155.71L528.59,158.58L529.75,131.47L530.91,101.79L532.07,106.19L535.56,93.14L536.72,94.08L537.88,97.27L540.21,90.03L543.69,93.82L544.85,97.72L546.01,111.53L548.34,112.48L551.82,122.15L552.98,114.83L555.31,69.25L556.47,80.21L561.12,86.08L562.28,97.9L563.44,100.39L564.6,84.26L569.25,85.1L570.41,89.54L571.57,68.09L572.73,83.09L576.22,77.93L577.38,96.71L578.54,105.95L579.7,84.57L580.87,111.52L584.35,95.53L585.51,79.36L586.67,85.32L587.84,76.23L589,80.96L592.48,95.53L593.64,76.81L594.81,78.27L595.97,70.48L597.13,64.3L601.78,69.58L602.94,67.92L604.1,78.64L605.26,74.55L608.75,74.7L611.07,67.87L612.23,60.39L613.39,60.83L616.88,55.97L619.2,70.33L620.36,68.44L621.53,91.93L625.01,85.04L627.33,116.9L628.5,100.94L629.66,106.86L633.14,84.75L634.31,92.79L635.47,78.14L636.63,86.48L637.79,72.55L641.28,61.27L642.44,68.28L643.6,87.33L644.76,90.76L645.92,95.02L649.41,72.02L651.73,102.73L652.89,99.54L657.54,91.39L658.7,92.15L659.86,89.94L661.03,90.26L662.19,86.47L665.67,92.76L666.83,91.83L668,94.64L669.16,99.96L670.32,117.65L673.8,101.07L674.97,109.37L677.29,95.78L678.45,89.48L681.94,100.81L683.1,94.83L685.42,116.79L686.58,101.36L690.07,102.64L691.23,112.27L692.39,114.75L693.55,110.21L694.72,93.3L698.2,106.45L699.36,105.28L700.52,109.69L702.85,91.5L706.33,89.9L709.82,98.63L710.98,109.25L715.63,123.26L716.79,118.68L719.11,131.37L722.6,131.15L723.76,133.94L724.92,132.95L727.24,162.5L730.73,165.24L731.89,165.89L733.05,155.54L734.21,151.7L735.38,164.28L738.86,174.76L740.02,164.63L741.18,160.59L742.35,146.56L743.51,153.67L746.99,151.31L748.15,153.02L749.32,161.16L750.48,168.57L751.64,160.55L756.29,185.01L757.45,170.72L758.61,168.54L763.26,168.49L764.42,151.92L765.58,163.5L766.74,163.4L767.9,147.92L772.55,134.15L773.71,133.64L774.87,128.13L776.04,133.87L779.52,132.52L780.68,146.28L781.85,151.44L783.01,150.81L784.17,162.58L787.65,167.59L789.98,139.92L791.14,143.42L795.79,150.38L796.95,158.52L798.11,142.84L799.27,148.94L800.43,162.98L803.92,150.21L805.08,152.15L806.24,147.46L808.56,142.12L812.05,137.82L814.37,158.75L815.54,174.34L816.7,213.85L820.18,264.65L821.34,287.31L822.51,236.97L823.67,213.77L824.83,222.04L828.31,234.36L829.48,263L830.64,241.93L831.8,238.86L832.96,258.58L837.61,228.06L838.77,251.92L839.93,248.44L841.09,236.43L844.58,239.1L846.9,217.06L848.06,219.61L849.23,237.84L852.71,233.05L853.87,242.8L855.03,242.64L857.36,233.07L860.84,243.69L862,237.63L863.17,226.94L864.33,235.67L865.49,218.44L868.97,201.75L870.14,205.79L872.46,180.53L873.62,178.09L877.11,174.16L878.27,179.9L879.43,209.68L880.59,198.29L881.75,192.01L885.24,195L886.4,199.54L887.56,200.1L888.72,162.34L889.89,154.6L894.53,166.86L895.69,156.25L896.86,154.68L898.02,160.74L902.67,146.82L903.83,148.9L904.99,150.63L906.15,162.9L909.64,175.57L910.8,174.41L911.96,179.52L913.12,197.72L914.28,218.14L917.77,193.01L918.93,186.04L920.09,167.83L921.25,167.55L922.41,166.02L925.9,164.9L927.06,160L930.55,156.03L934.03,163.73L935.19,154.17L936.36,165.35L937.52,174.61L938.68,148.82L942.16,144.05L943.33,155.04L944.49,168.54L945.65,161.12L946.81,172.02L950.3,155.79L952.62,131.26L953.78,148.86L954.94,164.61L958.43,154.6L960.75,127.98L961.91,133.62L966.56,136.04L967.72,119.78L968.88,126.28L970.05,141.77L974.69,151.73L975.85,132.32L977.02,139.35L978.18,152.07L979.34,170.97L982.82,162.84L983.99,156.06L985.15,176.27L986.31,153.35L987.47,172.15L992.12,160.22L993.28,188.02L995.6,147.86L999.09,147.59L1000.25,121.09L1001.41,129.09L1002.57,117.67L1003.74,90.14L1007.22,84.8L1008.38,101.23L1009.54,96.02L1010.71,101.93L1011.87,116.51L1015.35,105.83L1016.51,109.4L1017.68,109.89L1018.84,117.93L1020,104.62" style="vector-effect: non-scaling-stroke; fill: none; stroke: rgb(25, 211, 243); stroke-opacity: 1; stroke-width: 2px; opacity: 1;"/></g><g class="points"/><g class="text"/></g><g class="trace scatter tracec2b716" style="stroke-miterlimit: 2; opacity: 1;"><g class="fills"/><g class="errorbars"/><g class="lines"><path class="js-line" d="M0,254.22L1.16,240.75L2.32,242.63L3.49,254.83L6.97,247.41L8.13,252.23L9.29,263.38L10.46,258.42L11.62,263.67L15.1,274.32L16.26,270.19L18.59,282.63L19.75,280.44L23.23,286.05L24.4,290.91L25.56,290.73L26.72,271.75L27.88,266.67L31.37,261.91L32.53,270.98L33.69,253.35L34.85,251.4L36.01,251.97L39.5,257.57L40.66,244.52L41.82,244.38L42.98,242.16L44.15,244.53L47.63,236.49L48.79,226.62L49.95,232.88L51.12,232.1L52.28,226.62L55.76,216.7L56.92,220.9L58.09,209.53L59.25,213.41L60.41,208.58L63.9,204.36L65.06,203.79L66.22,200.1L68.54,192.84L72.03,190.53L73.19,189.62L74.35,192.76L75.51,191.65L76.67,184.56L80.16,180.35L81.32,184.59L82.48,183.3L84.81,183.15L88.29,196.09L89.45,190.57L91.78,204.33L92.94,188.56L96.42,192.96L97.59,205.24L101.07,234.84L104.56,226.82L105.72,238.63L106.88,217.28L108.04,224.24L109.2,221.11L112.69,216.79L113.85,213.76L116.17,204.78L117.33,203.39L120.82,204.25L121.98,203.11L125.47,215.75L128.95,217.61L130.11,202.12L131.28,212.08L132.44,214.32L133.6,213.45L137.08,222.04L138.25,214.78L139.41,210.07L140.57,209.9L141.73,219.24L146.38,224.09L149.86,250.2L153.35,251.01L154.51,253.6L155.67,267.31L156.83,265.45L158,270.4L161.48,292.12L162.64,288.59L163.8,285.38L164.97,279.85L166.13,264.65L169.61,262.62L170.77,248.45L171.94,252.58L174.26,234.67L178.91,243.16L180.07,246.96L181.23,242.1L182.39,246.77L185.88,246.19L187.04,246.05L188.2,243.82L190.52,235.47L194.01,243.49L195.17,231.62L196.33,243.71L198.66,239.58L202.14,241.17L203.3,230.49L204.46,229.75L205.63,241.51L206.79,244.24L211.44,231.35L212.6,241.84L213.76,231L214.92,231.31L218.41,225.04L219.57,210.85L220.73,212.96L221.89,209.89L223.05,203.99L226.54,195.73L227.7,197.23L228.86,196.94L231.18,194.97L234.67,195.21L236.99,179.63L238.15,187.82L239.32,190.79L242.8,183.32L245.13,174.26L246.29,176.3L250.93,170.23L252.1,173.08L253.26,173.34L254.42,171.46L255.58,165.64L259.07,144.16L260.23,141.94L261.39,143.25L262.55,145.73L263.71,150.22L267.2,149.42L268.36,157.31L269.52,146.69L270.68,148.24L271.85,141.81L275.33,142.58L276.49,139.02L277.65,144.12L278.82,154.09L279.98,146.72L283.46,149.84L284.62,159.59L285.79,149.87L286.95,150.39L288.11,150.84L292.76,151.32L293.92,158.49L295.08,149.94L296.24,144.9L299.73,143.35L300.89,148.67L302.05,143.22L303.21,138.62L304.37,143.02L307.86,144.08L309.02,145.25L311.34,157.85L312.51,156.33L315.99,152.85L317.15,157.05L319.48,145.28L320.64,144.14L324.12,144.36L325.28,150.91L326.45,147.84L327.61,152.5L328.77,150.95L332.26,156.66L333.42,142.88L334.58,139.68L335.74,137.65L340.39,134.3L341.55,134.98L342.71,125.57L343.87,127.12L345.03,130.67L348.52,124.28L349.68,130.21L350.84,131.05L352,144.17L353.17,132.55L356.65,140.56L358.97,151.31L360.14,150.18L361.3,152.62L364.78,149.78L367.11,162.38L368.27,190.7L369.43,189.68L372.92,188.49L374.08,198.71L375.24,192.26L376.4,201.07L377.56,191.93L382.21,191.67L383.37,185.49L384.53,180.19L385.69,182.21L390.34,168.7L391.5,167.71L392.67,163.29L393.83,165.36L397.31,161.48L398.47,157.64L399.64,154.68L400.8,155.41L401.96,155.23L406.61,160.76L407.77,159.19L408.93,160.35L410.09,151.99L413.58,161.83L414.74,165.07L415.9,156.68L417.06,158.15L418.22,165.93L421.71,161.64L422.87,154.21L424.03,154.66L425.19,150.05L426.36,140.85L429.84,144.17L431,153.21L432.16,140.81L433.33,159.84L434.49,148.09L437.97,148.22L439.13,150.24L440.3,162.39L441.46,163.12L442.62,152.02L446.1,151.91L447.27,164.79L448.43,142.84L449.59,159.95L450.75,158.18L454.24,174.9L455.4,176.68L457.72,202.28L458.88,191.29L463.53,194.38L464.69,192.83L467.02,176.26L470.5,169.65L475.15,147.67L478.63,149.08L479.79,138.35L480.96,135.67L482.12,135.37L483.28,127.37L487.93,120.92L489.09,119.94L490.25,105.48L491.41,104.78L494.9,102.3L496.06,98.67L497.22,93.65L498.38,95.61L499.54,92.27L503.03,95.03L504.19,96.93L505.35,90.24L507.68,77.07L511.16,85.53L512.32,84.75L513.49,86.51L515.81,92.59L519.29,106.89L521.62,138.89L522.78,133.56L523.94,152.33L527.43,160.72L528.59,164.24L529.75,136.98L530.91,105.86L532.07,110.86L535.56,97.72L536.72,98.58L537.88,102.05L540.21,95.17L543.69,99.51L544.85,103.2L546.01,116.75L548.34,116.49L551.82,127.12L552.98,121.52L555.31,76.55L556.47,87.3L561.12,94.57L562.28,106.61L563.44,109.98L564.6,94.1L569.25,95.2L570.41,100.22L571.57,79.37L572.73,94.86L576.22,90.18L577.38,109.56L578.54,118.43L579.7,97.9L580.87,124.58L584.35,108.12L585.51,91.83L586.67,98.33L587.84,89.93L589,94.6L592.48,108.77L593.64,90.07L594.81,91.02L595.97,88L597.13,82.11L601.78,86.22L602.94,85.15L604.1,95.01L605.26,91.38L608.75,90.69L611.07,85.22L612.23,77.38L613.39,77.27L616.88,74.42L619.2,88.6L620.36,86.62L621.53,110.33L625.01,103.61L627.33,135.82L628.5,119.62L629.66,126.06L633.14,103.91L634.31,111.55L635.47,96.1L636.63,104.4L637.79,91.21L641.28,79.18L642.44,86.32L643.6,105.24L644.76,107.95L645.92,113.85L649.41,90.75L651.73,120.36L652.89,117.13L657.54,108.31L658.7,109.12L661.03,108.08L662.19,107.44L665.67,112.56L666.83,111.51L668,113.4L669.16,118.49L670.32,136.83L673.8,119.09L674.97,127.22L676.13,116.71L677.29,113.46L678.45,106.39L681.94,116.66L683.1,110.59L685.42,131.47L686.58,116.13L690.07,116.63L691.23,125.92L692.39,129.11L693.55,124.77L694.72,108.62L698.2,121.03L699.36,120.37L700.52,123.32L701.69,109.77L702.85,105.55L706.33,104.29L707.49,105.4L709.82,111.65L710.98,122.34L715.63,136.32L716.79,131.52L719.11,145.29L722.6,144.88L723.76,147.7L724.92,146.99L727.24,175.52L730.73,178.02L731.89,178.21L733.05,167.91L734.21,164.27L735.38,177.14L738.86,187.49L740.02,177.27L741.18,173.44L742.35,159.7L743.51,167.1L746.99,164.66L748.15,166.07L749.32,173.91L750.48,181.37L751.64,174.05L756.29,197.84L757.45,183.93L758.61,181.76L763.26,181.42L764.42,166.24L765.58,177.79L766.74,177.63L767.9,162L772.55,148.58L773.71,147.98L774.87,141.58L776.04,146.85L779.52,144.74L780.68,160.17L781.85,166.85L783.01,167.49L784.17,179.3L787.65,184.91L789.98,158.37L791.14,161.21L795.79,169.09L796.95,177.54L798.11,161.86L799.27,167.75L800.43,179.72L803.92,166.67L805.08,168.98L806.24,164.47L812.05,156.16L813.21,165.14L815.54,191.25L816.7,229.69L821.34,300.28L822.51,250.38L823.67,228.96L824.83,237.82L828.31,248.96L829.48,278.14L830.64,257.77L831.8,254.9L832.96,274.41L837.61,245.02L838.77,268.56L839.93,265.03L841.09,253.58L844.58,255.89L846.9,234.64L848.06,237.21L849.23,255.42L852.71,250.17L853.87,259.96L855.03,260.18L857.36,251.91L860.84,261.06L863.17,245.65L864.33,254.98L865.49,238.31L868.97,222.29L870.14,227.33L871.3,215.53L872.46,203.52L873.62,200.85L877.11,197.72L878.27,203.43L879.43,231.32L880.59,220.91L881.75,216.07L885.24,220.39L886.4,226.62L887.56,227.86L888.72,192.43L889.89,183.18L893.37,191.8L894.53,197.46L895.69,185.57L896.86,183.46L898.02,189.45L901.5,178.14L902.67,175.41L903.83,177.59L904.99,179.61L906.15,191.46L909.64,205.19L910.8,204.68L911.96,209.34L913.12,228.12L914.28,246.52L917.77,221.2L918.93,216.83L920.09,198.46L922.41,197.26L925.9,196.18L927.06,191.28L928.22,190.17L930.55,187.23L934.03,193.79L935.19,185.18L936.36,196.24L937.52,204.79L938.68,179.99L942.16,176.3L943.33,187.64L944.49,201.29L945.65,194.07L946.81,204.83L950.3,188.59L952.62,165.99L953.78,183.36L954.94,199.13L958.43,189.87L960.75,162.96L961.91,168.04L966.56,171.2L967.72,155.57L968.88,161.67L970.05,177.27L974.69,187.62L975.85,169.64L977.02,176.11L978.18,187.93L979.34,205L982.82,198.51L983.99,191.76L985.15,209.39L986.31,185.9L987.47,203.17L992.12,192.95L993.28,220.1L995.6,185.78L999.09,186.13L1000.25,158.95L1001.41,165.88L1002.57,154.36L1003.74,128.02L1007.22,123.21L1008.38,139.49L1009.54,132.37L1010.71,135.75L1011.87,147.4L1015.35,134.88L1017.68,142.51L1018.84,151.45L1020,137.32" style="vector-effect: non-scaling-stroke; fill: none; stroke: rgb(255, 102, 146); stroke-opacity: 1; stroke-width: 2px; opacity: 1;"/></g><g class="points"/><g class="text"/></g><g class="trace scatter trace3f733c" style="stroke-miterlimit: 2; opacity: 1;"><g class="fills"/><g class="errorbars"/><g class="lines"><path class="js-line" d="M0,254.22L1.16,240.85L2.32,242.88L3.49,254.92L6.97,247.55L8.13,252.58L9.29,263.69L10.46,258.7L11.62,264.07L15.1,274.77L16.26,270.55L18.59,282.87L19.75,280.58L23.23,286.21L24.4,291.1L25.56,290.82L26.72,271.85L27.88,266.68L31.37,261.96L32.53,271.04L33.69,253.34L34.85,251.57L36.01,252.1L39.5,257.66L40.66,244.47L41.82,244.29L42.98,242L44.15,244.52L47.63,236.46L48.79,226.63L49.95,232.9L51.12,232.23L52.28,226.73L55.76,216.87L56.92,221.11L58.09,209.8L59.25,213.8L60.41,208.78L63.9,204.5L65.06,203.89L66.22,200.27L68.54,192.97L72.03,190.59L73.19,189.64L74.35,192.82L75.51,191.72L76.67,184.68L80.16,180.56L81.32,184.74L82.48,183.51L84.81,183.38L88.29,196.21L89.45,190.68L91.78,204.45L92.94,188.78L96.42,193.11L97.59,205.3L101.07,234.57L104.56,226.54L105.72,238.25L106.88,216.9L108.04,223.83L109.2,220.84L112.69,216.38L113.85,213.37L116.17,204.42L117.33,203.07L120.82,203.94L121.98,202.83L125.47,215.31L128.95,217.03L130.11,201.47L131.28,211.41L132.44,213.7L133.6,212.85L137.08,221.47L138.25,214.17L139.41,209.45L140.57,209.35L141.73,218.57L146.38,223.42L149.86,249.56L153.35,250.57L154.51,253.28L155.67,267.02L156.83,265.25L158,270.26L161.48,292.03L162.64,288.43L164.97,279.35L166.13,264.16L169.61,262.22L170.77,247.96L171.94,252.07L173.1,244.66L174.26,234.16L178.91,242.59L180.07,246.44L181.23,241.56L182.39,246.28L185.88,245.75L187.04,245.72L188.2,243.56L190.52,235.19L194.01,243.32L195.17,231.34L196.33,243.4L198.66,239.24L202.14,240.81L203.3,230.26L204.46,229.46L205.63,241.12L206.79,243.91L211.44,230.98L212.6,241.5L213.76,230.62L214.92,230.95L218.41,224.56L219.57,210.39L220.73,212.62L221.89,209.53L223.05,203.76L226.54,195.42L227.7,196.79L228.86,196.57L231.18,194.72L234.67,194.93L236.99,179.38L238.15,187.73L239.32,190.85L242.8,183.33L245.13,174.44L246.29,176.38L250.93,170.33L252.1,173.19L253.26,173.5L254.42,171.58L255.58,166.01L259.07,144.61L260.23,142.32L261.39,143.53L262.55,145.88L263.71,150.39L267.2,149.45L268.36,157.28L269.52,146.7L270.68,148.14L271.85,141.72L275.33,142.58L276.49,139.16L277.65,144.27L278.82,154.26L279.98,146.87L283.46,149.92L284.62,159.59L285.79,149.87L286.95,150.35L288.11,150.71L292.76,151.24L293.92,158.36L295.08,149.82L296.24,144.79L299.73,143.35L300.89,148.65L302.05,143.24L303.21,138.64L304.37,143.03L307.86,144.05L309.02,145.19L311.34,157.89L312.51,156.43L315.99,152.97L317.15,157.17L319.48,145.44L320.64,144.35L324.12,144.52L325.28,151.12L326.45,148.07L327.61,152.67L328.77,151.13L332.26,156.77L333.42,142.93L334.58,139.7L335.74,137.63L340.39,134.2L341.55,134.89L342.71,125.34L343.87,126.91L345.03,130.47L348.52,124.05L349.68,129.93L350.84,130.79L352,143.98L353.17,132.33L356.65,140.25L358.97,150.3L360.14,149.1L361.3,151.65L364.78,148.65L367.11,161.04L368.27,189.44L369.43,188.41L372.92,187.16L374.08,197.4L375.24,190.91L376.4,199.85L377.56,190.67L382.21,190.37L383.37,184.23L384.53,178.97L385.69,181.08L390.34,167.62L391.5,166.66L392.67,162.21L393.83,164.22L397.31,160.34L398.47,156.48L399.64,153.54L400.8,154.33L401.96,154.15L406.61,159.59L407.77,158.06L408.93,159.27L410.09,150.89L413.58,160.72L414.74,164.07L415.9,155.64L417.06,157.09L418.22,164.77L421.71,160.49L422.87,153.04L424.03,153.49L425.19,148.91L426.36,139.69L429.84,142.99L431,151.95L432.16,139.55L433.33,158.68L434.49,147.01L437.97,147.19L439.13,149.19L440.3,161.43L441.46,162.19L442.62,151L446.1,150.9L447.27,163.82L448.43,141.86L449.59,159.09L450.75,157.34L454.24,174.07L455.4,175.94L457.72,201.64L458.88,190.6L463.53,193.25L464.69,191.79L467.02,175.36L470.5,168.74L475.15,146.41L478.63,147.77L479.79,137.19L480.96,134.47L482.12,134.15L483.28,126.21L487.93,119.82L489.09,118.94L490.25,104.44L491.41,103.62L494.9,101.18L496.06,97.67L497.22,92.68L498.38,94.76L499.54,91.42L503.03,94.01L504.19,96.02L505.35,89.35L507.68,76.18L511.16,84.66L512.32,83.71L513.49,85.47L515.81,91.52L519.29,105.86L521.62,138.08L522.78,132.65L523.94,151.46L527.43,159.86L528.59,163.39L529.75,136.09L530.91,105.03L532.07,109.87L535.56,96.71L536.72,97.51L537.88,100.95L540.21,94.06L543.69,98.36L544.85,102.06L546.01,115.6L548.34,115.3L551.82,126.08L552.98,120.55L555.31,75.76L556.47,86.48L561.12,93.64L562.28,105.82L563.44,109.33L564.6,93.48L569.25,94.74L570.41,99.72L571.57,78.78L572.73,94.32L576.22,89.62L577.38,109.02L578.54,117.81L579.7,97.15L580.87,123.71L584.35,107.22L585.51,90.79L586.67,96.98L587.84,88.57L589,93.19L592.48,107.34L593.64,88.82L594.81,89.74L595.97,86.36L597.13,80.4L601.78,84.45L602.94,83.52L604.1,93.45L605.26,89.78L608.75,89.06L611.07,83.69L612.23,75.95L613.39,75.88L616.88,72.94L619.2,87.01L620.36,85.07L621.53,108.82L625.01,102.1L627.33,134.39L628.5,118.09L629.66,124.47L633.14,102.26L634.31,109.99L635.47,94.48L636.63,102.78L637.79,89.57L641.28,77.6L642.44,84.85L643.6,103.85L644.76,106.45L645.92,112.36L649.41,89.24L651.73,118.8L652.89,115.56L657.54,106.84L658.7,107.49L659.86,106.43L661.03,106.38L662.19,105.84L665.67,110.91L666.83,109.77L668,111.53L669.16,116.71L670.32,134.91L673.8,117.13L674.97,125.1L676.13,114.54L677.29,111.35L678.45,104.46L681.94,114.58L683.1,108.57L684.26,118.33L685.42,129.38L686.58,114.04L690.07,114.48L691.23,123.76L692.39,126.97L693.55,122.71L694.72,106.45L698.2,118.93L699.36,118.21L700.52,121.23L701.69,107.69L702.85,103.41L706.33,102.07L707.49,103.3L709.82,109.58L710.98,120.26L715.63,134.3L716.79,129.43L719.11,143.25L722.6,142.74L723.76,145.59L724.92,144.91L727.24,173.36L730.73,175.86L731.89,176.03L733.05,165.67L734.21,162.07L735.38,174.97L738.86,185.22L740.02,174.91L741.18,171.12L742.35,157.36L743.51,164.73L746.99,162.29L748.15,163.65L749.32,171.46L750.48,178.82L751.64,171.51L756.29,195.29L757.45,181.33L758.61,179.09L763.26,178.67L764.42,163.56L765.58,175.19L766.74,175.15L767.9,159.46L772.55,146.02L773.71,145.37L774.87,138.94L776.04,144.21L779.52,141.97L780.68,157.38L781.85,163.96L783.01,164.58L784.17,176.2L787.65,181.99L789.98,155.35L791.14,158.43L795.79,166.64L796.95,175.21L798.11,159.91L799.27,165.81L800.43,177.96L803.92,164.74L805.08,167.24L806.24,162.75L812.05,154.54L813.21,163.75L815.54,190L816.7,228.49L821.34,299.1L822.51,248.92L823.67,227.39L824.83,236.2L828.31,247.27L829.48,276.64L830.64,256.25L831.8,253.38L832.96,272.91L837.61,243.44L838.77,267.07L839.93,263.53L841.09,252.09L844.58,254.42L846.9,233.34L848.06,236.01L849.23,254.22L852.71,248.9L853.87,258.6L855.03,258.85L857.36,250.48L860.84,259.79L863.17,244.32L864.33,253.58L865.49,237.14L868.97,221.22L870.14,226.15L871.3,214.38L872.46,202.4L873.62,199.74L877.11,196.58L878.27,202.16L879.43,230.22L880.59,219.72L881.75,214.9L885.24,219.16L886.4,225.64L887.56,227.06L888.72,191.38L889.89,182.22L893.37,190.88L894.53,196.63L895.69,184.61L896.86,182.39L898.02,188.29L901.5,177.06L902.67,174.16L903.83,176.4L904.99,178.49L906.15,190.1L909.64,203.82L910.8,203.28L911.96,208.01L913.12,226.87L914.28,245.3L917.77,219.82L918.93,215.37L920.09,196.91L922.41,195.75L925.9,194.72L927.06,189.88L928.22,188.86L930.55,186.02L934.03,192.64L935.19,183.98L936.36,195.09L937.52,203.57L938.68,178.62L942.16,174.98L943.33,186.44L944.49,200.08L945.65,192.84L946.81,203.78L950.3,187.46L952.62,164.6L953.78,182.09L954.94,198.06L958.43,188.89L960.75,162.04L961.91,167.15L966.56,170.27L967.72,154.7L968.88,160.87L970.05,176.45L974.69,186.89L975.85,169.01L977.02,175.36L978.18,187.2L979.34,204.38L982.82,197.84L983.99,191.1L985.15,208.83L986.31,185.24L987.47,202.75L992.12,192.54L993.28,219.95L995.6,184.77L999.09,185.3L1000.25,157.76L1001.41,164.87L1002.57,153.41L1003.74,126.75L1007.22,122.1L1008.38,138.58L1009.54,131.1L1010.71,134.37L1011.87,145.98L1015.35,133.45L1017.68,141.59L1018.84,150.49L1020,136.24" style="vector-effect: non-scaling-stroke; fill: none; stroke: rgb(182, 232, 128); stroke-opacity: 1; stroke-width: 2px; opacity: 1;"/></g><g class="points"/><g class="text"/></g><g class="trace scatter trace27b200" style="stroke-miterlimit: 2; opacity: 1;"><g class="fills"/><g class="errorbars"/><g class="lines"><path class="js-line" d="M0,254.22L1.16,241.25L2.32,243.69L3.49,255.99L6.97,249.57L8.13,255.19L9.29,265.11L10.46,259.93L11.62,266.17L15.1,276.95L16.26,272.57L18.59,285.16L19.75,283.26L23.23,289.13L24.4,293.83L25.56,293.83L26.72,275.12L27.88,270.13L31.37,266.02L32.53,275.48L33.69,257.83L34.85,256.35L36.01,258.13L39.5,264.15L40.66,251.29L41.82,251.46L42.98,249.66L44.15,251.15L47.63,243.82L48.79,233.74L49.95,240.5L51.12,240.11L52.28,235.38L55.76,225.55L56.92,230.13L58.09,218.34L59.25,222.54L60.41,217.5L63.9,213.41L65.06,212.61L66.22,209.09L68.54,202.63L72.03,199.83L73.19,197.92L74.35,201.22L75.51,199.38L76.67,192.58L80.16,187.9L81.32,192.22L82.48,190.7L84.81,190.04L88.29,202.88L89.45,197.09L91.78,211.95L92.94,196.61L96.42,200.96L97.59,212.9L98.75,221.71L99.91,236.84L101.07,242.18L104.56,233.69L105.72,246.58L106.88,225.16L108.04,231.73L109.2,227.5L112.69,222.5L113.85,219.45L117.33,209.33L120.82,210.09L121.98,208.29L124.31,218.4L125.47,220.52L128.95,222.15L130.11,207.06L131.28,217.21L132.44,220.17L133.6,219.01L137.08,227.62L138.25,221.33L139.41,215.77L140.57,215.44L141.73,223.49L146.38,227.73L149.86,252.24L153.35,253.28L154.51,256.83L155.67,270.18L156.83,268.2L158,272.67L161.48,294.73L162.64,290.87L164.97,281.41L166.13,266.79L169.61,264.67L170.77,251.29L171.94,255.02L173.1,247.8L174.26,237.94L178.91,246.6L180.07,249.98L181.23,244.51L182.39,249.18L185.88,249.19L187.04,249.12L188.2,247.04L190.52,238.14L194.01,246.09L195.17,234.29L196.33,245.75L198.66,241.44L202.14,243.12L203.3,232.83L204.46,231.8L205.63,243.55L206.79,246.52L211.44,233.62L212.6,243.79L213.76,231.99L214.92,232.89L218.41,225.79L219.57,211.8L220.73,214.53L221.89,211.85L223.05,205.71L226.54,197.54L228.86,198.54L230.02,197.86L231.18,197.48L234.67,197.57L236.99,181.66L238.15,190.3L239.32,193.62L242.8,186.55L245.13,177.85L246.29,181.23L250.93,175.48L252.1,177.72L253.26,178.15L254.42,176.02L260.23,147.32L261.39,148.8L262.55,151.09L263.71,155.36L267.2,154.64L268.36,162.51L269.52,151.73L270.68,153.21L271.85,146.71L275.33,147.58L276.49,144.57L277.65,149.61L278.82,159.61L279.98,152.08L283.46,155.21L284.62,164.69L285.79,154.82L286.95,155.39L292.76,155.8L293.92,163.13L296.24,149.61L299.73,148.04L300.89,153.46L302.05,148.05L303.21,143L304.37,147.03L307.86,147.95L309.02,149.32L311.34,161.61L312.51,160.83L315.99,157.19L317.15,160.63L319.48,149.01L320.64,148.05L324.12,147.28L325.28,154.41L326.45,151.75L327.61,156.36L328.77,154.77L332.26,160.19L333.42,146.66L334.58,143.77L335.74,141.86L340.39,139.36L341.55,139.99L342.71,130.13L343.87,131.59L345.03,135.17L348.52,129.1L349.68,133.96L350.84,135.47L352,147.49L353.17,135.84L356.65,143.27L358.97,153.32L360.14,152.08L361.3,154.19L364.78,151.17L367.11,164.12L368.27,192.25L369.43,192.85L372.92,191.18L374.08,201.52L375.24,195.57L376.4,204.61L377.56,195.07L382.21,194.33L383.37,188.66L384.53,183.89L385.69,185.49L390.34,171.94L391.5,171.18L392.67,166.57L393.83,168.56L397.31,163.95L398.47,159.83L399.64,157.11L400.8,157.46L401.96,156.75L406.61,162.31L407.77,160.79L408.93,162.46L410.09,154.47L413.58,164.64L414.74,168.44L415.9,160.34L417.06,161.37L418.22,169.06L421.71,165.22L422.87,157.89L424.03,158.38L425.19,153.67L426.36,144.21L429.84,147.36L431,156.36L432.16,143.91L433.33,163.28L434.49,152.4L437.97,152.36L439.13,154.77L440.3,166.06L441.46,166.85L442.62,155.34L446.1,154.97L447.27,167.54L448.43,145.53L449.59,162.75L450.75,160.39L455.4,179.63L456.56,197.1L457.72,207.32L458.88,195.86L462.37,198.51L463.53,200.73L464.69,199.97L465.85,192.98L467.02,183.59L470.5,177.42L475.15,155.22L478.63,156.38L479.79,146.71L480.96,143.33L482.12,143.52L483.28,135.08L487.93,129.23L489.09,129.15L490.25,115.12L491.41,113.91L494.9,111.98L496.06,109.5L497.22,104.52L498.38,107.15L499.54,103.85L503.03,106.32L504.19,108.32L505.35,102.34L507.68,89.22L511.16,96.88L512.32,96.08L513.49,98.73L515.81,104.13L519.29,117.98L521.62,151L522.78,145.3L523.94,163.95L527.43,173.17L528.59,177.06L529.75,149L530.91,117.91L532.07,121.76L535.56,109.12L536.72,108.84L537.88,112.35L540.21,105.53L543.69,109.61L544.85,113.14L546.01,126.59L548.34,125.9L551.82,137.36L552.98,131.73L555.31,87.5L556.47,98.55L561.12,106.18L562.28,119.04L563.44,123.24L564.6,106.99L569.25,107.51L570.41,112.61L571.57,93.06L572.73,108.8L576.22,104.35L577.38,124.27L578.54,133.6L579.7,112.68L580.87,139.41L584.35,122.35L585.51,105.37L586.67,111.83L587.84,104.35L589,107.34L592.48,120.99L593.64,102.54L594.81,103.45L595.97,101.12L597.13,96.24L601.78,100.33L602.94,99.38L604.1,109.78L605.26,106.12L608.75,104.85L611.07,98.88L612.23,91.02L613.39,91.2L616.88,89.26L619.2,102.98L620.36,101.22L621.53,124.59L625.01,117.48L627.33,149.53L628.5,132.39L629.66,138.81L633.14,116.91L634.31,124.18L635.47,108.73L636.63,117.04L637.79,103.5L641.28,92.69L642.44,99.56L643.6,118.04L644.76,121.43L645.92,128.59L649.41,105.55L651.73,133.27L652.89,129.65L657.54,120.81L658.7,122.03L659.86,120.99L661.03,121.87L662.19,124.25L665.67,127.81L666.83,125.95L668,127.36L669.16,131.8L670.32,151.23L673.8,132.73L674.97,140.36L676.13,129.61L677.29,126.25L678.45,118.58L681.94,128.9L683.1,121.76L684.26,131.21L685.42,141.54L686.58,127.15L690.07,127.23L691.23,136.18L692.39,139.18L693.55,135.05L694.72,119.53L698.2,131.34L699.36,130.67L700.52,133.27L701.69,120.12L702.85,116.08L706.33,115.35L707.49,116.06L709.82,123.01L710.98,133.35L715.63,147.45L716.79,142.29L719.11,156.19L722.6,155.42L723.76,158.12L724.92,157L727.24,185.21L730.73,187.75L731.89,187.92L733.05,177.52L734.21,174.04L735.38,187.03L738.86,197.17L740.02,186.84L741.18,183.04L742.35,169.95L743.51,177.45L746.99,174.47L748.15,175.47L749.32,183.51L750.48,190.62L751.64,183.43L756.29,207.53L757.45,193.54L758.61,191.8L763.26,191.13L764.42,176.74L765.58,188.25L766.74,188.12L767.9,172.35L772.55,158.43L773.71,158.05L774.87,151.9L776.04,157.11L779.52,154.82L780.68,170.8L781.85,177.6L783.01,178.24L784.17,189.92L787.65,196.47L789.98,170.88L791.14,173.45L795.79,181.77L796.95,190.31L798.11,175.82L799.27,181.12L800.43,191.49L803.92,178.38L805.08,180.02L806.24,176.19L812.05,168.33L813.21,176.47L815.54,203.09L816.7,241.04L821.34,312.14L822.51,262.7L823.67,241.6L824.83,249.78L828.31,260.03L829.48,289.39L830.64,269.86L831.8,266.75L832.96,286.34L837.61,258.38L838.77,281.38L839.93,278.01L841.09,267.23L844.58,269.69L846.9,248.42L848.06,251.55L849.23,269.83L852.71,264.23L853.87,274.48L855.03,275.23L857.36,266.81L860.84,276.55L862,271.28L863.17,262.16L864.33,271.49L865.49,256.13L868.97,239.51L870.14,244.17L872.46,221.36L873.62,218.78L877.11,216.34L878.27,221.91L879.43,249.29L880.59,239.74L881.75,235.95L885.24,240.89L886.4,247.2L887.56,249.12L888.72,215.05L889.89,204.63L893.37,213.33L894.53,220.07L895.69,207.24L896.86,204.95L898.02,210.31L901.5,199.74L902.67,196.81L903.83,198.87L904.99,201.32L906.15,212.02L909.64,225.86L910.8,225.68L911.96,230.79L913.12,249.19L914.28,268.08L917.77,242.29L918.93,238.06L920.09,219.94L921.25,218.22L922.41,219.33L925.9,217.71L927.06,213.31L928.22,212.69L930.55,209.63L934.03,215.55L935.19,206.86L937.52,226.37L938.68,201.69L942.16,198.63L943.33,209.91L944.49,223.59L945.65,216.22L946.81,227.7L950.3,211.59L952.62,187.86L953.78,205.75L954.94,221.95L958.43,212.66L960.75,185.29L961.91,190.28L966.56,193.71L967.72,178.46L968.88,184.35L970.05,199.82L974.69,210.19L975.85,193.32L977.02,200.13L978.18,211.74L979.34,228.1L982.82,221.71L983.99,215.11L985.15,233.35L986.31,211.11L987.47,227.2L992.12,217.31L993.28,244.56L995.6,212.18L999.09,212.89L1000.25,186.89L1001.41,193.39L1002.57,182.94L1003.74,157.11L1007.22,151.51L1008.38,168.92L1009.54,162.09L1010.71,164.69L1011.87,174.86L1015.35,162.86L1018.84,181.65L1020,165.69" style="vector-effect: non-scaling-stroke; fill: none; stroke: rgb(255, 151, 255); stroke-opacity: 1; stroke-width: 2px; opacity: 1;"/></g><g class="points"/><g class="text"/></g><g class="trace scatter trace2f82fa" style="stroke-miterlimit: 2; opacity: 1;"><g class="fills"/><g class="errorbars"/><g class="lines"><path class="js-line" d="M0,254.22L1.16,241.7L2.32,245.13L3.49,260.9L6.97,265.13L9.29,276.03L10.46,271.35L11.62,277.31L15.1,288.24L16.26,282.97L17.43,287.95L18.59,299.57L19.75,293.1L23.23,304.69L24.4,318.28L25.56,316.03L26.72,288.55L27.88,279.1L31.37,273.65L32.53,284.98L33.69,267.48L34.85,267.66L36.01,265.28L39.5,265.91L40.66,259.5L41.82,264.12L42.98,255.96L44.15,250.77L47.63,250.88L48.79,241.41L49.95,246.64L51.12,252.85L52.28,246.92L55.76,244.91L56.92,246.69L58.09,235.75L59.25,248.75L60.41,234.48L63.9,232.67L65.06,235.43L66.22,229.39L68.54,217.48L72.03,216.26L73.19,217.02L74.35,222.65L76.67,208.71L80.16,208.05L81.32,208.03L82.48,205.94L84.81,206.87L88.29,213.47L89.45,221.48L90.62,223.59L91.78,229.4L92.94,212.5L96.42,212.05L97.59,216.5L99.91,236.38L101.07,235.03L104.56,224.04L105.72,224.83L106.88,199.93L108.04,198.99L109.2,195.41L112.69,189.16L116.17,173.41L117.33,173.53L120.82,171.33L121.98,165.17L124.31,176.68L125.47,174.25L128.95,178.06L130.11,169.06L131.28,174.86L132.44,176.39L133.6,177.05L137.08,192.28L139.41,173.23L140.57,178.75L141.73,175.22L146.38,178.97L147.54,182.47L148.7,197.44L149.86,224.5L153.35,228.01L154.51,220.3L155.67,236.44L156.83,227.1L158,239.83L161.48,267.56L162.64,261.4L163.8,261.83L164.97,245.81L166.13,231.73L169.61,231.08L170.77,214.66L171.94,217.29L173.1,211.87L174.26,201.09L178.91,203.13L180.07,210.77L181.23,202.89L182.39,205.43L185.88,196.6L187.04,198.94L188.2,197.34L189.36,191.03L190.52,186.86L194.01,199.93L195.17,180.55L196.33,183.59L198.66,175.72L202.14,178.61L203.3,184.35L204.46,185.3L205.63,204.96L206.79,208.63L211.44,185.63L212.6,195.32L213.76,186.06L214.92,188.47L218.41,190.69L219.57,182.93L220.73,191.34L221.89,191.75L223.05,186.74L226.54,175.3L228.86,165.49L230.02,165.52L231.18,179.12L234.67,193.31L235.83,192.43L236.99,177.04L239.32,211.94L242.8,199.49L243.96,191.89L245.13,178.09L246.29,179.47L250.93,176.01L252.1,170.47L253.26,171.55L254.42,171.55L255.58,183.48L259.07,176.05L260.23,168.69L261.39,164.82L262.55,166.69L263.71,170.6L267.2,169.1L268.36,180.11L269.52,170.12L276.49,153.37L277.65,162L278.82,176.22L279.98,172.43L283.46,170.69L284.62,182.38L285.79,168.88L286.95,168.03L288.11,162.66L292.76,156.77L293.92,160.37L295.08,154.79L296.24,153.22L299.73,150.97L300.89,152.78L302.05,151.49L304.37,135.61L307.86,134.01L309.02,133.77L310.18,142.45L311.34,151.78L312.51,148.24L315.99,147.79L317.15,145.46L318.31,137.11L319.48,135.85L320.64,133.67L324.12,134.51L325.28,144.64L326.45,140.44L327.61,142.26L328.77,141.77L332.26,143.92L333.42,132.91L334.58,131.19L335.74,123.36L340.39,127.11L341.55,137.11L342.71,130.39L343.87,136.39L345.03,133.95L348.52,124.46L349.68,124.01L350.84,117.42L352,131.14L353.17,120.65L356.65,124.77L357.81,119.51L358.97,121.8L360.14,122.04L361.3,132.52L364.78,130.65L367.11,139.34L368.27,166.31L369.43,172.26L372.92,165.8L374.08,177.69L375.24,176.51L376.4,182.9L377.56,167.11L381.05,165.74L382.21,166.55L384.53,153.53L385.69,157.84L392.67,125.81L393.83,129.07L399.64,118.79L400.8,122.4L401.96,120.8L406.61,123.42L407.77,122.51L408.93,123.25L410.09,117.49L413.58,119.69L414.74,127.99L415.9,123.33L417.06,125L418.22,130.23L421.71,126.52L422.87,117.95L424.03,115.83L425.19,106.55L426.36,105.38L429.84,114.48L431,124.42L432.16,111.3L433.33,133.78L434.49,119.55L437.97,123.11L439.13,125.52L440.3,145.78L441.46,146.09L442.62,128.35L446.1,129.86L447.27,153.04L448.43,129.66L449.59,158.15L450.75,167.94L454.24,186.91L455.4,187.41L456.56,202.16L457.72,204.25L458.88,181.87L462.37,180.23L463.53,161.93L464.69,174.98L467.02,145.72L470.5,144.65L471.66,128.68L472.82,131.35L475.15,95.96L478.63,98.02L479.79,96.52L480.96,87.96L482.12,82.01L483.28,80.36L487.93,76.87L489.09,77.1L490.25,73.65L491.41,75.18L494.9,74.08L496.06,70.67L497.22,70.85L498.38,68.02L499.54,60.27L503.03,59.61L504.19,59.86L505.35,58.77L507.68,58.73L511.16,63.1L512.32,54.36L513.49,51.55L514.65,52.62L515.81,47.62L520.46,61.03L521.62,83.82L522.78,78.45L523.94,105.28L527.43,113.79L528.59,123.31L530.91,62.99L532.07,60.72L536.72,42.06L537.88,41.55L540.21,39.55L543.69,40.87L544.85,45.56L546.01,59.17L548.34,58.32L551.82,86.5L552.98,97.56L554.15,79.46L555.31,51.95L556.47,66.46L561.12,76.98L562.28,92.85L563.44,101.89L564.6,85.66L569.25,85.35L570.41,82.03L571.57,59.94L572.73,71.96L576.22,71.45L577.38,96.24L578.54,112.89L579.7,93.72L580.87,115.14L584.35,98.46L585.51,72.49L586.67,71.93L587.84,53.91L589,59.06L592.48,67.15L593.64,55.28L594.81,55.84L595.97,46.47L597.13,42.47L601.78,40.07L602.94,41.58L604.1,45.33L605.26,32.17L608.75,34.18L609.91,26.33L611.07,25.02L612.23,25.88L613.39,32.83L616.88,19.57L618.04,26.82L619.2,35.88L620.36,32.58L621.53,56.3L625.01,44.48L626.17,72.79L627.33,75.13L628.5,53.03L629.66,65.44L633.14,46.04L634.31,56.95L635.47,37.64L636.63,47.6L637.79,33.26L641.28,34.25L642.44,43.17L643.6,68.06L644.76,71.49L645.92,68.56L649.41,46.13L650.57,63.16L651.73,69.79L652.89,64.26L657.54,54.25L658.7,54.71L659.86,52.41L661.03,47.63L662.19,39.22L665.67,46.07L668,34.54L669.16,35.12L670.32,58.89L673.8,41.15L674.97,48.41L676.13,40.86L678.45,37.3L681.94,40.89L683.1,34.75L684.26,41.1L685.42,57.68L686.58,42.07L690.07,38.13L691.23,50.23L692.39,57.56L693.55,50.58L694.72,27.87L698.2,35.17L699.36,38.32L700.52,38.97L701.69,22.67L702.85,20.94L707.49,17.55L708.66,19.85L709.82,19.82L710.98,24.39L715.63,40.59L716.79,30.26L717.95,33.39L719.11,43.21L722.6,40.69L723.76,43.1L724.92,37.63L726.08,52.15L727.24,56.92L730.73,63.97L731.89,64.19L733.05,44.08L734.21,40.77L735.38,52.72L738.86,61.88L740.02,52.24L741.18,49.58L742.35,34.27L743.51,42.76L746.99,33.93L748.15,31.87L749.32,47L750.48,53.44L751.64,48.65L755.13,78.45L756.29,76.48L757.45,64.71L758.61,67.07L763.26,71.03L764.42,63.09L765.58,85.33L766.74,82.51L767.9,64.5L771.39,46.02L772.55,39.56L773.71,39.85L774.87,33.89L776.04,36.77L779.52,35.58L780.68,50.98L781.85,56.79L783.01,66.92L784.17,80.82L787.65,91.7L789.98,65.26L791.14,65.72L792.3,70.5L795.79,78.29L796.95,82.33L798.11,83.2L800.43,97.41L803.92,76.85L805.08,94.91L806.24,94.94L807.4,94.45L808.56,88.57L812.05,82.8L813.21,85.68L814.37,99.51L815.54,129.96L816.7,175.12L820.18,225.16L821.34,242.59L822.51,189.94L823.67,158.53L824.83,159.53L828.31,169.31L829.48,209.26L830.64,184.33L831.8,182.35L832.96,205.51L837.61,172.32L838.77,192.65L839.93,186.12L841.09,177.39L844.58,182.67L846.9,151.29L848.06,156.83L849.23,181.51L852.71,170.83L853.87,186.11L855.03,190.41L856.2,197.1L857.36,187.46L860.84,214.06L862,210.04L863.17,190.01L864.33,191.09L865.49,174.04L868.97,148.18L870.14,147.01L871.3,136.63L872.46,124.85L873.62,121.98L877.11,117.95L878.27,122.2L879.43,135.57L880.59,117.11L881.75,110.8L885.24,109.56L886.4,110.7L887.56,114.83L889.89,74.17L893.37,76.18L894.53,79.72L895.69,62.87L896.86,64.89L898.02,72.74L902.67,51.08L903.83,55.38L904.99,55.73L906.15,51.75L909.64,67.04L910.8,64.68L911.96,69.45L913.12,91.06L914.28,108.31L917.77,88.09L918.93,87.54L920.09,66.47L921.25,66.85L922.41,59.1L925.9,61.75L927.06,60.09L930.55,59.99L934.03,67.94L935.19,53.61L936.36,67.11L937.52,88.54L938.68,57.08L942.16,67.04L943.33,80.86L944.49,87.3L945.65,80.29L946.81,106.61L950.3,97.83L952.62,65.46L953.78,87L954.94,118.24L958.43,107.77L960.75,77.92L961.91,82.21L966.56,84.24L967.72,67.85L970.05,93.02L974.69,116.5L975.85,115.68L977.02,137.12L979.34,184.75L982.82,180.32L983.99,170.31L985.15,201.34L986.31,181.98L987.47,215.23L992.12,212.86L993.28,234.06L994.44,224.2L995.6,206.27L999.09,223.98L1000.25,200L1001.41,218.94L1002.57,208.3L1003.74,174.56L1007.22,176.02L1008.38,201.16L1009.54,185.59L1010.71,178.79L1011.87,196.79L1015.35,211.92L1016.51,213L1017.68,221.47L1018.84,243.12L1020,216.44" style="vector-effect: non-scaling-stroke; fill: none; stroke: rgb(254, 203, 82); stroke-opacity: 1; stroke-width: 2px; opacity: 1;"/></g><g class="points"/><g class="text"/></g></g></g><g class="overplot"/><path class="xlines-above crisp" d="M0,0" style="fill: none;"/><path class="ylines-above crisp" d="M0,0" style="fill: none;"/><g class="overlines-above"/><g class="xaxislayer-above"><g class="xtick"><text text-anchor="middle" x="0" y="424" transform="translate(66.26,0)" style="font-family: 'Open Sans', verdana, arial, sans-serif; font-size: 12px; fill: rgb(42, 63, 95); fill-opacity: 1; white-space: pre; opacity: 1;">Oct 2013</text></g><g class="xtick"><text text-anchor="middle" x="0" y="424" style="font-family: 'Open Sans', verdana, arial, sans-serif; font-size: 12px; fill: rgb(42, 63, 95); fill-opacity: 1; white-space: pre; opacity: 1;" transform="translate(173.14,0)">Jan 2014</text></g><g class="xtick"><text text-anchor="middle" x="0" y="424" style="font-family: 'Open Sans', verdana, arial, sans-serif; font-size: 12px; fill: rgb(42, 63, 95); fill-opacity: 1; white-space: pre; opacity: 1;" transform="translate(277.7,0)">Apr 2014</text></g><g class="xtick"><text text-anchor="middle" x="0" y="424" style="font-family: 'Open Sans', verdana, arial, sans-serif; font-size: 12px; fill: rgb(42, 63, 95); fill-opacity: 1; white-space: pre; opacity: 1;" transform="translate(383.42,0)">Jul 2014</text></g><g class="xtick"><text text-anchor="middle" x="0" y="424" style="font-family: 'Open Sans', verdana, arial, sans-serif; font-size: 12px; fill: rgb(42, 63, 95); fill-opacity: 1; white-space: pre; opacity: 1;" transform="translate(490.3,0)">Oct 2014</text></g><g class="xtick"><text text-anchor="middle" x="0" y="424" style="font-family: 'Open Sans', verdana, arial, sans-serif; font-size: 12px; fill: rgb(42, 63, 95); fill-opacity: 1; white-space: pre; opacity: 1;" transform="translate(597.18,0)">Jan 2015</text></g><g class="xtick"><text text-anchor="middle" x="0" y="424" style="font-family: 'Open Sans', verdana, arial, sans-serif; font-size: 12px; fill: rgb(42, 63, 95); fill-opacity: 1; white-space: pre; opacity: 1;" transform="translate(701.73,0)">Apr 2015</text></g><g class="xtick"><text text-anchor="middle" x="0" y="424" style="font-family: 'Open Sans', verdana, arial, sans-serif; font-size: 12px; fill: rgb(42, 63, 95); fill-opacity: 1; white-space: pre; opacity: 1;" transform="translate(807.45,0)">Jul 2015</text></g><g class="xtick"><text text-anchor="middle" x="0" y="424" style="font-family: 'Open Sans', verdana, arial, sans-serif; font-size: 12px; fill: rgb(42, 63, 95); fill-opacity: 1; white-space: pre; opacity: 1;" transform="translate(914.33,0)">Oct 2015</text></g><g class="xtick"><text text-anchor="middle" x="0" y="424" style="font-family: 'Open Sans', verdana, arial, sans-serif; font-size: 12px; fill: rgb(42, 63, 95); fill-opacity: 1; white-space: pre; opacity: 1;" transform="translate(1021.21,0)">Jan 2016</text></g></g><g class="yaxislayer-above"><g class="ytick"><text text-anchor="end" x="49" y="4.199999999999999" transform="translate(0,401.8)" style="font-family: 'Open Sans', verdana, arial, sans-serif; font-size: 12px; fill: rgb(42, 63, 95); fill-opacity: 1; white-space: pre; opacity: 1;">14.5k</text></g><g class="ytick"><text text-anchor="end" x="49" y="4.199999999999999" style="font-family: 'Open Sans', verdana, arial, sans-serif; font-size: 12px; fill: rgb(42, 63, 95); fill-opacity: 1; white-space: pre; opacity: 1;" transform="translate(0,359.27)">15k</text></g><g class="ytick"><text text-anchor="end" x="49" y="4.199999999999999" style="font-family: 'Open Sans', verdana, arial, sans-serif; font-size: 12px; fill: rgb(42, 63, 95); fill-opacity: 1; white-space: pre; opacity: 1;" transform="translate(0,316.74)">15.5k</text></g><g class="ytick"><text text-anchor="end" x="49" y="4.199999999999999" style="font-family: 'Open Sans', verdana, arial, sans-serif; font-size: 12px; fill: rgb(42, 63, 95); fill-opacity: 1; white-space: pre; opacity: 1;" transform="translate(0,274.22)">16k</text></g><g class="ytick"><text text-anchor="end" x="49" y="4.199999999999999" style="font-family: 'Open Sans', verdana, arial, sans-serif; font-size: 12px; fill: rgb(42, 63, 95); fill-opacity: 1; white-space: pre; opacity: 1;" transform="translate(0,231.69)">16.5k</text></g><g class="ytick"><text text-anchor="end" x="49" y="4.199999999999999" style="font-family: 'Open Sans', verdana, arial, sans-serif; font-size: 12px; fill: rgb(42, 63, 95); fill-opacity: 1; white-space: pre; opacity: 1;" transform="translate(0,189.17)">17k</text></g><g class="ytick"><text text-anchor="end" x="49" y="4.199999999999999" style="font-family: 'Open Sans', verdana, arial, sans-serif; font-size: 12px; fill: rgb(42, 63, 95); fill-opacity: 1; white-space: pre; opacity: 1;" transform="translate(0,146.64)">17.5k</text></g><g class="ytick"><text text-anchor="end" x="49" y="4.199999999999999" style="font-family: 'Open Sans', verdana, arial, sans-serif; font-size: 12px; fill: rgb(42, 63, 95); fill-opacity: 1; white-space: pre; opacity: 1;" transform="translate(0,104.12)">18k</text></g><g class="ytick"><text text-anchor="end" x="49" y="4.199999999999999" style="font-family: 'Open Sans', verdana, arial, sans-serif; font-size: 12px; fill: rgb(42, 63, 95); fill-opacity: 1; white-space: pre; opacity: 1;" transform="translate(0,61.59)">18.5k</text></g></g><g class="overaxes-above"/></g></g><g class="polarlayer"/><g class="ternarylayer"/><g class="geolayer"/><g class="funnelarealayer"/><g class="pielayer"/><g class="iciclelayer"/><g class="treemaplayer"/><g class="sunburstlayer"/><g class="glimages"/><defs id="topdefs-c9df9a"><g class="clips"/><clipPath id="legendc9df9a"><rect width="136" height="200" x="0" y="0"/></clipPath></defs><g class="layer-above"><g class="imagelayer"/><g class="shapelayer"/></g><g class="infolayer"><g class="legend" pointer-events="all" transform="translate(1090.4,60)"><rect class="bg" shape-rendering="crispEdges" width="136" height="200" x="0" y="0" style="stroke: rgb(68, 68, 68); stroke-opacity: 1; fill: rgb(255, 255, 255); fill-opacity: 1; stroke-width: 0px;"/><g class="scrollbox" transform="" clip-path="url(#legendc9df9a)"><g class="groups"><g class="traces" transform="translate(0,14.5)" style="opacity: 1;"><text class="legendtext" text-anchor="start" x="40" y="4.680000000000001" style="font-family: 'Open Sans', verdana, arial, sans-serif; font-size: 12px; fill: rgb(42, 63, 95); fill-opacity: 1; white-space: pre;">Conic =0.1</text><g class="layers" style="opacity: 1;"><g class="legendfill"/><g class="legendlines"><path class="js-line" d="M5,0h30" style="fill: none; stroke: rgb(99, 110, 250); stroke-opacity: 1; stroke-width: 2px;"/></g><g class="legendsymbols"><g class="legendpoints"/></g></g><rect class="legendtoggle" x="0" y="-9.5" width="130.8186798095703" height="19" style="fill: rgb(0, 0, 0); fill-opacity: 0;"/></g><g class="traces" transform="translate(0,33.5)" style="opacity: 1;"><text class="legendtext" text-anchor="start" x="40" y="4.680000000000001" style="font-family: 'Open Sans', verdana, arial, sans-serif; font-size: 12px; fill: rgb(42, 63, 95); fill-opacity: 1; white-space: pre;">Conic =3.275</text><g class="layers" style="opacity: 1;"><g class="legendfill"/><g class="legendlines"><path class="js-line" d="M5,0h30" style="fill: none; stroke: rgb(239, 85, 59); stroke-opacity: 1; stroke-width: 2px;"/></g><g class="legendsymbols"><g class="legendpoints"/></g></g><rect class="legendtoggle" x="0" y="-9.5" width="130.8186798095703" height="19" style="fill: rgb(0, 0, 0); fill-opacity: 0;"/></g><g class="traces" transform="translate(0,52.5)" style="opacity: 1;"><text class="legendtext" text-anchor="start" x="40" y="4.680000000000001" style="font-family: 'Open Sans', verdana, arial, sans-serif; font-size: 12px; fill: rgb(42, 63, 95); fill-opacity: 1; white-space: pre;">Conic =6.45</text><g class="layers" style="opacity: 1;"><g class="legendfill"/><g class="legendlines"><path class="js-line" d="M5,0h30" style="fill: none; stroke: rgb(0, 204, 150); stroke-opacity: 1; stroke-width: 2px;"/></g><g class="legendsymbols"><g class="legendpoints"/></g></g><rect class="legendtoggle" x="0" y="-9.5" width="130.8186798095703" height="19" style="fill: rgb(0, 0, 0); fill-opacity: 0;"/></g><g class="traces" transform="translate(0,71.5)" style="opacity: 1;"><text class="legendtext" text-anchor="start" x="40" y="4.680000000000001" style="font-family: 'Open Sans', verdana, arial, sans-serif; font-size: 12px; fill: rgb(42, 63, 95); fill-opacity: 1; white-space: pre;">Conic =9.625</text><g class="layers" style="opacity: 1;"><g class="legendfill"/><g class="legendlines"><path class="js-line" d="M5,0h30" style="fill: none; stroke: rgb(171, 99, 250); stroke-opacity: 1; stroke-width: 2px;"/></g><g class="legendsymbols"><g class="legendpoints"/></g></g><rect class="legendtoggle" x="0" y="-9.5" width="130.8186798095703" height="19" style="fill: rgb(0, 0, 0); fill-opacity: 0;"/></g><g class="traces" transform="translate(0,90.5)" style="opacity: 1;"><text class="legendtext" text-anchor="start" x="40" y="4.680000000000001" style="font-family: 'Open Sans', verdana, arial, sans-serif; font-size: 12px; fill: rgb(42, 63, 95); fill-opacity: 1; white-space: pre;">Conic =12.8</text><g class="layers" style="opacity: 1;"><g class="legendfill"/><g class="legendlines"><path class="js-line" d="M5,0h30" style="fill: none; stroke: rgb(255, 161, 90); stroke-opacity: 1; stroke-width: 2px;"/></g><g class="legendsymbols"><g class="legendpoints"/></g></g><rect class="legendtoggle" x="0" y="-9.5" width="130.8186798095703" height="19" style="fill: rgb(0, 0, 0); fill-opacity: 0;"/></g><g class="traces" transform="translate(0,109.5)" style="opacity: 1;"><text class="legendtext" text-anchor="start" x="40" y="4.680000000000001" style="font-family: 'Open Sans', verdana, arial, sans-serif; font-size: 12px; fill: rgb(42, 63, 95); fill-opacity: 1; white-space: pre;">Mean-Variance</text><g class="layers" style="opacity: 1;"><g class="legendfill"/><g class="legendlines"><path class="js-line" d="M5,0h30" style="fill: none; stroke: rgb(25, 211, 243); stroke-opacity: 1; stroke-width: 2px;"/></g><g class="legendsymbols"><g class="legendpoints"/></g></g><rect class="legendtoggle" x="0" y="-9.5" width="130.8186798095703" height="19" style="fill: rgb(0, 0, 0); fill-opacity: 0;"/></g><g class="traces" transform="translate(0,128.5)" style="opacity: 1;"><text class="legendtext" text-anchor="start" x="40" y="4.680000000000001" style="font-family: 'Open Sans', verdana, arial, sans-serif; font-size: 12px; fill: rgb(42, 63, 95); fill-opacity: 1; white-space: pre;">Mean-VaR</text><g class="layers" style="opacity: 1;"><g class="legendfill"/><g class="legendlines"><path class="js-line" d="M5,0h30" style="fill: none; stroke: rgb(255, 102, 146); stroke-opacity: 1; stroke-width: 2px;"/></g><g class="legendsymbols"><g class="legendpoints"/></g></g><rect class="legendtoggle" x="0" y="-9.5" width="130.8186798095703" height="19" style="fill: rgb(0, 0, 0); fill-opacity: 0;"/></g><g class="traces" transform="translate(0,147.5)" style="opacity: 1;"><text class="legendtext" text-anchor="start" x="40" y="4.680000000000001" style="font-family: 'Open Sans', verdana, arial, sans-serif; font-size: 12px; fill: rgb(42, 63, 95); fill-opacity: 1; white-space: pre;">Mean-CVaR 95%</text><g class="layers" style="opacity: 1;"><g class="legendfill"/><g class="legendlines"><path class="js-line" d="M5,0h30" style="fill: none; stroke: rgb(182, 232, 128); stroke-opacity: 1; stroke-width: 2px;"/></g><g class="legendsymbols"><g class="legendpoints"/></g></g><rect class="legendtoggle" x="0" y="-9.5" width="130.8186798095703" height="19" style="fill: rgb(0, 0, 0); fill-opacity: 0;"/></g><g class="traces" transform="translate(0,166.5)" style="opacity: 1;"><text class="legendtext" text-anchor="start" x="40" y="4.680000000000001" style="font-family: 'Open Sans', verdana, arial, sans-serif; font-size: 12px; fill: rgb(42, 63, 95); fill-opacity: 1; white-space: pre;">Mean-CVaR 99%</text><g class="layers" style="opacity: 1;"><g class="legendfill"/><g class="legendlines"><path class="js-line" d="M5,0h30" style="fill: none; stroke: rgb(255, 151, 255); stroke-opacity: 1; stroke-width: 2px;"/></g><g class="legendsymbols"><g class="legendpoints"/></g></g><rect class="legendtoggle" x="0" y="-9.5" width="130.8186798095703" height="19" style="fill: rgb(0, 0, 0); fill-opacity: 0;"/></g><g class="traces" transform="translate(0,185.5)" style="opacity: 1;"><text class="legendtext" text-anchor="start" x="40" y="4.680000000000001" style="font-family: 'Open Sans', verdana, arial, sans-serif; font-size: 12px; fill: rgb(42, 63, 95); fill-opacity: 1; white-space: pre;">DJIA</text><g class="layers" style="opacity: 1;"><g class="legendfill"/><g class="legendlines"><path class="js-line" d="M5,0h30" style="fill: none; stroke: rgb(254, 203, 82); stroke-opacity: 1; stroke-width: 2px;"/></g><g class="legendsymbols"><g class="legendpoints"/></g></g><rect class="legendtoggle" x="0" y="-9.5" width="130.8186798095703" height="19" style="fill: rgb(0, 0, 0); fill-opacity: 0;"/></g></g></g><rect class="scrollbar" rx="20" ry="3" width="0" height="0" x="0" y="0" style="fill: rgb(128, 139, 164); fill-opacity: 1;"/></g><g class="g-gtitle"/><g class="g-xtitle"/><g class="g-ytitle"/></g></svg>