<svg class="main-svg" xmlns="http://www.w3.org/2000/svg" xmlns:xlink="http://www.w3.org/1999/xlink" width="1238" height="461" style=""><rect x="0" y="0" width="1238" height="461" style="fill: rgb(255, 255, 255); fill-opacity: 1;"/><defs id="defs-fda97a"><g class="clips"><clipPath id="clipfda97axyplot" class="plotclip"><rect width="1020" height="351"/></clipPath><clipPath class="axesclip" id="clipfda97ax"><rect x="50" y="0" width="1020" height="461"/></clipPath><clipPath class="axesclip" id="clipfda97ay"><rect x="0" y="60" width="1238" height="351"/></clipPath><clipPath class="axesclip" id="clipfda97axy"><rect x="50" y="60" width="1020" height="351"/></clipPath></g><g class="gradients"/><g class="patterns"/></defs><g class="bglayer"><rect class="bg" x="50" y="60" width="1020" height="351" style="fill: rgb(229, 236, 246); fill-opacity: 1; stroke-width: 0;"/></g><g class="layer-below"><g class="imagelayer"/><g class="shapelayer"/></g><g class="cartesianlayer"><g class="subplot xy"><g class="layer-subplot"><g class="shapelayer"/><g class="imagelayer"/></g><g class="gridlayer"><g class="x"><path class="xgrid crisp" transform="translate(223.93,0)" d="M0,60v351" style="stroke: rgb(255, 255, 255); stroke-opacity: 1; stroke-width: 1px;"/><path class="xgrid crisp" transform="translate(403.76,0)" d="M0,60v351" style="stroke: rgb(255, 255, 255); stroke-opacity: 1; stroke-width: 1px;"/><path class="xgrid crisp" transform="translate(586.53,0)" d="M0,60v351" style="stroke: rgb(255, 255, 255); stroke-opacity: 1; stroke-width: 1px;"/><path class="xgrid crisp" transform="translate(766.36,0)" d="M0,60v351" style="stroke: rgb(255, 255, 255); stroke-opacity: 1; stroke-width: 1px;"/><path class="xgrid crisp" transform="translate(946.18,0)" d="M0,60v351" style="stroke: rgb(255, 255, 255); stroke-opacity: 1; stroke-width: 1px;"/></g><g class="y"><path class="ygrid crisp" transform="translate(0,364.75)" d="M50,0h1020" style="stroke: rgb(255, 255, 255); stroke-opacity: 1; stroke-width: 1px;"/><path class="ygrid crisp" transform="translate(0,313.69)" d="M50,0h1020" style="stroke: rgb(255, 255, 255); stroke-opacity: 1; stroke-width: 1px;"/><path class="ygrid crisp" transform="translate(0,262.63)" d="M50,0h1020" style="stroke: rgb(255, 255, 255); stroke-opacity: 1; stroke-width: 1px;"/><path class="ygrid crisp" transform="translate(0,211.57)" d="M50,0h1020" style="stroke: rgb(255, 255, 255); stroke-opacity: 1; stroke-width: 1px;"/><path class="ygrid crisp" transform="translate(0,160.51)" d="M50,0h1020" style="stroke: rgb(255, 255, 255); stroke-opacity: 1; stroke-width: 1px;"/><path class="ygrid crisp" transform="translate(0,109.45)" d="M50,0h1020" style="stroke: rgb(255, 255, 255); stroke-opacity: 1; stroke-width: 1px;"/></g></g><g class="zerolinelayer"/><path class="xlines-below"/><path class="ylines-below"/><g class="overlines-below"/><g class="xaxislayer-below"/><g class="yaxislayer-below"/><g class="overaxes-below"/><g class="plot" transform="translate(50,60)" clip-path="url(#clipfda97axyplot)"><g class="scatterlayer mlayer"><g class="trace scatter trace25a27b" style="stroke-miterlimit: 2; opacity: 1;"><g class="fills"/><g class="errorbars"/><g class="lines"><path class="js-line" d="M0,28.68L2.95,38.15L5.9,35.43L8.84,65.01L17.69,56.31L20.64,80.02L23.58,96.23L26.53,76.44L29.48,84.53L38.32,56.93L41.27,66.25L44.22,46.79L47.17,56.27L50.12,39.32L58.96,25.08L61.91,34.35L64.86,58.14L67.8,61.67L70.75,68.3L79.6,39.92L82.54,54.39L85.49,76.75L88.44,72.55L100.23,62L103.18,63.01L106.13,61.33L109.08,61.42L112.02,60.49L120.87,66.76L123.82,65.39L126.76,67.47L129.71,73.34L132.66,96.24L141.5,73.91L144.45,84.27L147.4,71.78L150.35,67.07L153.29,58.08L162.14,70.31L165.09,62.14L168.03,74.37L170.98,88.56L173.93,69.48L182.77,70.34L185.72,81.76L188.67,85.66L191.62,80.28L194.57,60.23L203.41,75.89L206.36,75.45L209.31,78.86L212.25,62.07L215.2,56.46L224.05,54.76L226.99,55.97L232.89,63.93L235.84,77.3L247.63,94.76L250.58,88.6L253.53,95.78L256.47,105.47L265.32,104.99L268.27,108.9L271.21,108.09L274.16,126.02L277.11,143.68L285.95,147.28L288.9,147.34L291.85,134.1L294.8,129.55L297.75,145.62L306.59,158.2L309.54,145.08L312.49,140.17L315.43,122.92L318.38,132.39L327.23,129.29L330.17,131.06L333.12,141.03L336.07,149.8L339.02,140.55L347.86,165.39L350.81,170.48L353.76,152.49L356.71,149.67L368.5,149.32L371.45,130.45L374.39,145.02L377.34,144.94L380.29,125.41L389.13,110.54L392.08,108.69L395.03,107.73L397.98,99.53L400.92,106.19L409.77,103.56L412.72,122.6L415.66,130.87L418.61,130.51L421.56,144.96L430.4,152.07L433.35,131.08L436.3,119.55L439.25,123.83L442.2,126.18L451.04,133.37L453.99,143.9L456.94,125.47L459.88,132.86L462.83,147.7L471.68,131.37L474.62,134.42L477.57,129.28L492.31,118.48L495.26,129.43L501.16,162.56L504.1,210.81L512.95,273.02L515.9,299.29L518.84,236.82L521.79,209.77L524.74,220.16L533.58,234.06L536.53,270.48L539.48,245.19L542.43,241.58L545.38,265.96L557.17,229.37L560.12,258.59L563.06,253.95L566.01,239.8L574.86,242.68L577.8,223.94L580.75,215.81L583.7,218.92L586.65,241.25L595.49,234.53L598.44,246.73L601.39,247.17L604.34,240.38L607.28,236.05L616.13,247.82L619.08,240.31L622.02,228.49L624.97,240.14L627.92,219.95L636.76,199.78L639.71,205.89L642.66,191.45L645.61,176.18L648.55,172.74L657.4,168.63L660.35,175.73L663.29,209.23L666.24,196.07L669.19,189.56L678.03,194.17L680.98,202.18L683.93,203.39L686.88,159.48L689.83,147.68L698.67,158.18L701.62,165.45L704.57,150.83L707.51,147.92L710.46,155.2L719.31,141.94L722.25,138.4L725.2,141.18L728.15,143.89L731.1,158.78L739.94,175.5L742.89,174.7L745.84,180.77L748.79,204.01L751.73,227.46L760.58,195.92L763.53,190.25L766.47,167.02L772.37,164.23L781.21,162.76L784.16,157.23L787.11,156.29L793.01,152.82L801.85,161.21L804.8,149.76L807.75,163.06L810.69,174.53L813.64,142.94L822.49,138.12L825.43,151.88L828.38,169.06L831.33,160.16L834.28,173.9L843.12,153.84L846.07,141L849.02,123.25L854.91,165.88L863.76,154.45L869.65,121.33L872.6,127.81L884.39,131.41L887.34,111.89L890.29,119.74L893.24,139.34L905.03,152.78L907.98,130.8L910.92,139.18L913.87,154.78L916.82,176.19L925.66,167.57L928.61,158.9L931.56,181.43L934.51,152.83L937.46,175.56L949.25,162.22L952.2,195.83L958.09,152.63L966.94,153.03L969.88,119.46L972.83,128.51L975.78,114.41L978.73,80.99L987.57,74.65L990.52,95.48L993.47,87.09L996.42,91.6L999.36,107.47L1008.21,92.02L1014.1,102.18L1017.05,112.76L1020,95.15" style="vector-effect: non-scaling-stroke; fill: none; stroke: rgb(99, 110, 250); stroke-opacity: 1; stroke-width: 2px; opacity: 1;"/></g><g class="points"/><g class="text"/></g><g class="trace scatter trace2f0113" style="stroke-miterlimit: 2; opacity: 1;"><g class="fills"/><g class="errorbars"/><g class="lines"><path class="js-line" d="M0,28.68L2.95,37.6L5.9,37.55L8.84,66.12L17.69,60.22L20.64,84.06L23.58,100.24L26.53,82.27L29.48,89.21L38.32,64.03L41.27,71.58L44.22,52.57L47.17,65.93L50.12,47.34L58.96,34.48L61.91,40.74L64.86,63.17L67.8,65.1L70.75,72.61L79.6,43.02L82.54,57.38L85.49,80.04L88.44,76.66L100.23,64.35L103.18,62.83L106.13,64.26L109.08,67.63L112.02,75.69L120.87,79.1L123.82,76.29L126.76,74.94L129.71,83.9L132.66,106.28L141.5,81.03L144.45,94.23L147.4,79.18L150.35,73.4L153.29,63.3L162.14,75.47L165.09,64.72L168.03,75.84L170.98,89.7L173.93,70.54L182.77,72.85L185.72,84.17L188.67,89.19L191.62,84.57L194.57,63.52L203.41,80.41L206.36,79.31L209.31,83.71L212.25,68.13L215.2,62.73L224.05,61.56L226.99,65.08L232.89,74.16L235.84,87.15L247.63,105.08L250.58,97.64L256.47,113.64L265.32,112.76L268.27,116.79L271.21,116.59L277.11,153.44L285.95,157.7L288.9,161.04L291.85,148.39L294.8,144.04L297.75,160.5L306.59,173.13L309.54,159.67L312.49,154.99L315.43,138.16L318.38,148.47L327.23,144.09L330.17,146.6L333.12,155.95L336.07,165.91L339.02,158.35L347.86,183.83L350.81,188.58L353.76,172.03L356.71,167.99L368.5,167.48L371.45,148.88L374.39,162.14L377.34,162.59L380.29,143.35L389.13,129.9L392.08,127.44L395.03,127.79L397.98,120.47L400.92,128.96L409.77,127.13L412.72,143.03L415.66,148.62L418.61,147.41L421.56,163.43L430.4,171.21L433.35,149.47L436.3,137.25L439.25,137.11L442.2,143.24L451.04,149.93L453.99,159.49L456.94,140.78L459.88,145.93L462.83,165.78L471.68,150.1L474.62,152.39L477.57,146.11L480.52,142.59L483.47,141.14L492.31,136.23L495.26,147.71L501.16,181.43L504.1,231.42L515.9,319.74L518.84,256.57L521.79,229.53L524.74,236.09L533.58,247.96L536.53,283.53L539.48,259.3L542.43,253.09L545.38,277.98L557.17,244.01L560.12,272.51L563.06,269.02L566.01,255.57L574.86,257.82L577.8,241.4L580.75,232.83L583.7,236.56L586.65,261.44L595.49,254.28L598.44,268.04L601.39,269.74L604.34,260.63L607.28,255.11L616.13,265.09L619.08,258.6L622.02,244.87L624.97,257.27L627.92,236.32L636.76,218.31L639.71,221.31L645.61,189.17L648.55,189.51L657.4,186.53L660.35,193.41L663.29,228.82L666.24,215.73L669.19,211.13L678.03,217.82L680.98,224.41L683.93,225.59L686.88,170.02L689.83,162.63L698.67,176L701.62,185.7L704.57,166.92L707.51,164.69L710.46,168.28L719.31,155.78L722.25,149.67L725.2,150.06L728.15,154.24L731.1,166.88L739.94,184.93L742.89,184.97L745.84,192.33L748.79,216.59L751.73,239.7L760.58,205.63L763.53,196.82L766.47,173.36L769.42,165.39L772.37,169.55L781.21,164.47L784.16,158.61L787.11,159.87L793.01,155.33L801.85,161.25L804.8,151.37L810.69,179.97L813.64,147.94L822.49,145.51L825.43,160.52L828.38,175.53L831.33,166.01L834.28,183.1L843.12,161.58L849.02,130.45L851.97,154.01L854.91,175.22L863.76,164.26L866.71,148.06L869.65,127.27L872.6,134.8L884.39,139.1L887.34,119.35L890.29,127.71L893.24,147.51L905.03,159.76L907.98,136.15L910.92,143.73L916.82,179.68L925.66,171.02L928.61,159.74L931.56,183.4L934.51,152.54L937.46,177.29L949.25,166.93L952.2,209.42L955.14,189.66L958.09,154.32L966.94,155.92L969.88,122.76L972.83,133.96L975.78,115.91L978.73,83.37L987.57,76.65L990.52,99.93L993.47,90.53L996.42,94.2L999.36,108.57L1008.21,91.48L1011.16,99.98L1014.1,107.33L1017.05,118.96L1020,98.92" style="vector-effect: non-scaling-stroke; fill: none; stroke: rgb(239, 85, 59); stroke-opacity: 1; stroke-width: 2px; opacity: 1;"/></g><g class="points"/><g class="text"/></g><g class="trace scatter trace3c4aac" style="stroke-miterlimit: 2; opacity: 1;"><g class="fills"/><g class="errorbars"/><g class="lines"><path class="js-line" d="M0,28.68L2.95,38.35L5.9,38.22L8.84,66.5L17.69,61.46L20.64,85.48L23.58,101.01L26.53,85.64L29.48,92.34L38.32,67.48L41.27,74.93L44.22,55.25L47.17,68.46L50.12,48.69L58.96,37.45L61.91,43.3L64.86,65.93L67.8,67.06L70.75,73L79.6,43.66L82.54,58.66L85.49,81.88L88.44,78.12L100.23,64.95L103.18,62.98L106.13,65.05L109.08,70.62L112.02,83.33L120.87,85.3L126.76,77.68L129.71,87.29L132.66,110.4L141.5,83.31L144.45,96.57L147.4,82.08L150.35,75.73L153.29,66.73L162.14,77.1L165.09,63.29L170.98,88.78L173.93,69.5L182.77,71.21L185.72,82.42L188.67,87.93L191.62,83.98L194.57,62.78L203.41,80.38L206.36,79.83L209.31,84.4L212.25,68.94L215.2,63.34L224.05,62.63L226.99,69.65L229.94,74.79L232.89,78.21L235.84,92.03L247.63,110.67L250.58,102.11L253.53,109.43L256.47,116.4L265.32,115.51L268.27,120.39L271.21,120.96L277.11,160.34L285.95,164.9L288.9,168.41L291.85,155.15L294.8,151.32L297.75,168.57L306.59,180.96L309.54,166.95L312.49,162L315.43,145.55L318.38,156.38L327.23,152.05L330.17,155.16L333.12,164.47L336.07,174.09L339.02,168.1L347.86,193.66L350.81,198.4L353.76,181.63L356.71,176.47L368.5,175.48L371.45,157.03L374.39,169.6L377.34,171.7L380.29,152.65L389.13,139.57L392.08,137.06L395.03,138.23L397.98,129.66L400.92,138.7L409.77,137.1L412.72,153.63L415.66,159.3L418.61,157.47L421.56,172.45L430.4,180.48L433.35,158.62L436.3,145.96L439.25,146.62L442.2,153.63L451.04,160.1L453.99,169.95L456.94,150.48L459.88,154.82L462.83,177.25L471.68,161.24L474.62,163.11L477.57,155.26L480.52,152.01L483.47,150.63L492.31,147.18L495.26,159.18L501.16,194.24L504.1,243.82L512.95,305.76L515.9,332.02L518.84,268.04L521.79,242.4L524.74,246.82L533.58,258.2L536.53,293.5L539.48,270.54L542.43,262.92L545.38,288.25L557.17,255.31L560.12,283.66L563.06,280.59L566.01,268.41L574.86,270.53L577.8,254.51L580.75,246.08L583.7,249.79L586.65,275.98L595.49,269.16L598.44,283.21L601.39,285.35L604.34,275.97L607.28,269.71L616.13,279.48L619.08,273.78L622.02,259.38L624.97,273.03L627.92,252.46L636.76,234.54L639.71,237.05L642.66,220.25L645.61,203.04L648.55,204.78L657.4,202.67L660.35,210.25L663.29,246.28L666.24,235.24L669.19,232.11L678.03,238.48L680.98,246.6L683.93,246.49L686.88,189.56L689.83,183.82L698.67,197.34L701.62,208.59L704.57,188.67L707.51,186.64L710.46,188.01L719.31,177.81L722.25,170.31L725.2,169.52L728.15,175.14L731.1,189.26L739.94,207.82L742.89,208.07L745.84,217.24L748.79,241.85L751.73,263.58L760.58,228.62L763.53,217.43L766.47,194.03L769.42,183.28L772.37,188.58L781.21,182.35L784.16,176.72L787.11,179.33L793.01,174.77L801.85,180.15L804.8,170.17L810.69,199.36L813.64,167.35L822.49,164.95L825.43,180.66L828.38,195.49L831.33,185.88L834.28,203.61L843.12,181.32L849.02,150.45L851.97,175.49L854.91,197.08L863.76,186.08L866.71,168.91L869.65,147.22L872.6,155.31L884.39,159.39L887.34,139.57L890.29,148.08L893.24,167.84L905.03,179.25L907.98,154.81L910.92,161.38L916.82,197.07L925.66,187.93L928.61,176.16L931.56,199.88L934.51,169.2L937.46,195.58L949.25,186.47L952.2,231.77L955.14,210.92L958.09,171L966.94,173.14L969.88,141.19L972.83,154.88L975.78,136.85L978.73,102.48L987.57,94.83L990.52,118.05L993.47,107.06L996.42,110.83L999.36,120.43L1008.21,103.74L1011.16,114.38L1014.1,123.63L1017.05,135.69L1020,115.28" style="vector-effect: non-scaling-stroke; fill: none; stroke: rgb(0, 204, 150); stroke-opacity: 1; stroke-width: 2px; opacity: 1;"/></g><g class="points"/><g class="text"/></g><g class="trace scatter tracec89349" style="stroke-miterlimit: 2; opacity: 1;"><g class="fills"/><g class="errorbars"/><g class="lines"><path class="js-line" d="M0,28.68L2.95,38.6L5.9,37.95L8.84,66.3L17.69,61.08L20.64,85.11L23.58,100.55L26.53,86.21L29.48,93.24L38.32,68.28L41.27,75.7L44.22,55.87L47.17,68.68L50.12,48.58L58.96,38.13L61.91,43.88L64.86,66.65L67.8,67.99L70.75,73.82L79.6,44.32L82.54,59.44L85.49,83.16L88.44,79.23L100.23,65.97L103.18,64.02L106.13,66.07L109.08,72.34L112.02,86.18L120.87,87.72L123.82,84.33L126.76,79.61L129.71,89.13L132.66,112.97L141.5,85.36L144.45,98.91L147.4,84.69L150.35,77.91L153.29,68.53L162.14,78.45L165.09,63.68L168.03,75.11L170.98,89.54L173.93,70.52L182.77,72.4L185.72,83.26L188.67,88.69L191.62,84.73L194.57,63.1L203.41,80.63L206.36,80.56L209.31,84.98L212.25,69.47L215.2,64.02L224.05,63.37L226.99,70.94L229.94,76.19L232.89,79.8L235.84,94.27L247.63,113.23L250.58,104.55L253.53,112.02L256.47,119.06L265.32,118.08L268.27,122.9L271.21,123.54L277.11,163.6L285.95,168.44L288.9,171.65L291.85,158.11L294.8,154.26L297.75,171.48L306.59,184.01L309.54,169.89L312.49,164.54L315.43,148.18L318.38,159.44L327.23,155.31L330.17,158.91L333.12,168.25L336.07,177.88L339.02,172.24L347.86,198.15L350.81,203.06L353.76,185.82L356.71,180.43L368.5,179.35L371.45,160.81L374.39,173.1L377.34,175.14L380.29,156.17L389.13,142.96L392.08,140.39L395.03,141.83L397.98,132.7L400.92,142.13L409.77,140.83L412.72,157.48L415.66,163.06L418.61,160.54L421.56,174.85L430.4,183.16L433.35,161.87L436.3,148.97L439.25,149.8L442.2,156.64L451.04,162.87L453.99,172.8L456.94,151.88L459.88,156.06L462.83,178.74L471.68,162.89L474.62,164.07L477.57,156.25L480.52,152.44L483.47,150.84L492.31,148.03L495.26,159.81L501.16,194.65L504.1,244.35L512.95,306.44L515.9,333.45L518.84,269.55L521.79,244.49L533.58,260.25L536.53,295.33L539.48,272.89L542.43,264.86L545.38,290.24L557.17,257.59L560.12,285.7L563.06,282.88L566.01,271.29L574.86,273.47L577.8,257.29L580.75,248.59L583.7,252.17L586.65,278.46L595.49,271.59L598.44,285.78L601.39,288.27L604.34,279.28L607.28,272.57L616.13,282.11L619.08,276.35L622.02,261.93L624.97,276.29L627.92,255.86L636.76,237.37L639.71,239.74L645.61,204.82L648.55,206.99L657.4,204.98L660.35,212.94L663.29,249.49L666.24,239.05L669.19,236.1L678.03,242.41L680.98,250.39L683.93,249.19L686.88,192.57L689.83,186.66L698.67,199.88L701.62,211.65L704.57,191.99L707.51,189.89L710.46,190.62L719.31,181.94L722.25,174.07L725.2,172.43L728.15,178.16L731.1,193.38L739.94,212.18L742.89,212.25L745.84,221.82L748.79,246.59L751.73,267.82L760.58,232.66L763.53,220.95L766.47,197.44L769.42,185.93L772.37,191.16L781.21,184.33L784.16,179.08L787.11,182.63L793.01,177.73L801.85,183.07L804.8,172.96L810.69,201.92L813.64,169.94L822.49,167.32L825.43,183.45L828.38,197.97L831.33,188.57L834.28,206.04L843.12,184.04L849.02,151.86L851.97,177.45L854.91,199.35L863.76,188L869.65,148.03L872.6,156.22L884.39,160.15L887.34,139.99L890.29,148.48L893.24,168.31L905.03,180.13L907.98,155.07L910.92,161.34L913.87,177.36L916.82,197.76L925.66,188.72L928.61,176.9L931.56,200.42L934.51,170.37L937.46,196.91L949.25,187.93L952.2,234.06L955.14,213.34L958.09,173.96L966.94,175.84L969.88,144.49L972.83,159.22L975.78,141.34L978.73,106.2L987.57,97.48L990.52,120.39L993.47,109.19L996.42,112.49L999.36,121.67L1008.21,105.26L1011.16,116.53L1014.1,125.77L1017.05,138.31L1020,117.48" style="vector-effect: non-scaling-stroke; fill: none; stroke: rgb(171, 99, 250); stroke-opacity: 1; stroke-width: 2px; opacity: 1;"/></g><g class="points"/><g class="text"/></g><g class="trace scatter traceb1a8b7" style="stroke-miterlimit: 2; opacity: 1;"><g class="fills"/><g class="errorbars"/><g class="lines"><path class="js-line" d="M0,28.68L2.95,38.69L5.9,37.77L8.84,66.34L17.69,61.24L20.64,85.24L23.58,100.41L26.53,86.73L29.48,93.65L38.32,68.64L41.27,76.19L44.22,56.05L47.17,68.52L50.12,48.39L58.96,38.48L61.91,44.49L64.86,67.26L67.8,68.71L70.75,73.79L79.6,44.25L82.54,59.71L85.49,83.39L88.44,79.33L100.23,66.35L103.18,64.42L106.13,66.36L109.08,72.75L112.02,86.66L120.87,88.03L123.82,84.66L126.76,79.52L129.71,88.61L132.66,112.52L141.5,84.99L144.45,98.76L147.4,85.03L150.35,78.04L153.29,68.9L162.14,78.51L165.09,63.21L168.03,74.75L170.98,89.49L173.93,70.38L182.77,72.34L185.72,83.16L188.67,88.48L191.62,84.66L194.57,62.94L203.41,80.09L206.36,80.59L209.31,84.71L212.25,69.24L215.2,63.74L224.05,62.76L226.99,70.41L232.89,79.14L235.84,93.97L247.63,112.91L250.58,104.2L256.47,118.71L265.32,117.87L268.27,122.88L271.21,123.7L277.11,164.09L285.95,168.98L288.9,172.01L291.85,158.36L294.8,154.37L297.75,171.6L306.59,183.77L309.54,169.42L312.49,163.87L315.43,147.46L318.38,158.87L327.23,154.79L330.17,158.53L333.12,168.02L336.07,177.28L339.02,172.04L347.86,198.28L350.81,203.2L353.76,185.77L356.71,180.21L368.5,179.33L371.45,160.83L374.39,173.1L377.34,175.29L380.29,156.25L389.13,143.01L392.08,140.28L395.03,141.57L397.98,132.32L400.92,142.31L409.77,141.52L412.72,157.55L415.66,162.95L418.61,160.1L421.56,174.47L430.4,182.83L433.35,161.73L436.3,148.94L439.25,150.07L442.2,156.34L451.04,162.27L453.99,172.22L456.94,150.39L459.88,154.47L462.83,177.16L471.68,161.13L474.62,162.11L477.57,154.58L480.52,150.68L483.47,148.91L492.31,146.2L495.26,157.61L501.16,192.4L504.1,242.15L512.95,304.3L515.9,331.56L518.84,267.76L521.79,242.94L533.58,258.34L536.53,293.16L539.48,270.99L542.43,263.11L545.38,288.6L557.17,255.9L560.12,283.69L563.06,280.93L566.01,269.72L574.86,271.71L577.8,255.26L580.75,246.5L583.7,249.97L586.65,276.25L595.49,269.4L598.44,283.46L601.39,286.28L604.34,278.28L607.28,272.01L616.13,281.25L619.08,275.37L622.02,260.98L624.97,275.69L627.92,255.54L636.76,236.76L639.71,239.16L645.61,204.02L648.55,206.38L657.4,204.15L660.35,212.03L663.29,248.15L666.24,237.83L669.19,234.95L678.03,240.98L680.98,248.74L683.93,247.37L686.88,191.14L689.83,185.25L698.67,198.39L701.62,209.93L704.57,190.56L707.51,188.3L710.46,188.55L719.31,180.61L722.25,173.07L725.2,171.21L728.15,176.86L731.1,192.66L739.94,211.62L742.89,211.41L745.84,221.09L748.79,246.48L751.73,267.13L760.58,232.08L763.53,220.01L766.47,196.31L769.42,184.57L772.37,189.43L781.21,182.37L784.16,177.31L787.11,181.31L793.01,176.18L801.85,181.38L804.8,171.07L810.69,200.07L813.64,167.88L822.49,165.33L825.43,181.74L828.38,196.03L831.33,186.7L834.28,203.94L843.12,182.47L849.02,148.42L851.97,174.4L854.91,196.92L863.76,185.54L869.65,144.75L872.6,152.9L884.39,156.85L887.34,136.53L890.29,145.09L893.24,165.1L905.03,177.34L907.98,152.46L910.92,158.54L913.87,175.24L916.82,195.92L925.66,187.22L928.61,175.03L931.56,198.66L934.51,168.95L937.46,196.08L949.25,186.61L952.2,232.83L955.14,212.51L958.09,173.38L966.94,175.43L969.88,143.94L972.83,159.11L975.78,141.1L978.73,105.73L987.57,96.27L990.52,119.5L993.47,108.22L996.42,110.77L999.36,120.26L1008.21,104.02L1011.16,115.57L1014.1,125.3L1017.05,138.1L1020,117.22" style="vector-effect: non-scaling-stroke; fill: none; stroke: rgb(255, 161, 90); stroke-opacity: 1; stroke-width: 2px; opacity: 1;"/></g><g class="points"/><g class="text"/></g><g class="trace scatter trace09f800" style="stroke-miterlimit: 2; opacity: 1;"><g class="fills"/><g class="errorbars"/><g class="lines"><path class="js-line" d="M0,28.68L2.95,39.56L5.9,35.59L8.84,64.08L17.69,49.89L20.64,83.87L23.58,86.69L26.53,60.15L29.48,75.05L38.32,51.76L41.27,64.86L44.22,41.67L47.17,53.64L50.12,36.42L58.96,37.6L61.91,48.31L64.86,78.19L67.8,82.31L70.75,78.8L79.6,51.87L82.54,72.31L85.49,80.27L88.44,73.63L100.23,61.62L103.18,62.17L106.13,59.41L109.08,53.67L112.02,43.56L120.87,51.8L126.76,37.95L129.71,38.65L132.66,67.19L141.5,45.88L144.45,54.6L147.4,45.54L153.29,41.27L162.14,45.57L165.09,38.2L168.03,45.82L170.98,65.74L173.93,46.99L182.77,42.26L185.72,56.78L188.67,65.59L191.62,57.21L194.57,29.94L203.41,38.71L206.36,42.48L209.31,43.27L212.25,23.69L215.2,21.62L226.99,17.55L229.94,20.31L232.89,20.27L235.84,25.76L247.63,45.21L250.58,32.81L253.53,36.57L256.47,48.36L265.32,45.33L268.27,48.23L271.21,41.66L274.16,59.09L277.11,64.82L285.95,73.29L288.9,73.55L291.85,49.41L294.8,45.43L297.75,59.78L306.59,70.78L309.54,59.21L312.49,56.01L315.43,37.62L318.38,47.82L327.23,37.22L330.17,34.74L333.12,52.92L336.07,60.65L339.02,54.9L347.86,90.67L350.81,88.31L353.76,74.17L356.71,77.01L368.5,81.76L371.45,72.23L374.39,98.94L377.34,95.55L380.29,73.92L389.13,51.73L392.08,43.98L395.03,44.33L397.98,37.17L400.92,40.62L409.77,39.2L412.72,57.69L415.66,64.66L418.61,76.83L421.56,93.51L430.4,106.58L433.35,87.21L436.3,74.84L439.25,75.39L442.2,81.12L451.04,90.48L453.99,95.34L456.94,96.38L459.88,108.71L462.83,113.44L471.68,88.75L474.62,110.43L477.57,110.47L480.52,109.88L483.47,102.82L492.31,95.9L495.26,99.35L498.21,115.96L501.16,152.52L504.1,206.74L512.95,266.83L515.9,287.76L518.84,224.54L521.79,186.83L524.74,188.03L533.58,199.77L536.53,247.73L539.48,217.81L542.43,215.42L545.38,243.24L557.17,203.38L560.12,227.8L563.06,219.95L566.01,209.47L574.86,215.81L577.8,192.44L580.75,178.13L583.7,184.79L586.65,214.42L595.49,201.59L598.44,219.95L601.39,225.11L604.34,233.13L607.28,221.56L616.13,253.5L619.08,248.68L622.02,224.62L624.97,225.92L627.92,205.45L636.76,174.4L639.71,173L645.61,146.39L648.55,142.94L657.4,138.11L660.35,143.21L663.29,159.26L666.24,137.1L669.19,129.52L678.03,128.03L680.98,129.4L683.93,134.35L686.88,101.62L689.83,85.53L698.67,87.95L701.62,92.2L704.57,71.97L707.51,74.39L710.46,83.81L719.31,66.94L722.25,57.81L725.2,62.97L728.15,63.4L731.1,58.61L739.94,76.98L742.89,74.14L745.84,79.86L748.79,105.82L751.73,126.53L760.58,102.25L763.53,101.58L766.47,76.29L769.42,76.74L772.37,67.44L781.21,70.62L784.16,68.63L793.01,68.51L801.85,78.05L804.8,60.85L807.75,77.06L810.69,102.79L813.64,65.01L822.49,76.97L825.43,93.57L828.38,101.3L831.33,92.88L834.28,124.49L843.12,113.94L846.07,97.97L849.02,75.07L851.97,100.94L854.91,138.44L863.76,125.88L866.71,108.96L869.65,90.03L872.6,95.18L884.39,97.63L887.34,77.95L890.29,89.9L893.24,108.17L905.03,136.36L907.98,135.37L910.92,161.12L913.87,201.19L916.82,218.31L925.66,212.99L928.61,200.98L931.56,238.23L934.51,214.98L937.46,254.91L949.25,252.06L952.2,277.51L955.14,265.67L958.09,244.14L966.94,265.41L969.88,236.62L972.83,259.37L975.78,246.58L978.73,206.07L987.57,207.82L990.52,238.01L993.47,219.31L996.42,211.15L999.36,232.76L1008.21,250.93L1011.16,252.22L1014.1,262.4L1017.05,288.4L1020,256.36" style="vector-effect: non-scaling-stroke; fill: none; stroke: rgb(254, 203, 82); stroke-opacity: 1; stroke-width: 2px; opacity: 1;"/></g><g class="points"/><g class="text"/></g></g></g><g class="overplot"/><path class="xlines-above crisp" d="M0,0" style="fill: none;"/><path class="ylines-above crisp" d="M0,0" style="fill: none;"/><g class="overlines-above"/><g class="xaxislayer-above"><g class="xtick"><text text-anchor="middle" x="0" y="424" transform="translate(223.93,0)" style="font-family: 'Open Sans', verdana, arial, sans-serif; font-size: 12px; fill: rgb(42, 63, 95); fill-opacity: 1; white-space: pre; opacity: 1;">May 2015</text></g><g class="xtick"><text text-anchor="middle" x="0" y="424" style="font-family: 'Open Sans', verdana, arial, sans-serif; font-size: 12px; fill: rgb(42, 63, 95); fill-opacity: 1; white-space: pre; opacity: 1;" transform="translate(403.76,0)">Jul 2015</text></g><g class="xtick"><text text-anchor="middle" x="0" y="424" style="font-family: 'Open Sans', verdana, arial, sans-serif; font-size: 12px; fill: rgb(42, 63, 95); fill-opacity: 1; white-space: pre; opacity: 1;" transform="translate(586.53,0)">Sep 2015</text></g><g class="xtick"><text text-anchor="middle" x="0" y="424" style="font-family: 'Open Sans', verdana, arial, sans-serif; font-size: 12px; fill: rgb(42, 63, 95); fill-opacity: 1; white-space: pre; opacity: 1;" transform="translate(766.36,0)">Nov 2015</text></g><g class="xtick"><text text-anchor="middle" x="0" y="424" style="font-family: 'Open Sans', verdana, arial, sans-serif; font-size: 12px; fill: rgb(42, 63, 95); fill-opacity: 1; white-space: pre; opacity: 1;" transform="translate(946.18,0)">Jan 2016</text></g></g><g class="yaxislayer-above"><g class="ytick"><text text-anchor="end" x="49" y="4.199999999999999" transform="translate(0,364.75)" style="font-family: 'Open Sans', verdana, arial, sans-serif; font-size: 12px; fill: rgb(42, 63, 95); fill-opacity: 1; white-space: pre; opacity: 1;">15.5k</text></g><g class="ytick"><text text-anchor="end" x="49" y="4.199999999999999" style="font-family: 'Open Sans', verdana, arial, sans-serif; font-size: 12px; fill: rgb(42, 63, 95); fill-opacity: 1; white-space: pre; opacity: 1;" transform="translate(0,313.69)">16k</text></g><g class="ytick"><text text-anchor="end" x="49" y="4.199999999999999" style="font-family: 'Open Sans', verdana, arial, sans-serif; font-size: 12px; fill: rgb(42, 63, 95); fill-opacity: 1; white-space: pre; opacity: 1;" transform="translate(0,262.63)">16.5k</text></g><g class="ytick"><text text-anchor="end" x="49" y="4.199999999999999" style="font-family: 'Open Sans', verdana, arial, sans-serif; font-size: 12px; fill: rgb(42, 63, 95); fill-opacity: 1; white-space: pre; opacity: 1;" transform="translate(0,211.57)">17k</text></g><g class="ytick"><text text-anchor="end" x="49" y="4.199999999999999" style="font-family: 'Open Sans', verdana, arial, sans-serif; font-size: 12px; fill: rgb(42, 63, 95); fill-opacity: 1; white-space: pre; opacity: 1;" transform="translate(0,160.51)">17.5k</text></g><g class="ytick"><text text-anchor="end" x="49" y="4.199999999999999" style="font-family: 'Open Sans', verdana, arial, sans-serif; font-size: 12px; fill: rgb(42, 63, 95); fill-opacity: 1; white-space: pre; opacity: 1;" transform="translate(0,109.45)">18k</text></g></g><g class="overaxes-above"/></g></g><g class="polarlayer"/><g class="ternarylayer"/><g class="geolayer"/><g class="funnelarealayer"/><g class="pielayer"/><g class="iciclelayer"/><g class="treemaplayer"/><g class="sunburstlayer"/><g class="glimages"/><defs id="topdefs-fda97a"><g class="clips"/><clipPath id="legendfda97a"><rect width="136" height="200" x="0" y="0"/></clipPath></defs><g class="layer-above"><g class="imagelayer"/><g class="shapelayer"/></g><g class="infolayer"><g class="legend" pointer-events="all" transform="translate(1090.4,60)"><rect class="bg" shape-rendering="crispEdges" width="136" height="200" x="0" y="0" style="stroke: rgb(68, 68, 68); stroke-opacity: 1; fill: rgb(255, 255, 255); fill-opacity: 1; stroke-width: 0px;"/><g class="scrollbox" transform="" clip-path="url(#legendfda97a)"><g class="groups"><g class="traces" transform="translate(0,14.5)" style="opacity: 1;"><text class="legendtext" text-anchor="start" x="40" y="4.680000000000001" style="font-family: 'Open Sans', verdana, arial, sans-serif; font-size: 12px; fill: rgb(42, 63, 95); fill-opacity: 1; white-space: pre;">Conic γ=0.1</text><g class="layers" style="opacity: 1;"><g class="legendfill"/><g class="legendlines"><path class="js-line" d="M5,0h30" style="fill: none; stroke: rgb(99, 110, 250); stroke-opacity: 1; stroke-width: 2px;"/></g><g class="legendsymbols"><g class="legendpoints"/></g></g><rect class="legendtoggle" x="0" y="-9.5" width="130.8186798095703" height="19" style="fill: rgb(0, 0, 0); fill-opacity: 0;"/></g><g class="traces" transform="translate(0,33.5)" style="opacity: 1;"><text class="legendtext" text-anchor="start" x="40" y="4.680000000000001" style="font-family: 'Open Sans', verdana, arial, sans-serif; font-size: 12px; fill: rgb(42, 63, 95); fill-opacity: 1; white-space: pre;">Conic γ=3.275</text><g class="layers" style="opacity: 1;"><g class="legendfill"/><g class="legendlines"><path class="js-line" d="M5,0h30" style="fill: none; stroke: rgb(239, 85, 59); stroke-opacity: 1; stroke-width: 2px;"/></g><g class="legendsymbols"><g class="legendpoints"/></g></g><rect class="legendtoggle" x="0" y="-9.5" width="130.8186798095703" height="19" style="fill: rgb(0, 0, 0); fill-opacity: 0;"/></g><g class="traces" transform="translate(0,52.5)" style="opacity: 1;"><text class="legendtext" text-anchor="start" x="40" y="4.680000000000001" style="font-family: 'Open Sans', verdana, arial, sans-serif; font-size: 12px; fill: rgb(42, 63, 95); fill-opacity: 1; white-space: pre;">Conic γ=6.45</text><g class="layers" style="opacity: 1;"><g class="legendfill"/><g class="legendlines"><path class="js-line" d="M5,0h30" style="fill: none; stroke: rgb(0, 204, 150); stroke-opacity: 1; stroke-width: 2px;"/></g><g class="legendsymbols"><g class="legendpoints"/></g></g><rect class="legendtoggle" x="0" y="-9.5" width="130.8186798095703" height="19" style="fill: rgb(0, 0, 0); fill-opacity: 0;"/></g><g class="traces" transform="translate(0,71.5)" style="opacity: 1;"><text class="legendtext" text-anchor="start" x="40" y="4.680000000000001" style="font-family: 'Open Sans', verdana, arial, sans-serif; font-size: 12px; fill: rgb(42, 63, 95); fill-opacity: 1; white-space: pre;">Conic γ=9.625</text><g class="layers" style="opacity: 1;"><g class="legendfill"/><g class="legendlines"><path class="js-line" d="M5,0h30" style="fill: none; stroke: rgb(171, 99, 250); stroke-opacity: 1; stroke-width: 2px;"/></g><g class="legendsymbols"><g class="legendpoints"/></g></g><rect class="legendtoggle" x="0" y="-9.5" width="130.8186798095703" height="19" style="fill: rgb(0, 0, 0); fill-opacity: 0;"/></g><g class="traces" transform="translate(0,90.5)" style="opacity: 1;"><text class="legendtext" text-anchor="start" x="40" y="4.680000000000001" style="font-family: 'Open Sans', verdana, arial, sans-serif; font-size: 12px; fill: rgb(42, 63, 95); fill-opacity: 1; white-space: pre;">Conic γ=12.8</text><g class="layers" style="opacity: 1;"><g class="legendfill"/><g class="legendlines"><path class="js-line" d="M5,0h30" style="fill: none; stroke: rgb(255, 161, 90); stroke-opacity: 1; stroke-width: 2px;"/></g><g class="legendsymbols"><g class="legendpoints"/></g></g><rect class="legendtoggle" x="0" y="-9.5" width="130.8186798095703" height="19" style="fill: rgb(0, 0, 0); fill-opacity: 0;"/></g><g class="traces" transform="translate(0,109.5)" style="opacity: 0.5;"><text class="legendtext" text-anchor="start" x="40" y="4.680000000000001" style="font-family: 'Open Sans', verdana, arial, sans-serif; font-size: 12px; fill: rgb(42, 63, 95); fill-opacity: 1; white-space: pre;">Mean-Variance</text><g class="layers" style="opacity: 1;"><g class="legendfill"/><g class="legendlines"><path class="js-line" d="M5,0h30" style="fill: none; stroke: rgb(25, 211, 243); stroke-opacity: 1; stroke-width: 2px;"/></g><g class="legendsymbols"><g class="legendpoints"/></g></g><rect class="legendtoggle" x="0" y="-9.5" width="130.8186798095703" height="19" style="fill: rgb(0, 0, 0); fill-opacity: 0;"/></g><g class="traces" transform="translate(0,128.5)" style="opacity: 0.5;"><text class="legendtext" text-anchor="start" x="40" y="4.680000000000001" style="font-family: 'Open Sans', verdana, arial, sans-serif; font-size: 12px; fill: rgb(42, 63, 95); fill-opacity: 1; white-space: pre;">Mean-VaR</text><g class="layers" style="opacity: 1;"><g class="legendfill"/><g class="legendlines"><path class="js-line" d="M5,0h30" style="fill: none; stroke: rgb(255, 102, 146); stroke-opacity: 1; stroke-width: 2px;"/></g><g class="legendsymbols"><g class="legendpoints"/></g></g><rect class="legendtoggle" x="0" y="-9.5" width="130.8186798095703" height="19" style="fill: rgb(0, 0, 0); fill-opacity: 0;"/></g><g class="traces" transform="translate(0,147.5)" style="opacity: 0.5;"><text class="legendtext" text-anchor="start" x="40" y="4.680000000000001" style="font-family: 'Open Sans', verdana, arial, sans-serif; font-size: 12px; fill: rgb(42, 63, 95); fill-opacity: 1; white-space: pre;">Mean-CVaR 95%</text><g class="layers" style="opacity: 1;"><g class="legendfill"/><g class="legendlines"><path class="js-line" d="M5,0h30" style="fill: none; stroke: rgb(182, 232, 128); stroke-opacity: 1; stroke-width: 2px;"/></g><g class="legendsymbols"><g class="legendpoints"/></g></g><rect class="legendtoggle" x="0" y="-9.5" width="130.8186798095703" height="19" style="fill: rgb(0, 0, 0); fill-opacity: 0;"/></g><g class="traces" transform="translate(0,166.5)" style="opacity: 0.5;"><text class="legendtext" text-anchor="start" x="40" y="4.680000000000001" style="font-family: 'Open Sans', verdana, arial, sans-serif; font-size: 12px; fill: rgb(42, 63, 95); fill-opacity: 1; white-space: pre;">Mean-CVaR 99%</text><g class="layers" style="opacity: 1;"><g class="legendfill"/><g class="legendlines"><path class="js-line" d="M5,0h30" style="fill: none; stroke: rgb(255, 151, 255); stroke-opacity: 1; stroke-width: 2px;"/></g><g class="legendsymbols"><g class="legendpoints"/></g></g><rect class="legendtoggle" x="0" y="-9.5" width="130.8186798095703" height="19" style="fill: rgb(0, 0, 0); fill-opacity: 0;"/></g><g class="traces" transform="translate(0,185.5)" style="opacity: 1;"><text class="legendtext" text-anchor="start" x="40" y="4.680000000000001" style="font-family: 'Open Sans', verdana, arial, sans-serif; font-size: 12px; fill: rgb(42, 63, 95); fill-opacity: 1; white-space: pre;">DJIA</text><g class="layers" style="opacity: 1;"><g class="legendfill"/><g class="legendlines"><path class="js-line" d="M5,0h30" style="fill: none; stroke: rgb(254, 203, 82); stroke-opacity: 1; stroke-width: 2px;"/></g><g class="legendsymbols"><g class="legendpoints"/></g></g><rect class="legendtoggle" x="0" y="-9.5" width="130.8186798095703" height="19" style="fill: rgb(0, 0, 0); fill-opacity: 0;"/></g></g></g><rect class="scrollbar" rx="20" ry="3" width="0" height="0" x="0" y="0" style="fill: rgb(128, 139, 164); fill-opacity: 1;"/></g><g class="g-gtitle"/><g class="g-xtitle"/><g class="g-ytitle"/></g></svg>