<svg class="main-svg" xmlns="http://www.w3.org/2000/svg" xmlns:xlink="http://www.w3.org/1999/xlink" width="1238" height="461" style=""><rect x="0" y="0" width="1238" height="461" style="fill: rgb(255, 255, 255); fill-opacity: 1;"/><defs id="defs-7b7ff9"><g class="clips"><clipPath id="clip7b7ff9xyplot" class="plotclip"><rect width="1020" height="351"/></clipPath><clipPath class="axesclip" id="clip7b7ff9x"><rect x="50" y="0" width="1020" height="461"/></clipPath><clipPath class="axesclip" id="clip7b7ff9y"><rect x="0" y="60" width="1238" height="351"/></clipPath><clipPath class="axesclip" id="clip7b7ff9xy"><rect x="50" y="60" width="1020" height="351"/></clipPath></g><g class="gradients"/><g class="patterns"/></defs><g class="bglayer"><rect class="bg" x="50" y="60" width="1020" height="351" style="fill: rgb(229, 236, 246); fill-opacity: 1; stroke-width: 0;"/></g><g class="layer-below"><g class="imagelayer"/><g class="shapelayer"/></g><g class="cartesianlayer"><g class="subplot xy"><g class="layer-subplot"><g class="shapelayer"/><g class="imagelayer"/></g><g class="gridlayer"><g class="x"><path class="xgrid crisp" transform="translate(223.93,0)" d="M0,60v351" style="stroke: rgb(255, 255, 255); stroke-opacity: 1; stroke-width: 1px;"/><path class="xgrid crisp" transform="translate(403.76,0)" d="M0,60v351" style="stroke: rgb(255, 255, 255); stroke-opacity: 1; stroke-width: 1px;"/><path class="xgrid crisp" transform="translate(586.53,0)" d="M0,60v351" style="stroke: rgb(255, 255, 255); stroke-opacity: 1; stroke-width: 1px;"/><path class="xgrid crisp" transform="translate(766.36,0)" d="M0,60v351" style="stroke: rgb(255, 255, 255); stroke-opacity: 1; stroke-width: 1px;"/><path class="xgrid crisp" transform="translate(946.18,0)" d="M0,60v351" style="stroke: rgb(255, 255, 255); stroke-opacity: 1; stroke-width: 1px;"/></g><g class="y"><path class="ygrid crisp" transform="translate(0,352.97)" d="M50,0h1020" style="stroke: rgb(255, 255, 255); stroke-opacity: 1; stroke-width: 1px;"/><path class="ygrid crisp" transform="translate(0,293.41999999999996)" d="M50,0h1020" style="stroke: rgb(255, 255, 255); stroke-opacity: 1; stroke-width: 1px;"/><path class="ygrid crisp" transform="translate(0,233.87)" d="M50,0h1020" style="stroke: rgb(255, 255, 255); stroke-opacity: 1; stroke-width: 1px;"/><path class="ygrid crisp" transform="translate(0,174.31)" d="M50,0h1020" style="stroke: rgb(255, 255, 255); stroke-opacity: 1; stroke-width: 1px;"/><path class="ygrid crisp" transform="translate(0,114.75999999999999)" d="M50,0h1020" style="stroke: rgb(255, 255, 255); stroke-opacity: 1; stroke-width: 1px;"/></g></g><g class="zerolinelayer"/><path class="xlines-below"/><path class="ylines-below"/><g class="overlines-below"/><g class="xaxislayer-below"/><g class="yaxislayer-below"/><g class="overaxes-below"/><g class="plot" transform="translate(50,60)" clip-path="url(#clip7b7ff9xyplot)"><g class="scatterlayer mlayer"><g class="trace scatter trace38b8e8" style="stroke-miterlimit: 2; opacity: 1;"><g class="fills"/><g class="errorbars"/><g class="lines"><path class="js-line" d="M0,30.54L2.95,41.82L5.9,40.27L8.84,75.63L17.69,66.07L20.64,96.47L23.58,112.41L26.53,83.79L29.48,91.45L38.32,61.79L41.27,75.33L44.22,55.27L47.17,69.33L50.12,46.36L58.96,33.05L61.91,42.14L64.86,72.32L70.75,81.31L79.6,53.39L85.49,87.57L88.44,83.37L100.23,73.46L103.18,77.19L106.13,71.81L109.08,68.63L112.02,57.99L120.87,67.38L123.82,64.44L126.76,65.49L129.71,73.56L132.66,98.62L141.5,78.1L144.45,90.26L147.4,71.02L150.35,66.58L153.29,55.64L162.14,70.74L165.09,62.1L168.03,73.68L170.98,86.96L173.93,66.28L182.77,67.06L185.72,81.04L188.67,85.67L191.62,79.28L194.57,54.95L203.41,70.4L206.36,70.1L209.31,75.21L212.25,57.62L215.2,51.15L224.05,47.66L226.99,50.04L229.94,55.3L232.89,58.56L235.84,68.6L247.63,87.58L250.58,78.47L253.53,85.83L256.47,97.06L265.32,94.02L268.27,98.18L271.21,94.66L277.11,132.35L285.95,137.89L288.9,138.27L291.85,121.57L294.8,117.13L297.75,134.1L306.59,148.2L309.54,133.53L312.49,125.77L315.43,106.27L318.38,116.75L327.23,109.45L330.17,109.5L333.12,122.14L336.07,132.29L339.02,122.46L347.86,155.54L350.81,160.36L353.76,139.14L356.71,136.08L368.5,137.89L371.45,115.59L374.39,136.4L377.34,134.95L380.29,112.39L389.13,93.32L392.08,88.62L395.03,87.12L397.98,81.25L400.92,88.02L409.77,85.66L412.72,102.85L418.61,114.83L421.56,134.63L430.4,142.38L433.35,121.71L436.3,107.03L439.25,112.15L442.2,112.74L451.04,117.65L453.99,126.17L456.94,111.57L459.88,122.97L462.83,138.22L471.68,118.68L474.62,127.34L477.57,122.46L480.52,121.02L492.31,109.85L495.26,126.08L498.21,140.29L501.16,165.22L504.1,221.62L512.95,296.69L515.9,328.92L518.84,257.46L521.79,220.89L524.74,232.23L533.58,247.48L536.53,292.11L539.48,260.97L542.43,256.84L545.38,287.32L557.17,239.18L560.12,271L563.06,268.59L566.01,252.15L574.86,258.31L577.8,235.74L580.75,224.44L583.7,232.55L586.65,260.85L595.49,250.83L598.44,264.35L601.39,264.75L604.34,261.15L607.28,257.21L616.13,279.9L619.08,270.59L622.02,252.17L624.97,259.64L627.92,238.74L636.76,208.6L639.71,212.3L645.61,180.96L648.55,180.52L657.4,175.99L660.35,182.69L663.29,225.74L666.24,208.33L669.19,198.77L678.03,200.97L683.93,217.14L686.88,162.85L689.83,146.93L698.67,153.55L701.62,160.72L704.57,143.73L707.51,142.17L710.46,153.66L722.25,135.89L725.2,137.64L728.15,138.07L731.1,143.74L739.94,159.42L742.89,155.88L745.84,161.22L748.79,189.53L751.73,213.81L760.58,181.83L763.53,172.59L766.47,144.38L769.42,141.21L772.37,142.15L781.21,142.59L784.16,140L787.11,139.74L793.01,137.05L801.85,148.93L804.8,132.86L810.69,161.58L813.64,121.29L822.49,117.02L825.43,133.3L828.38,144.55L831.33,136.25L834.28,156.73L843.12,139.96L846.07,124.59L849.02,100L854.91,154.92L863.76,139L869.65,101.67L872.6,107.62L884.39,110.05L887.34,87.32L890.29,97.17L893.24,118.5L905.03,136.54L907.98,116.96L910.92,129.41L913.87,150.15L916.82,173.76L925.66,160.75L928.61,155.03L931.56,191.04L934.51,160.15L937.46,192.74L949.25,175.13L952.2,211.42L958.09,163.38L966.94,166.31L969.88,132.62L972.83,140.36L975.78,127.89L978.73,84.71L987.57,76.76L990.52,100.52L993.47,95.97L996.42,99.16L999.36,119.63L1008.21,115.68L1011.16,120.16L1014.1,126.43L1017.05,145.41L1020,119.09" style="vector-effect: non-scaling-stroke; fill: none; stroke: rgb(25, 211, 243); stroke-opacity: 1; stroke-width: 2px; opacity: 1;"/></g><g class="points"/><g class="text"/></g><g class="trace scatter tracec38c51" style="stroke-miterlimit: 2; opacity: 1;"><g class="fills"/><g class="errorbars"/><g class="lines"><path class="js-line" d="M0,30.54L2.95,42.36L5.9,40.3L8.84,76.29L17.69,66.69L20.64,97.58L23.58,113.71L26.53,84.84L29.48,94.09L38.32,64.04L41.27,77.02L44.22,55.74L47.17,69.78L50.12,47.16L58.96,33.63L61.91,43.1L64.86,73.28L70.75,81.73L79.6,53.88L85.49,87.63L88.44,82.83L100.23,72.48L103.18,76.03L109.08,67.72L112.02,57.32L120.87,66.82L123.82,64.14L126.76,65.05L129.71,72.96L132.66,97.08L141.5,75.5L144.45,87.16L147.4,67.59L150.35,62.4L153.29,51.95L162.14,65.62L165.09,56.8L170.98,82.22L173.93,60.91L182.77,61.55L185.72,75.87L188.67,80.96L191.62,74.47L194.57,50.11L203.41,65.87L206.36,66.11L209.31,69.58L212.25,51.04L215.2,45.42L224.05,41.9L226.99,43.54L229.94,48.32L232.89,51.63L235.84,61.75L247.63,80.83L250.58,71.3L253.53,78.38L256.47,90.71L265.32,87.62L268.27,92.01L271.21,88.83L277.11,126.53L285.95,132.1L288.9,132.05L291.85,115.3L294.8,111.17L297.75,128.48L306.59,142.4L309.54,127.18L312.49,119.86L315.43,100.39L318.38,111.02L327.23,103.92L330.17,103.67L333.12,116.26L336.07,125.54L339.02,116.84L347.86,149.86L350.81,154.51L353.76,133.71L356.71,130.42L368.5,132.5L371.45,111.24L374.39,132.27L377.34,131.12L380.29,107.65L389.13,88.86L392.08,84.43L395.03,82.41L397.98,75.7L400.92,82.21L409.77,79.35L412.72,100.2L418.61,113.64L421.56,133.99L430.4,141.76L433.35,121.51L436.3,107.61L439.25,112.85L442.2,113.44L451.04,119.67L453.99,128.47L456.94,114.19L459.88,124.98L462.83,139.88L471.68,120.09L474.62,129.27L477.57,124.28L480.52,124.98L492.31,112.94L495.26,128.09L498.21,142.96L501.16,166.02L504.1,222.19L512.95,296.35L515.9,327.67L518.84,256.08L521.79,220.06L524.74,230.84L533.58,245.16L536.53,290.57L539.48,259.87L542.43,255.68L545.38,286.54L557.17,239.26L560.12,271.14L563.06,268.38L566.01,252.12L574.86,258.14L577.8,235.71L580.75,224.14L583.7,231.83L586.65,260.23L595.49,249.04L598.44,262.66L601.39,263.72L604.34,259.62L607.28,257.26L616.13,278.85L619.08,269.16L622.02,251.16L624.97,259.27L627.92,239.15L636.76,208.76L639.71,212.48L645.61,181.13L648.55,179.99L657.4,175.87L660.35,182.49L663.29,222.32L666.24,205.83L669.19,196.62L678.03,199.85L680.98,210.74L683.93,218.64L686.88,164.94L689.83,149.25L698.67,156.8L701.62,166.54L704.57,149.24L707.51,146.59L710.46,157.35L719.31,145.27L722.25,139.56L725.2,141.92L728.15,142.66L731.1,148.81L739.94,165.6L742.89,161.9L745.84,166.18L748.79,194.81L751.73,218.02L760.58,185.57L763.53,177.2L766.47,149.06L769.42,145.19L772.37,146.23L781.21,145.51L784.16,142.53L787.11,143.47L793.01,140.36L801.85,151.47L804.8,135.77L810.69,163.47L813.64,123.4L822.49,120.12L825.43,136.5L828.38,147.27L831.33,139.31L834.28,159.84L843.12,143.24L846.07,126.66L849.02,102.34L854.91,157.55L863.76,142.72L869.65,104.63L872.6,110.36L884.39,113.54L887.34,91.2L890.29,100.95L893.24,122.4L905.03,140.69L907.98,122.7L910.92,134.68L913.87,156.26L916.82,178.7L925.66,166.67L928.61,160.28L931.56,194.51L934.51,163.43L937.46,195.82L949.25,179.47L952.2,216.89L958.09,169.55L966.94,172.96L969.88,138.72L972.83,145.31L975.78,131.99L978.73,89.18L987.57,81.95L990.52,106.1L993.47,99.64L996.42,100.15L999.36,120.19L1008.21,113.94L1011.16,119.37L1014.1,128.83L1017.05,148.32L1020,121.68" style="vector-effect: non-scaling-stroke; fill: none; stroke: rgb(255, 102, 146); stroke-opacity: 1; stroke-width: 2px; opacity: 1;"/></g><g class="points"/><g class="text"/></g><g class="trace scatter trace97698d" style="stroke-miterlimit: 2; opacity: 1;"><g class="fills"/><g class="errorbars"/><g class="lines"><path class="js-line" d="M0,30.54L2.95,42.43L5.9,40.44L8.84,76.29L17.69,66.75L20.64,97.57L23.58,113.79L26.53,85.02L29.48,94.22L38.32,64.19L41.27,77.1L44.22,55.79L47.17,69.96L50.12,47.38L58.96,33.72L61.91,43.2L64.86,73.42L70.75,81.95L79.6,54.04L85.49,87.86L88.44,83.05L100.23,72.6L103.18,76.19L109.08,68L112.02,57.59L120.87,67.08L123.82,64.32L126.76,65.1L129.71,73.25L132.66,97.35L141.5,75.7L144.45,87.36L147.4,67.74L150.35,62.48L153.29,52.07L162.14,65.58L165.09,56.76L170.98,82.18L173.93,60.79L182.77,61.41L185.72,75.8L188.67,80.93L191.62,74.52L194.57,50.13L203.41,65.99L206.36,66.16L209.31,69.79L212.25,51.21L215.2,45.64L224.05,42.14L226.99,43.99L229.94,48.82L232.89,52L235.84,62.11L247.63,81.31L250.58,71.75L253.53,78.86L256.47,91.2L265.32,88.02L268.27,92.38L271.21,89.21L277.11,126.85L285.95,132.41L288.9,132.36L291.85,115.61L294.8,111.62L297.75,128.95L306.59,142.9L309.54,127.76L312.49,120.39L315.43,101.04L318.38,111.66L327.23,104.53L330.17,104.38L333.12,116.79L336.07,126.21L339.02,117.63L347.86,150.55L350.81,155.21L353.76,134.45L356.71,131.1L368.5,133.14L371.45,111.84L374.39,132.88L377.34,131.9L380.29,108.47L389.13,89.66L392.08,85.31L395.03,83.33L397.98,76.55L400.92,82.92L409.77,80.01L412.72,101.01L415.66,108.91L418.61,114.61L421.56,135.04L430.4,142.91L433.35,122.59L436.3,108.71L439.25,114.08L442.2,114.98L451.04,121.43L453.99,130.45L456.94,116.17L459.88,126.81L462.83,141.84L471.68,121.86L474.62,131.22L477.57,125.95L480.52,126.72L483.47,123.92L492.31,114.81L495.26,130.18L498.21,145.14L501.16,168.22L504.1,224.52L512.95,298.62L515.9,329.84L518.84,258.18L521.79,222.2L524.74,232.97L533.58,247.24L536.53,292.78L539.48,262L542.43,257.87L545.38,288.7L557.17,241.43L560.12,273.36L563.06,270.62L566.01,254.35L574.86,260.35L577.8,238.02L580.75,226.48L583.7,234.25L586.65,262.69L595.49,251.51L598.44,265.12L601.39,266.15L604.34,261.95L607.28,259.66L616.13,281.28L619.08,271.79L622.02,253.77L624.97,261.9L627.92,241.76L636.76,211.46L639.71,215.03L645.61,183.8L648.55,182.69L657.4,178.75L660.35,185.42L663.29,225.61L666.24,209.19L669.19,200.06L678.03,203.38L680.98,214.46L683.93,222.29L686.88,168.59L689.83,152.78L698.67,160.54L701.62,170.46L704.57,152.97L707.51,150.28L710.46,161.01L719.31,148.78L722.25,142.82L725.2,145.07L728.15,146.05L731.1,152.12L739.94,168.91L742.89,165.4L745.84,169.82L748.79,198.43L751.73,221.55L760.58,189.05L763.53,180.62L766.47,152.49L769.42,148.54L772.37,149.79L781.21,149.14L784.16,146.08L787.11,147.1L793.01,144.08L801.85,155.11L804.8,139.53L807.75,155.46L810.69,167.15L813.64,127.26L822.49,123.99L825.43,140.51L828.38,151.23L831.33,143.24L834.28,163.78L843.12,147.2L846.07,130.69L849.02,106.52L851.97,132.99L854.91,161.77L863.76,146.95L869.65,108.85L872.6,114.6L884.39,117.85L887.34,95.51L890.29,105.23L893.24,126.59L905.03,144.63L907.98,126.69L910.92,138.62L913.87,160L916.82,182.46L925.66,170.4L928.61,164.11L931.56,198.23L934.51,166.96L937.46,199.31L949.25,183.23L952.2,220.83L958.09,173.33L966.94,176.85L969.88,142.73L972.83,149.86L975.78,136.51L978.73,93.7L987.57,86.59L990.52,110.73L993.47,104.04L996.42,104.45L999.36,124.01L1008.21,117.65L1011.16,123.28L1014.1,132.87L1017.05,152.6L1020,126.07" style="vector-effect: non-scaling-stroke; fill: none; stroke: rgb(182, 232, 128); stroke-opacity: 1; stroke-width: 2px; opacity: 1;"/></g><g class="points"/><g class="text"/></g><g class="trace scatter trace1afca3" style="stroke-miterlimit: 2; opacity: 1;"><g class="fills"/><g class="errorbars"/><g class="lines"><path class="js-line" d="M0,30.54L2.95,43.11L5.9,41.05L8.84,76.67L17.69,66.96L20.64,98.34L23.58,114.59L26.53,85.54L29.48,95.38L38.32,65.38L41.27,77.37L44.22,55.96L47.17,69.96L50.12,47.27L58.96,34.79L61.91,43.69L64.86,73.93L70.75,82.76L79.6,54.72L85.49,88.08L88.44,82.95L100.23,71.81L103.18,75.92L109.08,68.46L112.02,59.1L120.87,68.14L123.82,65.1L126.76,65.76L129.71,73.64L132.66,98.56L141.5,75.86L144.45,87.52L147.4,67.94L150.35,62.77L153.29,52.75L162.14,65.22L165.09,54.75L170.98,80.31L173.93,58.86L182.77,59.16L185.72,73.58L188.67,78.73L191.62,72.31L194.57,48.4L203.41,64.47L206.36,64.99L209.31,67.78L212.25,48.97L215.2,43.77L224.05,40.78L226.99,43.03L229.94,47.68L232.89,50.85L235.84,60.99L247.63,80.45L250.58,70.48L253.53,77.48L256.47,89.6L265.32,86.29L268.27,90.82L271.21,87.55L277.11,126.16L285.95,131.64L288.9,131.7L291.85,114.74L294.8,110.95L297.75,128.48L306.59,142.54L309.54,127.05L312.49,119.68L315.43,100.56L318.38,111.59L327.23,104.12L330.17,103.93L333.12,116.66L336.07,125.9L339.02,117.49L347.86,150.72L350.81,155.48L353.76,134.3L356.71,130.76L368.5,132.64L371.45,111.42L374.39,132.56L377.34,132.18L380.29,108.52L389.13,90.03L392.08,85.28L395.03,83.39L397.98,75.78L400.92,81.84L409.77,78.66L412.72,100.97L415.66,109.65L418.61,115.16L421.56,135.43L430.4,143.4L433.35,124.46L436.3,110.66L439.25,116.02L442.2,116.2L451.04,122.47L453.99,131.53L456.94,116.99L459.88,127.11L462.83,142.33L471.68,122.38L474.62,132.04L477.57,126.86L480.52,127.41L483.47,124.31L492.31,115.43L495.26,130.46L498.21,145.72L501.16,169.71L504.1,225.85L512.95,299.27L515.9,330.88L518.84,259.54L521.79,224.09L524.74,233.46L533.58,247.81L536.53,293.3L539.48,263.07L542.43,258.58L545.38,289.63L557.17,243.17L560.12,274.68L563.06,271.93L566.01,256.12L574.86,261.86L577.8,239.27L580.75,227.32L583.7,235.38L586.65,264.18L595.49,252.85L598.44,267.07L601.39,268.44L604.34,264.28L607.28,261.33L616.13,282.95L619.08,274.38L622.02,256.12L624.97,265.18L627.92,245.8L636.76,214.84L639.71,218.42L645.61,186.61L648.55,185.36L657.4,181.82L660.35,189.08L663.29,229.28L666.24,213.88L669.19,205.29L678.03,208.52L680.98,219.62L683.93,226.46L686.88,172.52L689.83,157.56L698.67,165.45L701.62,176.29L704.57,158.07L707.51,155.05L710.46,165.11L719.31,154.49L722.25,148.54L725.2,150.16L728.15,151.34L731.1,157.67L739.94,174.5L742.89,171.34L745.84,175.97L748.79,204.29L751.73,226.95L760.58,194.14L763.53,185.54L766.47,157.31L769.42,151.54L772.37,153.4L781.21,151.92L784.16,149.38L787.11,151.38L793.01,148.21L801.85,159.59L804.8,144.05L810.69,171.34L813.64,131.27L822.49,128.01L825.43,144.37L828.38,155.83L831.33,147.44L834.28,168.49L843.12,152.31L846.07,135.93L849.02,111.09L854.91,167.77L863.76,152.97L869.65,114.2L872.6,120.18L884.39,123.14L887.34,100.77L890.29,110.46L893.24,131.9L905.03,149.71L907.98,132.14L910.92,144.03L913.87,166.06L916.82,188.16L925.66,175.7L928.61,168.86L931.56,203.05L934.51,172.68L937.46,204.88L949.25,188.82L952.2,226.85L958.09,179.09L966.94,182.43L969.88,150.08L972.83,159.07L975.78,145.97L978.73,102.81L987.57,94.96L990.52,119.67L993.47,112.58L996.42,112.5L999.36,129.95L1008.21,124.15L1011.16,130.19L1014.1,141.08L1017.05,161.93L1020,134.98" style="vector-effect: non-scaling-stroke; fill: none; stroke: rgb(255, 151, 255); stroke-opacity: 1; stroke-width: 2px; opacity: 1;"/></g><g class="points"/><g class="text"/></g><g class="trace scatter tracefdf60b" style="stroke-miterlimit: 2; opacity: 1;"><g class="fills"/><g class="errorbars"/><g class="lines"><path class="js-line" d="M0,30.54L2.95,43.22L5.9,38.59L8.84,71.82L17.69,55.27L20.64,94.9L23.58,98.19L26.53,67.24L29.48,84.62L38.32,57.45L41.27,72.73L44.22,45.68L47.17,59.64L50.12,39.55L58.96,40.94L61.91,53.43L64.86,88.28L67.8,93.08L70.75,88.98L79.6,57.58L82.54,81.42L85.49,90.71L88.44,82.96L100.23,68.95L103.18,69.6L106.13,66.37L109.08,59.67L112.02,47.89L120.87,57.49L123.82,50.39L126.76,41.35L129.71,42.16L132.66,75.45L141.5,50.6L144.45,60.76L147.4,50.2L150.35,47.77L153.29,45.21L162.14,50.24L165.09,41.64L168.03,50.53L170.98,73.75L173.93,51.89L182.77,46.37L185.72,63.31L188.67,73.58L191.62,63.8L194.57,32L203.41,42.23L206.36,46.63L209.31,47.55L212.25,24.71L215.2,22.29L226.99,17.55L229.94,20.76L232.89,20.72L235.84,27.12L247.63,49.81L250.58,35.34L253.53,39.74L256.47,53.49L265.32,49.95L268.27,53.34L271.21,45.67L274.16,66L277.11,72.69L285.95,82.56L288.9,82.86L291.85,54.71L294.8,50.07L297.75,66.81L306.59,79.63L309.54,66.14L312.49,62.41L315.43,40.96L318.38,52.86L327.23,40.49L330.17,37.6L333.12,58.8L336.07,67.82L339.02,61.11L347.86,102.84L350.81,100.08L353.76,83.59L356.71,86.9L368.5,92.45L371.45,81.33L374.39,112.48L377.34,108.52L380.29,83.3L389.13,57.42L392.08,48.38L395.03,48.78L397.98,40.44L400.92,44.46L409.77,42.8L412.72,64.37L415.66,72.5L418.61,86.69L421.56,106.15L430.4,121.39L433.35,98.8L436.3,84.37L439.25,85.01L442.2,91.7L451.04,102.62L453.99,108.27L456.94,109.49L459.88,123.87L462.83,129.39L471.68,100.59L474.62,125.88L477.57,125.92L480.52,125.24L483.47,117L492.31,108.93L495.26,112.96L498.21,132.33L501.16,174.98L504.1,238.21L512.95,308.3L515.9,332.7L518.84,258.97L521.79,214.99L524.74,216.39L533.58,230.08L536.53,286.02L539.48,251.12L542.43,248.34L545.38,280.78L557.17,234.29L560.12,262.77L563.06,253.62L566.01,241.39L574.86,248.79L577.8,221.53L580.75,204.84L583.7,212.61L586.65,247.17L595.49,232.21L598.44,253.61L601.39,259.64L604.34,269L607.28,255.49L616.13,292.75L619.08,287.12L622.02,259.06L624.97,260.58L627.92,236.71L636.76,200.5L639.71,198.86L645.61,167.82L648.55,163.8L657.4,158.16L660.35,164.11L663.29,182.83L666.24,156.98L669.19,148.14L678.03,146.41L680.98,148.01L683.93,153.78L686.88,115.6L689.83,96.84L698.67,99.66L701.62,104.61L704.57,81.02L707.51,83.84L710.46,94.83L719.31,75.15L722.25,64.51L725.2,70.53L728.15,71.02L731.1,65.44L739.94,86.86L742.89,83.56L745.84,90.23L748.79,120.5L751.73,144.66L760.58,116.34L763.53,115.56L766.47,86.06L769.42,86.59L772.37,75.74L781.21,79.45L784.16,77.13L793.01,76.98L801.85,88.12L804.8,68.06L807.75,86.96L810.69,116.97L813.64,72.91L822.49,86.86L825.43,106.21L828.38,115.23L831.33,105.41L834.28,142.28L843.12,129.98L846.07,111.35L849.02,84.64L851.97,114.81L854.91,158.56L863.76,143.9L866.71,124.17L869.65,102.09L872.6,108.1L884.39,110.95L887.34,87.99L890.29,101.94L893.24,123.24L905.03,156.13L907.98,154.97L910.92,185L913.87,231.74L916.82,251.71L925.66,245.5L928.61,231.49L931.56,274.94L934.51,247.83L937.46,294.39L949.25,291.07L952.2,320.76L955.14,306.95L958.09,281.84L966.94,306.65L969.88,273.06L972.83,299.59L975.78,284.68L978.73,237.43L987.57,239.47L990.52,274.69L993.47,252.88L996.42,243.36L999.36,268.56L1008.21,289.75L1011.16,291.26L1014.1,303.13L1017.05,333.45L1020,296.09" style="vector-effect: non-scaling-stroke; fill: none; stroke: rgb(254, 203, 82); stroke-opacity: 1; stroke-width: 2px; opacity: 1;"/></g><g class="points"/><g class="text"/></g></g></g><g class="overplot"/><path class="xlines-above crisp" d="M0,0" style="fill: none;"/><path class="ylines-above crisp" d="M0,0" style="fill: none;"/><g class="overlines-above"/><g class="xaxislayer-above"><g class="xtick"><text text-anchor="middle" x="0" y="424" transform="translate(223.93,0)" style="font-family: 'Open Sans', verdana, arial, sans-serif; font-size: 12px; fill: rgb(42, 63, 95); fill-opacity: 1; white-space: pre; opacity: 1;">May 2015</text></g><g class="xtick"><text text-anchor="middle" x="0" y="424" style="font-family: 'Open Sans', verdana, arial, sans-serif; font-size: 12px; fill: rgb(42, 63, 95); fill-opacity: 1; white-space: pre; opacity: 1;" transform="translate(403.76,0)">Jul 2015</text></g><g class="xtick"><text text-anchor="middle" x="0" y="424" style="font-family: 'Open Sans', verdana, arial, sans-serif; font-size: 12px; fill: rgb(42, 63, 95); fill-opacity: 1; white-space: pre; opacity: 1;" transform="translate(586.53,0)">Sep 2015</text></g><g class="xtick"><text text-anchor="middle" x="0" y="424" style="font-family: 'Open Sans', verdana, arial, sans-serif; font-size: 12px; fill: rgb(42, 63, 95); fill-opacity: 1; white-space: pre; opacity: 1;" transform="translate(766.36,0)">Nov 2015</text></g><g class="xtick"><text text-anchor="middle" x="0" y="424" style="font-family: 'Open Sans', verdana, arial, sans-serif; font-size: 12px; fill: rgb(42, 63, 95); fill-opacity: 1; white-space: pre; opacity: 1;" transform="translate(946.18,0)">Jan 2016</text></g></g><g class="yaxislayer-above"><g class="ytick"><text text-anchor="end" x="49" y="4.199999999999999" transform="translate(0,352.97)" style="font-family: 'Open Sans', verdana, arial, sans-serif; font-size: 12px; fill: rgb(42, 63, 95); fill-opacity: 1; white-space: pre; opacity: 1;">16k</text></g><g class="ytick"><text text-anchor="end" x="49" y="4.199999999999999" style="font-family: 'Open Sans', verdana, arial, sans-serif; font-size: 12px; fill: rgb(42, 63, 95); fill-opacity: 1; white-space: pre; opacity: 1;" transform="translate(0,293.41999999999996)">16.5k</text></g><g class="ytick"><text text-anchor="end" x="49" y="4.199999999999999" style="font-family: 'Open Sans', verdana, arial, sans-serif; font-size: 12px; fill: rgb(42, 63, 95); fill-opacity: 1; white-space: pre; opacity: 1;" transform="translate(0,233.87)">17k</text></g><g class="ytick"><text text-anchor="end" x="49" y="4.199999999999999" style="font-family: 'Open Sans', verdana, arial, sans-serif; font-size: 12px; fill: rgb(42, 63, 95); fill-opacity: 1; white-space: pre; opacity: 1;" transform="translate(0,174.31)">17.5k</text></g><g class="ytick"><text text-anchor="end" x="49" y="4.199999999999999" style="font-family: 'Open Sans', verdana, arial, sans-serif; font-size: 12px; fill: rgb(42, 63, 95); fill-opacity: 1; white-space: pre; opacity: 1;" transform="translate(0,114.75999999999999)">18k</text></g></g><g class="overaxes-above"/></g></g><g class="polarlayer"/><g class="ternarylayer"/><g class="geolayer"/><g class="funnelarealayer"/><g class="pielayer"/><g class="iciclelayer"/><g class="treemaplayer"/><g class="sunburstlayer"/><g class="glimages"/><defs id="topdefs-7b7ff9"><g class="clips"/><clipPath id="legend7b7ff9"><rect width="136" height="200" x="0" y="0"/></clipPath></defs><g class="layer-above"><g class="imagelayer"/><g class="shapelayer"/></g><g class="infolayer"><g class="legend" pointer-events="all" transform="translate(1090.4,60)"><rect class="bg" shape-rendering="crispEdges" width="136" height="200" x="0" y="0" style="stroke: rgb(68, 68, 68); stroke-opacity: 1; fill: rgb(255, 255, 255); fill-opacity: 1; stroke-width: 0px;"/><g class="scrollbox" transform="" clip-path="url(#legend7b7ff9)"><g class="groups"><g class="traces" transform="translate(0,14.5)" style="opacity: 0.5;"><text class="legendtext" text-anchor="start" x="40" y="4.680000000000001" style="font-family: 'Open Sans', verdana, arial, sans-serif; font-size: 12px; fill: rgb(42, 63, 95); fill-opacity: 1; white-space: pre;">Conic γ=0.1</text><g class="layers" style="opacity: 1;"><g class="legendfill"/><g class="legendlines"><path class="js-line" d="M5,0h30" style="fill: none; stroke: rgb(99, 110, 250); stroke-opacity: 1; stroke-width: 2px;"/></g><g class="legendsymbols"><g class="legendpoints"/></g></g><rect class="legendtoggle" x="0" y="-9.5" width="130.8186798095703" height="19" style="fill: rgb(0, 0, 0); fill-opacity: 0;"/></g><g class="traces" transform="translate(0,33.5)" style="opacity: 0.5;"><text class="legendtext" text-anchor="start" x="40" y="4.680000000000001" style="font-family: 'Open Sans', verdana, arial, sans-serif; font-size: 12px; fill: rgb(42, 63, 95); fill-opacity: 1; white-space: pre;">Conic γ=3.275</text><g class="layers" style="opacity: 1;"><g class="legendfill"/><g class="legendlines"><path class="js-line" d="M5,0h30" style="fill: none; stroke: rgb(239, 85, 59); stroke-opacity: 1; stroke-width: 2px;"/></g><g class="legendsymbols"><g class="legendpoints"/></g></g><rect class="legendtoggle" x="0" y="-9.5" width="130.8186798095703" height="19" style="fill: rgb(0, 0, 0); fill-opacity: 0;"/></g><g class="traces" transform="translate(0,52.5)" style="opacity: 0.5;"><text class="legendtext" text-anchor="start" x="40" y="4.680000000000001" style="font-family: 'Open Sans', verdana, arial, sans-serif; font-size: 12px; fill: rgb(42, 63, 95); fill-opacity: 1; white-space: pre;">Conic γ=6.45</text><g class="layers" style="opacity: 1;"><g class="legendfill"/><g class="legendlines"><path class="js-line" d="M5,0h30" style="fill: none; stroke: rgb(0, 204, 150); stroke-opacity: 1; stroke-width: 2px;"/></g><g class="legendsymbols"><g class="legendpoints"/></g></g><rect class="legendtoggle" x="0" y="-9.5" width="130.8186798095703" height="19" style="fill: rgb(0, 0, 0); fill-opacity: 0;"/></g><g class="traces" transform="translate(0,71.5)" style="opacity: 0.5;"><text class="legendtext" text-anchor="start" x="40" y="4.680000000000001" style="font-family: 'Open Sans', verdana, arial, sans-serif; font-size: 12px; fill: rgb(42, 63, 95); fill-opacity: 1; white-space: pre;">Conic γ=9.625</text><g class="layers" style="opacity: 1;"><g class="legendfill"/><g class="legendlines"><path class="js-line" d="M5,0h30" style="fill: none; stroke: rgb(171, 99, 250); stroke-opacity: 1; stroke-width: 2px;"/></g><g class="legendsymbols"><g class="legendpoints"/></g></g><rect class="legendtoggle" x="0" y="-9.5" width="130.8186798095703" height="19" style="fill: rgb(0, 0, 0); fill-opacity: 0;"/></g><g class="traces" transform="translate(0,90.5)" style="opacity: 0.5;"><text class="legendtext" text-anchor="start" x="40" y="4.680000000000001" style="font-family: 'Open Sans', verdana, arial, sans-serif; font-size: 12px; fill: rgb(42, 63, 95); fill-opacity: 1; white-space: pre;">Conic γ=12.8</text><g class="layers" style="opacity: 1;"><g class="legendfill"/><g class="legendlines"><path class="js-line" d="M5,0h30" style="fill: none; stroke: rgb(255, 161, 90); stroke-opacity: 1; stroke-width: 2px;"/></g><g class="legendsymbols"><g class="legendpoints"/></g></g><rect class="legendtoggle" x="0" y="-9.5" width="130.8186798095703" height="19" style="fill: rgb(0, 0, 0); fill-opacity: 0;"/></g><g class="traces" transform="translate(0,109.5)" style="opacity: 1;"><text class="legendtext" text-anchor="start" x="40" y="4.680000000000001" style="font-family: 'Open Sans', verdana, arial, sans-serif; font-size: 12px; fill: rgb(42, 63, 95); fill-opacity: 1; white-space: pre;">Mean-Variance</text><g class="layers" style="opacity: 1;"><g class="legendfill"/><g class="legendlines"><path class="js-line" d="M5,0h30" style="fill: none; stroke: rgb(25, 211, 243); stroke-opacity: 1; stroke-width: 2px;"/></g><g class="legendsymbols"><g class="legendpoints"/></g></g><rect class="legendtoggle" x="0" y="-9.5" width="130.8186798095703" height="19" style="fill: rgb(0, 0, 0); fill-opacity: 0;"/></g><g class="traces" transform="translate(0,128.5)" style="opacity: 1;"><text class="legendtext" text-anchor="start" x="40" y="4.680000000000001" style="font-family: 'Open Sans', verdana, arial, sans-serif; font-size: 12px; fill: rgb(42, 63, 95); fill-opacity: 1; white-space: pre;">Mean-VaR</text><g class="layers" style="opacity: 1;"><g class="legendfill"/><g class="legendlines"><path class="js-line" d="M5,0h30" style="fill: none; stroke: rgb(255, 102, 146); stroke-opacity: 1; stroke-width: 2px;"/></g><g class="legendsymbols"><g class="legendpoints"/></g></g><rect class="legendtoggle" x="0" y="-9.5" width="130.8186798095703" height="19" style="fill: rgb(0, 0, 0); fill-opacity: 0;"/></g><g class="traces" transform="translate(0,147.5)" style="opacity: 1;"><text class="legendtext" text-anchor="start" x="40" y="4.680000000000001" style="font-family: 'Open Sans', verdana, arial, sans-serif; font-size: 12px; fill: rgb(42, 63, 95); fill-opacity: 1; white-space: pre;">Mean-CVaR 95%</text><g class="layers" style="opacity: 1;"><g class="legendfill"/><g class="legendlines"><path class="js-line" d="M5,0h30" style="fill: none; stroke: rgb(182, 232, 128); stroke-opacity: 1; stroke-width: 2px;"/></g><g class="legendsymbols"><g class="legendpoints"/></g></g><rect class="legendtoggle" x="0" y="-9.5" width="130.8186798095703" height="19" style="fill: rgb(0, 0, 0); fill-opacity: 0;"/></g><g class="traces" transform="translate(0,166.5)" style="opacity: 1;"><text class="legendtext" text-anchor="start" x="40" y="4.680000000000001" style="font-family: 'Open Sans', verdana, arial, sans-serif; font-size: 12px; fill: rgb(42, 63, 95); fill-opacity: 1; white-space: pre;">Mean-CVaR 99%</text><g class="layers" style="opacity: 1;"><g class="legendfill"/><g class="legendlines"><path class="js-line" d="M5,0h30" style="fill: none; stroke: rgb(255, 151, 255); stroke-opacity: 1; stroke-width: 2px;"/></g><g class="legendsymbols"><g class="legendpoints"/></g></g><rect class="legendtoggle" x="0" y="-9.5" width="130.8186798095703" height="19" style="fill: rgb(0, 0, 0); fill-opacity: 0;"/></g><g class="traces" transform="translate(0,185.5)" style="opacity: 1;"><text class="legendtext" text-anchor="start" x="40" y="4.680000000000001" style="font-family: 'Open Sans', verdana, arial, sans-serif; font-size: 12px; fill: rgb(42, 63, 95); fill-opacity: 1; white-space: pre;">DJIA</text><g class="layers" style="opacity: 1;"><g class="legendfill"/><g class="legendlines"><path class="js-line" d="M5,0h30" style="fill: none; stroke: rgb(254, 203, 82); stroke-opacity: 1; stroke-width: 2px;"/></g><g class="legendsymbols"><g class="legendpoints"/></g></g><rect class="legendtoggle" x="0" y="-9.5" width="130.8186798095703" height="19" style="fill: rgb(0, 0, 0); fill-opacity: 0;"/></g></g></g><rect class="scrollbar" rx="20" ry="3" width="0" height="0" x="0" y="0" style="fill: rgb(128, 139, 164); fill-opacity: 1;"/></g><g class="g-gtitle"/><g class="g-xtitle"/><g class="g-ytitle"/></g></svg>