<svg class="main-svg" xmlns="http://www.w3.org/2000/svg" xmlns:xlink="http://www.w3.org/1999/xlink" width="1238" height="461" style=""><rect x="0" y="0" width="1238" height="461" style="fill: rgb(255, 255, 255); fill-opacity: 1;"/><defs id="defs-d00513"><g class="clips"><clipPath id="clipd00513xyplot" class="plotclip"><rect width="1020" height="351"/></clipPath><clipPath class="axesclip" id="clipd00513x"><rect x="50" y="0" width="1020" height="461"/></clipPath><clipPath class="axesclip" id="clipd00513y"><rect x="0" y="60" width="1238" height="351"/></clipPath><clipPath class="axesclip" id="clipd00513xy"><rect x="50" y="60" width="1020" height="351"/></clipPath></g><g class="gradients"/><g class="patterns"/></defs><g class="bglayer"><rect class="bg" x="50" y="60" width="1020" height="351" style="fill: rgb(229, 236, 246); fill-opacity: 1; stroke-width: 0;"/></g><g class="layer-below"><g class="imagelayer"/><g class="shapelayer"/></g><g class="cartesianlayer"><g class="subplot xy"><g class="layer-subplot"><g class="shapelayer"/><g class="imagelayer"/></g><g class="gridlayer"><g class="x"><path class="xgrid crisp" transform="translate(66.26,0)" d="M0,60v351" style="stroke: rgb(255, 255, 255); stroke-opacity: 1; stroke-width: 1px;"/><path class="xgrid crisp" transform="translate(173.14,0)" d="M0,60v351" style="stroke: rgb(255, 255, 255); stroke-opacity: 1; stroke-width: 1px;"/><path class="xgrid crisp" transform="translate(277.7,0)" d="M0,60v351" style="stroke: rgb(255, 255, 255); stroke-opacity: 1; stroke-width: 1px;"/><path class="xgrid crisp" transform="translate(383.42,0)" d="M0,60v351" style="stroke: rgb(255, 255, 255); stroke-opacity: 1; stroke-width: 1px;"/><path class="xgrid crisp" transform="translate(490.3,0)" d="M0,60v351" style="stroke: rgb(255, 255, 255); stroke-opacity: 1; stroke-width: 1px;"/><path class="xgrid crisp" transform="translate(597.18,0)" d="M0,60v351" style="stroke: rgb(255, 255, 255); stroke-opacity: 1; stroke-width: 1px;"/><path class="xgrid crisp" transform="translate(701.73,0)" d="M0,60v351" style="stroke: rgb(255, 255, 255); stroke-opacity: 1; stroke-width: 1px;"/><path class="xgrid crisp" transform="translate(807.45,0)" d="M0,60v351" style="stroke: rgb(255, 255, 255); stroke-opacity: 1; stroke-width: 1px;"/><path class="xgrid crisp" transform="translate(914.33,0)" d="M0,60v351" style="stroke: rgb(255, 255, 255); stroke-opacity: 1; stroke-width: 1px;"/><path class="xgrid crisp" transform="translate(1021.21,0)" d="M0,60v351" style="stroke: rgb(255, 255, 255); stroke-opacity: 1; stroke-width: 1px;"/></g><g class="y"><path class="ygrid crisp" transform="translate(0,373.48)" d="M50,0h1020" style="stroke: rgb(255, 255, 255); stroke-opacity: 1; stroke-width: 1px;"/><path class="ygrid crisp" transform="translate(0,328.81)" d="M50,0h1020" style="stroke: rgb(255, 255, 255); stroke-opacity: 1; stroke-width: 1px;"/><path class="ygrid crisp" transform="translate(0,284.14)" d="M50,0h1020" style="stroke: rgb(255, 255, 255); stroke-opacity: 1; stroke-width: 1px;"/><path class="ygrid crisp" transform="translate(0,239.47)" d="M50,0h1020" style="stroke: rgb(255, 255, 255); stroke-opacity: 1; stroke-width: 1px;"/><path class="ygrid crisp" transform="translate(0,194.8)" d="M50,0h1020" style="stroke: rgb(255, 255, 255); stroke-opacity: 1; stroke-width: 1px;"/><path class="ygrid crisp" transform="translate(0,150.13)" d="M50,0h1020" style="stroke: rgb(255, 255, 255); stroke-opacity: 1; stroke-width: 1px;"/><path class="ygrid crisp" transform="translate(0,105.46000000000001)" d="M50,0h1020" style="stroke: rgb(255, 255, 255); stroke-opacity: 1; stroke-width: 1px;"/></g></g><g class="zerolinelayer"/><path class="xlines-below"/><path class="ylines-below"/><g class="overlines-below"/><g class="xaxislayer-below"/><g class="yaxislayer-below"/><g class="overaxes-below"/><g class="plot" transform="translate(50,60)" clip-path="url(#clipd00513xyplot)"><g class="scatterlayer mlayer"><g class="trace scatter tracedf4b91" style="stroke-miterlimit: 2; opacity: 1;"><g class="fills"/><g class="errorbars"/><g class="lines"><path class="js-line" d="M0,266.16L1.16,251.92L2.32,256.01L3.49,267.59L6.97,264.26L9.29,281.03L10.46,275.18L11.62,285.11L15.1,296.97L16.26,291.37L17.43,296.48L18.59,303.45L19.75,300.96L23.23,308.81L24.4,313.99L25.56,312.58L26.72,289.96L27.88,282.64L31.37,280.42L32.53,290.46L33.69,270.83L36.01,267.19L39.5,269.89L40.66,256.77L41.82,260.49L42.98,256.79L44.15,259.13L47.63,251.4L48.79,241.28L49.95,247.27L51.12,249.33L52.28,243.83L55.76,237.61L56.92,242.18L58.09,229.48L59.25,237.98L60.41,230.1L65.06,225.47L66.22,221.14L68.54,213.93L72.03,212.02L73.19,210.54L74.35,213.82L75.51,210.78L76.67,205.31L80.16,201.36L81.32,205.48L82.48,203.81L84.81,203.3L88.29,211.64L89.45,209.79L91.78,224.66L92.94,207.39L96.42,209.11L97.59,218.13L98.75,227.02L99.91,242.74L101.07,244.75L104.56,237.32L105.72,249.01L106.88,225.8L108.04,231.64L109.2,227.74L112.69,222.17L113.85,218.67L116.17,210.54L117.33,209.86L121.98,207.37L124.31,217.68L125.47,219.41L128.95,221.42L130.11,208.8L131.28,219.14L132.44,222.37L133.6,220.76L137.08,230.63L138.25,222.02L139.41,215.88L140.57,217.85L141.73,226.45L146.38,230.2L148.7,243.56L149.86,258.04L154.51,262.78L155.67,276.08L156.83,269.8L158,274.58L161.48,300.22L162.64,294.83L163.8,290.88L164.97,280.81L166.13,267.56L169.61,264.68L170.77,249.19L171.94,254.14L174.26,238.62L178.91,246.91L180.07,251.85L181.23,247.37L182.39,251.32L185.88,250.73L187.04,250.87L188.2,248.13L190.52,237.21L194.01,247.49L195.17,230.97L196.33,237.2L198.66,231.98L202.14,233.6L203.3,223.97L204.46,223.29L205.63,236.69L206.79,240.48L211.44,226.13L212.6,237.01L213.76,226.69L214.92,228.02L218.41,222.26L219.57,210.47L220.73,215.79L221.89,213.57L223.05,209.13L226.54,199.92L230.02,197.51L231.18,200.25L234.67,203.24L235.83,194.45L236.99,186.78L238.15,198.63L239.32,204.01L242.8,195.06L245.13,184.44L246.29,185.59L250.93,181.34L252.1,181.88L253.26,183.29L254.42,179.5L255.58,177.31L259.07,161.1L260.23,156.11L261.39,154.96L262.55,157.6L263.71,163.05L267.2,163.3L268.36,172.22L269.52,160.88L270.68,160.09L271.85,153.71L275.33,152.92L276.49,149.96L277.65,155.98L278.82,169.21L279.98,161.65L283.46,164.38L284.62,173.01L285.79,162.62L286.95,162.61L288.11,161.27L292.76,160.19L293.92,165.89L295.08,157.26L296.24,152.08L299.73,149.71L300.89,154.2L302.05,148.96L303.21,144.55L304.37,145.36L309.02,146.83L310.18,153.13L311.34,161.51L312.51,159.72L315.99,156.85L317.15,158.95L319.48,146.05L320.64,145.87L324.12,145.72L325.28,152.08L326.45,148.27L327.61,153.43L328.77,151.81L332.26,156.49L333.42,144.34L334.58,141.04L335.74,137.14L340.39,136.58L341.55,139.54L342.71,129.72L345.03,132.61L348.52,127.07L349.68,131.62L350.84,130.98L352,143.71L353.17,132.98L358.97,145.97L360.14,144.74L361.3,147.79L364.78,146.13L367.11,156.47L368.27,184.11L369.43,183.81L372.92,181.22L374.08,192.26L375.24,183.06L376.4,192.65L377.56,181.39L382.21,180.27L383.37,173.94L384.53,169.39L385.69,172L392.67,148.9L393.83,150.62L398.47,144.48L399.64,140.4L400.8,141.23L401.96,140.15L406.61,144.4L407.77,142.71L408.93,142.37L410.09,134.25L413.58,144.29L414.74,151.79L415.9,141.16L417.06,142.22L418.22,147.89L421.71,143.58L422.87,135.47L424.03,134.66L426.36,120.75L429.84,124.84L431,133.22L432.16,118.26L433.33,138.73L434.49,128.79L437.97,128.77L439.13,131.17L440.3,146.31L441.46,146.69L442.62,131.82L446.1,133.17L447.27,148.07L448.43,124.84L449.59,145.51L450.75,144.86L455.4,169.72L456.56,186.62L457.72,200.27L458.88,184L463.53,180.36L464.69,180.65L465.85,174.35L467.02,162.97L470.5,158.09L471.66,150.09L472.82,147.49L473.99,138.83L475.15,130.66L478.63,130.56L480.96,117.76L482.12,115.65L483.28,109.64L486.77,104.86L489.09,103.39L490.25,89.81L491.41,88.11L494.9,86.2L497.22,79L498.38,81.55L499.54,78.25L503.03,78.81L504.19,81.1L505.35,74.69L507.68,60.6L511.16,71.79L512.32,70.7L513.49,73.97L514.65,75.13L515.81,74.71L519.29,88.08L520.46,103.64L521.62,123.52L522.78,115.78L523.94,137.34L527.43,149.54L528.59,157.04L529.75,128.15L530.91,94.61L532.07,98.63L535.56,84.81L536.72,84.51L537.88,87.28L540.21,79.51L543.69,83.45L544.85,87.88L546.01,102.41L548.34,103.32L551.82,117.29L552.98,115.89L555.31,71.33L556.47,84.71L561.12,91.35L562.28,107.35L563.44,112.06L564.6,98.61L569.25,102.35L570.41,105.47L571.57,85.79L572.73,100.06L576.22,96.61L577.38,119.23L578.54,132.56L579.7,107.99L580.87,135.19L584.35,119.22L585.51,99.68L586.67,102.64L587.84,92.19L589,94.77L592.48,109.08L593.64,90.07L595.97,87.48L597.13,83.14L601.78,86.12L602.94,84.77L604.1,94.35L605.26,90.46L608.75,88.81L609.91,82.31L611.07,77.56L612.23,69.28L613.39,70.49L616.88,65.58L619.2,80.06L620.36,78.29L621.53,104.54L625.01,97.32L627.33,131.61L628.5,110.42L629.66,117.35L633.14,95.26L634.31,104.61L635.47,88.94L636.63,98.71L637.79,82.05L641.28,72.5L642.44,79.41L643.6,101.62L644.76,104.73L645.92,107.74L649.41,87.36L651.73,112.14L652.89,108.52L657.54,101.02L658.7,103.78L661.03,97.72L662.19,90.38L665.67,97.19L666.83,95.13L668,95.68L669.16,101.29L670.32,119.31L673.8,103.39L674.97,112.19L676.13,98.2L677.29,94.26L678.45,86.65L681.94,96.36L683.1,89.65L685.42,108.51L686.58,92.8L690.07,93.14L691.23,103.53L692.39,107.16L693.55,102.29L694.72,84.61L698.2,96.24L699.36,96.62L700.52,99.01L701.69,85.37L702.85,81.13L706.33,78.54L707.49,79.63L709.82,85.62L710.98,92.99L715.63,107.03L716.79,99.98L717.95,105.09L719.11,114.13L722.6,111.86L723.76,115.25L724.92,112.8L726.08,126.1L727.24,140.28L730.73,144.48L731.89,144.32L733.05,131.82L734.21,128.79L735.38,141.48L738.86,151.65L740.02,140.37L741.18,135.01L742.35,120.72L743.51,128.65L746.99,123.39L748.15,123.18L749.32,132.52L750.48,139.3L751.64,132.61L756.29,160.11L757.45,144.5L758.61,142.06L763.26,143.54L764.42,128.11L765.58,143.66L766.74,142.85L767.9,125.7L772.55,108.79L773.71,107.25L774.87,102.15L776.04,106.72L779.52,104.59L780.68,119.67L783.01,129.34L784.17,143.98L787.65,149.73L788.82,135.24L789.98,125.08L791.14,129.16L792.3,129.58L795.79,134.15L796.95,140.66L798.11,130.35L800.43,149.01L803.92,134.56L805.08,141.42L806.24,137.93L807.4,138.24L808.56,135.98L812.05,129.24L813.21,140.13L815.54,168L816.7,209.24L821.34,286.19L822.51,233.69L823.67,207.47L824.83,215.23L828.31,225.82L829.48,259.11L830.64,236.7L831.8,233.71L832.96,256.27L837.61,221.84L838.77,245.08L839.93,242.94L841.09,231.19L844.58,235.46L846.9,210.27L848.06,215.94L849.23,236.68L852.71,228.4L853.87,238.45L855.03,239.19L857.36,233.82L860.84,249.69L862,242.96L863.17,229.85L864.33,235.88L865.49,221.38L868.97,199.26L870.14,202.27L872.46,179.45L873.62,178.51L877.11,175.42L878.27,180.4L879.43,208.99L880.59,196.84L881.75,189.99L885.24,192.05L887.56,205.28L888.72,166.53L889.89,155.03L893.37,160.37L894.53,167.58L895.69,154.81L896.86,152.7L898.02,160.53L902.67,147.82L903.83,149.41L904.99,150.01L906.15,154.62L909.64,166.76L910.8,164.09L911.96,167.41L913.12,188.33L914.28,205.42L917.77,181.72L918.93,175.75L920.09,154.99L921.25,152.01L922.41,152.1L925.9,151.53L927.06,149.64L928.22,150.5L930.55,148.21L934.03,156.52L935.19,144.9L937.52,165.47L938.68,135.91L942.16,133.51L943.33,145.28L944.49,153.55L945.65,147.74L946.81,162.89L950.3,150.77L952.62,120.54L953.78,139.86L954.94,161.35L958.43,150.51L960.75,122.87L961.91,127.15L966.56,129.32L967.72,113L968.88,120.22L970.05,135.94L974.69,149.53L975.85,136.55L977.02,145.48L978.18,161.6L979.34,177.96L982.82,168.97L983.99,164.17L985.15,189.26L986.31,166.92L987.47,190.65L992.12,178.53L993.28,205.51L995.6,171.23L999.09,173.87L1000.25,149.03L1001.41,154.15L1002.57,144.39L1003.74,112.81L1007.22,107.42L1008.38,125.05L1009.54,120.38L1010.71,121.02L1011.87,135.84L1015.35,131.59L1016.51,135.54L1017.68,142.23L1018.84,156.71L1020,137.09" style="vector-effect: non-scaling-stroke; fill: none; stroke: rgb(99, 110, 250); stroke-opacity: 1; stroke-width: 2px; opacity: 1;"/></g><g class="points"/><g class="text"/></g><g class="trace scatter traced45278" style="stroke-miterlimit: 2; opacity: 1;"><g class="fills"/><g class="errorbars"/><g class="lines"><path class="js-line" d="M0,266.16L1.16,251.75L2.32,255.92L3.49,268.09L6.97,263.52L9.29,278.83L10.46,272.83L11.62,283.94L15.1,295.95L16.26,290.33L17.43,295.73L18.59,302.99L19.75,301.08L23.23,308.12L24.4,312.86L25.56,312.34L26.72,290.85L27.88,284.23L31.37,282.86L32.53,292.83L33.69,274.1L36.01,272.32L39.5,274.42L40.66,262.11L41.82,265.83L42.98,261.39L44.15,263.44L47.63,256.35L48.79,247.73L49.95,252.54L51.12,253.22L52.28,248.58L55.76,240.73L56.92,245.69L58.09,232.62L59.25,241.55L60.41,234.18L65.06,228.45L66.22,225.05L68.54,217.8L72.03,215.11L73.19,213.14L74.35,217.92L76.67,209.93L80.16,205.81L81.32,209.32L82.48,206.83L84.81,205.4L88.29,213.28L89.45,210.05L90.62,216.02L91.78,224.34L92.94,208.07L96.42,209.82L97.59,218.34L99.91,239.84L101.07,242.16L104.56,233.08L105.72,244.82L106.88,222.08L108.04,228.13L109.2,222.97L112.69,216.25L116.17,204.12L117.33,203.41L120.82,202.63L121.98,199.98L125.47,213.51L128.95,216.1L130.11,204.19L131.28,214.68L132.44,219.16L133.6,216.54L137.08,225.71L138.25,217.08L139.41,211.13L140.57,212.62L141.73,222.16L146.38,225.3L149.86,251.86L153.35,254.65L154.51,258.2L155.67,271.17L156.83,265.82L158,270.16L161.48,296.44L162.64,291.11L163.8,287.06L164.97,277.14L166.13,263.71L169.61,262.65L170.77,247.64L171.94,251.44L174.26,234.96L178.91,242.39L180.07,247.79L181.23,243.17L182.39,247.38L185.88,246.04L187.04,246.52L188.2,244.13L190.52,233.41L194.01,243.3L195.17,228.04L196.33,234.8L198.66,229.23L202.14,230.75L203.3,220.52L204.46,219.44L205.63,232.99L206.79,237L211.44,223.6L212.6,234.63L213.76,223.84L214.92,226.26L218.41,219.49L219.57,208.35L220.73,213.78L221.89,211.04L223.05,205.35L226.54,196.9L228.86,195.11L230.02,194.72L231.18,197.48L234.67,200.25L236.99,183.46L238.15,193.57L239.32,198.36L242.8,188.71L245.13,177.96L246.29,179.32L250.93,175.54L252.1,176.67L253.26,178.34L254.42,172.32L255.58,169.27L259.07,154.88L260.23,148.29L261.39,146.36L262.55,148.77L263.71,152.94L267.2,151.86L268.36,160.49L269.52,150.28L270.68,150.51L271.85,143.62L275.33,142.19L276.49,138.87L277.65,144.49L278.82,159.58L279.98,151.53L283.46,154.34L284.62,163.33L285.79,152.72L286.95,153.85L288.11,152.22L292.76,150.46L293.92,156.7L295.08,147.02L296.24,142.5L299.73,140.62L300.89,144.11L302.05,138.73L303.21,134.33L304.37,134.42L307.86,135.07L309.02,136.64L311.34,151.17L312.51,148.54L315.99,144.93L317.15,146.8L319.48,134.8L320.64,134.8L324.12,133.74L325.28,140.68L326.45,138.55L327.61,143.17L328.77,141.86L332.26,146.33L333.42,134.96L334.58,131.83L335.74,127.34L340.39,127.42L341.55,129.78L342.71,119.95L345.03,123.16L348.52,117.34L349.68,121.72L350.84,120.1L352,132.81L353.17,122.18L358.97,134.48L360.14,133.95L361.3,136.46L364.78,133.83L365.95,137.73L367.11,144.25L368.27,173.21L369.43,174.32L372.92,170.97L374.08,183.54L375.24,174.91L376.4,183.89L377.56,172.85L381.05,171.39L382.21,171.13L383.37,164.33L384.53,160.36L385.69,161.95L392.67,140.19L393.83,142.08L398.47,135.77L399.64,131.46L401.96,131.25L406.61,136.09L407.77,135.02L408.93,135.94L410.09,127.64L413.58,138.26L414.74,146.11L415.9,135.36L417.06,136.17L418.22,142.33L421.71,138.82L422.87,130.66L424.03,130.63L425.19,126.18L426.36,117.51L429.84,121.75L431,129.66L432.16,115.7L433.33,137.02L434.49,127.12L437.97,126.61L439.13,129.07L440.3,143.51L441.46,143.43L442.62,128.89L446.1,129.71L447.27,143.96L448.43,120.75L449.59,141.37L450.75,141.51L454.24,163.13L455.4,164.68L457.72,197.38L458.88,181.54L463.53,178.73L464.69,179.97L467.02,162.77L470.5,159.9L471.66,151.77L472.82,149.76L475.15,132.92L478.63,133.02L480.96,121.95L482.12,119.28L483.28,111.78L486.77,108.38L489.09,106.87L490.25,92.29L491.41,88.85L494.9,86.82L497.22,79.25L498.38,80.79L499.54,77.12L503.03,76.39L504.19,79.99L505.35,74.47L507.68,63.35L511.16,74.7L512.32,73.91L513.49,76.12L515.81,78.19L519.29,95.28L521.62,132.95L522.78,124.78L523.94,146.58L527.43,159.63L528.59,166.77L529.75,136.06L530.91,102.45L532.07,104.48L536.72,88.99L537.88,92.56L540.21,84.78L543.69,88.47L544.85,93.54L546.01,108L548.34,108.52L551.82,123.56L552.98,121.21L554.15,101.64L555.31,76.07L556.47,88.87L561.12,97.33L562.28,113.41L563.44,118.46L564.6,106.07L569.25,108.24L570.41,110.92L571.57,91.75L572.73,105.4L576.22,101.13L577.38,123.8L578.54,136.08L579.7,109.14L580.87,135.22L584.35,118.71L585.51,99.13L586.67,102.43L587.84,93.39L589,95.43L592.48,109.08L593.64,90.42L594.81,89.43L595.97,86.33L597.13,81.35L601.78,84.99L602.94,84.88L604.1,95.83L605.26,91.62L608.75,89.98L612.23,70.73L613.39,72L616.88,68.21L618.04,73.2L619.2,81.67L620.36,81.72L621.53,106.82L625.01,100.35L627.33,135.4L628.5,115.12L629.66,121.77L633.14,100.86L634.31,109.43L635.47,93.25L636.63,104.69L637.79,88.98L641.28,79.03L642.44,84.59L643.6,106.2L644.76,108.78L645.92,113.19L649.41,92.13L651.73,116.83L652.89,113.67L657.54,104.92L658.7,107.64L661.03,103.77L662.19,96.37L665.67,102.61L666.83,99.59L668,99.48L669.16,105.81L670.32,124.04L673.8,107.08L674.97,116.34L676.13,100.2L677.29,96.36L678.45,88.61L681.94,97.58L683.1,89.33L685.42,107.6L686.58,90.75L690.07,91.77L691.23,102.51L692.39,106.26L693.55,101.87L694.72,84.1L698.2,96.69L699.36,96.21L700.52,98.78L701.69,85.46L702.85,81.63L706.33,79.54L707.49,80.65L709.82,86.21L710.98,93.2L715.63,107.98L716.79,100.68L719.11,114.55L722.6,112.16L723.76,115.55L724.92,113.28L727.24,140.81L730.73,144.64L731.89,145.87L733.05,133.49L734.21,131.13L735.38,144.34L738.86,154.25L740.02,143.1L741.18,138.03L742.35,124.56L743.51,132.42L746.99,126.57L748.15,126.15L749.32,135.01L750.48,142.35L751.64,136.09L756.29,163.45L757.45,149.6L758.61,146.24L763.26,148.19L764.42,133.82L765.58,149.58L766.74,150.22L767.9,132.78L772.55,115.93L773.71,114.58L774.87,109.91L776.04,114.06L779.52,112.29L780.68,128.19L783.01,139.5L784.17,154.73L787.65,160.64L788.82,144.95L789.98,135.07L791.14,137.15L792.3,139.72L795.79,145.6L796.95,153.19L798.11,142.3L799.27,148.31L800.43,160.15L803.92,144.51L805.08,152.8L806.24,147.82L807.4,147.79L812.05,138.56L813.21,150L815.54,180.16L816.7,221.93L821.34,297.79L822.51,244.46L823.67,217.26L824.83,223.06L828.31,232.99L829.48,267.14L830.64,243.96L831.8,240.63L832.96,263.11L837.61,229.67L838.77,252.62L839.93,250.6L841.09,238.18L844.58,242.21L846.9,217.35L848.06,224.07L849.23,245.54L852.71,236.53L853.87,247.28L855.03,248.18L857.36,243.21L860.84,259.19L862,253.41L863.17,238.76L864.33,245.48L865.49,230.92L868.97,208.48L870.14,209.3L872.46,186.45L873.62,185.97L877.11,183.52L878.27,188.39L879.43,217.59L880.59,206.95L881.75,200.68L885.24,204.01L887.56,217.35L888.72,174.64L889.89,163.93L893.37,171.83L894.53,180.51L895.69,165.15L896.86,163.15L898.02,169.61L901.5,161.11L902.67,155.54L904.99,158.13L906.15,161.89L909.64,174.63L910.8,173.1L911.96,177.34L913.12,198.44L914.28,216.29L917.77,191.33L918.93,185.19L920.09,164.24L921.25,159.49L922.41,160.89L925.9,159.26L927.06,156.91L928.22,158.83L930.55,156.41L934.03,163.53L935.19,153.61L937.52,174.61L938.68,145.9L942.16,145.09L943.33,157.55L944.49,165.08L945.65,158.81L946.81,175.18L950.3,162.94L952.62,134L953.78,153.84L954.94,174.33L958.43,163.63L960.75,134.44L961.91,139.46L966.56,142.04L967.72,125.58L968.88,133.35L970.05,148.63L974.69,160.01L975.85,147.14L977.02,155.78L978.18,172.94L979.34,188.71L982.82,179.77L983.99,173.51L985.15,198.15L986.31,173.88L987.47,198.14L992.12,187.56L993.28,216.78L995.6,179.58L999.09,183.25L1000.25,160.36L1001.41,168.85L1002.57,158.3L1003.74,126.99L1007.22,121.92L1008.38,140.53L1009.54,134.59L1010.71,133.23L1011.87,147.22L1015.35,142.49L1017.68,154.91L1018.84,168.78L1020,149" style="vector-effect: non-scaling-stroke; fill: none; stroke: rgb(239, 85, 59); stroke-opacity: 1; stroke-width: 2px; opacity: 1;"/></g><g class="points"/><g class="text"/></g><g class="trace scatter traced3f2a1" style="stroke-miterlimit: 2; opacity: 1;"><g class="fills"/><g class="errorbars"/><g class="lines"><path class="js-line" d="M0,266.16L1.16,251.76L2.32,256.6L3.49,269.4L6.97,262.55L8.13,267.65L9.29,276.33L10.46,270.76L11.62,282.68L15.1,294.72L16.26,290.23L18.59,302.69L19.75,301.53L23.23,307.93L24.4,312.49L25.56,311.88L26.72,291.14L27.88,285.42L31.37,284.24L32.53,294.44L33.69,276.26L34.85,276.79L36.01,275.69L39.5,277.13L40.66,265.57L41.82,270.7L42.98,264.98L44.15,266.67L47.63,259.33L48.79,251.55L49.95,255.22L51.12,254.77L52.28,250.89L55.76,241.44L56.92,246.19L58.09,233.39L59.25,243.09L60.41,237.03L63.9,231.53L68.54,220.74L72.03,217.25L73.19,215.14L74.35,221.26L76.67,216.01L80.16,211.93L81.32,215.04L82.48,211.95L84.81,209.6L88.29,216.98L89.45,212.94L90.62,218.5L91.78,225.02L92.94,210.03L96.42,211.79L97.59,219.97L101.07,241.91L104.56,230.89L105.72,242.32L106.88,220.7L108.04,227.19L109.2,221.95L113.85,209.23L116.17,200.8L117.33,199.95L120.82,199.8L121.98,195.66L124.31,205.83L125.47,209.96L128.95,213.78L130.11,202.89L131.28,213.19L132.44,219.06L133.6,216L137.08,226.18L138.25,215.98L139.41,209.46L140.57,210.52L141.73,221.8L146.38,224.52L147.54,234.54L148.7,234.85L149.86,249.07L153.35,251.74L154.51,257.46L155.67,268.52L156.83,263.43L158,266.35L161.48,293.17L162.64,288.05L163.8,284.58L164.97,274.77L166.13,260.91L169.61,263.04L170.77,248.89L171.94,250.69L174.26,233.96L178.91,239.18L180.07,244.67L181.23,240.76L182.39,245.51L185.88,243.02L187.04,243.9L188.2,241.35L190.52,232.1L194.01,242.05L195.17,227.86L196.33,235.08L198.66,229.73L202.14,231.22L203.3,219.03L204.46,217.57L205.63,231.54L206.79,236.33L211.44,223.74L212.6,234.58L213.76,222.49L214.92,227.26L218.41,218.97L219.57,209.46L220.73,215.28L221.89,212.51L223.05,205.84L226.54,197.82L227.7,194.5L228.86,194.45L230.02,193.19L231.18,197.11L234.67,200.22L235.83,189.52L236.99,183.41L238.15,191.45L239.32,197.21L242.8,185.66L243.96,183.11L245.13,178.02L246.29,179.44L250.93,176.43L253.26,181.18L254.42,173.38L255.58,170.01L259.07,156.2L260.23,148.59L261.39,146.44L263.71,152.21L267.2,151.32L268.36,159.16L269.52,150.18L270.68,149.61L271.85,142.52L275.33,140.31L276.49,137.8L277.65,143.74L278.82,160.22L279.98,151.65L283.46,154.67L284.62,164.26L285.79,153.52L286.95,155.57L288.11,153.63L292.76,150.84L293.92,157.04L296.24,142.79L299.73,141.52L300.89,144.5L302.05,138.9L303.21,134.79L304.37,134.18L307.86,135.43L309.02,138.37L311.34,153.02L312.51,147.55L315.99,143.19L317.15,145.12L319.48,135.11L320.64,135.69L324.12,133.69L325.28,140.87L326.45,140.06L327.61,144.72L328.77,142.23L332.26,147.07L333.42,136.6L334.58,133.26L335.74,127.5L340.39,128.23L341.55,129.64L342.71,119.36L345.03,122.44L348.52,116.86L349.68,119.1L350.84,112.96L352,126.05L353.17,116.44L356.65,124.98L357.81,125.74L360.14,126.56L361.3,128.47L364.78,124.48L365.95,128.05L367.11,134.12L368.27,164.33L369.43,166.83L372.92,162.99L374.08,177.61L375.24,170.27L376.4,178.52L377.56,168.15L382.21,166.32L383.37,159.37L384.53,157.12L385.69,158.34L392.67,138.09L393.83,139.79L398.47,134.71L399.64,129.65L400.8,129.02L401.96,129.85L406.61,135.13L407.77,135.04L408.93,136.28L410.09,127.3L413.58,138.88L414.74,147.97L415.9,137.05L417.06,137.25L418.22,143.38L421.71,140.52L422.87,132.52L424.03,132.89L425.19,130.28L426.36,121.87L429.84,127.37L431,134.79L432.16,121.23L433.33,143.26L434.49,132.14L437.97,129.89L439.13,133.23L440.3,147.33L441.46,146.86L442.62,133.04L446.1,134.46L447.27,148.06L448.43,125.66L449.59,145.35L450.75,147.97L454.24,168.65L455.4,167.04L456.56,189.13L457.72,202.26L458.88,187.61L462.37,185.56L463.53,181.93L464.69,185.06L465.85,178.48L467.02,168.9L470.5,167.15L471.66,158L472.82,156.83L473.99,153.11L475.15,142.44L478.63,142.11L479.79,136.76L482.12,130.04L483.28,120.82L489.09,117.32L490.25,100.23L491.41,93.63L494.9,91.56L497.22,84.94L498.38,83.96L499.54,81.04L503.03,77.46L504.19,82.17L505.35,76.85L507.68,67.49L511.16,79.81L512.32,79.08L513.49,79.46L515.81,82.89L519.29,105.01L521.62,142.6L522.78,133.3L523.94,153.68L527.43,167.89L528.59,175.16L529.75,142.84L530.91,108.74L532.07,109.67L536.72,91.04L537.88,95.75L540.21,87.32L543.69,91.56L544.85,97.78L546.01,111.92L548.34,112.15L551.82,129.37L552.98,127.25L554.15,107.84L555.31,81.51L556.47,92.74L561.12,102.3L562.28,119.72L563.44,124.25L564.6,114.19L569.25,114.13L570.41,117.17L571.57,99.19L572.73,111.86L576.22,106.61L577.38,131.61L578.54,143.41L579.7,113.22L580.87,138.51L584.35,121.59L585.51,101.73L586.67,103.69L587.84,94.88L589,95.65L592.48,108.84L593.64,89.44L594.81,89.42L595.97,81.69L597.13,76.41L601.78,80.99L602.94,81.56L604.1,95.98L605.26,90.83L608.75,89.11L612.23,70.17L613.39,72.97L616.88,68.61L618.04,72.87L620.36,82.72L621.53,106.21L625.01,100.84L626.17,124.1L627.33,136.08L628.5,119.04L629.66,124.19L633.14,105.3L634.31,113.8L635.47,97.95L636.63,111.25L637.79,95.34L641.28,84.08L642.44,88.74L643.6,111.28L644.76,112.61L645.92,116.2L649.41,95.79L651.73,120.67L652.89,118.45L657.54,108.56L658.7,111.5L661.03,109.19L662.19,100.41L665.67,105.85L666.83,102.66L668,101.02L669.16,108.09L670.32,126.45L673.8,108.65L674.97,118.17L676.13,99.27L677.29,94.96L678.45,86.8L681.94,95.41L683.1,86.88L685.42,104.35L686.58,85.82L690.07,88.03L691.23,99.71L692.39,103.78L693.55,99.83L694.72,81.91L698.2,94.94L699.36,92.83L700.52,96.39L701.69,83.98L702.85,80.1L706.33,78.01L707.49,80.63L709.82,85.19L710.98,91.15L715.63,106.88L716.79,99.01L719.11,112.45L722.6,110.21L723.76,114.09L724.92,112.48L727.24,140.02L730.73,144.1L731.89,146.88L733.05,134.22L734.21,132.55L735.38,146.31L738.86,155.27L740.02,144.87L741.18,139.92L742.35,127.79L743.51,134.84L746.99,128.7L748.15,127.87L749.32,135.98L750.48,143.82L751.64,138.41L756.29,165.29L757.45,154.01L758.61,149.47L763.26,152.05L764.42,139.11L765.58,155.01L766.74,158.02L767.9,140.43L772.55,123.01L773.71,122.08L774.87,118.87L776.04,122.45L779.52,121.51L780.68,139.41L783.01,152.22L784.17,168.25L787.65,173.71L788.82,155.46L789.98,145.89L791.14,146.34L792.3,151.14L795.79,158.86L796.95,167.54L798.11,155.62L799.27,159.86L800.43,173.12L803.92,155.66L805.08,165.36L806.24,157.99L807.4,158.53L808.56,156.83L812.05,149.83L815.54,195.47L816.7,238.31L821.34,312.68L822.51,258.2L823.67,229.04L824.83,233.51L828.31,241.85L829.48,277.07L830.64,251.84L831.8,247.33L832.96,269.64L837.61,235.66L838.77,258.37L839.93,257.23L841.09,242.96L844.58,247.78L846.9,224.56L848.06,233.12L849.23,254.75L852.71,244.38L853.87,255.86L855.03,256.33L857.36,250L860.84,267.24L862,262.67L863.17,245.37L864.33,252L865.49,237.19L871.3,201.01L872.46,189.44L873.62,189.87L877.11,187.96L878.27,191.81L879.43,223.7L881.75,210.75L885.24,214.34L887.56,230.74L888.72,184.44L889.89,173.32L893.37,183.61L894.53,194.41L895.69,176.91L896.86,176.48L898.02,182.24L901.5,173.35L902.67,165.98L904.99,169.5L906.15,171.64L909.64,184.79L910.8,185.22L911.96,191.51L913.12,212.2L914.28,232.71L917.77,207.15L918.93,199.45L920.09,178.12L921.25,172.38L922.41,173.78L925.9,172.7L927.06,169.6L928.22,171.14L930.55,169L934.03,173.82L935.19,165.97L937.52,186.54L938.68,158.85L942.16,158.73L943.33,171.62L944.49,178.27L945.65,172.16L946.81,189.24L950.3,176.26L952.62,151.36L953.78,171.11L954.94,189.11L958.43,177.3L960.75,147.8L961.91,153.76L966.56,156.64L967.72,139.48L968.88,148.12L970.05,163.05L974.69,170.97L975.85,157.65L977.02,166.12L978.18,183.43L979.34,199.38L982.82,188.77L983.99,182.57L985.15,208.22L986.31,181.68L987.47,208.99L992.12,199.51L993.28,229.89L995.6,188.8L999.09,192.74L1000.25,172.79L1001.41,183.67L1002.57,172.19L1003.74,140.62L1007.22,135.54L1008.38,155.31L1010.71,147.11L1011.87,161.5L1015.35,157.54L1016.51,163.74L1018.84,183.26L1020,163.47" style="vector-effect: non-scaling-stroke; fill: none; stroke: rgb(0, 204, 150); stroke-opacity: 1; stroke-width: 2px; opacity: 1;"/></g><g class="points"/><g class="text"/></g><g class="trace scatter trace5f5a9e" style="stroke-miterlimit: 2; opacity: 1;"><g class="fills"/><g class="errorbars"/><g class="lines"><path class="js-line" d="M0,266.16L1.16,251.78L2.32,256.45L3.49,269.56L6.97,262.44L8.13,267.51L9.29,276.19L10.46,271.27L11.62,283.78L15.1,295.5L16.26,291.71L17.43,296.08L18.59,303.99L19.75,302.84L23.23,309.17L24.4,313.93L25.56,312.95L26.72,292.07L27.88,286.13L31.37,284.92L32.53,295.08L33.69,276.82L34.85,277L36.01,275.63L39.5,277.02L40.66,265.5L41.82,271.18L42.98,265.06L44.15,266.46L47.63,258.7L48.79,250.79L49.95,254.43L51.12,254L55.76,241.04L56.92,245.55L58.09,233.09L59.25,242.89L60.41,237.33L63.9,231.49L66.22,224.75L67.38,224.59L68.54,221.83L72.03,218.02L73.19,215.68L74.35,222.07L75.51,218.45L76.67,218.24L80.16,214.42L81.32,217.72L82.48,214.64L84.81,212.37L88.29,219.91L89.45,216.17L91.78,227.28L92.94,212.09L96.42,213.96L97.59,222.15L101.07,244.05L104.56,232.82L105.72,244.01L106.88,222.83L108.04,229.42L109.2,224.44L113.85,211.44L116.17,203.08L117.33,202.34L120.82,202.07L121.98,198.16L124.31,207.69L125.47,211.76L128.95,215.83L130.11,205L131.28,215.21L132.44,220.99L133.6,217.83L137.08,228.47L138.25,217.39L139.41,210.66L140.57,211.5L141.73,223.12L146.38,226.58L147.54,236.93L148.7,236.89L149.86,251L153.35,254.13L154.51,259.6L155.67,270.09L156.83,265.27L158,267.66L161.48,294.82L162.64,290.26L163.8,286.85L164.97,276.68L166.13,262.56L169.61,265.07L170.77,251.02L171.94,252.38L174.26,236.53L178.91,241.02L180.07,246.34L181.23,242.66L182.39,247.77L185.88,245.76L187.04,246.68L188.2,243.92L190.52,235.35L194.01,245.62L195.17,231.46L196.33,238.68L198.66,233.39L202.14,234.92L203.3,222.1L204.46,220.48L206.79,239.27L210.27,230.46L211.44,227.01L212.6,237.82L213.76,225.28L214.92,230.25L218.41,221.57L219.57,211.98L220.73,218.21L221.89,215.67L223.05,208.86L226.54,200.49L227.7,196.34L228.86,196.37L230.02,194.32L231.18,198.53L234.67,201.24L235.83,189.86L236.99,184.42L238.15,192.51L239.32,198.38L242.8,186.15L243.96,184.71L245.13,179.68L246.29,180.87L250.93,178.09L253.26,183.23L254.42,175.94L255.58,173.03L259.07,159.1L260.23,151.33L261.39,149.11L263.71,155.42L267.2,154.77L268.36,162.13L269.52,153.1L270.68,151.76L271.85,144.65L275.33,142.6L276.49,140.51L277.65,146.63L278.82,162.86L279.98,154.58L283.46,157.78L284.62,167.49L285.79,156.92L286.95,158.93L288.11,156.97L292.76,154.01L293.92,159.87L296.24,145.56L299.73,144.11L300.89,147.07L302.05,141.51L303.21,137.32L304.37,136.37L307.86,138.04L309.02,141.11L311.34,156.27L312.51,149.02L315.99,144.55L317.15,146.75L319.48,137.26L320.64,137.94L324.12,135.91L325.28,142.8L326.45,142.01L327.61,146.93L328.77,143.96L332.26,149.19L333.42,138.7L334.58,135.43L335.74,129.61L340.39,130.17L341.55,131.44L342.71,120.95L345.03,123.65L348.52,118.52L349.68,120.12L350.84,111.72L352,125.63L353.17,116.38L356.65,124.82L357.81,124.29L358.97,124.58L360.14,125.77L361.3,127.43L364.78,123.48L367.11,131.99L368.27,161.98L369.43,164.81L372.92,161L374.08,175.92L375.24,168.94L376.4,176.69L377.56,166.65L382.21,164.81L383.37,157.74L384.53,156.28L385.69,157.91L391.5,142.88L392.67,137.23L393.83,138.98L397.31,135.73L398.47,134.85L399.64,129.9L400.8,129.23L401.96,130.11L406.61,135.59L407.77,135.48L408.93,136.29L410.09,127.39L413.58,138.89L414.74,148.58L415.9,137.47L417.06,137.67L418.22,143.46L421.71,140.76L422.87,132.62L424.03,132.92L425.19,130.52L426.36,122.26L429.84,128.21L431,135.7L432.16,121.72L433.33,143.63L434.49,132.67L437.97,129.6L439.13,133.32L440.3,147.88L441.46,147.81L442.62,133.88L446.1,135.75L447.27,149.84L448.43,127.73L449.59,147.26L450.75,151.76L454.24,172.22L455.4,169.44L456.56,192.02L457.72,205.57L458.88,190.98L462.37,189.12L463.53,183.58L464.69,187.1L465.85,180.89L467.02,171.23L470.5,168.91L471.66,159.16L472.82,158.19L473.99,156.08L475.15,145.06L478.63,144.51L479.79,138.67L482.12,132.76L483.28,123.25L489.09,120.4L490.25,102.27L491.41,94.9L494.9,92.91L498.38,84.89L499.54,82.54L503.03,78L504.19,82.81L507.68,67.15L511.16,79.94L512.32,79.22L513.49,79.62L515.81,82.89L519.29,105.61L521.62,142.81L522.78,132.93L523.94,152.57L527.43,166.95L528.59,174.13L529.75,142.17L530.91,108.11L532.07,109.71L536.72,89.97L537.88,94.71L540.21,85.99L543.69,90.46L544.85,97.06L546.01,111.03L548.34,111.22L551.82,128.79L552.98,127.66L554.15,108.01L555.31,82.19L556.47,93.13L561.12,102.13L562.28,120.43L563.44,124.75L564.6,115.22L569.25,115.84L570.41,119.26L571.57,101.66L572.73,114.25L576.22,109.24L577.38,135.35L578.54,146.99L579.7,115.85L580.87,141.41L584.35,124.54L585.51,104.57L586.67,106.05L587.84,96.98L589,97.68L592.48,111.27L593.64,91.93L594.81,92.54L595.97,83.76L597.13,78.14L601.78,82.56L602.94,83.12L604.1,98.31L605.26,93.03L608.75,92.01L612.23,72.49L613.39,76.16L616.88,70.83L618.04,74.91L620.36,84.76L621.53,108.14L625.01,103.1L626.17,126.65L627.33,138.06L628.5,122.94L629.66,127.48L633.14,109.19L634.31,118.19L635.47,102.76L636.63,116.09L637.79,99.47L641.28,88.15L642.44,92.89L643.6,116.56L644.76,117.47L645.92,119.52L649.41,100.22L651.73,125.42L652.89,123.37L657.54,113.7L658.7,116.39L659.86,114.36L661.03,113.96L662.19,104.3L665.67,109.83L668,104.52L669.16,112.12L670.32,130.34L673.8,112.46L674.97,122.2L676.13,102.89L677.29,98.68L678.45,90.32L681.94,98.67L683.1,90.35L685.42,107.32L686.58,88.52L690.07,91.24L691.23,103.23L692.39,107.42L693.55,103.54L694.72,85.37L698.2,98.16L699.36,95.8L700.52,99.57L701.69,87.68L702.85,83.72L706.33,81.02L707.49,84.41L708.66,87.83L709.82,88.85L710.98,94.77L715.63,110.5L716.79,102.38L717.95,109.05L719.11,115.94L722.6,113.93L723.76,118.03L724.92,116.79L727.24,144.59L730.73,149.32L731.89,152.24L733.05,139.41L734.21,137.79L735.38,151.61L738.86,160.36L740.02,150.41L741.18,145.01L742.35,132.98L743.51,139.82L746.99,133.73L748.15,133.22L749.32,140.99L750.48,148.93L751.64,144.24L756.29,171.26L757.45,160.44L758.61,155.43L763.26,158.28L764.42,145.65L765.58,161.37L766.74,164.96L767.9,147.74L772.55,130.51L773.71,129.6L774.87,126.7L776.04,130.57L779.52,130.03L780.68,148.32L783.01,160.57L784.17,176.64L787.65,181.81L788.82,163.51L789.98,154L791.14,154.37L792.3,159.14L795.79,166.95L796.95,175.56L798.11,163.48L799.27,167.64L800.43,181.1L803.92,163.17L805.08,172.94L806.24,165.13L807.4,166.07L808.56,164.38L812.05,157.81L815.54,203.87L816.7,246.51L821.34,320.2L822.51,265.54L823.67,236.61L824.83,240.96L828.31,248.79L829.48,283.7L830.64,257.9L831.8,252.88L832.96,275.08L837.61,240.44L838.77,263.03L839.93,262.66L841.09,248.09L844.58,253.22L846.9,230.99L848.06,240.14L849.23,261.71L852.71,251.16L853.87,262.64L855.03,263.08L857.36,256.2L860.84,272.98L862,268L863.17,250.3L864.33,256.94L865.49,242.55L871.3,205L872.46,193.21L873.62,194.34L877.11,192.49L878.27,196.06L879.43,228.96L881.75,216.73L885.24,219.91L887.56,236.92L888.72,189.56L889.89,178.11L893.37,188.47L894.53,200.06L895.69,182.97L896.86,183.06L898.02,188.63L901.5,179.99L902.67,172.42L903.83,173.23L904.99,175.62L906.15,177.25L909.64,190.38L910.8,191.2L911.96,197.8L914.28,239.33L917.77,214.22L918.93,205.33L920.09,184.18L921.25,177.45L922.41,178.37L925.9,177.6L927.06,175.14L928.22,176.59L930.55,174.53L934.03,178.7L935.19,171.37L937.52,191.34L938.68,163.67L942.16,162.73L943.33,175.7L944.49,182.01L945.65,176.15L946.81,193.02L950.3,179.79L952.62,155.92L953.78,175.69L954.94,193.16L958.43,181.12L960.75,151.7L961.91,157.54L966.56,160.34L967.72,142.87L968.88,151.59L970.05,166.51L974.69,174.18L975.85,160.66L977.02,169.06L978.18,186.1L979.34,202.32L982.82,190.82L983.99,185.27L985.15,211.58L986.31,184.8L987.47,214.41L992.12,204.91L993.28,235.62L995.6,194.29L999.09,197.72L1000.25,177.44L1001.41,187.53L1002.57,175.93L1003.74,143.88L1007.22,138.58L1008.38,158.75L1010.71,150.9L1011.87,166.32L1015.35,162.4L1016.51,169.55L1018.84,188.33L1020,168.65" style="vector-effect: non-scaling-stroke; fill: none; stroke: rgb(171, 99, 250); stroke-opacity: 1; stroke-width: 2px; opacity: 1;"/></g><g class="points"/><g class="text"/></g><g class="trace scatter trace91ea41" style="stroke-miterlimit: 2; opacity: 1;"><g class="fills"/><g class="errorbars"/><g class="lines"><path class="js-line" d="M0,266.16L1.16,252.26L2.32,257.4L3.49,270.57L6.97,263.41L8.13,268.22L9.29,276.67L10.46,271.93L11.62,284.78L15.1,296.22L16.26,292.73L17.43,297.08L18.59,304.94L19.75,303.71L23.23,309.96L24.4,315.11L25.56,314.24L26.72,292.94L27.88,286.99L31.37,285.8L32.53,296.05L33.69,277.58L34.85,277.75L36.01,276.55L39.5,277.92L40.66,266.56L41.82,272.88L42.98,266.99L44.15,267.89L47.63,260.25L48.79,252.03L49.95,255.71L51.12,255.18L52.28,251.35L55.76,242.66L56.92,247.13L58.09,234.69L59.25,244.55L60.41,239.33L63.9,233.63L65.06,230.22L66.22,226.51L67.38,227.27L68.54,224.83L72.03,220.78L73.19,218.34L74.35,224.74L75.51,220.79L76.67,221.19L80.16,217.57L81.32,220.88L82.48,217.99L84.81,215.88L88.29,223.62L89.45,220.28L91.78,231.03L92.94,215.6L96.42,217.71L97.59,225.76L101.07,248.3L104.56,236.95L105.72,248.01L106.88,226.85L108.04,233.36L109.2,228.22L113.85,215.12L116.17,206.84L117.33,206.21L120.82,205.62L121.98,201.82L124.31,211.05L125.47,214.95L128.95,219.35L130.11,208.31L131.28,218.62L132.44,224.32L133.6,221.26L137.08,232.38L138.25,221.1L139.41,213.91L140.57,214.88L141.73,226.69L146.38,230.35L147.54,240.54L148.7,240.27L149.86,254.48L153.35,257.75L154.51,262.75L155.67,272.92L156.83,267.77L158,269.75L161.48,297.15L162.64,292.95L163.8,289.55L164.97,279.2L166.13,265.24L169.61,268.2L170.77,254.49L171.94,255.69L174.26,240.43L178.91,244.64L180.07,249.77L181.23,245.82L182.39,250.96L185.88,249.11L187.04,250.06L188.2,247.2L190.52,238.71L194.01,249L195.17,234.94L196.33,241.84L198.66,236.91L202.14,238.4L203.3,225.06L204.46,223.56L206.79,242.38L210.27,233.71L211.44,230.18L212.6,240.46L213.76,227.42L214.92,232.67L218.41,224.11L219.57,214.85L220.73,221L221.89,218.54L223.05,211.64L226.54,203.18L227.7,198.81L228.86,199.01L230.02,196.37L231.18,200.6L234.67,203.13L235.83,191.48L236.99,186.41L238.15,194.45L239.32,200.57L242.8,188.17L243.96,186.88L245.13,182.26L246.29,183.75L250.93,181.45L253.26,186.64L254.42,180.02L255.58,177.65L259.07,164.27L260.23,156.52L261.39,154.44L263.71,160.53L267.2,160.08L268.36,166.93L269.52,157.16L270.68,155.58L271.85,148.52L275.33,146.54L276.49,144.55L277.65,150.78L278.82,166.41L279.98,158.02L283.46,161.29L284.62,171.1L285.79,160.41L286.95,162.19L288.11,160.21L292.76,157.04L293.92,162.81L296.24,148.49L299.73,146.8L300.89,149.9L302.05,144.26L303.21,140.3L304.37,139.23L307.86,141.22L309.02,144.26L311.34,159.53L312.51,151.33L315.99,147.02L317.15,149.14L319.48,139.39L320.64,139.98L324.12,137.89L325.28,144.37L326.45,143.33L327.61,148.26L328.77,145.19L332.26,150.66L333.42,140.41L334.58,137.26L335.74,131.43L340.39,132.4L341.55,133.88L342.71,123.33L345.03,125.25L348.52,120.12L349.68,121.35L350.84,112.16L352,126.08L353.17,116.94L356.65,125.43L357.81,124.7L360.14,126.9L361.3,128.33L364.78,124.41L365.95,127.57L367.11,132.6L368.27,162.25L369.43,165.46L372.92,161.5L374.08,176.7L375.24,170.18L376.4,178.05L377.56,168.43L382.21,166.48L383.37,159.15L384.53,158.12L385.69,159.81L390.34,145.96L391.5,145.05L392.67,138.97L393.83,140.85L398.47,136.93L399.64,131.8L400.8,131.08L401.96,131.8L406.61,137.47L407.77,137.06L408.93,137.6L410.09,128.96L413.58,140.06L414.74,150.08L415.9,139.06L417.06,139.21L418.22,144.95L421.71,142.41L422.87,134.1L424.03,134.37L425.19,131.78L426.36,123.49L429.84,129.56L431,137.34L432.16,122.82L433.33,144.53L434.49,133.81L437.97,129.97L439.13,133.91L440.3,148.67L441.46,148.95L442.62,134.88L446.1,137.12L447.27,151.38L448.43,129.3L449.59,148.94L450.75,154.34L454.24,174.75L455.4,171.66L456.56,194.11L457.72,207.05L458.88,192.09L462.37,190.06L463.53,183.97L464.69,187.9L465.85,181.83L467.02,172.02L470.5,169.15L471.66,159.16L472.82,158.18L473.99,156.63L475.15,145.33L478.63,144.68L479.79,138.53L482.12,133.02L483.28,123.99L489.09,121.08L490.25,102.81L491.41,95.23L494.9,93.08L498.38,84.91L499.54,82.98L503.03,78.14L504.19,82.65L507.68,65.99L511.16,78.97L513.49,79.06L514.65,80.56L515.81,82.04L519.29,105.04L521.62,142.56L522.78,132.39L523.94,151.37L527.43,166.04L528.59,173.22L529.75,141.02L530.91,107.01L532.07,109.27L536.72,88.99L537.88,93.62L540.21,84.83L543.69,89.28L544.85,96.02L546.01,110.06L548.34,110.34L551.82,127.93L552.98,127.13L554.15,107.49L555.31,81.71L556.47,92.77L561.12,101.15L562.28,119.58L563.44,123.38L564.6,113.99L569.25,115.04L570.41,118.05L571.57,100.51L572.73,113.44L576.22,108.74L577.38,135.19L578.54,146.9L579.7,115.17L580.87,141.03L584.35,124.2L585.51,104.35L586.67,105.43L587.84,96.35L589,96.85L592.48,110.84L593.64,91.07L594.81,91.72L595.97,82.63L597.13,77.14L601.78,81.62L602.94,82.18L604.1,96.99L605.26,91.45L608.75,90.43L612.23,69.79L613.39,73.74L616.88,67.6L618.04,71.79L620.36,81.36L621.53,104.92L625.01,99.85L626.17,123.79L627.33,134.67L628.5,120.08L629.66,124.15L633.14,106.05L634.31,115.4L635.47,100.15L636.63,113.24L637.79,96.58L641.28,85.37L642.44,89.99L643.6,114.18L644.76,115.1L645.92,115.97L649.41,97.15L651.73,122.54L652.89,120.61L657.54,111.17L658.7,113.79L659.86,111.1L661.03,111.02L662.19,100.88L665.67,106.38L668,101.59L669.16,108.66L670.32,127L673.8,109.21L674.97,119.14L676.13,99.6L677.29,95.58L678.45,86.94L681.94,95.78L683.1,87.37L685.42,104.54L686.58,85.73L690.07,88.77L691.23,100.81L692.39,105.01L693.55,100.92L694.72,82.67L698.2,95.2L699.36,92.89L700.52,96.37L701.69,84.61L702.85,80.64L706.33,77.66L707.49,80.58L709.82,85.08L710.98,91.03L715.63,106.54L716.79,98.22L719.11,111.67L722.6,109.99L723.76,114.42L724.92,113.32L727.24,141.57L730.73,146.51L731.89,149.61L733.05,136.71L734.21,134.74L735.38,148.61L738.86,157.07L740.02,147.09L741.18,141.76L742.35,129.56L743.51,136.37L746.99,130.27L748.15,129.44L749.32,137.64L750.48,145.07L751.64,140.44L756.29,167.81L757.45,157.04L758.61,152.06L763.26,155.12L764.42,142.87L765.58,158.49L766.74,162.02L767.9,144.64L772.55,127.17L773.71,126.14L774.87,123.67L776.04,127.97L779.52,127.68L780.68,146.08L783.01,157.99L784.17,174.05L787.65,178.83L788.82,160.48L789.98,150.92L791.14,150.9L792.3,154.74L795.79,162.14L796.95,170.37L798.11,157.99L799.27,162.48L800.43,175.74L803.92,157.89L805.08,167.38L806.24,159.96L807.4,160.91L808.56,159.19L812.05,152.37L815.54,198.07L816.7,240.53L821.34,314.67L822.51,259.98L823.67,230.76L824.83,235L828.31,242.85L829.48,277.44L830.64,251.3L831.8,246L832.96,268.27L837.61,233.09L838.77,255.37L839.93,255.19L841.09,240.14L844.58,245.5L846.9,223.41L848.06,232.73L849.23,254.16L852.71,243.45L853.87,255.07L855.03,255.52L856.2,253.25L857.36,249.33L860.84,266.28L862,260.68L863.17,242.77L864.33,249.35L865.49,235.1L868.97,211.37L870.14,207.17L871.3,197.21L872.46,185.28L873.62,186.38L877.11,183.98L878.27,187.12L879.43,219.94L880.59,213.32L881.75,208.04L885.24,210.76L887.56,227.96L888.72,179.98L889.89,168.24L893.37,178.15L894.53,189.46L895.69,172.72L896.86,173.29L898.02,178.91L901.5,170.78L902.67,163.78L904.99,166.61L906.15,168.22L909.64,181.25L910.8,181.94L911.96,188.39L913.12,208.84L914.28,230.31L917.77,205.51L918.93,196.18L920.09,174.89L921.25,168.26L922.41,168.59L925.9,168.08L927.06,165.93L928.22,167.11L930.55,164.86L934.03,168.82L935.19,161.31L937.52,181.11L938.68,152.84L942.16,151.54L943.33,164.15L944.49,170.46L945.65,164.63L946.81,181.36L950.3,168.22L952.62,144.38L953.78,163.68L954.94,181.37L958.43,168.99L960.75,139.69L961.91,145.41L966.56,147.99L967.72,130.22L968.88,139.1L970.05,154.32L974.69,162.22L975.85,148.44L977.02,157.06L978.18,174.75L979.34,190.97L982.82,179.04L983.99,173.4L985.15,200.56L986.31,173.92L987.47,204.69L992.12,194.28L993.28,224.38L995.6,183.15L999.09,186.02L1000.25,165.73L1001.41,174.79L1002.57,163.4L1003.74,130.92L1007.22,125.02L1008.38,145.55L1010.71,138.87L1011.87,155.78L1015.35,152.38L1016.51,159.42L1018.84,177.55L1020,157.74" style="vector-effect: non-scaling-stroke; fill: none; stroke: rgb(255, 161, 90); stroke-opacity: 1; stroke-width: 2px; opacity: 1;"/></g><g class="points"/><g class="text"/></g><g class="trace scatter trace47e6ec" style="stroke-miterlimit: 2; opacity: 1;"><g class="fills"/><g class="errorbars"/><g class="lines"><path class="js-line" d="M0,266.16L1.16,251.62L2.32,255.61L3.49,266.89L6.97,263.75L9.29,279.88L10.46,274.53L11.62,283.53L15.1,295.16L16.26,290.28L17.43,294.87L18.59,302.1L19.75,299.66L23.23,307.66L24.4,312.27L25.56,311.79L26.72,289.07L27.88,282.57L31.37,280.18L32.53,290.28L33.69,270.33L36.01,262.78L39.5,265.79L40.66,253.05L41.82,256.89L42.98,253.3L44.15,255.15L47.63,247.53L48.79,237.99L49.95,243.93L51.12,245.92L52.28,239.77L55.76,233.55L56.92,237.14L58.09,224.99L59.25,233.95L60.41,225.77L65.06,220.99L66.22,216.18L68.54,210.3L72.03,208.47L73.19,207.58L74.35,211.39L75.51,208.19L76.67,201.48L80.16,197.14L81.32,201.02L82.48,199.92L84.81,199.77L88.29,207.53L89.45,206.26L91.78,221.4L92.94,203.94L96.42,206.02L97.59,215.3L99.91,239.51L101.07,241.44L104.56,234.81L105.72,245.91L106.88,223.2L108.04,229.41L109.2,225.65L112.69,220.63L116.17,209.09L117.33,208.18L121.98,206L124.31,215.6L125.47,217.53L128.95,219.6L130.11,207.97L131.28,217.88L132.44,220.98L133.6,219.35L137.08,228.5L138.25,219.88L139.41,214.09L140.57,216.09L141.73,225.27L146.38,228.83L148.7,241.1L149.86,255.55L153.35,259.51L154.51,258.59L155.67,272.26L156.83,265.55L158,270.22L161.48,295.42L164.97,276.27L166.13,262.6L169.61,260.07L170.77,244.8L171.94,249.95L173.1,243.76L174.26,235.28L178.91,242.72L180.07,248.04L181.23,244.1L182.39,247.8L185.88,247.1L187.04,247.63L188.2,244.63L190.52,234.4L194.01,245.06L195.17,228.3L196.33,234.66L198.66,229.8L202.14,231.7L203.3,221.61L204.46,221.04L205.63,235.1L206.79,238.35L211.44,224.74L212.6,236.03L213.76,226.01L214.92,227.93L218.41,222.72L219.57,212.29L220.73,216.91L221.89,214.45L223.05,209.99L226.54,200.55L230.02,196.68L231.18,199.73L234.67,204.48L235.83,195.4L236.99,187.96L238.15,200.01L239.32,206.16L242.8,197.12L245.13,186.69L246.29,185.84L250.93,181.8L252.1,182.27L253.26,183.1L254.42,180L255.58,177.81L259.07,162.01L260.23,156.45L261.39,156.15L262.55,158.1L263.71,163.35L267.2,164.53L268.36,174.01L269.52,163.56L270.68,161.87L271.85,155.56L275.33,154.98L276.49,152.12L277.65,157.46L278.82,169.99L279.98,162.46L283.46,165.35L284.62,174.14L285.79,163.73L286.95,163.64L288.11,162.48L292.76,160.91L293.92,166.09L295.08,157.58L296.24,152.56L299.73,150.19L300.89,155.06L302.05,149.74L303.21,145.36L304.37,146.58L309.02,148.32L310.18,154.46L311.34,162.76L312.51,161L315.99,157.98L317.15,160.26L319.48,148.06L320.64,147.89L324.12,148.21L325.28,154.78L326.45,150.94L327.61,156.48L328.77,154.94L332.26,159.78L333.42,148.36L334.58,145.27L335.74,140.93L340.39,140.67L341.55,143.61L342.71,133.72L345.03,136.36L348.52,131.64L349.68,134.66L350.84,134.26L352,147.52L353.17,136.69L358.97,151.08L360.14,150.51L361.3,153.56L364.78,152.5L367.11,162.4L368.27,190.06L372.92,187.15L374.08,197.9L375.24,189.39L376.4,198L377.56,186.94L381.05,185.94L382.21,186.4L383.37,180.54L384.53,175.71L385.69,178.72L392.67,156.53L393.83,157.83L398.47,152.28L399.64,147.77L400.8,148.66L401.96,148.15L406.61,152.54L407.77,150.29L408.93,149.72L410.09,141.29L413.58,151.28L414.74,159.32L415.9,149.04L417.06,150.02L418.22,155.59L421.71,151.05L422.87,143.14L424.03,142.16L426.36,128.62L429.84,133.3L431,141.85L432.16,126.35L433.33,146.01L434.49,136.04L437.97,135.41L439.13,138.45L440.3,153.13L441.46,153.38L442.62,138.38L446.1,140.41L447.27,155.06L448.43,132.77L449.59,152.75L450.75,152.6L454.24,174.98L455.4,176.13L457.72,208.24L458.88,192.64L462.37,187.57L463.53,182.97L464.69,183.65L465.85,177.41L467.02,165.49L470.5,160.75L471.66,153.09L472.82,150.58L475.15,134.14L478.63,133.54L480.96,119.65L482.12,117.74L483.28,111.06L486.77,106.58L487.93,106.16L489.09,104.78L490.25,89.8L491.41,87.8L494.9,85.94L496.06,81.54L497.22,77.82L498.38,80.13L499.54,76.91L503.03,77.23L504.19,79.33L505.35,72.51L507.68,57.88L511.16,69.3L512.32,68.46L513.49,71.87L514.65,72.73L515.81,72.14L519.29,85.85L520.46,102.15L521.62,121.57L522.78,113.92L523.94,134.02L527.43,145.76L528.59,152.32L529.75,123.24L530.91,90.48L532.07,94.42L535.56,80.97L536.72,80.86L537.88,83.54L540.21,75.47L543.69,79.02L544.85,83.52L546.01,98.5L548.34,99.6L551.82,113.06L552.98,110.16L555.31,64.79L556.47,78.12L561.12,83.9L562.28,100.78L563.44,104.74L564.6,91.96L569.25,95.12L570.41,98.33L571.57,79.35L572.73,93.76L576.22,89.75L577.38,112.36L578.54,125.63L579.7,100.49L580.87,128.13L584.35,112.09L585.51,92.89L586.67,95.22L587.84,84.01L589,85.76L592.48,100.36L593.64,81.19L594.81,80.98L595.97,76.84L597.13,73.24L601.78,76.99L602.94,75.5L604.1,86.93L605.26,82.38L608.75,81.46L612.23,60.46L613.39,62.82L616.88,56.47L618.04,62.52L619.2,70.8L620.36,69.67L621.53,95.61L625.01,88.6L627.33,122.6L628.5,101.6L629.66,107.22L633.14,85.46L634.31,95.4L635.47,80.67L636.63,90.99L637.79,74.13L641.28,64.37L642.44,71.04L643.6,93.18L644.76,96.91L645.92,99.78L649.41,79.29L651.73,104.37L652.89,101.29L657.54,94.02L658.7,96.75L661.03,90.47L662.19,82.67L665.67,89.56L666.83,87.4L668,88.17L669.16,94.09L670.32,112.48L673.8,97.43L674.97,106.35L676.13,92.23L677.29,88.97L678.45,80.95L681.94,92.02L683.1,85.68L685.42,103.93L686.58,88.75L690.07,89.32L691.23,99.59L692.39,102.98L693.55,98.29L694.72,80.43L698.2,91.78L699.36,91.55L700.52,95.31L702.85,77.65L706.33,75.09L707.49,76.83L708.66,80.69L709.82,83.09L710.98,90.46L715.63,104.39L716.79,97.7L719.11,111.34L722.6,109.11L723.76,112.16L724.92,109.58L727.24,137.23L730.73,141.3L731.89,141.58L733.05,129.32L734.21,126.07L735.38,138.52L738.86,148.87L740.02,138.1L741.18,132.41L742.35,118.1L743.51,125.79L746.99,120.43L748.15,120.47L749.32,129.75L750.48,137.19L751.64,129.98L756.29,157.79L757.45,142.22L758.61,139.98L763.26,141.3L764.42,124.94L765.58,140.21L766.74,139.15L767.9,122.59L772.55,105.15L773.71,104.05L774.87,99.74L776.04,104.7L779.52,102.97L780.68,115.59L783.01,124.38L784.17,138.91L787.65,144.59L788.82,129.43L789.98,118.65L791.14,122.41L792.3,122.85L795.79,126.45L796.95,132.7L798.11,121.99L800.43,141.54L803.92,127.21L805.08,133.56L806.24,129.98L807.4,128.92L808.56,126.82L812.05,120.72L813.21,132.64L814.37,143.06L815.54,161.36L816.7,202.75L820.18,257.84L821.34,281.48L822.51,229.05L823.67,202.21L824.83,210.53L828.31,221.72L829.48,254.47L830.64,231.62L831.8,228.59L832.96,250.96L837.61,215.63L838.77,238.98L839.93,237.22L841.09,225.15L844.58,229.67L846.9,204.81L848.06,210.76L849.23,231.54L852.71,224.18L853.87,234.1L855.03,234.39L857.36,228.86L860.84,245.52L862,238.68L863.17,225.16L864.33,230.65L865.49,215.31L868.97,193.19L870.14,195.91L872.46,172.91L873.62,172.59L877.11,169.26L878.27,174.18L879.43,205.77L880.59,193L881.75,185.98L885.24,187.59L887.56,199.46L888.72,159.62L889.89,147.94L893.37,152.79L894.53,158.06L895.69,145.59L896.86,144.45L898.02,152.87L902.67,139.83L903.83,141.12L904.99,141.43L906.15,145.6L909.64,157.1L910.8,154.5L911.96,158.42L913.12,179.2L914.28,197.02L917.77,173.55L918.93,166.76L920.09,146.07L921.25,143.74L922.41,144.43L925.9,144.75L927.06,142.85L928.22,142.66L930.55,140.68L934.03,149.4L935.19,137.61L937.52,158.68L938.68,129.12L942.16,125.98L943.33,137.93L944.49,146.19L945.65,140.1L946.81,155.13L950.3,142.82L952.62,113.49L953.78,132.89L954.94,153.8L958.43,142.11L960.75,114.72L961.91,119.09L966.56,120.87L967.72,104.19L968.88,111.42L970.05,127.07L974.69,140.31L975.85,125.94L977.02,135.08L978.18,150.3L979.34,167.62L982.82,158.07L983.99,153.88L985.15,180.3L986.31,157.64L987.47,181.56L992.12,168.63L993.28,195.26L995.6,160.01L999.09,162.15L1000.25,137.44L1001.41,143.11L1002.57,133.96L1003.74,102.27L1007.22,96.45L1008.38,113.88L1009.54,110.54L1010.71,112.88L1011.87,127.9L1015.35,125L1017.68,132.89L1018.84,146.82L1020,127.5" style="vector-effect: non-scaling-stroke; fill: none; stroke: rgb(25, 211, 243); stroke-opacity: 1; stroke-width: 2px; opacity: 1;"/></g><g class="points"/><g class="text"/></g><g class="trace scatter tracec020f1" style="stroke-miterlimit: 2; opacity: 1;"><g class="fills"/><g class="errorbars"/><g class="lines"><path class="js-line" d="M0,266.16L1.16,251.89L2.32,256.19L3.49,267.71L6.97,264.56L9.29,281.43L10.46,275.64L11.62,285.87L15.1,297.65L16.26,292.22L17.43,297.26L18.59,304.37L19.75,301.86L23.23,309.7L24.4,314.74L25.56,313.4L26.72,290.86L27.88,283.55L31.37,281.2L32.53,291.25L33.69,271.6L36.01,267.47L39.5,270.33L40.66,256.97L41.82,260.67L42.98,256.97L44.15,259.21L47.63,251.23L48.79,241.01L49.95,247.05L51.12,248.91L52.28,243.24L55.76,237.04L56.92,241.65L58.09,229.01L59.25,237.5L60.41,229.8L65.06,225.06L66.22,220.76L68.54,213.76L72.03,211.62L73.19,210.13L74.35,213.53L75.51,210.7L76.67,205.32L80.16,201.53L81.32,205.81L82.48,204.22L84.81,203.78L88.29,211.96L89.45,210.26L91.78,224.99L92.94,207.73L96.42,209.51L97.59,218.64L98.75,227.31L99.91,243.06L101.07,245.04L104.56,237.49L105.72,249.23L106.88,226.01L108.04,231.99L109.2,228.18L112.69,222.63L113.85,219.15L116.17,210.95L117.33,210.2L121.98,207.82L124.31,217.98L125.47,219.68L128.95,221.66L130.11,208.86L131.28,219.07L132.44,222.32L133.6,220.63L137.08,230.95L138.25,222.32L139.41,216.18L140.57,217.95L141.73,226.31L146.38,229.93L148.7,243.1L149.86,257.92L154.51,262.75L155.67,276.08L156.83,270.03L158,274.7L161.48,300.27L162.64,294.83L163.8,291.06L164.97,280.93L166.13,267.68L169.61,265.02L170.77,249.61L171.94,254.4L174.26,239.09L178.91,247.61L180.07,252.58L181.23,248.05L182.39,252.19L185.88,251.55L187.04,251.66L188.2,248.93L190.52,238.07L194.01,248.24L195.17,231.71L196.33,237.98L198.66,233.02L202.14,234.6L203.3,224.74L204.46,224.2L205.63,237.83L206.79,241.48L211.44,227.31L212.6,238.25L213.76,227.62L214.92,228.43L218.41,222.74L219.57,210.96L220.73,216.21L221.89,213.81L223.05,209.41L226.54,200.38L230.02,197.74L231.18,200.39L234.67,203.38L235.83,194.7L236.99,187.4L238.15,199.12L239.32,204.67L242.8,195.66L245.13,184.88L246.29,185.94L250.93,181.57L252.1,182.3L253.26,183.71L254.42,180.25L255.58,177.84L259.07,161.35L260.23,156.84L261.39,155.74L262.55,158.61L263.71,163.94L267.2,164.45L268.36,173.16L269.52,161.73L270.68,160.86L271.85,154.49L275.33,153.92L276.49,151.01L277.65,157.02L278.82,170.33L279.98,162.78L283.46,165.72L284.62,174.32L285.79,163.89L286.95,163.99L288.11,162.85L292.76,161.82L293.92,167.52L295.08,159.13L296.24,153.89L299.73,151.45L300.89,155.84L302.05,150.8L303.21,146.32L304.37,147.16L309.02,148.93L310.18,155.25L311.34,163.67L312.51,161.76L315.99,158.74L317.15,160.91L319.48,147.96L320.64,147.55L324.12,147.48L325.28,153.81L326.45,150.23L327.61,155.41L328.77,153.73L332.26,158.55L333.42,146.56L334.58,143.19L335.74,139.33L340.39,138.74L341.55,141.66L342.71,132.05L345.03,134.81L348.52,129.33L349.68,133.86L350.84,132.98L352,145.8L353.17,135.15L358.97,148.15L360.14,147.29L361.3,150.2L364.78,148.62L367.11,159.2L368.27,186.75L369.43,186.6L372.92,184.03L374.08,195.07L375.24,185.96L376.4,195.52L377.56,184.34L381.05,183.06L382.21,183.5L384.53,172.73L385.69,175.29L392.67,152.43L393.83,154.27L398.47,148.16L399.64,144.1L400.8,144.79L401.96,143.78L406.61,148.23L407.77,146.33L408.93,146.07L410.09,138.16L413.58,148.32L414.74,155.8L415.9,145.24L417.06,146.15L418.22,151.87L421.71,147.52L422.87,139.25L424.03,138.4L426.36,124.48L429.84,128.64L431,137L432.16,122L433.33,142.31L434.49,133.4L437.97,133.18L439.13,135.71L440.3,150.75L441.46,151.35L442.62,136.64L446.1,137.83L447.27,152.58L448.43,129.4L449.59,150.18L450.75,149.53L455.4,174.12L456.56,190.9L457.72,204.81L458.88,188.68L463.53,185.37L464.69,185.95L465.85,179.75L467.02,168.53L470.5,163.76L471.66,155.79L472.82,153.05L473.99,144.54L475.15,136.34L478.63,136.36L480.96,123.82L482.12,121.63L483.28,115.5L486.77,110.76L489.09,109.41L490.25,95.68L491.41,93.74L494.9,91.95L497.22,84.61L498.38,87.22L499.54,83.91L503.03,84.59L504.19,86.84L505.35,80.45L507.68,66.64L511.16,77.68L512.32,76.61L513.49,80.02L514.65,81.35L515.81,80.91L519.29,94.67L520.46,110.26L521.62,130.42L522.78,122.63L523.94,144.09L527.43,156.17L528.59,163.45L529.75,134.45L530.91,101.06L532.07,104.91L535.56,91.04L536.72,90.61L537.88,93.45L540.21,85.71L543.69,89.71L544.85,94.13L546.01,108.49L548.34,109.22L551.82,123.17L552.98,121.75L555.31,77.65L556.47,90.9L561.12,97.51L562.28,113.48L563.44,118.05L564.6,104.83L569.25,108.49L570.41,111.54L571.57,92.38L572.73,106.83L576.22,103.25L577.38,125.53L578.54,138.82L579.7,114.2L580.87,141.06L584.35,125.07L585.51,105.5L586.67,108.13L587.84,97.56L589,99.78L592.48,114.01L593.64,94.88L594.81,94.12L595.97,92.34L597.13,87.97L601.78,91.03L602.94,90.04L604.1,99.7L605.26,95.77L608.75,94.36L612.23,74.62L613.39,75.75L616.88,70.85L618.04,76.55L619.2,85.15L620.36,83.65L621.53,109.83L625.01,102.85L627.33,137.05L628.5,116.05L629.66,122.77L633.14,100.92L634.31,110.36L635.47,94.88L636.63,105.09L637.79,88.64L641.28,78.8L642.44,85.69L643.6,107.64L644.76,110.67L645.92,113.79L649.41,93.53L651.73,118.07L652.89,114.59L657.54,107.05L658.7,109.64L661.03,103.6L662.19,96.03L665.67,102.94L666.83,100.99L668,101.66L669.16,107.4L670.32,124.95L673.8,109.25L674.97,117.73L676.13,103.5L677.29,99.73L678.45,92.13L681.94,102.07L683.1,95.65L685.42,114.14L686.58,98.64L690.07,99.1L691.23,109.52L692.39,113.22L693.55,108.51L694.72,90.79L698.2,102.25L699.36,102.43L700.52,104.95L701.69,91.46L702.85,87.37L706.33,84.82L707.49,86L709.82,91.89L710.98,99.25L715.63,113.13L716.79,106.2L717.95,111.35L719.11,120.31L722.6,118.07L723.76,121.26L724.92,118.95L726.08,132.17L727.24,146.37L730.73,150.42L731.89,150.39L733.05,138.2L734.21,135.2L735.38,147.79L738.86,157.91L740.02,146.84L741.18,141.52L742.35,127.36L743.51,135.09L746.99,129.93L748.15,129.74L749.32,138.9L750.48,145.65L751.64,139.32L756.29,166.72L757.45,151.59L758.61,149.2L763.26,150.71L764.42,135.25L765.58,150.54L766.74,149.71L767.9,132.64L772.55,115.75L773.71,114.28L774.87,109.4L776.04,114.13L779.52,112.05L780.68,127.22L783.01,137L784.17,151.79L787.65,157.45L788.82,142.72L789.98,132.61L791.14,136.42L792.3,136.85L795.79,141.38L796.95,147.78L798.11,137.39L800.43,156.08L803.92,141.69L805.08,148.37L806.24,144.74L807.4,145.25L808.56,143.18L812.05,136.48L813.21,147.51L815.54,175.09L816.7,215.95L821.34,292.67L822.51,240.6L823.67,214.4L824.83,222.24L828.31,232.66L829.48,265.69L830.64,243.36L831.8,240.31L832.96,262.76L837.61,228.37L838.77,251.55L839.93,249.55L841.09,237.72L844.58,242.1L846.9,217.37L848.06,222.96L849.23,243.62L852.71,235.48L853.87,245.39L855.03,246.16L857.36,241.46L860.84,257.16L862,250.12L863.17,237.02L864.33,242.93L865.49,228.29L868.97,206.19L870.14,208.89L872.46,186.09L873.62,185.26L877.11,182.26L878.27,187.07L879.43,216.04L880.59,204.05L881.75,197.35L885.24,199.7L887.56,213.37L888.72,174.31L889.89,162.9L893.37,168.39L894.53,175.47L895.69,162.89L896.86,160.96L898.02,168.79L902.67,155.85L903.83,157.56L904.99,158.11L906.15,162.58L909.64,174.79L910.8,172.1L911.96,175.21L913.12,196.04L914.28,212.92L917.77,189.32L918.93,183.23L920.09,162.76L921.25,159.94L922.41,160.7L925.9,160.18L927.06,158.01L928.22,158.69L930.55,156.43L934.03,164.51L935.19,153.09L937.52,173.24L938.68,144.1L942.16,141.71L943.33,153.62L944.49,161.46L945.65,155.67L946.81,170.6L950.3,158.53L952.62,128.78L953.78,147.92L954.94,168.93L958.43,158.15L960.75,130.44L961.91,134.61L966.56,136.92L967.72,120.68L968.88,127.77L970.05,143.36L974.69,156.67L975.85,143.58L977.02,152.3L978.18,168L979.34,184.32L982.82,175.57L983.99,170.92L985.15,195.82L986.31,173.21L987.47,196.77L992.12,184.88L993.28,212.1L995.6,177.66L999.09,180.14L1000.25,155.24L1001.41,160.03L1002.57,150.34L1003.74,119.2L1007.22,113.94L1008.38,131.51L1009.54,126.81L1010.71,127.18L1011.87,141.76L1015.35,137.22L1016.51,141.17L1017.68,148.05L1018.84,162.22L1020,142.85" style="vector-effect: non-scaling-stroke; fill: none; stroke: rgb(255, 102, 146); stroke-opacity: 1; stroke-width: 2px; opacity: 1;"/></g><g class="points"/><g class="text"/></g><g class="trace scatter traceeb6967" style="stroke-miterlimit: 2; opacity: 1;"><g class="fills"/><g class="errorbars"/><g class="lines"><path class="js-line" d="M0,266.16L1.16,251.83L2.32,256.03L3.49,267.61L6.97,264.28L9.29,281.23L10.46,275.43L11.62,285.69L15.1,297.53L16.26,292.05L17.43,297.04L18.59,304.18L19.75,301.7L23.23,309.53L24.4,314.49L25.56,313.09L26.72,290.66L27.88,283.4L31.37,281.04L32.53,291.08L33.69,271.42L36.01,267.29L39.5,270.13L40.66,256.72L41.82,260.26L42.98,256.46L44.15,258.79L47.63,250.79L48.79,240.67L49.95,246.67L51.12,248.54L52.28,242.86L55.76,236.54L56.92,241.17L58.09,228.56L59.25,237.06L60.41,229.35L65.06,224.5L66.22,220.26L68.54,213.04L72.03,210.88L73.19,209.41L74.35,212.88L75.51,210.12L76.67,204.73L80.16,200.92L81.32,205.17L82.48,203.52L84.81,203.01L88.29,211.12L89.45,209.36L91.78,224.05L92.94,206.88L96.42,208.6L97.59,217.76L98.75,226.36L99.91,241.97L101.07,243.96L104.56,236.41L105.72,248.2L106.88,225.09L108.04,231.12L109.2,227.32L112.69,221.72L113.85,218.25L116.17,210.05L117.33,209.32L121.98,207.02L124.31,217.17L125.47,218.94L128.95,220.86L130.11,208.13L131.28,218.29L132.44,221.57L133.6,219.88L137.08,230.05L138.25,221.38L139.41,215.29L140.57,217.03L141.73,225.42L146.38,229.03L148.7,242.18L149.86,256.94L154.51,261.94L155.67,275.31L156.83,269.38L158,274.05L161.48,299.56L162.64,294.05L163.8,290.32L164.97,280.25L166.13,266.89L169.61,264.24L170.77,248.74L171.94,253.55L174.26,238.12L178.91,246.55L180.07,251.57L181.23,247.16L182.39,251.35L185.88,250.69L187.04,250.87L188.2,248.16L190.52,237.29L194.01,247.47L195.17,230.93L196.33,237.27L198.66,232.28L202.14,233.88L203.3,224.02L204.46,223.47L205.63,237.1L206.79,240.78L211.44,226.64L212.6,237.68L213.76,227.11L214.92,227.9L218.41,222.08L219.57,210.26L220.73,215.54L221.89,213.15L223.05,208.77L226.54,199.71L230.02,197.05L231.18,199.74L234.67,202.77L235.83,194.12L236.99,186.78L238.15,198.48L239.32,204.02L242.8,194.99L245.13,184.34L246.29,185.34L250.93,180.9L252.1,181.7L253.26,183.1L254.42,179.38L255.58,176.87L259.07,160.21L260.23,155.63L261.39,154.53L262.55,157.42L263.71,162.79L267.2,163.27L268.36,172.05L269.52,160.81L270.68,159.95L271.85,153.57L275.33,152.99L276.49,150.07L277.65,156.05L278.82,169.58L279.98,162.09L283.46,165L284.62,173.6L285.79,163.21L286.95,163.36L288.11,162.22L292.76,161.21L293.92,166.9L295.08,158.43L296.24,153.23L299.73,150.84L300.89,155.18L302.05,150.13L303.21,145.6L304.37,146.46L307.86,147.21L309.02,148.24L311.34,163L312.51,161.14L315.99,158.06L317.15,160.29L319.48,147.5L320.64,147.14L324.12,147.1L325.28,153.51L326.45,150.04L327.61,155.25L328.77,153.53L332.26,158.35L333.42,146.31L334.58,142.91L335.74,139L340.39,138.33L341.55,141.17L342.71,131.57L345.03,134.4L348.52,128.94L349.68,133.47L350.84,132.52L352,145.4L353.17,134.77L358.97,147.52L360.14,146.74L361.3,149.67L364.78,148.05L367.11,158.63L368.27,186.25L369.43,186L372.92,183.5L374.08,194.53L375.24,185.42L376.4,194.88L377.56,183.67L381.05,182.37L382.21,182.83L384.53,172L385.69,174.6L392.67,151.8L393.83,153.57L398.47,147.51L399.64,143.45L400.8,144.14L401.96,143.2L406.61,147.63L407.77,145.84L408.93,145.64L410.09,137.69L413.58,147.93L414.74,155.4L415.9,144.78L417.06,145.69L418.22,151.4L421.71,147.03L422.87,138.79L424.03,137.95L426.36,124.14L429.84,128.31L431,136.57L432.16,121.67L433.33,142.05L434.49,133.21L437.97,133.07L439.13,135.63L440.3,150.67L441.46,151.23L442.62,136.56L446.1,137.72L447.27,152.46L448.43,129.29L449.59,149.96L450.75,149.23L455.4,173.7L456.56,190.68L457.72,204.78L458.88,188.73L463.53,185.31L464.69,185.88L465.85,179.73L467.02,168.52L470.5,163.86L471.66,155.89L472.82,153.18L473.99,144.73L475.15,136.57L478.63,136.53L480.96,124.1L482.12,121.91L483.28,115.61L486.77,110.91L489.09,109.58L490.25,95.73L491.41,93.73L494.9,91.99L497.22,84.64L498.38,87.26L499.54,83.93L503.03,84.51L504.19,86.82L505.35,80.47L507.68,66.77L511.16,77.87L512.32,76.73L513.49,80.12L514.65,81.42L515.81,81.06L519.29,94.88L520.46,110.35L521.62,130.55L522.78,122.78L523.94,144.32L527.43,156.37L528.59,163.61L529.75,134.66L530.91,101.28L532.07,105L535.56,91.17L536.72,90.72L537.88,93.61L540.21,85.81L543.69,89.87L544.85,94.31L546.01,108.67L548.34,109.36L551.82,123.32L552.98,121.87L555.31,77.73L556.47,90.87L561.12,97.59L562.28,113.6L563.44,118.22L564.6,105.08L569.25,108.65L570.41,111.8L571.57,92.69L572.73,107.02L576.22,103.37L577.38,125.71L578.54,138.84L579.7,114.13L580.87,140.91L584.35,124.9L585.51,105.33L586.67,107.95L587.84,97.37L589,99.59L592.48,113.75L593.64,94.7L594.81,93.89L595.97,92.1L597.13,87.68L601.78,90.74L602.94,89.74L604.1,99.6L605.26,95.68L608.75,94.27L612.23,74.86L613.39,76.06L616.88,71.26L618.04,76.85L619.2,85.5L620.36,84.05L621.53,110.13L625.01,103.19L627.33,137.39L628.5,116.48L629.66,123.16L633.14,101.32L634.31,110.71L635.47,95.21L636.63,105.52L637.79,89.1L641.28,79.17L642.44,86.06L643.6,108.03L644.76,111.01L645.92,114.24L649.41,93.94L651.73,118.54L652.89,115.04L657.54,107.44L658.7,110.05L661.03,104.1L662.19,96.53L665.67,103.42L666.83,101.42L668,101.99L669.16,107.91L670.32,125.44L673.8,109.69L674.97,118.18L676.13,103.91L677.29,100.08L678.45,92.51L681.94,102.34L683.1,95.93L685.42,114.41L686.58,98.85L690.07,99.31L691.23,109.77L692.39,113.5L693.55,108.84L694.72,91.1L698.2,102.63L699.36,102.76L700.52,105.4L701.69,91.88L702.85,87.83L706.33,85.29L707.49,86.64L709.82,92.46L710.98,99.81L715.63,113.78L716.79,106.83L717.95,111.99L719.11,120.97L722.6,118.66L723.76,121.83L724.92,119.52L726.08,132.71L727.24,146.89L730.73,150.94L731.89,150.9L733.05,138.72L734.21,135.82L735.38,148.42L738.86,158.57L740.02,147.56L741.18,142.19L742.35,128.12L743.51,135.85L746.99,130.66L748.15,130.55L749.32,139.58L750.48,146.43L751.64,140.19L756.29,167.52L757.45,152.42L758.61,149.99L763.26,151.46L764.42,135.98L765.58,151.28L766.74,150.56L767.9,133.52L772.55,116.69L773.71,115.24L774.87,110.32L776.04,114.95L779.52,112.83L780.68,128.1L783.01,138L784.17,152.85L787.65,158.57L788.82,143.8L789.98,133.7L791.14,137.61L792.3,138.26L795.79,142.95L796.95,149.51L798.11,139.13L800.43,157.79L803.92,143.27L805.08,150.07L806.24,146.24L807.4,146.8L808.56,144.76L812.05,138.14L813.21,149.31L815.54,176.98L816.7,217.92L821.34,294.51L822.51,242.4L823.67,216.23L824.83,224.06L828.31,234.45L829.48,267.56L830.64,245.18L831.8,242.17L832.96,264.6L837.61,230.22L838.77,253.44L839.93,251.45L841.09,239.61L844.58,243.98L846.9,219.35L848.06,225L849.23,245.68L852.71,237.55L853.87,247.45L855.03,248.2L857.36,243.48L860.84,259.2L862,252.3L863.17,239.2L864.33,245.1L865.49,230.46L868.97,208.42L870.14,211.02L872.46,188.31L873.62,187.5L877.11,184.64L878.27,189.49L879.43,218.72L880.59,206.78L881.75,200.13L885.24,202.55L887.56,216.3L888.72,177.25L889.89,165.75L893.37,171.39L894.53,178.61L895.69,165.89L896.86,163.93L898.02,171.73L902.67,158.51L903.83,160.14L904.99,160.86L906.15,165.27L909.64,177.48L910.8,174.93L911.96,178.14L913.12,198.95L914.28,215.76L917.77,192.13L918.93,186L920.09,165.54L921.25,162.67L922.41,163.57L925.9,163.1L927.06,160.88L928.22,161.62L930.55,159.43L934.03,167.45L935.19,156.11L937.52,176.2L938.68,147.19L942.16,144.82L943.33,156.82L944.49,164.63L945.65,158.81L946.81,173.75L950.3,161.7L952.62,132.11L953.78,151.36L954.94,172.29L958.43,161.51L960.75,133.8L961.91,137.99L966.56,140.35L967.72,124.1L968.88,131.17L970.05,146.7L974.69,159.82L975.85,146.78L977.02,155.45L978.18,171L979.34,187.34L982.82,178.56L983.99,173.99L985.15,198.81L986.31,176.07L987.47,199.59L992.12,187.9L993.28,215.24L995.6,180.7L999.09,183.26L1000.25,158.44L1001.41,163.62L1002.57,153.92L1003.74,122.79L1007.22,117.61L1008.38,135.17L1009.54,130.3L1010.71,130.6L1011.87,144.83L1015.35,140.2L1016.51,144.3L1017.68,151.27L1018.84,165.62L1020,146.33" style="vector-effect: non-scaling-stroke; fill: none; stroke: rgb(182, 232, 128); stroke-opacity: 1; stroke-width: 2px; opacity: 1;"/></g><g class="points"/><g class="text"/></g><g class="trace scatter tracef9f7e9" style="stroke-miterlimit: 2; opacity: 1;"><g class="fills"/><g class="errorbars"/><g class="lines"><path class="js-line" d="M0,266.16L1.16,251.73L2.32,255.88L3.49,267.78L6.97,264.25L9.29,280.73L10.46,274.58L11.62,285.43L15.1,297.51L16.26,291.63L17.43,297.1L18.59,304.11L19.75,301.97L23.23,309.5L24.4,314.2L25.56,313.06L26.72,290.74L27.88,283.98L31.37,282.31L32.53,292.44L33.69,273.02L36.01,269.96L39.5,272.44L40.66,259.38L41.82,262.29L42.98,258.83L44.15,260.78L47.63,253.33L48.79,243.6L49.95,249.54L51.12,251.35L52.28,246.19L55.76,239.72L56.92,244.74L58.09,231.59L59.25,240.1L60.41,232.44L65.06,227.34L66.22,223.42L68.54,216.07L72.03,213.7L73.19,212.11L74.35,216.03L76.67,207.75L80.16,204.1L81.32,207.86L82.48,205.67L84.81,204.87L88.29,213.02L89.45,210.83L90.62,216.98L91.78,225.82L92.94,208.83L96.42,210.43L97.59,219.65L98.75,227.64L99.91,243.02L101.07,245.13L104.56,237.48L105.72,249.21L106.88,226.37L108.04,232.15L109.2,227.64L112.69,221.62L113.85,218.07L116.17,209.9L117.33,209.29L120.82,207.69L121.98,206.16L125.47,218.72L128.95,220.8L130.11,208.35L131.28,218.97L132.44,222.66L133.6,220.57L137.08,229.62L138.25,221.26L139.41,215.12L140.57,216.92L141.73,225.72L146.38,228.94L149.86,256.07L153.35,259.66L154.51,261.35L155.67,275.12L156.83,269.36L158,273.8L161.48,299.83L162.64,294.22L163.8,290.14L164.97,280.39L166.13,267.13L169.61,264.29L170.77,249.05L171.94,253.82L174.26,238.32L178.91,247.25L180.07,252.36L181.23,247.69L182.39,252.07L185.88,251.55L187.04,251.8L188.2,248.88L190.52,237.57L194.01,247.61L195.17,231.61L196.33,237.65L198.66,232.53L202.14,234.27L203.3,224.87L204.46,224.16L205.63,237.63L206.79,241.35L211.44,227.3L212.6,238.31L213.76,227.76L214.92,229.34L218.41,223.15L219.57,211.04L220.73,216.39L221.89,214.23L223.05,209.7L226.54,200.83L228.86,199.2L230.02,198.77L231.18,201.34L234.67,203.47L236.99,186.88L238.15,198.35L239.32,203.56L242.8,194.69L245.13,183.54L246.29,184.84L250.93,180.66L252.1,181.35L253.26,182.72L254.42,178.58L255.58,176.2L259.07,160.79L260.23,155.36L261.39,153.87L262.55,156.07L263.71,161.32L267.2,161.09L268.36,170.07L269.52,159.25L270.68,158.92L271.85,152.37L275.33,151.52L276.49,148.43L277.65,154.29L278.82,168.32L279.98,160.52L283.46,163.29L284.62,172.13L285.79,161.86L286.95,162.32L288.11,160.76L292.76,159.66L293.92,165.44L295.08,156.44L296.24,151.2L299.73,148.96L300.89,153.25L302.05,148.31L303.21,143.77L304.37,144.32L307.86,144.89L309.02,146.01L311.34,160.84L312.51,159.17L315.99,156.07L317.15,157.94L319.48,145.1L320.64,145.31L324.12,144.98L325.28,151.39L326.45,148.34L327.61,153.34L328.77,151.67L332.26,156.16L333.42,144.21L334.58,140.74L335.74,136.91L340.39,136.63L341.55,139.5L342.71,129.89L345.03,132.1L348.52,126.46L349.68,131.04L350.84,130.1L352,142.41L353.17,131.68L358.97,144.87L360.14,143.96L361.3,146.75L364.78,145.19L367.11,156.06L368.27,183.37L369.43,183.43L372.92,180.77L374.08,191.93L375.24,182.82L376.4,192.32L377.56,181.22L382.21,179.55L383.37,173.11L384.53,168.34L385.69,170.38L392.67,147.6L393.83,149.4L398.47,142.77L399.64,138.84L400.8,139.54L401.96,138.57L406.61,142.9L407.77,141.24L408.93,141.29L410.09,133.43L413.58,143.24L414.74,150.47L415.9,140.08L417.06,141.07L418.22,147.18L421.71,143.27L422.87,135.13L424.03,134.57L426.36,120.55L429.84,124.34L431,132.71L432.16,118.13L433.33,138.72L434.49,129.66L437.97,129.54L439.13,131.57L440.3,146.15L441.46,146.61L442.62,131.68L446.1,132.36L447.27,146.67L448.43,123.28L449.59,143.7L450.75,142.79L454.24,164.81L455.4,167.03L457.72,199.46L458.88,183.28L462.37,181.77L463.53,182.38L464.69,183.34L465.85,177.09L467.02,166.07L470.5,162.09L471.66,154.54L472.82,151.98L475.15,135.12L478.63,134.7L480.96,122.61L482.12,120.57L483.28,114.02L486.77,109.75L489.09,108.09L490.25,93.89L491.41,91.78L494.9,89.8L497.22,82.14L498.38,84.73L499.54,81.26L503.03,81.46L504.19,83.84L505.35,77.73L507.68,63.63L511.16,75.22L512.32,74.57L513.49,78.27L514.65,79.63L515.81,79.56L519.29,93.09L520.46,109.67L521.62,129.87L522.78,122.33L523.94,144.16L527.43,156.45L528.59,163.46L529.75,134.45L530.91,101.27L532.07,104.75L535.56,91.05L536.72,89.8L537.88,92.56L540.21,84.87L543.69,88.97L544.85,93.51L546.01,108.19L548.34,108.78L551.82,122.18L552.98,120.04L555.31,75.69L556.47,88.88L561.12,95.79L562.28,111.47L563.44,116.09L564.6,103.04L569.25,105.8L570.41,108.96L571.57,89.66L572.73,103.37L576.22,100.24L577.38,122.94L578.54,135.24L579.7,110.03L580.87,137.18L584.35,121.02L585.51,102.05L586.67,105.32L587.84,95.67L589,97.84L592.48,111.84L593.64,92.66L595.97,90.33L597.13,86.08L601.78,89.14L602.94,87.82L604.1,97.28L605.26,93.41L608.75,91.92L609.91,85.34L611.07,81.63L612.23,73.7L613.39,74.25L616.88,70.12L618.04,75.32L619.2,84.48L620.36,82.98L621.53,108.91L625.01,101.84L626.17,124.68L627.33,136.51L628.5,115.36L629.66,122.53L633.14,100.69L634.31,109.42L635.47,93.83L636.63,104.03L637.79,87.51L641.28,78.42L642.44,84.9L643.6,106.91L644.76,109.82L645.92,113.34L649.41,92.93L651.73,117.21L652.89,113.48L657.54,105.37L658.7,108.36L661.03,102.93L662.19,96.12L665.67,102.7L666.83,100.48L668,100.96L669.16,106.7L670.32,124.84L673.8,108.32L674.97,116.81L676.13,102.55L677.29,98.79L678.45,91.49L681.94,100.57L683.1,92.95L685.42,111.56L686.58,95.95L690.07,96.16L691.23,106.66L692.39,110.4L693.55,105.73L694.72,88.33L698.2,100.03L699.36,100.4L700.52,102.44L701.69,88.75L702.85,84.96L706.33,82.79L707.49,84.42L709.82,90.12L710.98,97.49L715.63,111.66L716.79,104.4L717.95,109.5L719.11,118.32L722.6,115.91L723.76,119.21L724.92,116.83L726.08,130.44L727.24,144.94L730.73,148.93L731.89,148.97L733.05,136.62L734.21,133.86L735.38,146.62L738.86,156.86L740.02,145.58L741.18,140.22L742.35,126.3L743.51,134.33L746.99,128.89L748.15,128.75L749.32,138.02L750.48,144.74L751.64,138.62L756.29,166.28L757.45,150.86L758.61,148.28L763.26,149.65L764.42,134.2L765.58,149.59L766.74,149.31L767.9,132.09L772.55,115.18L773.71,113.8L774.87,108.26L776.04,112.67L779.52,110.36L780.68,126.6L783.01,136.92L784.17,151.68L787.65,157.48L788.82,143.7L789.98,133.65L791.14,137.55L792.3,137.68L795.79,142.25L796.95,148.84L798.11,138.26L800.43,156.71L803.92,142.18L805.08,149.22L806.24,145.44L807.4,145.84L808.56,143.59L812.05,137.13L813.21,148.06L815.54,176.64L816.7,217.5L821.34,293.95L822.51,242.03L823.67,216.22L824.83,223.04L828.31,233.49L829.48,266.6L830.64,244.59L831.8,241.33L832.96,263.93L837.61,230.11L838.77,253.04L839.93,251.04L841.09,239.54L844.58,243.71L846.9,218.57L848.06,224.44L849.23,245.41L852.71,237.16L853.87,247.51L855.03,248.5L857.36,243.33L860.84,259.07L862,252.83L863.17,239.53L864.33,246.13L865.49,232.03L868.97,209.49L870.14,212.09L872.46,188.93L873.62,188.02L877.11,185.45L878.27,190.74L879.43,220L880.59,208.79L881.75,202.54L885.24,204.88L887.56,217.95L888.72,178.68L889.89,167.79L893.37,173.54L894.53,181.43L895.69,168.16L896.86,165.96L898.02,173.29L902.67,161.22L903.83,162.41L904.99,163.26L906.15,167.87L909.64,180.12L910.8,177.82L911.96,181.19L913.12,201.81L914.28,218.3L917.77,194.42L918.93,188.16L920.09,167.61L921.25,163.41L922.41,164.76L925.9,163.69L927.06,161.83L928.22,163.29L930.55,160.98L934.03,169.27L935.19,157.96L937.52,177.82L938.68,148.65L942.16,146.28L943.33,158.19L944.49,166.53L945.65,160.42L946.81,175.74L950.3,163.97L952.62,133.97L953.78,153.59L954.94,175.22L958.43,164.45L960.75,136.23L961.91,140.58L966.56,142.73L967.72,126.45L968.88,133.5L970.05,149.11L974.69,162.07L975.85,149.29L977.02,157.94L978.18,173.98L979.34,190.07L982.82,181L983.99,176.02L985.15,200.9L986.31,178.8L987.47,202.23L992.12,190.55L993.28,218.23L995.6,183.47L999.09,185.89L1000.25,162.34L1001.41,168.89L1002.57,159.36L1003.74,127.94L1007.22,122.22L1008.38,140.21L1009.54,135.05L1010.71,134.99L1011.87,147.69L1015.35,143.47L1016.51,147.86L1017.68,155.8L1018.84,170.97L1020,151.35" style="vector-effect: non-scaling-stroke; fill: none; stroke: rgb(255, 151, 255); stroke-opacity: 1; stroke-width: 2px; opacity: 1;"/></g><g class="points"/><g class="text"/></g><g class="trace scatter trace3422ca" style="stroke-miterlimit: 2; opacity: 1;"><g class="fills"/><g class="errorbars"/><g class="lines"><path class="js-line" d="M0,266.16L1.16,253.01L2.32,256.61L3.49,273.18L6.97,277.62L9.29,289.07L10.46,284.15L11.62,290.41L15.1,301.9L16.26,296.36L17.43,301.59L18.59,313.8L19.75,307L23.23,319.18L24.4,333.45L25.56,331.09L26.72,302.22L27.88,292.3L31.37,286.57L32.53,298.47L33.69,280.09L34.85,280.28L36.01,277.78L39.5,278.44L40.66,271.7L41.82,276.56L42.98,267.99L44.15,262.53L47.63,262.66L48.79,252.7L49.95,258.2L51.12,264.73L52.28,258.49L55.76,256.38L56.92,258.25L58.09,246.76L59.25,260.42L60.41,245.43L63.9,243.52L65.06,246.42L66.22,240.08L68.54,227.56L72.03,226.29L73.19,227.09L74.35,233L76.67,218.36L80.16,217.66L81.32,217.64L82.48,215.45L84.81,216.42L88.29,223.36L89.45,231.77L90.62,233.99L91.78,240.09L92.94,222.34L96.42,221.86L97.59,226.54L99.91,247.42L101.07,246L104.56,234.46L105.72,235.29L106.88,209.14L108.04,208.14L109.2,204.39L112.69,197.82L116.17,181.27L117.33,181.4L120.82,179.09L121.98,172.62L124.31,184.71L125.47,182.15L128.95,186.16L130.11,176.71L131.28,182.8L132.44,184.41L133.6,185.1L137.08,201.1L139.41,181.09L140.57,186.89L141.73,183.17L146.38,187.12L147.54,190.79L148.7,206.51L149.86,234.94L153.35,238.63L154.51,230.53L155.67,247.48L156.83,237.67L158,251.05L161.48,280.18L162.64,273.71L163.8,274.15L164.97,257.33L166.13,242.54L169.61,241.85L170.77,224.61L171.94,227.36L173.1,221.68L174.26,210.35L178.91,212.49L180.07,220.52L181.23,212.24L182.39,214.91L185.88,205.64L187.04,208.09L188.2,206.42L189.36,199.78L190.52,195.4L194.01,209.13L195.17,188.77L196.33,191.96L198.66,183.7L202.14,186.74L203.3,192.76L204.46,193.76L205.63,214.41L206.79,218.28L211.44,194.11L212.6,204.29L213.76,194.57L214.92,197.09L218.41,199.42L219.57,191.28L220.73,200.11L221.89,200.54L223.05,195.28L226.54,183.25L228.86,172.95L230.02,172.99L231.18,187.27L234.67,202.18L235.83,201.26L236.99,185.08L239.32,221.75L242.8,208.67L243.96,200.69L245.13,186.19L246.29,187.64L250.93,184.01L252.1,178.19L253.26,179.32L254.42,179.32L255.58,191.85L259.07,184.05L260.23,176.31L261.39,172.25L262.55,174.21L263.71,178.32L267.2,176.74L268.36,188.32L269.52,177.82L276.49,160.22L277.65,169.29L278.82,184.22L279.98,180.25L283.46,178.41L284.62,190.7L285.79,176.52L286.95,175.62L288.11,169.98L292.76,163.79L293.92,167.57L295.08,161.72L296.24,160.07L299.73,157.71L300.89,159.61L302.05,158.25L304.37,141.57L307.86,139.88L309.02,139.63L310.18,148.75L311.34,158.55L312.51,154.84L315.99,154.37L317.15,151.91L318.31,143.14L319.48,141.82L320.64,139.53L324.12,140.41L325.28,151.05L326.45,146.64L327.61,148.55L328.77,148.04L332.26,150.29L333.42,138.73L334.58,136.92L335.74,128.7L340.39,132.64L341.55,143.14L342.71,136.09L343.87,142.39L345.03,139.82L348.52,129.85L349.68,129.38L350.84,122.45L352,136.87L353.17,125.85L356.65,130.18L357.81,124.66L358.97,127.06L360.14,127.31L361.3,138.32L364.78,136.36L367.11,145.49L368.27,173.82L369.43,180.06L372.92,173.28L374.08,185.77L375.24,184.53L376.4,191.24L377.56,174.65L381.05,173.22L382.21,174.06L384.53,160.39L385.69,164.92L392.67,131.27L393.83,134.69L399.64,123.9L400.8,127.69L401.96,126.01L406.61,128.77L407.77,127.81L408.93,128.58L410.09,122.53L413.58,124.85L414.74,133.56L415.9,128.66L417.06,130.42L418.22,135.92L421.71,132.02L422.87,123.01L424.03,120.79L425.19,111.04L426.36,109.81L429.84,119.37L431,129.81L432.16,116.03L433.33,139.64L434.49,124.69L437.97,128.44L439.13,130.97L440.3,152.25L441.46,152.58L442.62,133.94L446.1,135.52L447.27,159.87L448.43,135.32L449.59,165.24L450.75,175.53L454.24,195.46L455.4,195.98L456.56,211.48L457.72,213.67L458.88,190.16L462.37,188.44L463.53,169.21L464.69,182.93L467.02,152.19L470.5,151.07L471.66,134.29L472.82,137.1L475.15,99.91L478.63,102.08L479.79,100.51L480.96,91.51L482.12,85.26L483.28,83.53L486.77,79.97L487.93,79.87L489.09,80.11L490.25,76.48L491.41,78.09L494.9,76.93L496.06,73.35L497.22,73.54L498.38,70.56L499.54,62.43L504.19,61.99L505.35,60.85L507.68,60.8L511.16,65.4L512.32,56.22L513.49,53.27L514.65,54.38L515.81,49.14L520.46,63.22L521.62,87.17L522.78,81.52L523.94,109.71L527.43,118.64L528.59,128.65L530.91,65.28L532.07,62.9L536.72,43.3L537.88,42.76L540.21,40.66L543.69,42.04L544.85,46.97L546.01,61.27L548.34,60.38L551.82,89.98L552.98,101.6L554.15,82.58L555.31,53.69L556.47,68.92L561.12,79.97L562.28,96.64L563.44,106.15L564.6,89.1L569.25,88.77L570.41,85.28L571.57,62.08L572.73,74.71L576.22,74.17L577.38,100.21L578.54,117.7L579.7,97.56L580.87,120.06L584.35,102.55L585.51,75.26L586.67,74.67L587.84,55.74L589,61.16L592.48,69.65L593.64,57.18L594.81,57.78L595.97,47.93L597.13,43.73L601.78,41.21L602.94,42.79L604.1,46.73L605.26,32.91L608.75,35.02L609.91,26.77L611.07,25.4L612.23,26.3L613.39,33.6L616.88,19.67L618.04,27.29L619.2,36.8L620.36,33.33L621.53,58.26L625.01,45.84L626.17,75.57L627.33,78.03L628.5,54.82L629.66,67.86L633.14,47.48L634.31,58.94L635.47,38.65L636.63,49.12L637.79,34.06L641.28,35.09L642.44,44.46L643.6,70.61L644.76,74.21L645.92,71.13L649.41,47.58L650.57,65.46L651.73,72.42L652.89,66.61L657.54,56.1L658.7,56.59L659.86,54.17L661.03,49.15L662.19,40.31L665.67,47.51L668,35.4L669.16,36.01L670.32,60.98L673.8,42.34L674.97,49.96L676.13,42.04L678.45,38.3L681.94,42.07L683.1,35.62L684.26,42.29L685.42,59.71L686.58,43.31L690.07,39.17L691.23,51.87L692.39,59.58L693.55,52.24L694.72,28.39L698.2,36.06L699.36,39.36L700.52,40.06L701.69,22.92L702.85,21.11L707.49,17.55L708.66,19.96L709.82,19.93L710.98,24.73L715.63,41.75L716.79,30.9L717.95,34.19L719.11,44.51L722.6,41.85L723.76,44.39L724.92,38.65L726.08,53.9L727.24,58.91L730.73,66.32L731.89,66.54L733.05,45.42L734.21,41.94L735.38,54.5L738.86,64.12L740.02,53.99L741.18,51.2L742.35,35.11L743.51,44.03L746.99,34.76L748.15,32.59L749.32,48.49L750.48,55.26L751.64,50.22L755.13,81.52L756.29,79.45L757.45,67.09L758.61,69.57L763.26,73.73L764.42,65.39L765.58,88.75L766.74,85.79L767.9,66.86L771.39,47.45L772.55,40.67L773.71,40.98L774.87,34.72L776.04,37.74L779.52,36.49L780.68,52.67L781.85,58.77L783.01,69.41L784.17,84.01L787.65,95.44L789.98,67.67L791.14,68.15L792.3,73.17L795.79,81.36L796.95,85.6L798.11,86.51L800.43,101.44L803.92,79.84L805.08,98.81L806.24,98.84L807.4,98.33L808.56,92.15L812.05,86.09L813.21,89.12L814.37,103.65L815.54,135.63L816.7,183.07L820.18,235.64L821.34,253.94L822.51,198.64L823.67,165.64L824.83,166.7L828.31,176.97L829.48,218.93L830.64,192.75L831.8,190.66L832.96,215L837.61,180.13L838.77,201.49L839.93,194.62L841.09,185.45L844.58,191L846.9,158.03L848.06,163.86L849.23,189.78L852.71,178.56L853.87,194.62L855.03,199.14L856.2,206.16L857.36,196.03L860.84,223.97L862,219.75L863.17,198.71L864.33,199.84L865.49,181.94L868.97,154.78L870.14,153.55L871.3,142.64L872.46,130.27L873.62,127.25L877.11,123.02L878.27,127.49L879.43,141.52L880.59,122.14L881.75,115.51L885.24,114.2L886.4,115.4L887.56,119.74L889.89,77.02L893.37,79.14L894.53,82.86L895.69,65.16L896.86,67.28L898.02,75.52L902.67,52.77L903.83,57.29L904.99,57.66L906.15,53.47L909.64,69.54L910.8,67.06L911.96,72.06L913.12,94.77L914.28,112.89L917.77,91.65L918.93,91.07L920.09,68.94L921.25,69.34L922.41,61.2L925.9,63.98L927.06,62.24L930.55,62.13L934.03,70.48L935.19,55.43L936.36,69.61L937.52,92.13L938.68,59.07L942.16,69.54L943.33,84.06L944.49,90.82L945.65,83.45L946.81,111.11L950.3,101.88L952.62,67.88L953.78,90.5L954.94,123.32L958.43,112.32L960.75,80.96L961.91,85.47L966.56,87.6L967.72,70.39L970.05,96.83L974.69,121.49L975.85,120.63L977.02,143.15L979.34,193.19L982.82,188.53L983.99,178.02L985.15,210.62L986.31,190.28L987.47,225.21L992.12,222.71L993.28,244.98L994.44,234.62L995.6,215.79L999.09,234.4L1000.25,209.2L1001.41,229.11L1002.57,217.92L1003.74,182.48L1007.22,184.01L1008.38,210.43L1009.54,194.07L1010.71,186.93L1011.87,205.83L1015.35,221.73L1016.51,222.86L1017.68,231.76L1018.84,254.5L1020,226.48" style="vector-effect: non-scaling-stroke; fill: none; stroke: rgb(254, 203, 82); stroke-opacity: 1; stroke-width: 2px; opacity: 1;"/></g><g class="points"/><g class="text"/></g></g></g><g class="overplot"/><path class="xlines-above crisp" d="M0,0" style="fill: none;"/><path class="ylines-above crisp" d="M0,0" style="fill: none;"/><g class="overlines-above"/><g class="xaxislayer-above"><g class="xtick"><text text-anchor="middle" x="0" y="424" transform="translate(66.26,0)" style="font-family: 'Open Sans', verdana, arial, sans-serif; font-size: 12px; fill: rgb(42, 63, 95); fill-opacity: 1; white-space: pre; opacity: 1;">Oct 2013</text></g><g class="xtick"><text text-anchor="middle" x="0" y="424" style="font-family: 'Open Sans', verdana, arial, sans-serif; font-size: 12px; fill: rgb(42, 63, 95); fill-opacity: 1; white-space: pre; opacity: 1;" transform="translate(173.14,0)">Jan 2014</text></g><g class="xtick"><text text-anchor="middle" x="0" y="424" style="font-family: 'Open Sans', verdana, arial, sans-serif; font-size: 12px; fill: rgb(42, 63, 95); fill-opacity: 1; white-space: pre; opacity: 1;" transform="translate(277.7,0)">Apr 2014</text></g><g class="xtick"><text text-anchor="middle" x="0" y="424" style="font-family: 'Open Sans', verdana, arial, sans-serif; font-size: 12px; fill: rgb(42, 63, 95); fill-opacity: 1; white-space: pre; opacity: 1;" transform="translate(383.42,0)">Jul 2014</text></g><g class="xtick"><text text-anchor="middle" x="0" y="424" style="font-family: 'Open Sans', verdana, arial, sans-serif; font-size: 12px; fill: rgb(42, 63, 95); fill-opacity: 1; white-space: pre; opacity: 1;" transform="translate(490.3,0)">Oct 2014</text></g><g class="xtick"><text text-anchor="middle" x="0" y="424" style="font-family: 'Open Sans', verdana, arial, sans-serif; font-size: 12px; fill: rgb(42, 63, 95); fill-opacity: 1; white-space: pre; opacity: 1;" transform="translate(597.18,0)">Jan 2015</text></g><g class="xtick"><text text-anchor="middle" x="0" y="424" style="font-family: 'Open Sans', verdana, arial, sans-serif; font-size: 12px; fill: rgb(42, 63, 95); fill-opacity: 1; white-space: pre; opacity: 1;" transform="translate(701.73,0)">Apr 2015</text></g><g class="xtick"><text text-anchor="middle" x="0" y="424" style="font-family: 'Open Sans', verdana, arial, sans-serif; font-size: 12px; fill: rgb(42, 63, 95); fill-opacity: 1; white-space: pre; opacity: 1;" transform="translate(807.45,0)">Jul 2015</text></g><g class="xtick"><text text-anchor="middle" x="0" y="424" style="font-family: 'Open Sans', verdana, arial, sans-serif; font-size: 12px; fill: rgb(42, 63, 95); fill-opacity: 1; white-space: pre; opacity: 1;" transform="translate(914.33,0)">Oct 2015</text></g><g class="xtick"><text text-anchor="middle" x="0" y="424" style="font-family: 'Open Sans', verdana, arial, sans-serif; font-size: 12px; fill: rgb(42, 63, 95); fill-opacity: 1; white-space: pre; opacity: 1;" transform="translate(1021.21,0)">Jan 2016</text></g></g><g class="yaxislayer-above"><g class="ytick"><text text-anchor="end" x="49" y="4.199999999999999" transform="translate(0,373.48)" style="font-family: 'Open Sans', verdana, arial, sans-serif; font-size: 12px; fill: rgb(42, 63, 95); fill-opacity: 1; white-space: pre; opacity: 1;">15k</text></g><g class="ytick"><text text-anchor="end" x="49" y="4.199999999999999" style="font-family: 'Open Sans', verdana, arial, sans-serif; font-size: 12px; fill: rgb(42, 63, 95); fill-opacity: 1; white-space: pre; opacity: 1;" transform="translate(0,328.81)">15.5k</text></g><g class="ytick"><text text-anchor="end" x="49" y="4.199999999999999" style="font-family: 'Open Sans', verdana, arial, sans-serif; font-size: 12px; fill: rgb(42, 63, 95); fill-opacity: 1; white-space: pre; opacity: 1;" transform="translate(0,284.14)">16k</text></g><g class="ytick"><text text-anchor="end" x="49" y="4.199999999999999" style="font-family: 'Open Sans', verdana, arial, sans-serif; font-size: 12px; fill: rgb(42, 63, 95); fill-opacity: 1; white-space: pre; opacity: 1;" transform="translate(0,239.47)">16.5k</text></g><g class="ytick"><text text-anchor="end" x="49" y="4.199999999999999" style="font-family: 'Open Sans', verdana, arial, sans-serif; font-size: 12px; fill: rgb(42, 63, 95); fill-opacity: 1; white-space: pre; opacity: 1;" transform="translate(0,194.8)">17k</text></g><g class="ytick"><text text-anchor="end" x="49" y="4.199999999999999" style="font-family: 'Open Sans', verdana, arial, sans-serif; font-size: 12px; fill: rgb(42, 63, 95); fill-opacity: 1; white-space: pre; opacity: 1;" transform="translate(0,150.13)">17.5k</text></g><g class="ytick"><text text-anchor="end" x="49" y="4.199999999999999" style="font-family: 'Open Sans', verdana, arial, sans-serif; font-size: 12px; fill: rgb(42, 63, 95); fill-opacity: 1; white-space: pre; opacity: 1;" transform="translate(0,105.46000000000001)">18k</text></g><g class="ytick"><text text-anchor="end" x="49" y="4.199999999999999" style="font-family: 'Open Sans', verdana, arial, sans-serif; font-size: 12px; fill: rgb(42, 63, 95); fill-opacity: 1; white-space: pre; opacity: 1;" transform="translate(0,60.79)">18.5k</text></g></g><g class="overaxes-above"/></g></g><g class="polarlayer"/><g class="ternarylayer"/><g class="geolayer"/><g class="funnelarealayer"/><g class="pielayer"/><g class="iciclelayer"/><g class="treemaplayer"/><g class="sunburstlayer"/><g class="glimages"/><defs id="topdefs-d00513"><g class="clips"/><clipPath id="legendd00513"><rect width="136" height="200" x="0" y="0"/></clipPath></defs><g class="layer-above"><g class="imagelayer"/><g class="shapelayer"/></g><g class="infolayer"><g class="legend" pointer-events="all" transform="translate(1090.4,60)"><rect class="bg" shape-rendering="crispEdges" width="136" height="200" x="0" y="0" style="stroke: rgb(68, 68, 68); stroke-opacity: 1; fill: rgb(255, 255, 255); fill-opacity: 1; stroke-width: 0px;"/><g class="scrollbox" transform="" clip-path="url(#legendd00513)"><g class="groups"><g class="traces" transform="translate(0,14.5)" style="opacity: 1;"><text class="legendtext" text-anchor="start" x="40" y="4.680000000000001" style="font-family: 'Open Sans', verdana, arial, sans-serif; font-size: 12px; fill: rgb(42, 63, 95); fill-opacity: 1; white-space: pre;">Conic =0.1</text><g class="layers" style="opacity: 1;"><g class="legendfill"/><g class="legendlines"><path class="js-line" d="M5,0h30" style="fill: none; stroke: rgb(99, 110, 250); stroke-opacity: 1; stroke-width: 2px;"/></g><g class="legendsymbols"><g class="legendpoints"/></g></g><rect class="legendtoggle" x="0" y="-9.5" width="130.8186798095703" height="19" style="fill: rgb(0, 0, 0); fill-opacity: 0;"/></g><g class="traces" transform="translate(0,33.5)" style="opacity: 1;"><text class="legendtext" text-anchor="start" x="40" y="4.680000000000001" style="font-family: 'Open Sans', verdana, arial, sans-serif; font-size: 12px; fill: rgb(42, 63, 95); fill-opacity: 1; white-space: pre;">Conic =3.275</text><g class="layers" style="opacity: 1;"><g class="legendfill"/><g class="legendlines"><path class="js-line" d="M5,0h30" style="fill: none; stroke: rgb(239, 85, 59); stroke-opacity: 1; stroke-width: 2px;"/></g><g class="legendsymbols"><g class="legendpoints"/></g></g><rect class="legendtoggle" x="0" y="-9.5" width="130.8186798095703" height="19" style="fill: rgb(0, 0, 0); fill-opacity: 0;"/></g><g class="traces" transform="translate(0,52.5)" style="opacity: 1;"><text class="legendtext" text-anchor="start" x="40" y="4.680000000000001" style="font-family: 'Open Sans', verdana, arial, sans-serif; font-size: 12px; fill: rgb(42, 63, 95); fill-opacity: 1; white-space: pre;">Conic =6.45</text><g class="layers" style="opacity: 1;"><g class="legendfill"/><g class="legendlines"><path class="js-line" d="M5,0h30" style="fill: none; stroke: rgb(0, 204, 150); stroke-opacity: 1; stroke-width: 2px;"/></g><g class="legendsymbols"><g class="legendpoints"/></g></g><rect class="legendtoggle" x="0" y="-9.5" width="130.8186798095703" height="19" style="fill: rgb(0, 0, 0); fill-opacity: 0;"/></g><g class="traces" transform="translate(0,71.5)" style="opacity: 1;"><text class="legendtext" text-anchor="start" x="40" y="4.680000000000001" style="font-family: 'Open Sans', verdana, arial, sans-serif; font-size: 12px; fill: rgb(42, 63, 95); fill-opacity: 1; white-space: pre;">Conic =9.625</text><g class="layers" style="opacity: 1;"><g class="legendfill"/><g class="legendlines"><path class="js-line" d="M5,0h30" style="fill: none; stroke: rgb(171, 99, 250); stroke-opacity: 1; stroke-width: 2px;"/></g><g class="legendsymbols"><g class="legendpoints"/></g></g><rect class="legendtoggle" x="0" y="-9.5" width="130.8186798095703" height="19" style="fill: rgb(0, 0, 0); fill-opacity: 0;"/></g><g class="traces" transform="translate(0,90.5)" style="opacity: 1;"><text class="legendtext" text-anchor="start" x="40" y="4.680000000000001" style="font-family: 'Open Sans', verdana, arial, sans-serif; font-size: 12px; fill: rgb(42, 63, 95); fill-opacity: 1; white-space: pre;">Conic =12.8</text><g class="layers" style="opacity: 1;"><g class="legendfill"/><g class="legendlines"><path class="js-line" d="M5,0h30" style="fill: none; stroke: rgb(255, 161, 90); stroke-opacity: 1; stroke-width: 2px;"/></g><g class="legendsymbols"><g class="legendpoints"/></g></g><rect class="legendtoggle" x="0" y="-9.5" width="130.8186798095703" height="19" style="fill: rgb(0, 0, 0); fill-opacity: 0;"/></g><g class="traces" transform="translate(0,109.5)" style="opacity: 1;"><text class="legendtext" text-anchor="start" x="40" y="4.680000000000001" style="font-family: 'Open Sans', verdana, arial, sans-serif; font-size: 12px; fill: rgb(42, 63, 95); fill-opacity: 1; white-space: pre;">Mean-Variance</text><g class="layers" style="opacity: 1;"><g class="legendfill"/><g class="legendlines"><path class="js-line" d="M5,0h30" style="fill: none; stroke: rgb(25, 211, 243); stroke-opacity: 1; stroke-width: 2px;"/></g><g class="legendsymbols"><g class="legendpoints"/></g></g><rect class="legendtoggle" x="0" y="-9.5" width="130.8186798095703" height="19" style="fill: rgb(0, 0, 0); fill-opacity: 0;"/></g><g class="traces" transform="translate(0,128.5)" style="opacity: 1;"><text class="legendtext" text-anchor="start" x="40" y="4.680000000000001" style="font-family: 'Open Sans', verdana, arial, sans-serif; font-size: 12px; fill: rgb(42, 63, 95); fill-opacity: 1; white-space: pre;">Mean-VaR</text><g class="layers" style="opacity: 1;"><g class="legendfill"/><g class="legendlines"><path class="js-line" d="M5,0h30" style="fill: none; stroke: rgb(255, 102, 146); stroke-opacity: 1; stroke-width: 2px;"/></g><g class="legendsymbols"><g class="legendpoints"/></g></g><rect class="legendtoggle" x="0" y="-9.5" width="130.8186798095703" height="19" style="fill: rgb(0, 0, 0); fill-opacity: 0;"/></g><g class="traces" transform="translate(0,147.5)" style="opacity: 1;"><text class="legendtext" text-anchor="start" x="40" y="4.680000000000001" style="font-family: 'Open Sans', verdana, arial, sans-serif; font-size: 12px; fill: rgb(42, 63, 95); fill-opacity: 1; white-space: pre;">Mean-CVaR 95%</text><g class="layers" style="opacity: 1;"><g class="legendfill"/><g class="legendlines"><path class="js-line" d="M5,0h30" style="fill: none; stroke: rgb(182, 232, 128); stroke-opacity: 1; stroke-width: 2px;"/></g><g class="legendsymbols"><g class="legendpoints"/></g></g><rect class="legendtoggle" x="0" y="-9.5" width="130.8186798095703" height="19" style="fill: rgb(0, 0, 0); fill-opacity: 0;"/></g><g class="traces" transform="translate(0,166.5)" style="opacity: 1;"><text class="legendtext" text-anchor="start" x="40" y="4.680000000000001" style="font-family: 'Open Sans', verdana, arial, sans-serif; font-size: 12px; fill: rgb(42, 63, 95); fill-opacity: 1; white-space: pre;">Mean-CVaR 99%</text><g class="layers" style="opacity: 1;"><g class="legendfill"/><g class="legendlines"><path class="js-line" d="M5,0h30" style="fill: none; stroke: rgb(255, 151, 255); stroke-opacity: 1; stroke-width: 2px;"/></g><g class="legendsymbols"><g class="legendpoints"/></g></g><rect class="legendtoggle" x="0" y="-9.5" width="130.8186798095703" height="19" style="fill: rgb(0, 0, 0); fill-opacity: 0;"/></g><g class="traces" transform="translate(0,185.5)" style="opacity: 1;"><text class="legendtext" text-anchor="start" x="40" y="4.680000000000001" style="font-family: 'Open Sans', verdana, arial, sans-serif; font-size: 12px; fill: rgb(42, 63, 95); fill-opacity: 1; white-space: pre;">DJIA</text><g class="layers" style="opacity: 1;"><g class="legendfill"/><g class="legendlines"><path class="js-line" d="M5,0h30" style="fill: none; stroke: rgb(254, 203, 82); stroke-opacity: 1; stroke-width: 2px;"/></g><g class="legendsymbols"><g class="legendpoints"/></g></g><rect class="legendtoggle" x="0" y="-9.5" width="130.8186798095703" height="19" style="fill: rgb(0, 0, 0); fill-opacity: 0;"/></g></g></g><rect class="scrollbar" rx="20" ry="3" width="0" height="0" x="0" y="0" style="fill: rgb(128, 139, 164); fill-opacity: 1;"/></g><g class="g-gtitle"/><g class="g-xtitle"/><g class="g-ytitle"/></g></svg>