<svg class="main-svg" xmlns="http://www.w3.org/2000/svg" xmlns:xlink="http://www.w3.org/1999/xlink" width="1238" height="461" style=""><rect x="0" y="0" width="1238" height="461" style="fill: rgb(255, 255, 255); fill-opacity: 1;"/><defs id="defs-bfc357"><g class="clips"><clipPath id="clipbfc357xyplot" class="plotclip"><rect width="1020" height="351"/></clipPath><clipPath class="axesclip" id="clipbfc357x"><rect x="50" y="0" width="1020" height="461"/></clipPath><clipPath class="axesclip" id="clipbfc357y"><rect x="0" y="60" width="1238" height="351"/></clipPath><clipPath class="axesclip" id="clipbfc357xy"><rect x="50" y="60" width="1020" height="351"/></clipPath></g><g class="gradients"/><g class="patterns"/></defs><g class="bglayer"><rect class="bg" x="50" y="60" width="1020" height="351" style="fill: rgb(229, 236, 246); fill-opacity: 1; stroke-width: 0;"/></g><g class="layer-below"><g class="imagelayer"/><g class="shapelayer"/></g><g class="cartesianlayer"><g class="subplot xy"><g class="layer-subplot"><g class="shapelayer"/><g class="imagelayer"/></g><g class="gridlayer"><g class="x"><path class="xgrid crisp" transform="translate(166.79000000000002,0)" d="M0,60v351" style="stroke: rgb(255, 255, 255); stroke-opacity: 1; stroke-width: 1px;"/><path class="xgrid crisp" transform="translate(325.11,0)" d="M0,60v351" style="stroke: rgb(255, 255, 255); stroke-opacity: 1; stroke-width: 1px;"/><path class="xgrid crisp" transform="translate(483.44,0)" d="M0,60v351" style="stroke: rgb(255, 255, 255); stroke-opacity: 1; stroke-width: 1px;"/><path class="xgrid crisp" transform="translate(644.35,0)" d="M0,60v351" style="stroke: rgb(255, 255, 255); stroke-opacity: 1; stroke-width: 1px;"/><path class="xgrid crisp" transform="translate(802.67,0)" d="M0,60v351" style="stroke: rgb(255, 255, 255); stroke-opacity: 1; stroke-width: 1px;"/><path class="xgrid crisp" transform="translate(960.99,0)" d="M0,60v351" style="stroke: rgb(255, 255, 255); stroke-opacity: 1; stroke-width: 1px;"/></g><g class="y"><path class="ygrid crisp" transform="translate(0,403.93)" d="M50,0h1020" style="stroke: rgb(255, 255, 255); stroke-opacity: 1; stroke-width: 1px;"/><path class="ygrid crisp" transform="translate(0,354.67)" d="M50,0h1020" style="stroke: rgb(255, 255, 255); stroke-opacity: 1; stroke-width: 1px;"/><path class="ygrid crisp" transform="translate(0,305.4)" d="M50,0h1020" style="stroke: rgb(255, 255, 255); stroke-opacity: 1; stroke-width: 1px;"/><path class="ygrid crisp" transform="translate(0,256.13)" d="M50,0h1020" style="stroke: rgb(255, 255, 255); stroke-opacity: 1; stroke-width: 1px;"/><path class="ygrid crisp" transform="translate(0,206.87)" d="M50,0h1020" style="stroke: rgb(255, 255, 255); stroke-opacity: 1; stroke-width: 1px;"/><path class="ygrid crisp" transform="translate(0,157.6)" d="M50,0h1020" style="stroke: rgb(255, 255, 255); stroke-opacity: 1; stroke-width: 1px;"/><path class="ygrid crisp" transform="translate(0,108.33)" d="M50,0h1020" style="stroke: rgb(255, 255, 255); stroke-opacity: 1; stroke-width: 1px;"/></g></g><g class="zerolinelayer"/><path class="xlines-below"/><path class="ylines-below"/><g class="overlines-below"/><g class="xaxislayer-below"/><g class="yaxislayer-below"/><g class="overaxes-below"/><g class="plot" transform="translate(50,60)" clip-path="url(#clipbfc357xyplot)"><g class="scatterlayer mlayer"><g class="trace scatter trace10516c" style="stroke-miterlimit: 2; opacity: 1;"><g class="fills"/><g class="errorbars"/><g class="lines"><path class="js-line" d="M0,115.26L2.6,100.38L12.98,104.51L15.57,107.96L18.17,86.18L20.76,101.97L28.55,98.16L31.15,123.2L33.74,137.96L36.34,110.76L38.93,140.87L46.72,123.19L49.31,101.55L51.91,104.84L54.5,93.27L57.1,96.12L64.89,111.96L67.48,90.92L70.08,89.98L72.67,88.05L75.27,83.25L85.65,86.54L88.24,85.05L90.84,95.66L93.44,91.35L101.22,89.52L103.82,82.32L106.41,77.07L109.01,67.9L111.6,69.24L119.39,63.8L121.98,70.18L124.58,79.84L127.18,77.88L129.77,106.94L137.56,98.94L140.15,124.05L142.75,136.91L145.34,113.45L147.94,121.12L155.73,96.66L158.32,107.01L160.92,89.67L163.51,100.48L166.11,82.03L173.89,71.46L176.49,79.12L179.08,103.7L181.68,107.15L184.27,110.48L192.06,87.92L197.25,115.35L199.85,111.35L210.23,103.04L212.82,106.1L218.02,99.39L220.61,91.26L228.4,98.8L230.99,96.52L233.59,97.13L236.18,103.34L238.78,123.29L246.56,105.66L249.16,115.41L251.76,99.92L254.35,95.55L256.95,87.13L264.73,97.88L267.33,90.45L272.52,111.34L275.11,93.94L282.9,94.32L285.5,105.82L288.09,109.84L290.69,104.44L293.28,84.87L301.07,97.75L303.66,98.17L306.26,100.82L308.85,85.72L311.45,81.02L319.24,78.15L321.83,79.36L327.02,85.99L329.62,94.15L340,109.69L342.6,101.89L345.19,107.54L347.79,117.56L355.57,115.04L358.17,118.8L360.76,116.08L363.36,130.8L365.95,146.5L373.74,151.16L376.34,150.98L378.93,137.14L381.53,133.79L384.12,147.83L391.91,159.1L394.5,146.61L397.1,140.68L399.69,124.85L402.29,133.63L410.08,127.8L412.67,127.58L415.27,137.91L417.86,145.42L420.46,138.02L428.24,164.86L430.84,168.47L433.44,151.18L436.03,148.47L446.41,150.12L449.01,133.03L451.6,150.25L454.2,149.35L456.79,130.37L464.58,115.09L467.18,111.64L469.77,109.93L472.37,104.3L474.96,109.35L482.75,106.99L485.34,123.69L490.53,134.39L493.13,150.6L500.92,156.97L503.51,140.93L506.11,129.68L508.7,134.19L511.3,134.66L519.08,139.72L521.68,146.93L524.27,135.51L526.87,144.28L529.47,156.17L537.25,140.17L539.85,147.76L542.44,143.91L545.04,144.24L555.42,134.28L558.02,146.34L560.61,158.25L563.21,177.19L565.8,222.85L573.59,282.7L576.18,308.04L578.78,249.93L581.37,220.9L583.97,229.49L591.76,241.21L594.35,278.07L596.95,253.26L599.54,249.95L602.14,274.92L612.52,236.8L615.11,262.53L617.71,260.17L620.31,247.15L628.09,251.89L630.69,233.46L633.28,224L635.88,230.27L638.47,253.23L646.26,244.07L648.85,255.19L651.45,256.01L654.05,252.82L656.64,250.06L664.43,267.63L667.02,260.18L669.62,245.67L672.21,252.35L674.81,236.29L682.6,211.81L685.19,215.14L690.38,189.87L692.98,188.83L700.76,185.41L703.36,190.92L705.95,222.58L708.55,209.12L711.15,201.55L718.93,203.82L721.53,212.53L724.12,218.47L726.72,175.56L729.31,162.84L737.1,168.75L739.69,176.73L742.29,162.59L744.89,160.25L747.48,168.93L755.27,159.45L757.86,154.85L760.46,156.61L763.05,157.28L765.65,162.38L773.44,175.82L776.03,172.87L778.63,176.54L781.22,199.7L783.82,218.63L791.6,192.38L794.2,185.77L796.79,162.79L799.39,159.49L801.98,159.6L809.77,158.96L812.37,156.87L814.96,157.82L820.15,155.29L827.94,164.49L830.53,151.62L835.73,174.4L838.32,141.66L846.11,139.01L848.7,152.04L851.3,161.2L853.89,154.77L856.49,171.54L864.27,158.12L866.87,144.57L869.47,124.65L874.66,169.83L882.44,157.83L887.63,127.23L890.23,131.97L900.61,134.37L903.21,116.3L905.8,124.3L908.4,141.7L918.78,156.74L921.37,142.37L923.97,152.26L926.56,170.11L929.16,188.22L936.95,178.27L939.54,172.96L942.14,200.73L944.73,176L947.33,202.27L957.71,188.86L960.31,218.73L965.5,180.77L973.28,183.69L975.88,156.2L978.47,161.86L981.07,151.05L983.66,116.09L991.45,110.12L994.05,129.64L996.64,124.48L999.24,125.19L1001.83,141.6L1009.62,136.88L1012.21,141.26L1014.81,148.67L1017.4,164.7L1020,142.97" style="vector-effect: non-scaling-stroke; fill: none; stroke: rgb(99, 110, 250); stroke-opacity: 1; stroke-width: 2px; opacity: 1;"/></g><g class="points"/><g class="text"/></g><g class="trace scatter trace552445" style="stroke-miterlimit: 2; opacity: 1;"><g class="fills"/><g class="errorbars"/><g class="lines"><path class="js-line" d="M0,115.26L2.6,101.5L12.98,103.9L15.57,106.88L18.17,85.58L20.76,100.75L28.55,96L31.15,121.21L33.74,134.85L36.34,104.91L38.93,133.9L46.72,115.55L49.31,93.77L51.91,97.45L54.5,87.4L57.1,89.67L64.89,104.84L67.48,84.09L70.08,83L72.67,79.54L75.27,74.01L85.65,78.06L88.24,77.94L90.84,90.11L93.44,85.43L101.22,83.61L103.82,76.16L106.41,70.99L109.01,62.2L111.6,63.62L119.39,59.4L121.98,64.95L124.58,74.37L127.18,74.42L129.77,102.33L137.56,95.14L140.15,120.54L142.75,134.1L145.34,111.55L147.94,118.95L155.73,95.7L158.32,105.22L160.92,87.25L163.51,99.96L166.11,82.5L173.89,71.43L176.49,77.61L179.08,101.64L181.68,104.51L184.27,109.41L192.06,86L197.25,113.46L199.85,109.94L210.23,100.22L212.82,103.24L218.02,98.93L220.61,90.71L228.4,97.64L230.99,94.29L233.59,94.17L236.18,101.2L238.78,121.48L246.56,102.62L249.16,112.91L251.76,94.97L254.35,90.7L256.95,82.08L264.73,92.06L267.33,82.88L272.52,103.2L275.11,84.47L282.9,85.6L285.5,97.53L288.09,101.7L290.69,96.83L293.28,77.06L301.07,91.06L303.66,90.53L306.26,93.39L308.85,78.58L311.45,74.32L319.24,72L321.83,73.23L327.02,79.42L329.62,87.18L340,103.62L342.6,95.5L345.19,101.85L347.79,110.92L355.57,108.26L358.17,112.03L360.76,109.51L363.36,124.41L365.95,140.12L373.74,144.38L376.34,145.74L378.93,131.98L381.53,129.36L384.12,144.04L391.91,155.06L394.5,142.66L397.1,137.03L399.69,122.05L402.29,130.79L410.08,124.28L412.67,123.82L415.27,133.67L417.86,141.83L420.46,134.87L428.24,161.78L430.84,165.29L433.44,149.89L436.03,146.15L446.41,148.32L449.01,132.34L451.6,149.87L454.2,150.58L456.79,131.19L464.58,116.62L467.18,112.45L469.77,110.96L472.37,105.76L474.96,110.38L482.75,108.41L485.34,126.09L490.53,138.66L493.13,155.59L500.92,162.16L503.51,144.72L506.11,133.74L508.7,136.05L511.3,138.9L519.08,145.44L521.68,153.88L524.27,141.77L526.87,148.45L529.47,161.61L537.25,144.23L539.85,153.44L542.44,147.91L545.04,147.87L555.42,137.61L558.02,150.33L560.61,163.13L563.21,183.86L565.8,230.3L573.59,290.31L576.18,314.64L578.78,255.35L581.37,225.11L583.97,231.56L591.76,242.6L594.35,280.56L596.95,254.79L599.54,251.09L602.14,276.08L612.52,238.91L615.11,264.42L617.71,262.17L620.31,248.37L628.09,252.85L630.69,235.43L633.28,225.2L635.88,232.68L638.47,256.54L646.26,246.53L648.85,258.48L651.45,259.48L654.05,256.34L656.64,253.96L664.43,271.72L667.02,265.3L669.62,249.01L672.21,256.48L674.81,240.29L682.6,215.34L685.19,216.26L690.38,190.86L692.98,190.33L700.76,187.6L703.36,193.01L705.95,225.47L708.55,213.65L711.15,206.68L718.93,210.37L724.12,225.21L726.72,177.73L729.31,165.82L737.1,174.6L739.69,184.25L742.29,167.17L744.89,164.96L747.48,172.14L755.27,162.69L757.86,156.49L763.05,159.37L765.65,163.55L773.44,177.71L776.03,176.02L778.63,180.73L781.22,204.18L783.82,224.03L791.6,196.28L794.2,189.45L796.79,166.16L799.39,160.88L801.98,162.44L809.77,160.62L812.37,158.01L814.96,160.15L820.15,157.45L827.94,165.38L830.53,154.34L833.13,168.21L835.73,177.69L838.32,145.78L846.11,144.88L848.7,158.72L851.3,167.1L853.89,160.13L856.49,178.32L864.27,164.72L866.87,151.18L869.47,132.55L872.06,154.61L874.66,177.38L882.44,165.49L885.04,151.46L887.63,133.03L890.23,138.61L900.61,141.48L903.21,123.18L905.8,131.82L908.4,148.81L918.78,161.46L921.37,147.16L923.97,156.76L929.16,193.37L936.95,183.43L939.54,176.47L942.14,203.86L944.73,176.88L947.33,203.85L957.71,192.09L960.31,224.57L965.5,183.22L973.28,187.3L975.88,161.85L978.47,171.29L981.07,159.56L983.66,124.75L991.45,119.11L994.05,139.81L996.64,133.2L999.24,131.69L1001.83,147.24L1009.62,141.99L1012.21,147.15L1014.81,155.79L1017.4,171.21L1020,149.22" style="vector-effect: non-scaling-stroke; fill: none; stroke: rgb(239, 85, 59); stroke-opacity: 1; stroke-width: 2px; opacity: 1;"/></g><g class="points"/><g class="text"/></g><g class="trace scatter trace64399e" style="stroke-miterlimit: 2; opacity: 1;"><g class="fills"/><g class="errorbars"/><g class="lines"><path class="js-line" d="M0,115.26L2.6,104.04L12.98,103.97L15.57,107.36L18.17,87.3L20.76,101.44L28.55,95.59L31.15,123.48L33.74,136.65L36.34,102.96L38.93,131.18L46.72,112.3L49.31,90.13L51.91,92.32L54.5,82.5L57.1,83.35L64.89,98.07L67.48,76.42L70.08,76.4L72.67,67.77L75.27,61.88L88.24,67.63L90.84,83.72L93.44,77.98L101.22,76.06L106.41,62.11L109.01,54.91L111.6,58.04L119.39,53.18L121.98,57.93L124.58,66.1L127.18,68.92L129.77,95.14L137.56,89.14L140.15,115.1L142.75,128.47L145.34,109.45L147.94,115.2L155.73,94.12L158.32,103.6L160.92,85.92L163.51,100.76L166.11,83.01L173.89,70.44L176.49,75.64L179.08,100.79L181.68,102.28L184.27,106.29L192.06,83.51L197.25,111.27L199.85,108.79L210.23,97.76L212.82,101.04L218.02,98.46L220.61,88.66L228.4,94.74L230.99,91.17L233.59,89.34L236.18,97.23L238.78,117.72L246.56,97.86L249.16,108.48L251.76,87.39L254.35,82.58L256.95,73.48L264.73,83.08L267.33,73.57L272.52,93.06L275.11,72.38L282.9,74.85L285.5,87.88L288.09,92.42L290.69,88.01L293.28,68.01L301.07,82.56L303.66,80.2L306.26,84.18L308.85,70.33L311.45,66L319.24,63.67L321.83,66.59L324.43,70.24L327.02,71.67L329.62,78.33L340,95.88L342.6,87.1L345.19,94.41L347.79,102.1L355.57,99.6L358.17,103.93L360.76,102.13L365.95,132.87L373.74,137.42L376.34,140.52L378.93,126.39L381.53,124.53L384.12,139.89L391.91,149.88L394.5,138.28L397.1,132.75L399.69,119.22L402.29,127.09L410.08,120.24L412.67,119.3L415.27,128.36L417.86,137.1L420.46,131.07L428.24,157.56L430.84,161.06L433.44,148.48L436.03,143.41L446.41,146.3L449.01,131.86L451.6,149.59L454.2,152.96L456.79,133.33L464.58,118.21L467.18,113.88L469.77,112.85L472.37,109.26L474.96,113.26L482.75,112.21L485.34,132.19L490.53,146.48L493.13,164.37L500.92,170.46L503.51,150.09L506.11,139.41L508.7,139.92L511.3,145.28L519.08,153.89L521.68,163.58L524.27,150.28L526.87,155L529.47,169.81L537.25,150.32L539.85,161.15L542.44,152.92L545.04,153.53L547.63,151.62L555.42,143.81L560.61,172.57L563.21,194.75L565.8,242.55L573.59,302.91L576.18,325.55L578.78,264.75L581.37,232.21L583.97,237.19L591.76,246.5L594.35,285.81L596.95,257.65L599.54,252.62L602.14,277.51L612.52,239.59L615.11,264.94L617.71,263.67L620.31,247.74L628.09,253.12L630.69,237.13L633.28,227.21L635.88,236.76L638.47,260.9L646.26,249.33L648.85,262.14L651.45,262.66L654.05,259.38L656.64,255.6L664.43,274.84L667.02,269.74L669.62,250.44L672.21,257.83L674.81,241.3L682.6,215.64L685.19,212.45L690.38,188.01L692.98,188.5L700.76,186.36L703.36,190.66L705.95,226.25L708.55,217.73L711.15,211.79L718.93,215.8L724.12,234.1L726.72,182.43L729.31,170.02L737.1,181.51L739.69,193.56L742.29,174.03L744.89,173.55L747.48,179.99L755.27,170.06L757.86,161.83L760.46,163.29L763.05,165.76L765.65,168.16L773.44,182.83L776.03,183.3L778.63,190.32L783.82,236.3L791.6,207.78L794.2,199.19L796.79,175.38L799.39,168.98L801.98,170.54L809.77,169.34L812.37,165.88L814.96,167.59L820.15,165.21L827.94,170.59L830.53,161.83L833.13,177.26L835.73,184.78L838.32,153.88L846.11,153.74L848.7,168.13L851.3,175.56L853.89,168.74L856.49,187.79L864.27,173.3L866.87,162.18L869.47,145.53L872.06,167.56L874.66,187.65L882.44,174.47L885.04,161.38L887.63,141.55L890.23,148.2L900.61,151.42L903.21,132.26L905.8,141.91L908.4,158.57L918.78,167.41L921.37,152.54L923.97,162L929.16,199.11L936.95,187.26L939.54,180.35L942.14,208.97L944.73,179.35L947.33,209.83L957.71,199.26L960.31,233.16L965.5,187.3L973.28,191.7L975.88,169.44L978.47,181.58L981.07,168.77L983.66,133.54L991.45,127.87L994.05,149.93L996.64,144.45L999.24,140.78L1001.83,156.84L1009.62,152.42L1014.81,167.92L1017.4,181.12L1020,159.03" style="vector-effect: non-scaling-stroke; fill: none; stroke: rgb(0, 204, 150); stroke-opacity: 1; stroke-width: 2px; opacity: 1;"/></g><g class="points"/><g class="text"/></g><g class="trace scatter tracee83e48" style="stroke-miterlimit: 2; opacity: 1;"><g class="fills"/><g class="errorbars"/><g class="lines"><path class="js-line" d="M0,115.26L2.6,104.63L12.98,105.33L15.57,109.15L18.17,89.5L20.76,103.54L28.55,97.96L31.15,127.1L33.74,140.09L36.34,105.34L38.93,133.87L46.72,115.04L49.31,92.74L51.91,94.39L54.5,84.27L57.1,85.05L64.89,100.23L67.48,78.64L70.08,79.31L72.67,69.51L75.27,63.24L88.24,68.8L90.84,85.76L93.44,79.86L101.22,78.72L106.41,63.84L109.01,56.93L111.6,61.03L119.39,55.08L121.98,59.63L124.58,67.52L127.18,70.63L129.77,96.73L137.56,91.1L140.15,117.39L142.75,130.13L145.34,113.25L147.94,118.31L155.73,97.9L158.32,107.95L160.92,90.73L163.51,105.6L166.11,87.04L173.89,74.41L176.49,79.71L179.08,106.12L181.68,107.14L184.27,109.43L192.06,87.89L197.25,116.02L199.85,113.73L210.23,102.94L212.82,105.94L215.42,103.68L218.02,103.22L220.61,92.44L228.4,98.61L233.59,92.69L236.18,101.17L238.78,121.52L246.56,101.55L249.16,112.42L251.76,90.87L254.35,86.16L256.95,76.84L264.73,86.15L267.33,76.87L272.52,95.81L275.11,74.83L282.9,77.86L285.5,91.24L288.09,95.92L290.69,91.59L293.28,71.31L301.07,85.59L303.66,82.95L306.26,87.16L308.85,73.89L311.45,69.47L319.24,66.45L321.83,70.23L324.43,74.06L327.02,75.2L329.62,81.81L340,99.36L342.6,90.3L345.19,97.74L347.79,105.44L355.57,103.19L358.17,107.77L360.76,106.38L365.95,137.42L373.74,142.7L376.34,145.95L378.93,131.63L381.53,129.83L384.12,145.26L391.91,155.03L394.5,143.92L397.1,137.88L399.69,124.45L402.29,132.09L410.08,125.3L412.67,124.73L415.27,133.39L417.86,142.26L420.46,137.02L428.24,163.52L430.84,167.19L433.44,155.11L436.03,149.52L446.41,152.7L449.01,138.6L451.6,156.15L454.2,160.16L456.79,140.94L464.58,125.23L467.18,121.7L469.77,120.68L472.37,117.45L474.96,121.76L482.75,121.17L485.34,141.58L490.53,155.26L493.13,173.19L500.92,178.97L503.51,158.54L506.11,147.92L508.7,148.34L511.3,153.66L519.08,162.38L521.68,171.99L524.27,158.5L526.87,163.15L529.47,178.17L537.25,158.16L539.85,169.06L542.44,160.35L545.04,161.4L547.63,159.51L555.42,152.18L560.61,181.76L563.21,203.6L565.8,251.19L573.59,310.84L576.18,333.45L578.78,272.43L581.37,240.13L583.97,245L591.76,253.74L594.35,292.71L596.95,263.9L599.54,258.3L602.14,283.09L612.52,244.42L615.11,269.64L617.71,269.22L620.31,252.95L628.09,258.68L630.69,243.06L633.28,233.87L635.88,244.08L638.47,268.16L646.26,256.38L648.85,269.2L651.45,269.69L654.05,266.6L656.64,262.01L664.43,280.75L667.02,275.18L669.62,255.42L672.21,262.83L674.81,246.77L682.6,220.72L685.19,216.15L690.38,191.7L692.98,192.95L700.76,190.89L703.36,194.87L705.95,231.6L708.55,223.8L711.15,217.94L718.93,221.5L724.12,240.48L726.72,187.62L729.31,174.84L737.1,186.4L739.69,199.33L742.29,180.26L744.89,180.37L747.48,186.58L755.27,176.93L757.86,168.48L760.46,169.39L763.05,172.06L765.65,173.87L773.44,188.53L776.03,189.45L778.63,196.81L783.82,243.18L791.6,215.15L794.2,205.23L796.79,181.62L799.39,174.1L801.98,175.13L809.77,174.27L812.37,171.52L814.96,173.14L820.15,170.84L827.94,175.5L830.53,167.32L833.13,182.73L835.73,189.61L838.32,158.71L846.11,157.67L848.7,172.15L851.3,179.19L853.89,172.65L856.49,191.48L864.27,176.71L866.87,166.26L869.47,150.07L872.06,172.13L874.66,191.64L882.44,178.19L885.04,164.86L887.63,145.35L890.23,151.87L900.61,155L903.21,135.49L905.8,145.23L908.4,161.88L918.78,170.45L921.37,155.35L923.97,164.73L929.16,201.86L936.95,189.02L939.54,182.83L942.14,212.2L944.73,182.3L947.33,215.36L957.71,204.75L960.31,239.03L965.5,192.9L973.28,196.73L975.88,174.09L978.47,185.35L981.07,172.41L983.66,136.63L991.45,130.71L994.05,153.23L999.24,144.46L1001.83,161.67L1009.62,157.3L1012.21,165.28L1014.81,174.1L1017.4,186.24L1020,164.27" style="vector-effect: non-scaling-stroke; fill: none; stroke: rgb(171, 99, 250); stroke-opacity: 1; stroke-width: 2px; opacity: 1;"/></g><g class="points"/><g class="text"/></g><g class="trace scatter tracef5df88" style="stroke-miterlimit: 2; opacity: 1;"><g class="fills"/><g class="errorbars"/><g class="lines"><path class="js-line" d="M0,115.26L2.6,104.8L12.98,105.96L15.57,109.32L18.17,89.76L20.76,104.18L28.55,98.94L31.15,128.43L33.74,141.5L36.34,106.11L38.93,134.95L46.72,116.18L49.31,94.05L51.91,95.24L54.5,85.12L57.1,85.68L64.89,101.28L67.48,79.23L70.08,79.95L72.67,69.82L75.27,63.69L88.24,69.31L90.84,85.84L93.44,79.65L101.22,78.52L106.41,62.67L109.01,55.5L111.6,59.9L119.39,53.06L121.98,57.73L124.58,65.06L127.18,68.41L129.77,94.68L137.56,89.02L140.15,115.72L142.75,127.85L145.34,111.58L147.94,116.13L155.73,95.94L158.32,106.36L160.92,89.36L163.51,103.95L166.11,85.38L173.89,72.87L176.49,78.03L179.08,105.01L181.68,106.03L184.27,107L192.06,86.01L197.25,114.33L199.85,112.17L210.23,101.65L212.82,104.57L215.42,101.57L218.02,101.48L220.61,90.17L228.4,96.31L233.59,90.96L236.18,98.85L238.78,119.3L246.56,99.47L249.16,110.54L251.76,88.74L254.35,84.26L256.95,74.63L264.73,84.49L267.33,75.1L272.52,94.25L275.11,73.27L282.9,76.67L285.5,90.09L288.09,94.77L290.69,90.22L293.28,69.86L301.07,83.84L303.66,81.26L306.26,85.14L308.85,72.02L311.45,67.6L319.24,64.28L321.83,67.53L324.43,71.25L327.02,72.55L329.62,79.18L340,96.48L342.6,87.21L345.19,94.75L347.79,102.2L355.57,100.33L358.17,105.27L360.76,104.05L365.95,135.55L373.74,141.06L376.34,144.52L378.93,130.14L381.53,127.93L384.12,143.41L391.91,152.84L394.5,141.7L397.1,135.77L399.69,122.15L402.29,129.76L410.08,122.96L412.67,122.03L415.27,131.17L417.86,139.46L420.46,134.29L428.24,161.11L430.84,164.82L433.44,152.8L436.03,147.25L446.41,150.66L449.01,137.01L451.6,154.42L454.2,158.36L456.79,138.97L464.58,123.13L467.18,119.49L469.77,118.34L472.37,115.59L474.96,120.39L482.75,120.06L485.34,140.58L490.53,153.87L493.13,171.78L500.92,177.11L503.51,156.65L506.11,145.98L508.7,145.96L511.3,150.24L519.08,158.5L521.68,167.67L524.27,153.86L526.87,158.87L529.47,173.67L537.25,153.76L539.85,164.34L542.44,156.07L545.04,157.12L547.63,155.2L555.42,147.6L560.61,176.51L563.21,198.57L565.8,245.93L573.59,305.7L576.18,328.62L578.78,267.61L581.37,235.03L583.97,239.76L591.76,248.52L594.35,287.09L596.95,257.94L599.54,252.03L602.14,276.87L612.52,237.62L615.11,262.47L617.71,262.27L620.31,245.49L628.09,251.47L630.69,235.63L633.28,226.83L635.88,237.23L638.47,261.12L646.26,249.18L648.85,262.14L651.45,262.64L654.05,260.11L656.64,255.73L664.43,274.64L667.02,268.4L669.62,248.42L672.21,255.76L674.81,239.86L682.6,213.41L685.19,208.71L690.38,184.31L692.98,185.53L700.76,182.85L703.36,186.36L705.95,222.96L708.55,215.57L711.15,209.69L718.93,212.73L724.12,231.9L726.72,178.39L729.31,165.3L737.1,176.36L739.69,188.97L742.29,170.29L744.89,170.93L747.48,177.2L755.27,168.13L757.86,160.32L760.46,161.4L763.05,163.48L765.65,165.28L773.44,179.81L776.03,180.57L778.63,187.77L783.82,234.52L791.6,206.87L794.2,196.46L796.79,172.72L799.39,165.32L801.98,165.69L809.77,165.12L812.37,162.72L814.96,164.03L820.15,161.53L827.94,165.95L830.53,157.58L833.13,172.48L835.73,179.66L838.32,148.13L846.11,146.67L848.7,160.74L851.3,167.77L853.89,161.27L856.49,179.93L864.27,165.28L866.87,155.03L869.47,138.68L872.06,160.22L874.66,179.94L882.44,166.13L885.04,152.76L887.63,133.45L890.23,139.84L900.61,142.71L903.21,122.89L905.8,132.8L908.4,149.77L918.78,158.59L921.37,143.21L923.97,152.83L929.16,190.65L936.95,177.35L939.54,171.05L942.14,201.35L944.73,171.64L947.33,205.95L957.71,194.34L960.31,227.91L965.5,181.93L973.28,185.13L975.88,162.49L978.47,172.6L981.07,159.9L983.66,123.68L991.45,117.09L994.05,139.99L996.64,137.1L999.24,132.54L1001.83,151.4L1009.62,147.61L1014.81,163.89L1017.4,175.69L1020,153.59" style="vector-effect: non-scaling-stroke; fill: none; stroke: rgb(255, 161, 90); stroke-opacity: 1; stroke-width: 2px; opacity: 1;"/></g><g class="points"/><g class="text"/></g><g class="trace scatter trace2d8e3f" style="stroke-miterlimit: 2; opacity: 1;"><g class="fills"/><g class="errorbars"/><g class="lines"><path class="js-line" d="M0,115.26L2.6,101.19L12.98,104.67L15.57,108.21L18.17,87.29L20.76,103.17L28.55,98.76L31.15,123.67L33.74,138.29L36.34,110.58L38.93,141.04L46.72,123.37L49.31,102.22L51.91,104.78L54.5,92.42L57.1,94.36L64.89,110.45L67.48,89.32L70.08,89.09L75.27,80.56L85.65,84.69L88.24,83.05L90.84,95.65L93.44,90.63L101.22,89.62L106.41,76.07L109.01,66.48L111.6,69.08L119.39,62.08L121.98,68.75L124.58,77.87L127.18,76.62L129.77,105.21L137.56,97.48L140.15,122.06L142.75,134.95L145.34,111.81L147.94,118.01L155.73,94.02L158.32,104.97L160.92,88.75L163.51,100.12L166.11,81.54L173.89,70.78L176.49,78.13L179.08,102.53L181.68,106.64L184.27,109.81L192.06,87.23L197.25,114.86L199.85,111.47L210.23,103.46L212.82,106.47L215.42,102.12L218.02,99.55L220.61,90.95L228.4,98.54L230.99,96.17L233.59,97.01L236.18,103.54L238.78,123.8L246.56,107.21L249.16,117.04L251.76,101.49L254.35,97.9L256.95,89.05L264.73,101.26L267.33,94.27L269.92,103.63L272.52,114.38L275.11,97.65L282.9,98.28L285.5,109.59L288.09,113.33L290.69,108.17L293.28,88.49L301.07,100.99L303.66,100.74L306.26,104.87L308.85,90.65L311.45,85.42L319.24,82.59L321.83,84.52L324.43,88.77L327.02,91.41L329.62,99.53L340,114.88L342.6,107.51L345.19,113.46L347.79,122.54L355.57,120.08L358.17,123.45L360.76,120.6L365.95,151.07L373.74,155.55L376.34,155.86L378.93,142.36L381.53,138.77L384.12,152.49L391.91,163.89L394.5,152.03L397.1,145.76L399.69,129.99L402.29,138.46L410.08,132.56L412.67,132.6L415.27,142.82L417.86,151.03L420.46,143.08L428.24,169.82L430.84,173.73L433.44,156.57L436.03,154.1L446.41,155.55L449.01,137.52L451.6,154.35L454.2,153.18L456.79,134.93L464.58,119.51L467.18,115.72L469.77,114.51L472.37,109.76L474.96,115.23L482.75,113.32L485.34,127.22L490.53,136.91L493.13,152.92L500.92,159.18L503.51,142.47L506.11,130.6L508.7,134.74L511.3,135.22L519.08,139.19L521.68,146.08L524.27,134.28L526.87,143.49L529.47,155.82L537.25,140.02L539.85,147.03L542.44,143.08L545.04,141.91L555.42,132.88L558.02,146.01L560.61,157.49L563.21,177.65L565.8,223.26L573.59,283.96L576.18,310.02L578.78,252.24L581.37,222.67L583.97,231.84L591.76,244.17L594.35,280.26L596.95,255.08L599.54,251.74L602.14,276.39L612.52,237.46L615.11,263.19L617.71,261.24L620.31,247.94L628.09,252.93L630.69,234.68L633.28,225.54L635.88,232.1L638.47,254.99L646.26,246.88L648.85,257.81L651.45,258.13L654.05,255.22L656.64,252.04L664.43,270.39L667.02,262.86L669.62,247.96L672.21,254L674.81,237.11L682.6,212.73L685.19,215.73L690.38,190.39L692.98,190.03L700.76,186.36L703.36,191.79L705.95,226.59L708.55,212.52L711.15,204.79L718.93,206.56L724.12,219.64L726.72,175.74L729.31,162.87L737.1,168.22L739.69,174.02L742.29,160.28L744.89,159.02L747.48,168.31L757.86,153.94L760.46,155.36L763.05,155.7L765.65,160.29L773.44,172.97L776.03,170.1L778.63,174.42L781.22,197.32L783.82,216.95L791.6,191.09L794.2,183.61L796.79,160.81L799.39,158.24L801.98,159L809.77,159.36L812.37,157.27L814.96,157.06L820.15,154.87L827.94,164.48L830.53,151.49L835.73,174.71L838.32,142.13L846.11,138.68L848.7,151.85L851.3,160.94L853.89,154.23L856.49,170.79L864.27,157.23L866.87,144.8L869.47,124.92L874.66,169.33L882.44,156.45L887.63,126.27L890.23,131.08L900.61,133.04L903.21,114.67L905.8,122.63L908.4,139.88L918.78,154.47L921.37,138.63L923.97,148.7L926.56,165.47L929.16,184.56L936.95,174.04L939.54,169.42L942.14,198.53L944.73,173.56L947.33,199.91L957.71,185.67L960.31,215.02L965.5,176.17L973.28,178.53L975.88,151.3L978.47,157.55L981.07,147.47L983.66,112.55L991.45,106.13L994.05,125.34L996.64,121.66L999.24,124.24L1001.83,140.79L1009.62,137.6L1012.21,141.22L1014.81,146.29L1017.4,161.64L1020,140.35" style="vector-effect: non-scaling-stroke; fill: none; stroke: rgb(25, 211, 243); stroke-opacity: 1; stroke-width: 2px; opacity: 1;"/></g><g class="points"/><g class="text"/></g><g class="trace scatter trace858925" style="stroke-miterlimit: 2; opacity: 1;"><g class="fills"/><g class="errorbars"/><g class="lines"><path class="js-line" d="M0,115.26L2.6,100.57L12.98,104.64L15.57,108.02L18.17,86.74L20.76,102.79L28.55,98.81L31.15,123.57L33.74,138.35L36.34,110.98L38.93,140.84L46.72,123.06L49.31,101.32L51.91,104.24L54.5,92.48L57.1,94.96L64.89,110.77L67.48,89.51L70.08,88.66L72.67,86.68L75.27,81.83L85.65,85.23L88.24,84.14L90.84,94.87L93.44,90.5L101.22,88.93L103.82,81.67L106.41,76.07L109.01,66.99L111.6,68.25L119.39,62.8L121.98,69.14L124.58,78.7L127.18,77.03L129.77,106.12L137.56,98.37L140.15,123.34L142.75,136.38L145.34,113.04L147.94,120.51L155.73,96.22L158.32,106.72L160.92,89.52L163.51,100.86L166.11,82.58L173.89,71.64L176.49,79.29L179.08,103.69L181.68,107.07L184.27,110.53L192.06,88.01L197.25,115.29L199.85,111.42L210.23,103.04L212.82,105.91L218.02,99.2L220.61,90.79L228.4,98.47L230.99,96.31L233.59,97.04L236.18,103.43L238.78,122.93L246.56,105.49L249.16,114.91L251.76,99.09L254.35,94.9L256.95,86.45L264.73,97.5L267.33,90.37L272.52,110.92L275.11,93.7L282.9,94.21L285.5,105.79L288.09,109.9L290.69,104.66L293.28,84.96L301.07,97.7L303.66,97.9L306.26,100.7L308.85,85.71L311.45,81.17L319.24,78.32L321.83,79.65L327.02,86.19L329.62,94.37L340,109.8L342.6,102.09L345.19,107.81L347.79,117.78L355.57,115.28L358.17,118.83L360.76,116.26L363.36,130.96L365.95,146.74L373.74,151.24L376.34,151.2L378.93,137.66L381.53,134.33L384.12,148.32L391.91,159.57L394.5,147.27L397.1,141.35L399.69,125.61L402.29,134.2L410.08,128.47L412.67,128.26L415.27,138.43L417.86,145.94L420.46,138.9L428.24,165.6L430.84,169.36L433.44,152.55L436.03,149.89L446.41,151.56L449.01,134.38L451.6,151.38L454.2,150.45L456.79,131.47L464.58,116.29L467.18,112.7L469.77,111.08L472.37,105.65L474.96,110.91L482.75,108.6L485.34,125.45L490.53,136.32L493.13,152.77L500.92,159.05L503.51,142.68L506.11,131.45L508.7,135.68L511.3,136.16L519.08,141.19L521.68,148.31L524.27,136.76L526.87,145.49L529.47,157.54L537.25,141.53L539.85,148.96L542.44,144.93L545.04,145.49L555.42,135.75L558.02,148L560.61,160.02L563.21,178.66L565.8,224.07L573.59,284.03L576.18,309.35L578.78,251.47L581.37,222.35L583.97,231.07L591.76,242.64L594.35,279.35L596.95,254.53L599.54,251.15L602.14,276.1L612.52,237.88L615.11,263.64L617.71,261.42L620.31,248.27L628.09,253.14L630.69,235L633.28,225.65L635.88,231.87L638.47,254.83L646.26,245.78L648.85,256.79L651.45,257.65L654.05,254.33L656.64,252.43L664.43,269.88L667.02,262.05L669.62,247.49L672.21,254.06L674.81,237.79L682.6,213.22L685.19,216.22L690.38,190.88L692.98,189.96L700.76,186.63L703.36,191.98L705.95,224.18L708.55,210.85L711.15,203.4L718.93,206.01L724.12,221.2L726.72,177.79L729.31,165.11L737.1,171.21L739.69,179.09L742.29,165.1L744.89,162.96L747.48,171.66L755.27,161.89L757.86,157.27L760.46,159.18L763.05,159.78L773.44,178.32L776.03,175.34L778.63,178.8L781.22,201.94L783.82,220.71L791.6,194.47L794.2,187.71L796.79,164.95L799.39,161.82L801.98,162.67L809.77,162.09L812.37,159.67L814.96,160.43L820.15,157.92L827.94,166.9L830.53,154.21L835.73,176.6L838.32,144.21L846.11,141.56L848.7,154.8L851.3,163.51L853.89,157.07L856.49,173.67L864.27,160.25L866.87,146.85L869.47,127.18L874.66,171.81L882.44,159.83L887.63,129.04L890.23,133.67L900.61,136.24L903.21,118.18L905.8,126.06L908.4,143.4L918.78,158.18L921.37,143.64L923.97,153.33L926.56,170.78L929.16,188.92L936.95,179.19L939.54,174.03L942.14,201.7L944.73,176.58L947.33,202.75L957.71,189.54L960.31,219.79L965.5,181.52L973.28,184.27L975.88,156.6L978.47,161.93L981.07,151.16L983.66,116.54L991.45,110.7L994.05,130.23L996.64,125L999.24,125.41L1001.83,141.61L1009.62,136.57L1012.21,140.95L1014.81,148.6L1017.4,164.36L1020,142.82" style="vector-effect: non-scaling-stroke; fill: none; stroke: rgb(255, 102, 146); stroke-opacity: 1; stroke-width: 2px; opacity: 1;"/></g><g class="points"/><g class="text"/></g><g class="trace scatter traceffdd27" style="stroke-miterlimit: 2; opacity: 1;"><g class="fills"/><g class="errorbars"/><g class="lines"><path class="js-line" d="M0,115.26L2.6,100.65L12.98,104.62L15.57,108.13L18.17,86.88L20.76,102.81L28.55,98.75L31.15,123.59L33.74,138.18L36.34,110.71L38.93,140.49L46.72,122.68L49.31,100.93L51.91,103.85L54.5,92.09L57.1,94.55L64.89,110.29L67.48,89.11L70.08,88.21L72.67,86.23L75.27,81.31L85.65,84.71L88.24,83.6L90.84,94.57L93.44,90.2L101.22,88.64L103.82,81.45L106.41,76.01L109.01,67.06L111.6,68.4L119.39,63.06L121.98,69.28L124.58,78.89L127.18,77.28L129.77,106.26L137.56,98.55L140.15,123.47L142.75,136.57L145.34,113.32L147.94,120.76L155.73,96.48L158.32,106.92L160.92,89.69L163.51,101.14L166.11,82.89L173.89,71.85L176.49,79.51L179.08,103.94L181.68,107.24L184.27,110.84L192.06,88.27L197.25,115.62L199.85,111.73L210.23,103.28L212.82,106.18L218.02,99.56L220.61,91.15L228.4,98.81L230.99,96.58L233.59,97.22L236.18,103.8L238.78,123.28L246.56,105.78L249.16,115.21L251.76,99.35L254.35,95.1L256.95,86.68L264.73,97.61L267.33,90.48L272.52,111.02L275.11,93.73L282.9,94.24L285.5,105.87L288.09,110.02L290.69,104.83L293.28,85.12L301.07,97.94L303.66,98.08L306.26,101.01L308.85,85.99L311.45,81.48L319.24,78.65L321.83,80.15L327.02,86.62L329.62,94.8L340,110.32L342.6,102.59L345.19,108.34L347.79,118.31L355.57,115.74L358.17,119.27L360.76,116.7L363.36,131.36L365.95,147.13L373.74,151.63L376.34,151.59L378.93,138.05L381.53,134.82L384.12,148.83L391.91,160.11L394.5,147.87L397.1,141.91L399.69,126.27L402.29,134.85L410.08,129.09L412.67,128.97L415.27,139L417.86,146.62L420.46,139.68L428.24,166.29L430.84,170.06L433.44,153.28L436.03,150.57L446.41,152.21L449.01,135L451.6,152.01L454.2,151.21L456.79,132.27L464.58,117.07L467.18,113.56L469.77,111.95L472.37,106.48L474.96,111.62L482.75,109.27L485.34,126.24L490.53,137.24L493.13,153.75L500.92,160.11L503.51,143.69L506.11,132.47L508.7,136.81L511.3,137.53L519.08,142.75L521.68,150.04L524.27,138.5L526.87,147.1L529.47,159.25L537.25,143.1L539.85,150.66L542.44,146.41L545.04,147.03L555.42,137.4L558.02,149.82L560.61,161.92L563.21,180.57L565.8,226.09L573.59,285.99L576.18,311.22L578.78,253.3L581.37,224.21L583.97,232.91L591.76,244.45L594.35,281.26L596.95,256.39L599.54,253.04L602.14,277.97L612.52,239.76L615.11,265.57L617.71,263.35L620.31,250.2L628.09,255.05L630.69,237L633.28,227.67L635.88,233.95L638.47,256.94L646.26,247.9L648.85,258.91L651.45,259.74L654.05,256.34L656.64,254.5L664.43,271.97L667.02,264.29L669.62,249.73L672.21,256.3L674.81,240.02L682.6,215.53L685.19,218.42L690.38,193.17L692.98,192.27L700.76,189.09L703.36,194.48L705.95,226.97L708.55,213.7L711.15,206.31L718.93,208.99L724.12,224.29L726.72,180.88L729.31,168.09L737.1,174.36L739.69,182.38L742.29,168.25L744.89,166.07L747.48,174.74L755.27,164.86L757.86,160.04L760.46,161.86L763.05,162.65L773.44,181.13L776.03,178.29L778.63,181.87L781.22,205L783.82,223.68L791.6,197.41L794.2,190.6L796.79,167.86L799.39,164.66L801.98,165.67L809.77,165.15L812.37,162.68L814.96,163.5L820.15,161.06L827.94,169.98L830.53,157.38L835.73,179.71L838.32,147.47L846.11,144.82L848.7,158.17L851.3,166.84L853.89,160.38L856.49,176.98L864.27,163.59L866.87,150.24L869.47,130.69L874.66,175.36L882.44,163.38L887.63,132.58L890.23,137.23L900.61,139.86L903.21,121.8L905.8,129.65L908.4,146.92L918.78,161.5L921.37,147.01L923.97,156.65L926.56,173.93L929.16,192.09L936.95,182.33L939.54,177.25L942.14,204.84L944.73,179.56L947.33,205.71L957.71,192.71L960.31,223.1L965.5,184.71L973.28,187.55L975.88,159.97L978.47,165.73L981.07,154.94L983.66,120.34L991.45,114.59L994.05,134.1L996.64,128.69L999.24,129.02L1001.83,144.84L1009.62,139.7L1012.21,144.25L1014.81,152L1017.4,167.95L1020,146.51" style="vector-effect: non-scaling-stroke; fill: none; stroke: rgb(182, 232, 128); stroke-opacity: 1; stroke-width: 2px; opacity: 1;"/></g><g class="points"/><g class="text"/></g><g class="trace scatter tracee90beb" style="stroke-miterlimit: 2; opacity: 1;"><g class="fills"/><g class="errorbars"/><g class="lines"><path class="js-line" d="M0,115.26L2.6,100.77L12.98,103.84L15.57,107.35L18.17,85.92L20.76,101.14L28.55,97.66L31.15,122.87L33.74,136.52L36.34,108.54L38.93,138.68L46.72,120.73L49.31,99.68L51.91,103.31L54.5,92.59L57.1,95L64.89,110.54L67.48,89.25L70.08,88.13L72.67,86.66L75.27,81.95L85.65,85.35L88.24,83.88L90.84,94.38L93.44,90.09L101.22,88.43L103.82,81.13L106.41,77.01L109.01,68.21L111.6,68.81L119.39,64.23L121.98,70.01L124.58,80.18L127.18,78.5L129.77,107.29L137.56,99.44L140.15,124.79L142.75,137.93L145.34,114.45L147.94,122.41L155.73,98.17L158.32,107.85L160.92,90.56L163.51,101.87L166.11,83.53L173.89,73.45L176.49,80.64L179.08,105.08L181.68,108.3L184.27,112.21L192.06,89.56L197.25,116.51L199.85,112.36L210.23,103.36L212.82,106.68L218.02,100.65L220.61,93.09L228.4,100.4L230.99,97.94L233.59,98.47L236.18,104.84L238.78,124.98L246.56,106.63L249.16,116.06L251.76,100.24L254.35,96.06L256.95,87.96L264.73,98.04L267.33,89.58L272.52,110.23L275.11,92.9L282.9,93.14L285.5,104.79L288.09,108.95L290.69,103.77L293.28,84.44L301.07,97.43L303.66,97.85L306.26,100.11L308.85,84.91L311.45,80.71L319.24,78.29L321.83,80.11L327.02,86.43L329.62,94.62L340,110.34L342.6,102.28L345.19,107.95L347.79,117.74L355.57,115.06L358.17,118.73L360.76,116.08L363.36,131.19L365.95,147.28L373.74,151.71L376.34,151.76L378.93,138.05L381.53,134.99L384.12,149.15L391.91,160.52L394.5,148L397.1,142.04L399.69,126.59L402.29,135.51L410.08,129.47L412.67,129.32L415.27,139.6L417.86,147.07L420.46,140.27L428.24,167.12L430.84,170.97L433.44,153.86L436.03,150.99L446.41,152.51L449.01,135.37L451.6,152.45L454.2,152.14L456.79,133.03L464.58,118.09L467.18,114.25L469.77,112.72L472.37,106.57L474.96,111.47L482.75,108.9L485.34,126.92L487.94,133.94L490.53,138.39L493.13,154.77L500.92,161.21L506.11,134.76L508.7,139.08L511.3,139.23L519.08,144.3L521.68,151.61L524.27,139.87L526.87,148.05L529.47,160.35L537.25,144.22L539.85,152.03L542.44,147.84L545.04,148.29L555.42,138.61L558.02,150.75L560.61,163.09L563.21,182.47L565.8,227.83L573.59,287.16L576.18,312.69L578.78,255.05L581.37,226.41L583.97,233.98L591.76,245.57L594.35,282.33L596.95,257.9L599.54,254.28L602.14,279.36L612.52,241.82L615.11,267.28L617.71,265.06L620.31,252.29L628.09,256.93L630.69,238.68L633.28,229.02L635.88,235.53L638.47,258.81L646.26,249.65L648.85,261.14L651.45,262.24L654.05,258.89L656.64,256.5L664.43,273.97L667.02,267.04L669.62,252.29L672.21,259.61L674.81,243.95L682.6,218.94L685.19,221.82L690.38,196.12L692.98,195.11L700.76,192.25L703.36,198.12L705.95,230.61L708.55,218.16L711.15,211.22L718.93,213.82L721.53,222.8L724.12,228.33L726.72,184.74L729.31,172.65L737.1,179.03L739.69,187.79L742.29,173.06L744.89,170.62L747.48,178.75L755.27,170.17L757.86,165.36L760.46,166.67L763.05,167.62L765.65,172.74L773.44,186.34L776.03,183.78L778.63,187.52L781.22,210.41L783.82,228.72L791.6,202.21L794.2,195.26L796.79,172.45L799.39,167.79L801.98,169.29L809.77,168.1L812.37,166.04L814.96,167.66L820.15,165.09L827.94,174.29L830.53,161.74L835.73,183.78L838.32,151.41L846.11,148.78L848.7,161.99L851.3,171.26L853.89,164.47L856.49,181.48L864.27,168.41L866.87,155.17L869.47,135.1L874.66,180.9L882.44,168.94L887.63,137.62L890.23,142.44L900.61,144.84L903.21,126.76L905.8,134.59L908.4,151.91L918.78,166.31L921.37,152.11L923.97,161.72L926.56,179.52L929.16,197.38L936.95,187.31L939.54,181.78L942.14,209.41L944.73,184.87L947.33,210.88L957.71,197.91L960.31,228.64L965.5,190.05L973.28,192.74L975.88,166.6L978.47,173.87L981.07,163.29L983.66,128.41L991.45,122.06L994.05,142.04L996.64,136.3L999.24,136.24L1001.83,150.34L1009.62,145.65L1012.21,150.53L1014.81,159.34L1017.4,176.18L1020,154.4" style="vector-effect: non-scaling-stroke; fill: none; stroke: rgb(255, 151, 255); stroke-opacity: 1; stroke-width: 2px; opacity: 1;"/></g><g class="points"/><g class="text"/></g><g class="trace scatter tracedd0af9" style="stroke-miterlimit: 2; opacity: 1;"><g class="fills"/><g class="errorbars"/><g class="lines"><path class="js-line" d="M0,115.26L2.6,96.46L12.98,96.1L15.57,92.25L18.17,66.66L20.76,80.59L28.55,79.99L31.15,108.71L33.74,128.01L36.34,105.79L38.93,130.61L46.72,111.29L49.31,81.2L51.91,80.55L54.5,59.67L57.1,65.64L64.89,75.01L67.48,61.26L70.08,61.92L72.67,51.05L75.27,46.42L85.65,43.64L88.24,45.39L90.84,49.73L93.44,34.49L101.22,36.82L103.82,27.72L106.41,26.2L109.01,27.2L111.6,35.26L119.39,19.89L124.58,38.78L127.18,34.96L129.77,62.44L137.56,48.75L140.15,81.54L142.75,84.26L145.34,58.66L147.94,73.03L155.73,50.56L158.32,63.2L160.92,40.82L163.51,52.37L166.11,35.75L173.89,36.9L176.49,47.23L179.08,76.06L181.68,80.04L184.27,76.64L192.06,50.67L194.66,70.39L197.25,78.07L199.85,71.66L210.23,60.07L212.82,60.61L215.42,57.94L218.02,52.4L220.61,42.65L228.4,50.59L233.59,37.24L236.18,37.91L238.78,65.45L246.56,44.89L249.16,53.3L251.76,44.56L256.95,40.43L264.73,44.59L267.33,37.48L269.92,44.83L272.52,64.05L275.11,45.96L282.9,41.39L285.5,55.41L288.09,63.9L290.69,55.81L293.28,29.5L301.07,37.97L303.66,41.61L306.26,42.37L308.85,23.48L311.45,21.47L321.83,17.55L324.43,20.21L327.02,20.18L329.62,25.47L340,44.24L342.6,32.27L345.19,35.9L347.79,47.28L355.57,44.35L358.17,47.15L360.76,40.82L363.36,57.63L365.95,63.16L373.74,71.33L376.34,71.58L378.93,48.29L381.53,44.45L384.12,58.3L391.91,68.91L394.5,57.74L397.1,54.66L399.69,36.92L402.29,46.76L410.08,36.53L412.67,34.14L415.27,51.67L417.86,59.13L420.46,53.59L428.24,88.1L430.84,85.82L433.44,72.19L436.03,74.92L446.41,79.51L449.01,70.31L451.6,96.08L454.2,92.81L456.79,71.94L464.58,50.53L467.18,43.05L469.77,43.39L472.37,36.48L474.96,39.81L482.75,38.44L485.34,56.28L487.94,63.01L490.53,74.75L493.13,90.85L500.92,103.45L503.51,84.76L506.11,72.83L508.7,73.36L511.3,78.89L519.08,87.92L521.68,92.6L524.27,93.61L526.87,105.51L529.47,110.07L537.25,86.25L539.85,107.17L542.44,107.2L545.04,106.64L547.63,99.83L555.42,93.15L558.02,96.48L560.61,112.5L563.21,147.78L565.8,200.1L573.59,258.08L576.18,278.27L578.78,217.27L581.37,180.88L583.97,182.04L591.76,193.37L594.35,239.65L596.95,210.78L599.54,208.47L602.14,235.31L612.52,196.85L615.11,220.41L617.71,212.84L620.31,202.73L628.09,208.85L630.69,186.29L633.28,172.49L635.88,178.92L638.47,207.51L646.26,195.13L648.85,212.84L651.45,217.82L654.05,225.56L656.64,214.39L664.43,245.21L667.02,240.56L669.62,217.35L672.21,218.6L674.81,198.86L682.6,168.9L685.19,167.54L690.38,141.87L692.98,138.54L700.76,133.87L703.36,138.8L705.95,154.28L708.55,132.9L711.15,125.59L718.93,124.15L721.53,125.47L724.12,130.25L726.72,98.67L729.31,83.14L737.1,85.47L739.69,89.57L742.29,70.06L744.89,72.39L747.48,81.48L755.27,65.2L757.86,56.4L760.46,61.38L763.05,61.79L765.65,57.17L773.44,74.89L776.03,72.16L778.63,77.67L781.22,102.72L783.82,122.7L791.6,99.27L794.2,98.63L796.79,74.23L799.39,74.66L801.98,65.69L809.77,68.76L812.37,66.84L820.15,66.72L827.94,75.93L830.53,59.33L833.13,74.97L835.73,99.8L838.32,63.34L846.11,74.89L848.7,90.9L851.3,98.36L853.89,90.23L856.49,120.73L864.27,110.56L866.87,95.14L869.47,73.05L872.06,98.01L874.66,134.2L882.44,122.07L885.04,105.75L887.63,87.49L890.23,92.46L900.61,94.81L903.21,75.82L905.8,87.36L908.4,104.99L918.78,132.19L921.37,131.23L923.97,156.08L926.56,194.74L929.16,211.26L936.95,206.13L939.54,194.53L942.14,230.48L944.73,208.05L947.33,246.57L957.71,243.82L960.31,268.38L962.9,256.96L965.5,236.19L973.28,256.71L975.88,228.92L978.47,250.87L981.07,238.54L983.66,199.45L991.45,201.14L994.05,230.27L996.64,212.23L999.24,204.35L1001.83,225.2L1009.62,242.73L1012.21,243.98L1014.81,253.8L1017.4,278.88L1020,247.98" style="vector-effect: non-scaling-stroke; fill: none; stroke: rgb(254, 203, 82); stroke-opacity: 1; stroke-width: 2px; opacity: 1;"/></g><g class="points"/><g class="text"/></g></g></g><g class="overplot"/><path class="xlines-above crisp" d="M0,0" style="fill: none;"/><path class="ylines-above crisp" d="M0,0" style="fill: none;"/><g class="overlines-above"/><g class="xaxislayer-above"><g class="xtick"><text text-anchor="middle" x="0" y="424" transform="translate(166.79000000000002,0)" style="font-family: 'Open Sans', verdana, arial, sans-serif; font-size: 12px; fill: rgb(42, 63, 95); fill-opacity: 1; white-space: pre; opacity: 1;">Mar 2015</text></g><g class="xtick"><text text-anchor="middle" x="0" y="424" style="font-family: 'Open Sans', verdana, arial, sans-serif; font-size: 12px; fill: rgb(42, 63, 95); fill-opacity: 1; white-space: pre; opacity: 1;" transform="translate(325.11,0)">May 2015</text></g><g class="xtick"><text text-anchor="middle" x="0" y="424" style="font-family: 'Open Sans', verdana, arial, sans-serif; font-size: 12px; fill: rgb(42, 63, 95); fill-opacity: 1; white-space: pre; opacity: 1;" transform="translate(483.44,0)">Jul 2015</text></g><g class="xtick"><text text-anchor="middle" x="0" y="424" style="font-family: 'Open Sans', verdana, arial, sans-serif; font-size: 12px; fill: rgb(42, 63, 95); fill-opacity: 1; white-space: pre; opacity: 1;" transform="translate(644.35,0)">Sep 2015</text></g><g class="xtick"><text text-anchor="middle" x="0" y="424" style="font-family: 'Open Sans', verdana, arial, sans-serif; font-size: 12px; fill: rgb(42, 63, 95); fill-opacity: 1; white-space: pre; opacity: 1;" transform="translate(802.67,0)">Nov 2015</text></g><g class="xtick"><text text-anchor="middle" x="0" y="424" style="font-family: 'Open Sans', verdana, arial, sans-serif; font-size: 12px; fill: rgb(42, 63, 95); fill-opacity: 1; white-space: pre; opacity: 1;" transform="translate(960.99,0)">Jan 2016</text></g></g><g class="yaxislayer-above"><g class="ytick"><text text-anchor="end" x="49" y="4.199999999999999" transform="translate(0,403.93)" style="font-family: 'Open Sans', verdana, arial, sans-serif; font-size: 12px; fill: rgb(42, 63, 95); fill-opacity: 1; white-space: pre; opacity: 1;">15k</text></g><g class="ytick"><text text-anchor="end" x="49" y="4.199999999999999" style="font-family: 'Open Sans', verdana, arial, sans-serif; font-size: 12px; fill: rgb(42, 63, 95); fill-opacity: 1; white-space: pre; opacity: 1;" transform="translate(0,354.67)">15.5k</text></g><g class="ytick"><text text-anchor="end" x="49" y="4.199999999999999" style="font-family: 'Open Sans', verdana, arial, sans-serif; font-size: 12px; fill: rgb(42, 63, 95); fill-opacity: 1; white-space: pre; opacity: 1;" transform="translate(0,305.4)">16k</text></g><g class="ytick"><text text-anchor="end" x="49" y="4.199999999999999" style="font-family: 'Open Sans', verdana, arial, sans-serif; font-size: 12px; fill: rgb(42, 63, 95); fill-opacity: 1; white-space: pre; opacity: 1;" transform="translate(0,256.13)">16.5k</text></g><g class="ytick"><text text-anchor="end" x="49" y="4.199999999999999" style="font-family: 'Open Sans', verdana, arial, sans-serif; font-size: 12px; fill: rgb(42, 63, 95); fill-opacity: 1; white-space: pre; opacity: 1;" transform="translate(0,206.87)">17k</text></g><g class="ytick"><text text-anchor="end" x="49" y="4.199999999999999" style="font-family: 'Open Sans', verdana, arial, sans-serif; font-size: 12px; fill: rgb(42, 63, 95); fill-opacity: 1; white-space: pre; opacity: 1;" transform="translate(0,157.6)">17.5k</text></g><g class="ytick"><text text-anchor="end" x="49" y="4.199999999999999" style="font-family: 'Open Sans', verdana, arial, sans-serif; font-size: 12px; fill: rgb(42, 63, 95); fill-opacity: 1; white-space: pre; opacity: 1;" transform="translate(0,108.33)">18k</text></g></g><g class="overaxes-above"/></g></g><g class="polarlayer"/><g class="ternarylayer"/><g class="geolayer"/><g class="funnelarealayer"/><g class="pielayer"/><g class="iciclelayer"/><g class="treemaplayer"/><g class="sunburstlayer"/><g class="glimages"/><defs id="topdefs-bfc357"><g class="clips"/><clipPath id="legendbfc357"><rect width="136" height="200" x="0" y="0"/></clipPath></defs><g class="layer-above"><g class="imagelayer"/><g class="shapelayer"/></g><g class="infolayer"><g class="legend" pointer-events="all" transform="translate(1090.4,60)"><rect class="bg" shape-rendering="crispEdges" width="136" height="200" x="0" y="0" style="stroke: rgb(68, 68, 68); stroke-opacity: 1; fill: rgb(255, 255, 255); fill-opacity: 1; stroke-width: 0px;"/><g class="scrollbox" transform="" clip-path="url(#legendbfc357)"><g class="groups"><g class="traces" transform="translate(0,14.5)" style="opacity: 1;"><text class="legendtext" text-anchor="start" x="40" y="4.680000000000001" style="font-family: 'Open Sans', verdana, arial, sans-serif; font-size: 12px; fill: rgb(42, 63, 95); fill-opacity: 1; white-space: pre;">Conic γ=0.1</text><g class="layers" style="opacity: 1;"><g class="legendfill"/><g class="legendlines"><path class="js-line" d="M5,0h30" style="fill: none; stroke: rgb(99, 110, 250); stroke-opacity: 1; stroke-width: 2px;"/></g><g class="legendsymbols"><g class="legendpoints"/></g></g><rect class="legendtoggle" x="0" y="-9.5" width="130.8186798095703" height="19" style="fill: rgb(0, 0, 0); fill-opacity: 0;"/></g><g class="traces" transform="translate(0,33.5)" style="opacity: 1;"><text class="legendtext" text-anchor="start" x="40" y="4.680000000000001" style="font-family: 'Open Sans', verdana, arial, sans-serif; font-size: 12px; fill: rgb(42, 63, 95); fill-opacity: 1; white-space: pre;">Conic γ=3.275</text><g class="layers" style="opacity: 1;"><g class="legendfill"/><g class="legendlines"><path class="js-line" d="M5,0h30" style="fill: none; stroke: rgb(239, 85, 59); stroke-opacity: 1; stroke-width: 2px;"/></g><g class="legendsymbols"><g class="legendpoints"/></g></g><rect class="legendtoggle" x="0" y="-9.5" width="130.8186798095703" height="19" style="fill: rgb(0, 0, 0); fill-opacity: 0;"/></g><g class="traces" transform="translate(0,52.5)" style="opacity: 1;"><text class="legendtext" text-anchor="start" x="40" y="4.680000000000001" style="font-family: 'Open Sans', verdana, arial, sans-serif; font-size: 12px; fill: rgb(42, 63, 95); fill-opacity: 1; white-space: pre;">Conic γ=6.45</text><g class="layers" style="opacity: 1;"><g class="legendfill"/><g class="legendlines"><path class="js-line" d="M5,0h30" style="fill: none; stroke: rgb(0, 204, 150); stroke-opacity: 1; stroke-width: 2px;"/></g><g class="legendsymbols"><g class="legendpoints"/></g></g><rect class="legendtoggle" x="0" y="-9.5" width="130.8186798095703" height="19" style="fill: rgb(0, 0, 0); fill-opacity: 0;"/></g><g class="traces" transform="translate(0,71.5)" style="opacity: 1;"><text class="legendtext" text-anchor="start" x="40" y="4.680000000000001" style="font-family: 'Open Sans', verdana, arial, sans-serif; font-size: 12px; fill: rgb(42, 63, 95); fill-opacity: 1; white-space: pre;">Conic γ=9.625</text><g class="layers" style="opacity: 1;"><g class="legendfill"/><g class="legendlines"><path class="js-line" d="M5,0h30" style="fill: none; stroke: rgb(171, 99, 250); stroke-opacity: 1; stroke-width: 2px;"/></g><g class="legendsymbols"><g class="legendpoints"/></g></g><rect class="legendtoggle" x="0" y="-9.5" width="130.8186798095703" height="19" style="fill: rgb(0, 0, 0); fill-opacity: 0;"/></g><g class="traces" transform="translate(0,90.5)" style="opacity: 1;"><text class="legendtext" text-anchor="start" x="40" y="4.680000000000001" style="font-family: 'Open Sans', verdana, arial, sans-serif; font-size: 12px; fill: rgb(42, 63, 95); fill-opacity: 1; white-space: pre;">Conic γ=12.8</text><g class="layers" style="opacity: 1;"><g class="legendfill"/><g class="legendlines"><path class="js-line" d="M5,0h30" style="fill: none; stroke: rgb(255, 161, 90); stroke-opacity: 1; stroke-width: 2px;"/></g><g class="legendsymbols"><g class="legendpoints"/></g></g><rect class="legendtoggle" x="0" y="-9.5" width="130.8186798095703" height="19" style="fill: rgb(0, 0, 0); fill-opacity: 0;"/></g><g class="traces" transform="translate(0,109.5)" style="opacity: 1;"><text class="legendtext" text-anchor="start" x="40" y="4.680000000000001" style="font-family: 'Open Sans', verdana, arial, sans-serif; font-size: 12px; fill: rgb(42, 63, 95); fill-opacity: 1; white-space: pre;">Mean-Variance</text><g class="layers" style="opacity: 1;"><g class="legendfill"/><g class="legendlines"><path class="js-line" d="M5,0h30" style="fill: none; stroke: rgb(25, 211, 243); stroke-opacity: 1; stroke-width: 2px;"/></g><g class="legendsymbols"><g class="legendpoints"/></g></g><rect class="legendtoggle" x="0" y="-9.5" width="130.8186798095703" height="19" style="fill: rgb(0, 0, 0); fill-opacity: 0;"/></g><g class="traces" transform="translate(0,128.5)" style="opacity: 1;"><text class="legendtext" text-anchor="start" x="40" y="4.680000000000001" style="font-family: 'Open Sans', verdana, arial, sans-serif; font-size: 12px; fill: rgb(42, 63, 95); fill-opacity: 1; white-space: pre;">Mean-VaR</text><g class="layers" style="opacity: 1;"><g class="legendfill"/><g class="legendlines"><path class="js-line" d="M5,0h30" style="fill: none; stroke: rgb(255, 102, 146); stroke-opacity: 1; stroke-width: 2px;"/></g><g class="legendsymbols"><g class="legendpoints"/></g></g><rect class="legendtoggle" x="0" y="-9.5" width="130.8186798095703" height="19" style="fill: rgb(0, 0, 0); fill-opacity: 0;"/></g><g class="traces" transform="translate(0,147.5)" style="opacity: 1;"><text class="legendtext" text-anchor="start" x="40" y="4.680000000000001" style="font-family: 'Open Sans', verdana, arial, sans-serif; font-size: 12px; fill: rgb(42, 63, 95); fill-opacity: 1; white-space: pre;">Mean-CVaR 95%</text><g class="layers" style="opacity: 1;"><g class="legendfill"/><g class="legendlines"><path class="js-line" d="M5,0h30" style="fill: none; stroke: rgb(182, 232, 128); stroke-opacity: 1; stroke-width: 2px;"/></g><g class="legendsymbols"><g class="legendpoints"/></g></g><rect class="legendtoggle" x="0" y="-9.5" width="130.8186798095703" height="19" style="fill: rgb(0, 0, 0); fill-opacity: 0;"/></g><g class="traces" transform="translate(0,166.5)" style="opacity: 1;"><text class="legendtext" text-anchor="start" x="40" y="4.680000000000001" style="font-family: 'Open Sans', verdana, arial, sans-serif; font-size: 12px; fill: rgb(42, 63, 95); fill-opacity: 1; white-space: pre;">Mean-CVaR 99%</text><g class="layers" style="opacity: 1;"><g class="legendfill"/><g class="legendlines"><path class="js-line" d="M5,0h30" style="fill: none; stroke: rgb(255, 151, 255); stroke-opacity: 1; stroke-width: 2px;"/></g><g class="legendsymbols"><g class="legendpoints"/></g></g><rect class="legendtoggle" x="0" y="-9.5" width="130.8186798095703" height="19" style="fill: rgb(0, 0, 0); fill-opacity: 0;"/></g><g class="traces" transform="translate(0,185.5)" style="opacity: 1;"><text class="legendtext" text-anchor="start" x="40" y="4.680000000000001" style="font-family: 'Open Sans', verdana, arial, sans-serif; font-size: 12px; fill: rgb(42, 63, 95); fill-opacity: 1; white-space: pre;">DJIA</text><g class="layers" style="opacity: 1;"><g class="legendfill"/><g class="legendlines"><path class="js-line" d="M5,0h30" style="fill: none; stroke: rgb(254, 203, 82); stroke-opacity: 1; stroke-width: 2px;"/></g><g class="legendsymbols"><g class="legendpoints"/></g></g><rect class="legendtoggle" x="0" y="-9.5" width="130.8186798095703" height="19" style="fill: rgb(0, 0, 0); fill-opacity: 0;"/></g></g></g><rect class="scrollbar" rx="20" ry="3" width="0" height="0" x="0" y="0" style="fill: rgb(128, 139, 164); fill-opacity: 1;"/></g><g class="g-gtitle"/><g class="g-xtitle"/><g class="g-ytitle"/></g></svg>