<svg class="main-svg" xmlns="http://www.w3.org/2000/svg" xmlns:xlink="http://www.w3.org/1999/xlink" width="1238" height="406" style=""><rect x="0" y="0" width="1238" height="406" style="fill: rgb(255, 255, 255); fill-opacity: 1;"/><defs id="defs-1c5596"><g class="clips"><clipPath id="clip1c5596xyplot" class="plotclip"><rect width="1020" height="296"/></clipPath><clipPath class="axesclip" id="clip1c5596x"><rect x="50" y="0" width="1020" height="406"/></clipPath><clipPath class="axesclip" id="clip1c5596y"><rect x="0" y="60" width="1238" height="296"/></clipPath><clipPath class="axesclip" id="clip1c5596xy"><rect x="50" y="60" width="1020" height="296"/></clipPath></g><g class="gradients"/><g class="patterns"/></defs><g class="bglayer"><rect class="bg" x="50" y="60" width="1020" height="296" style="fill: rgb(229, 236, 246); fill-opacity: 1; stroke-width: 0;"/></g><g class="layer-below"><g class="imagelayer"/><g class="shapelayer"/></g><g class="cartesianlayer"><g class="subplot xy"><g class="layer-subplot"><g class="shapelayer"/><g class="imagelayer"/></g><g class="gridlayer"><g class="x"><path class="xgrid crisp" transform="translate(220.79,0)" d="M0,60v296" style="stroke: rgb(255, 255, 255); stroke-opacity: 1; stroke-width: 1px;"/><path class="xgrid crisp" transform="translate(395.38,0)" d="M0,60v296" style="stroke: rgb(255, 255, 255); stroke-opacity: 1; stroke-width: 1px;"/><path class="xgrid crisp" transform="translate(567.12,0)" d="M0,60v296" style="stroke: rgb(255, 255, 255); stroke-opacity: 1; stroke-width: 1px;"/><path class="xgrid crisp" transform="translate(741.7,0)" d="M0,60v296" style="stroke: rgb(255, 255, 255); stroke-opacity: 1; stroke-width: 1px;"/><path class="xgrid crisp" transform="translate(913.44,0)" d="M0,60v296" style="stroke: rgb(255, 255, 255); stroke-opacity: 1; stroke-width: 1px;"/></g><g class="y"><path class="ygrid crisp" transform="translate(0,339.68)" d="M50,0h1020" style="stroke: rgb(255, 255, 255); stroke-opacity: 1; stroke-width: 1px;"/><path class="ygrid crisp" transform="translate(0,278.48)" d="M50,0h1020" style="stroke: rgb(255, 255, 255); stroke-opacity: 1; stroke-width: 1px;"/><path class="ygrid crisp" transform="translate(0,217.28)" d="M50,0h1020" style="stroke: rgb(255, 255, 255); stroke-opacity: 1; stroke-width: 1px;"/><path class="ygrid crisp" transform="translate(0,156.07999999999998)" d="M50,0h1020" style="stroke: rgb(255, 255, 255); stroke-opacity: 1; stroke-width: 1px;"/><path class="ygrid crisp" transform="translate(0,94.88)" d="M50,0h1020" style="stroke: rgb(255, 255, 255); stroke-opacity: 1; stroke-width: 1px;"/></g></g><g class="zerolinelayer"/><path class="xlines-below"/><path class="ylines-below"/><g class="overlines-below"/><g class="xaxislayer-below"/><g class="yaxislayer-below"/><g class="overaxes-below"/><g class="plot" transform="translate(50,60)" clip-path="url(#clip1c5596xyplot)"><g class="scatterlayer mlayer"><g class="trace scatter tracecc16e5" style="stroke-miterlimit: 2; opacity: 1;"><g class="fills"/><g class="errorbars"/><g class="lines"><path class="js-line" d="M0,96.08L0.95,109.56L1.9,95.51L3.8,68.46L6.64,69.15L7.59,70.61L8.54,70.53L9.49,67.63L10.44,68.93L14.23,84.51L15.18,81.13L17.08,100.8L19.93,105.81L22.77,123.28L23.72,134.85L26.57,122.36L27.52,123.16L30.36,145.01L33.21,149.19L34.16,149.69L35.11,159.78L37,176.31L39.85,175.56L40.8,162.64L41.75,166.38L42.7,165.7L43.65,182.03L47.44,172.28L48.39,177.82L50.29,204.24L53.13,194.9L54.08,189.8L55.03,190.97L55.98,192.1L56.93,177.35L59.78,194.36L60.73,211.02L62.62,205.19L63.57,210.13L66.42,208.16L67.37,214.02L69.27,165.37L70.21,176.18L73.06,175.31L74.01,164.64L74.96,176L75.91,171.62L76.86,167.09L79.7,170.19L81.6,161.28L82.55,147.57L83.5,149.25L86.34,130.07L87.29,125.53L88.24,134.6L89.19,131.75L90.14,139.2L92.99,137.53L93.93,127.8L94.88,129.48L95.83,138.31L96.78,166.85L99.63,165.33L100.58,168.18L101.53,166.79L102.47,152.54L106.27,137.51L107.22,136.2L108.17,144.81L112.91,135.38L113.86,130.66L114.81,146.02L115.76,146.63L116.71,140.02L119.55,138.08L120.5,138.16L121.45,133.94L122.4,126.93L123.35,131.51L127.14,113.13L128.09,120.87L129.99,127.15L132.84,122.63L133.79,124.09L134.73,119.53L135.68,135.86L136.63,138.36L140.43,130.75L141.38,132.54L142.33,134.55L143.27,139.09L147.07,140.32L148.02,142.57L149.92,146.92L152.76,148.81L153.71,148L154.66,139.9L155.61,136.65L156.56,143.25L159.4,147.14L160.35,157.39L161.3,152.6L162.25,158.82L163.2,159.08L166.05,155.25L167,153.03L167.94,156.76L168.89,158.95L169.84,166.2L172.69,157.39L174.59,155.27L175.53,163.37L176.48,163.46L179.33,159.94L180.28,149.37L182.18,154.44L183.13,162.45L185.97,165.76L186.92,165.15L187.87,164.29L188.82,165.62L189.77,168.71L192.61,169.2L193.56,164.71L194.51,168.74L196.41,156.68L199.26,157.92L200.2,154.75L201.15,148.35L202.1,148.1L203.05,145.93L206.85,140.09L207.8,142.72L208.74,140.95L209.69,131.36L212.54,132.33L213.49,135.95L214.44,136.11L215.39,137.33L216.33,141.92L219.18,141.9L220.13,142.36L221.08,145.2L222.03,147.83L222.98,147.33L225.82,145.78L226.77,149.13L227.72,153.49L228.67,153.73L229.62,153.91L233.41,147.68L234.36,141.89L235.31,149.91L236.26,152.71L239.11,149.73L240.06,150.37L241,156.36L241.95,160.38L242.9,160.1L245.75,162.53L246.7,165.2L247.65,172.38L248.6,165.25L249.54,152L252.39,151.25L253.34,151.51L254.29,147.73L255.24,141.17L256.19,139.99L259.03,136.74L259.98,128.49L261.88,124.97L262.83,129.75L266.62,129.92L267.57,130.66L269.47,144.94L272.32,147.8L274.21,154.22L275.16,157.27L276.11,152.37L278.96,144.67L279.91,134.31L280.86,136.04L282.75,122.96L285.6,99.19L286.55,100.79L287.5,100.16L288.45,105.68L289.4,103.19L293.19,99.31L294.14,93.71L295.09,101.56L296.04,101.43L298.88,101.18L299.83,97.13L300.78,93.32L301.73,97.77L302.68,94.39L305.53,94.5L306.47,92.09L307.42,92.5L309.32,93.89L312.17,99.84L313.12,99.69L314.07,94.05L315.01,101.49L315.96,96.84L319.76,70.25L320.71,81.07L321.66,82.19L322.6,79.06L325.45,88.37L326.4,83.28L327.35,82.12L328.3,87.04L329.25,98.58L332.09,84.92L333.04,80.32L333.99,94.31L335.89,73.14L339.68,65.11L340.63,53.32L341.58,52.72L342.53,56.75L346.33,64.8L348.22,72.65L349.17,83.62L352.02,80.53L352.97,89.96L354.87,101.62L355.81,102.03L359.61,93.96L360.56,99.49L361.51,100.46L362.46,108.26L365.3,104.94L366.25,100.35L367.2,106.24L368.15,103.06L369.1,110.15L371.94,110.53L373.84,94.17L374.79,91.73L375.74,94.81L378.59,91.04L379.53,92.19L380.48,90.22L381.43,93.59L382.38,92.79L385.23,89.23L386.18,90.43L387.13,99.05L388.07,91.77L389.02,93.35L392.82,94.58L393.77,100.44L394.72,100.11L395.67,106.95L398.51,97.9L399.46,94.34L400.41,99.1L401.36,100.53L402.31,93.27L405.15,93.45L406.1,96.43L407.05,93.4L408,77.53L412.74,112.51L413.69,125.17L414.64,125.67L415.59,132.94L418.44,128.43L419.39,141.7L421.28,161.63L422.23,157.85L425.08,150.62L426.03,138.82L426.98,141.99L427.93,139.19L428.87,132.57L431.72,136.72L432.67,151.27L433.62,146.52L434.57,130.41L435.52,132.6L438.36,129.07L439.31,118.06L440.26,129.56L441.21,127.1L445.95,114.98L446.9,101.99L447.85,105.14L448.8,111.18L451.65,108.51L452.6,113.05L455.44,93.77L458.29,97.32L459.24,89.68L460.19,90.96L461.13,93.59L462.08,84.5L464.93,86.15L465.88,85.19L467.78,79.32L468.73,80.35L472.52,76.07L473.47,56.92L474.42,58.44L475.37,53.04L478.21,54.86L479.16,59.18L481.06,67.98L482.01,72.08L485.8,67.69L486.75,73.32L487.7,71.3L488.65,73.21L491.5,67.82L492.45,63.58L493.4,66.83L494.34,65.41L495.29,71.16L498.14,71.47L499.09,69.32L500.04,69.45L501.93,84.19L504.78,86.1L505.73,86.79L506.68,85.47L507.63,87.62L508.58,93.77L511.42,98.05L512.37,96.83L513.32,96.49L514.27,93.06L515.22,99.19L518.07,91.45L519.01,94.55L520.91,95.74L521.86,103.92L524.71,101.68L525.66,104.85L526.6,103.43L528.5,95.57L531.35,97.55L532.3,98.99L533.25,96.4L534.2,91.93L535.14,97.22L537.99,105.81L538.94,114.97L540.84,96L541.79,98.64L544.63,97.9L545.58,91.47L551.27,101.32L552.22,99.91L553.17,107.07L554.12,106.23L555.07,99.26L557.92,97.95L558.87,98.74L559.81,97.63L560.76,97.6L561.71,102.55L564.56,98.75L565.51,101.58L567.4,96.24L568.35,87.54L571.2,91.23L572.15,99.57L574.05,110.31L575,109.69L578.79,98.55L579.74,98.4L581.64,114.48L584.48,114.83L593.02,158.84L593.97,177.85L594.92,186.49L597.77,171.07L598.72,166.12L599.67,168.59L601.56,143.21L604.41,146.93L606.31,129.14L607.26,127.55L608.2,126.77L611.05,129.02L612,125.01L612.95,112.88L613.9,102.13L614.85,106.58L617.69,109.14L618.64,107.19L620.54,121.11L621.49,121.52L624.33,112.27L625.28,118.59L626.23,118.44L627.18,114.41L628.13,108.2L630.98,120.62L632.87,138.01L633.82,125.06L634.77,121.09L637.62,120.11L638.57,116.07L639.52,117.43L640.47,119.06L641.41,116.36L644.26,120.47L645.21,111.05L646.16,111.53L647.11,108.17L650.9,102.14L651.85,103.57L652.8,107.04L654.7,101.24L657.54,104.16L658.49,109.97L659.44,116.6L660.39,113.5L661.34,112.97L664.19,116.41L665.13,111.87L666.08,100.22L667.98,108.86L670.83,115.31L671.78,115.05L672.73,116.69L673.67,126.38L674.62,121.91L677.47,119.96L678.42,111.14L679.37,110.07L680.32,113.36L681.27,116.59L684.11,115.75L686.01,112.95L686.96,107.96L690.75,114.35L692.65,111.28L694.55,99.56L697.4,104.24L698.34,108.12L699.29,116.39L701.19,133.01L704.04,145.88L704.99,145.81L705.93,159.71L706.88,151.53L707.83,150.19L711.63,154.48L712.58,147.7L714.47,137.29L717.32,137.77L718.27,144.92L719.22,138.82L720.17,128.65L721.12,126.7L724.91,137.63L725.86,134.69L726.81,132.9L727.76,126.63L730.6,120.41L731.55,122.08L732.5,115.66L733.45,114.91L734.4,114.66L738.2,124.08L739.14,115.75L740.09,120.53L741.04,108.49L743.89,102.56L744.84,103.95L745.79,102.9L746.73,102.03L747.68,90.39L750.53,80.5L751.48,87.08L752.43,79.4L753.38,83.35L754.33,84.64L757.17,82.52L758.12,79.31L759.07,85.59L760.02,82.2L760.97,75.65L763.81,77.11L764.76,71.6L767.61,87.26L770.46,95.2L772.35,82.73L773.3,85.59L777.1,88.35L778.05,87.73L779,94.51L779.94,93.69L780.89,87.07L783.74,85.49L784.69,86.12L785.64,77.62L787.53,90.43L790.38,96.12L791.33,86.15L792.28,88.62L794.18,84.14L797.02,92.48L798.92,100.35L799.87,100.14L803.67,112.55L804.61,98.56L806.51,91.36L807.46,95.36L810.31,105.54L811.26,105.32L812.2,96.04L813.15,94.63L814.1,97.23L816.95,86.96L817.9,81.12L818.85,86.66L820.74,81.15L823.59,91.99L824.54,93.2L825.49,87.18L826.44,82.44L827.39,87.77L831.18,91.63L832.13,96.54L833.08,99.22L834.03,95.73L836.87,108.23L837.82,108.58L838.77,101.68L839.72,111.57L840.67,107.67L843.52,106.77L844.47,114.15L845.41,107L847.31,117.88L850.16,104.67L851.11,105.29L852.06,111.64L853,115.13L853.95,127.89L856.8,127.12L857.75,131.89L858.7,134.2L859.65,125.41L860.6,124.52L863.44,128.24L864.39,136.01L865.34,135.56L867.24,121.95L870.08,125.17L873.88,167.81L876.73,176.59L877.67,182.16L878.62,180.21L879.57,194.04L880.52,222.16L883.37,238.94L884.32,236.54L885.27,214.27L886.21,211.4L887.16,199.34L890.01,176.16L890.96,182.14L891.91,176.72L893.8,204.06L896.65,217.02L899.5,187.43L900.45,185.74L903.29,187.86L904.24,195.81L906.14,173.71L907.09,175.76L909.93,164.53L910.88,174.38L912.78,166.83L913.73,178.75L916.58,174.92L917.53,177.19L918.47,187.39L919.42,185.78L920.37,186.3L924.17,205.58L925.12,200.65L926.07,207.6L927.01,201.85L929.86,199.21L931.76,192.28L932.71,205.03L933.66,205.08L936.5,199.51L937.45,215.76L938.4,217.64L939.35,231.02L940.3,226.75L943.14,228.74L944.09,239.83L945.99,221.15L946.94,240.55L949.79,247.83L950.73,223.77L951.68,238.73L952.63,238.97L953.58,248.38L956.43,254.06L957.38,250.32L958.33,263.7L960.22,229.81L963.07,228.37L964.02,210.97L964.97,220L965.92,206.34L966.87,208.05L969.71,194.33L970.66,199.81L971.61,202.78L972.56,216.6L973.51,208.29L976.35,214.95L977.3,220.92L978.25,215.69L979.2,218.57L980.15,209.79L983,209.53L983.94,200.63L984.89,194.47L985.84,204.12L989.64,221.04L990.59,221.38L991.53,220.06L992.48,209.19L993.43,206.4L996.28,208.85L997.23,206.61L998.18,199.42L999.13,189.99L1000.07,193.4L1002.92,190.49L1003.87,198.32L1004.82,184.85L1006.72,182.04L1009.56,189.87L1010.51,195.1L1011.46,195.98L1012.41,198.98L1013.36,199.65L1016.2,208.55L1018.1,201.94L1019.05,207.5L1020,210.43" style="vector-effect: non-scaling-stroke; fill: none; stroke: rgb(99, 110, 250); stroke-opacity: 1; stroke-width: 2px; opacity: 1;"/></g><g class="points"/><g class="text"/></g><g class="trace scatter tracecc9ba9" style="stroke-miterlimit: 2; opacity: 1;"><g class="fills"/><g class="errorbars"/><g class="lines"><path class="js-line" d="M0,96.08L0.95,111.99L1.9,98L3.8,71.3L6.64,77.59L7.59,79.3L8.54,78.02L10.44,74.61L14.23,93.56L15.18,92.26L16.13,103.61L17.08,109.23L19.93,113.54L23.72,148.29L26.57,132.92L27.52,131.23L28.47,140.78L30.36,155.2L33.21,158.58L34.16,161.88L35.11,172.12L37,189.92L39.85,186.24L40.8,173L41.75,177.68L42.7,175.94L43.65,191.66L47.44,177.59L48.39,184.76L50.29,206.83L53.13,197.35L54.08,193.09L55.03,192.47L55.98,193.73L56.93,178.75L59.78,196.9L60.73,208.52L62.62,202.31L63.57,204.73L66.42,202.4L67.37,207.96L69.27,156.97L70.21,169.47L73.06,171.85L74.01,159.14L74.96,174.06L75.91,170.41L76.86,165.92L79.7,169.4L81.6,162.04L82.55,145.89L83.5,149.38L86.34,126.57L87.29,122.25L88.24,130.63L89.19,126.13L90.14,135.39L92.99,136.68L93.93,127.07L94.88,127.12L95.83,133.86L96.78,164.61L99.63,165.43L101.53,169.83L102.47,158.06L107.22,135.67L108.17,145.34L113.86,126.45L114.81,142.09L115.76,140.11L116.71,132.43L119.55,131.24L120.5,132.96L121.45,128.77L122.4,120.66L123.35,124.93L126.2,106.3L127.14,106.31L128.09,115.69L129.99,120.66L132.84,116.08L133.79,117.33L134.73,110.7L135.68,129.93L136.63,133.61L140.43,125.67L141.38,127.43L142.33,127.78L143.27,131.57L148.02,133.85L148.97,136.31L152.76,136.25L153.71,134.7L155.61,122L156.56,128.83L159.4,136.04L160.35,147.36L161.3,141.48L162.25,149.41L163.2,150.39L166.05,146.74L167,141.33L167.94,146.97L168.89,147.45L169.84,159.55L172.69,145.27L174.59,142.39L176.48,155.26L179.33,150.02L180.28,136.08L181.23,141.01L182.18,142.89L183.13,154.03L185.97,159.15L186.92,157.58L187.87,157.8L188.82,162.4L189.77,165.07L192.61,165.55L193.56,161.13L194.51,167.78L195.46,157.77L196.41,155.97L199.26,156.92L200.2,155.68L201.15,149.54L202.1,150.69L203.05,148.54L205.9,139.73L206.85,139.88L207.8,141.48L208.74,140.43L209.69,128.88L212.54,130.37L213.49,133.47L214.44,133.23L215.39,133.88L216.33,139.9L219.18,139.78L220.13,140.42L221.08,143.67L222.03,145.73L222.98,145.49L225.82,143.34L226.77,147.89L228.67,153.95L229.62,153.65L234.36,142.93L235.31,153.97L236.26,154.87L239.11,149.07L240.06,150.03L241,157.25L242.9,163.46L245.75,167.25L246.7,167.43L247.65,175.75L249.54,156.66L252.39,156.84L253.34,156.95L254.29,153.03L256.19,146.75L259.03,143.45L260.93,129.97L261.88,130.99L262.83,137L265.67,135.76L266.62,137.06L267.57,140.27L269.47,152.19L272.32,156.7L275.16,158.87L276.11,153.07L278.96,140.82L279.91,129.55L280.86,130.21L281.8,125.53L285.6,87.44L286.55,90.7L287.5,90.21L288.45,97.4L289.4,95.24L292.24,91.87L293.19,89.14L294.14,81.96L296.04,88.37L298.88,88.33L300.78,79.98L301.73,84.31L302.68,80.77L305.53,80.53L306.47,76.57L307.42,78.29L309.32,80.26L312.17,85.45L313.12,85.13L314.07,78.56L315.01,86.73L315.96,82.44L319.76,51.36L320.71,64.25L321.66,66.38L322.6,62.72L325.45,70.54L326.4,67.04L327.35,63.83L328.3,69.16L329.25,84.54L332.09,69.61L333.04,64.87L333.99,76.61L335.89,50.39L339.68,41.23L340.63,30.05L341.58,32.74L342.53,38.94L346.33,44.37L347.27,53.82L348.22,55.75L349.17,70.78L352.02,64.85L354.87,88L355.81,90.45L359.61,83.59L360.56,90.08L361.51,90.91L362.46,98.18L365.3,93.93L366.25,86.67L367.2,91.64L368.15,87.96L369.1,94.31L371.94,95.08L373.84,76.33L374.79,73.3L375.74,76.67L378.59,73.5L379.53,77.29L380.48,73.85L381.43,79.59L382.38,78.91L385.23,76.41L386.18,78.12L387.13,86.54L388.07,80.28L389.02,82.26L392.82,83.86L393.77,90.07L394.72,89.82L395.67,96.78L398.51,85.13L399.46,79.13L400.41,84.09L401.36,84.18L402.31,74.25L405.15,75.33L406.1,78.59L407.05,74.19L408,56.16L412.74,91.92L413.69,104.81L414.64,106.21L415.59,110.94L418.44,107.25L419.39,123.82L421.28,143.58L422.23,137.68L425.08,131.73L426.03,118.85L426.98,121.82L427.93,119.6L428.87,112.78L431.72,115.99L432.67,131.19L433.62,125.75L434.57,107.64L435.52,111.9L438.36,108.15L439.31,95.57L440.26,108.07L441.21,105.59L445.95,92.42L446.9,79.75L448.8,90.52L451.65,87.03L452.6,90.21L453.54,83.8L455.44,70.45L458.29,75.6L459.24,67.99L460.19,68.24L461.13,70.42L462.08,58.6L464.93,60.33L465.88,57.87L467.78,52.82L468.73,55.52L472.52,50.81L473.47,29.81L474.42,34.09L475.37,29.84L478.21,33.53L479.16,38.95L481.06,49.13L482.01,52.18L485.8,47.66L486.75,53.79L487.7,50.11L488.65,52.2L492.45,41.09L493.4,45.75L494.34,44.91L495.29,50.61L498.14,51.37L499.09,50.06L500.04,50.06L500.99,60.31L501.93,64.5L504.78,67.16L505.73,66.26L506.68,63.32L507.63,66.65L508.58,73.26L511.42,77.15L512.37,74.32L513.32,73.02L514.27,68.46L515.22,75.87L518.07,66.24L519.01,69.79L520.91,69.89L521.86,79.63L524.71,76.84L525.66,80.04L526.6,79.26L527.55,73.05L528.5,72.13L531.35,75L532.3,77.58L534.2,64.81L535.14,70.94L537.99,82.39L538.94,92.93L540.84,72.92L541.79,76.32L544.63,74.4L545.58,65.47L546.53,68.49L547.48,67.91L551.27,78.51L552.22,77.38L553.17,85.1L554.12,84.62L555.07,76.45L557.92,74.29L558.87,75.57L559.81,73.71L561.71,82.89L564.56,78.15L565.51,80.6L566.46,79.98L567.4,76.61L568.35,65.9L571.2,69.66L572.15,77.18L574.05,86.76L575,86.77L578.79,74.51L579.74,74.04L581.64,88.77L584.48,86.58L592.07,118.14L593.02,125.75L594.92,151.82L597.77,132.68L598.72,126.26L599.67,129.88L601.56,103.27L604.41,106.79L607.26,89.52L608.2,88.87L611.05,89.39L612,85.06L613.9,60.78L614.85,65.45L617.69,68.72L618.64,66.35L620.54,78.22L621.49,80.18L624.33,70.26L625.28,78.12L626.23,78.07L627.18,76.4L628.13,70.4L630.98,80.24L632.87,102.74L633.82,86.9L634.77,82.91L637.62,83.26L638.57,77.75L639.52,78.83L640.47,81.34L641.41,78.04L644.26,82.75L645.21,73.32L646.16,74.16L647.11,71.65L648.06,70.76L650.9,65.74L652.8,70.18L654.7,64.55L657.54,69.12L658.49,74.92L659.44,80.28L660.39,77.76L661.34,77.14L664.19,79.42L665.13,75.57L666.08,65.24L667.98,77.29L670.83,84.11L671.78,83.92L672.73,85.38L673.67,97.08L674.62,92.49L677.47,88.62L678.42,78.66L679.37,78.18L680.32,81.17L681.27,86.33L684.11,85.32L686.01,82.64L686.96,77.93L690.75,84.62L692.65,80.9L694.55,67.66L697.4,74.46L698.34,78.88L699.29,87.92L701.19,109L704.04,124.86L704.99,125.81L705.93,141.38L707.83,131.04L711.63,137.84L714.47,115.22L717.32,117.94L718.27,124.04L719.22,117.15L720.17,105.23L721.12,105.98L724.91,118.84L725.86,115.29L726.81,114.08L727.76,107.86L730.6,102.36L731.55,103.89L732.5,97.89L733.45,97.26L734.4,95L738.2,103.96L739.14,96.92L740.09,100.37L741.04,87.48L743.89,80.47L744.84,81.67L745.79,81.22L746.73,77.07L747.68,64.73L750.53,53.8L751.48,62.62L752.43,54.16L753.38,56.12L754.33,58.04L757.17,56.63L758.12,53.95L759.07,60.11L760.97,50.18L763.81,51.99L764.76,45.51L765.71,52.02L766.66,53.68L767.61,61.06L770.46,69.66L771.4,58.81L772.35,54.75L773.3,59.45L778.05,61.5L779,68.18L779.94,68.08L780.89,61.43L783.74,58.74L784.69,59.56L785.64,50.09L786.59,60.63L787.53,64.71L790.38,70.36L791.33,58.86L792.28,59.82L794.18,59.28L797.02,69.88L797.97,72.73L798.92,78.83L799.87,79.4L800.82,81.18L803.67,91.93L804.61,75.8L806.51,68.92L807.46,74.89L810.31,84.01L811.26,83.5L813.15,71.06L814.1,75.14L817.9,57.82L818.85,64.52L820.74,57.64L823.59,69.76L824.54,69.51L825.49,61.87L826.44,55.83L827.39,62.06L831.18,65.11L832.13,70.72L833.08,74.61L834.03,69.15L836.87,83.25L837.82,83.26L838.77,76.39L839.72,88.97L840.67,85.54L843.52,86.38L844.47,94.41L845.41,85.42L847.31,98.28L850.16,84.41L851.11,86.4L852.06,93.67L853,94.82L853.95,108.59L856.8,109.05L857.75,114.17L858.7,117.09L859.65,107.41L860.6,105.03L863.44,107.23L864.39,116.91L865.34,115.83L867.24,101.96L870.08,103.88L871.03,115.22L871.98,135.91L873.88,152.12L876.73,160.11L877.67,164.93L878.62,163.28L879.57,179.56L880.52,208.78L883.37,227.91L884.32,226.22L886.21,197.01L887.16,182.31L890.01,160.56L890.96,168.69L891.91,163.31L892.86,178.15L893.8,190.46L896.65,202.26L899.5,166.97L900.45,166.13L903.29,167.91L904.24,174.12L906.14,151.28L907.09,154.38L909.93,143.62L910.88,155.94L912.78,148.88L913.73,162.87L916.58,157L917.53,158.24L918.47,168.56L919.42,166.63L920.37,167.71L924.17,187.2L925.12,181.89L926.07,190.21L927.01,183.5L929.86,182.19L931.76,174.52L932.71,188.15L933.66,189.16L936.5,184.38L937.45,199.08L938.4,199.25L939.35,213.31L940.3,209.93L943.14,212.82L944.09,222.94L945.99,206.04L946.94,229.03L949.79,236.01L950.73,208.92L951.68,228.32L952.63,227.48L953.58,236.26L956.43,240.53L957.38,238.99L958.33,251.53L960.22,218.14L963.07,216.4L964.02,196.46L964.97,207.4L965.92,192.37L966.87,194.14L969.71,178.93L970.66,184.78L971.61,190.45L972.56,205.75L973.51,196.05L976.35,201.64L977.3,209.41L978.25,203.28L979.2,205.87L980.15,194.14L983,195.72L983.94,187.7L984.89,180.35L985.84,191.42L986.79,193.53L989.64,206.09L990.59,209.25L991.53,208.25L992.48,195.85L993.43,194.03L996.28,196.18L997.23,193.99L999.13,176.98L1000.07,180.99L1002.92,175.9L1003.87,183.79L1004.82,169.68L1006.72,164.62L1010.51,179.4L1011.46,179.54L1012.41,183.6L1013.36,182.46L1016.2,191.62L1017.15,186.34L1018.1,183.11L1019.05,190.14L1020,192.22" style="vector-effect: non-scaling-stroke; fill: none; stroke: rgb(255, 161, 90); stroke-opacity: 1; stroke-width: 2px; opacity: 1;"/></g><g class="points"/><g class="text"/></g><g class="trace scatter trace33aa77" style="stroke-miterlimit: 2; opacity: 1;"><g class="fills"/><g class="errorbars"/><g class="lines"><path class="js-line" d="M0,96.08L0.95,110.72L1.9,95.94L3.8,71.03L6.64,73.17L8.54,74.61L9.49,72.98L10.44,73.35L14.23,89.31L15.18,85.59L16.13,95.41L17.08,102.02L19.93,108.19L23.72,137.89L26.57,123.99L27.52,125.38L28.47,132.53L30.36,147.16L33.21,151.56L34.16,151.75L35.11,161.88L37,178.2L39.85,176.77L40.8,165.12L41.75,169.25L42.7,167.91L43.65,184.82L47.44,176.71L48.39,182.55L50.29,206.54L53.13,197.69L54.08,193.64L55.03,192.96L55.98,193.04L56.93,179.5L59.78,196.58L60.73,211.37L62.62,203.14L63.57,207.67L66.42,205.73L67.37,213.2L69.27,163.56L70.21,174.22L73.06,174.39L74.01,162.72L74.96,174.06L75.91,169.94L76.86,165.36L79.7,167.85L81.6,158.93L82.55,146.44L83.5,148.37L86.34,129.03L87.29,124.73L88.24,132.48L89.19,130.67L90.14,138.51L92.99,137.97L93.93,127.64L94.88,130L95.83,138.32L96.78,167.16L99.63,167.18L100.58,169.73L101.53,168.77L102.47,155.16L106.27,139.47L107.22,134.55L108.17,143.45L113.86,131.18L114.81,146.61L115.76,147.31L116.71,140.38L120.5,138.38L121.45,133.18L122.4,126.66L123.35,131.58L127.14,113.54L128.09,121.78L129.04,123.83L129.99,128.57L132.84,123.78L133.79,125.09L134.73,119.79L135.68,136.38L136.63,139.17L140.43,131.35L143.27,138.3L146.12,139.78L147.07,139.38L148.02,140.62L149.92,144.56L152.76,147.63L153.71,145.72L154.66,137.51L155.61,134.31L156.56,140.73L159.4,144.06L160.35,154.35L161.3,150.25L162.25,155.6L163.2,154.27L166.05,152.03L167,149.96L167.94,153.6L168.89,155.43L169.84,163.53L172.69,153.84L174.59,152.59L175.53,161.09L176.48,160.91L179.33,156.73L180.28,145.34L182.18,150.61L183.13,158.64L185.97,162.96L186.92,162.5L187.87,161.91L188.82,163.35L189.77,166.11L192.61,165.94L193.56,160.89L194.51,164.35L195.46,153.99L196.41,151.9L199.26,153.69L200.2,150.15L201.15,142.78L202.1,143.18L205.9,135.17L206.85,134.99L207.8,138.59L208.74,136.46L209.69,127.8L212.54,128.88L213.49,133.07L214.44,133.78L216.33,140.11L219.18,139.93L220.13,140.59L221.08,142.53L222.03,145.24L222.98,144.49L225.82,142.17L226.77,145.8L227.72,149.54L228.67,149.86L229.62,149.58L233.41,143.6L234.36,138.79L235.31,146.82L236.26,147.86L239.11,145.06L240.06,146.3L241,152.8L241.95,156.86L242.9,157.17L246.7,162.33L247.65,169.82L248.6,162.62L249.54,148.65L253.34,148.88L254.29,145.93L256.19,137.25L259.03,135.15L260.93,124.85L261.88,123.56L262.83,127.99L265.67,127.5L266.62,128.34L267.57,130.79L269.47,144.09L272.32,146.47L275.16,155.74L276.11,152.05L278.96,142.5L279.91,132.93L280.86,133.87L281.8,130.2L285.6,96.59L286.55,97.5L287.5,96.86L288.45,102.86L289.4,100.54L292.24,97.53L293.19,95.91L294.14,90.84L295.09,96.21L296.04,96.43L298.88,95.14L299.83,90.52L300.78,87.61L301.73,92.51L302.68,90.28L305.53,90.08L306.47,87.9L307.42,87.94L309.32,90.39L312.17,96.65L313.12,95.64L314.07,90.11L315.01,97.72L315.96,94.82L319.76,68.79L320.71,79.4L321.66,80.91L322.6,77.78L325.45,85.55L326.4,80.45L327.35,78.5L328.3,83.21L329.25,95.27L332.09,81.84L333.04,80.26L333.99,95.35L335.89,73.38L339.68,65.72L340.63,54.93L341.58,54.22L342.53,58.19L346.33,65.74L348.22,73.19L349.17,84.25L352.02,80.65L352.97,89.2L354.87,100.78L355.81,101.51L359.61,93.74L360.56,99.03L361.51,98.89L362.46,107.11L365.3,103.17L366.25,98.47L367.2,105.41L368.15,102.5L369.1,109.49L371.94,109.96L373.84,93.69L374.79,90.81L375.74,93.58L378.59,90.05L379.53,91.18L380.48,90.15L381.43,93.7L382.38,93.65L385.23,89.69L386.18,90.97L387.13,99.59L388.07,93.25L389.02,94.83L392.82,95.78L393.77,103.12L394.72,101.16L395.67,107.29L398.51,97.86L399.46,94.36L400.41,100.61L401.36,101.96L402.31,94.98L405.15,95.57L406.1,98.32L407.05,96.72L408,80.94L413.69,128.06L414.64,128.08L415.59,136.09L418.44,131.6L421.28,164.16L422.23,159.75L425.08,153.84L426.03,141.88L426.98,145.13L427.93,141.02L428.87,133.78L431.72,137.82L432.67,152.21L433.62,146.99L434.57,131.26L435.52,134.15L438.36,130.35L439.31,119.19L440.26,130.57L441.21,128.61L445.95,116.31L446.9,104.87L447.85,107.89L448.8,114.11L451.65,111.79L452.6,115.49L455.44,96.25L458.29,99.65L459.24,92.32L460.19,94.05L461.13,97.26L462.08,88.18L464.93,89.53L465.88,88.64L466.83,83.89L467.78,83.17L468.73,84.53L471.57,80.07L472.52,79.03L473.47,60.36L474.42,62.23L475.37,56.33L478.21,57.7L479.16,62.22L481.06,70.75L482.01,74.53L485.8,70.12L486.75,75.63L487.7,73.41L488.65,75.81L491.5,70.79L492.45,65.6L493.4,69.03L494.34,68.04L495.29,73.59L498.14,73.46L500.04,71.84L500.99,79.59L501.93,85.63L504.78,87.93L505.73,88.01L506.68,87.19L507.63,89.33L508.58,96.04L511.42,100.78L512.37,99L513.32,98.45L514.27,94.5L515.22,101.27L518.07,93.04L519.01,96.12L520.91,96.71L521.86,105.65L524.71,103.27L525.66,106.63L526.6,105.56L528.5,97.07L531.35,98.51L532.3,101.56L533.25,97.66L534.2,94.3L535.14,100.59L537.99,109.23L538.94,118.21L540.84,97.85L541.79,100.36L544.63,99.13L545.58,92.93L551.27,104.11L552.22,102.8L553.17,110.14L554.12,109.36L555.07,102L557.92,100.5L558.87,101.26L559.81,100.4L560.76,100.21L561.71,104.87L564.56,100.67L565.51,103.71L567.4,99.34L568.35,90.55L571.2,94.74L572.15,102.64L574.05,112.98L575,112.64L578.79,101.28L579.74,101.06L581.64,117.67L584.48,117.63L593.02,155.72L593.97,173.19L594.92,182.82L597.77,167.28L598.72,161.97L599.67,164.14L601.56,139.37L604.41,143.08L606.31,125.61L607.26,124.5L608.2,124.15L611.05,126.32L612,121.15L612.95,109.43L613.9,98.69L614.85,103.22L617.69,105.78L618.64,103.71L620.54,116.81L621.49,118.24L624.33,109.62L625.28,116.81L626.23,115.95L627.18,112.39L628.13,106.38L630.98,118.32L632.87,137.55L633.82,124.33L634.77,120.4L637.62,119.88L638.57,115.71L639.52,116.84L640.47,118.71L641.41,116.3L644.26,120.16L645.21,110.83L646.16,111.29L647.11,107.65L648.06,106.71L650.9,102.11L652.8,107.02L654.7,101L657.54,104.29L658.49,109.94L659.44,116.33L660.39,113.73L661.34,113.22L664.19,116.1L665.13,111.96L666.08,100.72L667.98,109.93L670.83,115.83L671.78,116.19L672.73,118.7L673.67,128.97L674.62,123.27L677.47,122.06L678.42,113.78L679.37,113.38L680.32,116.38L681.27,119.93L684.11,119.35L686.01,116.36L686.96,111.09L690.75,117.18L692.65,114.35L694.55,103.18L697.4,107.63L698.34,111.2L699.29,120.02L701.19,136.52L704.04,148.58L704.99,148.4L705.93,161.59L706.88,154.71L707.83,153.95L711.63,158.59L712.58,151.28L714.47,142.46L717.32,142.79L718.27,149.59L719.22,143.43L720.17,132.74L721.12,132.35L724.91,143.18L725.86,140.78L726.81,139.02L727.76,132.85L730.6,126.93L731.55,128.03L732.5,121.42L733.45,120.94L734.4,120.79L738.2,130.36L739.14,122.27L740.09,126.53L741.04,115.1L743.89,109.56L744.84,111.18L745.79,109.67L746.73,108.5L747.68,97.51L750.53,87.37L751.48,93.29L752.43,85.45L753.38,89.59L754.33,91.61L757.17,89.63L758.12,85.61L759.07,91.4L760.02,88.36L760.97,82.5L763.81,84.28L764.76,79.26L767.61,95.52L770.46,103.05L772.35,91.09L773.3,93.72L777.1,96.93L778.05,95.68L779,101.71L779.94,100.82L780.89,94.8L783.74,94.11L784.69,95.55L785.64,87.95L786.59,99.1L787.53,101.02L790.38,106.84L791.33,96.75L792.28,98.62L793.23,95.69L794.18,94.78L797.02,103.96L798.92,111.97L799.87,112.26L803.67,124.44L804.61,110.98L806.51,104.02L807.46,108.11L810.31,117.92L811.26,118.18L812.2,108.76L813.15,107.71L814.1,110.18L816.95,99.3L817.9,93.56L818.85,98.75L820.74,93.34L823.59,104.25L824.54,104.55L825.49,98.65L826.44,93.76L827.39,99.19L831.18,102.57L832.13,107.08L833.08,110.34L834.03,107.59L837.82,121.43L838.77,114.76L839.72,125.07L840.67,121.26L843.52,120.35L844.47,128.71L845.41,121.65L846.36,128.6L847.31,131.96L850.16,118.84L851.11,119.83L852.06,126.85L853,129.93L853.95,141.9L856.8,140.99L857.75,145.49L858.7,147.12L859.65,138.39L860.6,137L863.44,141.59L864.39,149.54L865.34,148.7L867.24,135.64L870.08,138.91L873.88,180.13L876.73,188.53L877.67,193.96L878.62,193.99L879.57,208.23L880.52,234.53L883.37,253.27L884.32,252.57L885.27,231.6L886.21,229.83L887.16,216.28L890.01,193.9L890.96,199.84L891.91,192.99L893.8,218.7L896.65,231.67L900.45,201.98L903.29,203.56L904.24,210.96L905.19,195.43L906.14,189.01L907.09,191.14L909.93,179.57L910.88,189.81L912.78,181.99L913.73,193.72L916.58,189.86L917.53,192.41L918.47,203.21L919.42,201.83L920.37,203.06L924.17,222.64L925.12,217.47L926.07,225.18L927.01,219.67L929.86,216.78L931.76,209.59L932.71,222.58L933.66,222.55L936.5,217.25L937.45,233.93L938.4,236.31L939.35,249.53L940.3,245.42L943.14,247.71L944.09,257.71L945.99,241.54L946.94,260.07L949.79,267.33L950.73,244.29L951.68,258.57L952.63,257.9L953.58,266.49L956.43,272.01L957.38,268.24L958.33,281.2L960.22,247.28L963.07,246.22L964.02,228.5L964.97,237.57L965.92,223.81L966.87,225.18L969.71,212.22L970.66,216.16L971.61,220.77L972.56,232.88L973.51,225.36L976.35,230.29L977.3,236.77L978.25,231.03L979.2,234.06L980.15,224.8L983,224.13L983.94,216.49L984.89,210.45L985.84,219.97L989.64,236.49L990.59,236.49L991.53,236.42L992.48,225.86L993.43,222.79L996.28,224.5L997.23,222.72L998.18,215.42L999.13,205.05L1000.07,207.78L1002.92,205.06L1003.87,212.58L1004.82,199.15L1006.72,196.37L1009.56,203.57L1010.51,209.55L1013.36,214.65L1016.2,223.91L1018.1,218.37L1019.05,223.31L1020,225.78" style="vector-effect: non-scaling-stroke; fill: none; stroke: rgb(25, 211, 243); stroke-opacity: 1; stroke-width: 2px; opacity: 1;"/></g><g class="points"/><g class="text"/></g><g class="trace scatter trace6430c3" style="stroke-miterlimit: 2; opacity: 1;"><g class="fills"/><g class="errorbars"/><g class="lines"><path class="js-line" d="M0,96.08L0.95,109.47L1.9,93.12L3.8,65.82L6.64,68.91L7.59,70.72L8.54,70.22L9.49,66.46L10.44,69.08L14.23,84.06L15.18,80.54L17.08,98.04L19.93,103.37L21.82,112.38L22.77,121.25L23.72,132.54L26.57,118.29L27.52,117.84L28.47,124.61L30.36,139.81L33.21,144.19L34.16,147.73L35.11,158.55L37,175.63L39.85,172.79L40.8,159.11L41.75,162.5L42.7,162.04L43.65,178.39L47.44,165.83L48.39,172.19L50.29,196.78L53.13,186.78L54.08,181.57L55.03,182.52L55.98,184.28L56.93,171.36L60.73,196.7L61.67,194.31L62.62,190.21L63.57,195.48L66.42,195.38L67.37,200.16L69.27,150.97L70.21,162.72L73.06,163.87L74.01,151.56L74.96,164.9L75.91,160.98L76.86,155.15L79.7,158.36L81.6,148.63L82.55,135.12L83.5,138.41L86.34,117.85L87.29,113.79L88.24,123.57L89.19,119.32L90.14,128.67L92.99,129.13L93.93,118.79L94.88,120L95.83,127.01L96.78,154.16L99.63,156.66L100.58,159.13L101.53,155.72L102.47,141.15L106.27,127.42L107.22,122.74L108.17,131.42L110.07,128.39L112.91,122.63L113.86,118.17L114.81,133.38L115.76,131.67L116.71,124.25L119.55,122.77L120.5,124.18L121.45,120.35L122.4,112.92L123.35,117.35L126.2,101.37L127.14,98.66L128.09,108.06L129.99,113.13L132.84,108.75L133.79,109.32L134.73,103.79L135.68,120.69L136.63,123.91L140.43,116.11L141.38,117.44L142.33,119.02L143.27,125.34L146.12,126.5L147.07,124.79L148.97,130.94L149.92,131.14L152.76,131.47L153.71,130.11L155.61,116.1L156.56,122.01L159.4,128.32L160.35,138.95L161.3,132.95L162.25,140.32L163.2,140.6L166.05,136.55L167,133.12L167.94,137.68L168.89,139.17L169.84,148.55L172.69,138.24L174.59,135.45L176.48,145.37L179.33,140.99L180.28,128.41L181.23,133.7L182.18,135.99L183.13,145.48L185.97,149.57L186.92,149.53L187.87,149L188.82,151.87L189.77,154.54L192.61,153.3L193.56,149.92L194.51,154.27L195.46,142.72L196.41,140.37L199.26,141.48L200.2,139.12L201.15,131.43L202.1,132.63L205.9,124L206.85,123.44L207.8,125.86L208.74,123.64L209.69,113.73L212.54,114.46L213.49,119.25L214.44,118.82L215.39,118.43L216.33,124.69L220.13,124.21L221.08,126.13L222.03,128.31L222.98,127.51L225.82,126.27L226.77,131.14L227.72,135.68L228.67,136.04L229.62,135.79L233.41,129.38L234.36,124.4L235.31,132.77L236.26,135.5L239.11,130.82L240.06,132.06L241,137.66L241.95,142.12L242.9,142.13L245.75,144.98L246.7,147.14L247.65,155.34L248.6,147.21L249.54,133.73L252.39,133.48L253.34,132.43L254.29,127.33L256.19,119.92L259.03,117.82L259.98,107.71L260.93,106.21L261.88,106.32L262.83,111.2L265.67,109.65L266.62,107.73L267.57,110.1L268.52,119.34L269.47,124.95L272.32,128.65L275.16,137.73L276.11,130.43L278.96,119.66L279.91,110.69L280.86,111.34L281.8,106.79L285.6,73.12L286.55,73.47L287.5,71.48L288.45,79.39L293.19,72.83L294.14,65.4L295.09,72.88L296.04,73.58L298.88,75.09L299.83,70.61L300.78,66.56L301.73,70.4L302.68,68.31L305.53,68.21L306.47,63.56L307.42,65.36L309.32,66.74L312.17,70.86L313.12,70.32L314.07,66.23L315.01,72.8L315.96,68.27L319.76,38.63L320.71,49.46L321.66,51.11L322.6,46.49L325.45,56.13L326.4,52.37L327.35,49.85L328.3,56.89L329.25,69.62L332.09,54.47L333.04,48.96L333.99,62.31L335.89,41.36L339.68,32.22L340.63,20.96L341.58,20.93L342.53,26.01L346.33,33.57L349.17,59.05L352.02,55.12L354.87,76.83L355.81,76.12L359.61,68.01L360.56,75.03L361.51,76.49L362.46,84.49L365.3,80.39L366.25,74.87L367.2,80.23L368.15,75.32L369.1,83.22L371.94,84.68L373.84,65.8L374.79,63.67L375.74,67.07L378.59,62.66L379.53,64.72L380.48,62.5L381.43,65.49L382.38,63.99L385.23,61.06L386.18,62.64L387.13,71.58L388.07,65.78L389.02,67.37L392.82,67.66L393.77,73.37L394.72,72.89L395.67,79.85L398.51,68.59L399.46,64.35L400.41,69.26L401.36,70.62L402.31,62.01L405.15,62.14L406.1,65.44L407.05,61.5L408,45.28L408.95,49.8L411.8,73.81L413.69,93.63L414.64,93.6L415.59,101.45L418.44,96.8L421.28,132.92L422.23,128.32L425.08,119.96L426.03,107.08L426.98,110.57L427.93,108.56L428.87,100.76L431.72,105.33L432.67,120.41L433.62,114.8L434.57,96.94L435.52,99.04L438.36,94.07L439.31,80.99L440.26,94.27L441.21,90.99L445.95,77.17L446.9,64.64L448.8,75.32L451.65,70.93L452.6,74.98L453.54,67.21L455.44,55.27L458.29,59.95L459.24,53.61L460.19,55.16L461.13,56.97L462.08,46.03L464.93,47.99L465.88,46.93L467.78,40.73L468.73,42.58L472.52,37.26L473.47,17.54L474.42,19.62L475.37,14.8L478.21,17.42L479.16,22.73L481.06,33.58L482.01,36.97L485.8,32.7L486.75,38.1L487.7,35.47L488.65,36.64L491.5,29.76L492.45,25.44L493.4,30.64L494.34,29.84L495.29,35.65L498.14,36.71L499.09,35L500.04,35.21L501.93,49.75L504.78,51.64L505.73,52.84L506.68,51.64L507.63,54.07L508.58,61.59L511.42,65.81L512.37,64.97L513.32,64.55L514.27,60.59L515.22,67.34L518.07,59.46L519.01,62.7L520.91,63.68L521.86,72.23L524.71,70.48L525.66,74.13L526.6,74.62L528.5,67.08L531.35,69.69L532.3,71.41L533.25,66.95L534.2,61.14L535.14,66.22L537.99,76.52L538.94,88.27L540.84,68.28L541.79,70.9L544.63,70.56L545.58,63.71L546.53,66.19L547.48,66.39L551.27,75.37L552.22,73.37L553.17,80.89L554.12,80.47L555.07,72.81L557.92,71.41L558.87,73L559.81,72.18L560.76,73.8L561.71,79.5L564.56,74.81L565.51,77.74L567.4,72.96L568.35,62.65L571.2,66.89L572.15,75.21L574.05,86.2L575,85.49L579.74,73.7L580.69,81.11L581.64,90.87L584.48,90.43L593.02,139.18L593.97,159.06L594.92,167.19L597.77,150.83L598.72,145.53L599.67,148.53L601.56,120.33L604.41,123.91L606.31,106.6L607.26,104.19L608.2,103.6L611.05,104.99L612,101.03L612.95,88.58L613.9,78.29L614.85,82.4L617.69,85.39L618.64,83.18L620.54,98.59L621.49,99.34L624.33,88.91L625.28,94.74L626.23,95.41L627.18,91.19L628.13,84.75L630.98,96.88L632.87,117L633.82,103.3L634.77,99.38L637.62,98.84L638.57,94.99L639.52,96.76L640.47,97.5L641.41,94.72L644.26,99.34L645.21,89.71L646.16,91.22L647.11,89.92L650.9,83.86L651.85,84.25L652.8,87.12L654.7,80.7L657.54,84.42L658.49,90.3L659.44,96.89L660.39,93.23L661.34,92.5L664.19,95.1L665.13,90.54L666.08,79.43L667.98,88.38L670.83,95.63L672.73,99.62L673.67,110.53L674.62,105.94L677.47,103.29L678.42,94.1L679.37,92.86L681.27,98.88L684.11,97.38L686.01,94.18L686.96,89.61L690.75,95.97L692.65,92.83L694.55,80.45L697.4,85.27L698.34,89.35L699.29,97.93L701.19,115.9L704.04,129.7L704.99,129.59L705.93,145.18L707.83,134.9L711.63,139.08L714.47,119.59L717.32,121.15L718.27,128.24L719.22,121.93L720.17,111.53L721.12,110.06L724.91,122.36L725.86,118.42L726.81,116.87L727.76,110.63L730.6,104.26L731.55,106.12L732.5,99.47L733.45,98.44L734.4,97.28L738.2,106.67L739.14,97.97L740.09,100.88L741.04,87.98L743.89,82.51L744.84,83.92L745.79,82.47L746.73,79.95L747.68,67.81L750.53,57.48L751.48,65.4L752.43,56.47L753.38,59.55L754.33,61.19L757.17,58.66L758.12,55.53L759.07,61.99L760.02,59.18L760.97,53.9L763.81,55.38L764.76,50.47L767.61,65.85L770.46,74.29L772.35,60.38L773.3,63.71L777.1,65.8L778.05,64.72L779,71.86L779.94,72.39L780.89,65.66L783.74,62.75L784.69,63.59L785.64,54.74L787.53,68.72L790.38,73.76L791.33,62.83L792.28,65.68L794.18,62.77L797.02,71.84L797.97,75.02L798.92,81.27L799.87,81.18L800.82,84.74L803.67,93.57L804.61,79.54L806.51,72.13L807.46,76.24L810.31,86.87L811.26,86.5L812.2,76.93L813.15,75.23L814.1,78.65L816.95,67.93L817.9,61.35L818.85,68.46L820.74,62.11L823.59,72.99L824.54,73.68L825.49,67.37L826.44,61.9L827.39,67.98L831.18,71.58L832.13,75.46L833.08,79.25L834.03,74.81L836.87,88.49L837.82,89.04L838.77,82.41L839.72,93.6L840.67,88.96L843.52,88.13L844.47,95.61L845.41,87.75L847.31,99.46L850.16,86.03L851.11,86.98L852.06,93.61L853,95.58L853.95,109.59L856.8,109.12L857.75,113.25L858.7,115.84L859.65,105.91L860.6,103.57L863.44,106.34L864.39,115.16L865.34,114.9L867.24,100.98L870.08,104.35L871.03,115.22L871.98,135.66L873.88,151.27L876.73,160.4L877.67,165.71L878.62,162.51L879.57,178.19L880.52,207.36L883.37,226.75L884.32,224.22L885.27,199L886.21,194.56L887.16,181.06L890.01,158.11L890.96,165.52L891.91,159.5L893.8,189.16L896.65,202.9L899.5,168.48L900.45,166.85L903.29,169.18L904.24,178.49L906.14,155.79L907.09,158.33L909.93,147.12L910.88,157.87L912.78,149.09L913.73,162.34L916.58,157.73L917.53,159.3L918.47,170.3L919.42,168.82L920.37,169.07L924.17,190.04L925.12,184.89L926.07,192.23L927.01,185.52L929.86,183.39L930.81,177.05L931.76,176.46L932.71,189.92L933.66,191.15L936.5,185.23L937.45,201.12L938.4,201.71L939.35,215.96L940.3,210.8L943.14,213.86L944.09,224.52L945.04,215.7L945.99,204.99L946.94,226.72L949.79,234.31L950.73,208.08L951.68,224.94L952.63,224.84L953.58,235.1L956.43,240.13L957.38,237.49L958.33,249.61L960.22,216.15L963.07,214.21L964.02,195.48L964.97,205.71L965.92,191.85L966.87,194.29L969.71,180.24L970.66,186.48L971.61,189.97L972.56,203.83L973.51,194.12L976.35,200.99L977.3,208.56L978.25,202.38L979.2,205.73L980.15,195.46L983,196.41L983.94,186.58L984.89,179.44L985.84,189.77L986.79,192.91L989.64,205.35L990.59,206.45L991.53,206.31L993.43,192.42L996.28,194.59L997.23,192.02L998.18,185.78L999.13,176.33L1000.07,180.05L1002.92,176.19L1003.87,184.25L1004.82,170.08L1006.72,167.04L1009.56,174.66L1010.51,179.59L1011.46,180.3L1012.41,183.86L1013.36,183.41L1016.2,192.52L1018.1,185.33L1019.05,191.17L1020,193.82" style="vector-effect: non-scaling-stroke; fill: none; stroke: rgb(255, 151, 255); stroke-opacity: 1; stroke-width: 2px; opacity: 1;"/></g><g class="points"/><g class="text"/></g></g></g><g class="overplot"/><path class="xlines-above crisp" d="M0,0" style="fill: none;"/><path class="ylines-above crisp" d="M0,0" style="fill: none;"/><g class="overlines-above"/><g class="xaxislayer-above"><g class="xtick"><text text-anchor="middle" x="0" y="369" transform="translate(220.79,0)" style="font-family: 'Open Sans', verdana, arial, sans-serif; font-size: 12px; fill: rgb(42, 63, 95); fill-opacity: 1; white-space: pre; opacity: 1;">Jul 2000</text></g><g class="xtick"><text text-anchor="middle" x="0" y="369" style="font-family: 'Open Sans', verdana, arial, sans-serif; font-size: 12px; fill: rgb(42, 63, 95); fill-opacity: 1; white-space: pre; opacity: 1;" transform="translate(395.38,0)">Jan 2001</text></g><g class="xtick"><text text-anchor="middle" x="0" y="369" style="font-family: 'Open Sans', verdana, arial, sans-serif; font-size: 12px; fill: rgb(42, 63, 95); fill-opacity: 1; white-space: pre; opacity: 1;" transform="translate(567.12,0)">Jul 2001</text></g><g class="xtick"><text text-anchor="middle" x="0" y="369" style="font-family: 'Open Sans', verdana, arial, sans-serif; font-size: 12px; fill: rgb(42, 63, 95); fill-opacity: 1; white-space: pre; opacity: 1;" transform="translate(741.7,0)">Jan 2002</text></g><g class="xtick"><text text-anchor="middle" x="0" y="369" style="font-family: 'Open Sans', verdana, arial, sans-serif; font-size: 12px; fill: rgb(42, 63, 95); fill-opacity: 1; white-space: pre; opacity: 1;" transform="translate(913.44,0)">Jul 2002</text></g></g><g class="yaxislayer-above"><g class="ytick"><text text-anchor="end" x="49" y="4.199999999999999" transform="translate(0,339.68)" style="font-family: 'Open Sans', verdana, arial, sans-serif; font-size: 12px; fill: rgb(42, 63, 95); fill-opacity: 1; white-space: pre; opacity: 1;">0.7</text></g><g class="ytick"><text text-anchor="end" x="49" y="4.199999999999999" style="font-family: 'Open Sans', verdana, arial, sans-serif; font-size: 12px; fill: rgb(42, 63, 95); fill-opacity: 1; white-space: pre; opacity: 1;" transform="translate(0,278.48)">0.8</text></g><g class="ytick"><text text-anchor="end" x="49" y="4.199999999999999" style="font-family: 'Open Sans', verdana, arial, sans-serif; font-size: 12px; fill: rgb(42, 63, 95); fill-opacity: 1; white-space: pre; opacity: 1;" transform="translate(0,217.28)">0.9</text></g><g class="ytick"><text text-anchor="end" x="49" y="4.199999999999999" style="font-family: 'Open Sans', verdana, arial, sans-serif; font-size: 12px; fill: rgb(42, 63, 95); fill-opacity: 1; white-space: pre; opacity: 1;" transform="translate(0,156.07999999999998)">1</text></g><g class="ytick"><text text-anchor="end" x="49" y="4.199999999999999" style="font-family: 'Open Sans', verdana, arial, sans-serif; font-size: 12px; fill: rgb(42, 63, 95); fill-opacity: 1; white-space: pre; opacity: 1;" transform="translate(0,94.88)">1.1</text></g></g><g class="overaxes-above"/></g></g><g class="polarlayer"/><g class="ternarylayer"/><g class="geolayer"/><g class="funnelarealayer"/><g class="pielayer"/><g class="iciclelayer"/><g class="treemaplayer"/><g class="sunburstlayer"/><g class="glimages"/><defs id="topdefs-1c5596"><g class="clips"/><clipPath id="legend1c5596"><rect width="136" height="181" x="0" y="0"/></clipPath></defs><g class="layer-above"><g class="imagelayer"/><g class="shapelayer"/></g><g class="infolayer"><g class="legend" pointer-events="all" transform="translate(1090.4,60)"><rect class="bg" shape-rendering="crispEdges" width="136" height="181" x="0" y="0" style="stroke: rgb(68, 68, 68); stroke-opacity: 1; fill: rgb(255, 255, 255); fill-opacity: 1; stroke-width: 0px;"/><g class="scrollbox" transform="" clip-path="url(#legend1c5596)"><g class="groups"><g class="traces" transform="translate(0,14.5)" style="opacity: 1;"><text class="legendtext" text-anchor="start" x="40" y="4.680000000000001" style="font-family: 'Open Sans', verdana, arial, sans-serif; font-size: 12px; fill: rgb(42, 63, 95); fill-opacity: 1; white-space: pre;">Conic γ=0.1</text><g class="layers" style="opacity: 1;"><g class="legendfill"/><g class="legendlines"><path class="js-line" d="M5,0h30" style="fill: none; stroke: rgb(99, 110, 250); stroke-opacity: 1; stroke-width: 2px;"/></g><g class="legendsymbols"><g class="legendpoints"/></g></g><rect class="legendtoggle" x="0" y="-9.5" width="130.8186798095703" height="19" style="fill: rgb(0, 0, 0); fill-opacity: 0;"/></g><g class="traces" transform="translate(0,33.5)" style="opacity: 0.5;"><text class="legendtext" text-anchor="start" x="40" y="4.680000000000001" style="font-family: 'Open Sans', verdana, arial, sans-serif; font-size: 12px; fill: rgb(42, 63, 95); fill-opacity: 1; white-space: pre;">Conic γ=3.275</text><g class="layers" style="opacity: 1;"><g class="legendfill"/><g class="legendlines"><path class="js-line" d="M5,0h30" style="fill: none; stroke: rgb(239, 85, 59); stroke-opacity: 1; stroke-width: 2px;"/></g><g class="legendsymbols"><g class="legendpoints"/></g></g><rect class="legendtoggle" x="0" y="-9.5" width="130.8186798095703" height="19" style="fill: rgb(0, 0, 0); fill-opacity: 0;"/></g><g class="traces" transform="translate(0,52.5)" style="opacity: 0.5;"><text class="legendtext" text-anchor="start" x="40" y="4.680000000000001" style="font-family: 'Open Sans', verdana, arial, sans-serif; font-size: 12px; fill: rgb(42, 63, 95); fill-opacity: 1; white-space: pre;">Conic γ=6.45</text><g class="layers" style="opacity: 1;"><g class="legendfill"/><g class="legendlines"><path class="js-line" d="M5,0h30" style="fill: none; stroke: rgb(0, 204, 150); stroke-opacity: 1; stroke-width: 2px;"/></g><g class="legendsymbols"><g class="legendpoints"/></g></g><rect class="legendtoggle" x="0" y="-9.5" width="130.8186798095703" height="19" style="fill: rgb(0, 0, 0); fill-opacity: 0;"/></g><g class="traces" transform="translate(0,71.5)" style="opacity: 0.5;"><text class="legendtext" text-anchor="start" x="40" y="4.680000000000001" style="font-family: 'Open Sans', verdana, arial, sans-serif; font-size: 12px; fill: rgb(42, 63, 95); fill-opacity: 1; white-space: pre;">Conic γ=9.625</text><g class="layers" style="opacity: 1;"><g class="legendfill"/><g class="legendlines"><path class="js-line" d="M5,0h30" style="fill: none; stroke: rgb(171, 99, 250); stroke-opacity: 1; stroke-width: 2px;"/></g><g class="legendsymbols"><g class="legendpoints"/></g></g><rect class="legendtoggle" x="0" y="-9.5" width="130.8186798095703" height="19" style="fill: rgb(0, 0, 0); fill-opacity: 0;"/></g><g class="traces" transform="translate(0,90.5)" style="opacity: 1;"><text class="legendtext" text-anchor="start" x="40" y="4.680000000000001" style="font-family: 'Open Sans', verdana, arial, sans-serif; font-size: 12px; fill: rgb(42, 63, 95); fill-opacity: 1; white-space: pre;">Conic γ=12.8</text><g class="layers" style="opacity: 1;"><g class="legendfill"/><g class="legendlines"><path class="js-line" d="M5,0h30" style="fill: none; stroke: rgb(255, 161, 90); stroke-opacity: 1; stroke-width: 2px;"/></g><g class="legendsymbols"><g class="legendpoints"/></g></g><rect class="legendtoggle" x="0" y="-9.5" width="130.8186798095703" height="19" style="fill: rgb(0, 0, 0); fill-opacity: 0;"/></g><g class="traces" transform="translate(0,109.5)" style="opacity: 1;"><text class="legendtext" text-anchor="start" x="40" y="4.680000000000001" style="font-family: 'Open Sans', verdana, arial, sans-serif; font-size: 12px; fill: rgb(42, 63, 95); fill-opacity: 1; white-space: pre;">Mean-Variance</text><g class="layers" style="opacity: 1;"><g class="legendfill"/><g class="legendlines"><path class="js-line" d="M5,0h30" style="fill: none; stroke: rgb(25, 211, 243); stroke-opacity: 1; stroke-width: 2px;"/></g><g class="legendsymbols"><g class="legendpoints"/></g></g><rect class="legendtoggle" x="0" y="-9.5" width="130.8186798095703" height="19" style="fill: rgb(0, 0, 0); fill-opacity: 0;"/></g><g class="traces" transform="translate(0,128.5)" style="opacity: 0.5;"><text class="legendtext" text-anchor="start" x="40" y="4.680000000000001" style="font-family: 'Open Sans', verdana, arial, sans-serif; font-size: 12px; fill: rgb(42, 63, 95); fill-opacity: 1; white-space: pre;">Mean-VaR</text><g class="layers" style="opacity: 1;"><g class="legendfill"/><g class="legendlines"><path class="js-line" d="M5,0h30" style="fill: none; stroke: rgb(255, 102, 146); stroke-opacity: 1; stroke-width: 2px;"/></g><g class="legendsymbols"><g class="legendpoints"/></g></g><rect class="legendtoggle" x="0" y="-9.5" width="130.8186798095703" height="19" style="fill: rgb(0, 0, 0); fill-opacity: 0;"/></g><g class="traces" transform="translate(0,147.5)" style="opacity: 0.5;"><text class="legendtext" text-anchor="start" x="40" y="4.680000000000001" style="font-family: 'Open Sans', verdana, arial, sans-serif; font-size: 12px; fill: rgb(42, 63, 95); fill-opacity: 1; white-space: pre;">Mean-CVaR 95%</text><g class="layers" style="opacity: 1;"><g class="legendfill"/><g class="legendlines"><path class="js-line" d="M5,0h30" style="fill: none; stroke: rgb(182, 232, 128); stroke-opacity: 1; stroke-width: 2px;"/></g><g class="legendsymbols"><g class="legendpoints"/></g></g><rect class="legendtoggle" x="0" y="-9.5" width="130.8186798095703" height="19" style="fill: rgb(0, 0, 0); fill-opacity: 0;"/></g><g class="traces" transform="translate(0,166.5)" style="opacity: 1;"><text class="legendtext" text-anchor="start" x="40" y="4.680000000000001" style="font-family: 'Open Sans', verdana, arial, sans-serif; font-size: 12px; fill: rgb(42, 63, 95); fill-opacity: 1; white-space: pre;">Mean-CVaR 99%</text><g class="layers" style="opacity: 1;"><g class="legendfill"/><g class="legendlines"><path class="js-line" d="M5,0h30" style="fill: none; stroke: rgb(255, 151, 255); stroke-opacity: 1; stroke-width: 2px;"/></g><g class="legendsymbols"><g class="legendpoints"/></g></g><rect class="legendtoggle" x="0" y="-9.5" width="130.8186798095703" height="19" style="fill: rgb(0, 0, 0); fill-opacity: 0;"/></g></g></g><rect class="scrollbar" rx="20" ry="3" width="0" height="0" x="0" y="0" style="fill: rgb(128, 139, 164); fill-opacity: 1;"/></g><g class="g-gtitle"/><g class="g-xtitle"/><g class="g-ytitle"/></g></svg>