<svg class="main-svg" xmlns="http://www.w3.org/2000/svg" xmlns:xlink="http://www.w3.org/1999/xlink" width="1238" height="494" style=""><rect x="0" y="0" width="1238" height="494" style="fill: rgb(255, 255, 255); fill-opacity: 1;"/><defs id="defs-00c995"><g class="clips"><clipPath id="clip00c995xyplot" class="plotclip"><rect width="1020" height="384"/></clipPath><clipPath class="axesclip" id="clip00c995x"><rect x="50" y="0" width="1020" height="494"/></clipPath><clipPath class="axesclip" id="clip00c995y"><rect x="0" y="60" width="1238" height="384"/></clipPath><clipPath class="axesclip" id="clip00c995xy"><rect x="50" y="60" width="1020" height="384"/></clipPath></g><g class="gradients"/><g class="patterns"/></defs><g class="bglayer"><rect class="bg" x="50" y="60" width="1020" height="384" style="fill: rgb(229, 236, 246); fill-opacity: 1; stroke-width: 0;"/></g><g class="layer-below"><g class="imagelayer"/><g class="shapelayer"/></g><g class="cartesianlayer"><g class="subplot xy"><g class="layer-subplot"><g class="shapelayer"/><g class="imagelayer"/></g><g class="gridlayer"><g class="x"><path class="xgrid crisp" transform="translate(220.79,0)" d="M0,60v384" style="stroke: rgb(255, 255, 255); stroke-opacity: 1; stroke-width: 1px;"/><path class="xgrid crisp" transform="translate(395.38,0)" d="M0,60v384" style="stroke: rgb(255, 255, 255); stroke-opacity: 1; stroke-width: 1px;"/><path class="xgrid crisp" transform="translate(567.12,0)" d="M0,60v384" style="stroke: rgb(255, 255, 255); stroke-opacity: 1; stroke-width: 1px;"/><path class="xgrid crisp" transform="translate(741.7,0)" d="M0,60v384" style="stroke: rgb(255, 255, 255); stroke-opacity: 1; stroke-width: 1px;"/><path class="xgrid crisp" transform="translate(913.44,0)" d="M0,60v384" style="stroke: rgb(255, 255, 255); stroke-opacity: 1; stroke-width: 1px;"/></g><g class="y"><path class="ygrid crisp" transform="translate(0,375.94)" d="M50,0h1020" style="stroke: rgb(255, 255, 255); stroke-opacity: 1; stroke-width: 1px;"/><path class="ygrid crisp" transform="translate(0,307.49)" d="M50,0h1020" style="stroke: rgb(255, 255, 255); stroke-opacity: 1; stroke-width: 1px;"/><path class="ygrid crisp" transform="translate(0,239.04)" d="M50,0h1020" style="stroke: rgb(255, 255, 255); stroke-opacity: 1; stroke-width: 1px;"/><path class="ygrid crisp" transform="translate(0,170.59)" d="M50,0h1020" style="stroke: rgb(255, 255, 255); stroke-opacity: 1; stroke-width: 1px;"/><path class="ygrid crisp" transform="translate(0,102.14)" d="M50,0h1020" style="stroke: rgb(255, 255, 255); stroke-opacity: 1; stroke-width: 1px;"/></g></g><g class="zerolinelayer"/><path class="xlines-below"/><path class="ylines-below"/><g class="overlines-below"/><g class="xaxislayer-below"/><g class="yaxislayer-below"/><g class="overaxes-below"/><g class="plot" transform="translate(50,60)" clip-path="url(#clip00c995xyplot)"><g class="scatterlayer mlayer"><g class="trace scatter trace17ff6a" style="stroke-miterlimit: 2; opacity: 1;"><g class="fills"/><g class="errorbars"/><g class="lines"><path class="js-line" d="M0,86.12L0.95,102.03L1.9,79.18L3.8,48.02L6.64,50.64L8.54,55.61L9.49,55.04L14.23,74.8L15.18,71.47L17.08,95.21L19.93,101.87L23.72,149.84L26.57,135.28L28.47,147.04L29.41,160.12L30.36,170.56L33.21,176.72L34.16,175.98L35.11,186.33L37,209.79L39.85,209.12L40.8,197.35L41.75,201.19L42.7,195.55L43.65,211.93L47.44,203.71L48.39,212.25L50.29,242.27L53.13,234.2L55.03,232.31L55.98,233.46L56.93,215.6L59.78,239.88L60.73,260.9L61.67,253.92L62.62,245.4L63.57,255.69L66.42,253.16L67.37,262.67L69.27,201.33L70.21,215.55L73.06,213.03L74.01,203.77L74.96,220.23L75.91,220.46L76.86,213.92L79.7,216.14L81.6,203.27L82.55,182.1L83.5,184.82L86.34,165.72L87.29,151.24L88.24,161.95L89.19,160.8L90.14,171.1L92.99,169.5L93.93,157.53L95.83,170.05L96.78,206.27L99.63,205.26L100.58,212.95L101.53,208.51L102.47,191.5L107.22,173.77L108.17,185.22L109.12,182.05L110.07,174.42L112.91,169.69L113.86,165.24L114.81,181.97L115.76,184.04L116.71,177.31L119.55,175.75L120.5,172.6L121.45,160.54L122.4,153.78L123.35,163.59L127.14,143.92L128.09,156.04L129.99,161.47L132.84,151.52L133.79,156.03L134.73,147.22L135.68,168.39L136.63,171.87L140.43,165.4L141.38,175.38L142.33,178.35L143.27,183.89L146.12,182.82L147.07,180.04L148.97,188.67L149.92,185.37L152.76,192.17L153.71,189.64L155.61,173.3L156.56,176.33L159.4,181.4L160.35,199.3L161.3,190.49L162.25,196.43L163.2,196.25L166.05,194.15L167,188.43L167.94,191.82L168.89,194.22L169.84,206.77L174.59,187.67L175.53,200.39L176.48,201.93L179.33,198.44L180.28,185.46L181.23,189.96L182.18,192.49L183.13,204.88L185.97,211.94L186.92,209.22L187.87,208.56L188.82,212.47L189.77,218.03L192.61,215.1L193.56,205.07L194.51,207.5L196.41,187.55L199.26,193.87L200.2,190.52L201.15,180.48L202.1,181.68L203.05,180.71L205.9,171.54L206.85,171.66L207.8,180.93L208.74,177.93L209.69,167.17L212.54,169.72L214.44,175.78L215.39,178.02L216.33,183.4L219.18,184.26L220.13,184.85L221.08,189.83L222.03,192.8L222.98,191.99L225.82,192.73L226.77,197.71L228.67,204.19L229.62,203.24L233.41,195.2L234.36,189.43L236.26,201.24L239.11,198.91L240.06,198.24L241,204.12L241.95,210.13L242.9,207.53L245.75,209.47L246.7,213.56L247.65,221.91L248.6,209.88L249.54,189.4L252.39,192.1L253.34,191.48L254.29,187.64L256.19,175.51L259.03,177.32L260.93,160.59L261.88,156.44L262.83,158.93L265.67,157.22L266.62,155.67L267.57,156.3L269.47,178.18L272.32,180.86L273.27,180.6L274.21,187.46L275.16,194.03L276.11,186.53L279.91,163.04L280.86,162.89L285.6,113.45L286.55,117.64L287.5,116.72L288.45,122.09L289.4,121.96L292.24,118.24L293.19,118.21L294.14,106.93L295.09,114.74L296.04,112.75L299.83,102.4L300.78,98.11L301.73,105.44L302.68,98.29L305.53,92.94L306.47,94.39L307.42,87.28L309.32,93.48L312.17,103.41L313.12,103.65L314.07,95.84L315.01,102.76L315.96,100.13L318.81,72.27L319.76,67.38L320.71,80.68L322.6,83.96L325.45,102.9L326.4,91.76L327.35,91.66L328.3,93.81L329.25,112.65L333.04,95.26L333.99,109.26L335.89,83.08L339.68,74.49L340.63,56.28L341.58,57.28L342.53,61.67L346.33,64.14L348.22,85.7L349.17,94.31L352.02,83.17L352.97,91.43L353.92,98.44L354.87,115.24L355.81,115.52L359.61,106.04L360.56,112.68L361.51,109.83L362.46,119.39L365.3,107.79L366.25,106.13L367.2,114.4L368.15,110.11L369.1,119.62L371.94,123.09L372.89,109.8L374.79,97.09L375.74,102.53L379.53,98.32L380.48,95.22L381.43,101.13L382.38,100.62L386.18,97.29L387.13,108.49L388.07,102.14L389.02,104.77L392.82,104.45L393.77,111.4L394.72,109.34L395.67,117.81L399.46,101.98L400.41,105.85L401.36,105.77L402.31,97.41L405.15,100.24L406.1,105.84L407.05,107.7L408,85.34L408.95,89.96L411.8,110.05L413.69,135.26L414.64,136.58L415.59,145.34L418.44,140.98L421.28,175.03L422.23,177.43L425.08,170.01L426.03,156.5L426.98,158.43L427.93,150.88L428.87,145.66L431.72,147.46L432.67,161.57L433.62,151.06L434.57,135.68L435.52,134.37L438.36,132.21L439.31,123.21L440.26,140.64L441.21,141.17L445.95,123.4L446.9,115.88L447.85,119.01L448.8,125.26L451.65,120.71L452.6,125.79L454.49,110.42L455.44,107.53L458.29,108.65L459.24,95.04L461.13,99.95L462.08,91.27L464.93,91.32L465.88,85.52L466.83,80.55L467.78,80.83L472.52,73.71L473.47,51.93L474.42,54.68L475.37,45.94L478.21,50.65L479.16,57.39L481.06,62.28L482.01,64.81L485.8,56.98L486.75,63.67L487.7,60.23L488.65,64.26L491.5,58.4L492.45,48.95L493.4,51.12L494.34,47.32L495.29,53.88L498.14,53.67L499.09,53.43L500.04,51.77L501.93,70.91L504.78,72.27L505.73,72.29L506.68,74.92L507.63,79.12L508.58,90.74L511.42,94.35L512.37,88.66L514.27,78.83L515.22,87.43L518.07,80.17L519.01,84.64L520.91,85.33L521.86,94.26L524.71,88.89L525.66,89.6L528.5,78.8L531.35,73.73L532.3,81.89L533.25,75.29L534.2,73.36L535.14,84.56L537.99,97.28L538.94,107.33L540.84,79.89L541.79,87.21L544.63,83.65L545.58,74.63L547.48,80.01L548.43,81.5L552.22,86.2L553.17,93.61L554.12,91.86L555.07,82.7L558.87,79.7L559.81,80.21L560.76,76.66L561.71,81.9L564.56,76.06L565.51,77.26L566.46,77.17L567.4,73.64L568.35,61.75L571.2,69.48L574.05,91.08L575,92.85L578.79,76.4L579.74,75.88L581.64,95.86L584.48,95.42L591.13,130.58L592.07,124.27L593.02,122.55L593.97,147.34L594.92,163.66L597.77,148.59L598.72,138.58L599.67,142.37L601.56,113.23L604.41,119.23L606.31,92.02L607.26,89L608.2,85.6L611.05,86.13L612,83.97L612.95,69.85L613.9,54.71L614.85,61.9L617.69,65.67L618.64,63.66L620.54,80.07L621.49,78.22L624.33,68.22L625.28,77.94L627.18,74.69L628.13,68.66L630.98,83L631.93,97.26L632.87,107.6L633.82,90.21L634.77,83.16L637.62,82.89L638.57,78.66L639.52,84.4L640.47,90.16L641.41,88.34L644.26,91.76L645.21,78.59L646.16,80.06L647.11,73.83L648.06,69.7L650.9,65.22L652.8,71.5L654.7,65.98L657.54,72.17L658.49,81.86L659.44,85.71L660.39,80.82L661.34,76.9L664.19,77.63L665.13,74.85L666.08,61.36L667.98,73.97L670.83,80.57L671.78,81.54L672.73,84.38L673.67,97.58L674.62,88.92L677.47,89.93L678.42,80.12L681.27,92.34L684.11,93.3L686.01,89.66L686.96,83.04L687.91,87.98L690.75,93.35L692.65,90.14L693.6,83.75L694.55,79.79L697.4,83.83L698.34,86.71L699.29,99.88L701.19,121.88L704.04,136.43L704.99,140.17L705.93,154.92L706.88,145.97L707.83,144.84L711.63,150.56L712.58,139.72L714.47,128.4L717.32,126.19L718.27,129.98L719.22,124.4L721.12,104.18L723.96,111.03L724.91,115.53L725.86,110.14L726.81,107.27L727.76,99.69L730.6,91.89L731.55,91.62L732.5,81.87L733.45,82.81L734.4,79.89L738.2,92.92L739.14,82.8L740.09,90.74L741.04,74.94L743.89,72.74L744.84,73.78L745.79,72.13L746.73,72.4L747.68,58.87L750.53,52.63L751.48,62.94L752.43,55.52L753.38,61.7L754.33,65.76L757.17,67.22L758.12,60.88L759.07,65.21L760.97,55.97L763.81,58.35L764.76,52.99L765.71,58.58L766.66,56.28L767.61,68.05L770.46,76.58L771.4,66.36L772.35,62.49L773.3,65.19L777.1,69.59L778.05,67.51L779,75.29L779.94,74.7L780.89,66.76L783.74,66.09L784.69,67.89L785.64,57.03L786.59,65.66L787.53,66.27L790.38,73.9L791.33,63.17L792.28,70.2L793.23,69L794.18,67.89L797.02,77.74L798.92,89.16L799.87,88.98L803.67,102.21L804.61,83.78L806.51,76.53L807.46,82.82L810.31,94.27L811.26,93.09L813.15,82.24L814.1,83.8L817.9,65.44L818.85,72.09L819.8,70.83L820.74,66.99L823.59,81.51L824.54,81.27L826.44,68.34L827.39,74.64L831.18,78.24L832.13,84.56L833.08,86.48L834.03,84.15L836.87,98.68L837.82,98.39L838.77,87.89L839.72,100.87L840.67,93.71L843.52,90.93L844.47,99.55L845.41,87.93L847.31,100.31L850.16,87.84L851.11,91.08L852.06,98.03L853,100.65L853.95,118.53L856.8,117.83L857.75,122.72L858.7,123.61L859.65,113.43L860.6,109.89L863.44,116.72L864.39,127.75L865.34,124.18L867.24,110.23L870.08,113.67L873.88,173.46L876.73,182.77L877.67,190.02L878.62,191.43L880.52,246.42L883.37,266.06L884.32,260.17L885.27,236.64L886.21,233.24L887.16,213.93L890.01,190.68L890.96,201.53L891.91,193.81L892.86,211.66L893.8,222.34L896.65,235.32L898.55,221.48L899.5,210.93L900.45,210.87L903.29,212.63L904.24,221.13L905.19,201.64L906.14,195.02L907.09,194.98L909.93,182.16L910.88,192.52L912.78,182.92L913.73,197.52L916.58,194.07L917.53,196.7L918.47,210.75L919.42,206.8L920.37,208.61L924.17,229.58L925.12,222.64L926.07,231.51L927.01,223.58L929.86,218.66L931.76,206.53L932.71,221.97L936.5,214.37L937.45,235.65L938.4,236.21L939.35,253.89L940.3,248.37L943.14,250.24L944.09,263.85L945.04,255.03L945.99,244.33L946.94,267.49L949.79,279.04L950.73,249.45L951.68,265.4L952.63,261.94L953.58,270.91L956.43,274.43L957.38,270.18L958.33,285.46L960.22,241.73L963.07,241.24L964.02,223.19L964.97,232.91L965.92,217.67L966.87,217.94L969.71,201.69L970.66,207.69L971.61,214.48L972.56,228.8L973.51,216.93L976.35,228.97L977.3,237.17L978.25,230.22L979.2,235.62L980.15,225.52L983,226.74L983.94,213.54L984.89,205.09L985.84,215.51L989.64,236.1L990.59,234.1L991.53,233.13L992.48,221.65L993.43,215.72L996.28,217.6L997.23,217.48L998.18,211.52L999.13,202.88L1000.07,205.95L1002.92,202.47L1003.87,210.54L1004.82,194L1006.72,190.57L1010.51,209.71L1011.46,209.62L1012.41,211.37L1013.36,214.84L1016.2,225.02L1017.15,220.29L1018.1,217.74L1019.05,226.23L1020,228.57" style="vector-effect: non-scaling-stroke; fill: none; stroke: rgb(25, 211, 243); stroke-opacity: 1; stroke-width: 2px; opacity: 1;"/></g><g class="points"/><g class="text"/></g><g class="trace scatter trace6403bb" style="stroke-miterlimit: 2; opacity: 1;"><g class="fills"/><g class="errorbars"/><g class="lines"><path class="js-line" d="M0,86.12L0.95,102.56L1.9,82.42L3.8,45.2L6.64,48.51L7.59,51.27L8.54,50.79L9.49,48.62L10.44,52.42L14.23,67L15.18,65.71L17.08,92.09L19.93,99.49L22.77,137.16L23.72,146.42L26.57,129.9L27.52,137.03L28.47,143.58L29.41,156.85L30.36,168.6L33.21,173.59L34.16,172.46L35.11,183.74L37,211.39L39.85,210.23L40.8,197.28L41.75,200.02L42.7,194.19L43.65,209.95L47.44,201.72L48.39,210.87L50.29,241.21L53.13,232.01L55.03,229.07L55.98,229.28L56.93,215.32L59.78,238.65L60.73,263.23L61.67,259.21L62.62,248.46L63.57,262.15L66.42,258.12L67.37,264.31L69.27,208.56L70.21,223.44L73.06,223.19L74.01,215.06L74.96,230.55L75.91,232.67L76.86,226.63L79.7,230.38L81.6,214.15L82.55,193.91L83.5,196.35L86.34,177.67L87.29,160.1L88.24,169.96L89.19,169.08L90.14,178.55L92.99,176.75L93.93,166.73L95.83,176.34L96.78,212.38L99.63,209.55L100.58,218.57L101.53,212.38L102.47,193.14L106.27,177.63L107.22,179.75L108.17,191.72L109.12,187.92L110.07,183.94L112.91,177.75L113.86,174.65L114.81,189.69L115.76,192.02L116.71,185.14L119.55,183.72L120.5,181.4L122.4,160.13L123.35,169.11L126.2,155.4L127.14,146.69L129.04,162.35L129.99,163.45L132.84,152.09L133.79,155.42L134.73,146.3L135.68,166.45L136.63,167.23L140.43,164.49L141.38,174.84L142.33,176.18L143.27,187.07L146.12,186.41L147.07,180.82L148.02,185.47L148.97,193.68L149.92,190.71L152.76,196.95L153.71,195.13L155.61,183.24L156.56,187.82L159.4,191.64L160.35,209.81L161.3,198.97L162.25,207.43L163.2,207.31L166.05,199.56L167,196.72L167.94,201.44L168.89,205.42L169.84,213.73L174.59,199.2L175.53,208.24L176.48,209.72L179.33,209.57L180.28,199.44L181.23,205.8L183.13,220.89L185.97,225.66L186.92,220.81L187.87,220.9L188.82,225.24L189.77,233.21L192.61,229.3L193.56,218.57L194.51,219.61L195.46,207.33L196.41,200.59L199.26,207.27L200.2,203.22L201.15,192.56L202.1,195.03L203.05,193.74L205.9,184.12L206.85,186.02L207.8,196.06L208.74,192.49L209.69,180.4L212.54,181.64L213.49,185.1L214.44,183.21L215.39,185.02L216.33,190.52L220.13,187.18L221.08,192.4L222.03,196.86L222.98,195.77L225.82,198.43L226.77,202.51L228.67,209.56L229.62,209.29L233.41,202.78L234.36,196.33L236.26,208.35L239.11,203.99L240.06,200.43L241,207.7L241.95,212.53L242.9,205.81L245.75,207.13L246.7,210.32L247.65,217.91L248.6,206.29L249.54,185.46L252.39,186.67L253.34,186.16L254.29,181.02L255.24,170.76L256.19,169.15L259.03,168L259.98,161.38L261.88,152.5L262.83,154.03L265.67,152.4L266.62,149.53L267.57,145.51L268.52,156.45L269.47,167.1L272.32,170.82L273.27,169.7L274.21,175.3L275.16,180.92L276.11,165.81L279.91,146.49L280.86,145.09L285.6,99.39L286.55,108.43L287.5,107.29L288.45,113.48L289.4,115.5L292.24,111.59L293.19,112.52L294.14,99.47L295.09,105.17L296.04,100.08L299.83,90.72L300.78,86.19L301.73,90.1L302.68,80.43L306.47,69.84L307.42,62.6L313.12,84.48L314.07,78.7L315.96,88.85L318.81,63.77L319.76,63.58L320.71,77.31L321.66,73.96L322.6,79.1L325.45,99.09L326.4,84.14L327.35,82.76L328.3,83.54L329.25,100.47L332.09,87.78L333.04,84.47L333.99,95.25L335.89,74.56L339.68,63.8L340.63,45.88L341.58,47.58L342.53,49.54L346.33,45.59L348.22,82.16L349.17,87.23L352.02,74.29L352.97,78.95L353.92,85.33L354.87,99.81L355.81,101.17L359.61,94.73L360.56,101.26L361.51,100.86L362.46,106.86L365.3,94.71L366.25,94.68L367.2,104.13L368.15,100.39L369.1,109.96L371.94,113.87L372.89,100.98L374.79,89.54L375.74,94.19L379.53,87.99L380.48,85.27L381.43,89.62L382.38,87.14L385.23,85.69L386.18,83.88L387.13,95.94L388.07,92.36L389.02,90.97L392.82,89.47L393.77,93.04L394.72,91.24L395.67,98.51L398.51,93.3L399.46,89.07L400.41,94.33L401.36,95.29L402.31,86.65L405.15,88.21L406.1,93.38L407.05,97.15L408,74.19L408.95,76.43L411.8,94.69L413.69,118.79L414.64,120.85L415.59,131.37L418.44,128.54L421.28,162.52L422.23,168.6L425.08,158.64L426.03,145.02L426.98,147.48L427.93,139.09L428.87,133.2L431.72,136.21L432.67,150.83L433.62,140.59L435.52,122.62L438.36,120.77L439.31,115.08L440.26,133.11L441.21,132.35L445,117.27L446.9,111.86L447.85,114.52L448.8,120.95L451.65,113.68L452.6,118.24L453.54,107.93L455.44,100.3L458.29,99.33L459.24,84.4L460.19,90.34L461.13,91.92L462.08,84.32L464.93,82.83L465.88,77.86L466.83,71.05L467.78,72.79L468.73,69.09L471.57,66.07L472.52,65.13L473.47,47.17L474.42,50.24L475.37,39.29L479.16,52.72L480.11,56.64L481.06,55.36L482.01,57.35L485.8,48.7L486.75,53.37L487.7,50.8L488.65,55.86L491.5,50.1L492.45,40.87L493.4,43.84L494.34,40.37L495.29,46.94L498.14,45.56L500.04,42.7L500.99,52.2L501.93,63.59L504.78,63.89L505.73,65.11L506.68,68.99L507.63,72.48L508.58,83.51L511.42,86.32L512.37,80.52L514.27,75.02L515.22,83.48L518.07,79.43L519.01,82.52L520.91,83.54L521.86,90.74L525.66,85.31L526.6,80.75L528.5,76.91L531.35,70.5L532.3,75.64L533.25,71.19L534.2,68.69L535.14,78.58L537.99,89.08L538.94,96.54L540.84,71.72L541.79,78.62L544.63,74.53L545.58,66.6L548.43,73.55L551.27,76.23L552.22,75.84L553.17,82.94L554.12,81.2L555.07,72.99L558.87,69.92L559.81,70.1L560.76,63.53L561.71,68.77L564.56,62.81L565.51,64.43L566.46,63.26L567.4,60.1L568.35,50.41L571.2,57.94L574.05,79.49L575,82.87L579.74,65.02L580.69,70.37L581.64,82.17L584.48,78.77L591.13,109L592.07,102.52L593.02,102.22L593.97,128.52L594.92,147.77L597.77,138.39L598.72,127.84L599.67,132.54L601.56,102.18L604.41,106.6L607.26,71.98L608.2,68.46L612,66.93L612.95,52.48L613.9,41.27L614.85,47.79L617.69,51.25L618.64,49.37L620.54,68.06L621.49,66.16L624.33,56.53L625.28,68.13L627.18,65.54L628.13,57.4L630.98,72.44L631.93,86.52L632.87,95.18L633.82,78.39L634.77,72.82L637.62,72.51L638.57,68.96L639.52,75.4L640.47,82.31L641.41,79.14L644.26,81.91L645.21,69.79L646.16,75.99L647.11,73.81L648.06,67.89L650.9,66.28L652.8,70.44L654.7,65.45L657.54,71.2L658.49,81.92L659.44,84.74L660.39,76.81L661.34,73.96L664.19,72.33L665.13,68.86L666.08,57.86L667.03,69.89L667.98,70.08L670.83,74.66L671.78,78.85L672.73,80.15L673.67,91.05L674.62,82.35L677.47,82.81L678.42,75.33L679.37,75.59L681.27,83.19L684.11,82.74L686.01,78.12L686.96,71.69L687.91,76.94L690.75,82.3L692.65,79.76L693.6,74.23L694.55,72.79L697.4,75.64L698.34,76.19L699.29,87.72L701.19,106.65L704.04,116.11L704.99,118.32L705.93,132.02L706.88,123.17L707.83,123.45L711.63,128.65L712.58,117.19L714.47,109.7L717.32,106.42L718.27,110.04L719.22,102.07L721.12,82.1L723.96,88.42L724.91,92.25L725.86,87.51L726.81,86.46L727.76,81.16L731.55,73.48L732.5,64.77L733.45,65.14L734.4,61.92L738.2,73.01L739.14,62.54L740.09,71.1L741.04,53.78L743.89,50.52L744.84,51.38L746.73,50.59L747.68,36.44L750.53,30.87L751.48,40.41L752.43,33.3L753.38,38.87L754.33,41.77L757.17,43.05L758.12,36.02L759.07,40.05L760.97,31.8L763.81,34.36L764.76,28.75L765.71,33.8L766.66,29.08L767.61,40.95L770.46,50.79L771.4,41.51L772.35,36.27L773.3,38.96L777.1,42.61L778.05,39.64L779,47.67L779.94,47.66L780.89,42.17L783.74,39.73L784.69,43.1L785.64,32.41L787.53,39.33L790.38,43.93L791.33,35.6L792.28,44.97L794.18,42.01L797.02,49.26L798.92,60.98L799.87,59.43L800.82,63.73L803.67,70.17L805.56,47.81L806.51,46.46L807.46,52.48L810.31,64.29L811.26,63.33L812.2,58.14L813.15,54.1L814.1,55.01L817.9,36.83L818.85,43.91L820.74,40.03L823.59,53.64L824.54,53.3L825.49,43.1L826.44,40.28L827.39,47.45L831.18,51.51L832.13,55.06L833.08,57.3L834.03,53.69L836.87,67.24L837.82,66.66L838.77,55.32L839.72,66.12L840.67,59.18L843.52,55.64L844.47,63.66L845.41,51.48L847.31,63.62L850.16,51.24L853,62.59L853.95,81.03L856.8,82.16L857.75,89.93L858.7,91.34L859.65,82.86L860.6,79.84L863.44,86.88L864.39,97.77L865.34,96.3L867.24,81.42L870.08,83.77L873.88,145.18L876.73,155.47L877.67,163.45L878.62,164.88L879.57,184.28L880.52,219.86L883.37,237.73L884.32,227.98L885.27,202.08L886.21,200.57L887.16,179.89L890.01,156.9L890.96,166.79L891.91,160.05L893.8,189.12L896.65,199.99L897.6,195.62L898.55,186.3L899.5,174.6L900.45,175.18L903.29,176.55L904.24,186.86L906.14,158.9L907.09,158.79L909.93,146.87L910.88,157.77L912.78,150.32L913.73,166.06L916.58,163.1L917.53,164.67L918.47,177.06L919.42,173.34L920.37,174.66L924.17,196.07L925.12,189.42L926.07,195.13L927.01,189.01L929.86,184.78L931.76,173.7L932.71,188.67L933.66,187.25L936.5,179.74L937.45,204.98L938.4,205.21L939.35,222.44L940.3,218.66L943.14,219.29L944.09,232.72L945.04,225.4L945.99,210.41L946.94,235.45L949.79,247.75L950.73,219.1L951.68,234.12L952.63,230.85L953.58,241.59L956.43,240.67L957.38,239.25L958.33,252.83L959.27,233.66L960.22,210.86L963.07,209.57L964.02,193.51L964.97,201.24L965.92,185.55L966.87,185.51L969.71,169.53L970.66,175.71L971.61,179.67L972.56,193L973.51,182.86L976.35,195.93L977.3,202.63L978.25,194.65L979.2,200.28L980.15,190.77L983,192.82L983.94,176.39L984.89,169.44L985.84,178.07L989.64,199.01L990.59,199.84L991.53,199.34L992.48,189.32L993.43,181.59L996.28,182.5L997.23,181.52L998.18,176.31L999.13,172.41L1000.07,175.9L1002.92,173.17L1003.87,182.84L1004.82,167.97L1006.72,165.4L1010.51,180.92L1011.46,178.47L1012.41,178.95L1013.36,182.59L1016.2,192.26L1017.15,186.82L1018.1,185.06L1019.05,192.02L1020,194.21" style="vector-effect: non-scaling-stroke; fill: none; stroke: rgb(255, 102, 146); stroke-opacity: 1; stroke-width: 2px; opacity: 1;"/></g><g class="points"/><g class="text"/></g><g class="trace scatter trace6dcf17" style="stroke-miterlimit: 2; opacity: 1;"><g class="fills"/><g class="errorbars"/><g class="lines"><path class="js-line" d="M0,86.12L0.95,102.6L1.9,82.35L3.8,45.26L6.64,48.7L7.59,51.65L8.54,51.25L9.49,49.05L10.44,53.01L14.23,67.61L15.18,66.03L17.08,92.3L19.93,99.75L22.77,137.42L23.72,146.6L26.57,130.13L27.52,137.1L28.47,143.71L29.41,157.01L30.36,168.78L33.21,173.78L34.16,172.64L35.11,183.88L37,211.51L39.85,210.45L40.8,197.65L41.75,200.38L42.7,194.66L43.65,210.33L47.44,202.12L48.39,211.23L50.29,241.62L53.13,232.4L55.03,229.48L55.98,229.6L56.93,215.8L59.78,239.15L60.73,263.21L61.67,259.14L62.62,248.3L63.57,262.13L66.42,258.19L67.37,264.37L69.27,208.56L70.21,223.31L73.06,223.22L74.01,215.08L74.96,230.64L75.91,232.75L76.86,226.63L79.7,230.41L81.6,214.08L82.55,193.77L83.5,196.32L86.34,177.6L87.29,160.27L88.24,170.02L89.19,169.05L90.14,178.66L92.99,176.86L93.93,166.93L95.83,176.51L96.78,212.45L99.63,210.04L100.58,218.95L101.53,212.65L102.47,193.46L106.27,178.05L107.22,180.21L108.17,192L109.12,188.35L110.07,184.49L112.91,178.17L113.86,175L114.81,190.12L115.76,192.46L116.71,185.67L119.55,184.1L120.5,181.88L122.4,160.62L123.35,169.54L126.2,155.7L127.14,147.04L129.04,162.81L129.99,163.82L132.84,152.47L133.79,155.69L134.73,146.65L135.68,166.83L136.63,167.67L140.43,165.08L141.38,175.39L142.33,176.8L143.27,187.68L146.12,186.94L147.07,181.32L148.02,185.83L148.97,193.84L149.92,190.99L152.76,197.26L153.71,195.33L155.61,183.33L156.56,187.9L159.4,191.55L160.35,209.73L161.3,198.81L162.25,207.27L163.2,207.16L166.05,199.24L167,196.24L167.94,201.11L168.89,204.94L169.84,213.32L174.59,198.68L175.53,207.72L176.48,209.05L179.33,208.91L180.28,198.82L181.23,205.26L183.13,220.54L185.97,225.37L186.92,220.49L187.87,220.59L188.82,224.88L189.77,232.83L192.61,228.93L193.56,218.24L194.51,219.22L195.46,206.79L196.41,199.87L199.26,206.71L200.2,202.66L201.15,191.86L202.1,194.4L203.05,193.01L205.9,183.34L206.85,185.12L207.8,195.28L208.74,191.72L209.69,179.54L212.54,180.76L213.49,184.49L214.44,182.56L215.39,184.43L216.33,190.02L220.13,186.76L221.08,192.02L222.03,196.5L222.98,195.36L225.82,198.08L226.77,202.23L228.67,209.32L229.62,209.02L233.41,202.41L234.36,195.95L236.26,207.7L239.11,203.35L240.06,199.77L241,207.11L241.95,211.98L242.9,205.17L245.75,206.48L246.7,209.77L247.65,217.48L248.6,205.71L249.54,184.44L252.39,185.65L253.34,185.12L254.29,179.83L255.24,169.68L256.19,167.94L259.03,166.96L259.98,160.44L261.88,151.71L262.83,153.27L265.67,151.59L266.62,148.55L267.57,144.38L268.52,155.91L269.47,166.66L272.32,170.19L273.27,169.05L274.21,174.63L275.16,180.21L276.11,165.3L279.91,146.11L280.86,144.68L285.6,99.05L286.55,107.91L287.5,106.63L288.45,112.91L289.4,115.09L292.24,111.24L293.19,112.14L294.14,98.92L295.09,104.62L296.04,99.56L299.83,90.18L300.78,85.63L301.73,89.5L302.68,79.92L306.47,69.3L307.42,62.12L313.12,83.76L314.07,77.99L315.96,88.12L318.81,62.92L319.76,62.57L320.71,76.07L321.66,72.73L322.6,77.8L325.45,98.05L326.4,83.01L327.35,81.46L328.3,82.23L329.25,99.15L332.09,86.45L333.04,83.26L333.99,93.9L335.89,73.32L339.68,62.59L340.63,44.52L341.58,46.12L342.53,48.01L346.33,43.81L348.22,80.67L349.17,85.7L352.02,72.65L352.97,77.22L353.92,83.54L354.87,98.12L355.81,99.33L359.61,92.95L360.56,99.62L361.51,99.31L362.46,105.4L365.3,92.88L366.25,92.91L367.2,102.41L368.15,98.5L369.1,108.17L371.94,112.04L372.89,99.24L374.79,87.74L375.74,92.44L379.53,86.22L380.48,83.41L381.43,87.86L382.38,85.28L385.23,83.81L386.18,81.85L387.13,94.08L388.07,90.76L389.02,89.32L392.82,87.56L393.77,91.32L394.72,89.46L395.67,96.67L398.51,91.3L399.46,86.97L400.41,92.27L401.36,93.27L402.31,84.57L405.15,86.23L406.1,91.45L407.05,95.22L408,72.18L408.95,74.13L411.8,92.39L413.69,116.72L414.64,118.68L415.59,129.21L418.44,126.41L421.28,160.47L422.23,166.64L425.08,156.55L426.03,142.97L426.98,145.37L427.93,136.89L428.87,130.95L431.72,134L432.67,148.57L433.62,138.16L435.52,120.12L438.36,118.28L439.31,112.57L440.26,130.9L441.21,130.28L445,114.99L446.9,109.76L447.85,112.46L448.8,118.89L451.65,111.35L452.6,115.84L453.54,105.5L455.44,97.93L458.29,96.98L459.24,81.96L460.19,88.13L461.13,89.6L462.08,81.96L464.93,80.6L465.88,75.6L466.83,68.75L467.78,70.49L468.73,66.71L471.57,63.66L472.52,62.72L473.47,44.87L474.42,47.94L475.37,36.96L479.16,50.52L480.11,54.34L481.06,53.01L482.01,54.96L485.8,46.25L486.75,50.81L487.7,48.29L488.65,53.44L491.5,47.66L492.45,38.39L493.4,41.44L494.34,38.08L495.29,44.56L498.14,43.09L500.04,40.11L500.99,49.44L501.93,60.87L504.78,61.26L505.73,62.38L506.68,66.31L507.63,69.76L508.58,80.85L511.42,83.69L512.37,78L514.27,72.5L515.22,80.84L518.07,76.85L519.01,80.03L520.91,81.17L521.86,88.35L525.66,82.91L526.6,78.34L528.5,74.63L531.35,68.1L532.3,73.36L533.25,68.74L534.2,66.32L535.14,76.32L537.99,86.85L538.94,94.36L540.84,69.41L541.79,76.35L544.63,72.25L545.58,64.28L548.43,71.38L551.27,74.03L552.22,73.62L553.17,80.74L554.12,79.02L555.07,70.87L558.87,67.75L559.81,67.96L560.76,61.38L561.71,66.51L564.56,60.53L565.51,62.14L566.46,60.99L567.4,57.88L568.35,48.16L571.2,55.74L574.05,77.29L575,80.79L579.74,62.84L580.69,68.27L581.64,80.18L584.48,76.69L591.13,106.47L592.07,99.85L593.02,99.42L593.97,125.6L594.92,145.01L597.77,135.8L598.72,125.25L599.67,129.78L601.56,99.14L604.41,103.54L607.26,68.78L608.2,65.28L612,63.78L612.95,49.27L613.9,38.02L614.85,44.63L617.69,48.02L618.64,46.11L620.54,64.84L621.49,62.94L624.33,53.29L625.28,64.86L627.18,62.35L628.13,54.23L630.98,69.28L631.93,83.49L632.87,92.32L633.82,75.56L634.77,69.91L637.62,69.62L638.57,66.13L639.52,72.63L640.47,79.64L641.41,76.43L644.26,79.16L645.21,67.06L646.16,73.29L647.11,71.14L648.06,65.24L650.9,63.67L652.8,67.81L654.7,62.82L657.54,68.78L658.49,79.62L659.44,82.38L660.39,74.38L661.34,71.38L664.19,69.64L665.13,66.18L666.08,55.24L667.03,67.36L667.98,67.48L670.83,72.11L671.78,76.4L672.73,77.74L673.67,88.65L674.62,79.76L677.47,80.19L678.42,72.81L679.37,73.05L681.27,80.58L684.11,80.11L686.01,75.41L686.96,69.02L687.91,74.29L690.75,79.67L692.65,77.25L693.6,71.89L694.55,70.49L697.4,73.28L698.34,73.69L699.29,85.29L701.19,104.13L704.04,113.53L704.99,115.67L705.93,129.34L706.88,120.63L707.83,120.92L711.63,126.05L712.58,114.49L714.47,107.28L717.32,103.97L718.27,107.51L719.22,99.54L721.12,79.65L723.96,85.91L724.91,89.83L725.86,84.99L726.81,83.97L727.76,78.56L731.55,70.84L732.5,62.1L733.45,62.48L734.4,59.25L738.2,70.29L739.14,59.86L740.09,68.34L741.04,51.02L743.89,47.9L744.84,48.71L746.73,47.96L747.68,33.93L750.53,28.41L751.48,38.05L752.43,30.91L753.38,36.49L754.33,39.47L757.17,40.76L758.12,33.65L759.07,37.56L760.97,29.41L763.81,32L764.76,26.4L765.71,31.38L766.66,26.6L767.61,38.49L770.46,48.36L771.4,39.04L772.35,33.78L773.3,36.5L777.1,40.21L778.05,37.21L779,45.21L779.94,45.24L780.89,39.74L783.74,37.27L784.69,40.59L785.64,30.04L787.53,36.85L790.38,41.4L791.33,33.07L792.28,42.52L794.18,39.38L797.02,46.66L798.92,58.38L799.87,56.83L800.82,61.15L803.67,67.51L805.56,45.19L806.51,43.81L807.46,49.79L810.31,61.68L811.26,60.75L812.2,55.72L813.15,51.65L814.1,52.49L817.9,34.32L818.85,41.56L820.74,37.69L823.59,51.26L824.54,50.94L825.49,40.74L826.44,37.99L827.39,45.1L831.18,49.21L832.13,52.63L833.08,54.96L834.03,51.37L836.87,64.91L837.82,64.29L838.77,53L839.72,63.78L840.67,56.53L843.52,52.8L844.47,60.79L845.41,48.71L847.31,60.84L850.16,48.48L853,59.7L853.95,78.28L856.8,79.48L857.75,87.27L858.7,88.71L859.65,80.29L860.6,77.17L863.44,84.22L864.39,95.07L865.34,93.51L867.24,78.78L870.08,81.08L873.88,143.05L876.73,153.38L877.67,161.29L878.62,162.79L879.57,182.4L880.52,217.97L883.37,235.92L884.32,226.11L885.27,200.11L886.21,198.74L887.16,177.9L890.01,154.94L890.96,164.93L891.91,158.14L893.8,187.16L896.65,197.88L897.6,193.6L898.55,184.32L899.5,172.72L900.45,173.18L903.29,174.59L904.24,184.8L906.14,156.7L907.09,156.63L909.93,144.65L910.88,155.41L912.78,147.86L913.73,163.63L916.58,160.63L917.53,162.16L918.47,174.51L919.42,170.72L920.37,172.04L924.17,193.49L925.12,186.89L926.07,192.59L927.01,186.55L929.86,182.24L931.76,171.16L932.71,186.13L933.66,184.42L936.5,176.92L937.45,202.32L938.4,202.47L939.35,219.79L940.3,216.11L943.14,216.74L944.09,230.27L945.04,223.21L945.99,208.09L946.94,233.28L949.79,245.62L950.73,216.92L951.68,231.97L952.63,228.59L953.58,239.25L956.43,238.31L957.38,236.82L958.33,250.46L959.27,231.27L960.22,208.45L963.07,207.04L964.02,190.85L964.97,198.42L965.92,182.79L966.87,182.71L969.71,166.84L970.66,172.93L971.61,177L972.56,190.23L973.51,180.15L976.35,193.25L977.3,200.02L978.25,192.08L979.2,197.81L980.15,188.35L983,190.58L983.94,174L984.89,167.15L985.84,175.75L989.64,196.6L990.59,197.61L991.53,197.13L992.48,187.04L993.43,179.26L996.28,180.11L997.23,179.4L998.18,174.26L999.13,170.57L1000.07,174.01L1002.92,171.32L1003.87,180.98L1004.82,166.07L1006.72,163.56L1010.51,178.93L1011.46,176.38L1012.41,176.8L1013.36,180.4L1016.2,190.04L1017.15,184.55L1018.1,182.86L1019.05,189.8L1020,191.97" style="vector-effect: non-scaling-stroke; fill: none; stroke: rgb(182, 232, 128); stroke-opacity: 1; stroke-width: 2px; opacity: 1;"/></g><g class="points"/><g class="text"/></g><g class="trace scatter trace4c24cf" style="stroke-miterlimit: 2; opacity: 1;"><g class="fills"/><g class="errorbars"/><g class="lines"><path class="js-line" d="M0,86.12L0.95,102.35L1.9,81.91L3.8,45.1L6.64,49.43L7.59,51.91L8.54,51.26L9.49,49.01L10.44,53.19L14.23,66.57L15.18,64.62L17.08,88.56L19.93,97.09L23.72,144.15L26.57,128.02L28.47,141.93L29.41,155.8L30.36,166.31L33.21,171.22L34.16,170.69L35.11,182.43L37,210.5L39.85,209.34L40.8,197.03L41.75,200.12L42.7,195.19L43.65,211.18L47.44,203.19L48.39,212.17L50.29,242.31L53.13,233.17L55.03,230.43L55.98,230.52L56.93,218.05L59.78,241.07L60.73,261.53L61.67,257.01L62.62,245.63L63.57,259.03L66.42,256.72L67.37,262.69L69.27,205.78L70.21,219.9L73.06,220.69L74.01,211.86L74.96,227.75L75.91,229.82L76.86,222.83L79.7,227.06L81.6,209.82L82.55,188.73L83.5,191.81L86.34,173.18L87.29,156.6L88.24,167.15L89.19,167.43L90.14,177.08L92.99,176.54L93.93,165.8L95.83,174.99L96.78,209.45L99.63,208.52L100.58,216.41L101.53,209.7L102.47,190.36L106.27,175.35L107.22,175.6L108.17,186.42L109.12,183.31L110.07,180.02L112.91,174.38L113.86,171.86L114.81,186.52L115.76,188.67L116.71,182.16L119.55,179.72L120.5,177.65L122.4,156.03L123.35,164.76L127.14,142.91L128.09,154.69L129.04,159.02L129.99,159.48L132.84,148.06L133.79,150.7L134.73,140.91L135.68,160.88L136.63,161.21L140.43,159.34L141.38,169.38L142.33,170.61L143.27,181.34L146.12,180.85L147.07,174.92L148.02,178.16L148.97,185.53L149.92,182.95L152.76,189.22L153.71,186.61L155.61,174.14L156.56,178.95L159.4,182.57L160.35,201.33L161.3,190.01L162.25,197.82L163.2,196.95L166.05,188.22L167,185.84L167.94,190.25L168.89,193.83L169.84,202.87L174.59,188.39L175.53,196.9L176.48,197.96L179.33,198.19L180.28,188.68L181.23,194.9L183.13,210.69L185.97,215.72L186.92,210.3L187.87,210.11L188.82,213.99L189.77,222.14L192.61,218.25L193.56,207.57L194.51,207.61L195.46,193.84L196.41,186.36L199.26,193.75L200.2,189.56L201.15,177.97L202.1,180.35L203.05,178.68L205.9,169.19L206.85,170.49L207.8,181.07L208.74,177.2L209.69,164.58L212.54,165.45L213.49,170.78L214.44,169.03L215.39,171.3L216.33,177L220.13,174.23L221.08,179.53L222.03,183.8L222.98,182.83L225.82,185.17L226.77,189.42L228.67,197.94L229.62,197.24L233.41,190.3L234.36,184.01L236.26,195.02L239.11,190.61L240.06,186.37L241,193.91L241.95,198.72L242.9,192.2L245.75,193.09L246.7,195.9L247.65,204.82L248.6,192.98L249.54,169.77L252.39,170.54L253.34,169.11L254.29,163.59L255.24,154.21L256.19,152.6L259.03,151.3L259.98,145.9L261.88,137.45L262.83,139.43L265.67,137.78L266.62,134.44L267.57,129.89L268.52,143.26L269.47,153.88L272.32,156.3L273.27,155.22L274.21,160.99L275.16,165.98L276.11,150.91L279.91,131.98L280.86,129.99L285.6,85.08L286.55,92.61L287.5,90.73L288.45,97.5L289.4,100.73L292.24,96.43L293.19,97.15L294.14,83.88L295.09,88.42L296.04,83.74L299.83,74.39L300.78,69.45L301.73,72.82L302.68,64.05L306.47,54.58L307.42,47.06L313.12,66.87L314.07,60.76L315.96,71.9L318.81,47.46L319.76,47.26L320.71,59.59L321.66,55.26L322.6,59.76L325.45,80.56L326.4,66.08L327.35,64.59L328.3,66.16L329.25,84.21L332.09,70.86L333.04,68.35L333.99,79.16L335.89,59.14L339.68,47.54L340.63,29.82L341.58,30.93L342.53,32.2L346.33,28.15L348.22,67.7L349.17,72.88L352.02,60.07L352.97,63.67L353.92,69.84L354.87,84.73L355.81,85.86L359.61,79.52L360.56,85.98L361.51,86.38L362.46,92.79L365.3,79.95L366.25,79.56L367.2,88.98L368.15,84.19L369.1,94.38L371.94,98.3L372.89,86.24L374.79,75.65L375.74,79.65L380.48,69.69L381.43,73.49L382.38,71.03L385.23,69.09L386.18,66.91L387.13,79.52L389.02,75.8L392.82,73.86L393.77,79.37L394.72,77.95L395.67,84.55L398.51,78.24L399.46,73.48L400.41,79.29L401.36,80.49L402.31,71.91L405.15,74.48L406.1,79.97L407.05,83.5L408,60.72L408.95,62.12L411.8,80.85L413.69,105.66L414.64,107.13L415.59,117.98L418.44,115.49L421.28,149.83L422.23,155.84L425.08,145.37L426.03,131.23L426.98,133.61L427.93,125.55L428.87,119.12L431.72,122.29L432.67,137.25L433.62,126.46L435.52,108.43L438.36,106.5L439.31,100.73L440.26,119.59L441.21,118.44L445,102.85L446.9,97.69L447.85,100.21L448.8,106.79L451.65,98.51L452.6,102.54L453.54,91.67L455.44,84.72L458.29,83.89L459.24,69.27L460.19,76.59L461.13,78.18L462.08,70.45L464.93,69.09L465.88,64.42L466.83,57.52L467.78,59.21L468.73,55.17L471.57,51.95L472.52,50.89L473.47,32.86L474.42,35.75L475.37,24.89L479.16,37.78L480.11,41.41L481.06,39.95L482.01,42.26L485.8,33.78L486.75,38.08L487.7,36.15L488.65,41.04L491.5,35.5L492.45,25.91L493.4,29.69L494.34,26.97L495.29,32.91L498.14,31.3L500.04,27.86L500.99,37.2L501.93,48.84L504.78,49.53L505.73,50.86L506.68,54.93L507.63,58.58L508.58,70.24L511.42,73.27L512.37,67.8L514.27,62.62L515.22,71.12L518.07,67.44L519.01,70.43L520.91,72.18L521.86,79.99L525.66,75.27L526.6,71.04L528.5,66.72L531.35,60.02L532.3,65.97L533.25,61.57L534.2,59.21L535.14,69.89L537.99,80.48L538.94,87.71L540.84,62.8L541.79,69.34L544.63,65.44L545.58,57.32L548.43,64.79L551.27,67.66L552.22,66.85L553.17,73.7L554.12,72.07L555.07,64.32L559.81,60.71L560.76,54.2L561.71,59L564.56,52.75L565.51,54.65L566.46,53.6L567.4,50.65L568.35,41.13L571.2,48.9L572.15,58.12L575,74.07L578.79,58.78L579.74,55.74L580.69,61.75L581.64,74.28L584.48,70.41L591.13,99.49L592.07,94.04L593.02,94.11L593.97,119.48L594.92,138.34L597.77,129.28L598.72,119.58L599.67,124.1L601.56,93.28L604.41,97.79L607.26,62.2L608.2,59.14L612,56.86L612.95,42.61L613.9,30.73L614.85,37.56L617.69,40.98L618.64,38.98L620.54,58.21L621.49,56.18L624.33,46.28L625.28,57.88L627.18,55.34L628.13,47.09L630.98,62.13L631.93,77.38L632.87,86.79L633.82,70.44L634.77,64.33L637.62,63.79L638.57,60.58L639.52,67.29L640.47,74.24L641.41,71.45L644.26,74.13L645.21,62.17L646.16,68.5L647.11,66.88L648.06,61.21L650.9,59.76L652.8,63.86L654.7,58.64L657.54,64.81L658.49,75.83L659.44,78.58L660.39,70.35L661.34,67.37L664.19,65.21L665.13,61.4L666.08,50.72L667.03,62.88L667.98,62.56L670.83,67.54L671.78,72.32L672.73,74.51L673.67,85.46L674.62,75.58L677.47,76.5L678.42,69.71L679.37,69.02L681.27,75.17L684.11,74.56L686.01,69.59L686.96,63.45L687.91,68.28L690.75,73.78L692.65,72.05L693.6,67.71L694.55,66.44L697.4,69.3L698.34,69.76L699.29,81.06L701.19,98.76L704.04,107.79L704.99,109.31L705.93,122.87L706.88,114.59L707.83,114.78L711.63,119.43L712.58,108.2L714.47,101.28L717.32,97.85L718.27,101.33L719.22,93.4L721.12,74.16L723.96,80.48L724.91,82.97L725.86,78.36L726.81,77.97L727.76,72.48L731.55,64.9L732.5,55.32L733.45,55.28L734.4,52.65L738.2,63.36L739.14,52.79L740.09,60.68L741.04,43.18L743.89,39.85L744.84,40.69L746.73,39.42L747.68,25.67L750.53,20.66L751.48,29.85L752.43,22.82L753.38,28.85L754.33,31.76L757.17,33.28L758.12,25.85L759.07,29.22L760.02,26.71L760.97,21.81L763.81,24.58L764.76,19.53L765.71,24.44L766.66,19.2L767.61,30.99L770.46,40.98L772.35,26.16L773.3,28.75L777.1,32.44L778.05,29.25L779,37.32L779.94,37.01L780.89,31.53L783.74,28.72L784.69,31.85L785.64,21.7L787.53,28.36L790.38,32.8L791.33,24.46L792.28,34.39L794.18,30.23L797.02,37.07L798.92,48.88L799.87,47.1L800.82,51.84L803.67,57.43L805.56,35.19L806.51,34.18L807.46,39.92L810.31,51.96L811.26,51.25L812.2,46.34L813.15,42.68L814.1,43.45L817.9,25.36L818.85,32.4L820.74,29.53L823.59,43.25L824.54,43.61L825.49,33.45L826.44,30.97L827.39,37.74L831.18,42.31L832.13,44.99L833.08,47.55L834.03,43.8L836.87,57.8L837.82,58L838.77,46.57L839.72,57.26L840.67,49.57L843.52,45.47L844.47,53.64L845.41,42.74L847.31,54.3L850.16,42.39L853,52.5L853.95,70.84L856.8,72.11L857.75,79.96L858.7,81.19L859.65,73.27L860.6,70.07L863.44,76.55L864.39,87.6L865.34,86.31L867.24,72.07L870.08,74.36L873.88,137.81L876.73,147.89L878.62,157.87L879.57,178.19L880.52,212.45L883.37,231L884.32,221.14L885.27,195.56L886.21,195.09L887.16,173.37L890.01,149.83L890.96,159.84L891.91,152.23L892.86,174.82L893.8,181.41L896.65,192.46L897.6,188.5L898.55,178.89L899.5,167.39L900.45,167.22L903.29,168.42L904.24,178.61L906.14,149.72L907.09,149.81L909.93,138.36L910.88,148.39L912.78,139.72L913.73,155.16L916.58,152.33L917.53,154.54L918.47,167.01L919.42,163.61L920.37,164.72L924.17,186.56L925.12,179.95L926.07,185.8L927.01,179.76L929.86,174.93L931.76,163.96L932.71,178.9L933.66,177.04L936.5,168.96L937.45,195.65L938.4,195.41L939.35,213.34L940.3,210.32L943.14,210.91L944.09,223.76L945.04,217.07L945.99,201.77L946.94,226.9L949.79,239.72L950.73,211.03L951.68,225.78L952.63,222.1L953.58,232.71L956.43,232.37L957.38,229.55L958.33,243.23L959.27,223.73L960.22,201.16L963.07,199.2L964.02,182.46L964.97,191.37L965.92,176.08L966.87,175.95L969.71,160.49L970.66,165.95L971.61,169.98L972.56,182.68L973.51,173.22L976.35,186.12L977.3,192.57L978.25,184.24L979.2,190.21L980.15,180.98L983,183.62L983.94,167.33L984.89,160.55L985.84,169.09L989.64,189.49L990.59,190.89L991.53,190.85L992.48,180.97L993.43,172.5L996.28,173.02L997.23,172.76L998.18,168.28L999.13,164.89L1000.07,167.71L1002.92,165.53L1003.87,175.11L1004.82,159.94L1006.72,157.59L1010.51,172.39L1011.46,169.94L1012.41,169.95L1013.36,173.68L1016.2,183.31L1017.15,177.6L1018.1,176.24L1019.05,182.98L1020,185.26" style="vector-effect: non-scaling-stroke; fill: none; stroke: rgb(255, 151, 255); stroke-opacity: 1; stroke-width: 2px; opacity: 1;"/></g><g class="points"/><g class="text"/></g><g class="trace scatter tracedb9bee" style="stroke-miterlimit: 2; opacity: 1;"><g class="fills"/><g class="errorbars"/><g class="lines"><path class="js-line" d="M0,86.12L0.95,110.73L1.9,102.19L2.85,93.25L3.8,74.82L6.64,71.42L7.59,75.61L9.49,70.72L10.44,61.1L15.18,77.09L16.13,86.54L19.93,110.03L20.87,108.54L22.77,108.67L23.72,128.47L27.52,107.78L28.47,110.37L29.41,109.67L30.36,113.07L33.21,117.04L34.16,113.49L36.06,134.98L37,149.94L39.85,143.46L40.8,129.89L42.7,143.82L43.65,164.02L47.44,158.17L48.39,163.59L50.29,188.48L53.13,176.4L54.08,170.26L55.03,169.6L55.98,167.75L56.93,153.91L59.78,167.37L60.73,193L61.67,188.86L62.62,178.31L63.57,183.91L66.42,182.66L67.37,191.96L68.32,170.05L69.27,135.88L70.21,138.3L73.06,132.48L74.01,116.93L74.96,119.71L75.91,102.39L76.86,102.87L79.7,108.82L80.65,114.96L81.6,109.31L83.5,115.94L86.34,95.4L87.29,99.31L88.24,108.27L89.19,102.77L90.14,102.96L92.99,97.82L93.93,90.94L95.83,115.82L96.78,158.11L99.63,139.17L100.58,126.51L101.53,132.84L102.47,121.27L106.27,117.02L107.22,102.05L109.12,118.25L110.07,128.8L112.91,123.47L113.86,129L115.76,150.81L116.71,139.49L119.55,137.72L120.5,142.3L121.45,153.87L122.4,141.67L126.2,123.75L127.14,115.07L128.09,126.35L129.04,125.84L129.99,136.13L132.84,141.9L133.79,150.14L134.73,142.4L135.68,156.87L136.63,158.56L140.43,142.96L141.38,143.29L143.27,124.64L146.12,123.23L147.07,128.69L148.02,123.4L149.92,137.01L152.76,140.42L155.61,130.11L156.56,148.29L159.4,140.86L160.35,149.25L161.3,144.97L162.25,153.3L163.2,151.34L166.05,141.87L167,144.51L167.94,142.91L168.89,151.8L169.84,148.38L172.69,140.66L174.59,145.94L175.53,146.08L176.48,135.51L179.33,134.78L180.28,129.26L181.23,125.39L182.18,125.05L183.13,123.41L185.97,123.99L187.87,131.39L188.82,121.28L189.77,128.83L192.61,132.14L193.56,131.13L194.51,143.69L195.46,138.92L196.41,144.05L199.26,143.31L200.2,137.5L202.1,130.68L203.05,126.49L205.9,119.69L206.85,112.17L207.8,117.04L208.74,116.84L209.69,108.69L212.54,98.53L214.44,110.02L215.39,106.78L216.33,107.41L219.18,105.13L220.13,101.07L221.08,100.69L222.98,97.4L225.82,93.28L226.77,95.87L227.72,103.54L229.62,94.25L233.41,92.75L234.36,89.33L235.31,92.8L236.26,95.49L239.11,97.21L240.06,94.63L241,98.12L242.9,115.59L245.75,123.7L246.7,125.01L247.65,131.95L249.54,121.04L252.39,123.72L253.34,135.83L254.29,136.03L255.24,122.63L256.19,134.49L259.98,129.77L260.93,125.34L261.88,129.42L262.83,138.21L265.67,140.13L266.62,143.15L267.57,150.72L268.52,176.67L269.47,165.89L272.32,162.7L274.21,180.75L275.16,169.25L276.11,163.53L278.96,160.44L279.91,152.14L280.86,156.69L281.8,153.02L282.75,138.61L286.55,112.57L287.5,117.47L288.45,118.77L289.4,123.05L292.24,112.15L293.19,113.86L295.09,121.94L296.04,137.77L298.88,143.64L299.83,132.42L300.78,130.61L301.73,134.14L302.68,135.93L305.53,147.37L306.47,145.19L307.42,151.71L309.32,146.85L312.17,141.66L313.12,144.3L314.07,135.98L315.01,150.67L315.96,153.47L318.81,140.64L319.76,117.52L320.71,133.56L321.66,136.78L322.6,130.24L325.45,129.36L327.35,124.66L328.3,132.84L329.25,149.27L332.09,134.86L333.04,139.04L333.99,157.21L335.89,135.54L339.68,131.64L341.58,119.57L342.53,125.1L346.33,134.81L347.27,114.3L348.22,116.59L349.17,133.73L352.02,136.51L352.97,139.85L354.87,137.32L355.81,143.08L359.61,134.37L360.56,139.04L361.51,132.61L362.46,138.82L365.3,139.46L366.25,134.56L367.2,134.76L368.15,129.11L369.1,133.87L371.94,130.98L372.89,118.72L373.84,118.3L374.79,111.71L375.74,119.89L378.59,112.93L379.53,113.51L380.48,114.24L381.43,118.77L382.38,125.55L385.23,114.23L386.18,117.21L387.13,124.59L388.07,118.05L389.02,124.29L392.82,129.01L393.77,143L394.72,142.98L395.67,148.79L398.51,135.06L399.46,135.45L401.36,148.23L402.31,147.12L406.1,138.57L407.05,129.1L408,120.29L408.95,134.92L411.8,164.79L412.74,159.14L413.69,180.86L414.64,176.9L415.59,191.13L418.44,181.84L421.28,220.83L422.23,212.94L425.08,200.43L426.03,182.63L426.98,193.73L427.93,192.8L428.87,187.34L431.72,194.24L432.67,214.25L433.62,212.21L434.57,184.65L435.52,193.34L438.36,189.64L439.31,172.01L440.26,178.12L441.21,170.35L445,168.19L445.95,164.21L446.9,136.89L447.85,131.56L448.8,139.35L451.65,142.61L452.6,147.94L453.54,136.25L455.44,123.59L458.29,128.73L459.24,117.55L460.19,119.03L461.13,124.51L462.08,113.93L464.93,115.03L465.88,118.56L466.83,119.7L467.78,116.72L468.73,122.82L471.57,118.99L472.52,119.29L473.47,95.81L475.37,89.94L478.21,87.46L479.16,92.98L480.11,103.37L481.06,102.21L482.01,110.22L485.8,107.91L486.75,119.31L487.7,116.62L488.65,111.25L491.5,106.38L492.45,98.55L493.4,105.78L494.34,104.38L495.29,112.16L498.14,115.92L499.09,114.12L500.04,119.38L501.93,136.35L504.78,134.86L505.73,138.2L506.68,134.73L507.63,130.07L508.58,137.66L513.32,149.28L514.27,140.28L515.22,144.65L518.07,138.4L519.01,139.95L520.91,146.19L521.86,161.75L524.71,158.55L525.66,167.02L526.6,162.54L528.5,142.14L531.35,146.72L532.3,137.53L533.25,140.04L534.2,137.29L535.14,139.57L537.99,149.99L538.94,162.54L540.84,147.85L541.79,150.52L544.63,151.54L545.58,143.25L546.53,144.13L547.48,141.31L551.27,151.57L552.22,147.64L553.17,158.95L554.12,158.6L555.07,150.55L557.92,150.57L558.87,150.83L559.81,155.36L560.76,152.17L561.71,162.56L564.56,157.13L565.51,167.12L566.46,160.09L567.4,163.36L568.35,150.08L571.2,152.87L574.05,184.55L575,182.48L578.79,179.21L579.74,176.76L581.64,206.02L584.48,206.05L591.13,252.92L592.07,254.11L593.02,263.98L593.97,290.19L594.92,299.8L597.77,274.61L598.72,270.77L599.67,277.11L601.56,257.93L604.41,258.66L606.31,239.02L607.26,243.33L608.2,239.29L611.05,242.84L612,243.9L612.95,231.01L613.9,219.4L614.85,223.93L617.69,223.7L618.64,221.19L620.54,236.32L621.49,233.52L624.33,221.68L625.28,224.21L626.23,223.83L627.18,215.81L628.13,210.18L630.98,229.05L632.87,242.35L633.82,229.43L634.77,225.35L637.62,217.3L638.57,207.03L639.52,209.55L641.41,205.87L644.26,209.55L646.16,191.12L647.11,187.78L648.06,188.15L650.9,180.65L652.8,190.36L654.7,181.8L657.54,180.22L658.49,187.76L659.44,198.77L660.39,190.72L661.34,189.2L664.19,195.2L666.08,171.22L667.03,172.26L671.78,186.68L672.73,186.24L673.67,195.03L674.62,191.97L677.47,186.44L678.42,179.15L679.37,174.22L680.32,180.06L681.27,176.62L684.11,176.62L687.91,169.66L690.75,177.57L692.65,174.02L693.6,167.26L694.55,161.26L697.4,165.55L701.19,179.9L704.04,186.47L704.99,184.23L705.93,198.74L706.88,189.31L707.83,194.66L711.63,198.63L712.58,197.46L714.47,189.99L717.32,188.23L718.27,205.17L719.22,195.27L720.17,184.52L721.12,185.39L723.96,200.46L724.91,200.57L726.81,204.68L727.76,196.55L730.6,186.93L731.55,188.37L732.5,179.75L733.45,178.91L734.4,185.68L738.2,196.49L739.14,183.07L740.09,190.36L741.04,181.22L743.89,169.07L744.84,171.15L745.79,170.31L746.73,171.78L747.68,153.79L750.53,138.87L751.48,149.37L752.43,139.73L753.38,143.08L754.33,139.85L757.17,137.2L758.12,135.76L759.07,144.69L760.02,143.64L760.97,137.48L763.81,139.49L764.76,135.56L765.71,144.71L766.66,146.2L770.46,159.76L771.4,154.85L772.35,149.82L773.3,151.39L777.1,154.21L778.05,157.57L779,165.47L779.94,162.94L780.89,160.45L783.74,161.99L784.69,164.76L785.64,152.91L786.59,166.99L787.53,165.98L790.38,172.63L791.33,158.42L792.28,163.93L793.23,164.99L794.18,161.44L797.02,169.7L798.92,176.96L799.87,176.64L800.82,185.15L803.67,191.37L805.56,174.96L806.51,172.75L810.31,192.18L811.26,190.23L812.2,169.33L813.15,176.48L814.1,183.15L816.95,171.54L817.9,158.63L818.85,162.36L820.74,154.87L823.59,163.33L824.54,171.81L825.49,168.23L826.44,164.25L827.39,171.9L831.18,180.3L832.13,184.31L833.08,185.09L834.03,184.16L837.82,200.41L838.77,192.95L839.72,204.74L840.67,207.13L843.52,203.31L844.47,212.09L845.41,205.21L846.36,213.08L847.31,215.03L850.16,200.44L851.11,199.16L852.06,209.05L853.95,230.12L856.8,228.2L857.75,238.81L858.7,239.27L859.65,229.02L860.6,230.84L863.44,239.98L864.39,246.96L865.34,243.73L867.24,221.52L870.08,228.68L871.03,240.92L871.98,260.26L872.93,261.08L873.88,269.09L876.73,272.19L877.67,283.56L878.62,278.81L879.57,287.91L880.52,314.63L884.32,336.32L885.27,302.85L886.21,303.19L887.16,297.85L890.01,267.22L890.96,269.4L891.91,265.52L892.86,281.27L893.8,294.51L896.65,312.96L899.5,267.21L900.45,264.92L903.29,268.79L904.24,282.92L906.14,259.94L907.09,262.69L909.93,248.12L910.88,256.25L912.78,243.82L913.73,256.19L916.58,253.04L917.53,259.51L918.47,268.43L919.42,270.01L920.37,270.53L924.17,294.86L925.12,286.84L926.07,296.52L927.01,286.7L929.86,280.39L930.81,274.69L931.76,276.16L933.66,294.54L936.5,289.92L937.45,301.74L938.4,304.14L939.35,319.89L940.3,316.9L943.14,324.7L944.09,337.63L945.99,316.14L946.94,336.38L949.79,343.88L950.73,320.13L953.58,348.23L956.43,355.45L957.38,350.07L958.33,364.8L960.22,326.19L963.07,324.34L964.02,298.44L964.97,313.48L965.92,297.12L966.87,293.88L969.71,279.1L970.66,285.13L971.61,282.11L972.56,294.22L973.51,285.55L976.35,290.75L977.3,290.69L978.25,286.69L979.2,288.77L980.15,280.51L983,276.82L983.94,269.52L984.89,263.17L985.84,275.82L989.64,291.37L990.59,289.52L991.53,288.67L992.48,278.83L993.43,276.3L996.28,282.64L997.23,283.44L998.18,273.3L999.13,258.09L1000.07,260.85L1002.92,257.8L1003.87,269.64L1004.82,252.17L1006.72,254.61L1009.56,256.9L1010.51,265.09L1011.46,265.44L1012.41,273.28L1013.36,271.74L1016.2,283.54L1017.15,276.64L1018.1,275.62L1019.05,279.09L1020,286.26" style="vector-effect: non-scaling-stroke; fill: none; stroke: rgb(254, 203, 82); stroke-opacity: 1; stroke-width: 2px; opacity: 1;"/></g><g class="points"/><g class="text"/></g></g></g><g class="overplot"/><path class="xlines-above crisp" d="M0,0" style="fill: none;"/><path class="ylines-above crisp" d="M0,0" style="fill: none;"/><g class="overlines-above"/><g class="xaxislayer-above"><g class="xtick"><text text-anchor="middle" x="0" y="457" transform="translate(220.79,0)" style="font-family: 'Open Sans', verdana, arial, sans-serif; font-size: 12px; fill: rgb(42, 63, 95); fill-opacity: 1; white-space: pre; opacity: 1;">Jul 2000</text></g><g class="xtick"><text text-anchor="middle" x="0" y="457" style="font-family: 'Open Sans', verdana, arial, sans-serif; font-size: 12px; fill: rgb(42, 63, 95); fill-opacity: 1; white-space: pre; opacity: 1;" transform="translate(395.38,0)">Jan 2001</text></g><g class="xtick"><text text-anchor="middle" x="0" y="457" style="font-family: 'Open Sans', verdana, arial, sans-serif; font-size: 12px; fill: rgb(42, 63, 95); fill-opacity: 1; white-space: pre; opacity: 1;" transform="translate(567.12,0)">Jul 2001</text></g><g class="xtick"><text text-anchor="middle" x="0" y="457" style="font-family: 'Open Sans', verdana, arial, sans-serif; font-size: 12px; fill: rgb(42, 63, 95); fill-opacity: 1; white-space: pre; opacity: 1;" transform="translate(741.7,0)">Jan 2002</text></g><g class="xtick"><text text-anchor="middle" x="0" y="457" style="font-family: 'Open Sans', verdana, arial, sans-serif; font-size: 12px; fill: rgb(42, 63, 95); fill-opacity: 1; white-space: pre; opacity: 1;" transform="translate(913.44,0)">Jul 2002</text></g></g><g class="yaxislayer-above"><g class="ytick"><text text-anchor="end" x="49" y="4.199999999999999" transform="translate(0,375.94)" style="font-family: 'Open Sans', verdana, arial, sans-serif; font-size: 12px; fill: rgb(42, 63, 95); fill-opacity: 1; white-space: pre; opacity: 1;">8k</text></g><g class="ytick"><text text-anchor="end" x="49" y="4.199999999999999" style="font-family: 'Open Sans', verdana, arial, sans-serif; font-size: 12px; fill: rgb(42, 63, 95); fill-opacity: 1; white-space: pre; opacity: 1;" transform="translate(0,307.49)">9k</text></g><g class="ytick"><text text-anchor="end" x="49" y="4.199999999999999" style="font-family: 'Open Sans', verdana, arial, sans-serif; font-size: 12px; fill: rgb(42, 63, 95); fill-opacity: 1; white-space: pre; opacity: 1;" transform="translate(0,239.04)">10k</text></g><g class="ytick"><text text-anchor="end" x="49" y="4.199999999999999" style="font-family: 'Open Sans', verdana, arial, sans-serif; font-size: 12px; fill: rgb(42, 63, 95); fill-opacity: 1; white-space: pre; opacity: 1;" transform="translate(0,170.59)">11k</text></g><g class="ytick"><text text-anchor="end" x="49" y="4.199999999999999" style="font-family: 'Open Sans', verdana, arial, sans-serif; font-size: 12px; fill: rgb(42, 63, 95); fill-opacity: 1; white-space: pre; opacity: 1;" transform="translate(0,102.14)">12k</text></g></g><g class="overaxes-above"/></g></g><g class="polarlayer"/><g class="ternarylayer"/><g class="geolayer"/><g class="funnelarealayer"/><g class="pielayer"/><g class="iciclelayer"/><g class="treemaplayer"/><g class="sunburstlayer"/><g class="glimages"/><defs id="topdefs-00c995"><g class="clips"/><clipPath id="legend00c995"><rect width="136" height="200" x="0" y="0"/></clipPath></defs><g class="layer-above"><g class="imagelayer"/><g class="shapelayer"/></g><g class="infolayer"><g class="legend" pointer-events="all" transform="translate(1090.4,60)"><rect class="bg" shape-rendering="crispEdges" width="136" height="200" x="0" y="0" style="stroke: rgb(68, 68, 68); stroke-opacity: 1; fill: rgb(255, 255, 255); fill-opacity: 1; stroke-width: 0px;"/><g class="scrollbox" transform="" clip-path="url(#legend00c995)"><g class="groups"><g class="traces" transform="translate(0,14.5)" style="opacity: 0.5;"><text class="legendtext" text-anchor="start" x="40" y="4.680000000000001" style="font-family: 'Open Sans', verdana, arial, sans-serif; font-size: 12px; fill: rgb(42, 63, 95); fill-opacity: 1; white-space: pre;">Conic =0.1</text><g class="layers" style="opacity: 1;"><g class="legendfill"/><g class="legendlines"><path class="js-line" d="M5,0h30" style="fill: none; stroke: rgb(99, 110, 250); stroke-opacity: 1; stroke-width: 2px;"/></g><g class="legendsymbols"><g class="legendpoints"/></g></g><rect class="legendtoggle" x="0" y="-9.5" width="130.8186798095703" height="19" style="fill: rgb(0, 0, 0); fill-opacity: 0;"/></g><g class="traces" transform="translate(0,33.5)" style="opacity: 0.5;"><text class="legendtext" text-anchor="start" x="40" y="4.680000000000001" style="font-family: 'Open Sans', verdana, arial, sans-serif; font-size: 12px; fill: rgb(42, 63, 95); fill-opacity: 1; white-space: pre;">Conic =3.275</text><g class="layers" style="opacity: 1;"><g class="legendfill"/><g class="legendlines"><path class="js-line" d="M5,0h30" style="fill: none; stroke: rgb(239, 85, 59); stroke-opacity: 1; stroke-width: 2px;"/></g><g class="legendsymbols"><g class="legendpoints"/></g></g><rect class="legendtoggle" x="0" y="-9.5" width="130.8186798095703" height="19" style="fill: rgb(0, 0, 0); fill-opacity: 0;"/></g><g class="traces" transform="translate(0,52.5)" style="opacity: 0.5;"><text class="legendtext" text-anchor="start" x="40" y="4.680000000000001" style="font-family: 'Open Sans', verdana, arial, sans-serif; font-size: 12px; fill: rgb(42, 63, 95); fill-opacity: 1; white-space: pre;">Conic =6.45</text><g class="layers" style="opacity: 1;"><g class="legendfill"/><g class="legendlines"><path class="js-line" d="M5,0h30" style="fill: none; stroke: rgb(0, 204, 150); stroke-opacity: 1; stroke-width: 2px;"/></g><g class="legendsymbols"><g class="legendpoints"/></g></g><rect class="legendtoggle" x="0" y="-9.5" width="130.8186798095703" height="19" style="fill: rgb(0, 0, 0); fill-opacity: 0;"/></g><g class="traces" transform="translate(0,71.5)" style="opacity: 0.5;"><text class="legendtext" text-anchor="start" x="40" y="4.680000000000001" style="font-family: 'Open Sans', verdana, arial, sans-serif; font-size: 12px; fill: rgb(42, 63, 95); fill-opacity: 1; white-space: pre;">Conic =9.625</text><g class="layers" style="opacity: 1;"><g class="legendfill"/><g class="legendlines"><path class="js-line" d="M5,0h30" style="fill: none; stroke: rgb(171, 99, 250); stroke-opacity: 1; stroke-width: 2px;"/></g><g class="legendsymbols"><g class="legendpoints"/></g></g><rect class="legendtoggle" x="0" y="-9.5" width="130.8186798095703" height="19" style="fill: rgb(0, 0, 0); fill-opacity: 0;"/></g><g class="traces" transform="translate(0,90.5)" style="opacity: 0.5;"><text class="legendtext" text-anchor="start" x="40" y="4.680000000000001" style="font-family: 'Open Sans', verdana, arial, sans-serif; font-size: 12px; fill: rgb(42, 63, 95); fill-opacity: 1; white-space: pre;">Conic =12.8</text><g class="layers" style="opacity: 1;"><g class="legendfill"/><g class="legendlines"><path class="js-line" d="M5,0h30" style="fill: none; stroke: rgb(255, 161, 90); stroke-opacity: 1; stroke-width: 2px;"/></g><g class="legendsymbols"><g class="legendpoints"/></g></g><rect class="legendtoggle" x="0" y="-9.5" width="130.8186798095703" height="19" style="fill: rgb(0, 0, 0); fill-opacity: 0;"/></g><g class="traces" transform="translate(0,109.5)" style="opacity: 1;"><text class="legendtext" text-anchor="start" x="40" y="4.680000000000001" style="font-family: 'Open Sans', verdana, arial, sans-serif; font-size: 12px; fill: rgb(42, 63, 95); fill-opacity: 1; white-space: pre;">Mean-Variance</text><g class="layers" style="opacity: 1;"><g class="legendfill"/><g class="legendlines"><path class="js-line" d="M5,0h30" style="fill: none; stroke: rgb(25, 211, 243); stroke-opacity: 1; stroke-width: 2px;"/></g><g class="legendsymbols"><g class="legendpoints"/></g></g><rect class="legendtoggle" x="0" y="-9.5" width="130.8186798095703" height="19" style="fill: rgb(0, 0, 0); fill-opacity: 0;"/></g><g class="traces" transform="translate(0,128.5)" style="opacity: 1;"><text class="legendtext" text-anchor="start" x="40" y="4.680000000000001" style="font-family: 'Open Sans', verdana, arial, sans-serif; font-size: 12px; fill: rgb(42, 63, 95); fill-opacity: 1; white-space: pre;">Mean-VaR</text><g class="layers" style="opacity: 1;"><g class="legendfill"/><g class="legendlines"><path class="js-line" d="M5,0h30" style="fill: none; stroke: rgb(255, 102, 146); stroke-opacity: 1; stroke-width: 2px;"/></g><g class="legendsymbols"><g class="legendpoints"/></g></g><rect class="legendtoggle" x="0" y="-9.5" width="130.8186798095703" height="19" style="fill: rgb(0, 0, 0); fill-opacity: 0;"/></g><g class="traces" transform="translate(0,147.5)" style="opacity: 1;"><text class="legendtext" text-anchor="start" x="40" y="4.680000000000001" style="font-family: 'Open Sans', verdana, arial, sans-serif; font-size: 12px; fill: rgb(42, 63, 95); fill-opacity: 1; white-space: pre;">Mean-CVaR 95%</text><g class="layers" style="opacity: 1;"><g class="legendfill"/><g class="legendlines"><path class="js-line" d="M5,0h30" style="fill: none; stroke: rgb(182, 232, 128); stroke-opacity: 1; stroke-width: 2px;"/></g><g class="legendsymbols"><g class="legendpoints"/></g></g><rect class="legendtoggle" x="0" y="-9.5" width="130.8186798095703" height="19" style="fill: rgb(0, 0, 0); fill-opacity: 0;"/></g><g class="traces" transform="translate(0,166.5)" style="opacity: 1;"><text class="legendtext" text-anchor="start" x="40" y="4.680000000000001" style="font-family: 'Open Sans', verdana, arial, sans-serif; font-size: 12px; fill: rgb(42, 63, 95); fill-opacity: 1; white-space: pre;">Mean-CVaR 99%</text><g class="layers" style="opacity: 1;"><g class="legendfill"/><g class="legendlines"><path class="js-line" d="M5,0h30" style="fill: none; stroke: rgb(255, 151, 255); stroke-opacity: 1; stroke-width: 2px;"/></g><g class="legendsymbols"><g class="legendpoints"/></g></g><rect class="legendtoggle" x="0" y="-9.5" width="130.8186798095703" height="19" style="fill: rgb(0, 0, 0); fill-opacity: 0;"/></g><g class="traces" transform="translate(0,185.5)" style="opacity: 1;"><text class="legendtext" text-anchor="start" x="40" y="4.680000000000001" style="font-family: 'Open Sans', verdana, arial, sans-serif; font-size: 12px; fill: rgb(42, 63, 95); fill-opacity: 1; white-space: pre;">DJIA</text><g class="layers" style="opacity: 1;"><g class="legendfill"/><g class="legendlines"><path class="js-line" d="M5,0h30" style="fill: none; stroke: rgb(254, 203, 82); stroke-opacity: 1; stroke-width: 2px;"/></g><g class="legendsymbols"><g class="legendpoints"/></g></g><rect class="legendtoggle" x="0" y="-9.5" width="130.8186798095703" height="19" style="fill: rgb(0, 0, 0); fill-opacity: 0;"/></g></g></g><rect class="scrollbar" rx="20" ry="3" width="0" height="0" x="0" y="0" style="fill: rgb(128, 139, 164); fill-opacity: 1;"/></g><g class="g-gtitle"/><g class="g-xtitle"/><g class="g-ytitle"/></g></svg>