<svg class="main-svg" xmlns="http://www.w3.org/2000/svg" xmlns:xlink="http://www.w3.org/1999/xlink" width="1238" height="494" style=""><rect x="0" y="0" width="1238" height="494" style="fill: rgb(255, 255, 255); fill-opacity: 1;"/><defs id="defs-0d0ce7"><g class="clips"><clipPath id="clip0d0ce7xyplot" class="plotclip"><rect width="1020" height="384"/></clipPath><clipPath class="axesclip" id="clip0d0ce7x"><rect x="50" y="0" width="1020" height="494"/></clipPath><clipPath class="axesclip" id="clip0d0ce7y"><rect x="0" y="60" width="1238" height="384"/></clipPath><clipPath class="axesclip" id="clip0d0ce7xy"><rect x="50" y="60" width="1020" height="384"/></clipPath></g><g class="gradients"/><g class="patterns"/></defs><g class="bglayer"><rect class="bg" x="50" y="60" width="1020" height="384" style="fill: rgb(229, 236, 246); fill-opacity: 1; stroke-width: 0;"/></g><g class="layer-below"><g class="imagelayer"/><g class="shapelayer"/></g><g class="cartesianlayer"><g class="subplot xy"><g class="layer-subplot"><g class="shapelayer"/><g class="imagelayer"/></g><g class="gridlayer"><g class="x"><path class="xgrid crisp" transform="translate(220.79,0)" d="M0,60v384" style="stroke: rgb(255, 255, 255); stroke-opacity: 1; stroke-width: 1px;"/><path class="xgrid crisp" transform="translate(395.38,0)" d="M0,60v384" style="stroke: rgb(255, 255, 255); stroke-opacity: 1; stroke-width: 1px;"/><path class="xgrid crisp" transform="translate(567.12,0)" d="M0,60v384" style="stroke: rgb(255, 255, 255); stroke-opacity: 1; stroke-width: 1px;"/><path class="xgrid crisp" transform="translate(741.7,0)" d="M0,60v384" style="stroke: rgb(255, 255, 255); stroke-opacity: 1; stroke-width: 1px;"/><path class="xgrid crisp" transform="translate(913.44,0)" d="M0,60v384" style="stroke: rgb(255, 255, 255); stroke-opacity: 1; stroke-width: 1px;"/></g><g class="y"><path class="ygrid crisp" transform="translate(0,376.71)" d="M50,0h1020" style="stroke: rgb(255, 255, 255); stroke-opacity: 1; stroke-width: 1px;"/><path class="ygrid crisp" transform="translate(0,309.33000000000004)" d="M50,0h1020" style="stroke: rgb(255, 255, 255); stroke-opacity: 1; stroke-width: 1px;"/><path class="ygrid crisp" transform="translate(0,241.95)" d="M50,0h1020" style="stroke: rgb(255, 255, 255); stroke-opacity: 1; stroke-width: 1px;"/><path class="ygrid crisp" transform="translate(0,174.56)" d="M50,0h1020" style="stroke: rgb(255, 255, 255); stroke-opacity: 1; stroke-width: 1px;"/><path class="ygrid crisp" transform="translate(0,107.18)" d="M50,0h1020" style="stroke: rgb(255, 255, 255); stroke-opacity: 1; stroke-width: 1px;"/></g></g><g class="zerolinelayer"/><path class="xlines-below"/><path class="ylines-below"/><g class="overlines-below"/><g class="xaxislayer-below"/><g class="yaxislayer-below"/><g class="overaxes-below"/><g class="plot" transform="translate(50,60)" clip-path="url(#clip0d0ce7xyplot)"><g class="scatterlayer mlayer"><g class="trace scatter tracee8ebd4" style="stroke-miterlimit: 2; opacity: 1;"><g class="fills"/><g class="errorbars"/><g class="lines"><path class="js-line" d="M0,90.47L0.95,109.38L1.9,92.61L3.8,57.35L6.64,61.36L7.59,61.6L8.54,59.57L9.49,56.63L10.44,57.88L14.23,75.14L15.18,70.69L17.08,91.31L19.93,100.05L23.72,139.17L26.57,120.33L27.52,122.95L28.47,132.15L30.36,150.43L33.21,154.97L34.16,155.56L35.11,168.26L37,191.09L39.85,189.17L40.8,174.01L41.75,178.69L42.7,177.87L43.65,198.31L47.44,187.64L48.39,194.76L50.29,225.16L53.13,212.97L55.03,205.46L55.98,204.56L56.93,191.44L59.78,212.26L60.73,230.57L61.67,228.69L62.62,221.66L63.57,230.43L66.42,227.67L67.37,234.89L69.27,176.6L70.21,189.95L73.06,192.12L74.01,177.91L74.96,191.91L75.91,187.91L76.86,182.64L79.7,186.96L81.6,171.93L82.55,157.54L83.5,161.06L86.34,136.47L87.29,128.74L88.24,138.96L89.19,136.59L90.14,145.67L92.99,145.9L93.93,134.25L94.88,136.52L95.83,146.04L96.78,180.82L99.63,179.83L100.58,183.84L101.53,179.76L102.47,160.86L106.27,140.78L107.22,137.05L108.17,148.74L109.12,146.67L110.07,148.9L113.86,137.92L114.81,155.29L115.76,155.9L116.71,147.4L120.5,145.08L121.45,136.53L122.4,127.92L123.35,133.26L127.14,109.26L128.09,119.29L129.99,127.59L132.84,120.72L133.79,121.69L134.73,113.83L135.68,133.05L136.63,134.37L140.43,128.36L141.38,131.45L142.33,133.26L143.27,140.92L146.12,143.49L147.07,140.38L148.02,142.21L148.97,147.72L149.92,150.17L152.76,153.16L153.71,150.09L154.66,141.62L155.61,138.38L156.56,146.96L159.4,149.25L160.35,161.61L161.3,155.43L162.25,163.01L166.05,152L167,152.21L169.84,167.01L172.69,157.96L174.59,157.6L175.53,164.74L179.33,161.35L180.28,150.3L183.13,169.13L185.97,172.6L187.87,170.36L188.82,171.83L189.77,176.6L192.61,175.64L193.56,169.18L194.51,172.1L195.46,157.62L196.41,155.79L199.26,158.93L200.2,153.45L201.15,143.69L202.1,145.5L203.05,142.37L205.9,135.86L206.85,137.25L207.8,141.87L208.74,137.85L209.69,125.53L212.54,125.27L213.49,129.89L214.44,128.25L215.39,130.56L216.33,136.39L219.18,133.84L221.08,135.56L222.03,140.62L222.98,139.62L225.82,137.79L228.67,149.61L229.62,149.73L233.41,143.5L234.36,137.8L236.26,147.48L239.11,143.08L240.06,141.92L241,152.14L241.95,156.92L242.9,153.63L245.75,155L246.7,157.28L247.65,166.61L248.6,158.4L249.54,139.69L252.39,137.99L253.34,137.5L254.29,130.62L255.24,121.67L256.19,120.37L259.03,116.47L259.98,109.59L261.88,105.12L262.83,110L265.67,109.48L266.62,108.26L267.57,108.43L268.52,119.88L269.47,125.07L272.32,128.33L275.16,138.12L276.11,131.36L278.96,119.68L279.91,111.41L280.86,110.42L281.8,105.85L285.6,67.24L286.55,71.37L287.5,69.82L288.45,78.58L289.4,78.44L292.24,73.81L293.19,73.15L294.14,65.12L295.09,69.08L296.04,67.1L298.88,66.84L299.83,61.41L300.78,57.62L301.73,60.47L302.68,56.38L305.53,55.04L306.47,49.51L307.42,48.97L309.32,52.87L312.17,61.97L313.12,62.11L314.07,56.42L315.01,66.05L315.96,66.96L319.76,40.46L320.71,53.68L321.66,49.98L322.6,49.78L325.45,61.7L326.4,53.05L327.35,48.68L328.3,53.76L329.25,68.49L332.09,51.41L333.04,49.37L333.99,65.97L335.89,43.44L339.68,32.23L340.63,19.55L341.58,19.2L342.53,22.28L346.33,26.57L349.17,60.97L352.02,54.93L354.87,74.82L355.81,76.22L359.61,68.85L360.56,75.6L361.51,77.21L362.46,85.49L365.3,79.56L366.25,74.29L367.2,84.22L368.15,81.13L369.1,91.23L371.94,92.38L373.84,72.58L374.79,69.29L375.74,72.19L378.59,65.67L379.53,66.65L380.48,66.3L381.43,68.74L382.38,67.05L385.23,62.51L386.18,63.54L387.13,75.39L388.07,69.96L389.02,68.73L392.82,67.96L393.77,75.71L394.72,73.54L395.67,80.32L398.51,72.98L399.46,69.11L400.41,78.16L401.36,81.08L402.31,72.3L405.15,72.92L406.1,76.11L407.05,75.43L408,55.34L408.95,62.03L411.8,87.59L412.74,94.63L413.69,109.95L414.64,110.46L415.59,121.68L418.44,117.9L419.39,134.43L421.28,158.89L422.23,156.42L425.08,146.8L426.03,131.1L426.98,136.25L427.93,130.58L428.87,120.55L431.72,126.5L432.67,144.84L433.62,138.61L434.57,120.39L435.52,121.67L438.36,117L439.31,105.58L440.26,120.23L441.21,116.82L445.95,101.27L446.9,90.29L447.85,93.55L448.8,101.25L451.65,95.75L452.6,100.01L455.44,76.64L458.29,79.84L459.24,69.54L460.19,74.65L461.13,78.14L462.08,67.38L465.88,68.2L466.83,61.23L468.73,61.8L471.57,56.6L472.52,55.95L473.47,35.25L474.42,37.53L475.37,27.97L478.21,33.31L479.16,37.83L480.11,45.57L481.06,45.63L482.01,50.12L485.8,44.35L486.75,49.3L487.7,47.35L488.65,50.83L491.5,44.88L492.45,38.69L493.4,44.38L494.34,43.79L495.29,50.34L498.14,49.07L499.09,45.91L500.04,45.77L500.99,54.5L501.93,64.01L504.78,66.33L505.73,67.61L506.68,66.77L507.63,68.35L508.58,75.85L511.42,80.62L512.37,79.5L513.32,80.63L514.27,76.4L515.22,83.47L518.07,75.45L519.01,78.6L520.91,80.78L521.86,90.63L524.71,88.39L525.66,91.26L526.6,90.69L528.5,81.78L531.35,82.25L532.3,84.26L533.25,81.03L534.2,76.23L535.14,82.8L537.99,92.95L538.94,103.15L540.84,80.07L541.79,82.97L544.63,81.87L545.58,74.84L547.48,77.78L548.43,81.73L551.27,88.48L552.22,85.24L553.17,94.24L554.12,93.26L555.07,85.16L557.92,83.65L558.87,84.83L559.81,83.74L560.76,80.78L561.71,86.7L564.56,80.51L565.51,85.04L567.4,78.17L568.35,68.72L571.2,74.2L572.15,84.29L574.05,95.94L575,96.51L579.74,80.75L580.69,89.06L581.64,100.27L584.48,97.98L593.02,143.32L593.97,166.27L594.92,181.3L597.77,165.09L598.72,157.93L599.67,160.64L601.56,128.14L604.41,130.99L607.26,106.24L608.2,105.89L611.05,106.87L612,102.18L613.9,76.46L614.85,81.87L617.69,84.64L618.64,82.3L620.54,100.37L621.49,101.29L624.33,91.03L625.28,101.21L626.23,101.55L627.18,96.64L628.13,87.54L630.98,103.69L632.87,127.33L633.82,111.19L634.77,107.26L637.62,106.38L638.57,101.46L639.52,103.82L640.47,106.79L641.41,102.67L644.26,106.94L645.21,95.79L646.16,99.05L647.11,97.48L648.06,95.88L650.9,93.01L651.85,94.39L652.8,97.41L654.7,90.16L657.54,94.68L659.44,110.4L660.39,104.27L661.34,104.73L664.19,107.16L665.13,101.45L666.08,90.29L667.98,102.16L670.83,108L672.73,113.88L673.67,124.19L674.62,115.85L677.47,113.3L679.37,101.39L680.32,105.29L681.27,107.71L684.11,106.12L686.01,101.68L686.96,95.43L690.75,104.02L692.65,100.26L694.55,90.31L697.4,95.68L698.34,97.86L699.29,107.78L701.19,124.98L704.04,135.63L704.99,133.58L705.93,148.94L706.88,140.16L707.83,139.88L711.63,144.64L712.58,135.48L714.47,128.75L717.32,128.03L718.27,136.99L719.22,127.96L720.17,114.86L721.12,114.89L723.96,126.3L724.91,126.44L725.86,123.11L726.81,122.83L727.76,117.14L730.6,111.1L731.55,111.56L732.5,103.8L734.4,102.54L738.2,112.97L739.14,102.61L740.09,108.27L741.04,92.58L743.89,85.68L744.84,87.83L745.79,87.03L746.73,85.26L747.68,71.34L750.53,59.56L751.48,65.89L752.43,56.04L753.38,61.11L754.33,62.73L757.17,60.22L758.12,54.48L759.07,61.95L760.02,58.96L760.97,52.33L763.81,54.85L764.76,48.73L765.71,55.73L766.66,56.25L767.61,65.8L770.46,76.01L772.35,60.53L773.3,63.99L777.1,67.42L778.05,64.84L779,72.21L779.94,71.35L780.89,66.2L783.74,63.6L784.69,66.91L785.64,58.04L787.53,74.99L790.38,81.09L791.33,69.08L792.28,72.97L794.18,67.04L797.02,76.2L798.92,86.63L799.87,86.47L800.82,91.17L803.67,99.58L805.56,78.05L806.51,75.65L810.31,92.18L811.26,93.19L812.2,82.02L813.15,81.71L814.1,84.7L816.95,69.92L817.9,64.22L818.85,71.86L820.74,64.27L823.59,76.9L824.54,77.18L825.49,69.11L826.44,63.53L827.39,70.93L831.18,76.02L832.13,79.24L833.08,83.9L834.03,79.21L836.87,94.96L837.82,95.31L838.77,86.21L839.72,98.06L840.67,93.65L843.52,92.2L844.47,101.68L845.41,91.87L847.31,104.76L850.16,88.37L851.11,89.76L852.06,97.22L853,100.39L853.95,115.92L856.8,115.76L857.75,124.35L858.7,126.46L859.65,116.96L860.6,115.61L863.44,120.45L864.39,130.18L865.34,130.87L867.24,114.08L870.08,116.65L873.88,170.62L876.73,181.4L877.67,189.07L878.62,187.93L879.57,205.86L880.52,239.64L883.37,262.07L884.32,257.78L885.27,229.43L886.21,228.79L887.16,209.86L890.01,181.98L890.96,188.47L891.91,179.57L893.8,212.51L896.65,227.08L900.45,188.6L903.29,190.52L904.24,201.71L905.19,180.93L906.14,172.71L907.09,175.82L909.93,161.93L910.88,174.85L912.78,166.94L913.73,182.4L916.58,178.03L917.53,179.92L918.47,192.46L919.42,191.69L920.37,192.86L924.17,218.41L925.12,212.98L926.07,220.62L927.01,215.36L929.86,211.92L931.76,202.99L932.71,219.72L933.66,218.93L936.5,210.46L937.45,235.08L938.4,237.57L939.35,253.82L940.3,250.09L943.14,252.3L944.09,264.22L945.99,242.5L946.94,268.06L949.79,277.49L950.73,248.75L951.68,266.68L952.63,265.64L953.58,276.99L956.43,281.11L957.38,278.61L958.33,293.03L960.22,252.68L963.07,250.04L964.02,229.19L964.97,241.25L965.92,224.11L966.87,226.13L969.71,210.3L970.66,214.5L971.61,218.36L972.56,232.74L973.51,224.79L976.35,231.72L977.3,238.87L978.25,231.76L979.2,235.93L980.15,224.46L983,225L983.94,213.17L984.89,207.47L985.84,217.39L986.79,224.27L989.64,238.98L990.59,242.37L991.53,242.39L993.43,225.44L996.28,226.47L997.23,223.64L998.18,215.59L999.13,206.02L1000.07,210.14L1002.92,207.23L1003.87,217.14L1004.82,201.54L1006.72,199.79L1009.56,206.58L1010.51,212.3L1011.46,211.64L1012.41,214.24L1013.36,215.25L1016.2,226.3L1017.15,220.55L1018.1,219.53L1020,227.08" style="vector-effect: non-scaling-stroke; fill: none; stroke: rgb(99, 110, 250); stroke-opacity: 1; stroke-width: 2px; opacity: 1;"/></g><g class="points"/><g class="text"/></g><g class="trace scatter tracecd065c" style="stroke-miterlimit: 2; opacity: 1;"><g class="fills"/><g class="errorbars"/><g class="lines"><path class="js-line" d="M0,90.47L0.95,106.78L1.9,89.55L3.8,53.14L6.64,55.74L8.54,50.03L9.49,46.98L10.44,48.7L14.23,65.07L15.18,58.81L16.13,70.15L17.08,83.33L19.93,90.69L22.77,110.61L23.72,125.53L26.57,107.81L27.52,112.25L30.36,138.42L33.21,143.05L34.16,143.03L35.11,157.09L37,179.57L39.85,179.08L40.8,165.06L41.75,169.5L42.7,170.43L43.65,189.99L47.44,179.3L48.39,186.9L50.29,217.97L53.13,205.26L54.08,199.01L55.03,199.69L55.98,200.55L56.93,188.72L59.78,207.7L60.73,233.89L61.67,232.9L62.62,223.2L63.57,235.65L66.42,231.9L67.37,240.67L68.32,214.94L69.27,184.6L70.21,197.99L73.06,199.64L74.01,186.64L74.96,198.5L75.91,196.15L76.86,188.91L79.7,192.33L81.6,174.52L82.55,161.15L83.5,167.05L86.34,140.37L87.29,132.86L88.24,142.98L89.19,141.48L90.14,149.32L92.99,150.2L93.93,139.32L94.88,141.86L95.83,150.49L96.78,183.58L99.63,181.27L100.58,186.81L101.53,181.93L102.47,160.75L106.27,140.52L107.22,139.33L108.17,149.42L109.12,147.99L110.07,152.18L112.91,145.68L113.86,141.52L114.81,158.45L115.76,159.96L116.71,152.86L119.55,149.82L120.5,148.62L121.45,139.44L122.4,132.03L123.35,137.2L127.14,112.64L128.09,121.98L129.99,127.98L132.84,119.96L133.79,120.16L134.73,112.88L135.68,130.2L136.63,130.56L140.43,126.29L141.38,130.1L142.33,132.93L143.27,143.12L146.12,145.22L147.07,141.68L148.02,143.22L148.97,150.81L149.92,154.94L152.76,157.7L155.61,145.86L156.56,155.23L159.4,155.17L160.35,167.06L161.3,163L162.25,171.3L166.05,157.1L167,158.95L169.84,171.72L172.69,164.78L174.59,166.16L175.53,171.73L176.48,171.72L179.33,169.68L180.28,160.8L181.23,166.67L183.13,179.97L185.97,182.77L187.87,177.66L188.82,177.61L189.77,183.53L192.61,181.93L193.56,173.4L194.51,175.03L195.46,159.9L196.41,158.95L199.26,163.64L200.2,156.76L201.15,146.55L202.1,147.62L205.9,140.68L206.85,142.04L207.8,147.41L208.74,143.47L209.69,130.03L212.54,127.76L213.49,130.55L214.44,128.41L215.39,130.63L216.33,136.92L219.18,134.76L220.13,135.03L221.08,136.02L222.03,141.28L222.98,139.96L225.82,138.79L228.67,150.48L229.62,151.63L233.41,146.4L234.36,141.04L236.26,149.84L239.11,146.76L240.06,145.3L241,155.88L241.95,160.91L242.9,155.96L245.75,156.57L246.7,158.74L247.65,167.6L248.6,161.33L249.54,141.88L252.39,140.87L253.34,141.16L254.29,133.01L255.24,122.82L256.19,121.4L259.03,116.36L259.98,111.03L260.93,109.22L261.88,105.62L262.83,108.97L265.67,107.47L267.57,105.89L268.52,117.56L269.47,122.87L272.32,127.25L274.21,132.38L275.16,136.37L276.11,127.4L278.96,116.86L279.91,108.67L280.86,107.51L281.8,103.7L282.75,92L285.6,67.41L286.55,72.61L287.5,70.07L288.45,78.74L289.4,79.94L292.24,75.68L293.19,76.09L294.14,66.97L295.09,72.68L296.04,67.9L298.88,68.5L299.83,62.62L300.78,58.31L301.73,61.42L302.68,56.8L305.53,55.23L306.47,50.18L307.42,50.13L309.32,54.56L312.17,63.89L313.12,63.9L314.07,57.16L315.01,67.71L315.96,69.1L319.76,49.22L320.71,61.73L321.66,56.12L322.6,56.84L325.45,68.48L326.4,59.07L327.35,54.34L328.3,58.96L329.25,73.7L332.09,56.67L333.04,51.12L333.99,66.98L335.89,48.67L339.68,38.14L340.63,26L341.58,24.2L342.53,26.5L346.33,29.67L349.17,66.22L352.02,60.17L354.87,80.41L355.81,80.2L359.61,71.6L360.56,78.02L361.51,79.57L362.46,87.42L366.25,79.02L367.2,87.76L368.15,85.6L369.1,95.27L371.94,98.03L372.89,83.36L374.79,73.65L375.74,76.5L378.59,69.11L379.53,69.28L381.43,71.03L382.38,67.98L385.23,64.44L386.18,67.41L387.13,78.97L388.07,74.57L389.02,72.64L392.82,72.04L393.77,78.86L394.72,77.14L395.67,84.75L398.51,79.99L399.46,77.31L400.41,85.8L401.36,88.79L402.31,80.89L405.15,81.32L406.1,85.22L407.05,84.91L408,66.13L408.95,72.55L411.8,97.64L412.74,103.78L413.69,118.01L414.64,118.95L415.59,130.49L418.44,127.13L419.39,142.97L421.28,166.33L422.23,165.98L425.08,155.06L426.03,138.66L426.98,143.94L427.93,139.38L428.87,127.91L431.72,134.91L432.67,153.03L433.62,146.61L434.57,130.09L435.52,129.8L438.36,126.06L439.31,116.03L440.26,129.42L441.21,125.87L445.95,112.14L446.9,102.3L447.85,103.85L448.8,112L451.65,106.68L452.6,112.43L454.49,95.54L455.44,88.63L458.29,91.39L459.24,79.68L461.13,88.92L462.08,79.11L465.88,79.7L466.83,71.46L467.78,72.78L468.73,72.63L471.57,67.58L472.52,67.45L473.47,48.9L474.42,50.53L475.37,41.14L478.21,46.86L479.16,51.04L480.11,58.7L481.06,58.11L482.01,62.49L485.8,56.31L486.75,60.52L487.7,59.99L488.65,63.27L491.5,58.66L492.45,52.88L493.4,58.25L494.34,57.6L495.29,63.76L498.14,62.73L499.09,59.02L500.04,59.14L501.93,77.28L504.78,80.4L505.73,82.12L506.68,80.9L507.63,80.79L508.58,89.77L511.42,94.14L512.37,94.1L513.32,95.77L514.27,92.92L515.22,98.5L518.07,91.37L519.01,94.76L520.91,97.78L521.86,107.05L524.71,105.31L526.6,108.02L527.55,103.69L528.5,100.4L531.35,100.51L532.3,102.39L533.25,98.97L534.2,95.08L535.14,100.82L537.99,109.36L538.94,117.49L540.84,95.99L541.79,98.92L544.63,96.95L545.58,91.24L546.53,91.41L547.48,92.51L548.43,96.87L551.27,103.07L552.22,99.7L553.17,108.05L554.12,107.23L555.07,100.47L557.92,98.94L558.87,99.96L559.81,99.08L560.76,93.68L561.71,98.22L564.56,92.34L565.51,96.48L566.46,92.74L567.4,88.77L568.35,80.07L571.2,85.29L572.15,95.59L574.05,105.9L575,106.81L579.74,91.67L580.69,101.34L581.64,111.9L584.48,110.97L593.02,149.79L593.97,172.28L594.92,188.8L597.77,175.19L598.72,170.46L599.67,172.86L601.56,140.22L604.41,142.14L606.31,120.38L607.26,118.31L608.2,116.85L611.05,118.73L612,113.91L612.95,99.45L613.9,89.64L614.85,94L617.69,97.61L618.64,96.18L620.54,115.38L621.49,116.32L624.33,105.71L625.28,115.12L626.23,115.98L627.18,110.58L628.13,101.99L630.98,119.17L632.87,140.58L633.82,125.22L634.77,121.12L637.62,119.96L638.57,115.21L639.52,117.74L640.47,121.76L641.41,118.08L644.26,121.11L645.21,110.22L646.16,114.21L647.11,113.14L648.06,111.43L650.9,109.95L652.8,113.94L654.7,106.96L657.54,110.81L658.49,118.91L659.44,127.25L660.39,119.55L661.34,118.86L664.19,121.5L665.13,116.35L666.08,105.41L667.98,116.24L670.83,120.49L673.67,139.75L674.62,131.78L677.47,131.21L678.42,122.42L679.37,119.27L680.32,123.1L681.27,125.44L684.11,123.63L686.01,119.28L686.96,113.56L687.91,116.27L690.75,122.02L693.6,113.51L694.55,108.73L698.34,114.44L699.29,123.69L701.19,139.37L704.04,147.94L704.99,144.41L705.93,158.27L706.88,150.14L707.83,150.64L711.63,154.04L712.58,145.77L713.53,144.76L714.47,141.61L717.32,140.55L718.27,149.43L720.17,127.36L721.12,126.99L723.96,136.55L724.91,135.31L725.86,132.06L726.81,132.61L727.76,127.68L730.6,121.98L731.55,121.89L732.5,115.14L734.4,113.86L738.2,124.13L739.14,113.62L740.09,119.6L741.04,104.1L743.89,97.78L744.84,101.02L745.79,100.97L746.73,100.27L747.68,86.12L750.53,76.11L751.48,80.68L752.43,71.32L753.38,77.09L754.33,78.74L757.17,76.23L758.12,69.18L759.07,76.12L760.02,74.43L760.97,68.83L763.81,71.59L764.76,65.77L765.71,71.9L766.66,71.42L767.61,80.49L770.46,90.9L772.35,76.44L773.3,79.28L777.1,82.37L778.05,79.39L779,86.49L779.94,86.27L780.89,82.22L783.74,81.2L784.69,83.97L785.64,75.78L786.59,88.11L787.53,90.27L790.38,95.64L791.33,85.39L792.28,88.78L793.23,82.22L794.18,80.62L797.02,88.43L797.97,91.69L798.92,98.84L799.87,98.96L800.82,103.58L803.67,109.91L804.61,98.44L806.51,88.13L807.46,91.18L811.26,103.29L812.2,93.27L813.15,93.35L814.1,95.56L817.9,75.93L818.85,84L820.74,76.61L823.59,87.84L824.54,88.69L825.49,81.77L826.44,77.68L827.39,85.09L832.13,93.04L833.08,97.12L834.03,92.13L836.87,106.63L837.82,106.95L838.77,98.25L839.72,109.56L840.67,106.48L843.52,104.83L844.47,114.19L845.41,104.78L846.36,112.36L847.31,116.3L850.16,100.22L851.11,101.31L852.06,107.94L853,111.24L853.95,126.38L856.8,127.41L857.75,136.76L858.7,137.67L859.65,129.63L860.6,128.68L863.44,133.7L864.39,143.83L865.34,145.69L867.24,130.09L870.08,132.55L873.88,184.4L876.73,194.32L877.67,203.63L878.62,202.8L880.52,249.77L883.37,270.35L884.32,266.06L885.27,239.16L886.21,239.49L887.16,220.98L890.01,192.78L890.96,198.72L891.91,190.06L892.86,212.19L893.8,222.15L896.65,236.18L898.55,217.24L899.5,203.26L900.45,200L903.29,201.91L904.24,212.55L905.19,192.1L906.14,183.66L907.09,186.54L909.93,173.11L910.88,184.35L912.78,175.3L913.73,190.07L916.58,186.78L917.53,189L918.47,200.95L919.42,200.48L920.37,200.98L924.17,226.03L925.12,221.83L926.07,228.27L927.01,224.62L929.86,220.75L931.76,213.47L932.71,229.6L933.66,227.36L936.5,218.38L937.45,244.07L938.4,247.36L939.35,264.05L940.3,260.86L943.14,262.62L944.09,274.45L945.99,251.72L946.94,276.93L949.79,285.79L950.73,259.06L951.68,275.23L952.63,275.77L953.58,288.29L956.43,290.8L957.38,288.6L958.33,301.93L960.22,263.69L963.07,259.76L964.02,240.97L964.97,253.11L965.92,237.78L966.87,239.93L969.71,225.37L970.66,229.36L971.61,230.55L972.56,244.4L973.51,236.11L976.35,243.13L977.3,249.09L978.25,243.14L979.2,247.7L980.15,237.47L983,238.57L983.94,226L984.89,221.03L985.84,229.22L986.79,237.24L989.64,251.28L990.59,255.44L991.53,255.55L993.43,238.66L996.28,238.57L997.23,235.17L998.18,228.32L999.13,219.7L1000.07,222.95L1002.92,220.91L1003.87,229.72L1004.82,215.34L1006.72,213.98L1009.56,219.52L1010.51,224.27L1011.46,223.36L1012.41,224.61L1013.36,226.47L1016.2,236.65L1017.15,230.65L1018.1,230.44L1020,236.71" style="vector-effect: non-scaling-stroke; fill: none; stroke: rgb(239, 85, 59); stroke-opacity: 1; stroke-width: 2px; opacity: 1;"/></g><g class="points"/><g class="text"/></g><g class="trace scatter traceb54929" style="stroke-miterlimit: 2; opacity: 1;"><g class="fills"/><g class="errorbars"/><g class="lines"><path class="js-line" d="M0,90.47L0.95,104.21L1.9,86.12L3.8,50.72L6.64,50.12L9.49,39.47L10.44,42.66L14.23,57.32L15.18,50.8L17.08,78.39L19.93,84.47L20.87,89.16L21.82,100.24L22.77,100.14L23.72,115.96L26.57,98.77L27.52,103.31L30.36,127.6L33.21,131.85L34.16,131.77L35.11,146.06L37,167.87L39.85,167.77L40.8,153.75L41.75,157.63L42.7,160.09L43.65,179.22L47.44,170.04L48.39,177.11L50.29,210.49L53.13,196.22L54.08,188.72L55.03,190.15L55.98,192.07L56.93,179.95L59.78,198.42L60.73,227.95L61.67,227.65L62.62,216.9L63.57,231.9L66.42,227.56L67.37,237.39L68.32,212.7L69.27,184.34L70.21,198.03L73.06,198.46L74.01,186.28L74.96,196.97L75.91,194.76L76.86,186.8L79.7,190.41L81.6,171.05L82.55,159.78L83.5,166.62L86.34,138.78L87.29,131.11L88.24,142.05L89.19,139.94L90.14,147.09L92.99,148.29L93.93,137.45L94.88,140.97L95.83,149.42L96.78,180.5L99.63,178.23L100.58,184.37L101.53,178.93L102.47,156.73L106.27,137.18L107.22,138.58L108.17,147.39L109.12,146.39L110.07,151.98L112.91,146.14L113.86,140.8L114.81,157.34L115.76,159.6L116.71,153.69L119.55,149.75L120.5,147.99L121.45,137.69L122.4,130.99L123.35,136.39L127.14,112.01L128.09,120.9L129.04,125.62L129.99,125.82L132.84,117.43L133.79,117.91L134.73,112.12L135.68,128.33L136.63,127.86L140.43,124.08L142.33,131.78L143.27,144.38L146.12,145.81L147.07,141.74L148.02,143.8L148.97,152.18L149.92,157.41L152.76,159.44L155.61,149.12L156.56,158.1L159.4,157.16L160.35,168.11L161.3,165.04L162.25,173.51L166.05,158.93L167,161.76L169.84,174.92L172.69,168.98L174.59,172.35L175.53,176.81L176.48,177.48L179.33,175.74L180.28,168.35L181.23,175.19L183.13,187.15L185.97,189.63L186.92,188.18L187.87,183.26L188.82,182.27L189.77,189.33L192.61,188.51L193.56,179.98L194.51,181.13L195.46,165.77L196.41,165.6L199.26,170.6L201.15,152.34L202.1,152.5L205.9,148.27L206.85,149.18L207.8,154.47L208.74,151.07L209.69,137.34L212.54,133.85L213.49,135.29L214.44,132.6L215.39,134.5L216.33,141.27L219.18,140.32L220.13,141.05L221.08,142.06L222.03,148.07L222.98,146.62L225.82,145.88L229.62,158.96L233.41,154.02L234.36,148.99L235.31,153.63L236.26,157.75L239.11,155.57L240.06,154.25L241,164.21L241.95,169.72L242.9,163.26L245.75,163.08L246.7,166.12L247.65,175.4L248.6,170.62L249.54,152.39L252.39,151.77L253.34,152.36L254.29,143.49L255.24,132.4L256.19,131.11L259.03,123.83L259.98,119.09L260.93,117.29L261.88,113.23L262.83,115.69L265.67,112.84L266.62,110.71L267.57,110.66L269.47,128.47L272.32,135.08L275.16,143.98L276.11,133.53L278.96,124.59L279.91,116.86L280.86,116.48L281.8,112.52L282.75,101.85L285.6,78.68L286.55,84.84L287.5,80.56L288.45,89.43L289.4,90.38L292.24,86.96L293.19,87.65L294.14,77.92L295.09,87.73L296.04,80.96L298.88,82.6L300.78,71.71L301.73,75.75L302.68,71.25L305.53,69.84L306.47,65.46L307.42,64.78L309.32,69.02L312.17,78.38L313.12,78.75L314.07,73.54L315.01,84.18L315.96,84.15L318.81,67.01L319.76,68.39L320.71,80.19L321.66,74.42L322.6,76.04L325.45,87.46L327.35,72.92L328.3,77.73L329.25,91.67L332.09,75.54L333.04,67.44L333.99,83.88L335.89,67.34L339.68,57.37L340.63,45.5L341.58,43.12L342.53,45.05L346.33,46.66L349.17,80.34L352.02,75.62L354.87,96.14L355.81,93.61L359.61,84.31L360.56,90.18L361.51,92.27L362.46,99.36L366.25,94.11L367.2,101.76L368.15,100.77L369.1,110L371.94,112.77L372.89,97.57L374.79,87.15L375.74,90.57L379.53,82.28L380.48,83.77L381.43,83.5L382.38,79.48L385.23,77.02L386.18,81.81L387.13,93.18L388.07,88.62L389.02,86.38L392.82,86.34L393.77,91.6L394.72,90.74L395.67,98.95L398.51,95.42L399.46,94.26L400.41,101.62L401.36,104.53L402.31,97.12L405.15,97.78L406.1,101.62L407.05,101.18L408,83.6L408.95,89.54L411.8,114.49L412.74,119.83L413.69,132.96L414.64,133.68L415.59,144.36L418.44,141.35L419.39,156.7L421.28,178.78L422.23,179.49L425.08,168.55L426.03,151.43L426.98,157.63L427.93,154.54L428.87,142.21L431.72,149.93L432.67,167.66L433.62,161.29L434.57,145.68L435.52,143.79L438.36,140.59L439.31,131.42L440.26,144.27L441.21,140.85L445.95,127.87L446.9,117.75L447.85,118.52L448.8,126.46L451.65,121.27L452.6,128.55L454.49,110.58L455.44,104.61L458.29,107.5L459.24,95.37L461.13,104.66L462.08,95.48L465.88,95.97L466.83,87.72L467.78,89L468.73,88.81L471.57,84.17L472.52,84.25L473.47,66.94L474.42,68.34L475.37,59.16L478.21,64.71L479.16,68.32L480.11,76.36L481.06,75.15L482.01,79.28L485.8,73.29L486.75,77.18L487.7,77.53L488.65,80.68L491.5,76.68L492.45,71.76L493.4,76.68L494.34,75.61L495.29,81.31L498.14,80.58L499.09,76.9L500.04,77.72L501.93,96.3L504.78,100.46L505.73,101.89L506.68,100.18L507.63,98.06L508.58,107.21L513.32,114.47L514.27,112.18L515.22,115.86L518.07,109.45L519.01,113.24L520.91,116.46L521.86,125.05L524.71,123.28L525.66,125.53L526.6,125.67L528.5,118.97L531.35,119.51L532.3,120.08L533.25,118.1L534.2,113.72L535.14,118.34L537.99,126.13L538.94,134.29L540.84,113.68L541.79,116.81L544.63,114.75L545.58,110.37L546.53,109.81L547.48,110.36L548.43,115.1L551.27,120.7L552.22,116.93L553.17,124.75L554.12,124.06L555.07,118.01L557.92,116.56L558.87,117.77L559.81,116.73L560.76,110.78L561.71,115.03L564.56,109.21L565.51,112.89L566.46,108.55L567.4,104.34L568.35,95.86L571.2,100.95L572.15,111.35L574.05,120.98L575,121.52L579.74,106.68L580.69,116.74L581.64,125.99L584.48,126.06L593.02,162.41L593.97,184.77L594.92,201.2L597.77,190.2L598.72,187.67L599.67,190.02L601.56,156.22L604.41,157.91L606.31,137.04L607.26,135.92L608.2,133.5L611.05,136.29L612,131.39L612.95,117.28L613.9,108.49L614.85,112.41L617.69,116.8L618.64,115.79L620.54,135.09L621.49,135.4L624.33,125.17L625.28,133.75L626.23,135.57L627.18,129.6L628.13,122.22L630.98,138.81L632.87,157.57L633.82,142.85L634.77,139.51L637.62,138.41L638.57,134.34L639.52,136.78L640.47,140.73L641.41,136.12L644.26,138.55L645.21,127.81L646.16,132.74L647.11,131.8L648.06,129.85L650.9,128.9L651.85,129.98L652.8,132.59L654.7,125.84L657.54,129.49L659.44,146.38L660.39,138.52L661.34,136.97L664.19,139.8L665.13,135.01L666.08,122.98L667.03,131.53L667.98,133.27L670.83,137.23L671.78,145.52L672.73,146.31L673.67,156.59L674.62,149.83L677.47,149.72L679.37,138.12L680.32,142.13L681.27,144.21L684.11,142.09L686.01,137.75L686.96,132.33L687.91,135.16L690.75,140.84L693.6,131.29L694.55,126.49L698.34,131.12L699.29,140.54L701.19,154.99L704.04,162.7L704.99,158.62L705.93,172.01L706.88,163.88L707.83,164.85L711.63,167.71L712.58,159.6L713.53,160.31L714.47,156.98L717.32,155.73L718.27,164.8L720.17,143.93L721.12,142.63L723.96,151.38L724.91,149.59L725.86,146.57L726.81,147.07L727.76,142.51L730.6,136.95L731.55,137.13L732.5,131.32L733.45,129.62L734.4,129.6L738.2,139.79L739.14,128.49L740.09,134.87L741.04,119.26L743.89,113.15L744.84,117.37L746.73,118.29L747.68,103.82L750.53,95.22L751.48,98.63L752.43,89.81L753.38,95.56L754.33,97.03L757.17,94.43L758.12,87.17L759.07,94.13L760.02,92.67L760.97,86.59L763.81,88.8L764.76,83.13L765.71,88.52L766.66,88.17L767.61,96.56L770.46,106.84L772.35,93.39L773.3,96.18L777.1,99.08L778.05,96.34L779,103.6L779.94,104.03L780.89,99.98L783.74,99.35L784.69,102.07L785.64,93.6L786.59,105.36L787.53,107L790.38,111.7L791.33,102.33L792.28,104.81L793.23,97.19L794.18,94.78L797.02,102.4L797.97,105.08L798.92,112.71L799.87,112.26L800.82,117.32L803.67,123.85L804.61,114.3L806.51,102.89L807.46,105.49L810.31,116.5L811.26,116.91L812.2,107.33L813.15,107.72L814.1,109.61L816.95,95.6L817.9,90.13L818.85,98.27L820.74,90.78L823.59,100.82L824.54,102.04L825.49,95.83L826.44,92.07L827.39,99.78L832.13,107.73L833.08,111.65L834.03,106.22L836.87,119.75L837.82,119.8L838.77,111.7L839.72,122.54L840.67,120.28L843.52,118.58L844.47,127.26L845.41,118.36L846.36,125.39L847.31,129.2L850.16,113.54L851.11,114.15L852.06,120.75L853,124.81L853.95,139.25L856.8,140.53L857.75,149.93L858.7,150.5L859.65,143.36L860.6,142.72L863.44,147.43L864.39,157.2L865.34,159.12L867.24,144.28L870.08,146.94L873.88,196.96L876.73,206.85L877.67,217.04L878.62,215.53L880.52,260.99L883.37,280.63L884.32,275.99L885.27,249.04L886.21,249.86L887.16,232.66L890.01,204.55L890.96,210.5L891.91,201.84L892.86,225.4L893.8,235.21L896.65,249.1L898.55,231.85L899.5,218.19L900.45,214.38L903.29,216.74L904.24,226.5L905.19,205.65L906.14,197L907.09,199.24L909.93,186.16L910.88,196.83L912.78,186.73L913.73,200.92L916.58,198.02L917.53,200.52L918.47,212.76L919.42,212.11L920.37,212.18L924.17,237.02L925.12,233.96L926.07,239.43L927.01,236.31L929.86,232.32L930.81,226.31L931.76,225.92L932.71,242.13L933.66,238.86L936.5,229.76L937.45,255.19L938.4,258.87L939.35,275.69L940.3,272.27L943.14,273.86L944.09,285.91L945.04,275.7L945.99,262.05L946.94,286.44L949.79,295.05L950.73,269.3L951.68,283.67L952.63,285.02L953.58,297.78L956.43,300.14L957.38,298.26L958.33,310.35L960.22,273.73L963.07,268.67L964.02,251.28L964.97,263.25L965.92,249.17L966.87,251.15L969.71,237.58L970.66,241.83L971.61,240.9L972.56,255.01L973.51,246.48L976.35,254.02L977.3,260.14L978.25,255.06L979.2,259.68L980.15,250.07L983,250.71L983.94,237.43L984.89,233.65L985.84,240.69L986.79,249.76L989.64,263.15L990.59,267.61L991.53,267.46L993.43,250.65L996.28,249.99L998.18,240.53L999.13,232.48L1000.07,236.13L1002.92,234.2L1003.87,242.76L1004.82,228.83L1006.72,227.67L1009.56,232.85L1010.51,237.22L1011.46,236.67L1012.41,237.07L1013.36,239.46L1016.2,249.02L1017.15,242.81L1018.1,242.91L1019.05,246.47L1020,248.18" style="vector-effect: non-scaling-stroke; fill: none; stroke: rgb(0, 204, 150); stroke-opacity: 1; stroke-width: 2px; opacity: 1;"/></g><g class="points"/><g class="text"/></g><g class="trace scatter trace7a1998" style="stroke-miterlimit: 2; opacity: 1;"><g class="fills"/><g class="errorbars"/><g class="lines"><path class="js-line" d="M0,90.47L0.95,103.6L1.9,85.11L3.8,47.64L6.64,46.53L9.49,35.37L10.44,39.87L14.23,53.53L15.18,46.95L17.08,75.43L19.93,81.74L20.87,85.28L21.82,94.63L22.77,94.09L23.72,109.92L26.57,92.96L27.52,97.53L30.36,121.48L33.21,125.63L34.16,126.11L35.11,140.86L37,163.28L39.85,162.57L40.8,147.61L41.75,150.8L42.7,154.31L43.65,173.1L47.44,164.07L48.39,170.84L50.29,205.85L53.13,190.87L54.08,183.03L55.03,184.91L55.98,187.19L56.93,176.33L59.78,194.38L60.73,224.1L61.67,224.05L62.62,212.9L63.57,229.17L66.42,225.94L67.37,234.89L68.32,210.72L69.27,182.62L70.21,196.96L73.06,197.33L74.01,185L74.96,195.24L75.91,193.15L76.86,185.16L79.7,189.55L82.55,159.67L83.5,166.68L87.29,130.27L88.24,141.76L89.19,139.22L90.14,146.35L92.99,146.91L93.93,136.12L94.88,139.95L95.83,147.29L96.78,177.4L99.63,175.05L100.58,180.23L101.53,174.01L102.47,152.06L106.27,133.05L107.22,136.05L108.17,145.17L109.12,144.57L110.07,151.41L112.91,146.55L113.86,140.56L114.81,156.16L115.76,158.24L116.71,152.49L119.55,147.91L120.5,146.71L121.45,136.76L122.4,130.09L123.35,135.32L127.14,110.5L128.09,119.4L129.04,124.12L129.99,123.4L132.84,115.43L133.79,115.99L134.73,110.02L135.68,125.14L136.63,124.56L140.43,120.88L142.33,128.73L143.27,143.41L146.12,144.42L147.07,140.05L148.02,142.58L148.97,151.7L149.92,156.78L152.76,158.05L155.61,147.29L156.56,155.89L159.4,154.49L160.35,165.35L161.3,161.94L162.25,170.66L163.2,167.49L166.05,155.32L167.94,163.61L168.89,169.24L169.84,171.11L172.69,166.11L174.59,169.48L175.53,173.32L176.48,174.29L179.33,172.57L180.28,165.87L181.23,172.95L183.13,185.26L185.97,187.01L186.92,185.77L187.87,180.91L188.82,179.81L189.77,186.99L192.61,185.02L193.56,177.13L194.51,177.93L195.46,161.88L196.41,161.74L199.26,167.01L201.15,148.26L202.1,148.16L205.9,145.25L206.85,145.76L207.8,150.96L208.74,147.14L209.69,133.46L212.54,129.27L213.49,130.15L214.44,126.72L215.39,127.71L216.33,134.84L220.13,134.66L221.08,135.49L222.03,141.92L222.98,140.5L225.82,140.28L226.77,144.28L228.67,152.13L229.62,153.95L233.41,149.64L234.36,144.76L236.26,152.85L239.11,150.91L240.06,149.73L241,158.85L241.95,164.78L242.9,157.61L245.75,157.56L246.7,160.77L247.65,170.39L248.6,165.37L249.54,147.66L252.39,147.36L253.34,148.41L254.29,138.51L255.24,126.92L256.19,125.99L261.88,107.85L262.83,109.88L265.67,106.8L266.62,103.21L267.57,102.62L268.52,112.82L269.47,120.68L272.32,127.93L275.16,137.02L276.11,125.84L278.96,117.74L279.91,110.72L280.86,110.03L281.8,105.97L282.75,96.09L285.6,74.44L286.55,80.83L287.5,76.12L288.45,85.75L289.4,87.27L292.24,83.12L293.19,84.37L294.14,73.99L295.09,84.91L296.04,77.84L298.88,80.44L300.78,69.11L301.73,73.16L302.68,69.02L305.53,67.66L306.47,62.82L307.42,62.16L309.32,66.1L312.17,73.95L313.12,73.93L314.07,70.05L315.01,80.41L315.96,80.12L318.81,63.42L319.76,64.83L320.71,76.2L321.66,69.67L322.6,71.26L325.45,83.01L327.35,68.39L328.3,74.07L329.25,87.15L332.09,71.48L333.04,62.17L333.99,77.75L335.89,63.43L339.68,52.74L341.58,38.3L342.53,40.19L346.33,41.22L347.27,56.49L349.17,76.41L352.02,72.19L354.87,92.81L355.81,89.98L359.61,80.29L360.56,87.03L361.51,89.13L362.46,95.75L366.25,91.15L367.2,98.19L368.15,96.4L369.1,105.77L371.94,109.07L372.89,93.21L374.79,82.23L375.74,86.09L379.53,77L380.48,78.77L381.43,77.5L382.38,73.14L385.23,70.7L386.18,76.34L387.13,87.85L388.07,83.74L389.02,81.34L392.82,81.28L393.77,85.56L394.72,85.37L395.67,93.76L398.51,90.85L399.46,90.33L400.41,96.94L401.36,99.99L402.31,92.43L405.15,92.74L406.1,97.02L407.05,96.66L408,79.48L408.95,84.98L411.8,110.06L412.74,115.4L413.69,127.89L414.64,127.91L415.59,138.9L418.44,136.11L419.39,150.92L421.28,173.11L422.23,174.89L425.08,163.43L426.03,145.98L426.98,152.18L427.93,150.27L428.87,137.35L431.72,145.88L432.67,163.53L433.62,157.42L434.57,141.57L435.52,138.95L438.36,135.56L439.31,126.53L440.26,139.23L441.21,135.47L445.95,122.62L446.9,112.22L447.85,112.77L448.8,121.22L451.65,115.05L452.6,122.96L454.49,104.31L455.44,98.56L458.29,101.26L459.24,89.55L461.13,99.01L462.08,89.84L465.88,90.75L466.83,82.43L468.73,83.9L471.57,79.2L472.52,79.39L473.47,61.88L474.42,63.39L475.37,54.68L478.21,60.4L479.16,64.48L480.11,72.64L481.06,71.52L482.01,75.3L485.8,69.26L486.75,73.01L487.7,73.49L488.65,75.96L491.5,71.81L492.45,66.8L493.4,72.03L494.34,70.88L495.29,76.42L498.14,76.21L499.09,72.16L500.04,73.31L500.99,80.44L501.93,91.13L504.78,95.24L505.73,96.81L506.68,95.15L507.63,92.39L508.58,101.84L512.37,107.6L513.32,110.57L514.27,108.42L515.22,111.52L518.07,105.45L519.01,109.13L520.91,112.68L521.86,120.76L524.71,118.66L525.66,121.5L526.6,121.76L527.55,119.24L528.5,115.86L531.35,116.52L532.3,116.21L533.25,114.62L534.2,110.08L535.14,114.34L537.99,122.12L538.94,131.09L540.84,110.96L541.79,113.88L544.63,112.25L545.58,108.24L546.53,107.64L547.48,108.07L548.43,112.76L551.27,118.25L552.22,113.73L553.17,121.42L554.12,120.78L555.07,114.61L557.92,113.04L558.87,114.17L559.81,113.33L560.76,107.46L561.71,111.96L564.56,105.87L565.51,109.61L566.46,104.51L567.4,100.9L568.35,92.45L571.2,97.46L572.15,107.96L574.05,118.18L575,118.79L579.74,103.66L580.69,113.84L581.64,123.01L584.48,122.69L592.07,154.86L593.02,159.79L594.92,199.43L597.77,189.43L598.72,187.48L599.67,189.54L601.56,154.33L604.41,155.89L606.31,135.53L607.26,134.64L608.2,131.71L611.05,134.62L612,130.06L612.95,115.69L613.9,107.28L614.85,110.65L617.69,115.01L618.64,114.01L620.54,134.16L621.49,134.1L624.33,122.87L625.28,130.78L626.23,133.31L627.18,126.95L628.13,120.04L630.98,136.26L632.87,153.84L633.82,139.31L634.77,136.33L637.62,134.96L638.57,131.39L639.52,133.9L640.47,137.18L641.41,132.28L644.26,134.69L645.21,123.97L646.16,129.38L647.11,129.63L648.06,127.27L650.9,126.69L651.85,127.04L652.8,129.48L654.7,122.69L657.54,126.19L659.44,143.23L660.39,135.01L661.34,133.35L664.19,136.16L665.13,131.29L666.08,119.33L667.03,128.22L667.98,129.07L670.83,133.32L671.78,142.73L672.73,143.03L673.67,153.37L674.62,147.18L677.47,146.85L679.37,134.78L680.32,138.72L681.27,140.22L684.11,137.73L686.01,133.2L686.96,128.2L687.91,131.03L690.75,137L694.55,123.42L697.4,127.57L698.34,127.75L699.29,136.74L700.24,141.29L701.19,149.64L704.04,156.2L704.99,151.97L705.93,165.47L706.88,157.46L707.83,158.54L711.63,160.95L712.58,153.09L713.53,154.41L714.47,150.62L717.32,149.42L718.27,158.93L719.22,149.22L720.17,138.56L721.12,136.36L723.96,145.55L724.91,143.61L725.86,140.4L726.81,141.04L727.76,136.36L730.6,130.67L731.55,130.74L732.5,125.01L733.45,123.11L734.4,123.36L738.2,133.3L739.14,121.18L740.09,127.59L741.04,111.52L743.89,105.31L744.84,109.8L746.73,111.27L747.68,96.47L750.53,88.5L751.48,92.03L752.43,83.18L753.38,88.7L754.33,90.22L757.17,87.62L758.12,80.21L759.07,87.18L760.02,85.84L760.97,80.31L763.81,82.29L764.76,77.16L765.71,82.52L766.66,82.18L767.61,89.86L770.46,100.19L772.35,87.16L773.3,89.9L777.1,92.36L778.05,89.64L779,97.32L779.94,98.31L780.89,94.02L783.74,93.06L784.69,95.72L785.64,87.27L786.59,98.72L787.53,100.46L790.38,104.58L791.33,95.3L792.28,97.52L793.23,89.59L794.18,86.45L797.02,93.76L797.97,96.69L798.92,104.4L799.87,103.45L800.82,109.05L803.67,115.4L804.61,106.63L806.51,94.67L807.46,97.16L810.31,108.46L811.26,109.08L812.2,99.35L813.15,100.37L814.1,102.12L816.95,88.25L817.9,82.64L818.85,91.11L820.74,83.51L823.59,93.4L824.54,95.08L825.49,89L826.44,85.38L827.39,93.19L832.13,100.94L833.08,104.94L834.03,99.21L836.87,112.54L837.82,112.56L838.77,104.8L839.72,115.65L840.67,113.91L843.52,111.78L844.47,120.36L845.41,111.52L846.36,118.34L847.31,121.78L850.16,106.46L851.11,106.71L852.06,113.24L853,117.64L853.95,132.4L856.8,133.52L857.75,143.36L858.7,143.48L859.65,136.66L860.6,136.44L863.44,140.97L864.39,150.71L865.34,152.62L867.24,137.47L870.08,140.53L873.88,190.93L876.73,201.09L877.67,211.98L878.62,209.72L879.57,225.94L880.52,256.08L883.37,274.89L884.32,269.67L885.27,241.01L886.21,241.56L887.16,224.66L890.01,195.8L890.96,201.65L891.91,192.58L893.8,227.15L896.65,241.91L898.55,223.71L899.5,209.07L900.45,205.01L903.29,207.65L904.24,218L905.19,196.73L906.14,188.25L907.09,190.52L909.93,177.6L910.88,187.81L912.78,176.88L913.73,191.09L916.58,188.19L917.53,190.97L918.47,203.56L919.42,203.23L920.37,202.83L924.17,228.31L925.12,225.17L926.07,229.97L927.01,226.72L929.86,222.46L930.81,216.17L931.76,216.26L932.71,232.27L933.66,228.84L936.5,220.13L937.45,245.23L938.4,248.61L939.35,265.71L940.3,261.95L943.14,263.59L944.09,275.81L945.04,265.31L945.99,250.44L946.94,275.15L949.79,283.83L950.73,257.98L951.68,271.38L952.63,273.04L953.58,286.18L956.43,288.56L957.38,286.33L958.33,297.6L960.22,261.39L963.07,255.41L964.02,237.98L964.97,249.89L965.92,236.06L966.87,237.96L969.71,224.82L970.66,229.9L971.61,228.12L972.56,241.97L973.51,232.98L976.35,240.99L977.3,247.45L978.25,242.18L979.2,246.86L980.15,237.53L983,238.27L983.94,224.42L984.89,221.08L985.84,227.78L986.79,236.63L989.64,249.66L990.59,254.14L991.53,254.34L993.43,237.06L996.28,236.48L998.18,227.23L999.13,219.87L1000.07,223.97L1002.92,222.04L1003.87,231.27L1004.82,217.17L1006.72,216.43L1009.56,221.51L1010.51,225.26L1011.46,224.61L1012.41,225L1013.36,227.3L1016.2,236.46L1017.15,229.88L1018.1,230.31L1019.05,233.82L1020,235.59" style="vector-effect: non-scaling-stroke; fill: none; stroke: rgb(171, 99, 250); stroke-opacity: 1; stroke-width: 2px; opacity: 1;"/></g><g class="points"/><g class="text"/></g><g class="trace scatter traceef7c4f" style="stroke-miterlimit: 2; opacity: 1;"><g class="fills"/><g class="errorbars"/><g class="lines"><path class="js-line" d="M0,90.47L0.95,102.98L1.9,83.86L3.8,44.82L6.64,43.39L9.49,32.01L10.44,37.44L14.23,50.48L15.18,43.7L17.08,72.97L19.93,79.72L20.87,81.94L21.82,90.06L22.77,88.91L23.72,104.46L26.57,87.75L27.52,92.26L29.41,104.55L30.36,115.84L34.16,121.12L35.11,136.43L37,159.27L39.85,158.23L40.8,142.65L41.75,145.36L42.7,149.86L43.65,168.35L47.44,158.96L48.39,165.72L50.29,202.15L53.13,186.63L54.08,178.32L55.03,180.74L55.98,183.55L56.93,173.7L59.78,191.44L60.73,221.11L61.67,220.98L62.62,209.51L63.57,226.74L66.42,224.44L67.37,232.88L68.32,208.93L69.27,181.06L70.21,195.84L73.06,196.27L74.01,183.86L74.96,193.86L75.91,191.98L76.86,184.17L79.7,189.27L82.55,159.89L83.5,167.07L87.29,130.01L88.24,142.01L89.19,139.17L90.14,146.32L92.99,146.34L93.93,135.48L95.83,145.93L96.78,175.03L99.63,172.9L100.58,177.29L101.53,170.1L102.47,148.31L106.27,129.92L107.22,134.45L108.17,143.43L109.12,143.22L110.07,151.31L112.91,147.17L113.86,140.52L114.81,155.33L115.76,157.36L116.71,151.57L120.5,145.89L121.45,136.27L122.4,129.84L123.35,134.89L127.14,109.67L128.09,118.48L129.04,123.2L129.99,121.5L132.84,114.15L133.79,114.71L134.73,108.72L135.68,123.02L136.63,122.41L140.43,118.77L141.38,121.54L142.33,126.86L143.27,143.4L146.12,144.08L147.07,139.5L148.02,142.59L149.92,156.98L152.76,157.53L155.61,146.39L156.56,154.74L159.4,153.22L160.35,163.71L161.3,159.99L162.25,168.9L163.2,166.06L166.05,153.03L167.94,161.34L168.89,167L169.84,168.32L172.69,163.91L174.59,167.19L175.53,170.52L176.48,171.9L179.33,170.14L180.28,163.81L181.23,171.31L183.13,183.97L185.97,185.26L186.92,184.23L187.87,179.48L188.82,178.54L189.77,185.69L192.61,182.61L193.56,175.31L194.51,176.2L195.46,159.66L196.41,159.55L199.26,164.96L201.15,145.72L202.1,145.42L203.05,145.35L205.9,143.83L206.85,143.95L207.8,149.17L208.74,145.05L209.69,131.25L212.54,126.61L213.49,127.11L214.44,123.05L215.39,123.52L216.33,131L219.18,130.64L221.08,131.81L222.03,138.24L222.98,136.88L225.82,137.22L228.67,149.45L229.62,151.45L233.41,147.55L234.36,142.82L236.26,150.49L239.11,148.76L240.06,147.68L241,156.04L241.95,162.48L242.9,154.91L245.75,154.75L246.7,158.35L247.65,168.12L248.6,162.85L249.54,145.51L252.39,145.47L253.34,146.83L254.29,136.1L255.24,124.17L256.19,123.4L261.88,105.04L262.83,106.71L265.67,103.47L266.62,98.62L267.57,97.5L268.52,106.97L269.47,115.99L272.32,123.74L273.27,127.53L274.21,127.81L275.16,132.19L276.11,120.22L278.96,112.59L279.91,105.94L280.86,104.86L281.8,100.63L285.6,70.8L286.55,77.25L287.5,72.21L288.45,82.47L289.4,84.16L292.24,79.61L293.19,81.44L294.14,70.27L295.09,82.38L296.04,74.89L298.88,78.61L299.83,73.35L300.78,66.92L301.73,71.13L302.68,67.55L305.53,66.18L306.47,60.64L307.42,60.24L312.17,70.29L313.12,69.89L314.07,66.86L315.01,77.06L315.96,76.54L318.81,60.24L319.76,61.82L320.71,72.8L321.66,65.8L322.6,67.35L325.45,79.1L326.4,70.06L327.35,64.23L328.3,70.57L329.25,82.91L332.09,67.66L333.04,57.03L333.99,71.89L335.89,59.24L339.68,47.99L341.58,33.3L342.53,35.34L346.33,35.99L347.27,52.6L349.17,72.61L352.02,68.97L354.87,89.85L355.81,86.44L359.61,76.34L360.56,84.02L361.51,86.52L362.46,92.94L366.25,88.97L367.2,95.63L368.15,93.02L369.1,102.56L371.94,106.25L372.89,90L374.79,78.29L375.74,82.49L379.53,72.96L380.48,75.07L381.43,73.01L382.38,68.29L385.23,65.91L386.18,72.27L387.13,84.03L388.07,80.2L389.02,77.8L392.82,77.42L393.77,80.83L394.72,81.22L395.67,89.66L398.51,86.99L399.46,86.81L400.41,92.66L401.36,96.03L402.31,88.15L405.15,88.18L406.1,92.86L407.05,92.51L408,75.72L408.95,80.5L411.8,105.9L412.74,111.4L413.69,123.48L414.64,123.05L415.59,134.05L418.44,131.35L419.39,145.71L422.23,170.81L425.08,158.72L426.03,141.05L426.98,147.17L427.93,146.27L428.87,132.95L431.72,142.28L432.67,159.77L433.62,153.73L434.57,137.78L435.52,134.53L438.36,130.78L439.31,121.63L440.26,134.3L441.21,130.16L445,119L445.95,117.37L446.9,106.89L447.85,107.59L448.8,116.53L451.65,109.6L452.6,118.03L454.49,98.78L455.44,93.36L458.29,95.87L459.24,84.56L461.13,94.04L462.08,84.83L464.93,85.08L465.88,86.22L466.83,77.85L467.78,79.15L468.73,79.53L471.57,74.85L472.52,75.21L473.47,57.47L474.42,58.78L475.37,50.71L478.21,56.59L479.16,61.19L480.11,69.56L481.06,68.7L482.01,72.24L485.8,65.97L486.75,69.72L487.7,70.32L488.65,71.98L491.5,67.73L492.45,62.76L493.4,68.28L494.34,67.05L495.29,72.51L498.14,72.89L499.09,68.56L500.04,70L500.99,77.17L501.93,87.28L504.78,91.47L505.73,93.23L506.68,91.49L507.63,88.31L508.58,98.36L512.37,104.85L513.32,108.34L514.27,106.37L515.22,108.96L518.07,103.09L519.01,106.73L520.91,110.59L521.86,118.24L524.71,115.83L525.66,118.94L526.6,119.36L527.55,117.45L528.5,114.14L531.35,114.92L533.25,111.85L534.2,107.11L535.14,110.92L537.99,118.69L538.94,128.52L539.89,113.52L540.84,108.83L541.79,111.69L544.63,110.33L545.58,106.31L547.48,105.94L548.43,110.55L551.27,115.99L552.22,110.93L553.17,118.52L554.12,118.04L555.07,111.79L557.92,110.14L558.87,111.21L559.81,110.58L560.76,104.78L561.71,109.5L564.56,103.18L565.51,106.87L568.35,89.71L571.2,94.61L573.1,111.11L574.05,115.76L575,116.38L578.79,105.77L579.74,100.91L580.69,111.28L581.64,120.66L584.48,120.2L592.07,152.96L593.02,158.19L594.92,198.21L597.77,189.17L598.72,187.87L599.67,189.58L601.56,153.36L604.41,154.8L606.31,135.13L607.26,134.51L608.2,130.94L611.05,133.99L612,129.8L612.95,115.28L613.9,107.38L614.85,110.35L617.69,114.72L618.64,113.81L620.54,134.72L621.49,134.4L624.33,122.53L625.28,129.77L626.23,132.92L627.18,126.23L628.13,119.75L630.98,135.79L632.87,152.51L633.82,138.28L634.77,135.44L637.62,133.88L638.57,130.78L639.52,133.38L640.47,136.11L641.41,131.07L644.26,133.46L645.21,122.8L646.16,128.34L647.11,129.39L648.06,126.65L650.9,126.37L651.85,126.21L652.8,128.49L654.7,121.64L657.54,124.97L659.44,142.2L660.39,133.72L661.34,131.83L664.19,134.51L665.13,129.74L666.08,117.92L667.03,126.89L667.98,127.06L670.83,131.56L671.78,142.15L672.73,142.2L673.67,152.43L674.62,146.79L677.47,146.29L679.37,133.93L680.32,137.66L681.27,138.71L684.11,135.87L686.01,131.24L686.96,126.64L690.75,135.58L692.65,129.26L694.55,122.4L697.4,126.36L698.34,126.36L699.29,134.99L700.24,138.63L701.19,146.59L704.04,152.35L704.99,148.06L705.93,161.66L706.88,153.79L707.83,154.82L711.63,156.59L712.58,148.99L713.53,150.85L714.47,146.78L717.32,145.5L718.27,155.18L719.22,145.51L721.12,132.55L723.96,142.03L725.86,136.7L726.81,137.41L727.76,132.59L730.6,126.65L731.55,126.64L732.5,120.96L733.45,118.95L734.4,119.29L738.2,129.03L739.14,116.19L740.09,122.47L741.04,106.07L743.89,99.86L744.84,104.56L746.73,106.51L747.68,91.39L750.53,83.89L751.48,87.66L752.43,78.65L753.38,83.84L754.33,85.4L757.17,82.68L758.12,75.35L759.07,82.36L760.02,81.22L760.97,76.28L763.81,78.1L764.76,73.36L765.71,78.64L766.66,78.41L767.61,85.55L770.46,95.92L772.35,83.14L773.3,85.85L777.1,87.99L778.05,85.3L779.94,94.87L780.89,90.41L783.74,89.04L784.69,91.78L785.64,83.33L786.59,94.38L787.53,96.17L790.38,99.79L791.33,90.51L792.28,92.67L794.18,80.87L797.02,88L797.97,91.08L798.92,98.9L799.87,97.51L800.82,103.48L803.67,109.62L804.61,101.46L806.51,88.9L807.46,91.18L811.26,103.18L812.2,93.5L814.1,96.62L816.95,82.93L817.9,77.16L818.85,85.85L820.74,78.07L823.59,87.54L824.54,89.54L825.49,83.65L826.44,80.16L827.39,88.17L832.13,95.62L833.08,99.67L834.03,93.64L836.87,106.8L837.82,106.78L838.77,99.28L839.72,110.23L840.67,108.89L843.52,106.26L844.47,114.77L845.41,105.99L846.36,112.71L847.31,115.92L850.16,100.87L851.11,100.84L852.06,107.26L853,111.84L853.95,126.87L856.8,128.04L857.75,138.13L858.7,137.97L859.65,131.44L860.6,131.45L863.44,135.72L864.39,145.44L865.34,147.33L867.24,131.97L870.08,135.36L873.88,186.08L876.73,196.51L877.67,207.82L878.62,204.58L879.57,220.9L880.52,251.97L883.37,270.13L884.32,264.36L885.27,234.07L886.21,234.13L887.16,217.61L890.01,188.46L890.96,194.38L891.91,185.02L893.8,220.63L896.65,235.97L898.55,216.9L899.5,201.57L900.45,197.23L903.29,200.14L904.24,211.07L905.19,189.62L906.14,181.37L907.09,183.83L909.93,171L910.88,180.95L912.78,169.19L913.73,183.51L916.58,180.55L917.53,183.55L918.47,196.26L919.42,196.14L920.37,195.32L924.17,221.26L925.12,218.15L926.07,222.45L927.01,219.18L929.86,214.68L930.81,208.31L931.76,208.81L932.71,224.6L933.66,221.11L936.5,212.72L937.45,237.6L938.4,240.71L939.35,258.06L940.3,253.87L943.14,255.61L944.09,267.89L945.04,257.12L945.99,241.15L946.94,266.2L949.79,274.91L950.73,249.02L951.68,261.52L952.63,263.46L953.58,277.07L956.43,279.45L957.38,277.03L958.33,287.62L960.22,252.21L963.07,245.29L964.02,227.91L964.97,239.86L965.92,226.59L966.87,228.51L969.71,215.64L970.66,221.32L971.61,218.68L972.56,232.46L973.51,223.12L976.35,231.56L977.3,238.26L978.25,233.03L979.2,237.76L980.15,228.68L983,229.57L983.94,215.13L984.89,211.9L985.84,218.28L986.79,226.91L989.64,239.78L990.59,244.49L991.53,245L993.43,227.4L996.28,226.81L998.18,217.81L999.13,210.93L1000.07,215.32L1002.92,213.33L1003.87,222.99L1004.82,208.7L1006.72,208.36L1009.56,213.29L1010.51,216.54L1011.46,215.8L1012.41,216.19L1013.36,218.39L1016.2,227.19L1017.15,220.43L1018.1,221.13L1019.05,224.72L1020,226.5" style="vector-effect: non-scaling-stroke; fill: none; stroke: rgb(255, 161, 90); stroke-opacity: 1; stroke-width: 2px; opacity: 1;"/></g><g class="points"/><g class="text"/></g><g class="trace scatter trace281664" style="stroke-miterlimit: 2; opacity: 1;"><g class="fills"/><g class="errorbars"/><g class="lines"><path class="js-line" d="M0,90.47L0.95,114.7L1.9,106.3L2.85,97.5L3.8,79.35L6.64,76.01L7.59,80.13L9.49,75.32L10.44,65.85L15.18,81.59L16.13,90.89L19.93,114.01L20.87,112.55L22.77,112.68L23.72,132.16L27.52,111.8L28.47,114.35L29.41,113.66L30.36,117L33.21,120.91L34.16,117.42L36.06,138.58L37,153.29L39.85,146.92L40.8,133.56L42.7,147.27L43.65,167.15L47.44,161.41L48.39,166.74L50.29,191.24L53.13,179.34L54.08,173.3L55.03,172.65L55.98,170.83L56.93,157.2L59.78,170.46L60.73,195.69L61.67,191.61L62.62,181.22L63.57,186.74L66.42,185.51L67.37,194.66L68.32,173.09L69.27,139.45L70.21,141.84L73.06,136.11L74.01,120.81L74.96,123.55L75.91,106.49L76.86,106.97L79.7,112.82L80.65,118.87L81.6,113.3L83.5,119.83L86.34,99.61L87.29,103.46L88.24,112.28L89.19,106.86L90.14,107.05L92.99,101.99L93.93,95.22L95.83,119.72L96.78,161.34L99.63,142.7L100.58,130.24L101.53,136.47L102.47,125.07L106.27,120.89L107.22,106.15L109.12,122.1L110.07,132.49L112.91,127.25L113.86,132.68L115.76,154.15L116.71,143.01L119.55,141.27L120.5,145.78L121.45,157.16L122.4,145.16L126.2,127.52L127.14,118.97L128.09,130.08L129.04,129.57L129.99,139.71L132.84,145.39L133.79,153.49L134.73,145.87L135.68,160.12L136.63,161.78L140.43,146.43L141.38,146.75L143.27,128.39L146.12,127.01L147.07,132.38L148.02,127.17L149.92,140.57L152.76,143.93L155.61,133.78L156.56,151.67L159.4,144.36L160.35,152.62L161.3,148.41L162.25,156.6L163.2,154.67L166.05,145.36L167,147.95L167.94,146.38L168.89,155.13L169.84,151.77L172.69,144.17L174.59,149.36L175.53,149.5L176.48,139.09L179.33,138.38L180.28,132.95L181.23,129.13L182.18,128.8L183.13,127.18L185.97,127.75L187.87,135.04L188.82,125.08L189.77,132.52L192.61,135.78L193.56,134.78L194.51,147.14L195.46,142.45L196.41,147.5L199.26,146.77L200.2,141.05L202.1,134.34L203.05,130.21L205.9,123.53L206.85,116.12L207.8,120.91L208.74,120.71L209.69,112.69L212.54,102.7L214.44,114L215.39,110.82L216.33,111.43L219.18,109.19L220.13,105.19L221.08,104.82L222.98,101.58L225.82,97.53L226.77,100.07L227.72,107.62L229.62,98.47L233.41,97L234.36,93.63L235.31,97.05L236.26,99.7L239.11,101.39L240.06,98.85L241,102.29L242.9,119.48L245.75,127.47L246.7,128.76L247.65,135.59L249.54,124.85L252.39,127.49L253.34,139.41L254.29,139.61L255.24,126.42L256.19,138.09L259.98,133.45L260.93,129.09L261.88,133.1L262.83,141.75L265.67,143.64L266.62,146.61L267.57,154.06L268.52,179.62L269.47,169L272.32,165.85L274.21,183.63L275.16,172.31L276.11,166.68L278.96,163.64L279.91,155.46L280.86,159.95L281.8,156.33L282.75,142.15L286.55,116.51L287.5,121.34L288.45,122.62L289.4,126.83L292.24,116.1L293.19,117.79L295.09,125.73L296.04,141.32L298.88,147.09L299.83,136.05L300.78,134.27L301.73,137.74L302.68,139.5L305.53,150.77L306.47,148.63L307.42,155.04L309.32,150.26L312.17,145.15L313.12,147.74L314.07,139.56L315.01,154.02L315.96,156.78L318.81,144.15L319.76,121.39L320.71,137.18L321.66,140.35L322.6,133.91L325.45,133.04L327.35,128.42L328.3,136.46L329.25,152.64L332.09,138.46L333.04,142.57L333.99,160.46L335.89,139.12L339.68,135.29L341.58,123.41L342.53,128.85L346.33,138.41L347.27,118.22L348.22,120.47L349.17,137.34L352.02,140.08L352.97,143.37L354.87,140.87L355.81,146.54L359.61,137.97L360.56,142.57L361.51,136.24L362.46,142.35L365.3,142.98L366.25,138.16L367.2,138.35L368.15,132.79L369.1,137.48L371.94,134.63L372.89,122.57L373.84,122.15L374.79,115.67L375.74,123.72L378.59,116.87L379.53,117.43L380.48,118.15L381.43,122.61L382.38,129.29L385.23,118.15L386.18,121.08L387.13,128.35L388.07,121.91L389.02,128.05L392.82,132.7L393.77,146.46L394.72,146.45L395.67,152.17L398.51,138.65L399.46,139.03L401.36,151.61L402.31,150.52L406.1,142.11L407.05,132.78L408,124.12L408.95,138.51L411.8,167.91L412.74,162.35L413.69,183.73L414.64,179.84L415.59,193.84L418.44,184.7L421.28,223.08L422.23,215.31L425.08,203L426.03,185.48L426.98,196.41L427.93,195.49L428.87,190.11L431.72,196.91L432.67,216.6L433.62,214.6L434.57,187.47L435.52,196.02L438.36,192.38L439.31,175.02L440.26,181.04L441.21,173.39L445,171.26L445.95,167.34L446.9,140.45L447.85,135.2L448.8,142.87L451.65,146.08L452.6,151.33L453.54,139.82L455.44,127.36L458.29,132.42L459.24,121.41L460.19,122.87L461.13,128.27L462.08,117.85L464.93,118.93L465.88,122.41L466.83,123.53L467.78,120.6L468.73,126.6L471.57,122.83L472.52,123.12L473.47,100.02L475.37,94.23L478.21,91.79L479.16,97.23L480.11,107.45L481.06,106.32L482.01,114.2L485.8,111.93L486.75,123.15L487.7,120.5L488.65,115.21L491.5,110.42L492.45,102.72L493.4,109.83L494.34,108.45L495.29,116.11L498.14,119.81L499.09,118.04L500.04,123.21L501.93,139.92L504.78,138.46L505.73,141.74L506.68,138.33L507.63,133.74L508.58,141.21L513.32,152.65L514.27,143.79L515.22,148.09L518.07,141.94L519.01,143.46L520.91,149.61L521.86,164.92L524.71,161.77L525.66,170.11L526.6,165.71L528.5,145.62L531.35,150.13L532.3,141.09L533.25,143.55L534.2,140.84L535.14,143.09L537.99,153.35L538.94,165.7L540.84,151.24L541.79,153.87L544.63,154.88L545.58,146.72L546.53,147.58L547.48,144.81L551.27,154.9L552.22,151.04L553.17,162.17L554.12,161.83L555.07,153.9L557.92,153.92L558.87,154.17L559.81,158.63L560.76,155.5L561.71,165.72L564.56,160.38L565.51,170.21L566.46,163.29L567.4,166.51L568.35,153.43L571.2,156.18L574.05,187.36L575,185.33L578.79,182.11L579.74,179.7L581.64,208.5L584.48,208.53L591.13,254.67L592.07,255.84L593.02,265.56L593.97,291.36L594.92,300.82L597.77,276.02L598.72,272.24L599.67,278.48L601.56,259.6L604.41,260.32L606.31,240.99L607.26,245.22L608.2,241.26L611.05,244.75L612,245.79L612.95,233.1L613.9,221.67L614.85,226.14L617.69,225.9L618.64,223.44L620.54,238.33L621.49,235.57L624.33,223.92L625.28,226.41L626.23,226.04L627.18,218.14L628.13,212.59L630.98,231.17L632.87,244.26L633.82,231.54L634.77,227.53L637.62,219.61L638.57,209.5L639.52,211.97L641.41,208.36L644.26,211.97L646.16,193.83L647.11,190.54L648.06,190.91L650.9,183.53L652.8,193.08L654.7,184.66L657.54,183.11L658.49,190.53L659.44,201.36L660.39,193.44L661.34,191.95L664.19,197.85L666.08,174.24L667.03,175.27L671.78,189.47L672.73,189.03L673.67,197.68L674.62,194.67L677.47,189.22L678.42,182.05L679.37,177.2L680.32,182.94L681.27,179.56L684.11,179.56L687.91,172.71L690.75,180.49L692.65,177L693.6,170.35L694.55,164.44L697.4,168.67L701.19,182.79L704.04,189.26L704.99,187.06L705.93,201.33L706.88,192.05L707.83,197.32L711.63,201.23L712.58,200.07L714.47,192.72L717.32,190.99L718.27,207.67L719.22,197.92L720.17,187.34L721.12,188.19L723.96,203.03L724.91,203.14L726.81,207.18L727.76,199.18L730.6,189.71L731.55,191.13L732.5,182.64L733.45,181.81L734.4,188.48L738.2,199.12L739.14,185.91L740.09,193.08L741.04,184.09L743.89,172.13L744.84,174.18L745.79,173.35L746.73,174.79L747.68,157.09L750.53,142.4L751.48,152.74L752.43,143.25L753.38,146.55L754.33,143.37L757.17,140.76L758.12,139.34L759.07,148.13L760.02,147.1L760.97,141.03L763.81,143.02L764.76,139.14L765.71,148.15L766.66,149.61L770.46,162.97L771.4,158.14L772.35,153.18L773.3,154.73L777.1,157.51L778.05,160.81L779,168.58L779.94,166.1L780.89,163.64L783.74,165.16L784.69,167.89L785.64,156.22L786.59,170.08L787.53,169.09L790.38,175.63L791.33,161.64L792.28,167.07L793.23,168.11L794.18,164.62L797.02,172.75L798.92,179.9L799.87,179.58L800.82,187.96L803.67,194.08L805.56,177.93L806.51,175.76L810.31,194.88L811.26,192.96L812.2,172.39L813.15,179.42L814.1,185.99L816.95,174.56L817.9,161.86L818.85,165.53L820.74,158.15L823.59,166.48L824.54,174.82L825.49,171.31L826.44,167.39L827.39,174.92L831.18,183.19L832.13,187.13L833.08,187.9L834.03,186.98L837.82,202.98L838.77,195.64L839.72,207.24L840.67,209.59L843.52,205.84L844.47,214.47L845.41,207.7L846.36,215.45L847.31,217.37L850.16,203.01L851.11,201.75L852.06,211.49L853.95,232.23L856.8,230.34L857.75,240.78L858.7,241.23L859.65,231.14L860.6,232.94L863.44,241.93L864.39,248.8L865.34,245.62L867.24,223.76L870.08,230.8L871.03,242.85L871.98,261.89L872.93,262.7L873.88,270.58L876.73,273.64L877.67,284.83L878.62,280.15L879.57,289.12L880.52,315.41L884.32,336.76L885.27,303.82L886.21,304.15L887.16,298.89L890.01,268.74L890.96,270.89L891.91,267.08L892.86,282.57L893.8,295.61L896.65,313.77L899.5,268.73L900.45,266.48L903.29,270.29L904.24,284.2L906.14,261.58L907.09,264.28L909.93,249.95L910.88,257.95L912.78,245.71L913.73,257.89L916.58,254.78L917.53,261.16L918.47,269.94L919.42,271.5L920.37,272L924.17,295.95L925.12,288.06L926.07,297.59L927.01,287.92L929.86,281.71L930.81,276.1L931.76,277.55L933.66,295.64L936.5,291.09L937.45,302.72L938.4,305.09L939.35,320.59L940.3,317.65L943.14,325.32L944.09,338.06L945.99,316.9L946.94,336.82L949.79,344.2L950.73,320.83L953.58,348.48L956.43,355.6L957.38,350.3L958.33,364.8L960.22,326.8L963.07,324.97L964.02,299.48L964.97,314.28L965.92,298.18L966.87,294.98L969.71,280.44L970.66,286.38L971.61,283.4L972.56,295.33L973.51,286.79L976.35,291.91L977.3,291.85L978.25,287.91L979.2,289.96L980.15,281.83L983,278.19L983.94,271.01L984.89,264.76L985.84,277.21L989.64,292.52L990.59,290.7L991.53,289.86L992.48,280.18L993.43,277.69L996.28,283.92L997.23,284.72L998.18,274.73L999.13,259.76L1000.07,262.48L1002.92,259.47L1003.87,271.13L1004.82,253.93L1006.72,256.33L1009.56,258.59L1010.51,266.65L1011.46,266.99L1012.41,274.71L1013.36,273.2L1016.2,284.81L1017.15,278.01L1018.1,277.01L1019.05,280.43L1020,287.48" style="vector-effect: non-scaling-stroke; fill: none; stroke: rgb(254, 203, 82); stroke-opacity: 1; stroke-width: 2px; opacity: 1;"/></g><g class="points"/><g class="text"/></g></g></g><g class="overplot"/><path class="xlines-above crisp" d="M0,0" style="fill: none;"/><path class="ylines-above crisp" d="M0,0" style="fill: none;"/><g class="overlines-above"/><g class="xaxislayer-above"><g class="xtick"><text text-anchor="middle" x="0" y="457" transform="translate(220.79,0)" style="font-family: 'Open Sans', verdana, arial, sans-serif; font-size: 12px; fill: rgb(42, 63, 95); fill-opacity: 1; white-space: pre; opacity: 1;">Jul 2000</text></g><g class="xtick"><text text-anchor="middle" x="0" y="457" style="font-family: 'Open Sans', verdana, arial, sans-serif; font-size: 12px; fill: rgb(42, 63, 95); fill-opacity: 1; white-space: pre; opacity: 1;" transform="translate(395.38,0)">Jan 2001</text></g><g class="xtick"><text text-anchor="middle" x="0" y="457" style="font-family: 'Open Sans', verdana, arial, sans-serif; font-size: 12px; fill: rgb(42, 63, 95); fill-opacity: 1; white-space: pre; opacity: 1;" transform="translate(567.12,0)">Jul 2001</text></g><g class="xtick"><text text-anchor="middle" x="0" y="457" style="font-family: 'Open Sans', verdana, arial, sans-serif; font-size: 12px; fill: rgb(42, 63, 95); fill-opacity: 1; white-space: pre; opacity: 1;" transform="translate(741.7,0)">Jan 2002</text></g><g class="xtick"><text text-anchor="middle" x="0" y="457" style="font-family: 'Open Sans', verdana, arial, sans-serif; font-size: 12px; fill: rgb(42, 63, 95); fill-opacity: 1; white-space: pre; opacity: 1;" transform="translate(913.44,0)">Jul 2002</text></g></g><g class="yaxislayer-above"><g class="ytick"><text text-anchor="end" x="49" y="4.199999999999999" transform="translate(0,376.71)" style="font-family: 'Open Sans', verdana, arial, sans-serif; font-size: 12px; fill: rgb(42, 63, 95); fill-opacity: 1; white-space: pre; opacity: 1;">8k</text></g><g class="ytick"><text text-anchor="end" x="49" y="4.199999999999999" style="font-family: 'Open Sans', verdana, arial, sans-serif; font-size: 12px; fill: rgb(42, 63, 95); fill-opacity: 1; white-space: pre; opacity: 1;" transform="translate(0,309.33000000000004)">9k</text></g><g class="ytick"><text text-anchor="end" x="49" y="4.199999999999999" style="font-family: 'Open Sans', verdana, arial, sans-serif; font-size: 12px; fill: rgb(42, 63, 95); fill-opacity: 1; white-space: pre; opacity: 1;" transform="translate(0,241.95)">10k</text></g><g class="ytick"><text text-anchor="end" x="49" y="4.199999999999999" style="font-family: 'Open Sans', verdana, arial, sans-serif; font-size: 12px; fill: rgb(42, 63, 95); fill-opacity: 1; white-space: pre; opacity: 1;" transform="translate(0,174.56)">11k</text></g><g class="ytick"><text text-anchor="end" x="49" y="4.199999999999999" style="font-family: 'Open Sans', verdana, arial, sans-serif; font-size: 12px; fill: rgb(42, 63, 95); fill-opacity: 1; white-space: pre; opacity: 1;" transform="translate(0,107.18)">12k</text></g></g><g class="overaxes-above"/></g></g><g class="polarlayer"/><g class="ternarylayer"/><g class="geolayer"/><g class="funnelarealayer"/><g class="pielayer"/><g class="iciclelayer"/><g class="treemaplayer"/><g class="sunburstlayer"/><g class="glimages"/><defs id="topdefs-0d0ce7"><g class="clips"/><clipPath id="legend0d0ce7"><rect width="136" height="200" x="0" y="0"/></clipPath></defs><g class="layer-above"><g class="imagelayer"/><g class="shapelayer"/></g><g class="infolayer"><g class="legend" pointer-events="all" transform="translate(1090.4,60)"><rect class="bg" shape-rendering="crispEdges" width="136" height="200" x="0" y="0" style="stroke: rgb(68, 68, 68); stroke-opacity: 1; fill: rgb(255, 255, 255); fill-opacity: 1; stroke-width: 0px;"/><g class="scrollbox" transform="" clip-path="url(#legend0d0ce7)"><g class="groups"><g class="traces" transform="translate(0,14.5)" style="opacity: 1;"><text class="legendtext" text-anchor="start" x="40" y="4.680000000000001" style="font-family: 'Open Sans', verdana, arial, sans-serif; font-size: 12px; fill: rgb(42, 63, 95); fill-opacity: 1; white-space: pre;">Conic =0.1</text><g class="layers" style="opacity: 1;"><g class="legendfill"/><g class="legendlines"><path class="js-line" d="M5,0h30" style="fill: none; stroke: rgb(99, 110, 250); stroke-opacity: 1; stroke-width: 2px;"/></g><g class="legendsymbols"><g class="legendpoints"/></g></g><rect class="legendtoggle" x="0" y="-9.5" width="130.8186798095703" height="19" style="fill: rgb(0, 0, 0); fill-opacity: 0;"/></g><g class="traces" transform="translate(0,33.5)" style="opacity: 1;"><text class="legendtext" text-anchor="start" x="40" y="4.680000000000001" style="font-family: 'Open Sans', verdana, arial, sans-serif; font-size: 12px; fill: rgb(42, 63, 95); fill-opacity: 1; white-space: pre;">Conic =3.275</text><g class="layers" style="opacity: 1;"><g class="legendfill"/><g class="legendlines"><path class="js-line" d="M5,0h30" style="fill: none; stroke: rgb(239, 85, 59); stroke-opacity: 1; stroke-width: 2px;"/></g><g class="legendsymbols"><g class="legendpoints"/></g></g><rect class="legendtoggle" x="0" y="-9.5" width="130.8186798095703" height="19" style="fill: rgb(0, 0, 0); fill-opacity: 0;"/></g><g class="traces" transform="translate(0,52.5)" style="opacity: 1;"><text class="legendtext" text-anchor="start" x="40" y="4.680000000000001" style="font-family: 'Open Sans', verdana, arial, sans-serif; font-size: 12px; fill: rgb(42, 63, 95); fill-opacity: 1; white-space: pre;">Conic =6.45</text><g class="layers" style="opacity: 1;"><g class="legendfill"/><g class="legendlines"><path class="js-line" d="M5,0h30" style="fill: none; stroke: rgb(0, 204, 150); stroke-opacity: 1; stroke-width: 2px;"/></g><g class="legendsymbols"><g class="legendpoints"/></g></g><rect class="legendtoggle" x="0" y="-9.5" width="130.8186798095703" height="19" style="fill: rgb(0, 0, 0); fill-opacity: 0;"/></g><g class="traces" transform="translate(0,71.5)" style="opacity: 1;"><text class="legendtext" text-anchor="start" x="40" y="4.680000000000001" style="font-family: 'Open Sans', verdana, arial, sans-serif; font-size: 12px; fill: rgb(42, 63, 95); fill-opacity: 1; white-space: pre;">Conic =9.625</text><g class="layers" style="opacity: 1;"><g class="legendfill"/><g class="legendlines"><path class="js-line" d="M5,0h30" style="fill: none; stroke: rgb(171, 99, 250); stroke-opacity: 1; stroke-width: 2px;"/></g><g class="legendsymbols"><g class="legendpoints"/></g></g><rect class="legendtoggle" x="0" y="-9.5" width="130.8186798095703" height="19" style="fill: rgb(0, 0, 0); fill-opacity: 0;"/></g><g class="traces" transform="translate(0,90.5)" style="opacity: 1;"><text class="legendtext" text-anchor="start" x="40" y="4.680000000000001" style="font-family: 'Open Sans', verdana, arial, sans-serif; font-size: 12px; fill: rgb(42, 63, 95); fill-opacity: 1; white-space: pre;">Conic =12.8</text><g class="layers" style="opacity: 1;"><g class="legendfill"/><g class="legendlines"><path class="js-line" d="M5,0h30" style="fill: none; stroke: rgb(255, 161, 90); stroke-opacity: 1; stroke-width: 2px;"/></g><g class="legendsymbols"><g class="legendpoints"/></g></g><rect class="legendtoggle" x="0" y="-9.5" width="130.8186798095703" height="19" style="fill: rgb(0, 0, 0); fill-opacity: 0;"/></g><g class="traces" transform="translate(0,109.5)" style="opacity: 0.5;"><text class="legendtext" text-anchor="start" x="40" y="4.680000000000001" style="font-family: 'Open Sans', verdana, arial, sans-serif; font-size: 12px; fill: rgb(42, 63, 95); fill-opacity: 1; white-space: pre;">Mean-Variance</text><g class="layers" style="opacity: 1;"><g class="legendfill"/><g class="legendlines"><path class="js-line" d="M5,0h30" style="fill: none; stroke: rgb(25, 211, 243); stroke-opacity: 1; stroke-width: 2px;"/></g><g class="legendsymbols"><g class="legendpoints"/></g></g><rect class="legendtoggle" x="0" y="-9.5" width="130.8186798095703" height="19" style="fill: rgb(0, 0, 0); fill-opacity: 0;"/></g><g class="traces" transform="translate(0,128.5)" style="opacity: 0.5;"><text class="legendtext" text-anchor="start" x="40" y="4.680000000000001" style="font-family: 'Open Sans', verdana, arial, sans-serif; font-size: 12px; fill: rgb(42, 63, 95); fill-opacity: 1; white-space: pre;">Mean-VaR</text><g class="layers" style="opacity: 1;"><g class="legendfill"/><g class="legendlines"><path class="js-line" d="M5,0h30" style="fill: none; stroke: rgb(255, 102, 146); stroke-opacity: 1; stroke-width: 2px;"/></g><g class="legendsymbols"><g class="legendpoints"/></g></g><rect class="legendtoggle" x="0" y="-9.5" width="130.8186798095703" height="19" style="fill: rgb(0, 0, 0); fill-opacity: 0;"/></g><g class="traces" transform="translate(0,147.5)" style="opacity: 0.5;"><text class="legendtext" text-anchor="start" x="40" y="4.680000000000001" style="font-family: 'Open Sans', verdana, arial, sans-serif; font-size: 12px; fill: rgb(42, 63, 95); fill-opacity: 1; white-space: pre;">Mean-CVaR 95%</text><g class="layers" style="opacity: 1;"><g class="legendfill"/><g class="legendlines"><path class="js-line" d="M5,0h30" style="fill: none; stroke: rgb(182, 232, 128); stroke-opacity: 1; stroke-width: 2px;"/></g><g class="legendsymbols"><g class="legendpoints"/></g></g><rect class="legendtoggle" x="0" y="-9.5" width="130.8186798095703" height="19" style="fill: rgb(0, 0, 0); fill-opacity: 0;"/></g><g class="traces" transform="translate(0,166.5)" style="opacity: 0.5;"><text class="legendtext" text-anchor="start" x="40" y="4.680000000000001" style="font-family: 'Open Sans', verdana, arial, sans-serif; font-size: 12px; fill: rgb(42, 63, 95); fill-opacity: 1; white-space: pre;">Mean-CVaR 99%</text><g class="layers" style="opacity: 1;"><g class="legendfill"/><g class="legendlines"><path class="js-line" d="M5,0h30" style="fill: none; stroke: rgb(255, 151, 255); stroke-opacity: 1; stroke-width: 2px;"/></g><g class="legendsymbols"><g class="legendpoints"/></g></g><rect class="legendtoggle" x="0" y="-9.5" width="130.8186798095703" height="19" style="fill: rgb(0, 0, 0); fill-opacity: 0;"/></g><g class="traces" transform="translate(0,185.5)" style="opacity: 1;"><text class="legendtext" text-anchor="start" x="40" y="4.680000000000001" style="font-family: 'Open Sans', verdana, arial, sans-serif; font-size: 12px; fill: rgb(42, 63, 95); fill-opacity: 1; white-space: pre;">DJIA</text><g class="layers" style="opacity: 1;"><g class="legendfill"/><g class="legendlines"><path class="js-line" d="M5,0h30" style="fill: none; stroke: rgb(254, 203, 82); stroke-opacity: 1; stroke-width: 2px;"/></g><g class="legendsymbols"><g class="legendpoints"/></g></g><rect class="legendtoggle" x="0" y="-9.5" width="130.8186798095703" height="19" style="fill: rgb(0, 0, 0); fill-opacity: 0;"/></g></g></g><rect class="scrollbar" rx="20" ry="3" width="0" height="0" x="0" y="0" style="fill: rgb(128, 139, 164); fill-opacity: 1;"/></g><g class="g-gtitle"/><g class="g-xtitle"/><g class="g-ytitle"/></g></svg>