<svg class="main-svg" xmlns="http://www.w3.org/2000/svg" xmlns:xlink="http://www.w3.org/1999/xlink" width="1238" height="406" style=""><rect x="0" y="0" width="1238" height="406" style="fill: rgb(255, 255, 255); fill-opacity: 1;"/><defs id="defs-45012e"><g class="clips"><clipPath id="clip45012exyplot" class="plotclip"><rect width="1020" height="296"/></clipPath><clipPath class="axesclip" id="clip45012ex"><rect x="50" y="0" width="1020" height="406"/></clipPath><clipPath class="axesclip" id="clip45012ey"><rect x="0" y="60" width="1238" height="296"/></clipPath><clipPath class="axesclip" id="clip45012exy"><rect x="50" y="60" width="1020" height="296"/></clipPath></g><g class="gradients"/><g class="patterns"/></defs><g class="bglayer"><rect class="bg" x="50" y="60" width="1020" height="296" style="fill: rgb(229, 236, 246); fill-opacity: 1; stroke-width: 0;"/></g><g class="layer-below"><g class="imagelayer"/><g class="shapelayer"/></g><g class="cartesianlayer"><g class="subplot xy"><g class="layer-subplot"><g class="shapelayer"/><g class="imagelayer"/></g><g class="gridlayer"><g class="x"><path class="xgrid crisp" transform="translate(220.79,0)" d="M0,60v296" style="stroke: rgb(255, 255, 255); stroke-opacity: 1; stroke-width: 1px;"/><path class="xgrid crisp" transform="translate(395.38,0)" d="M0,60v296" style="stroke: rgb(255, 255, 255); stroke-opacity: 1; stroke-width: 1px;"/><path class="xgrid crisp" transform="translate(567.12,0)" d="M0,60v296" style="stroke: rgb(255, 255, 255); stroke-opacity: 1; stroke-width: 1px;"/><path class="xgrid crisp" transform="translate(741.7,0)" d="M0,60v296" style="stroke: rgb(255, 255, 255); stroke-opacity: 1; stroke-width: 1px;"/><path class="xgrid crisp" transform="translate(913.44,0)" d="M0,60v296" style="stroke: rgb(255, 255, 255); stroke-opacity: 1; stroke-width: 1px;"/></g><g class="y"><path class="ygrid crisp" transform="translate(0,303.88)" d="M50,0h1020" style="stroke: rgb(255, 255, 255); stroke-opacity: 1; stroke-width: 1px;"/><path class="ygrid crisp" transform="translate(0,237.72)" d="M50,0h1020" style="stroke: rgb(255, 255, 255); stroke-opacity: 1; stroke-width: 1px;"/><path class="ygrid crisp" transform="translate(0,171.55)" d="M50,0h1020" style="stroke: rgb(255, 255, 255); stroke-opacity: 1; stroke-width: 1px;"/><path class="ygrid crisp" transform="translate(0,105.39)" d="M50,0h1020" style="stroke: rgb(255, 255, 255); stroke-opacity: 1; stroke-width: 1px;"/></g></g><g class="zerolinelayer"/><path class="xlines-below"/><path class="ylines-below"/><g class="overlines-below"/><g class="xaxislayer-below"/><g class="yaxislayer-below"/><g class="overaxes-below"/><g class="plot" transform="translate(50,60)" clip-path="url(#clip45012exyplot)"><g class="scatterlayer mlayer"><g class="trace scatter trace151648" style="stroke-miterlimit: 2; opacity: 1;"><g class="fills"/><g class="errorbars"/><g class="lines"><path class="js-line" d="M0,111.55L0.95,124.23L1.9,106.38L3.8,75.57L6.64,76.51L7.59,80.43L8.54,81.13L9.49,78.41L10.44,81.92L14.23,97.66L15.18,94.3L17.08,119.88L19.93,124.88L23.72,160.05L26.57,148.5L28.47,158.49L29.41,168.21L30.36,178.47L33.21,183.51L34.16,182.72L35.11,192.48L37,213.26L39.85,213L40.8,201.1L41.75,203.55L42.7,199.48L43.65,213.53L47.44,204L48.39,211.67L50.29,238.61L53.13,231.26L54.08,227.76L55.03,229.83L55.98,231.17L56.93,214.59L59.78,233.69L60.73,255.44L62.62,244.63L63.57,253.78L66.42,250.49L67.37,256.47L69.27,205.61L70.21,218.21L73.06,216.32L74.01,208.31L74.96,221.55L75.91,221.53L76.86,216.14L79.7,218.08L81.6,208.09L82.55,189L83.5,190.43L86.34,172.42L87.29,161.44L88.24,169.79L89.19,166.88L90.14,175.41L92.99,172.5L93.93,163.39L95.83,173.78L96.78,204.89L99.63,202.68L100.58,209.65L101.53,206.77L102.47,190.99L106.27,177.71L107.22,180.38L108.17,189.23L109.12,186.13L110.07,180.1L112.91,174.97L113.86,168.76L114.81,184.59L115.76,187.1L116.71,180.8L119.55,179.71L120.5,178.17L122.4,164.07L123.35,171.01L127.14,150.72L128.09,159.82L129.99,164.83L132.84,156.9L133.79,159.59L134.73,154.07L135.68,172.31L136.63,175.27L140.43,169.47L141.38,176.46L142.33,178.44L143.27,186.16L146.12,185.31L147.07,183.4L148.97,193L149.92,190.63L153.71,194.91L154.66,187.15L155.61,183.33L156.56,187.72L159.4,193L160.35,207.65L161.3,199.49L162.25,207.82L163.2,209.36L166.05,205.94L167,200.58L167.94,204.61L168.89,206.4L169.84,215.5L174.59,200.54L175.53,210.86L176.48,212.39L179.33,210.47L180.28,198.78L181.23,203.54L182.18,206.62L183.13,216.42L185.97,220.85L186.92,217.74L187.87,217.27L188.82,221.01L189.77,226.79L192.61,224.62L193.56,216.41L194.51,219.72L196.41,205.06L199.26,208.86L200.2,205.95L201.15,198.31L202.1,198.8L203.05,197.69L205.9,188.93L206.85,188.78L207.8,196.1L208.74,194.11L209.69,183.95L212.54,186.01L213.49,189.3L214.44,188.49L215.39,190.27L216.33,195.28L219.18,195.75L220.13,194.22L222.03,201.52L222.98,200.54L225.82,202.78L226.77,205.99L228.67,209.93L229.62,209.71L233.41,203.28L234.36,196.18L236.26,208.92L239.11,205.71L240.06,205.57L241,210.6L241.95,214.69L242.9,211.94L245.75,215.22L246.7,219.31L247.65,225.55L248.6,215.91L249.54,198.88L252.39,200.06L253.34,200.72L254.29,197.4L256.19,188.35L259.03,187.25L260.93,174.42L261.88,172.55L262.83,174.8L265.67,173.46L266.62,172.58L267.57,170.38L269.47,188.51L272.32,191.83L273.27,194.01L274.21,198.62L275.16,203.83L276.11,193.77L278.96,181.7L279.91,174.08L280.86,176.27L281.8,167.86L285.6,135.27L286.55,139.71L287.5,138.59L288.45,142.69L293.19,139.57L294.14,129.31L295.09,139.15L296.04,136.83L299.83,129.86L300.78,125.64L301.73,131.07L302.68,123.85L307.42,114.55L309.32,117.51L313.12,128.09L314.07,122.04L315.01,128.56L315.96,123.5L319.76,93.83L320.71,105.66L322.6,107.05L325.45,122.31L326.4,112.46L327.35,112.71L328.3,115.08L329.25,127.26L333.04,109.21L333.99,119.16L335.89,97.74L339.68,89.22L340.63,72.72L341.58,72.88L342.53,77.28L346.33,80.54L348.22,97.11L349.17,105.59L352.02,96.66L352.97,104.6L353.92,110.28L354.87,122.7L355.81,122.77L359.61,114.2L360.56,120.92L361.51,121.28L362.46,128.74L365.3,119.33L366.25,118.37L367.2,124.7L368.15,120.25L369.1,127.77L371.94,130.03L372.89,117.84L374.79,108.51L375.74,113.07L379.53,109.97L380.48,106.01L381.43,111.46L382.38,109.87L386.18,106.6L387.13,116.55L388.07,110.01L389.02,111.47L392.82,111.52L393.77,114.95L394.72,114.48L395.67,122.74L399.46,109.56L400.41,112.29L401.36,112.42L402.31,104.51L405.15,104.61L406.1,108.85L407.05,108.64L408,89.29L408.95,92.31L411.8,112.31L413.69,134.58L414.64,136.41L415.59,144.02L418.44,139.31L421.28,171.37L422.23,172.52L425.08,164.17L426.03,153.57L426.98,154.73L427.93,149.35L428.87,145.32L431.72,147.77L432.67,161.54L433.62,152.28L434.57,138.06L435.52,136.37L438.36,133.94L439.31,124.99L440.26,140.49L441.21,139.8L445.95,124.91L446.9,117.13L448.8,126.79L451.65,122.05L452.6,127.23L453.54,118.94L455.44,109.56L458.29,110.61L459.24,99.43L460.19,102.25L461.13,103.32L462.08,95.65L464.93,96.27L465.88,91.62L466.83,86.54L467.78,85.83L471.57,81.4L472.52,80.43L473.47,62.31L474.42,64.33L475.37,57.16L478.21,61.65L481.06,74.11L482.01,76.65L485.8,68.94L486.75,74.99L487.7,72.16L488.65,75.67L491.5,69.9L492.45,63.47L493.4,65.37L494.34,62.2L495.29,68.79L498.14,69.37L500.04,67.08L500.99,75.9L501.93,82.8L504.78,83.57L505.73,84.2L506.68,85.88L507.63,89.97L508.58,99.91L511.42,103.49L512.37,99.17L514.27,94.53L515.22,102.22L518.07,95.87L519.01,99.79L520.91,100L521.86,107.06L524.71,103.57L525.66,104.2L528.5,96.23L531.35,94.2L532.3,97.6L533.25,92.26L534.2,89.35L535.14,97.12L537.99,106.46L538.94,114.74L540.84,92.85L541.79,98.19L544.63,95.48L545.58,88.13L546.53,91.05L547.48,91.27L548.43,93.28L551.27,96.86L552.22,97.32L553.17,104.31L554.12,103.09L555.07,95.16L559.81,91.85L560.76,89.74L561.71,94.17L564.56,90.81L565.51,91.25L566.46,90.29L567.4,87.8L568.35,78.47L571.2,83.43L572.15,91.57L574.05,103.98L575,105.32L578.79,90.96L579.74,91.91L580.69,96.75L581.64,107.76L584.48,107.96L591.13,141.42L592.07,137.63L593.02,138.24L594.92,172.97L597.77,161.07L598.72,153.04L599.67,156.81L601.56,130.37L604.41,135.61L607.26,107.13L608.2,103.85L611.05,105.19L612,103.9L613.9,79.27L614.85,84.87L617.69,88.54L618.64,86.87L620.54,102.44L621.49,101.2L624.33,91.55L625.28,99.37L627.18,95.57L628.13,88.85L630.98,101.99L631.93,113.41L632.87,121.23L633.82,106.73L634.77,101.39L637.62,101.14L638.57,97.39L639.52,101.82L640.47,106.44L641.41,104.3L644.26,107.62L645.21,97.08L646.16,100.18L647.11,96.65L648.06,91.28L650.9,87.49L651.85,88.68L652.8,92.48L654.7,87.7L657.54,92.05L659.44,103.99L660.39,99.28L661.34,96.46L664.19,97.56L665.13,94.66L666.08,82.25L667.03,90.23L667.98,91.67L670.83,97.93L671.78,98.13L672.73,99.54L673.67,110.55L674.62,105.31L677.47,105.62L678.42,96.37L679.37,97.95L680.32,100.6L681.27,105.86L684.11,105.71L686.01,102.55L686.96,96.91L687.91,100.88L690.75,105.41L692.65,103.21L694.55,92.35L697.4,95.7L698.34,98.88L699.29,109.21L701.19,129.45L704.04,142.69L704.99,145.62L705.93,159.84L706.88,151.04L707.83,149.96L711.63,154.84L712.58,145.16L714.47,133.82L717.32,132.66L718.27,136.54L719.22,130.61L721.12,113.34L723.96,120.03L724.91,125.61L725.86,120.42L726.81,117.82L727.76,110.83L730.6,103.43L731.55,103.53L732.5,96.86L733.45,97.43L734.4,94.74L738.2,105.61L739.14,96.66L740.09,102.84L741.04,89.01L743.89,85.23L744.84,85.75L745.79,85.17L746.73,85.07L747.68,72.62L750.53,65.31L751.48,74.55L752.43,67.59L753.38,71.8L754.33,74.8L757.17,74.62L758.12,69.84L759.07,74.4L760.97,65.23L763.81,67.04L764.76,61.36L765.71,66.87L766.66,65.94L767.61,76.14L770.46,84.6L771.4,76.64L772.35,71.44L773.3,74.01L777.1,77.07L778.05,75.77L779,83.5L779.94,83.78L780.89,76.43L783.74,75.27L784.69,75.9L785.64,65.86L786.59,72.53L787.53,73.48L790.38,78.48L791.33,70.5L792.28,76.09L793.23,75.59L794.18,73.69L797.02,81.86L798.92,91.17L799.87,90.49L803.67,101.86L804.61,85.41L806.51,78.61L807.46,83.9L810.31,95.01L811.26,93.51L813.15,83.69L814.1,84.81L817.9,69.54L818.85,75.81L819.8,74.88L820.74,71.59L823.59,83.69L824.54,83.79L826.44,72.76L827.39,78.33L831.18,81.33L832.13,87.16L833.08,89.09L834.03,86.27L836.87,98.34L837.82,97.84L838.77,89.75L839.72,99.84L840.67,92.54L843.52,90.1L844.47,97.6L845.41,87.77L847.31,98.73L850.16,87.06L851.11,89.38L852.06,94.77L853,98.33L853.95,114.68L856.8,114.93L857.75,118.82L858.7,121.08L859.65,112.32L860.6,109.73L863.44,116.62L864.39,125.57L865.34,123.68L867.24,110.02L870.08,113.55L873.88,163.81L876.73,172.93L877.67,179.86L878.62,179.71L879.57,195.87L880.52,226.92L883.37,242.18L884.32,237.18L885.27,214.12L886.21,210.12L887.16,195.77L890.01,173.9L890.96,182.75L891.91,179.02L893.8,206.02L896.65,217.05L899.5,191.68L900.45,192.03L903.29,193.83L904.24,201.85L906.14,179.05L907.09,179.26L909.93,167.45L910.88,176.91L912.78,169.69L913.73,183.1L916.58,179.85L917.53,181.58L918.47,192.11L919.42,188.36L920.37,188.97L924.17,207L925.12,201.25L926.07,207.96L927.01,201.68L929.86,198.28L931.76,189.65L932.71,202.31L933.66,202.11L936.5,197L937.45,214.58L938.4,215.41L939.35,230.78L940.3,225.96L943.14,227.02L944.09,240.47L945.99,219.98L946.94,240.99L949.79,250.24L950.73,224.26L951.68,238.45L952.63,237.03L953.58,247.28L956.43,249.45L957.38,246.76L958.33,261.61L960.22,224.18L963.07,223.63L964.02,207.7L964.97,213.04L965.92,199.27L966.87,199.99L969.71,184.47L970.66,191.63L971.61,195.03L972.56,209.08L973.51,198.78L976.35,209.87L977.3,216.87L978.25,211.15L979.2,215.4L980.15,206.35L983,207.57L983.94,194.44L984.89,186.66L985.84,196.49L989.64,214.57L990.59,213.46L991.53,211.94L992.48,201.86L993.43,197.09L996.28,199.48L997.23,198.09L998.18,191.52L999.13,184.25L1000.07,187.41L1002.92,184.26L1003.87,192.42L1004.82,178.15L1006.72,174.43L1010.51,190.37L1011.46,190.3L1013.36,194.7L1016.2,203.58L1018.1,196.22L1019.05,203.67L1020,206.33" style="vector-effect: non-scaling-stroke; fill: none; stroke: rgb(99, 110, 250); stroke-opacity: 1; stroke-width: 2px; opacity: 1;"/></g><g class="points"/><g class="text"/></g><g class="trace scatter trace9d44db" style="stroke-miterlimit: 2; opacity: 1;"><g class="fills"/><g class="errorbars"/><g class="lines"><path class="js-line" d="M0,111.55L0.95,124.01L1.9,108.33L3.8,71.57L6.64,72.67L7.59,75.27L8.54,72.91L9.49,68.12L10.44,74.03L15.18,96.36L16.13,108.54L17.08,126.34L19.93,126.53L20.87,139.32L21.82,140.02L23.72,159.18L26.57,143.76L30.36,181.91L33.21,188.44L34.16,192.68L35.11,201.71L37,227.63L39.85,228.33L40.8,210.78L41.75,209.64L42.7,202.01L43.65,216.19L47.44,198.81L48.39,205.99L50.29,232.33L53.13,224.08L54.08,223.25L55.03,226.21L55.98,230.88L56.93,215.65L59.78,234.4L60.73,260.96L61.67,260.63L62.62,252.83L63.57,259.92L66.42,257.73L67.37,259.06L68.32,235.95L69.27,208.96L70.21,225.74L73.06,222.74L74.01,212.59L74.96,228.11L75.91,227.04L76.86,218.32L79.7,222.16L80.65,213.97L81.6,213.77L82.55,192.77L83.5,193.59L86.34,173.76L87.29,161.11L88.24,167.33L89.19,164.83L90.14,174.49L92.99,170.86L93.93,162.69L94.88,168.35L95.83,165.75L96.78,200.57L99.63,193.33L100.58,201.03L101.53,199.03L102.47,182.87L106.27,166.34L107.22,166.27L108.17,180.82L109.12,175.55L110.07,164.84L112.91,159.7L113.86,155.23L114.81,170.1L115.76,168.54L116.71,162.93L120.5,162.45L121.45,158.55L122.4,149.83L123.35,156.97L126.2,141.84L127.14,130.72L129.04,144.92L129.99,147.15L132.84,137.65L133.79,138.87L134.73,127.21L135.68,145.13L136.63,149.7L140.43,141.04L141.38,151.78L142.33,151.39L143.27,164.56L146.12,162.21L147.07,161.11L148.02,166.97L148.97,177.98L149.92,169.94L153.71,173.4L154.66,165.46L155.61,161.99L156.56,169.31L159.4,180.18L160.35,200.52L161.3,192.36L162.25,204.26L163.2,208.61L166.05,200.5L167,198.4L167.94,200.19L168.89,200.99L169.84,217.51L174.59,196.23L175.53,207.1L176.48,213.88L179.33,210.75L180.28,201.54L181.23,203.99L182.18,208.8L183.13,220.02L185.97,221.16L186.92,219.27L187.87,218.71L188.82,223.1L189.77,229.58L192.61,222.44L193.56,210.23L194.51,212.63L196.41,200.46L199.26,201.19L200.2,200.25L201.15,194.55L202.1,194.18L203.05,190.34L205.9,181.97L206.85,186.1L207.8,188.27L208.74,182.82L209.69,172.01L212.54,176.04L213.49,172.57L214.44,172.88L215.39,168L216.33,174.94L219.18,169.99L220.13,166.55L221.08,173.23L222.03,173.74L222.98,173.41L225.82,175.16L227.72,180.69L228.67,181.6L229.62,184.59L233.41,180.31L234.36,172.58L235.31,184.11L236.26,192.64L239.11,186.31L240.06,186.84L241,190.83L241.95,194.09L242.9,192.05L245.75,197.76L246.7,193.86L247.65,200.8L248.6,186.78L249.54,173.05L252.39,173.09L253.34,172.93L254.29,168.89L255.24,158.57L256.19,158.3L259.03,152.76L259.98,142.62L261.88,136.48L262.83,140.38L265.67,138.98L266.62,140.97L268.52,137.83L269.47,146.19L272.32,151.37L273.27,151.04L275.16,164.78L276.11,144.57L278.96,128.73L279.91,114.53L280.86,112.53L281.8,106.37L285.6,67.38L286.55,78.53L288.45,90.85L289.4,90.63L292.24,84.23L293.19,84.58L294.14,73.28L295.09,79.58L296.04,71.59L298.88,72.47L300.78,70.75L301.73,73.94L302.68,63.97L305.53,58.2L306.47,55.13L307.42,55.19L309.32,59.34L312.17,72.08L313.12,73.06L314.07,69.01L315.01,72.88L315.96,66.75L319.76,33.97L320.71,47.38L321.66,47.13L322.6,45.92L325.45,62.41L326.4,56.49L327.35,55.17L328.3,60.54L329.25,76.05L332.09,63.16L333.04,54.4L333.99,64.76L335.89,51.13L339.68,38.01L340.63,22.12L341.58,25.86L342.53,32.03L346.33,41.31L348.22,67.98L349.17,77.66L352.02,67.05L352.97,77.91L355.81,102.38L359.61,91.08L360.56,97.73L361.51,92.58L362.46,96.09L365.3,93.27L366.25,91.31L367.2,98.22L368.15,96.82L369.1,105.1L371.94,112L372.89,93.55L373.84,91.26L374.79,85.58L375.74,90.06L378.59,84.31L379.53,85.04L380.48,84.38L381.43,84.63L382.38,83.35L385.23,82.13L386.18,84.63L387.13,94.47L388.07,84.5L392.82,88.79L393.77,85.8L394.72,83.99L395.67,95.81L398.51,89.75L399.46,84.91L400.41,87.29L401.36,86.96L402.31,79.96L405.15,79.46L407.05,89.47L408,67.53L408.95,73.21L411.8,95.68L413.69,113.32L414.64,114.72L415.59,123.36L418.44,120.57L420.33,149.19L421.28,160.74L422.23,159.71L425.08,151.85L426.03,138.52L426.98,137.24L428.87,124.94L431.72,127.25L432.67,143.79L433.62,139.17L434.57,120.94L435.52,122.53L438.36,118.92L439.31,108.43L440.26,123.05L441.21,119.65L445.95,103.62L446.9,94.01L447.85,97.15L448.8,104.89L451.65,101.44L452.6,107.08L454.49,87.97L455.44,83.02L458.29,86.09L459.24,76.02L460.19,73.56L461.13,73.28L462.08,61.68L464.93,60.44L466.83,50.21L467.78,50.59L471.57,46.95L472.52,44.82L473.47,21.62L474.42,28.57L475.37,22.03L478.21,29.17L481.06,41.74L482.01,43.24L485.8,35.71L486.75,41.48L487.7,36.85L488.65,41.52L491.5,33.19L492.45,27.41L493.4,28.31L494.34,25.17L495.29,34.67L498.14,35.43L499.09,33.02L500.04,33.44L501.93,47.7L504.78,45L507.63,53.37L508.58,62.09L511.42,65.51L512.37,61.22L514.27,51.72L515.22,63.76L518.07,57.39L519.01,60.62L520.91,59.02L521.86,66.71L524.71,63.77L525.66,65.69L526.6,65.49L527.55,64.25L528.5,66.77L531.35,65.64L532.3,75.85L533.25,68.54L534.2,65.49L535.14,74.79L537.99,86.47L538.94,93.66L540.84,75.46L541.79,78.92L544.63,77.11L545.58,69.36L548.43,73.18L551.27,78.02L552.22,76.95L553.17,83.03L554.12,81.3L555.07,72.4L557.92,68.45L558.87,69.83L559.81,71.18L560.76,70.85L561.71,76.57L564.56,71.85L565.51,72.33L566.46,70.88L567.4,66.36L568.35,54.89L571.2,60.19L572.15,69.32L574.05,80.23L575,82L579.74,68.68L580.69,73.75L581.64,81.16L584.48,77.16L591.13,117.73L592.07,118.03L593.02,122.33L593.97,148.18L594.92,161.47L597.77,141.19L598.72,130.42L599.67,135.82L601.56,106.08L604.41,110.41L607.26,82.58L608.2,82.3L612,78.97L612.95,65.93L613.9,49.47L614.85,52L617.69,55.54L618.64,55.36L621.49,77.47L624.33,61.89L625.28,72.04L626.23,71.33L627.18,71.92L628.13,64.62L630.98,75.44L631.93,85.44L632.87,94.8L633.82,74.89L634.77,69.48L637.62,68.02L638.57,65.71L639.52,70.35L640.47,73.96L641.41,74L644.26,80.25L645.21,67.59L646.16,72.32L647.11,67.99L648.06,62.79L650.9,58.73L651.85,60.02L652.8,62.76L654.7,58.74L657.54,60.1L659.44,73.07L660.39,66.83L664.19,70.93L665.13,67.85L666.08,58.2L667.03,67.06L667.98,67.32L670.83,72.63L672.73,75.31L673.67,90.28L674.62,89.47L677.47,88.92L678.42,76.46L679.37,76.12L680.32,80.09L681.27,88.89L686.01,88.14L686.96,81.77L687.91,86.11L690.75,90.16L692.65,85.23L693.6,78.16L694.55,74.21L697.4,80.81L698.34,84.57L699.29,93.03L701.19,115.37L704.04,130.27L704.99,134.22L705.93,152.16L707.83,139.55L711.63,147.99L713.53,128.88L714.47,117.13L717.32,120.26L718.27,125.81L719.22,118.43L720.17,104.14L721.12,97.46L723.96,107.5L724.91,111.76L725.86,104.94L727.76,94.26L730.6,90.59L731.55,89.61L732.5,82.39L733.45,82.8L734.4,78.97L738.2,90.98L739.14,79.76L740.09,88.06L741.04,72.83L743.89,66.54L744.84,67.84L746.73,63.68L747.68,49.45L750.53,44.52L751.48,52.34L752.43,44.69L753.38,49.29L754.33,53.58L757.17,54.31L758.12,49.48L759.07,55.01L760.97,47.57L763.81,50.18L764.76,46.49L765.71,53.83L766.66,52.26L767.61,59.87L770.46,70.19L771.4,61.4L772.35,57.34L773.3,60.63L777.1,60.96L778.05,59.16L779,66.69L779.94,66.83L780.89,56.52L783.74,55.62L784.69,53.07L785.64,40.69L786.59,49.77L787.53,51.16L790.38,58L791.33,48.77L793.23,54.3L794.18,53.23L797.02,60.19L797.97,65.7L799.87,71.61L800.82,74.1L803.67,84.24L804.61,64.57L805.56,63.36L806.51,60.06L807.46,66.17L810.31,75.3L811.26,74.06L812.2,67.36L813.15,62.49L814.1,64.83L817.9,50.9L818.85,58.53L819.8,57.75L820.74,51.1L823.59,68.62L824.54,66.79L826.44,51.89L827.39,57.95L831.18,59.98L832.13,66.1L833.08,65.92L834.03,61.93L837.82,75.39L838.77,66.76L839.72,79.53L840.67,73.02L843.52,73.87L844.47,81.43L845.41,69.91L846.36,80.68L847.31,83.31L850.16,70.26L851.11,71.31L852.06,77.37L853,80.26L853.95,98.3L856.8,102.07L857.75,108.47L858.7,110.4L859.65,101.98L860.6,99.67L863.44,102.86L865.34,116.53L867.24,99.68L870.08,100.43L871.03,115.68L872.93,147.76L873.88,152.49L876.73,163.9L877.67,171.48L878.62,171.8L879.57,188.18L880.52,221.07L883.37,234.38L884.32,228.61L885.27,205.71L886.21,196.97L887.16,179.36L890.01,152.8L890.96,159.02L891.91,155.56L892.86,173.64L893.8,183.89L896.65,197.96L899.5,160.25L900.45,165.33L903.29,166.55L904.24,177.97L905.19,159.56L906.14,156.4L907.09,155.45L909.93,145.03L910.88,155.92L911.83,155.84L912.78,152.35L913.73,168.02L916.58,164.68L917.53,165.41L918.47,176.41L919.42,173.38L920.37,173.85L924.17,192.87L925.12,184.75L926.07,188.23L927.01,181.95L929.86,179.92L930.81,173.07L931.76,173.09L933.66,192.57L936.5,187.26L937.45,200.62L938.4,200.14L939.35,216.59L940.3,211.28L943.14,210.85L944.09,224.02L945.99,202.01L946.94,229.82L949.79,237.2L950.73,207.85L951.68,228.39L952.63,229.37L953.58,243.26L956.43,242.57L957.38,242.61L958.33,254.29L960.22,213.51L963.07,215.32L964.02,198.46L964.97,204.3L965.92,186.87L966.87,191.06L969.71,172.58L970.66,182.81L971.61,189.58L972.56,203.17L973.51,187.76L976.35,198.63L977.3,206.66L978.25,198.89L979.2,202.39L980.15,192.16L983,191.17L983.94,178.95L984.89,169.45L985.84,180.7L986.79,182.66L989.64,196.51L990.59,197.46L991.53,194.24L993.43,181.53L996.28,185.55L999.13,163.79L1000.07,168.06L1002.92,163.81L1003.87,173.44L1004.82,160.82L1006.72,152.42L1010.51,171.49L1011.46,170.53L1013.36,175.28L1016.2,183.4L1018.1,172.11L1019.05,183.06L1020,185.64" style="vector-effect: non-scaling-stroke; fill: none; stroke: rgb(255, 161, 90); stroke-opacity: 1; stroke-width: 2px; opacity: 1;"/></g><g class="points"/><g class="text"/></g><g class="trace scatter trace93673e" style="stroke-miterlimit: 2; opacity: 1;"><g class="fills"/><g class="errorbars"/><g class="lines"><path class="js-line" d="M0,111.55L0.95,125.09L1.9,105.65L3.8,79.13L6.64,81.36L8.54,85.59L9.49,85.1L14.23,101.92L15.18,99.09L17.08,119.29L19.93,124.96L23.72,165.78L26.57,153.39L28.47,163.4L29.41,174.53L30.36,183.42L33.21,188.66L34.16,188.03L35.11,196.84L37,216.8L39.85,216.23L40.8,206.22L41.75,209.49L42.7,204.69L43.65,218.62L47.44,211.63L48.39,218.89L50.29,244.45L53.13,237.58L55.03,235.97L55.98,236.94L56.93,221.74L59.78,242.41L60.73,260.3L61.67,254.36L62.62,247.11L63.57,255.87L66.42,253.72L67.37,261.81L69.27,209.6L70.21,221.71L73.06,219.56L74.01,211.68L74.96,225.69L75.91,225.88L76.86,220.32L79.7,222.21L81.6,211.25L82.55,193.24L83.5,195.55L86.34,179.3L87.29,166.98L88.24,176.09L89.19,175.11L90.14,183.87L92.99,182.52L93.93,172.33L95.83,182.99L96.78,213.81L99.63,212.94L100.58,219.49L101.53,215.71L102.47,201.24L107.22,186.15L108.17,195.89L109.12,193.19L110.07,186.7L112.91,182.68L113.86,178.89L114.81,193.13L115.76,194.89L116.71,189.16L119.55,187.83L120.5,185.15L121.45,174.89L122.4,169.14L123.35,177.49L127.14,160.75L128.09,171.06L129.99,175.68L132.84,167.21L133.79,171.05L134.73,163.55L135.68,181.57L136.63,184.53L140.43,179.02L141.38,187.52L142.33,190.05L143.27,194.76L146.12,193.85L147.07,191.49L148.97,198.83L149.92,196.02L152.76,201.81L153.71,199.66L155.61,185.75L156.56,188.33L159.4,192.64L160.35,207.88L161.3,200.38L162.25,205.43L163.2,205.28L166.05,203.5L167,198.62L167.94,201.51L168.89,203.55L169.84,214.24L174.59,197.97L175.53,208.81L176.48,210.12L179.33,207.15L180.28,196.1L181.23,199.92L182.18,202.08L183.13,212.63L185.97,218.63L186.92,216.32L187.87,215.75L188.82,219.09L189.77,223.82L192.61,221.32L193.56,212.79L194.51,214.85L196.41,197.88L199.26,203.26L200.2,200.41L201.15,191.86L202.1,192.88L203.05,192.05L205.9,184.25L206.85,184.35L207.8,192.25L208.74,189.69L209.69,180.54L212.54,182.7L214.44,187.86L215.39,189.77L216.33,194.35L219.18,195.08L220.13,195.58L221.08,199.82L222.03,202.34L222.98,201.66L225.82,202.28L226.77,206.52L228.67,212.04L229.62,211.23L233.41,204.38L234.36,199.48L236.26,209.53L239.11,207.55L240.06,206.98L241,211.98L241.95,217.09L242.9,214.88L245.75,216.53L246.7,220.01L247.65,227.12L248.6,216.88L249.54,199.46L252.39,201.75L253.34,201.22L254.29,197.96L256.19,187.63L259.03,189.17L260.93,174.93L261.88,171.4L262.83,173.52L265.67,172.07L266.62,170.75L267.57,171.28L269.47,189.91L272.32,192.18L273.27,191.96L274.21,197.8L275.16,203.39L276.11,197.01L279.91,177.02L280.86,176.89L285.6,134.81L286.55,138.38L287.5,137.6L288.45,142.17L289.4,142.06L292.24,138.89L293.19,138.86L294.14,129.27L295.09,135.91L296.04,134.22L299.83,125.41L300.78,121.76L301.73,128L302.68,121.91L305.53,117.36L306.47,118.6L307.42,112.54L309.32,117.82L312.17,126.27L313.12,126.48L314.07,119.83L315.01,125.72L315.96,123.48L318.81,99.77L319.76,95.61L320.71,106.93L322.6,109.71L325.45,125.84L326.4,116.36L327.35,116.27L328.3,118.1L329.25,134.14L333.04,119.33L333.99,131.25L335.89,108.97L339.68,101.66L340.63,86.16L341.58,87.02L342.53,90.75L346.33,92.85L348.22,111.2L349.17,118.52L352.02,109.05L352.97,116.08L353.92,122.04L354.87,136.34L355.81,136.58L359.61,128.51L360.56,134.16L361.51,131.73L362.46,139.87L365.3,130L366.25,128.59L367.2,135.62L368.15,131.97L369.1,140.06L371.94,143.02L372.89,131.71L374.79,120.89L375.74,125.52L379.53,121.94L380.48,119.3L381.43,124.33L382.38,123.9L386.18,121.06L387.13,130.59L388.07,125.19L389.02,127.43L392.82,127.16L393.77,133.07L394.72,131.32L395.67,138.52L399.46,125.05L400.41,128.35L401.36,128.28L402.31,121.16L405.15,123.58L406.1,128.34L407.05,129.92L408,110.89L408.95,114.83L411.8,131.92L413.69,153.38L414.64,154.5L415.59,161.95L418.44,158.24L421.28,187.22L422.23,189.27L425.08,182.95L426.03,171.46L426.98,173.09L427.93,166.67L428.87,162.23L431.72,163.76L432.67,175.77L433.62,166.82L434.57,153.73L435.52,152.62L438.36,150.78L439.31,143.12L440.26,157.96L441.21,158.41L445.95,143.28L446.9,136.88L447.85,139.54L448.8,144.87L451.65,140.99L452.6,145.31L454.49,132.24L455.44,129.78L458.29,130.73L459.24,119.14L461.13,123.32L462.08,115.94L464.93,115.98L465.88,111.04L466.83,106.81L467.78,107.05L472.52,100.99L473.47,82.46L474.42,84.8L475.37,77.36L478.21,81.37L479.16,87.11L481.06,91.27L482.01,93.42L485.8,86.76L486.75,92.45L487.7,89.52L488.65,92.95L491.5,87.97L492.45,79.92L493.4,81.77L494.34,78.54L495.29,84.12L498.14,83.94L499.09,83.74L500.04,82.33L501.93,98.61L504.78,99.77L505.73,99.79L506.68,102.03L507.63,105.6L508.58,115.49L511.42,118.56L512.37,113.72L514.27,105.35L515.22,112.67L518.07,106.49L519.01,110.3L520.91,110.89L521.86,118.49L524.71,113.91L525.66,114.52L528.5,105.32L531.35,101.01L532.3,107.95L533.25,102.34L534.2,100.7L535.14,110.23L537.99,121.05L538.94,129.61L540.84,106.25L541.79,112.48L544.63,109.45L545.58,101.78L547.48,106.35L548.43,107.63L552.22,111.62L553.17,117.93L554.12,116.44L555.07,108.65L558.87,106.1L559.81,106.53L560.76,103.5L561.71,107.96L564.56,102.99L565.51,104.02L566.46,103.94L567.4,100.94L568.35,90.81L571.2,97.39L574.05,115.78L575,117.29L578.79,103.28L579.74,102.84L581.64,119.85L584.48,119.47L591.13,149.39L592.07,144.02L593.02,142.56L593.97,163.66L594.92,177.54L597.77,164.72L598.72,156.2L599.67,159.42L601.56,134.63L604.41,139.73L606.31,116.58L607.26,114.01L608.2,111.11L611.05,111.56L612,109.73L612.95,97.71L613.9,84.83L614.85,90.95L617.69,94.15L618.64,92.45L620.54,106.4L621.49,104.84L624.33,96.32L625.28,104.6L627.18,101.83L628.13,96.7L630.98,108.9L631.93,121.03L632.87,129.83L633.82,115.04L634.77,109.04L637.62,108.81L638.57,105.2L639.52,110.09L640.47,114.99L641.41,113.44L644.26,116.36L645.21,105.14L646.16,106.4L647.11,101.1L648.06,97.58L650.9,93.77L652.8,99.12L654.7,94.42L657.54,99.69L658.49,107.93L659.44,111.21L660.39,107.05L661.34,103.71L664.19,104.33L665.13,101.96L666.08,90.48L667.98,101.22L670.83,106.83L671.78,107.66L672.73,110.08L673.67,121.3L674.62,113.94L677.47,114.8L678.42,106.45L681.27,116.85L684.11,117.66L686.01,114.56L686.96,108.93L687.91,113.14L690.75,117.71L692.65,114.98L693.6,109.54L694.55,106.17L697.4,109.6L698.34,112.06L699.29,123.27L701.19,141.99L704.04,154.37L704.99,157.55L705.93,170.11L706.88,162.49L707.83,161.53L711.63,166.4L712.58,157.17L714.47,147.54L717.32,145.65L718.27,148.88L719.22,144.13L721.12,126.93L723.96,132.76L724.91,136.59L725.86,132L726.81,129.56L727.76,123.11L730.6,116.46L731.55,116.23L732.5,107.94L733.45,108.74L734.4,106.26L738.2,117.35L739.14,108.73L740.09,115.49L741.04,102.04L743.89,100.17L744.84,101.05L745.79,99.65L746.73,99.88L747.68,88.36L750.53,83.06L751.48,91.83L752.43,85.52L753.38,90.78L754.33,94.23L757.17,95.47L758.12,90.08L759.07,93.76L760.97,85.9L763.81,87.93L764.76,83.36L765.71,88.12L766.66,86.16L767.61,96.18L770.46,103.44L771.4,94.74L772.35,91.45L773.3,93.74L777.1,97.49L778.05,95.72L779,102.34L779.94,101.84L780.89,95.08L783.74,94.51L784.69,96.04L785.64,86.8L786.59,94.14L787.53,94.67L790.38,101.15L791.33,92.03L792.28,98.01L793.23,96.99L794.18,96.04L797.02,104.43L798.92,114.15L799.87,113.99L803.67,125.25L804.61,109.57L806.51,103.4L807.46,108.74L810.31,118.49L811.26,117.49L813.15,108.26L814.1,109.58L817.9,93.95L818.85,99.62L819.8,98.54L820.74,95.28L823.59,107.63L824.54,107.43L826.44,96.42L827.39,101.78L831.18,104.85L832.13,110.23L833.08,111.86L834.03,109.88L836.87,122.25L837.82,122L838.77,113.06L839.72,124.11L840.67,118.01L843.52,115.65L844.47,122.99L845.41,113.1L847.31,123.63L850.16,113.02L851.11,115.77L852.06,121.69L853,123.92L853.95,139.14L856.8,138.54L857.75,142.7L858.7,143.46L859.65,134.79L860.6,131.78L863.44,137.6L864.39,146.99L865.34,143.95L867.24,132.07L870.08,135L873.88,185.88L876.73,193.81L877.67,199.98L878.62,201.18L880.52,247.98L883.37,264.69L884.32,259.68L885.27,239.65L886.21,236.76L887.16,220.33L890.01,200.54L890.96,209.78L891.91,203.2L892.86,218.4L893.8,227.48L896.65,238.53L898.55,226.75L899.5,217.77L900.45,217.73L903.29,219.22L904.24,226.45L905.19,209.87L906.14,204.23L907.09,204.2L909.93,193.29L910.88,202.1L912.78,193.94L913.73,206.36L916.58,203.43L917.53,205.66L918.47,217.62L919.42,214.26L920.37,215.8L924.17,233.64L925.12,227.74L926.07,235.29L927.01,228.54L929.86,224.35L931.76,214.03L932.71,227.17L936.5,220.7L937.45,238.81L938.4,239.29L939.35,254.34L940.3,249.64L943.14,251.22L944.09,262.81L945.04,255.3L945.99,246.2L946.94,265.91L949.79,275.74L950.73,250.56L951.68,264.13L952.63,261.19L953.58,268.82L956.43,271.82L957.38,268.2L958.33,281.2L960.22,243.98L963.07,243.57L964.02,228.2L964.97,236.48L965.92,223.51L966.87,223.74L969.71,209.91L970.66,215.02L971.61,220.8L972.56,232.99L973.51,222.88L976.35,233.13L977.3,240.1L978.25,234.19L979.2,238.79L980.15,230.19L983,231.23L983.94,219.99L984.89,212.81L985.84,221.67L989.64,239.19L990.59,237.49L991.53,236.67L992.48,226.9L993.43,221.85L996.28,223.45L997.23,223.35L998.18,218.28L999.13,210.92L1000.07,213.53L1002.92,210.57L1003.87,217.45L1004.82,203.37L1006.72,200.45L1010.51,216.73L1011.46,216.66L1012.41,218.15L1013.36,221.1L1016.2,229.77L1017.15,225.74L1018.1,223.57L1019.05,230.8L1020,232.79" style="vector-effect: non-scaling-stroke; fill: none; stroke: rgb(25, 211, 243); stroke-opacity: 1; stroke-width: 2px; opacity: 1;"/></g><g class="points"/><g class="text"/></g><g class="trace scatter trace9aaa4e" style="stroke-miterlimit: 2; opacity: 1;"><g class="fills"/><g class="errorbars"/><g class="lines"><path class="js-line" d="M0,111.55L0.95,122.07L1.9,102.52L3.8,70.29L6.64,74.32L7.59,76.06L8.54,73.86L9.49,69.98L10.44,75.5L14.23,90.09L15.18,85.9L17.08,112.64L19.93,116.98L22.77,144.33L23.72,155.62L26.57,140.96L27.52,144.34L29.41,161.17L30.36,172.57L34.16,180.72L35.11,190.07L37,209.15L39.85,208.5L40.8,193.48L41.75,195.6L42.7,191.44L43.65,205.01L47.44,189.74L48.39,197.82L50.29,221.73L53.13,213.08L54.08,208.98L55.03,211.5L55.98,217.03L56.93,201.79L59.78,220.71L60.73,234.4L61.67,231.07L62.62,223.84L63.57,234.26L66.42,232.95L67.37,238.22L68.32,211.88L69.27,184.09L70.21,199.94L73.06,198.58L74.01,188.05L74.96,205.24L75.91,207.03L76.86,198.22L79.7,200.25L81.6,188.84L82.55,168.16L83.5,171.83L86.34,148.45L87.29,137.99L88.24,148.61L89.19,143.94L90.14,155.07L92.99,155.11L93.93,143.61L95.83,151.21L96.78,179.54L99.63,181.37L100.58,189.7L101.53,184.92L102.47,166.89L107.22,151.04L108.17,161.07L109.12,158.47L110.07,152.01L112.91,146.48L113.86,139.03L114.81,155.25L115.76,154.71L116.71,150.38L119.55,148.86L120.5,146.17L121.45,137.43L122.4,131.47L123.35,139.57L127.14,117.97L128.09,129.89L129.04,130.35L129.99,131.77L132.84,122.36L133.79,123.8L134.73,116.31L135.68,134.93L136.63,139L140.43,133.53L143.27,153.61L146.12,152.05L147.07,149.86L148.02,157.38L148.97,161.98L149.92,160.5L153.71,162.69L154.66,154.41L155.61,147.73L156.56,151.63L159.4,163.46L160.35,181.32L161.3,173.72L162.25,184.34L163.2,185.01L166.05,180.98L167,174.01L167.94,178.18L168.89,178.83L169.84,192.59L174.59,173.85L175.53,182.9L176.48,187.83L179.33,184.42L180.28,169.99L181.23,178.39L182.18,181.16L183.13,192.4L185.97,196.44L186.92,195.18L187.87,193.1L188.82,198.91L189.77,204.79L192.61,201.67L193.56,192.04L194.51,195.18L196.41,178.76L199.26,182.41L200.2,180.59L201.15,172.47L202.1,174.84L203.05,172.66L205.9,162.29L206.85,163.23L207.8,170.21L208.74,167.72L209.69,156.68L212.54,158.03L213.49,161.77L214.44,161.09L215.39,159.94L216.33,165.81L219.18,165.56L220.13,163.2L222.03,169.71L222.98,169.76L225.82,172.9L226.77,178.81L228.67,182.16L229.62,182.01L233.41,174.57L234.36,169.03L236.26,186.53L239.11,181.44L240.06,182.52L241,189.51L241.95,194.35L242.9,190.85L245.75,195.11L246.7,198.1L247.65,206.66L248.6,196.81L249.54,180.26L252.39,182.64L253.34,181.37L254.29,175.37L256.19,165.61L259.03,165.89L259.98,153.25L260.93,150.84L261.88,151.39L262.83,154.6L265.67,150.27L266.62,146.77L267.57,147.1L268.52,154.08L269.47,163.71L272.32,168.59L273.27,169.57L274.21,176.52L275.16,182.86L276.11,167.44L279.91,141.13L280.86,142.22L282.75,128.01L285.6,100.55L286.55,104.92L287.5,100.9L288.45,108.5L289.4,109.87L293.19,105.28L294.14,93.61L295.09,103.54L296.04,100.21L298.88,99.06L299.83,95.67L300.78,92.13L301.73,97.48L302.68,90.43L305.53,86.31L307.42,83.46L309.32,86.55L313.12,95.18L314.07,90.41L315.01,92.85L315.96,86.69L319.76,52.72L320.71,64.98L321.66,65.46L322.6,62.74L325.45,79.42L326.4,72.98L327.35,70.74L328.3,76.26L329.25,90.26L332.09,74.49L333.04,62L333.99,70.59L335.89,50.21L339.68,40.67L340.63,23.6L341.58,24.1L342.53,31.05L346.33,35.78L348.22,59.61L349.17,70.06L352.02,58.78L352.97,69.68L353.92,76.27L354.87,90.33L359.61,77.06L360.56,85.92L361.51,86.92L362.46,96.13L366.25,82.22L367.2,87.96L368.15,83.9L369.1,93.13L371.94,97.7L372.89,83.42L373.84,73.7L374.79,72.15L375.74,76.78L378.59,73.02L379.53,73.66L380.48,69.52L381.43,73.56L382.38,69.82L385.23,68.26L386.18,69.35L387.13,79.52L388.07,74.08L389.02,74.85L392.82,74.59L393.77,78.81L394.72,78.76L395.67,89.56L398.51,79.44L399.46,75.45L400.41,76.4L401.36,75.68L402.31,66.47L405.15,67.76L406.1,72.81L407.05,70.92L408,49.75L408.95,52.15L411.8,74.57L413.69,96.87L414.64,99.07L415.59,106.14L418.44,102.54L421.28,139.63L422.23,139.99L425.08,131.65L426.03,121.02L426.98,121.93L427.93,117.59L428.87,111.51L431.72,113.43L432.67,128.37L433.62,119.24L434.57,103.86L435.52,102.44L438.36,99.65L439.31,86.79L440.26,102.22L441.21,101.72L445.95,84.66L446.9,75.36L448.8,86.28L451.65,79.49L452.6,85.59L453.54,77.51L455.44,66.33L458.29,69.79L459.24,60.58L460.19,61.95L461.13,62.3L462.08,52.27L464.93,54.6L465.88,49.61L466.83,44.02L467.78,44.46L468.73,43.62L471.57,38.79L472.52,38.11L473.47,19.46L474.42,21.91L475.37,14.8L478.21,19.91L479.16,26.51L481.06,35.13L482.01,36.44L485.8,29.68L486.75,34.49L487.7,31.49L488.65,35L491.5,27.97L492.45,22.34L493.4,25.42L494.34,23.66L495.29,31.41L498.14,32.83L499.09,33.74L500.04,33.01L501.93,48.58L504.78,49.2L506.68,53.38L507.63,57.08L508.58,67.2L511.42,69.88L514.27,57.45L515.22,68.24L518.07,60.92L519.01,65.11L520.91,63.75L521.86,70.74L524.71,67.94L525.66,68.95L527.55,67.47L528.5,66.77L531.35,66.13L532.3,74.09L534.2,61.02L535.14,67.94L537.99,80.18L538.94,89.62L540.84,66.2L541.79,71.52L544.63,70.2L545.58,63.96L546.53,67.69L547.48,67.9L548.43,68.95L551.27,74.1L552.22,74.15L553.17,80.48L554.12,80L555.07,72.46L558.87,70.04L559.81,67.62L560.76,68.21L561.71,72.27L566.46,65.83L567.4,61.23L568.35,50.32L571.2,56.04L574.05,74.11L575,74.93L578.79,60.6L579.74,61.37L581.64,76.53L584.48,78.03L591.13,112.23L592.07,112.01L593.02,114.68L593.97,140.37L594.92,151.91L597.77,136.56L598.72,127.99L599.67,133.35L601.56,102.64L604.41,108.54L607.26,81.17L608.2,78.41L611.05,78.51L612,75.67L613.9,48.85L614.85,53.93L617.69,60.03L618.64,57.46L620.54,72.56L621.49,72.09L624.33,59.13L625.28,65.9L626.23,64.92L627.18,62.61L628.13,55.86L630.98,68.13L632.87,90.75L633.82,74.17L634.77,68.07L637.62,68.73L638.57,65.47L639.52,70.67L640.47,75.06L641.41,72.83L644.26,76.81L645.21,64.83L646.16,68.89L647.11,68.37L648.06,63.33L650.9,60.16L651.85,59.61L652.8,62.36L654.7,56.72L657.54,62.91L659.44,73.72L660.39,69.4L661.34,65.62L664.19,67.48L665.13,65.2L666.08,52.97L667.03,63.92L667.98,64.39L672.73,75.95L673.67,90.67L674.62,86.3L677.47,86.86L678.42,75.98L679.37,78.34L680.32,80.15L681.27,86.46L684.11,85.79L686.01,82.72L686.96,77.58L687.91,81.48L690.75,85.43L692.65,82.58L694.55,70.63L697.4,74.72L698.34,78.47L699.29,89.04L701.19,112.7L704.04,129.07L704.99,132.52L705.93,149.27L707.83,137.36L711.63,142.07L714.47,114.45L717.32,116.24L718.27,120.91L719.22,113.52L721.12,96.49L723.96,103.63L724.91,110.23L725.86,101.02L727.76,92.05L730.6,84.65L731.55,85.56L732.5,80.61L733.45,80.06L734.4,75.06L738.2,87.09L739.14,77.11L740.09,81.7L741.04,66.2L743.89,63.49L744.84,64.79L746.73,61.18L747.68,48.74L750.53,42.62L751.48,51.93L752.43,43.53L753.38,45.83L754.33,49.53L757.17,49.44L758.12,43.62L759.07,48.77L760.97,40.18L763.81,41.63L764.76,36.5L765.71,41.77L766.66,40.25L767.61,49.55L770.46,58.52L771.4,47.18L772.35,42.66L773.3,46.45L777.1,47.8L778.05,45.22L779.94,55.37L780.89,45.95L784.69,40.74L785.64,29.88L787.53,37.96L790.38,43.23L791.33,33.54L792.28,36.41L793.23,37.6L794.18,36.01L797.97,48.1L798.92,54.93L799.87,56.02L800.82,58.5L803.67,67.18L804.61,49.83L806.51,42.56L807.46,47.29L810.31,58.57L811.26,55.52L812.2,52.58L813.15,46.1L814.1,46.61L816.95,36.22L817.9,32.7L818.85,42.64L819.8,40.93L820.74,36.79L823.59,50.02L824.54,48.58L826.44,36.5L827.39,42.42L831.18,45.23L832.13,50.95L833.08,53.94L834.03,47.75L836.87,61.4L837.82,61.39L838.77,53.98L839.72,66.5L840.67,59.74L843.52,58.93L844.47,65.73L845.41,54.19L847.31,67.26L850.16,53.5L853,63.44L853.95,81.71L856.8,82L857.75,85.56L858.7,88.88L859.65,79.57L860.6,75.34L863.44,80.03L864.39,90.62L865.34,89.05L867.24,75.78L870.08,78.25L871.03,90.7L871.98,113.02L873.88,137.17L876.73,146.68L877.67,154.49L878.62,154.86L879.57,173.26L880.52,207.43L883.37,223.47L884.32,218.65L885.27,193.19L886.21,188.49L887.16,171.33L890.01,147.84L890.96,159.66L891.91,155.43L893.8,184.49L896.65,197.08L899.5,165.11L900.45,166.93L903.29,169.3L904.24,178.98L906.14,153.63L907.09,154.32L909.93,143.53L910.88,153.29L912.78,145.94L913.73,161.08L916.58,156.49L917.53,157.17L918.47,168.53L919.42,164.74L920.37,163.4L924.17,182.36L925.12,177.82L926.07,184.83L927.01,178.22L929.86,176.65L930.81,169.34L931.76,169.51L933.66,186.88L936.5,180.2L937.45,197.6L938.4,197.43L939.35,214.2L940.3,207.59L943.14,209.56L944.09,223.37L945.99,201.13L946.94,224.17L949.79,233.78L950.73,203.71L951.68,221.48L952.63,221.34L953.58,232.2L956.43,232.52L957.38,232.34L958.33,245.17L960.22,209.14L963.07,208.44L964.02,191.92L964.97,201.39L965.92,189.19L966.87,192.68L969.71,174.42L970.66,183.31L971.61,187.86L972.56,201.03L973.51,187.93L976.35,200L977.3,209.71L978.25,203.75L979.2,208.72L980.15,197.38L983,201.4L983.94,186.59L984.89,178.03L985.84,188.55L989.64,205.33L990.59,205L991.53,203.16L992.48,193.97L993.43,190.64L996.28,193.13L998.18,185.77L999.13,178.43L1000.07,183.11L1002.92,179.72L1003.87,186.55L1004.82,172.5L1006.72,166.3L1009.56,177.6L1010.51,181.22L1011.46,180.44L1013.36,184.77L1016.2,193.9L1018.1,183.82L1019.05,191.95L1020,194.16" style="vector-effect: non-scaling-stroke; fill: none; stroke: rgb(255, 151, 255); stroke-opacity: 1; stroke-width: 2px; opacity: 1;"/></g><g class="points"/><g class="text"/></g></g></g><g class="overplot"/><path class="xlines-above crisp" d="M0,0" style="fill: none;"/><path class="ylines-above crisp" d="M0,0" style="fill: none;"/><g class="overlines-above"/><g class="xaxislayer-above"><g class="xtick"><text text-anchor="middle" x="0" y="369" transform="translate(220.79,0)" style="font-family: 'Open Sans', verdana, arial, sans-serif; font-size: 12px; fill: rgb(42, 63, 95); fill-opacity: 1; white-space: pre; opacity: 1;">Jul 2000</text></g><g class="xtick"><text text-anchor="middle" x="0" y="369" style="font-family: 'Open Sans', verdana, arial, sans-serif; font-size: 12px; fill: rgb(42, 63, 95); fill-opacity: 1; white-space: pre; opacity: 1;" transform="translate(395.38,0)">Jan 2001</text></g><g class="xtick"><text text-anchor="middle" x="0" y="369" style="font-family: 'Open Sans', verdana, arial, sans-serif; font-size: 12px; fill: rgb(42, 63, 95); fill-opacity: 1; white-space: pre; opacity: 1;" transform="translate(567.12,0)">Jul 2001</text></g><g class="xtick"><text text-anchor="middle" x="0" y="369" style="font-family: 'Open Sans', verdana, arial, sans-serif; font-size: 12px; fill: rgb(42, 63, 95); fill-opacity: 1; white-space: pre; opacity: 1;" transform="translate(741.7,0)">Jan 2002</text></g><g class="xtick"><text text-anchor="middle" x="0" y="369" style="font-family: 'Open Sans', verdana, arial, sans-serif; font-size: 12px; fill: rgb(42, 63, 95); fill-opacity: 1; white-space: pre; opacity: 1;" transform="translate(913.44,0)">Jul 2002</text></g></g><g class="yaxislayer-above"><g class="ytick"><text text-anchor="end" x="49" y="4.199999999999999" transform="translate(0,303.88)" style="font-family: 'Open Sans', verdana, arial, sans-serif; font-size: 12px; fill: rgb(42, 63, 95); fill-opacity: 1; white-space: pre; opacity: 1;">0.8</text></g><g class="ytick"><text text-anchor="end" x="49" y="4.199999999999999" style="font-family: 'Open Sans', verdana, arial, sans-serif; font-size: 12px; fill: rgb(42, 63, 95); fill-opacity: 1; white-space: pre; opacity: 1;" transform="translate(0,237.72)">0.9</text></g><g class="ytick"><text text-anchor="end" x="49" y="4.199999999999999" style="font-family: 'Open Sans', verdana, arial, sans-serif; font-size: 12px; fill: rgb(42, 63, 95); fill-opacity: 1; white-space: pre; opacity: 1;" transform="translate(0,171.55)">1</text></g><g class="ytick"><text text-anchor="end" x="49" y="4.199999999999999" style="font-family: 'Open Sans', verdana, arial, sans-serif; font-size: 12px; fill: rgb(42, 63, 95); fill-opacity: 1; white-space: pre; opacity: 1;" transform="translate(0,105.39)">1.1</text></g></g><g class="overaxes-above"/></g></g><g class="polarlayer"/><g class="ternarylayer"/><g class="geolayer"/><g class="funnelarealayer"/><g class="pielayer"/><g class="iciclelayer"/><g class="treemaplayer"/><g class="sunburstlayer"/><g class="glimages"/><defs id="topdefs-45012e"><g class="clips"/><clipPath id="legend45012e"><rect width="136" height="181" x="0" y="0"/></clipPath></defs><g class="layer-above"><g class="imagelayer"/><g class="shapelayer"/></g><g class="infolayer"><g class="legend" pointer-events="all" transform="translate(1090.4,60)"><rect class="bg" shape-rendering="crispEdges" width="136" height="181" x="0" y="0" style="stroke: rgb(68, 68, 68); stroke-opacity: 1; fill: rgb(255, 255, 255); fill-opacity: 1; stroke-width: 0px;"/><g class="scrollbox" transform="" clip-path="url(#legend45012e)"><g class="groups"><g class="traces" transform="translate(0,14.5)" style="opacity: 1;"><text class="legendtext" text-anchor="start" x="40" y="4.680000000000001" style="font-family: 'Open Sans', verdana, arial, sans-serif; font-size: 12px; fill: rgb(42, 63, 95); fill-opacity: 1; white-space: pre;">Conic γ=0.1</text><g class="layers" style="opacity: 1;"><g class="legendfill"/><g class="legendlines"><path class="js-line" d="M5,0h30" style="fill: none; stroke: rgb(99, 110, 250); stroke-opacity: 1; stroke-width: 2px;"/></g><g class="legendsymbols"><g class="legendpoints"/></g></g><rect class="legendtoggle" x="0" y="-9.5" width="130.8186798095703" height="19" style="fill: rgb(0, 0, 0); fill-opacity: 0;"/></g><g class="traces" transform="translate(0,33.5)" style="opacity: 0.5;"><text class="legendtext" text-anchor="start" x="40" y="4.680000000000001" style="font-family: 'Open Sans', verdana, arial, sans-serif; font-size: 12px; fill: rgb(42, 63, 95); fill-opacity: 1; white-space: pre;">Conic γ=3.275</text><g class="layers" style="opacity: 1;"><g class="legendfill"/><g class="legendlines"><path class="js-line" d="M5,0h30" style="fill: none; stroke: rgb(239, 85, 59); stroke-opacity: 1; stroke-width: 2px;"/></g><g class="legendsymbols"><g class="legendpoints"/></g></g><rect class="legendtoggle" x="0" y="-9.5" width="130.8186798095703" height="19" style="fill: rgb(0, 0, 0); fill-opacity: 0;"/></g><g class="traces" transform="translate(0,52.5)" style="opacity: 0.5;"><text class="legendtext" text-anchor="start" x="40" y="4.680000000000001" style="font-family: 'Open Sans', verdana, arial, sans-serif; font-size: 12px; fill: rgb(42, 63, 95); fill-opacity: 1; white-space: pre;">Conic γ=6.45</text><g class="layers" style="opacity: 1;"><g class="legendfill"/><g class="legendlines"><path class="js-line" d="M5,0h30" style="fill: none; stroke: rgb(0, 204, 150); stroke-opacity: 1; stroke-width: 2px;"/></g><g class="legendsymbols"><g class="legendpoints"/></g></g><rect class="legendtoggle" x="0" y="-9.5" width="130.8186798095703" height="19" style="fill: rgb(0, 0, 0); fill-opacity: 0;"/></g><g class="traces" transform="translate(0,71.5)" style="opacity: 0.5;"><text class="legendtext" text-anchor="start" x="40" y="4.680000000000001" style="font-family: 'Open Sans', verdana, arial, sans-serif; font-size: 12px; fill: rgb(42, 63, 95); fill-opacity: 1; white-space: pre;">Conic γ=9.625</text><g class="layers" style="opacity: 1;"><g class="legendfill"/><g class="legendlines"><path class="js-line" d="M5,0h30" style="fill: none; stroke: rgb(171, 99, 250); stroke-opacity: 1; stroke-width: 2px;"/></g><g class="legendsymbols"><g class="legendpoints"/></g></g><rect class="legendtoggle" x="0" y="-9.5" width="130.8186798095703" height="19" style="fill: rgb(0, 0, 0); fill-opacity: 0;"/></g><g class="traces" transform="translate(0,90.5)" style="opacity: 1;"><text class="legendtext" text-anchor="start" x="40" y="4.680000000000001" style="font-family: 'Open Sans', verdana, arial, sans-serif; font-size: 12px; fill: rgb(42, 63, 95); fill-opacity: 1; white-space: pre;">Conic γ=12.8</text><g class="layers" style="opacity: 1;"><g class="legendfill"/><g class="legendlines"><path class="js-line" d="M5,0h30" style="fill: none; stroke: rgb(255, 161, 90); stroke-opacity: 1; stroke-width: 2px;"/></g><g class="legendsymbols"><g class="legendpoints"/></g></g><rect class="legendtoggle" x="0" y="-9.5" width="130.8186798095703" height="19" style="fill: rgb(0, 0, 0); fill-opacity: 0;"/></g><g class="traces" transform="translate(0,109.5)" style="opacity: 1;"><text class="legendtext" text-anchor="start" x="40" y="4.680000000000001" style="font-family: 'Open Sans', verdana, arial, sans-serif; font-size: 12px; fill: rgb(42, 63, 95); fill-opacity: 1; white-space: pre;">Mean-Variance</text><g class="layers" style="opacity: 1;"><g class="legendfill"/><g class="legendlines"><path class="js-line" d="M5,0h30" style="fill: none; stroke: rgb(25, 211, 243); stroke-opacity: 1; stroke-width: 2px;"/></g><g class="legendsymbols"><g class="legendpoints"/></g></g><rect class="legendtoggle" x="0" y="-9.5" width="130.8186798095703" height="19" style="fill: rgb(0, 0, 0); fill-opacity: 0;"/></g><g class="traces" transform="translate(0,128.5)" style="opacity: 0.5;"><text class="legendtext" text-anchor="start" x="40" y="4.680000000000001" style="font-family: 'Open Sans', verdana, arial, sans-serif; font-size: 12px; fill: rgb(42, 63, 95); fill-opacity: 1; white-space: pre;">Mean-VaR</text><g class="layers" style="opacity: 1;"><g class="legendfill"/><g class="legendlines"><path class="js-line" d="M5,0h30" style="fill: none; stroke: rgb(255, 102, 146); stroke-opacity: 1; stroke-width: 2px;"/></g><g class="legendsymbols"><g class="legendpoints"/></g></g><rect class="legendtoggle" x="0" y="-9.5" width="130.8186798095703" height="19" style="fill: rgb(0, 0, 0); fill-opacity: 0;"/></g><g class="traces" transform="translate(0,147.5)" style="opacity: 0.5;"><text class="legendtext" text-anchor="start" x="40" y="4.680000000000001" style="font-family: 'Open Sans', verdana, arial, sans-serif; font-size: 12px; fill: rgb(42, 63, 95); fill-opacity: 1; white-space: pre;">Mean-CVaR 95%</text><g class="layers" style="opacity: 1;"><g class="legendfill"/><g class="legendlines"><path class="js-line" d="M5,0h30" style="fill: none; stroke: rgb(182, 232, 128); stroke-opacity: 1; stroke-width: 2px;"/></g><g class="legendsymbols"><g class="legendpoints"/></g></g><rect class="legendtoggle" x="0" y="-9.5" width="130.8186798095703" height="19" style="fill: rgb(0, 0, 0); fill-opacity: 0;"/></g><g class="traces" transform="translate(0,166.5)" style="opacity: 1;"><text class="legendtext" text-anchor="start" x="40" y="4.680000000000001" style="font-family: 'Open Sans', verdana, arial, sans-serif; font-size: 12px; fill: rgb(42, 63, 95); fill-opacity: 1; white-space: pre;">Mean-CVaR 99%</text><g class="layers" style="opacity: 1;"><g class="legendfill"/><g class="legendlines"><path class="js-line" d="M5,0h30" style="fill: none; stroke: rgb(255, 151, 255); stroke-opacity: 1; stroke-width: 2px;"/></g><g class="legendsymbols"><g class="legendpoints"/></g></g><rect class="legendtoggle" x="0" y="-9.5" width="130.8186798095703" height="19" style="fill: rgb(0, 0, 0); fill-opacity: 0;"/></g></g></g><rect class="scrollbar" rx="20" ry="3" width="0" height="0" x="0" y="0" style="fill: rgb(128, 139, 164); fill-opacity: 1;"/></g><g class="g-gtitle"/><g class="g-xtitle"/><g class="g-ytitle"/></g></svg>