<svg class="main-svg" xmlns="http://www.w3.org/2000/svg" xmlns:xlink="http://www.w3.org/1999/xlink" width="1238" height="494" style=""><rect x="0" y="0" width="1238" height="494" style="fill: rgb(255, 255, 255); fill-opacity: 1;"/><defs id="defs-5219a8"><g class="clips"><clipPath id="clip5219a8xyplot" class="plotclip"><rect width="1020" height="384"/></clipPath><clipPath class="axesclip" id="clip5219a8x"><rect x="50" y="0" width="1020" height="494"/></clipPath><clipPath class="axesclip" id="clip5219a8y"><rect x="0" y="60" width="1238" height="384"/></clipPath><clipPath class="axesclip" id="clip5219a8xy"><rect x="50" y="60" width="1020" height="384"/></clipPath></g><g class="gradients"/><g class="patterns"/></defs><g class="bglayer"><rect class="bg" x="50" y="60" width="1020" height="384" style="fill: rgb(229, 236, 246); fill-opacity: 1; stroke-width: 0;"/></g><g class="layer-below"><g class="imagelayer"/><g class="shapelayer"/></g><g class="cartesianlayer"><g class="subplot xy"><g class="layer-subplot"><g class="shapelayer"/><g class="imagelayer"/></g><g class="gridlayer"><g class="x"><path class="xgrid crisp" transform="translate(220.79,0)" d="M0,60v384" style="stroke: rgb(255, 255, 255); stroke-opacity: 1; stroke-width: 1px;"/><path class="xgrid crisp" transform="translate(395.38,0)" d="M0,60v384" style="stroke: rgb(255, 255, 255); stroke-opacity: 1; stroke-width: 1px;"/><path class="xgrid crisp" transform="translate(567.12,0)" d="M0,60v384" style="stroke: rgb(255, 255, 255); stroke-opacity: 1; stroke-width: 1px;"/><path class="xgrid crisp" transform="translate(741.7,0)" d="M0,60v384" style="stroke: rgb(255, 255, 255); stroke-opacity: 1; stroke-width: 1px;"/><path class="xgrid crisp" transform="translate(913.44,0)" d="M0,60v384" style="stroke: rgb(255, 255, 255); stroke-opacity: 1; stroke-width: 1px;"/></g><g class="y"><path class="ygrid crisp" transform="translate(0,377.7)" d="M50,0h1020" style="stroke: rgb(255, 255, 255); stroke-opacity: 1; stroke-width: 1px;"/><path class="ygrid crisp" transform="translate(0,311.7)" d="M50,0h1020" style="stroke: rgb(255, 255, 255); stroke-opacity: 1; stroke-width: 1px;"/><path class="ygrid crisp" transform="translate(0,245.7)" d="M50,0h1020" style="stroke: rgb(255, 255, 255); stroke-opacity: 1; stroke-width: 1px;"/><path class="ygrid crisp" transform="translate(0,179.7)" d="M50,0h1020" style="stroke: rgb(255, 255, 255); stroke-opacity: 1; stroke-width: 1px;"/><path class="ygrid crisp" transform="translate(0,113.7)" d="M50,0h1020" style="stroke: rgb(255, 255, 255); stroke-opacity: 1; stroke-width: 1px;"/></g></g><g class="zerolinelayer"/><path class="xlines-below"/><path class="ylines-below"/><g class="overlines-below"/><g class="xaxislayer-below"/><g class="yaxislayer-below"/><g class="overaxes-below"/><g class="plot" transform="translate(50,60)" clip-path="url(#clip5219a8xyplot)"><g class="scatterlayer mlayer"><g class="trace scatter trace6a6997" style="stroke-miterlimit: 2; opacity: 1;"><g class="fills"/><g class="errorbars"/><g class="lines"><path class="js-line" d="M0,96.11L0.95,111.98L1.9,92.28L3.8,57.37L6.64,60.51L7.59,63.36L8.54,63.21L9.49,61.25L10.44,64.72L14.23,78.92L15.18,77.45L17.08,101.97L19.93,109.04L22.77,145.38L23.72,153.8L26.57,137.82L27.52,144.6L28.47,151.22L29.41,164.01L30.36,175.07L33.21,179.74L34.16,178.97L35.11,189.83L37,216.27L39.85,215.64L40.8,203.54L41.75,206.13L42.7,200.41L43.65,215.85L47.44,207.68L48.39,216.57L50.29,245.99L53.13,237.17L55.03,234.21L55.98,234.33L56.93,220.92L59.78,243.83L60.73,265.67L61.67,261.53L62.62,251.28L63.57,263.99L66.42,260.5L67.37,266.75L69.27,212.64L70.21,226.59L73.06,226.46L74.01,218.41L74.96,233.44L75.91,235.14L76.86,229.46L79.7,233.27L81.6,217.79L82.55,198.05L83.5,200.12L86.34,182.74L87.29,166.5L88.24,176.05L89.19,175.49L90.14,184.64L92.99,183.2L93.93,173.39L95.83,182.72L96.78,217.46L99.63,215.3L100.58,223.44L101.53,216.98L102.47,198.49L106.27,184.07L107.22,185.52L108.17,196.75L109.12,193.11L110.07,189.02L112.91,182.8L113.86,179.99L114.81,194.57L115.76,196.53L116.71,189.81L119.55,188.34L120.5,186.24L122.4,166.06L123.35,174.71L126.2,161.26L127.14,153.1L129.04,168.15L129.99,169.45L132.84,158.74L133.79,161.72L134.73,152.72L135.68,172.39L136.63,173.39L140.43,170.5L141.38,180.44L142.33,181.99L143.27,192.41L146.12,191.68L147.07,186.11L148.02,190.22L148.97,197.52L149.92,194.49L152.76,200.55L153.71,198.58L155.61,186.33L156.56,190.72L159.4,194.25L160.35,211.63L161.3,200.84L162.25,208.64L163.2,208.63L166.05,201.04L167,198.29L167.94,203.07L168.89,206.46L169.84,214.74L174.59,200.15L175.53,209.2L176.48,210.63L179.33,210.42L180.28,200.67L181.23,206.81L182.18,211.89L183.13,221.6L185.97,226.71L186.92,222.39L187.87,222.77L188.82,226.89L189.77,234.19L192.61,230.35L193.56,220.12L194.51,221.12L196.41,201.96L199.26,208.32L200.2,204.41L201.15,194.05L202.1,196.28L203.05,195.03L205.9,186L206.85,187.84L207.8,197.52L208.74,193.95L209.69,182.23L212.54,183.85L213.49,187.53L214.44,185.77L215.39,187.66L216.33,193.24L220.13,190.37L221.08,195.53L222.03,199.6L222.98,198.58L225.82,200.79L226.77,205.08L228.67,211.86L229.62,211.62L233.41,205.2L234.36,199.05L236.26,210.43L239.11,206.36L240.06,203.07L241,210.12L241.95,215.12L242.9,208.85L245.75,209.96L246.7,212.88L247.65,220.44L248.6,208.96L249.54,188.25L252.39,189.31L253.34,188.41L254.29,183.35L256.19,171.38L259.03,171.28L261.88,156.21L262.83,157.83L265.67,156.46L266.62,153.45L267.57,149.54L268.52,159.95L269.47,170.23L272.32,173.72L273.27,172.43L274.21,177.35L275.16,182.74L276.11,168.64L279.91,149.72L280.86,148.04L285.6,103.36L286.55,111.6L287.5,110.56L288.45,116.57L289.4,118.26L292.24,114.72L293.19,115.58L294.14,102.92L295.09,108.34L296.04,103.38L299.83,94.76L300.78,90.35L301.73,94.22L302.68,85.45L306.47,75.56L307.42,68.58L313.12,89.4L314.07,83.64L315.96,93.84L318.81,69.93L319.76,69.26L320.71,82.22L321.66,79.56L322.6,84.18L325.45,103.25L326.4,88.9L327.35,87.39L328.3,88.22L329.25,105.04L332.09,92.94L333.04,89.99L333.99,100.88L335.89,80.6L339.68,70.09L340.63,52.75L341.58,54.39L342.53,56.58L346.33,53.2L348.22,88.52L349.17,93.66L352.02,81.23L352.97,85.52L353.92,91.6L354.87,106.08L355.81,107L359.61,100.78L360.56,107.09L361.51,106.33L362.46,112.02L365.3,100.44L366.25,100.42L367.2,109.69L368.15,105.88L369.1,115.16L371.94,118.75L372.89,106.77L374.79,95.79L375.74,100.13L379.53,94.11L380.48,91.5L381.43,95.66L382.38,93.41L385.23,92.02L386.18,90.24L387.13,102.03L388.07,98.61L389.02,97.47L392.82,95.7L393.77,99.33L394.72,97.47L395.67,104.2L398.51,98.59L399.46,94.21L400.41,99.11L401.36,100.17L402.31,91.75L405.15,93.72L406.1,98.84L407.05,102.65L408,80.6L408.95,82.44L411.8,100.42L413.69,124.39L414.64,126.33L415.59,136.33L418.44,133.52L421.28,166.53L422.23,171.85L425.08,162.31L426.03,149.27L426.98,151.67L427.93,143.39L428.87,137.66L431.72,140.61L432.67,154.66L433.62,144.79L435.52,127.45L438.36,125.23L439.31,119.33L440.26,137.01L441.21,136.31L445,121.65L446.9,116.28L447.85,119.13L448.8,125.52L451.65,118.59L452.6,122.74L453.54,112.97L455.44,105.73L458.29,104.89L459.24,90.74L460.19,96.27L461.13,97.85L462.08,90.27L464.93,89.09L465.88,84.5L466.83,77.99L467.78,79.55L468.73,76.11L471.57,73.1L472.52,72.25L473.47,54.64L474.42,57.41L475.37,47.15L479.16,60.07L480.11,63.82L481.06,62.79L482.01,64.76L485.8,56.36L486.75,60.89L487.7,58.4L488.65,63.14L491.5,57.6L492.45,48.62L493.4,51.54L494.34,48.39L495.29,54.63L498.14,53.27L500.04,50.45L500.99,59.74L501.93,70.74L504.78,71.35L505.73,72.44L506.68,76.05L507.63,79.72L508.58,90.7L511.42,93.22L512.37,87.76L514.27,81.81L515.22,89.9L518.07,86.09L519.01,89.19L520.91,90.36L521.86,97.35L525.66,92.08L526.6,87.83L528.5,84.22L531.35,77.91L532.3,83.18L533.25,78.54L534.2,76.21L535.14,86.11L537.99,96.42L538.94,103.91L540.84,79.74L541.79,86.5L544.63,82.61L545.58,74.61L548.43,81.3L551.27,83.9L552.22,83.6L553.17,90.52L554.12,88.87L555.07,80.97L558.87,78.14L559.81,78.64L560.76,72.44L561.71,77.58L564.56,71.62L565.51,73.16L566.46,72.34L567.4,69.18L568.35,59.69L571.2,66.98L574.05,87.72L575,90.93L579.74,73.51L580.69,79.02L581.64,90.53L584.48,87.08L591.13,116.79L592.07,111.09L593.02,110.63L593.97,135.51L594.92,154.04L597.77,144.99L598.72,135.07L599.67,139.04L601.56,109.68L604.41,113.85L607.26,80.75L608.2,77.6L612,75.84L612.95,62.04L613.9,51.3L614.85,57.6L617.69,60.61L618.64,58.73L620.54,76.92L621.49,75.04L624.33,65.67L625.28,76.75L627.18,74.21L628.13,66.51L630.98,81.02L631.93,94.96L632.87,103.75L633.82,87.53L634.77,82.04L637.62,81.78L638.57,78.62L639.52,84.8L640.47,91.4L641.41,88.47L644.26,91.16L645.21,79.64L646.16,85.16L647.11,82.56L648.06,77.13L650.9,75.43L652.8,79.6L654.7,74.65L657.54,80.27L658.49,90.56L659.44,93.48L660.39,85.87L661.34,83.12L664.19,81.52L665.13,78.31L666.08,67.88L667.03,79.14L667.98,79.6L670.83,84.15L671.78,88.21L672.73,90.06L673.67,100.58L674.62,91.99L677.47,92.33L678.42,85.19L679.37,85.61L681.27,92.89L684.11,92.51L686.01,88.09L686.96,81.88L687.91,86.86L690.75,92.02L692.65,89.53L693.6,84.15L694.55,82.63L697.4,85.28L698.34,85.82L699.29,97.12L701.19,115.42L704.04,125L704.99,126.98L705.93,140.27L706.88,131.73L707.83,131.9L711.63,136.73L712.58,125.82L714.47,118.57L717.32,115.49L718.27,118.77L719.22,111.49L721.12,92.4L723.96,98.59L724.91,102.14L725.86,97.75L726.81,96.51L727.76,91.09L731.55,83.93L732.5,75.14L733.45,75.54L734.4,72.39L738.2,83.25L739.14,73.26L740.09,81.41L741.04,64.87L743.89,62.14L744.84,62.83L746.73,61.72L747.68,48.08L750.53,42.58L751.48,51.76L752.43,44.82L753.38,50.23L754.33,53.16L757.17,54.2L758.12,47.69L759.07,51.43L760.02,48.8L760.97,43.81L763.81,46.33L764.76,40.98L765.71,45.88L766.66,41.34L767.61,52.95L770.46,62.35L772.35,48.28L773.3,50.76L777.1,54.42L778.05,51.62L779,59.19L779.94,59.28L780.89,54.02L783.74,51.56L784.69,54.87L785.64,44.77L787.53,51.55L790.38,56.11L791.33,47.49L792.28,56.67L794.18,53.51L797.02,60.65L798.92,72.03L799.87,70.61L800.82,74.91L803.67,81.03L805.56,59.1L806.51,57.96L807.46,63.7L810.31,74.78L811.26,74.05L812.2,69L813.15,64.96L814.1,65.94L817.9,48.25L818.85,55.19L820.74,51.38L823.59,64.57L824.54,64.14L825.49,54.34L826.44,51.32L827.39,58.28L831.18,62.06L832.13,65.31L833.08,67.42L834.03,64.25L836.87,77.58L837.82,77.02L838.77,66.04L839.72,76.47L840.67,69.51L843.52,65.87L844.47,73.68L845.41,62.02L847.31,73.86L850.16,61.77L853,72.52L853.95,90.52L856.8,91.71L857.75,99.07L858.7,100.53L859.65,92.31L860.6,89.17L863.44,95.67L864.39,106.05L865.34,104.69L867.24,90.52L870.08,92.84L873.88,151.98L876.73,162.15L877.67,169.29L878.62,170.44L880.52,224.1L883.37,241.96L884.32,232.79L885.27,208.03L886.21,206.3L887.16,186.17L890.01,164.08L890.96,173.71L891.91,166.9L892.86,188L893.8,194.85L896.65,205.4L897.6,201.2L898.55,192.14L899.5,180.88L900.45,181.29L903.29,182.46L904.24,192.53L906.14,165.61L907.09,165.53L909.93,153.92L910.88,164.58L912.78,157.22L913.73,172.53L916.58,169.6L917.53,171.22L918.47,183.25L919.42,179.45L920.37,180.89L924.17,201.8L925.12,195.26L926.07,201.21L927.01,195.24L929.86,190.9L931.76,180.03L932.71,194.57L933.66,192.84L936.5,185.58L937.45,210L938.4,210.07L939.35,226.8L940.3,222.99L943.14,223.67L944.09,236.3L945.04,229.32L945.99,215.03L946.94,239.28L949.79,251.17L950.73,223.25L951.68,237.8L952.63,234.58L953.58,245.04L956.43,244.54L957.38,242.79L958.33,255.88L959.27,237.24L960.22,215.28L963.07,213.78L964.02,198.14L964.97,206.04L965.92,191.09L966.87,191.27L969.71,175.88L970.66,181.52L971.61,185.79L972.56,198.74L973.51,188.93L976.35,201.33L977.3,207.87L978.25,200.07L979.2,205.49L980.15,196.37L983,198.21L983.94,182.55L984.89,175.52L985.84,183.96L989.64,204.13L990.59,205.31L991.53,204.9L992.48,195.01L993.43,187.64L996.28,188.5L997.23,187.43L998.18,182.48L999.13,178.47L1000.07,181.71L1002.92,179.04L1003.87,188.25L1004.82,173.79L1006.72,171.5L1010.51,186.53L1011.46,184.23L1012.41,184.73L1013.36,188.18L1016.2,197.54L1017.15,192.54L1018.1,190.82L1019.05,197.72L1020,199.83" style="vector-effect: non-scaling-stroke; fill: none; stroke: rgb(99, 110, 250); stroke-opacity: 1; stroke-width: 2px; opacity: 1;"/></g><g class="points"/><g class="text"/></g><g class="trace scatter trace499737" style="stroke-miterlimit: 2; opacity: 1;"><g class="fills"/><g class="errorbars"/><g class="lines"><path class="js-line" d="M0,96.11L0.95,113.13L1.9,92.37L3.8,53.63L6.64,59.64L7.59,62.21L8.54,59.27L9.49,56.86L10.44,61.21L14.23,74.93L15.18,71.62L17.08,96.47L19.93,103.18L22.77,138.98L23.72,147.86L26.57,132.45L27.52,138.33L29.41,157.58L30.36,169.24L33.21,173.89L34.16,173.85L37,213.39L39.85,212.46L40.8,201L41.75,203.2L42.7,198.29L43.65,211.91L47.44,200.27L48.39,209.26L50.29,237.72L53.13,228.84L54.08,227.6L55.03,229.6L55.98,230.61L56.93,219.65L59.78,242.25L60.73,263.52L61.67,259.75L62.62,247.55L63.57,262.87L66.42,260.96L67.37,265.95L68.32,238.7L69.27,210.96L70.21,224.76L73.06,225.02L74.01,217.51L75.91,235.51L76.86,229.59L79.7,232.78L80.65,222.59L81.6,214.73L82.55,194.8L83.5,199.85L86.34,182.02L87.29,165.13L88.24,174.6L89.19,173.74L90.14,182.98L92.99,182.29L93.93,173.55L95.83,182.55L96.78,216.51L99.63,213.86L100.58,221.78L101.53,212.89L102.47,193.83L106.27,179.74L107.22,182.54L108.17,194.06L109.12,190.39L113.86,179.02L114.81,193.07L115.76,193.85L116.71,186.62L119.55,186.24L120.5,184.3L122.4,165.28L123.35,173.57L126.2,160.56L127.14,151.98L129.04,167.83L129.99,167.36L132.84,156.54L133.79,158.77L134.73,148.69L135.68,167.22L136.63,168.28L140.43,167.36L141.38,177.15L142.33,178.94L143.27,191.62L146.12,190.91L147.07,184.68L148.02,188.44L148.97,197.28L149.92,193.97L152.76,199.69L153.71,194.73L155.61,182.03L156.56,185.92L159.4,187.57L160.35,205.51L161.3,193.11L162.25,202.2L163.2,201.23L166.05,191.66L167,187.54L167.94,192.52L169.84,201.11L172.69,194.14L174.59,186.41L175.53,195.04L176.48,196.83L179.33,196.66L180.28,187.75L181.23,195.5L183.13,213.78L185.97,218.59L186.92,213.95L187.87,215.02L188.82,219.16L189.77,226.66L192.61,219.66L193.56,209.5L194.51,210.1L195.46,196.9L196.41,188.65L199.26,196.8L200.2,193.19L201.15,182.33L202.1,185.73L203.05,184.43L205.9,175.49L206.85,177.66L207.8,186.63L208.74,182.59L209.69,169.65L212.54,169.56L213.49,174.41L214.44,171.72L215.39,171.61L216.33,179.17L220.13,174.68L221.08,178.89L222.03,183.72L222.98,182.32L225.82,185.73L226.77,191.36L228.67,199.84L229.62,200.41L233.41,195.37L234.36,189.83L236.26,199.42L239.11,195.15L240.06,190.41L241,198.25L241.95,203.27L242.9,196.13L245.75,196.28L246.7,198.49L247.65,204.95L248.6,191.95L249.54,170.47L252.39,172.11L253.34,171.49L254.29,162.89L256.19,151.97L259.03,154.49L261.88,139.14L262.83,140.36L265.67,139.09L266.62,133.31L267.57,129.3L268.52,143.77L269.47,154.36L272.32,157.75L273.27,154.91L274.21,159.58L275.16,166.17L276.11,151.2L278.96,134.72L279.91,134.87L280.86,131.61L281.8,121.69L282.75,109.75L285.6,87.13L286.55,94.88L287.5,93.36L289.4,105.48L292.24,100.45L293.19,103.42L294.14,88.15L295.09,92.78L296.04,89.06L298.88,83.14L299.83,78.72L300.78,74.02L301.73,76.67L302.68,66.47L305.53,56.58L306.47,53.78L307.42,48.01L313.12,67.52L314.07,60.42L315.96,74.23L318.81,49.18L319.76,47.17L320.71,60.31L321.66,55.96L322.6,60.19L325.45,81.92L326.4,66.98L327.35,65.49L328.3,66.82L329.25,85.72L332.09,72.88L333.04,66.95L333.99,73.95L335.89,58.58L339.68,47.82L340.63,29.24L341.58,30.71L342.53,32.22L346.33,26.94L348.22,72.86L349.17,77.46L352.02,62.84L352.97,66.84L353.92,72.27L354.87,87.79L355.81,89.11L359.61,83.27L360.56,92.24L361.51,90.46L362.46,96.05L365.3,81.35L366.25,81.92L367.2,90.22L368.15,84.34L369.1,94.17L371.94,99.99L372.89,87.76L374.79,75.02L375.74,80.53L379.53,73.84L380.48,70.8L381.43,74.88L382.38,71.33L385.23,70.85L386.18,68.69L387.13,80.2L388.07,79.3L389.02,79.03L392.82,75.59L393.77,78.48L394.72,78.4L395.67,85.27L398.51,79.14L399.46,73.51L400.41,77.75L401.36,78.52L402.31,70.06L405.15,71.88L406.1,78.35L407.05,82L408,59.46L408.95,58.96L411.8,76.87L413.69,100.5L414.64,102.23L415.59,113.92L418.44,111.69L421.28,143.27L422.23,152.2L425.08,140.09L426.03,126.91L426.98,128.53L427.93,121.43L428.87,115.98L431.72,118.99L432.67,131.84L433.62,121.75L435.52,102.22L438.36,100.24L439.31,95.31L440.26,113.82L441.21,112.45L445,98.05L446.9,93.64L447.85,96.36L448.8,103.06L451.65,94.22L452.6,98.58L453.54,89.34L455.44,82.94L458.29,81.35L459.24,66.34L460.19,73.04L461.13,73.05L462.08,64.89L464.93,63.83L465.88,58.01L466.83,51.65L467.78,54.43L468.73,50.54L471.57,47.88L472.52,47.2L473.47,30.03L474.42,32.46L475.37,22.39L478.21,32.69L479.16,39.05L480.11,41.92L481.06,40.96L482.01,42.08L485.8,33.94L486.75,38.09L487.7,35.9L488.65,39.5L491.5,33.42L492.45,23.41L493.4,27.42L494.34,23.33L495.29,29.09L498.14,28.38L499.09,25.54L500.04,24.01L500.99,31.81L501.93,43.39L504.78,42.8L505.73,44.6L506.68,48.66L507.63,52.9L508.58,66.31L511.42,67.76L512.37,63.64L514.27,58.28L515.22,65.91L518.07,63.05L519.01,65.99L520.91,69.15L521.86,75.43L528.5,65.51L531.35,57.47L532.3,62.73L533.25,56.36L534.2,53.77L535.14,63.84L537.99,75.3L538.94,83.02L540.84,60.05L541.79,67.33L544.63,63.44L545.58,54.28L548.43,60.56L551.27,63.76L552.22,62.64L553.17,70.17L554.12,68.1L555.07,60.35L558.87,57.02L559.81,58.82L560.76,51.03L561.71,56.27L564.56,49.58L565.51,51.35L567.4,48.06L568.35,37.53L571.2,45.21L572.15,54.2L575,71.22L578.79,57.45L579.74,53.26L580.69,60.47L581.64,72.96L584.48,68.43L591.13,97.29L592.07,90.22L593.02,89.94L593.97,116.35L594.92,137.24L597.77,128.56L598.72,118.45L599.67,122.17L601.56,91.01L604.41,93.63L607.26,59.02L608.2,55.14L611.05,52.26L612,55.56L613.9,29.25L614.85,34.85L617.69,37.38L618.64,35.33L620.54,55.78L621.49,53.28L624.33,42.14L625.28,52.03L627.18,50.43L628.13,42.62L630.98,59.13L631.93,72.75L632.87,82.26L633.82,66.1L634.77,59.03L637.62,57.96L638.57,54.05L639.52,61.79L640.47,68.97L641.41,66.96L644.26,69.27L645.21,56.36L646.16,61.34L647.11,61.16L648.06,55.65L650.9,55.39L652.8,57.57L654.7,52.99L657.54,59.3L658.49,70.62L659.44,72.88L660.39,62.41L661.34,58.03L664.19,55.69L665.13,52.45L666.08,44.56L667.03,57.25L667.98,56.21L670.83,60.23L671.78,69.01L672.73,71.3L673.67,80.95L674.62,70.46L677.47,71.22L678.42,63.75L679.37,63.59L681.27,69.43L684.11,69.15L686.01,64.44L686.96,59.4L687.91,65.71L690.75,71.17L692.65,68.7L693.6,64.64L694.55,64.57L697.4,68.08L698.34,66.8L699.29,77.46L701.19,95.33L704.04,103.85L704.99,105.62L705.93,118.59L706.88,109.84L707.83,109.51L711.63,113.44L712.58,103.62L714.47,97.7L717.32,94.48L718.27,96.66L719.22,88.83L721.12,68.29L723.96,73.23L724.91,76.66L725.86,70.78L726.81,71.46L727.76,66.31L731.55,58.45L732.5,49.31L733.45,50.48L734.4,46.81L738.2,56.92L739.14,46.95L740.09,54.88L741.04,37.83L743.89,37.21L744.84,38.02L745.79,38.55L746.73,37.73L747.68,23.44L750.53,19.65L751.48,30.76L752.43,23.29L754.33,31.39L757.17,33.58L758.12,26.4L759.07,29.05L760.97,26.47L763.81,29.5L764.76,24.45L765.71,28.88L766.66,22.44L767.61,33.24L770.46,43.17L771.4,33.96L772.35,28.57L773.3,31.14L777.1,33.59L778.05,31.04L779,38.89L779.94,39.77L780.89,35.31L783.74,32.38L784.69,35.76L785.64,26.65L787.53,31.97L790.38,35.99L791.33,27.45L792.28,38.47L794.18,34.79L797.02,39.83L798.92,52.58L799.87,51.39L800.82,55.79L803.67,58.92L805.56,39.21L806.51,38.57L810.31,54.94L811.26,54.04L813.15,45.38L814.1,46.24L817.9,29.02L818.85,38.39L819.8,37.19L820.74,33.2L824.54,47.03L825.49,37.49L826.44,36.32L827.39,42.79L832.13,49.95L833.08,52.14L834.03,47.77L836.87,61.36L837.82,59.91L838.77,48.46L839.72,59.69L840.67,53.81L843.52,49.28L844.47,57.2L845.41,44.43L846.36,51.86L847.31,55.77L850.16,44.27L852.06,52.53L853,53.61L853.95,74.69L856.8,75.84L857.75,84.2L858.7,83.92L860.6,72.88L863.44,79.19L864.39,91.96L865.34,89.52L867.24,75.15L870.08,78L873.88,142.61L876.73,150.79L877.67,158.02L878.62,156.6L880.52,210.98L883.37,226.55L884.32,214.97L885.27,188.62L886.21,186.28L887.16,164.62L890.01,143L890.96,152.96L891.91,146.85L892.86,170.03L896.65,184.37L897.6,179.63L899.5,159.18L900.45,159.27L903.29,160.82L904.24,172.26L906.14,145.86L907.09,146.44L909.93,135.32L910.88,143.43L912.78,134.03L913.73,149.74L916.58,147.22L917.53,148.38L918.47,159.89L919.42,156.04L920.37,157.23L924.17,178.47L925.12,171.72L926.07,177.07L927.01,170.61L929.86,166.2L931.76,154.92L932.71,169.26L933.66,165.47L936.5,157.89L937.45,183.08L938.4,181.19L939.35,198.47L940.3,195.62L943.14,197.06L944.09,209.18L945.04,203.02L945.99,187.36L946.94,214.12L949.79,226.52L950.73,198.33L951.68,213.74L952.63,211.21L953.58,221.67L957.38,217.89L958.33,229.78L960.22,190.74L963.07,187.42L964.02,172.17L964.97,181.8L965.92,167.2L966.87,167.2L969.71,152.99L970.66,159.68L971.61,162.01L972.56,175.45L973.51,163.13L976.35,176.9L977.3,182.85L978.25,175.08L979.2,180.9L980.15,173.05L983,178.29L983.94,160.89L984.89,152.92L985.84,160.6L990.59,181.83L991.53,182.22L993.43,164.14L996.28,164.08L997.23,164.84L998.18,161.82L999.13,160.29L1000.07,163.23L1002.92,160.13L1003.87,169.09L1004.82,155.19L1006.72,154.01L1010.51,166.34L1011.46,161.98L1012.41,162.26L1013.36,165.26L1016.2,173.29L1017.15,167.49L1018.1,166.06L1019.05,172.87L1020,175.11" style="vector-effect: non-scaling-stroke; fill: none; stroke: rgb(239, 85, 59); stroke-opacity: 1; stroke-width: 2px; opacity: 1;"/></g><g class="points"/><g class="text"/></g><g class="trace scatter trace8840b2" style="stroke-miterlimit: 2; opacity: 1;"><g class="fills"/><g class="errorbars"/><g class="lines"><path class="js-line" d="M0,96.11L0.95,112.95L1.9,92.14L3.8,54.58L6.64,61.69L7.59,64.64L8.54,60.58L9.49,57.76L10.44,61.4L14.23,74.97L15.18,71.65L17.08,98.66L19.93,105.23L21.82,132.66L22.77,142.24L23.72,151.39L26.57,136.01L27.52,140.3L28.47,148.16L30.36,171.79L33.21,176.79L34.16,176.77L35.11,189.07L37,215.47L39.85,215.38L40.8,204.42L41.75,206.49L42.7,200.56L43.65,212.94L47.44,200.23L48.39,208.51L50.29,235.33L53.13,226.33L54.08,226.29L55.03,228.83L55.98,231.52L56.93,221.54L59.78,243.47L60.73,264.62L61.67,261.09L62.62,246.97L63.57,263.63L66.42,261.63L67.37,267.11L68.32,238.7L69.27,210.76L70.21,224.03L73.06,224.27L74.01,217.08L75.91,235.59L76.86,229.92L79.7,233.57L80.65,222.91L81.6,214.8L82.55,194.45L83.5,199.97L86.34,183.08L87.29,166.35L88.24,175.76L89.19,174.66L90.14,184.32L92.99,183.9L93.93,175.86L95.83,185.01L96.78,218.81L99.63,216.5L100.58,224.57L101.53,215.87L102.47,197.11L106.27,184.81L107.22,187.62L108.17,198.86L109.12,195.36L113.86,183.24L114.81,196.95L115.76,197.69L116.71,191.31L119.55,191.63L120.5,189.65L122.4,170.67L123.35,178.89L127.14,157.33L128.09,169.61L129.04,173.6L129.99,172.75L132.84,161.81L133.79,164.62L134.73,154.56L135.68,172.93L136.63,173.98L140.43,174.08L141.38,184.86L142.33,185.09L143.27,196.79L146.12,196.25L147.07,190.47L148.02,195.02L148.97,204.43L149.92,201.35L152.76,208.1L153.71,202.23L155.61,188.87L156.56,192.67L159.4,194.57L160.35,213.26L161.3,200.65L162.25,210.47L163.2,209.5L166.05,198.98L167,193.31L167.94,198.9L169.84,206.82L172.69,199.66L174.59,190.49L175.53,197.58L176.48,199.37L179.33,198.93L180.28,190.23L181.23,198.73L183.13,217.19L185.97,222.21L186.92,217.02L187.87,218.86L188.82,223.23L189.77,231.32L192.61,224.23L193.56,213.31L194.51,214.17L195.46,201.05L196.41,193.3L199.26,201.86L200.2,198.51L201.15,187.68L202.1,192.04L203.05,189.85L205.9,179.54L206.85,181.3L207.8,190.28L208.74,186.99L209.69,173.43L212.54,172.16L213.49,178.23L214.44,176.03L215.39,174.9L216.33,182.56L219.18,179.63L220.13,176.98L222.03,186.6L222.98,186.07L225.82,190.45L226.77,196.93L229.62,206.03L233.41,200.71L234.36,195.98L235.31,201.87L236.26,205.55L239.11,201.07L240.06,196.12L241,205.51L241.95,210.57L242.9,203.49L245.75,204.09L246.7,205.94L247.65,211.79L248.6,198.75L249.54,178.19L252.39,181.13L253.34,180.33L254.29,171.23L255.24,162.78L256.19,161.2L259.03,165.27L259.98,157.55L261.88,150.09L262.83,152.24L265.67,150.71L266.62,144.72L267.57,140.85L268.52,160.16L269.47,170.43L272.32,174.75L273.27,171.99L274.21,175.22L275.16,179.19L276.11,162.19L278.96,144.29L279.91,146.05L280.86,142.01L281.8,131.2L282.75,118.16L285.6,95.54L286.55,103.92L287.5,101.82L289.4,116.82L292.24,111.4L293.19,114.81L294.14,99.59L295.09,104.02L296.04,100.78L298.88,94.7L299.83,89.44L300.78,85.4L301.73,88.15L302.68,77.16L305.53,67.05L307.42,59.19L309.32,65.25L313.12,78.17L314.07,71.15L315.96,86.93L318.81,61.85L319.76,58.1L320.71,71.45L321.66,67.09L322.6,70.25L325.45,91.41L326.4,76.45L327.35,73.93L328.3,75.79L329.25,96.54L332.09,83.32L333.04,76.25L333.99,82.27L335.89,67.98L339.68,57.68L340.63,38.31L341.58,40.56L342.53,41.93L346.33,35.35L348.22,81.03L349.17,85.4L352.02,69.49L352.97,72.99L353.92,76.99L354.87,92.5L355.81,94.04L359.61,88.96L360.56,99.2L361.51,98.15L362.46,103.77L365.3,86.15L366.25,86.71L367.2,93.91L368.15,88.8L369.1,98.69L371.94,104.86L372.89,92.81L374.79,79.1L375.74,85.65L379.53,79.87L380.48,76.73L381.43,81.34L382.38,76.86L385.23,77.1L386.18,75.19L387.13,86.19L388.07,86.21L389.02,86.67L392.82,83.24L393.77,86.64L394.72,87.06L395.67,93.95L398.51,87.06L399.46,80.83L400.41,84.76L401.36,85.11L402.31,77.26L405.15,78.93L406.1,85.35L407.05,87.61L408,64.75L408.95,64L411.8,81.94L413.69,103.79L414.64,105.64L415.59,116.47L418.44,115.7L420.33,139.5L421.28,146.66L422.23,157.39L425.08,145.3L426.03,132.27L426.98,133.51L428.87,121.38L431.72,123.5L432.67,135.71L433.62,126.61L435.52,107.09L438.36,106.18L439.31,100.9L440.26,118.52L441.21,117.24L445,103.3L446.9,98.42L447.85,100.92L448.8,106.24L451.65,97.27L452.6,101.96L453.54,92.79L455.44,86.79L458.29,84.91L459.24,68.61L460.19,74.79L461.13,74.73L462.08,66.15L464.93,65.4L465.88,58.64L466.83,53.32L467.78,56.83L468.73,52.31L471.57,50.52L472.52,49.48L473.47,33.01L474.42,35.15L475.37,24.67L480.11,43.49L481.06,41.48L482.01,41.87L485.8,34.37L486.75,38.38L487.7,36.29L488.65,39.77L491.5,33.51L492.45,23.15L493.4,27.22L494.34,22.61L495.29,28.61L498.14,27.94L499.09,25.7L500.04,24.5L500.99,32.9L501.93,43.69L504.78,43.1L506.68,49.09L507.63,52.14L508.58,65.67L511.42,66.59L514.27,55.9L515.22,63.74L518.07,61.64L519.01,64.37L520.91,68.21L521.86,74.47L526.6,66.57L527.55,63.91L528.5,64.39L531.35,55.93L532.3,62.33L533.25,54.85L534.2,52.23L535.14,63.15L538.94,82.34L539.89,63.42L540.84,59.84L541.79,67.9L544.63,63.88L545.58,54.26L548.43,60.47L551.27,63.74L552.22,62.75L553.17,70.28L554.12,68.05L555.07,60.95L558.87,56.56L559.81,58.77L560.76,49.99L561.71,55.23L564.56,48.3L565.51,50.27L567.4,46.73L568.35,35.47L571.2,43.46L572.15,52.3L574.05,64.99L575,69.59L579.74,52.35L580.69,60.54L581.64,73.23L584.48,68.89L591.13,97.25L592.07,88.68L593.02,88.11L593.97,116.92L594.92,138.62L597.77,128.93L598.72,118.23L599.67,123.15L601.56,91.9L604.41,94.62L607.26,58.47L608.2,54.18L611.05,51.13L612,56.22L613.9,27.11L614.85,33.21L617.69,36.17L618.64,33.3L620.54,53.27L621.49,50.96L624.33,39.11L625.28,48.22L626.23,46.89L627.18,46.99L628.13,39.77L630.98,57.41L632.87,80.73L633.82,63.95L634.77,55.39L637.62,53.69L638.57,48.98L639.52,57.59L640.47,66.09L641.41,64.46L644.26,66.61L645.21,51.31L646.16,55.3L647.11,55.73L648.06,50.29L650.9,50.16L651.85,52.34L652.8,52.58L654.7,48.65L657.54,55.89L658.49,68.05L659.44,69.16L661.34,51.77L664.19,49.18L665.13,46.04L666.08,38.17L667.03,51.53L667.98,50.21L670.83,54.17L671.78,63.55L672.73,65.61L673.67,75.88L674.62,64.46L677.47,65.69L678.42,58.44L679.37,59.34L681.27,65.84L684.11,65.79L686.01,61.16L686.96,56.49L687.91,63.34L690.75,68.65L692.65,66.35L693.6,61.98L694.55,62.3L697.4,65.4L698.34,63.18L699.29,73.72L701.19,91.14L704.04,99.27L704.99,101.56L705.93,114.23L706.88,106.22L707.83,105.79L711.63,110.02L712.58,99.69L714.47,94.49L717.32,90.87L718.27,92.7L719.22,84.23L721.12,63.68L723.96,67.69L724.91,72.26L725.86,65.24L726.81,65.8L727.76,61.06L731.55,53.12L732.5,44.38L733.45,45.85L734.4,41.57L738.2,51.8L739.14,41.55L740.09,50.04L741.04,33.91L743.89,33.51L744.84,34.74L745.79,36.19L746.73,35.79L747.68,21.92L750.53,19.2L751.48,30.71L752.43,22.84L754.33,30.35L757.17,33.69L758.12,26.64L759.07,28.9L760.02,28.56L760.97,26.94L763.81,30.4L764.76,25.32L765.71,29.48L766.66,21.46L767.61,31.95L770.46,42.19L772.35,27.07L773.3,29.82L777.1,31.41L778.05,29.44L779,37.08L779.94,37.9L780.89,32.9L783.74,28.39L784.69,31.97L785.64,22.73L787.53,25.62L790.38,29.79L791.33,21.28L792.28,32.16L794.18,29.51L797.02,34L798.92,47.18L799.87,46.38L800.82,50.57L803.67,52.7L805.56,34.62L806.51,34.04L810.31,50.18L811.26,48.21L813.15,39.96L814.1,40.83L817.9,24.06L818.85,34.41L819.8,33.46L820.74,28.91L824.54,43.97L825.49,34.32L826.44,34.46L827.39,40.3L833.08,50.39L834.03,45.16L836.87,58.53L837.82,56.95L838.77,45.25L839.72,57.16L840.67,52.83L843.52,48.09L844.47,55.67L845.41,42.42L847.31,54.22L850.16,42.61L852.06,51.07L853,52.33L853.95,74.33L856.8,75.33L857.75,84.27L858.7,84.09L860.6,73.39L863.44,80.36L864.39,94.4L865.34,90.35L867.24,75.84L870.08,78.72L873.88,148.09L876.73,154.98L877.67,161.7L878.62,160.2L880.52,215.2L883.37,228.7L884.32,217.83L885.27,191.52L886.21,192.16L887.16,168.93L890.01,147.61L890.96,158.47L891.91,153.15L892.86,176.28L896.65,188.67L897.6,184.33L899.5,165.66L900.45,166.32L903.29,168.85L904.24,180.58L906.14,154.48L907.09,155.41L909.93,144.21L910.88,150.2L912.78,139.81L913.73,155.82L916.58,153.18L917.53,154.34L918.47,165.16L919.42,160.52L920.37,161.56L924.17,181.46L925.12,175.29L926.07,180.64L927.01,174.29L929.86,170.37L931.76,159.92L932.71,174.23L933.66,170.13L936.5,162.44L937.45,187.63L938.4,185.36L939.35,202.33L940.3,200.45L943.14,202.7L944.09,214.65L945.04,210.29L945.99,194.57L946.94,221.57L949.79,233.81L950.73,206.33L951.68,222.39L952.63,220.71L953.58,230.36L957.38,226.23L958.33,237.87L960.22,199.76L963.07,196.74L964.02,181.18L964.97,191.93L965.92,178.48L966.87,177.97L969.71,163.57L970.66,170.58L971.61,172.21L972.56,184.43L973.51,171.23L976.35,185.9L977.3,191.93L978.25,184.59L979.2,190.85L980.15,183.7L983,190.05L983.94,171.7L984.89,163.87L985.84,171.45L990.59,192.5L991.53,191.95L993.43,174.31L996.28,173.87L997.23,177.5L998.18,175.38L999.13,174.98L1000.07,177.56L1002.92,174.83L1003.87,182.99L1004.82,169.85L1006.72,167.98L1010.51,179.57L1011.46,174.22L1012.41,174.62L1013.36,177.5L1016.2,185.28L1017.15,178.45L1018.1,176.99L1019.05,183.22L1020,186.03" style="vector-effect: non-scaling-stroke; fill: none; stroke: rgb(0, 204, 150); stroke-opacity: 1; stroke-width: 2px; opacity: 1;"/></g><g class="points"/><g class="text"/></g><g class="trace scatter trace32a1fe" style="stroke-miterlimit: 2; opacity: 1;"><g class="fills"/><g class="errorbars"/><g class="lines"><path class="js-line" d="M0,96.11L0.95,112.88L1.9,92.11L2.85,80.12L3.8,55.73L7.59,65.42L8.54,61.15L9.49,57.97L10.44,61.1L14.23,75.15L15.18,72.17L17.08,101.06L19.93,107.34L21.82,135.92L22.77,144.94L23.72,153.9L26.57,138.05L27.52,141.64L28.47,150.06L30.36,173.42L33.21,178.76L34.16,178.81L35.11,191.13L37,216.23L39.85,216.92L40.8,205.73L41.75,207.48L42.7,201.15L43.65,212.92L47.44,199.82L48.39,207.53L50.29,233.87L53.13,224.22L54.08,224.85L55.03,227.82L55.98,231.94L56.93,222.56L59.78,244.28L60.73,266.44L61.67,262.85L62.62,247.73L63.57,264.95L66.42,262.85L67.37,268.55L68.32,239.58L69.27,211.43L70.21,224.86L73.06,224.31L74.01,217.6L75.91,236.34L76.86,231.07L79.7,235.23L80.65,224.36L81.6,216.12L82.55,195.98L83.5,201.33L86.34,184.49L87.29,167.76L88.24,177.03L89.19,175.97L90.14,185.91L92.99,185.02L93.93,176.92L95.83,186.28L96.78,219.87L99.63,217.28L100.58,224.88L101.53,217L102.47,199.15L106.27,186.91L107.22,190.3L108.17,201.32L109.12,197.84L110.07,194.93L112.91,188.85L113.86,185.13L114.81,198.56L115.76,199.18L116.71,193.61L119.55,193.72L120.5,191.73L122.4,172.84L123.35,181.47L127.14,160.13L128.09,172.64L129.04,176.31L129.99,175.13L132.84,164.37L133.79,167.88L134.73,158.21L135.68,176.08L136.63,177.02L140.43,177.01L141.38,188.5L142.33,188.27L143.27,199.62L146.12,198.87L147.07,193.92L148.02,198.95L148.97,208.73L149.92,205.66L152.76,213L153.71,206.24L155.61,192.76L156.56,196.26L159.4,198.86L160.35,218.6L161.3,206.46L162.25,216.66L163.2,216.11L166.05,205.36L167,199.04L167.94,204.73L168.89,207.47L169.84,212.69L172.69,205.17L174.59,195.6L176.48,203.47L179.33,202.35L180.28,193.97L181.23,202.6L183.13,221.03L185.97,225.51L186.92,220.37L187.87,222.37L188.82,226.8L189.77,235.43L192.61,228.44L193.56,217.12L194.51,218.42L195.46,205.39L196.41,198.42L199.26,206.76L200.2,203.64L201.15,193.04L202.1,197.56L203.05,194.83L205.9,184.35L206.85,186.12L207.8,194.16L208.74,191.52L209.69,177.8L212.54,175.71L213.49,182.16L214.44,180.55L215.39,178.72L216.33,186.07L219.18,183.06L220.13,180.23L222.03,190.63L222.98,190.89L225.82,195.61L226.77,202.48L229.62,211.73L233.41,206.05L234.36,201.99L235.31,208.44L236.26,212.1L239.11,207.56L240.06,202.03L241,212.04L241.95,217.07L242.9,210.14L245.75,210.73L246.7,212.35L247.65,217.94L248.6,204.51L249.54,185.94L252.39,189.95L253.34,189.46L254.29,179.97L255.24,171.54L256.19,170.3L259.03,174.6L259.98,166.15L261.88,159.02L262.83,162.04L265.67,160.18L266.62,154.6L267.57,151.07L268.52,173.69L269.47,183.82L272.32,188.97L273.27,186.6L274.21,188.63L275.16,190.81L276.11,172.1L278.96,153.66L279.91,155.55L280.86,151.14L281.8,139.82L282.75,126.8L285.6,103.93L286.55,113.29L287.5,111.01L289.4,127.37L292.24,122.32L293.19,125.47L294.14,110.67L295.09,115.91L296.04,112.58L298.88,106.51L299.83,100.82L300.78,97.19L301.73,100.59L302.68,89.23L305.53,79.36L307.42,72.44L309.32,78.04L313.12,90.51L314.07,84.13L315.96,100.14L318.81,75.52L319.76,71.15L320.71,84.52L321.66,80.08L322.6,82.06L325.45,102.88L326.4,88.66L327.35,85.34L328.3,87.62L329.25,109.71L332.09,96.39L333.04,88.14L333.99,94.35L335.89,80.93L339.68,71.09L340.63,51.6L341.58,54.26L342.53,55.28L346.33,48.53L348.22,92.48L349.17,96.22L352.02,80.75L352.97,84.92L353.92,88.58L354.87,104L355.81,105.48L359.61,100.83L360.56,112.06L361.51,110.88L362.46,116.63L365.3,98.2L366.25,98.57L367.2,105.2L368.15,101.11L369.1,110.95L371.94,117.18L372.89,104.73L374.79,90.18L375.74,97.36L379.53,92.23L380.48,89.3L381.43,94.12L382.38,89.05L385.23,89.4L386.18,88.47L387.13,98.96L388.07,99.1L389.02,100.33L392.82,97.2L394.72,101.62L395.67,108.9L398.51,101.58L399.46,95.43L400.41,98.92L401.36,98.72L402.31,91.22L405.15,93.13L407.05,101.55L408,78.48L408.95,78.4L411.8,96.13L413.69,116.26L414.64,118.12L415.59,127.8L418.44,128.12L420.33,151.8L421.28,158.18L422.23,169.93L425.08,158.79L426.03,145.87L426.98,146.76L428.87,135.11L431.72,136.99L432.67,148.37L433.62,140.57L435.52,121.33L438.36,121.58L439.31,116.03L440.26,132.67L441.21,131.82L445,118.19L445.95,116.33L446.9,112.11L447.85,114.1L448.8,118.66L451.65,110.23L452.6,115.53L454.49,102.42L455.44,99.88L458.29,98L459.24,81.18L460.19,86.4L461.13,86.69L462.08,77.8L464.93,77.09L466.83,65.22L467.78,69.45L468.73,64.89L471.57,63.76L472.52,62.13L473.47,45.66L474.42,47.69L475.37,37.22L480.11,55.45L481.06,52.88L482.01,52.88L485.8,46.46L486.75,50.38L487.7,48.63L488.65,51.98L491.5,45.49L492.45,35.04L493.4,38.48L494.34,33.29L495.29,39.35L498.14,38.69L499.09,36.94L500.04,36.33L500.99,45.63L501.93,55.33L504.78,54.9L505.73,56.62L506.68,60.56L507.63,62.69L508.58,75.35L511.42,76.2L512.37,73.12L514.27,64.55L515.22,72.67L518.07,70.69L519.01,73.25L520.91,77.11L521.86,83.32L527.55,71.85L528.5,72.76L531.35,64.09L532.3,71.72L534.2,61.54L535.14,72.62L538.94,91.96L539.89,73.24L540.84,69.55L541.79,77.95L544.63,73.98L545.58,64.29L548.43,70.23L551.27,73.49L552.22,72.52L553.17,79.74L554.12,77.28L555.07,70.58L557.92,67.24L558.87,64.91L559.81,67.03L560.76,58.32L561.71,63.62L564.56,56.42L565.51,58.48L566.46,56.26L567.4,54.26L568.35,42.44L571.2,50.65L572.15,59.53L574.05,71.48L575,76.17L579.74,59.04L580.69,67.76L581.64,80.16L584.48,76.2L591.13,103.7L592.07,94.93L593.02,94.73L593.97,124.35L594.92,146.45L597.77,135.59L598.72,124.98L599.67,130.47L601.56,98.79L604.41,101.91L607.26,66.88L608.2,62.26L611.05,58.96L612,64.72L613.9,33.02L614.85,39.14L617.69,43.01L618.64,39.57L620.54,58.37L621.49,56.56L624.33,44.49L625.28,53.1L626.23,51.68L627.18,52.65L628.13,46.42L630.98,63.55L632.87,86.16L633.82,68.83L634.77,59.4L637.62,57.44L638.57,52.51L639.52,61.47L640.47,70.59L641.41,68.98L644.26,71.39L645.21,54.27L646.16,57.29L647.11,57.75L648.06,52.64L650.9,52.39L651.85,54.91L652.8,54.65L654.7,51.22L657.54,59.03L658.49,71.73L659.44,71.84L661.34,53.43L664.19,50.99L665.13,48.11L666.08,39.96L667.03,54.19L667.98,52.64L670.83,56.68L671.78,65.75L672.73,67.17L673.67,78.18L674.62,66.74L677.47,68.29L678.42,60.95L679.37,62.6L681.27,69.39L684.11,69.54L686.01,65.36L686.96,60.84L687.91,67.9L690.75,72.99L692.65,70.52L693.6,65.96L694.55,66.43L697.4,69.63L698.34,66.99L699.29,77.44L701.19,94.49L704.04,102.77L704.99,105.55L705.93,117.77L706.88,110.8L707.83,110.06L711.63,115L712.58,104.6L714.47,98.9L717.32,95.4L718.27,97.23L719.22,88.12L721.12,67.47L723.96,70.88L724.91,75.83L725.86,68.35L726.81,68.22L727.76,64.04L731.55,56.48L732.5,47.93L733.45,49.37L734.4,44.94L738.2,55.2L739.14,44.64L740.09,53.97L741.04,38.09L743.89,37.49L744.84,39.39L745.79,41.32L746.73,41.32L747.68,27.62L750.53,26.46L751.48,37.96L752.43,30.07L754.33,37.27L757.17,41.49L758.12,34.5L759.07,36.57L760.02,36.08L760.97,34.29L763.81,37.68L764.76,32.41L765.71,36.28L766.66,27.69L767.61,37.69L770.46,48.04L772.35,32.94L773.3,35.97L777.1,36.98L778.05,35.48L779,42.99L779.94,43.54L780.89,38.16L783.74,33.09L784.69,36.58L785.64,26.94L787.53,28.49L790.38,33.12L791.33,24.31L792.28,34.14L794.18,31.93L797.02,36.34L798.92,49.46L799.87,48.77L800.82,52.72L803.67,55.34L805.56,38.27L806.51,37.37L807.46,42.48L810.31,53.3L812.2,48.89L813.15,42.74L814.1,43.37L816.95,29.97L817.9,27.32L818.85,38.22L819.8,37.55L820.74,32.3L824.54,48.54L825.49,38.95L826.44,39.89L827.39,45.19L833.08,56.07L834.03,49.78L836.87,62.98L837.82,61.58L838.77,49.98L839.72,62.52L840.67,59.99L843.52,55.62L844.47,63.06L845.41,50.17L847.31,62.42L850.16,50.36L852.06,59.31L853,61.06L853.95,83.07L856.8,83.57L857.75,93.12L858.7,92.67L860.6,83.14L863.44,90.29L864.39,105L865.34,99.19L867.24,84.75L870.08,87.71L873.88,160.1L876.73,166.24L877.67,171.96L878.62,170.51L880.52,226.36L883.37,238.06L884.32,227.12L885.27,201.22L886.21,203.29L887.16,179.79L890.01,158.5L890.96,169.7L891.91,164.44L892.86,187.39L896.65,199.34L897.6,195.24L899.5,177.76L900.45,178.64L903.29,181.98L904.24,193.33L906.14,166.89L907.09,168.08L909.93,157.42L910.88,162.13L912.78,150.61L913.73,166.55L916.58,163.61L917.53,165.32L918.47,175.91L919.42,170.79L920.37,171.66L924.17,190.39L925.12,184.37L926.07,189.4L927.01,183.01L929.86,179.58L931.76,169.85L932.71,183.96L933.66,179.88L936.5,172.38L937.45,196.85L938.4,194.5L939.35,211.41L940.3,210.18L943.14,212.56L944.09,224.67L945.04,221.05L945.99,205.6L946.94,232.15L949.79,244.34L950.73,217.51L951.68,233.85L952.63,232.67L953.58,241.14L956.43,237.12L957.38,237.27L958.33,248.54L959.27,232.3L960.22,211.03L963.07,207.96L964.02,191.98L964.97,203.89L965.92,191.03L966.87,190.32L969.71,176.11L970.66,183.57L971.61,185.19L972.56,196.69L973.51,182.98L976.35,197.82L977.3,204.26L978.25,197.25L979.2,203.44L980.15,196.96L983,203.82L983.94,185.32L984.89,177.8L985.84,185.4L989.64,204L990.59,205.9L991.53,204.76L992.48,194.39L993.43,187.62L996.28,187.04L997.23,192.76L998.18,191.43L999.13,191.46L1000.07,194.25L1002.92,191.52L1003.87,199.2L1004.82,186.59L1006.72,183.64L1010.51,195.27L1011.46,189.78L1012.41,190.09L1013.36,193.03L1016.2,200.38L1017.15,192.75L1018.1,191.05L1019.05,197.21L1020,200.27" style="vector-effect: non-scaling-stroke; fill: none; stroke: rgb(171, 99, 250); stroke-opacity: 1; stroke-width: 2px; opacity: 1;"/></g><g class="points"/><g class="text"/></g><g class="trace scatter trace1810d0" style="stroke-miterlimit: 2; opacity: 1;"><g class="fills"/><g class="errorbars"/><g class="lines"><path class="js-line" d="M0,96.11L0.95,112.71L1.9,91.28L2.85,80.57L3.8,56.85L7.59,65.94L8.54,61.47L9.49,57.92L10.44,60.99L14.23,75.48L15.18,72.51L17.08,101.95L19.93,107.16L21.82,136.79L22.77,145.37L23.72,154.46L26.57,138.41L27.52,141.61L28.47,150.71L30.36,173.3L33.21,178.63L34.16,178.83L35.11,191.01L37,215.69L39.85,217.21L40.8,206.03L41.75,207.18L42.7,200.51L43.65,212.11L47.44,198.69L48.39,205.53L50.29,232.17L53.13,222.37L54.08,223.51L55.03,227.01L55.98,231.96L56.93,222.23L59.78,244.23L60.73,265.45L61.67,261.54L62.62,245.85L63.57,263.16L66.42,261.31L67.37,267.4L68.32,238.1L69.27,210.07L70.21,223.56L73.06,222.31L74.01,215.65L75.91,233.94L76.86,228.56L79.7,233.07L80.65,222.06L81.6,214.05L82.55,194.02L83.5,199.33L86.34,183.1L87.29,166.66L88.24,175.92L89.19,175L90.14,185.15L92.99,184.56L93.93,176.68L95.83,186.76L96.78,220.05L99.63,217.54L100.58,224.73L101.53,217.64L102.47,200.59L106.27,188.56L107.22,191.87L108.17,202.74L109.12,199.09L110.07,195.59L112.91,189.34L113.86,185.44L114.81,198.76L115.76,199.08L116.71,194.32L119.55,194.44L120.5,192.49L122.4,173.73L123.35,182.77L127.14,161.74L128.09,174.63L129.04,178.27L129.99,176.99L132.84,165.94L133.79,169.94L134.73,160.45L135.68,178.55L136.63,179.43L140.43,178.99L141.38,191.5L142.33,191.12L143.27,202.12L146.12,200.9L147.07,196.47L148.02,201.22L148.97,211L149.92,207.82L152.76,215.35L153.71,208.27L155.61,194.29L156.56,197.31L159.4,199.81L160.35,219.94L161.3,207.85L162.25,217.91L163.2,218.01L166.05,207.17L167,200.82L167.94,206.4L168.89,208.81L169.84,215.48L172.69,207.3L174.59,197.4L176.48,205.26L179.33,203.83L180.28,195.75L181.23,204.16L183.13,222.71L185.97,227.07L186.92,222.35L187.87,224.46L188.82,228.54L189.77,237.49L192.61,230.74L193.56,219.5L194.51,220.84L195.46,207.71L196.41,200.79L199.26,208.69L200.2,205.99L201.15,195.36L202.1,199.76L203.05,196.7L205.9,186.62L206.85,188.37L207.8,195.31L208.74,192.95L209.69,179.17L212.54,176.94L213.49,183.6L214.44,182.5L215.39,179.98L216.33,187.54L219.18,184.73L220.13,182.21L222.03,193.25L222.98,193.98L225.82,198.49L226.77,205.51L229.62,215.13L233.41,209.26L234.36,205.87L235.31,212.73L236.26,216.46L239.11,212.33L240.06,206.72L241,217.05L241.95,222.18L242.9,215.33L245.75,215.49L246.7,216.72L247.65,222.3L248.6,208.81L249.54,191.42L252.39,195.82L253.34,195.19L254.29,185.49L255.24,177.56L256.19,176.29L259.03,180.28L259.98,171.58L261.88,164.68L262.83,168.23L265.67,166.06L266.62,161L267.57,157.83L268.52,182.3L269.47,192.28L272.32,198.39L273.27,196.39L274.21,198.02L275.16,198.78L276.11,179.99L278.96,161.6L279.91,163.49L280.86,158.84L281.8,146.77L282.75,133.43L285.6,109.93L286.55,119.45L287.5,116.97L289.4,133.77L292.24,128.96L293.19,132.03L294.14,117.51L295.09,123.18L296.04,119.74L298.88,113.59L299.83,108.06L300.78,104.88L301.73,108.98L302.68,97.34L305.53,87.86L306.47,85.99L307.42,81.17L309.32,86.4L312.17,96.88L313.12,99.73L314.07,93.9L315.96,109.88L318.81,85.47L319.76,80.45L320.71,94.28L321.66,90.62L322.6,91.72L325.45,112.11L326.4,98.55L327.35,94.94L328.3,97.73L329.25,121.04L332.09,107.98L333.04,98.67L333.99,105.73L335.89,92.3L339.68,82.89L340.63,63.52L341.58,66.76L342.53,68.01L346.33,61.33L348.22,102.82L349.17,106.26L352.02,91.23L352.97,95.78L353.92,99.36L354.87,114.66L355.81,116.02L359.61,111.64L360.56,122.86L361.51,121.06L362.46,126.26L365.3,107.89L366.25,108.18L367.2,114.41L368.15,111.37L369.1,120.89L371.94,127.06L372.89,114.33L374.79,99.88L375.74,107.69L379.53,102.63L380.48,99.89L381.43,104.85L382.38,99.51L386.18,100.4L387.13,110.42L388.07,110.05L389.02,112.04L392.82,109.78L393.77,113.23L394.72,114.31L395.67,121.95L398.51,113.97L399.46,107.96L400.41,110.92L401.36,109.97L402.31,103.03L405.15,105.3L406.1,112.32L407.05,113.52L408,90.53L408.95,90.85L411.8,108.66L412.74,122.6L415.59,137.89L418.44,139L420.33,162.96L421.28,168.46L422.23,180.29L425.08,169.94L426.03,156.85L426.98,157.81L428.87,146.42L431.72,147.89L432.67,158.93L433.62,152.06L435.52,132.85L438.36,133.54L439.31,127.58L440.26,143.64L441.21,143.09L445,129.51L445.95,127.55L446.9,122.14L447.85,123.57L448.8,127.7L451.65,119.71L452.6,125.24L454.49,112.08L455.44,110.03L458.29,108.33L459.24,91.4L460.19,95.67L461.13,96.28L462.08,86.9L464.93,86.19L466.83,74.52L467.78,79.24L468.73,74.84L471.57,74.13L472.52,72.06L473.47,55.31L474.42,57.57L475.37,47.23L480.11,64.4L481.06,61.35L482.01,61L485.8,55.29L486.75,59.25L487.7,57.66L488.65,60.93L491.5,54.25L492.45,43.84L493.4,46.84L494.34,41.19L495.29,47.19L498.14,46.37L499.09,44.78L500.04,44.42L500.99,53.82L501.93,63.11L504.78,62.94L505.73,64.27L506.68,67.95L507.63,69.35L508.58,81.66L511.42,82.22L512.37,79.54L514.27,69.71L515.22,77.5L518.07,75.49L519.01,78.27L520.91,82.43L521.86,88.78L527.55,77.41L528.5,78.67L531.35,70L532.3,78.72L534.2,68.34L535.14,79.81L538.94,99.77L539.89,81.41L540.84,77.71L541.79,86.44L544.63,82.53L545.58,72.78L548.43,78.17L551.27,81.58L552.22,80.65L553.17,87.61L554.12,85.07L555.07,78.67L558.87,72.56L559.81,74.77L560.76,66.12L561.71,71.6L564.56,64.46L565.51,66.37L567.4,61.82L568.35,49.31L571.2,57.71L572.15,66.51L574.05,77.99L575,82.7L579.74,65.79L580.69,75.06L581.64,86.64L584.48,82.76L591.13,109.72L592.07,100.58L593.02,100.17L593.97,129.95L594.92,152.46L597.77,140.92L598.72,130.76L599.67,136.51L601.56,104.17L604.41,107.35L607.26,73.08L608.2,68.48L611.05,65.14L612,71.55L613.9,37.86L614.85,43.9L617.69,47.87L618.64,44.33L620.54,62.45L621.49,61.07L624.33,48.54L625.28,56.75L626.23,55.39L627.18,57.05L628.13,51.81L630.98,68.63L632.87,91.12L633.82,73.17L634.77,63.42L637.62,61.34L638.57,56.33L639.52,65.23L640.47,74.69L641.41,73.04L644.26,75.49L645.21,57.08L646.16,59.76L647.11,59.66L648.06,55.04L650.9,54.75L651.85,57.72L652.8,57.27L654.7,54.2L657.54,62.33L658.49,75.44L659.44,75.2L661.34,56.28L664.19,54.08L665.13,51.2L666.08,42.64L667.03,57.17L667.98,55.71L670.83,59.9L671.78,68.89L672.73,70.09L673.67,81.91L674.62,70.47L677.47,72.09L678.42,64.39L679.37,66.65L681.27,74.37L684.11,74.69L686.01,70.93L686.96,66.45L687.91,73.84L690.75,78.83L692.65,75.82L693.6,70.88L694.55,71.21L697.4,74.83L698.34,71.92L699.29,82.41L701.19,99.7L704.04,108.73L704.99,111.84L705.93,124.05L706.88,117.28L707.83,116.58L711.63,122.24L712.58,112.09L714.47,105.92L717.32,102.7L718.27,104.65L719.22,95.45L721.12,74.92L723.96,77.93L724.91,83.03L725.86,75.19L726.81,74.63L727.76,70.63L731.55,63.68L732.5,55.25L733.45,56.75L734.4,52.45L738.2,62.84L739.14,52.34L740.09,62.44L741.04,46.85L743.89,46.54L744.84,49.01L745.79,51.22L746.73,51.46L747.68,37.92L750.53,37.32L751.48,48.34L752.43,40.47L754.33,47.82L757.17,52.5L758.12,45.67L759.07,47.85L760.02,47.21L760.97,45.33L763.81,48.75L764.76,43.49L765.71,47.23L766.66,38.43L767.61,48.04L770.46,58.35L772.35,43.48L773.3,46.66L777.1,47.37L778.05,46.49L779,53.84L779.94,54.31L780.89,48.36L783.74,43.39L784.69,46.64L785.64,37.01L787.53,38.41L790.38,43.39L791.33,34.14L792.28,43.06L794.18,40.35L797.02,44.86L798.92,58.33L799.87,57.81L800.82,61.78L803.67,64.94L805.56,48.39L806.51,47.41L807.46,52.46L810.31,63.04L812.2,58.43L813.15,51.87L814.1,52.55L816.95,39.3L817.9,36.63L818.85,47.74L819.8,47.24L820.74,41.4L824.54,58.25L825.49,48.71L826.44,49.63L827.39,54.64L831.18,61.18L832.13,64.34L833.08,66.03L834.03,59.49L836.87,72.54L837.82,71.01L838.77,59.33L839.72,72.2L843.52,66.65L844.47,73.81L845.41,61.22L846.36,68.67L847.31,73.56L850.16,61.45L852.06,70.62L853,72.49L853.95,94.49L856.8,94.55L857.75,104.12L858.7,103.62L860.6,94.13L863.44,101.16L864.39,116.24L865.34,109.79L867.24,95.62L870.08,98.49L872.93,154.45L873.88,171.7L876.73,177.36L877.67,182.69L878.62,180.95L879.57,203.8L880.52,236.84L883.37,248.02L884.32,237.61L885.27,212.28L886.21,215.24L887.16,191.52L890.01,170.14L890.96,181.52L891.91,176.32L892.86,199.07L896.65,211.03L897.6,207.1L899.5,190.46L900.45,191.49L903.29,195.22L904.24,205.92L905.19,184.04L906.14,179.67L907.09,180.71L909.93,170.19L910.88,174.17L911.83,166.79L912.78,162.13L913.73,177.78L916.58,174.71L917.53,176.57L918.47,187.44L919.42,181.76L920.37,182.89L924.17,200.97L925.12,195.28L926.07,200.31L927.01,193.95L929.86,190.82L931.76,181.45L932.71,195.6L933.66,190.98L936.5,183.86L937.45,207.79L938.4,205.45L939.35,222.24L940.3,221.27L943.14,223.66L944.09,235.82L945.04,232.27L945.99,217.6L946.94,243.7L949.79,255.84L950.73,229.2L951.68,246.08L952.63,245.24L953.58,252.86L956.43,248.89L957.38,249.19L958.33,260.08L959.27,244.03L960.22,222.56L963.07,219.5L964.02,203.32L964.97,216.15L965.92,203.51L966.87,202.8L969.71,188.91L970.66,196.51L971.61,198.22L972.56,209.86L973.51,195.35L976.35,210.03L977.3,217.02L978.25,210.18L979.2,216.24L980.15,210.26L983,216.83L983.94,198.62L984.89,191.48L985.84,199.09L989.64,217.64L990.59,219.31L991.53,217.55L992.48,206.84L993.43,200.41L996.28,199.6L997.23,206.2L998.18,205.23L999.13,205.22L1000.07,208.18L1002.92,205.3L1003.87,212.54L1004.82,200.18L1006.72,196.61L1010.51,208.67L1011.46,203.27L1012.41,203.39L1013.36,206.44L1016.2,213.62L1017.15,205.67L1018.1,203.67L1019.05,210.12L1020,213.15" style="vector-effect: non-scaling-stroke; fill: none; stroke: rgb(255, 161, 90); stroke-opacity: 1; stroke-width: 2px; opacity: 1;"/></g><g class="points"/><g class="text"/></g><g class="trace scatter traceef2a4d" style="stroke-miterlimit: 2; opacity: 1;"><g class="fills"/><g class="errorbars"/><g class="lines"><path class="js-line" d="M0,96.11L0.95,119.84L1.9,111.61L2.85,102.99L3.8,85.21L6.64,81.94L7.59,85.97L9.49,81.26L10.44,71.99L15.18,87.41L16.13,96.52L19.93,119.16L20.87,117.73L22.77,117.85L23.72,136.94L27.52,116.99L28.47,119.49L29.41,118.82L30.36,122.09L33.21,125.92L34.16,122.5L36.06,143.22L37,157.64L39.85,151.39L40.8,138.31L42.7,151.74L43.65,171.21L47.44,165.58L48.39,170.8L50.29,194.8L53.13,183.15L54.08,177.23L55.03,176.6L55.98,174.82L56.93,161.47L59.78,174.45L60.73,199.16L61.67,195.17L62.62,184.99L63.57,190.4L66.42,189.19L67.37,198.16L68.32,177.03L69.27,144.08L70.21,146.42L73.06,140.81L74.01,125.82L74.96,128.5L75.91,111.79L76.86,112.26L79.7,118L80.65,123.92L81.6,118.47L83.5,124.86L86.34,105.06L87.29,108.82L88.24,117.46L89.19,112.16L90.14,112.34L92.99,107.39L93.93,100.76L95.83,124.75L96.78,165.52L99.63,147.26L100.58,135.05L101.53,141.15L102.47,129.99L106.27,125.9L107.22,111.46L109.12,127.09L110.07,137.26L112.91,132.12L113.86,137.45L115.76,158.48L116.71,147.56L119.55,145.86L120.5,150.28L121.45,161.43L122.4,149.67L126.2,132.39L127.14,124.02L128.09,134.9L129.04,134.4L129.99,144.33L132.84,149.89L133.79,157.83L134.73,150.37L135.68,164.32L136.63,165.95L140.43,150.91L141.38,151.23L143.27,133.25L146.12,131.89L147.07,137.15L148.02,132.05L149.92,145.17L152.76,148.46L155.61,138.52L156.56,156.05L159.4,148.88L160.35,156.98L161.3,152.85L162.25,160.88L163.2,158.99L166.05,149.86L167,152.41L167.94,150.87L168.89,159.43L169.84,156.14L172.69,148.7L174.59,153.78L175.53,153.92L176.48,143.73L179.33,143.03L180.28,137.71L181.23,133.97L182.18,133.65L183.13,132.06L185.97,132.62L187.87,139.76L188.82,130.01L189.77,137.29L192.61,140.48L193.56,139.5L194.51,151.61L195.46,147.02L196.41,151.96L199.26,151.25L200.2,145.64L202.1,139.07L203.05,135.03L205.9,128.48L206.85,121.23L207.8,125.92L208.74,125.72L209.69,117.87L212.54,108.08L214.44,119.15L215.39,116.03L216.33,116.63L219.18,114.43L220.13,110.52L221.08,110.16L222.98,106.99L225.82,103.02L226.77,105.51L227.72,112.9L229.62,103.94L233.41,102.5L234.36,99.2L235.31,102.55L236.26,105.14L239.11,106.8L240.06,104.31L241,107.68L242.9,124.52L245.75,132.34L246.7,133.61L247.65,140.3L249.54,129.78L252.39,132.36L253.34,144.03L254.29,144.23L255.24,131.31L256.19,142.74L259.98,138.2L260.93,133.93L261.88,137.86L262.83,146.33L265.67,148.18L266.62,151.09L267.57,158.39L268.52,183.42L269.47,173.02L272.32,169.94L274.21,187.35L275.16,176.26L276.11,170.75L278.96,167.77L279.91,159.76L280.86,164.15L281.8,160.61L282.75,146.72L286.55,121.61L287.5,126.34L288.45,127.59L289.4,131.72L292.24,121.21L293.19,122.86L295.09,130.64L296.04,145.91L298.88,151.56L299.83,140.75L300.78,139L301.73,142.4L302.68,144.13L305.53,155.17L306.47,153.06L307.42,159.35L309.32,154.67L312.17,149.66L313.12,152.2L314.07,144.18L315.01,158.34L315.96,161.05L318.81,148.68L319.76,126.39L320.71,141.85L321.66,144.96L322.6,138.65L325.45,137.8L327.35,133.27L328.3,141.15L329.25,156.99L332.09,143.1L333.04,147.13L333.99,164.65L335.89,143.75L339.68,140L341.58,128.36L342.53,133.69L346.33,143.06L347.27,123.28L348.22,125.48L349.17,142.01L352.02,144.69L352.97,147.91L354.87,145.47L355.81,151.03L359.61,142.63L360.56,147.13L361.51,140.93L362.46,146.92L365.3,147.54L366.25,142.81L367.2,143L368.15,137.55L369.1,142.14L371.94,139.36L372.89,127.54L373.84,127.14L374.79,120.78L375.74,128.67L378.59,121.96L379.53,122.51L380.48,123.22L381.43,127.59L382.38,134.13L385.23,123.22L386.18,126.08L387.13,133.2L388.07,126.89L389.02,132.91L392.82,137.46L393.77,150.95L394.72,150.93L395.67,156.54L398.51,143.29L399.46,143.67L401.36,155.99L402.31,154.92L406.1,146.68L407.05,137.55L408,129.06L408.95,143.16L411.8,171.96L412.74,166.51L413.69,187.45L414.64,183.64L415.59,197.35L418.44,188.4L421.28,225.99L422.23,218.38L425.08,206.32L426.03,189.16L426.98,199.87L427.93,198.96L428.87,193.7L431.72,200.36L432.67,219.64L433.62,217.68L434.57,191.11L435.52,199.49L438.36,195.92L439.31,178.92L440.26,184.81L441.21,177.32L445,175.24L445.95,171.4L446.9,145.06L447.85,139.92L448.8,147.43L451.65,150.57L452.6,155.71L453.54,144.44L455.44,132.24L458.29,137.19L459.24,126.41L460.19,127.84L461.13,133.12L462.08,122.92L464.93,123.98L465.88,127.39L466.83,128.48L467.78,125.61L468.73,131.5L471.57,127.8L472.52,128.09L473.47,105.45L475.37,99.79L478.21,97.4L479.16,102.72L480.11,112.74L481.06,111.62L482.01,119.35L485.8,117.12L486.75,128.11L487.7,125.51L488.65,120.33L491.5,115.64L492.45,108.1L493.4,115.07L494.34,113.71L495.29,121.22L498.14,124.84L499.09,123.11L500.04,128.17L501.93,144.54L504.78,143.11L505.73,146.32L506.68,142.98L507.63,138.48L508.58,145.8L513.32,157L514.27,148.33L515.22,152.54L518.07,146.52L519.01,148.01L520.91,154.03L521.86,169.02L524.71,165.94L525.66,174.11L526.6,169.79L528.5,150.12L531.35,154.54L532.3,145.68L533.25,148.09L534.2,145.44L535.14,147.64L537.99,157.69L538.94,169.79L540.84,155.63L541.79,158.2L544.63,159.19L545.58,151.2L546.53,152.04L547.48,149.32L551.27,159.21L552.22,155.42L553.17,166.33L554.12,166L555.07,158.23L557.92,158.25L558.87,158.5L559.81,162.87L560.76,159.79L561.71,169.81L564.56,164.58L565.51,174.21L566.46,167.43L567.4,170.58L568.35,157.77L571.2,160.47L574.05,191.01L575,189.02L578.79,185.87L579.74,183.5L581.64,211.71L584.48,211.74L591.13,256.93L592.07,258.07L593.02,267.59L593.97,292.87L594.92,302.13L597.77,277.84L598.72,274.14L599.67,280.25L601.56,261.76L604.41,262.47L606.31,243.53L607.26,247.68L608.2,243.79L611.05,247.21L612,248.24L612.95,235.8L613.9,224.61L614.85,228.98L617.69,228.76L618.64,226.34L620.54,240.93L621.49,238.23L624.33,226.81L625.28,229.25L626.23,228.89L627.18,221.15L628.13,215.72L630.98,233.91L632.87,246.74L633.82,234.28L634.77,230.34L637.62,222.59L638.57,212.69L639.52,215.11L641.41,211.57L644.26,215.11L646.16,197.34L647.11,194.12L648.06,194.48L650.9,187.25L652.8,196.61L654.7,188.36L657.54,186.84L658.49,194.11L659.44,204.72L660.39,196.96L661.34,195.5L664.19,201.28L666.08,178.16L667.03,179.16L671.78,193.07L672.73,192.64L673.67,201.11L674.62,198.16L677.47,192.83L678.42,185.81L679.37,181.05L680.32,186.68L681.27,183.37L684.11,183.37L687.91,176.66L690.75,184.28L692.65,180.86L693.6,174.34L694.55,168.56L697.4,172.7L701.19,186.52L704.04,192.87L704.99,190.71L705.93,204.69L706.88,195.6L707.83,200.76L711.63,204.59L712.58,203.46L714.47,196.25L717.32,194.56L718.27,210.9L719.22,201.35L720.17,190.98L721.12,191.82L723.96,206.35L724.91,206.46L726.81,210.42L727.76,202.58L730.6,193.3L731.55,194.69L732.5,186.38L733.45,185.57L734.4,192.1L738.2,202.52L739.14,189.58L740.09,196.61L741.04,187.8L743.89,176.08L744.84,178.09L745.79,177.28L746.73,178.7L747.68,161.36L750.53,146.97L751.48,157.1L752.43,147.8L753.38,151.03L754.33,147.92L757.17,145.36L758.12,143.97L759.07,152.58L760.02,151.57L760.97,145.62L763.81,147.57L764.76,143.77L765.71,152.6L766.66,154.03L770.46,167.11L771.4,162.38L772.35,157.52L773.3,159.04L777.1,161.76L778.05,165L779,172.61L779.94,170.18L780.89,167.77L783.74,169.26L784.69,171.93L785.64,160.51L786.59,174.08L787.53,173.11L790.38,179.52L791.33,165.81L792.28,171.13L793.23,172.15L794.18,168.73L797.02,176.7L798.92,183.69L799.87,183.39L800.82,191.59L803.67,197.59L805.56,181.76L806.51,179.64L810.31,198.37L811.26,196.49L812.2,176.34L813.15,183.23L814.1,189.67L816.95,178.46L817.9,166.02L818.85,169.62L820.74,162.4L823.59,170.55L824.54,178.72L825.49,175.28L826.44,171.44L827.39,178.82L831.18,186.92L832.13,190.78L833.08,191.53L834.03,190.63L837.82,206.3L838.77,199.11L839.72,210.47L840.67,212.78L843.52,209.1L844.47,217.56L845.41,210.93L846.36,218.51L847.31,220.4L850.16,206.33L851.11,205.1L852.06,214.64L853.95,234.95L856.8,233.1L857.75,243.33L858.7,243.77L859.65,233.88L860.6,235.64L863.44,244.45L864.39,251.19L865.34,248.07L867.24,226.65L870.08,233.55L871.03,245.36L871.98,264.01L872.93,264.8L873.88,272.52L876.73,275.51L877.67,286.47L878.62,281.89L879.57,290.67L880.52,316.42L884.32,337.34L885.27,305.07L886.21,305.4L887.16,300.25L890.01,270.71L890.96,272.81L891.91,269.08L892.86,284.26L893.8,297.03L896.65,314.82L899.5,270.7L900.45,268.5L903.29,272.23L904.24,285.86L906.14,263.7L907.09,266.35L909.93,252.31L910.88,260.14L912.78,248.16L913.73,260.08L916.58,257.04L917.53,263.29L918.47,271.89L919.42,273.41L920.37,273.91L924.17,297.36L925.12,289.64L926.07,298.97L927.01,289.5L929.86,283.42L930.81,277.92L931.76,279.34L933.66,297.06L936.5,292.6L937.45,304L938.4,306.31L939.35,321.5L940.3,318.62L943.14,326.13L944.09,338.61L945.99,317.89L946.94,337.4L949.79,344.63L950.73,321.74L953.58,348.82L956.43,355.79L957.38,350.6L958.33,364.8L960.22,327.58L963.07,325.79L964.02,300.82L964.97,315.32L965.92,299.54L966.87,296.42L969.71,282.17L970.66,287.99L971.61,285.07L972.56,296.75L973.51,288.39L976.35,293.41L977.3,293.35L978.25,289.49L979.2,291.49L980.15,283.53L983,279.97L983.94,272.93L984.89,266.81L985.84,279L989.64,294.01L990.59,292.22L991.53,291.4L992.48,281.92L993.43,279.48L996.28,285.58L997.23,286.36L998.18,276.58L999.13,261.92L1000.07,264.58L1002.92,261.64L1003.87,273.05L1004.82,256.21L1006.72,258.56L1009.56,260.77L1010.51,268.66L1011.46,269L1012.41,276.56L1013.36,275.08L1016.2,286.45L1017.15,279.8L1018.1,278.81L1019.05,282.16L1020,289.07" style="vector-effect: non-scaling-stroke; fill: none; stroke: rgb(254, 203, 82); stroke-opacity: 1; stroke-width: 2px; opacity: 1;"/></g><g class="points"/><g class="text"/></g></g></g><g class="overplot"/><path class="xlines-above crisp" d="M0,0" style="fill: none;"/><path class="ylines-above crisp" d="M0,0" style="fill: none;"/><g class="overlines-above"/><g class="xaxislayer-above"><g class="xtick"><text text-anchor="middle" x="0" y="457" transform="translate(220.79,0)" style="font-family: 'Open Sans', verdana, arial, sans-serif; font-size: 12px; fill: rgb(42, 63, 95); fill-opacity: 1; white-space: pre; opacity: 1;">Jul 2000</text></g><g class="xtick"><text text-anchor="middle" x="0" y="457" style="font-family: 'Open Sans', verdana, arial, sans-serif; font-size: 12px; fill: rgb(42, 63, 95); fill-opacity: 1; white-space: pre; opacity: 1;" transform="translate(395.38,0)">Jan 2001</text></g><g class="xtick"><text text-anchor="middle" x="0" y="457" style="font-family: 'Open Sans', verdana, arial, sans-serif; font-size: 12px; fill: rgb(42, 63, 95); fill-opacity: 1; white-space: pre; opacity: 1;" transform="translate(567.12,0)">Jul 2001</text></g><g class="xtick"><text text-anchor="middle" x="0" y="457" style="font-family: 'Open Sans', verdana, arial, sans-serif; font-size: 12px; fill: rgb(42, 63, 95); fill-opacity: 1; white-space: pre; opacity: 1;" transform="translate(741.7,0)">Jan 2002</text></g><g class="xtick"><text text-anchor="middle" x="0" y="457" style="font-family: 'Open Sans', verdana, arial, sans-serif; font-size: 12px; fill: rgb(42, 63, 95); fill-opacity: 1; white-space: pre; opacity: 1;" transform="translate(913.44,0)">Jul 2002</text></g></g><g class="yaxislayer-above"><g class="ytick"><text text-anchor="end" x="49" y="4.199999999999999" transform="translate(0,443.69)" style="font-family: 'Open Sans', verdana, arial, sans-serif; font-size: 12px; fill: rgb(42, 63, 95); fill-opacity: 1; white-space: pre; opacity: 1;">7k</text></g><g class="ytick"><text text-anchor="end" x="49" y="4.199999999999999" style="font-family: 'Open Sans', verdana, arial, sans-serif; font-size: 12px; fill: rgb(42, 63, 95); fill-opacity: 1; white-space: pre; opacity: 1;" transform="translate(0,377.7)">8k</text></g><g class="ytick"><text text-anchor="end" x="49" y="4.199999999999999" style="font-family: 'Open Sans', verdana, arial, sans-serif; font-size: 12px; fill: rgb(42, 63, 95); fill-opacity: 1; white-space: pre; opacity: 1;" transform="translate(0,311.7)">9k</text></g><g class="ytick"><text text-anchor="end" x="49" y="4.199999999999999" style="font-family: 'Open Sans', verdana, arial, sans-serif; font-size: 12px; fill: rgb(42, 63, 95); fill-opacity: 1; white-space: pre; opacity: 1;" transform="translate(0,245.7)">10k</text></g><g class="ytick"><text text-anchor="end" x="49" y="4.199999999999999" style="font-family: 'Open Sans', verdana, arial, sans-serif; font-size: 12px; fill: rgb(42, 63, 95); fill-opacity: 1; white-space: pre; opacity: 1;" transform="translate(0,179.7)">11k</text></g><g class="ytick"><text text-anchor="end" x="49" y="4.199999999999999" style="font-family: 'Open Sans', verdana, arial, sans-serif; font-size: 12px; fill: rgb(42, 63, 95); fill-opacity: 1; white-space: pre; opacity: 1;" transform="translate(0,113.7)">12k</text></g></g><g class="overaxes-above"/></g></g><g class="polarlayer"/><g class="ternarylayer"/><g class="geolayer"/><g class="funnelarealayer"/><g class="pielayer"/><g class="iciclelayer"/><g class="treemaplayer"/><g class="sunburstlayer"/><g class="glimages"/><defs id="topdefs-5219a8"><g class="clips"/><clipPath id="legend5219a8"><rect width="136" height="200" x="0" y="0"/></clipPath></defs><g class="layer-above"><g class="imagelayer"/><g class="shapelayer"/></g><g class="infolayer"><g class="legend" pointer-events="all" transform="translate(1090.4,60)"><rect class="bg" shape-rendering="crispEdges" width="136" height="200" x="0" y="0" style="stroke: rgb(68, 68, 68); stroke-opacity: 1; fill: rgb(255, 255, 255); fill-opacity: 1; stroke-width: 0px;"/><g class="scrollbox" transform="" clip-path="url(#legend5219a8)"><g class="groups"><g class="traces" transform="translate(0,14.5)" style="opacity: 1;"><text class="legendtext" text-anchor="start" x="40" y="4.680000000000001" style="font-family: 'Open Sans', verdana, arial, sans-serif; font-size: 12px; fill: rgb(42, 63, 95); fill-opacity: 1; white-space: pre;">Conic =0.1</text><g class="layers" style="opacity: 1;"><g class="legendfill"/><g class="legendlines"><path class="js-line" d="M5,0h30" style="fill: none; stroke: rgb(99, 110, 250); stroke-opacity: 1; stroke-width: 2px;"/></g><g class="legendsymbols"><g class="legendpoints"/></g></g><rect class="legendtoggle" x="0" y="-9.5" width="130.8186798095703" height="19" style="fill: rgb(0, 0, 0); fill-opacity: 0;"/></g><g class="traces" transform="translate(0,33.5)" style="opacity: 1;"><text class="legendtext" text-anchor="start" x="40" y="4.680000000000001" style="font-family: 'Open Sans', verdana, arial, sans-serif; font-size: 12px; fill: rgb(42, 63, 95); fill-opacity: 1; white-space: pre;">Conic =3.275</text><g class="layers" style="opacity: 1;"><g class="legendfill"/><g class="legendlines"><path class="js-line" d="M5,0h30" style="fill: none; stroke: rgb(239, 85, 59); stroke-opacity: 1; stroke-width: 2px;"/></g><g class="legendsymbols"><g class="legendpoints"/></g></g><rect class="legendtoggle" x="0" y="-9.5" width="130.8186798095703" height="19" style="fill: rgb(0, 0, 0); fill-opacity: 0;"/></g><g class="traces" transform="translate(0,52.5)" style="opacity: 1;"><text class="legendtext" text-anchor="start" x="40" y="4.680000000000001" style="font-family: 'Open Sans', verdana, arial, sans-serif; font-size: 12px; fill: rgb(42, 63, 95); fill-opacity: 1; white-space: pre;">Conic =6.45</text><g class="layers" style="opacity: 1;"><g class="legendfill"/><g class="legendlines"><path class="js-line" d="M5,0h30" style="fill: none; stroke: rgb(0, 204, 150); stroke-opacity: 1; stroke-width: 2px;"/></g><g class="legendsymbols"><g class="legendpoints"/></g></g><rect class="legendtoggle" x="0" y="-9.5" width="130.8186798095703" height="19" style="fill: rgb(0, 0, 0); fill-opacity: 0;"/></g><g class="traces" transform="translate(0,71.5)" style="opacity: 1;"><text class="legendtext" text-anchor="start" x="40" y="4.680000000000001" style="font-family: 'Open Sans', verdana, arial, sans-serif; font-size: 12px; fill: rgb(42, 63, 95); fill-opacity: 1; white-space: pre;">Conic =9.625</text><g class="layers" style="opacity: 1;"><g class="legendfill"/><g class="legendlines"><path class="js-line" d="M5,0h30" style="fill: none; stroke: rgb(171, 99, 250); stroke-opacity: 1; stroke-width: 2px;"/></g><g class="legendsymbols"><g class="legendpoints"/></g></g><rect class="legendtoggle" x="0" y="-9.5" width="130.8186798095703" height="19" style="fill: rgb(0, 0, 0); fill-opacity: 0;"/></g><g class="traces" transform="translate(0,90.5)" style="opacity: 1;"><text class="legendtext" text-anchor="start" x="40" y="4.680000000000001" style="font-family: 'Open Sans', verdana, arial, sans-serif; font-size: 12px; fill: rgb(42, 63, 95); fill-opacity: 1; white-space: pre;">Conic =12.8</text><g class="layers" style="opacity: 1;"><g class="legendfill"/><g class="legendlines"><path class="js-line" d="M5,0h30" style="fill: none; stroke: rgb(255, 161, 90); stroke-opacity: 1; stroke-width: 2px;"/></g><g class="legendsymbols"><g class="legendpoints"/></g></g><rect class="legendtoggle" x="0" y="-9.5" width="130.8186798095703" height="19" style="fill: rgb(0, 0, 0); fill-opacity: 0;"/></g><g class="traces" transform="translate(0,109.5)" style="opacity: 0.5;"><text class="legendtext" text-anchor="start" x="40" y="4.680000000000001" style="font-family: 'Open Sans', verdana, arial, sans-serif; font-size: 12px; fill: rgb(42, 63, 95); fill-opacity: 1; white-space: pre;">Mean-Variance</text><g class="layers" style="opacity: 1;"><g class="legendfill"/><g class="legendlines"><path class="js-line" d="M5,0h30" style="fill: none; stroke: rgb(25, 211, 243); stroke-opacity: 1; stroke-width: 2px;"/></g><g class="legendsymbols"><g class="legendpoints"/></g></g><rect class="legendtoggle" x="0" y="-9.5" width="130.8186798095703" height="19" style="fill: rgb(0, 0, 0); fill-opacity: 0;"/></g><g class="traces" transform="translate(0,128.5)" style="opacity: 0.5;"><text class="legendtext" text-anchor="start" x="40" y="4.680000000000001" style="font-family: 'Open Sans', verdana, arial, sans-serif; font-size: 12px; fill: rgb(42, 63, 95); fill-opacity: 1; white-space: pre;">Mean-VaR</text><g class="layers" style="opacity: 1;"><g class="legendfill"/><g class="legendlines"><path class="js-line" d="M5,0h30" style="fill: none; stroke: rgb(255, 102, 146); stroke-opacity: 1; stroke-width: 2px;"/></g><g class="legendsymbols"><g class="legendpoints"/></g></g><rect class="legendtoggle" x="0" y="-9.5" width="130.8186798095703" height="19" style="fill: rgb(0, 0, 0); fill-opacity: 0;"/></g><g class="traces" transform="translate(0,147.5)" style="opacity: 0.5;"><text class="legendtext" text-anchor="start" x="40" y="4.680000000000001" style="font-family: 'Open Sans', verdana, arial, sans-serif; font-size: 12px; fill: rgb(42, 63, 95); fill-opacity: 1; white-space: pre;">Mean-CVaR 95%</text><g class="layers" style="opacity: 1;"><g class="legendfill"/><g class="legendlines"><path class="js-line" d="M5,0h30" style="fill: none; stroke: rgb(182, 232, 128); stroke-opacity: 1; stroke-width: 2px;"/></g><g class="legendsymbols"><g class="legendpoints"/></g></g><rect class="legendtoggle" x="0" y="-9.5" width="130.8186798095703" height="19" style="fill: rgb(0, 0, 0); fill-opacity: 0;"/></g><g class="traces" transform="translate(0,166.5)" style="opacity: 0.5;"><text class="legendtext" text-anchor="start" x="40" y="4.680000000000001" style="font-family: 'Open Sans', verdana, arial, sans-serif; font-size: 12px; fill: rgb(42, 63, 95); fill-opacity: 1; white-space: pre;">Mean-CVaR 99%</text><g class="layers" style="opacity: 1;"><g class="legendfill"/><g class="legendlines"><path class="js-line" d="M5,0h30" style="fill: none; stroke: rgb(255, 151, 255); stroke-opacity: 1; stroke-width: 2px;"/></g><g class="legendsymbols"><g class="legendpoints"/></g></g><rect class="legendtoggle" x="0" y="-9.5" width="130.8186798095703" height="19" style="fill: rgb(0, 0, 0); fill-opacity: 0;"/></g><g class="traces" transform="translate(0,185.5)" style="opacity: 1;"><text class="legendtext" text-anchor="start" x="40" y="4.680000000000001" style="font-family: 'Open Sans', verdana, arial, sans-serif; font-size: 12px; fill: rgb(42, 63, 95); fill-opacity: 1; white-space: pre;">DJIA</text><g class="layers" style="opacity: 1;"><g class="legendfill"/><g class="legendlines"><path class="js-line" d="M5,0h30" style="fill: none; stroke: rgb(254, 203, 82); stroke-opacity: 1; stroke-width: 2px;"/></g><g class="legendsymbols"><g class="legendpoints"/></g></g><rect class="legendtoggle" x="0" y="-9.5" width="130.8186798095703" height="19" style="fill: rgb(0, 0, 0); fill-opacity: 0;"/></g></g></g><rect class="scrollbar" rx="20" ry="3" width="0" height="0" x="0" y="0" style="fill: rgb(128, 139, 164); fill-opacity: 1;"/></g><g class="g-gtitle"/><g class="g-xtitle"/><g class="g-ytitle"/></g></svg>