<svg class="main-svg" xmlns="http://www.w3.org/2000/svg" xmlns:xlink="http://www.w3.org/1999/xlink" width="1238" height="494" style=""><rect x="0" y="0" width="1238" height="494" style="fill: rgb(255, 255, 255); fill-opacity: 1;"/><defs id="defs-e4cae8"><g class="clips"><clipPath id="clipe4cae8xyplot" class="plotclip"><rect width="1020" height="384"/></clipPath><clipPath class="axesclip" id="clipe4cae8x"><rect x="50" y="0" width="1020" height="494"/></clipPath><clipPath class="axesclip" id="clipe4cae8y"><rect x="0" y="60" width="1238" height="384"/></clipPath><clipPath class="axesclip" id="clipe4cae8xy"><rect x="50" y="60" width="1020" height="384"/></clipPath></g><g class="gradients"/><g class="patterns"/></defs><g class="bglayer"><rect class="bg" x="50" y="60" width="1020" height="384" style="fill: rgb(229, 236, 246); fill-opacity: 1; stroke-width: 0;"/></g><g class="layer-below"><g class="imagelayer"/><g class="shapelayer"/></g><g class="cartesianlayer"><g class="subplot xy"><g class="layer-subplot"><g class="shapelayer"/><g class="imagelayer"/></g><g class="gridlayer"><g class="x"><path class="xgrid crisp" transform="translate(220.79,0)" d="M0,60v384" style="stroke: rgb(255, 255, 255); stroke-opacity: 1; stroke-width: 1px;"/><path class="xgrid crisp" transform="translate(395.38,0)" d="M0,60v384" style="stroke: rgb(255, 255, 255); stroke-opacity: 1; stroke-width: 1px;"/><path class="xgrid crisp" transform="translate(567.12,0)" d="M0,60v384" style="stroke: rgb(255, 255, 255); stroke-opacity: 1; stroke-width: 1px;"/><path class="xgrid crisp" transform="translate(741.7,0)" d="M0,60v384" style="stroke: rgb(255, 255, 255); stroke-opacity: 1; stroke-width: 1px;"/><path class="xgrid crisp" transform="translate(913.44,0)" d="M0,60v384" style="stroke: rgb(255, 255, 255); stroke-opacity: 1; stroke-width: 1px;"/></g><g class="y"><path class="ygrid crisp" transform="translate(0,378.89)" d="M50,0h1020" style="stroke: rgb(255, 255, 255); stroke-opacity: 1; stroke-width: 1px;"/><path class="ygrid crisp" transform="translate(0,314.57)" d="M50,0h1020" style="stroke: rgb(255, 255, 255); stroke-opacity: 1; stroke-width: 1px;"/><path class="ygrid crisp" transform="translate(0,250.25)" d="M50,0h1020" style="stroke: rgb(255, 255, 255); stroke-opacity: 1; stroke-width: 1px;"/><path class="ygrid crisp" transform="translate(0,185.92000000000002)" d="M50,0h1020" style="stroke: rgb(255, 255, 255); stroke-opacity: 1; stroke-width: 1px;"/><path class="ygrid crisp" transform="translate(0,121.6)" d="M50,0h1020" style="stroke: rgb(255, 255, 255); stroke-opacity: 1; stroke-width: 1px;"/></g></g><g class="zerolinelayer"/><path class="xlines-below"/><path class="ylines-below"/><g class="overlines-below"/><g class="xaxislayer-below"/><g class="yaxislayer-below"/><g class="overaxes-below"/><g class="plot" transform="translate(50,60)" clip-path="url(#clipe4cae8xyplot)"><g class="scatterlayer mlayer"><g class="trace scatter trace5cd52c" style="stroke-miterlimit: 2; opacity: 1;"><g class="fills"/><g class="errorbars"/><g class="lines"><path class="js-line" d="M0,102.93L0.95,120.41L1.9,102.76L3.8,73.03L6.64,75.59L7.59,77.19L8.54,77.3L9.49,75.36L10.44,75.8L14.23,94.85L15.18,90.41L17.08,110.02L19.93,117.39L23.72,152.84L26.57,136.25L27.52,137.91L28.47,146.44L30.36,163.91L33.21,169.16L34.16,169.39L35.11,181.48L37,200.95L39.85,199.25L40.8,185.34L41.75,190.28L42.7,188.67L43.65,208.86L47.44,199.18L48.39,206.15L50.29,234.78L53.13,224.22L54.08,219.39L55.03,218.57L55.98,218.67L56.93,202.51L59.78,222.89L60.73,240.55L62.62,230.73L63.57,236.14L66.42,233.82L67.37,242.74L69.27,183.48L70.21,196.21L73.06,196.41L74.01,182.48L74.96,196.01L75.91,191.1L76.86,185.63L79.7,188.6L81.6,177.95L82.55,163.05L83.5,165.35L86.34,142.27L87.29,137.13L88.24,146.38L89.19,144.22L90.14,153.58L92.99,152.94L93.93,140.6L94.88,143.42L95.83,153.35L96.78,187.78L99.63,187.8L100.58,190.85L101.53,189.7L102.47,173.46L106.27,154.73L107.22,148.86L108.17,159.48L113.86,144.83L114.81,163.25L115.76,164.08L116.71,155.81L120.5,153.42L121.45,147.22L122.4,139.43L123.35,145.3L127.14,123.78L128.09,133.61L129.04,136.06L129.99,141.71L132.84,135.99L133.79,137.57L134.73,131.23L135.68,151.04L136.63,154.36L140.43,145.04L143.27,153.33L146.12,155.09L147.07,154.61L148.02,156.1L149.92,160.81L152.76,164.47L153.71,162.18L154.66,152.39L155.61,148.56L156.56,156.23L159.4,160.21L160.35,172.49L161.3,167.6L162.25,173.98L163.2,172.4L166.05,169.72L167,167.24L167.94,171.59L168.89,173.77L169.84,183.45L172.69,171.87L174.59,170.38L175.53,180.53L176.48,180.32L179.33,175.32L180.28,161.73L182.18,168.03L183.13,177.61L185.97,182.77L186.92,182.22L187.87,181.51L188.82,183.23L189.77,186.53L192.61,186.32L193.56,180.29L194.51,184.43L195.46,172.06L196.41,169.56L199.26,171.7L200.2,167.48L201.15,158.68L202.1,159.15L205.9,149.59L206.85,149.38L207.8,153.68L208.74,151.13L209.69,140.79L212.54,142.09L213.49,147.09L214.44,147.93L215.39,150.59L216.33,155.48L219.18,155.28L220.13,156.06L222.03,161.61L222.98,160.72L225.82,157.95L226.77,162.28L227.72,166.75L228.67,167.13L229.62,166.79L233.41,159.65L234.36,153.91L235.31,163.5L236.26,164.74L239.11,161.4L240.06,162.88L241,170.64L241.95,175.48L242.9,175.85L246.7,182.01L247.65,190.95L248.6,182.36L249.54,165.69L253.34,165.96L254.29,162.43L256.19,152.08L259.03,149.57L260.93,137.27L261.88,135.74L262.83,141.02L265.67,140.44L266.62,141.44L267.57,144.36L269.47,160.24L272.32,163.08L275.16,174.14L276.11,169.74L278.96,158.34L279.91,146.91L280.86,148.04L281.8,143.66L285.6,103.54L286.55,104.63L287.5,103.86L288.45,111.02L289.4,108.26L292.24,104.66L293.19,102.72L294.14,96.68L295.09,103.09L296.04,103.35L298.88,101.81L299.83,96.29L300.78,92.82L301.73,98.68L302.68,96.01L305.53,95.77L306.47,93.17L307.42,93.21L309.32,96.14L312.17,103.62L313.12,102.41L314.07,95.8L315.01,104.89L315.96,101.43L319.76,70.36L320.71,83.02L321.66,84.82L322.6,81.08L325.45,90.36L326.4,84.27L327.35,81.95L328.3,87.56L329.25,101.97L332.09,85.93L333.04,84.05L333.99,102.06L335.89,75.83L339.68,66.7L340.63,53.81L341.58,52.96L342.53,57.7L346.33,66.72L348.22,75.61L349.17,88.81L352.02,84.51L352.97,94.72L354.87,108.54L355.81,109.42L359.61,100.14L360.56,106.45L361.51,106.28L362.46,116.1L365.3,111.4L366.25,105.78L367.2,114.06L368.15,110.6L369.1,118.94L371.94,119.5L373.84,100.08L374.79,96.64L375.74,99.95L378.59,95.73L379.53,97.09L380.48,95.85L381.43,100.09L382.38,100.03L385.23,95.31L386.18,96.84L387.13,107.12L388.07,99.56L389.02,101.45L392.82,102.58L393.77,111.34L394.72,109L395.67,116.31L398.51,105.05L399.46,100.88L400.41,108.34L401.36,109.95L402.31,101.62L405.15,102.33L406.1,105.61L407.05,103.69L408,84.86L413.69,141.1L414.64,141.12L415.59,150.7L418.44,145.33L421.28,184.2L422.23,178.93L425.08,171.88L426.03,157.61L426.98,161.48L427.93,156.58L428.87,147.93L431.72,152.75L432.67,169.93L433.62,163.7L434.57,144.92L435.52,148.38L438.36,143.84L439.31,130.52L440.26,144.11L441.21,141.76L445.95,127.08L446.9,113.43L447.85,117.02L448.8,124.45L451.65,121.68L452.6,126.11L455.44,103.13L458.29,107.2L459.24,98.45L460.19,100.51L461.13,104.34L462.08,93.51L464.93,95.11L465.88,94.06L466.83,88.39L467.78,87.53L468.73,89.14L471.57,83.82L472.52,82.58L473.47,60.29L474.42,62.53L475.37,55.49L478.21,57.12L479.16,62.51L481.06,72.7L482.01,77.21L485.8,71.95L486.75,78.52L487.7,75.87L488.65,78.74L491.5,72.74L492.45,66.55L493.4,70.65L494.34,69.46L495.29,76.08L498.14,75.93L500.04,74L500.99,83.25L501.93,90.45L504.78,93.2L505.73,93.3L506.68,92.33L507.63,94.87L508.58,102.89L511.42,108.54L512.37,106.41L513.32,105.77L514.27,101.05L515.22,109.13L518.07,99.31L519.01,102.98L520.91,103.68L521.86,114.35L524.71,111.51L525.66,115.52L526.6,114.25L528.5,104.12L531.35,105.83L532.3,109.48L533.25,104.82L534.2,100.81L535.14,108.31L537.99,118.63L538.94,129.35L540.84,105.05L541.79,108.04L544.63,106.58L545.58,99.17L551.27,112.52L552.22,110.95L553.17,119.72L554.12,118.78L555.07,109.99L557.92,108.21L558.87,109.11L559.81,108.09L560.76,107.87L561.71,113.42L564.56,108.41L565.51,112.04L567.4,106.83L568.35,96.34L571.2,101.33L572.15,110.76L574.05,123.11L575,122.7L578.79,109.14L579.74,108.87L581.64,128.7L584.48,128.66L593.02,174.12L593.97,194.97L594.92,206.47L597.77,187.93L598.72,181.59L599.67,184.17L601.56,154.61L604.41,159.03L606.31,138.18L607.26,136.86L608.2,136.44L611.05,139.02L612,132.85L612.95,118.86L613.9,106.05L614.85,111.45L617.69,114.51L618.64,112.04L620.54,127.68L621.49,129.39L624.33,119.09L625.28,127.68L626.23,126.65L627.18,122.4L628.13,115.23L630.98,129.48L632.87,152.43L633.82,136.66L634.77,131.96L637.62,131.34L638.57,126.37L639.52,127.71L640.47,129.95L641.41,127.06L644.26,131.67L645.21,120.54L646.16,121.09L647.11,116.75L648.06,115.62L650.9,110.13L652.8,115.99L654.7,108.81L657.54,112.74L658.49,119.48L659.44,127.1L660.39,123.99L661.34,123.39L664.19,126.83L665.13,121.89L666.08,108.48L667.98,119.46L670.83,126.51L671.78,126.94L672.73,129.93L673.67,142.19L674.62,135.39L677.47,133.95L678.42,124.06L679.37,123.58L680.32,127.16L681.27,131.41L684.11,130.71L686.01,127.14L686.96,120.85L690.75,128.12L692.65,124.74L694.55,111.41L697.4,116.72L698.34,120.98L699.29,131.51L701.19,151.2L704.04,165.6L704.99,165.38L705.93,181.13L706.88,172.91L707.83,172.01L711.63,177.55L712.58,168.82L714.47,158.3L717.32,158.69L718.27,166.8L719.22,159.45L720.17,146.7L721.12,146.22L724.91,159.16L725.86,156.29L726.81,154.19L727.76,146.82L730.6,139.76L731.55,141.07L732.5,133.18L733.45,132.6L734.4,132.43L738.2,143.85L739.14,134.2L740.09,139.27L741.04,125.63L743.89,119.02L744.84,120.96L745.79,119.15L746.73,117.76L747.68,104.64L750.53,92.53L751.48,99.6L752.43,90.24L753.38,95.19L754.33,97.59L757.17,95.24L758.12,90.43L759.07,97.35L760.02,93.71L760.97,86.72L763.81,88.85L764.76,82.86L767.61,102.26L770.46,111.25L772.35,96.98L773.3,100.12L777.1,103.95L778.05,102.46L779,109.66L779.94,108.59L780.89,101.41L783.74,100.58L784.69,102.3L785.64,93.23L786.59,106.54L787.53,108.83L790.38,115.77L791.33,103.73L792.28,105.97L793.23,102.46L794.18,101.38L797.02,112.34L798.92,121.9L799.87,122.25L803.67,136.79L804.61,120.72L806.51,112.41L807.46,117.3L810.31,129L811.26,129.31L812.2,118.07L813.15,116.82L814.1,119.76L816.95,106.78L817.9,99.93L818.85,106.13L820.74,99.66L823.59,112.69L824.54,113.04L825.49,106L826.44,100.17L827.39,106.65L831.18,110.68L832.13,116.06L833.08,119.96L834.03,116.67L837.82,133.19L838.77,125.23L839.72,137.54L840.67,132.99L843.52,131.9L844.47,141.88L845.41,133.45L846.36,141.75L847.31,145.76L850.16,130.1L851.11,131.28L852.06,139.67L853,143.34L853.95,157.63L856.8,156.54L857.75,161.91L858.7,163.86L859.65,153.44L860.6,151.77L863.44,157.26L864.39,166.74L865.34,165.74L867.24,150.15L870.08,154.05L873.88,203.26L876.73,213.28L877.67,219.77L878.62,219.8L879.57,236.8L880.52,268.19L883.37,290.57L884.32,289.74L885.27,264.7L886.21,262.59L887.16,246.41L890.01,219.69L890.96,226.79L891.91,218.62L893.8,249.3L896.65,264.78L900.45,229.34L903.29,231.23L904.24,240.06L905.19,221.52L906.14,213.87L907.09,216.4L909.93,202.59L910.88,214.82L912.78,205.48L913.73,219.49L916.58,214.87L917.53,217.92L918.47,230.81L919.42,229.17L920.37,230.63L924.17,254L925.12,247.84L926.07,257.04L927.01,250.46L929.86,247L931.76,238.42L932.71,253.93L933.66,253.9L936.5,247.57L937.45,267.48L938.4,270.32L939.35,286.1L940.3,281.19L943.14,283.92L944.09,295.87L945.99,276.56L946.94,298.68L949.79,307.34L950.73,279.85L951.68,296.89L952.63,296.1L953.58,306.34L956.43,312.94L957.38,308.44L958.33,323.9L960.22,283.41L963.07,282.15L964.02,261L964.97,271.82L965.92,255.4L966.87,257.03L969.71,241.56L970.66,246.27L971.61,251.77L972.56,266.23L973.51,257.24L976.35,263.14L977.3,270.87L978.25,264.01L979.2,267.63L980.15,256.58L983,255.78L983.94,246.66L984.89,239.46L985.84,250.82L989.64,270.53L990.59,270.53L991.53,270.45L992.48,257.85L993.43,254.18L996.28,256.22L997.23,254.1L998.18,245.39L999.13,233.01L1000.07,236.27L1002.92,233.02L1003.87,242L1004.82,225.96L1006.72,222.65L1009.56,231.24L1010.51,238.38L1011.46,240L1012.41,243.18L1013.36,244.46L1016.2,255.52L1018.1,248.9L1019.05,254.81L1020,257.75" style="vector-effect: non-scaling-stroke; fill: none; stroke: rgb(25, 211, 243); stroke-opacity: 1; stroke-width: 2px; opacity: 1;"/></g><g class="points"/><g class="text"/></g><g class="trace scatter tracea22437" style="stroke-miterlimit: 2; opacity: 1;"><g class="fills"/><g class="errorbars"/><g class="lines"><path class="js-line" d="M0,102.93L0.95,120.96L1.9,105.19L3.8,71.01L6.64,75.06L7.59,75.01L8.54,72.83L9.49,70.08L10.44,71.27L14.23,87.39L15.18,83L17.08,103.13L19.93,111.48L23.72,149.48L26.57,131.48L27.52,134.18L28.47,142.88L30.36,160.53L33.21,164.91L34.16,165.39L35.11,177.48L37,199.05L39.85,197.17L40.8,182.48L41.75,186.9L42.7,186.15L43.65,205.58L47.44,195.66L48.39,202.46L50.29,231.39L53.13,219.76L55.03,212.65L55.98,211.74L56.93,199.61L59.78,219.3L60.73,237.72L61.67,236.33L62.62,229.66L63.57,238.58L66.42,235.63L67.37,242.38L69.27,187.4L70.21,200.27L73.06,202.47L74.01,189.11L74.96,202.33L75.91,198.7L76.86,193.45L79.7,197.55L81.6,182.81L82.55,169.32L83.5,172.87L86.34,149.37L87.29,141.63L88.24,151.43L89.19,149.07L90.14,157.69L92.99,157.94L93.93,146.98L94.88,148.78L95.83,157.74L96.78,190.87L99.63,189.61L100.58,193.7L101.53,189.91L102.47,171.68L106.27,152.31L107.22,149.12L108.17,160.51L109.12,158.54L110.07,161.12L113.86,150.75L114.81,167.03L115.76,167.46L116.71,159.57L120.5,157.1L121.45,148.74L122.4,140.5L123.35,145.57L127.14,122.7L128.09,132.18L129.99,140L132.84,133.26L133.79,134.21L134.73,126.56L135.68,144.66L136.63,145.73L140.43,140.38L141.38,143.37L142.33,145.05L143.27,152.56L146.12,155.06L147.07,151.93L148.02,153.7L148.97,159.37L149.92,162L152.76,164.8L153.71,161.91L154.66,154.18L155.61,151.17L156.56,159.29L159.4,161.16L160.35,172.99L161.3,167.42L162.25,174.7L166.05,163.54L167,164.06L169.84,177.92L172.69,169.68L174.59,169.68L175.53,176.07L179.33,172.88L180.28,162.51L183.13,180.2L185.97,183.2L187.87,180.53L188.82,181.74L189.77,186.34L192.61,185.6L193.56,179.4L194.51,181.92L195.46,167.94L196.41,166.34L199.26,169.59L200.2,164.31L201.15,154.9L202.1,156.8L203.05,153.75L205.9,147.61L206.85,148.97L207.8,153.37L208.74,149.4L209.69,137.58L212.54,137L213.49,141.19L214.44,139.38L215.39,141.56L216.33,146.96L219.18,144.31L221.08,145.65L222.03,150.75L222.98,149.82L225.82,148.11L228.67,159.4L229.62,159.54L233.41,153.58L234.36,148.13L236.26,157.2L239.11,153.1L240.06,151.74L241,161.7L241.95,166.21L242.9,162.65L245.75,163.87L246.7,166.14L247.65,174.97L248.6,167.45L249.54,149.59L252.39,147.97L253.34,147.54L254.29,140.81L255.24,132.03L256.19,130.97L259.03,126.97L259.98,120.8L260.93,119.4L261.88,116.53L262.83,121L265.67,120.39L267.57,119.06L268.52,129.94L269.47,134.96L272.32,138.08L274.21,143.6L275.16,147.65L276.11,141.36L278.96,130.59L279.91,122.94L280.86,121.84L281.8,117.59L282.75,106.45L285.6,81.24L286.55,85.66L287.5,84.15L288.45,92.75L289.4,92.92L292.24,88.39L293.19,87.7L294.14,80.1L295.09,83.34L296.04,81.26L298.88,80.8L299.83,75.62L300.78,72.09L301.73,74.48L302.68,70.26L305.53,68.98L306.47,63.7L307.42,63.03L309.32,66.86L312.17,75.76L313.12,75.82L314.07,70.52L315.01,79.65L315.96,80.82L319.76,56.32L320.71,69.07L321.66,64.96L322.6,64.93L325.45,76.6L326.4,68.13L327.35,63.8L328.3,68.5L329.25,82.56L332.09,66.02L333.04,63.97L333.99,79.64L335.89,58.52L339.68,47.89L340.63,35.99L341.58,35.65L342.53,38.28L346.33,41.97L349.17,75.52L352.02,69.54L354.87,88.35L355.81,89.85L359.61,83.02L360.56,89.44L361.51,90.95L362.46,98.74L365.3,92.92L366.25,87.74L367.2,97.2L368.15,94.39L369.1,104.15L371.94,105.5L373.84,86.38L374.79,83.34L375.74,85.99L378.59,79.51L379.53,80.43L380.48,80.02L381.43,82.22L382.38,80.38L385.23,76.04L386.18,77L387.13,88.28L388.07,83.39L389.02,81.83L392.82,81.01L393.77,88.44L394.72,86.23L395.67,92.75L398.51,86.58L399.46,83.12L400.41,91.94L401.36,94.66L402.31,86.3L405.15,86.68L406.1,89.74L407.05,89.08L408,69.85L412.74,107.03L413.69,121.51L414.64,122.23L415.59,133.07L418.44,129.63L419.39,145.11L421.28,168.64L422.23,166.74L425.08,157.53L426.03,142.56L426.98,147.59L427.93,142.14L428.87,132.38L431.72,138.15L432.67,155.62L433.62,149.75L434.57,132.57L435.52,133.62L438.36,129.42L439.31,118.85L440.26,132.64L441.21,129.54L445.95,114.95L446.9,104.7L447.85,107.43L448.8,114.51L451.65,109L452.6,113.05L455.44,90.73L458.29,93.64L459.24,83.52L460.19,88.79L461.13,92.12L462.08,82L465.88,82.73L466.83,75.8L468.73,76.57L471.57,71.53L472.52,70.89L473.47,51.5L474.42,53.77L475.37,44.34L478.21,49.83L479.16,54.02L480.11,61.23L481.06,61L482.01,65.25L485.8,59.83L486.75,64.23L487.7,62.51L488.65,65.95L491.5,60.32L492.45,54.33L493.4,59.77L494.34,59.38L495.29,65.56L498.14,64.11L499.09,60.96L500.04,60.85L500.99,68.96L501.93,78.24L504.78,80.44L505.73,81.75L506.68,81.06L507.63,82.41L508.58,88.99L511.42,93.53L512.37,92.39L513.32,93.68L514.27,89.68L515.22,96.32L518.07,88.77L519.01,91.74L520.91,93.88L521.86,103.15L524.71,101.07L525.66,103.69L526.6,103.18L528.5,94.72L531.35,95.11L532.3,97.22L533.25,94.42L534.2,89.97L535.14,96.06L537.99,105.58L538.94,115.07L540.84,93.03L541.79,95.8L544.63,94.77L545.58,88.41L547.48,91.13L548.43,95.07L551.27,101.43L552.22,98.29L553.17,106.8L554.12,105.84L555.07,98.24L557.92,96.81L558.87,97.87L559.81,96.72L560.76,93.62L561.71,99.07L564.56,93.18L565.51,97.64L567.4,90.68L568.35,81.83L571.2,87.08L572.15,96.75L574.05,107.64L575,108.29L579.74,93.23L580.69,101.05L581.64,111.64L584.48,109.53L593.02,152.06L593.97,173.97L594.92,188.97L597.77,173.56L598.72,166.57L599.67,169.22L601.56,138.11L604.41,140.79L607.26,117.04L608.2,116.69L611.05,117.58L612,113.05L613.9,88.62L614.85,93.7L617.69,96.47L618.64,94.19L620.54,111.38L621.49,112.17L624.33,102.34L625.28,112.1L626.23,112.55L627.18,107.72L628.13,98.8L630.98,114.37L632.87,136.75L633.82,121.3L634.77,117.69L637.62,116.88L638.57,112.07L639.52,114.3L640.47,117.31L641.41,113.27L644.26,117.22L645.21,106.57L646.16,110.04L647.11,109L648.06,107.47L650.9,105.04L651.85,106.15L652.8,109.04L654.7,102.11L657.54,106.57L659.44,121.54L660.39,115.49L664.19,118.38L665.13,112.79L666.08,102.33L667.03,111.51L672.73,124.41L673.67,134.15L674.62,126.02L677.47,123.6L679.37,112.18L680.32,115.95L681.27,118.1L684.11,116.54L686.01,112.16L686.96,106.22L690.75,114.45L692.65,110.95L694.55,101.9L697.4,107.03L698.34,108.92L699.29,118.25L701.19,134.38L704.04,143.94L704.99,141.68L705.93,156.08L706.88,147.86L707.83,147.7L711.63,152.28L712.58,143.49L714.47,137.36L717.32,136.63L718.27,145.46L719.22,136.69L720.17,124.04L721.12,124.19L723.96,134.94L724.91,134.98L725.86,131.62L726.81,131.64L727.76,126.47L730.6,120.82L731.55,121.09L732.5,113.77L734.4,112.54L738.2,122.35L739.14,112.63L740.09,118.06L741.04,102.82L743.89,96.15L744.84,98.28L745.79,97.62L746.73,95.95L747.68,82.71L750.53,71.53L751.48,77.38L752.43,68.04L753.38,73.03L754.33,74.53L757.17,72.15L758.12,66.37L759.07,73.59L760.02,70.77L760.97,64.25L763.81,66.61L764.76,60.7L765.71,67.34L766.66,67.6L767.61,76.67L770.46,86.49L772.35,71.62L773.3,74.9L777.1,78.13L778.05,75.43L779,82.52L779.94,81.62L780.89,76.97L783.74,74.48L784.69,77.63L785.64,69.2L787.53,85.58L790.38,91.36L791.33,80.05L792.28,83.83L794.18,78.09L797.02,86.63L798.92,96.55L799.87,96.45L800.82,100.9L803.67,108.6L805.56,88.32L806.51,85.97L811.26,102.9L812.2,92.38L813.15,92.16L814.1,94.85L817.9,75.5L818.85,82.94L820.74,75.78L823.59,87.86L824.54,88.1L825.49,80.29L826.44,75.14L827.39,82.16L831.18,87.21L832.13,90.11L833.08,94.54L834.03,89.99L836.87,104.86L837.82,105.12L838.77,96.42L839.72,107.55L840.67,103.45L843.52,102.25L844.47,111.12L845.41,101.6L847.31,113.86L850.16,98.2L851.11,99.53L852.06,106.47L853,109.41L853.95,124.1L856.8,123.9L857.75,132.49L858.7,134.41L859.65,125.46L860.6,124.29L863.44,128.8L864.39,137.98L865.34,138.89L867.24,122.95L870.08,125.21L873.88,177.08L876.73,187.43L877.67,194.85L878.62,193.94L879.57,210.78L880.52,243.18L883.37,264.31L884.32,259.84L885.27,232.79L886.21,232.54L887.16,214.3L890.01,187.59L890.96,193.72L891.91,185.1L893.8,216.37L896.65,230.17L898.55,210.6L899.5,196.04L900.45,193.41L903.29,195.23L904.24,205.96L905.19,186.03L906.14,178.08L907.09,181.12L909.93,168L910.88,180.23L912.78,172.92L913.73,187.64L916.58,183.52L917.53,185.2L918.47,197.13L919.42,196.66L920.37,197.63L924.17,222.05L925.12,217.03L926.07,224.02L927.01,219.23L929.86,215.98L931.76,207.49L932.71,223.48L933.66,222.59L936.5,214.31L937.45,238.22L938.4,240.64L939.35,256.12L940.3,252.74L943.14,254.72L944.09,266.26L945.99,245.43L946.94,269.84L949.79,278.86L950.73,251.41L951.68,268.58L952.63,267.58L953.58,278.37L956.43,281.96L957.38,279.83L958.33,293.49L960.22,255.05L963.07,252.56L964.02,232.77L964.97,244.28L965.92,227.87L966.87,229.82L969.71,214.8L970.66,218.85L971.61,222.5L972.56,235.99L973.51,228.68L976.35,235.43L977.3,242.07L978.25,235.26L979.2,239.32L980.15,228.39L983,229.11L983.94,217.65L984.89,212.58L985.84,221.8L986.79,228.47L989.64,242.46L990.59,245.81L991.53,245.83L993.43,229.7L996.28,230.69L997.23,227.97L998.18,220.32L999.13,211.61L1000.07,215.58L1002.92,213.03L1003.87,222.43L1004.82,207.71L1006.72,206.16L1009.56,212.5L1010.51,217.61L1011.46,216.78L1012.41,219.19L1013.36,220.11L1016.2,230.64L1017.15,225.03L1018.1,224.17L1020,231.09" style="vector-effect: non-scaling-stroke; fill: none; stroke: rgb(255, 102, 146); stroke-opacity: 1; stroke-width: 2px; opacity: 1;"/></g><g class="points"/><g class="text"/></g><g class="trace scatter trace7e3c74" style="stroke-miterlimit: 2; opacity: 1;"><g class="fills"/><g class="errorbars"/><g class="lines"><path class="js-line" d="M0,102.93L0.95,121.06L1.9,105.44L3.8,71.38L6.64,75.38L7.59,75.4L8.54,73.25L9.49,70.47L10.44,71.72L14.23,87.92L15.18,83.72L17.08,103.59L19.93,111.97L23.72,150.21L26.57,132.18L27.52,134.83L28.47,143.57L30.36,161.21L33.21,165.51L34.16,166L35.11,177.99L37,199.66L39.85,197.7L40.8,183.07L41.75,187.46L42.7,186.59L43.65,206.03L47.44,196.19L48.39,202.96L50.29,231.9L53.13,220.24L55.03,213.02L55.98,212.03L56.93,199.89L59.78,219.64L60.73,237.69L61.67,236.26L62.62,229.6L63.57,238.34L66.42,235.42L67.37,242.14L69.27,186.98L70.21,199.88L73.06,202.03L74.01,188.62L74.96,201.84L75.91,198.07L76.86,193.05L79.7,197.18L81.6,182.54L82.55,168.9L83.5,172.31L86.34,148.91L87.29,141.17L88.24,150.92L89.19,148.62L90.14,157.24L92.99,157.41L93.93,146.46L94.88,148.39L95.83,157.43L96.78,190.68L99.63,189.36L100.58,193.39L101.53,189.56L102.47,171.39L106.27,152.01L107.22,148.65L108.17,160.13L109.12,158.12L110.07,160.56L113.86,150.12L114.81,166.48L115.76,166.94L116.71,158.95L120.5,156.55L121.45,148.21L122.4,139.87L123.35,144.9L127.14,121.96L128.09,131.48L129.99,139.44L132.84,132.72L133.79,133.72L134.73,126.12L135.68,144.23L136.63,145.35L140.43,140.01L141.38,142.96L142.33,144.6L143.27,152L146.12,154.57L147.07,151.4L148.02,153.14L148.97,158.79L149.92,161.31L152.76,164.17L153.71,161.28L154.66,153.41L155.61,150.45L156.56,158.57L159.4,160.48L160.35,172.39L161.3,166.75L162.25,173.99L166.05,162.81L167,163.31L169.84,177.15L172.69,168.93L174.59,168.85L175.53,175.31L179.33,172.05L180.28,161.74L183.13,179.45L185.97,182.53L187.87,180.09L188.82,181.33L189.77,185.89L192.61,185.18L193.56,178.97L194.51,181.51L195.46,167.56L196.41,165.94L199.26,169.12L200.2,163.81L201.15,154.46L202.1,156.35L203.05,153.19L205.9,146.95L206.85,148.34L207.8,152.78L208.74,148.81L209.69,137.05L212.54,136.53L213.49,140.77L214.44,138.93L215.39,141.08L216.33,146.53L219.18,143.85L221.08,145.29L222.03,150.44L225.82,147.76L226.77,152.14L228.67,159.1L229.62,159.27L233.41,153.35L234.36,147.88L236.26,156.92L239.11,152.74L240.06,151.41L241,161.39L241.95,165.84L242.9,162.31L245.75,163.56L246.7,165.8L247.65,174.68L248.6,167.16L249.54,149.22L252.39,147.56L253.34,147.1L254.29,140.34L255.24,131.54L256.19,130.51L259.03,126.53L259.98,120.35L260.93,119L261.88,116.02L262.83,120.58L265.67,120.03L267.57,118.7L268.52,129.55L269.47,134.53L272.32,137.59L274.21,143.18L275.16,147.28L276.11,141.02L278.96,130.22L279.91,122.57L280.86,121.48L281.8,117.22L282.75,106.05L285.6,80.75L286.55,85.18L287.5,83.7L288.45,92.26L289.4,92.46L292.24,87.89L293.19,87.21L294.14,79.65L295.09,82.87L296.04,80.79L298.88,80.37L299.83,75.16L300.78,71.65L301.73,74.03L302.68,69.84L305.53,68.55L306.47,63.28L307.42,62.56L309.32,66.38L312.17,75.39L313.12,75.48L314.07,70.21L315.01,79.26L315.96,80.47L319.76,55.89L320.71,68.57L321.66,64.48L322.6,64.56L325.45,76.23L326.4,67.73L327.35,63.4L328.3,68.06L329.25,82.09L332.09,65.62L333.04,63.69L333.99,79.4L335.89,58.16L339.68,47.43L340.63,35.49L341.58,35.26L342.53,37.91L346.33,41.62L349.17,75.18L352.02,69.16L354.87,87.83L355.81,89.43L359.61,82.66L360.56,88.96L361.51,90.4L362.46,98.18L365.3,92.34L366.25,87.21L367.2,96.7L368.15,93.89L369.1,103.7L371.94,104.92L373.84,85.94L374.79,82.87L375.74,85.5L378.59,79.08L379.53,79.98L380.48,79.63L381.43,81.8L382.38,80.01L385.23,75.67L386.18,76.57L387.13,87.86L388.07,82.93L389.02,81.38L392.82,80.57L393.77,87.96L394.72,85.76L395.67,92.26L398.51,85.99L399.46,82.47L400.41,91.33L401.36,94L402.31,85.67L405.15,86.11L406.1,89.16L407.05,88.57L408,69.33L412.74,106.44L413.69,121.03L414.64,121.66L415.59,132.53L418.44,129.13L419.39,144.68L421.28,168.21L422.23,166.25L425.08,157.05L426.03,142.05L426.98,147.07L427.93,141.48L428.87,131.79L431.72,137.5L432.67,155.03L433.62,149.14L434.57,131.93L435.52,133.01L438.36,128.77L439.31,118.27L440.26,132.13L441.21,128.99L445.95,114.3L446.9,104.1L447.85,106.92L448.8,114.02L451.65,108.55L452.6,112.57L455.44,90.22L458.29,93.15L459.24,83.08L460.19,88.31L461.13,91.66L462.08,81.52L465.88,82.3L466.83,75.46L468.73,76.13L471.57,71.12L472.52,70.46L473.47,50.99L474.42,53.24L475.37,43.72L478.21,49.2L479.16,53.4L480.11,60.58L481.06,60.32L482.01,64.56L485.8,59.13L486.75,63.58L487.7,61.78L488.65,65.3L491.5,59.65L492.45,53.66L493.4,59.15L494.34,58.74L495.29,64.94L498.14,63.5L499.09,60.4L500.04,60.28L500.99,68.42L501.93,77.75L504.78,79.9L505.73,81.18L506.68,80.46L507.63,81.76L508.58,88.38L511.42,92.91L512.37,91.78L513.32,93.04L514.27,88.95L515.22,95.62L518.07,88.16L519.01,91.08L520.91,93.21L521.86,102.47L524.71,100.35L525.66,102.99L526.6,102.43L528.5,93.94L531.35,94.3L532.3,96.45L533.25,93.68L534.2,89.22L535.14,95.38L537.99,104.94L538.94,114.42L540.84,92.49L541.79,95.25L544.63,94.23L545.58,87.81L547.48,90.64L548.43,94.56L551.27,100.88L552.22,97.7L553.17,106.24L554.12,105.23L555.07,97.6L557.92,96.18L558.87,97.23L559.81,96.14L560.76,93.03L561.71,98.56L564.56,92.56L565.51,97.03L567.4,90.11L568.35,81.3L571.2,86.56L572.15,96.22L574.05,107.17L575,107.82L579.74,92.71L580.69,100.48L581.64,111.03L584.48,108.8L593.02,151.63L593.97,173.65L594.92,188.54L597.77,173.15L598.72,166.08L599.67,168.77L601.56,137.64L604.41,140.25L607.26,116.42L608.2,116.16L611.05,116.99L612,112.47L613.9,88.03L614.85,93.16L617.69,95.82L618.64,93.49L620.54,110.69L621.49,111.46L624.33,101.68L625.28,111.5L626.23,111.9L627.18,107.16L628.13,98.22L630.98,113.7L632.87,136.18L633.82,120.74L634.77,117.14L637.62,116.34L638.57,111.52L639.52,113.79L640.47,116.76L641.41,112.68L644.26,116.7L645.21,106.04L646.16,109.42L647.11,108.31L648.06,106.79L650.9,104.29L651.85,105.47L652.8,108.35L654.7,101.45L657.54,105.9L659.44,120.84L660.39,114.78L664.19,117.76L665.13,112.17L666.08,101.74L667.03,110.91L672.73,123.93L673.67,133.63L674.62,125.47L677.47,122.97L679.37,111.58L680.32,115.38L681.27,117.54L684.11,115.98L686.01,111.62L686.96,105.62L690.75,113.88L692.65,110.36L694.55,101.33L697.4,106.45L698.34,108.36L699.29,117.72L701.19,133.83L704.04,143.43L704.99,141.24L705.93,155.64L706.88,147.31L707.83,147.17L711.63,151.77L712.58,142.96L714.47,136.84L717.32,136.05L718.27,144.85L719.22,136.12L720.17,123.43L721.12,123.59L723.96,134.45L724.91,134.48L725.86,131.15L726.81,131.11L727.76,125.92L730.6,120.31L731.55,120.62L732.5,113.25L734.4,112.05L738.2,121.87L739.14,112.08L740.09,117.55L741.04,102.39L743.89,95.71L744.84,97.76L745.79,97.07L746.73,95.38L747.68,82.18L750.53,70.98L751.48,76.87L752.43,67.53L753.38,72.47L754.33,74L757.17,71.66L758.12,65.93L759.07,73.12L760.02,70.23L760.97,63.73L763.81,66.14L764.76,60.25L765.71,66.9L766.66,67.16L767.61,76.22L770.46,86.05L772.35,71.17L773.3,74.46L777.1,77.69L778.05,75.03L779,82.1L779.94,81.17L780.89,76.55L783.74,74.02L784.69,77.23L785.64,68.77L787.53,85.19L790.38,91.01L791.33,79.66L792.28,83.44L794.18,77.68L797.02,86.25L798.92,96.17L799.87,96.05L800.82,100.51L803.67,108.31L805.56,87.96L806.51,85.68L811.26,102.63L812.2,92.08L813.15,91.89L814.1,94.59L817.9,75.24L818.85,82.64L820.74,75.48L823.59,87.62L824.54,87.84L825.49,80.01L826.44,74.78L827.39,81.77L831.18,86.78L832.13,89.68L833.08,94.14L834.03,89.6L836.87,104.56L837.82,104.85L838.77,96.11L839.72,107.25L840.67,103.13L843.52,101.89L844.47,110.8L845.41,101.31L847.31,113.6L850.16,97.95L851.11,99.29L852.06,106.25L853,109.26L853.95,124.04L856.8,123.83L857.75,132.41L858.7,134.39L859.65,125.48L860.6,124.27L863.44,128.87L864.39,138.04L865.34,138.9L867.24,122.86L870.08,125.12L873.88,176.96L876.73,187.34L877.67,194.72L878.62,193.8L879.57,210.7L880.52,243.15L883.37,264.36L884.32,259.91L885.27,232.92L886.21,232.69L887.16,214.35L890.01,187.59L890.96,193.66L891.91,185.05L893.8,216.33L896.65,230.14L898.55,210.61L899.5,196.03L900.45,193.41L903.29,195.21L904.24,206.02L905.19,186.1L906.14,178.16L907.09,181.2L909.93,168.02L910.88,180.28L912.78,173.03L913.73,187.79L916.58,183.67L917.53,185.36L918.47,197.32L919.42,196.82L920.37,197.82L924.17,222.26L925.12,217.2L926.07,224.24L927.01,219.42L929.86,216.15L931.76,207.51L932.71,223.54L933.66,222.71L936.5,214.43L937.45,238.32L938.4,240.76L939.35,256.22L940.3,252.86L943.14,254.82L944.09,266.29L945.99,245.52L946.94,269.99L949.79,278.98L950.73,251.54L951.68,268.72L952.63,267.69L953.58,278.49L956.43,282.13L957.38,279.99L958.33,293.69L960.22,255.13L963.07,252.67L964.02,232.84L964.97,244.32L965.92,227.71L966.87,229.63L969.71,214.54L970.66,218.58L971.61,222.34L972.56,235.79L973.51,228.48L976.35,235.2L977.3,241.88L978.25,235.03L979.2,239.08L980.15,228.12L983,228.76L983.94,217.36L984.89,212.28L985.84,221.53L986.79,228.24L989.64,242.22L990.59,245.61L991.53,245.62L993.43,229.48L996.28,230.48L997.23,227.79L998.18,220.09L999.13,211.33L1000.07,215.37L1002.92,212.76L1003.87,222.22L1004.82,207.52L1006.72,205.98L1009.56,212.32L1010.51,217.54L1011.46,216.67L1012.41,219.11L1013.36,220.03L1016.2,230.57L1017.15,224.97L1018.1,224.09L1020,231.03" style="vector-effect: non-scaling-stroke; fill: none; stroke: rgb(182, 232, 128); stroke-opacity: 1; stroke-width: 2px; opacity: 1;"/></g><g class="points"/><g class="text"/></g><g class="trace scatter trace1afc6b" style="stroke-miterlimit: 2; opacity: 1;"><g class="fills"/><g class="errorbars"/><g class="lines"><path class="js-line" d="M0,102.93L0.95,121.16L1.9,105.2L3.8,70.49L6.64,74.89L7.59,74.83L8.54,72L9.49,68.93L10.44,70.82L14.23,87.64L15.18,82.85L17.08,101.33L19.93,110.21L23.72,146.9L26.57,128.68L27.52,132.03L28.47,140.79L30.36,158.66L33.21,162.8L34.16,163.51L35.11,175.9L37,199.03L39.85,196.64L40.8,182.41L41.75,186.53L42.7,186.14L43.65,205.63L47.44,195.55L48.39,202.14L50.29,231.11L53.13,219.62L55.03,212.73L55.98,211.72L56.93,200.56L59.78,219.71L60.73,235.68L61.67,233.49L62.62,225.63L63.57,234.21L66.42,232.43L67.37,239.09L69.27,182.26L70.21,195.5L73.06,198L74.01,183.72L74.96,196.86L75.91,193.3L76.86,187.95L79.7,191.9L81.6,177.06L82.55,162.92L83.5,166.46L86.34,141.96L87.29,134.62L88.24,143.86L89.19,142.42L90.14,151.25L92.99,151.58L93.93,140.41L94.88,143.22L95.83,151.9L96.78,184.69L99.63,184.1L100.58,187.59L101.53,183.44L102.47,165.23L106.27,144.66L107.22,140.25L108.17,151.46L109.12,149.81L110.07,152.55L113.86,142.46L114.81,159.33L115.76,160.26L116.71,152.1L119.55,149.49L120.5,149.75L122.4,133.12L123.35,137.93L127.14,113.64L128.09,123.52L129.99,131.2L132.84,124.04L133.79,124.67L134.73,116.86L135.68,134.78L136.63,135.85L140.43,130.87L141.38,134L142.33,135.78L143.27,143.58L146.12,146.15L147.07,143.1L148.02,144.32L148.97,149.74L149.92,152.3L152.76,155.17L153.71,151.81L154.66,144.54L155.61,141.63L156.56,150.2L159.4,151.55L160.35,163.97L161.3,158.25L162.25,165.66L166.05,153.31L167,154.2L169.84,168.04L172.69,159.87L174.59,159.58L175.53,166.05L179.33,162.76L180.28,152.68L182.18,164.05L183.13,171.63L185.97,174.57L186.92,173.32L187.87,172.54L188.82,173.71L189.77,178.58L192.61,176.55L193.56,169.72L194.51,171.45L195.46,156.69L196.41,155.11L199.26,158.43L200.2,152.71L201.15,142.94L202.1,144.69L203.05,141.29L205.9,135.04L206.85,136.53L207.8,141.58L208.74,137.21L209.69,125.25L212.54,124.54L213.49,129.29L214.44,127.26L215.39,129.32L216.33,135.12L219.18,132.28L221.08,133.82L222.03,138.98L222.98,137.98L225.82,136.35L228.67,147.86L229.62,148.29L233.41,143.17L234.36,137.86L236.26,146.32L239.11,141.98L240.06,140.73L241,151.01L241.95,155.15L242.9,151.56L245.75,153L246.7,154.7L247.65,163.98L248.6,156.3L249.54,137.37L252.39,135.57L253.34,135.42L254.29,127.9L255.24,119.44L256.19,118.61L259.03,114.24L259.98,108.62L260.93,107.58L261.88,104.63L262.83,109.3L265.67,108.72L267.57,107.21L268.52,118.17L269.47,122.85L272.32,125.38L274.21,131.53L275.16,135.91L276.11,129.14L278.96,117L279.91,110.06L280.86,108.75L281.8,105.02L282.75,93.71L285.6,68.49L286.55,72.08L287.5,70.26L288.45,78.94L289.4,79.95L292.24,74.64L293.19,74.58L294.14,66.62L295.09,69.48L296.04,67.18L298.88,67.06L299.83,61.48L300.78,58.21L301.73,60.75L302.68,56.96L305.53,55.2L306.47,49.46L307.42,49.15L309.32,52.97L312.17,61.7L313.12,61.53L314.07,56.04L315.01,65.03L315.96,66.81L319.76,42.4L320.71,54.56L321.66,49.35L322.6,49.43L325.45,60.94L326.4,52.63L327.35,48.09L328.3,53.22L329.25,66.48L332.09,49.94L333.04,47.87L333.99,63.05L335.89,43.25L339.68,31.65L340.63,19.87L341.58,19.2L342.53,21.94L346.33,25.61L349.17,62.09L352.02,55.94L354.87,74.32L355.81,76.08L359.61,68.88L360.56,75.38L361.51,77.08L362.46,85.22L365.3,78.73L366.25,74.05L367.2,84.12L368.15,80.79L369.1,90.92L371.94,92.17L373.84,73.56L374.79,70.43L375.74,72.99L378.59,66.18L381.43,69.07L382.38,67.19L385.23,62.56L386.18,63.73L387.13,75.39L388.07,70.83L389.02,69.21L392.82,68.6L393.77,76.44L394.72,74.08L395.67,80.58L398.51,73.93L399.46,70.21L400.41,79.47L401.36,82.12L402.31,73.76L405.15,74.3L406.1,77.7L407.05,77.73L408,58.45L408.95,64.74L411.8,88.83L412.74,95.5L413.69,110.05L414.64,109.78L415.59,121.66L418.44,118.63L419.39,134.45L421.28,157.99L422.23,156.25L425.08,146.31L426.03,130.93L426.98,135.55L427.93,129.76L428.87,119.57L431.72,125.67L432.67,143.78L433.62,137.56L434.57,120.4L435.52,121.48L438.36,116.77L439.31,106.1L440.26,120.22L441.21,116.61L445.95,101.48L446.9,91.63L447.85,94.7L448.8,102.86L451.65,96.83L452.6,100.85L455.44,77.94L458.29,80.73L459.24,71.46L460.19,77.43L461.13,80.71L462.08,70.53L465.88,71.58L466.83,64.47L467.78,65.32L468.73,65.14L472.52,59.38L473.47,39.74L474.42,41.84L475.37,32.18L478.21,37.32L479.16,41.62L480.11,48.91L481.06,48.78L482.01,52.83L485.8,47.02L486.75,51.5L487.7,49.7L488.65,53.14L491.5,47.73L492.45,41.45L493.4,47.48L494.34,47.14L495.29,53.34L498.14,52.06L499.09,48.88L500.04,48.4L500.99,55.85L501.93,65.11L504.78,66.99L505.73,68.54L506.68,67.93L507.63,68.93L508.58,77L511.42,81.7L512.37,81.12L513.32,82.75L514.27,79.06L515.22,85.97L518.07,78.47L519.01,81.28L520.91,83.62L521.86,93.19L524.71,91.06L525.66,94.27L526.6,94.51L528.5,86.21L531.35,86.49L532.3,88.99L533.25,85.44L534.2,81.29L535.14,87.9L537.99,97.28L538.94,106.51L540.84,85.05L541.79,87.38L544.63,86.29L545.58,79.68L547.48,82.89L548.43,86.6L551.27,93.15L552.22,89.46L553.17,98L554.12,97.11L555.07,89.53L557.92,88.01L558.87,88.93L559.81,87.85L560.76,84.4L561.71,89.84L564.56,83.76L565.51,88.09L567.4,81.66L568.35,73.15L571.2,78.49L572.15,87.97L574.05,99.26L575,100.19L579.74,84.89L580.69,93.03L581.64,103.83L584.48,101.08L593.02,142.9L593.97,164.94L594.92,179.75L597.77,165.07L598.72,158.38L599.67,160.89L601.56,128.96L604.41,131.27L607.26,106.66L608.2,106.62L611.05,107.59L612,102.72L613.9,77.33L614.85,82.21L617.69,84.68L618.64,82.45L620.54,100.86L621.49,102.33L624.33,91.92L625.28,102.03L626.23,102.5L627.18,97.97L628.13,89.05L630.98,104.53L632.87,127.98L633.82,112.81L634.77,108.91L637.62,108.05L638.57,103.46L639.52,105.89L640.47,108.73L641.41,105.04L644.26,109.04L645.21,98.34L646.16,101.82L647.11,101.03L648.06,99.45L650.9,97.12L652.8,100.89L654.7,94.02L657.54,98.15L658.49,105.8L659.44,113.13L660.39,106.71L664.19,109.51L665.13,103.85L666.08,93.73L667.03,102.86L670.83,110.39L671.78,115.58L672.73,118.23L673.67,128.33L674.62,119.64L677.47,117.63L679.37,105.93L680.32,109.7L681.27,111.71L684.11,109.91L686.01,105.49L686.96,99.39L690.75,107.75L692.65,104.28L694.55,95.95L697.4,101.1L698.34,102.76L699.29,111.84L701.19,127.36L704.04,136.45L704.99,134.3L705.93,148.73L706.88,140.59L707.83,140.62L711.63,144.82L712.58,135.82L714.47,130.31L717.32,129.29L718.27,137.87L719.22,128.78L720.17,116.46L721.12,116.61L723.96,127.84L724.91,127.32L725.86,124.07L726.81,124.16L727.76,118.81L730.6,113.12L731.55,113.23L732.5,105.81L733.45,104.88L734.4,105.08L738.2,114.83L739.14,104.5L740.09,109.85L741.04,94.88L743.89,88.22L744.84,90.25L746.73,87.9L747.68,75.04L750.53,63.87L751.48,69.28L752.43,59.78L753.38,64.74L754.33,66.64L757.17,64.52L758.12,58.29L759.07,65.28L760.02,62.46L760.97,57.19L763.81,60.06L764.76,54.91L765.71,61.59L766.66,61.85L767.61,70.86L770.46,80.9L772.35,66.16L773.3,69.41L777.1,72.55L778.05,69.63L779,76.53L779.94,75.8L780.89,70.97L783.74,68.8L784.69,71.92L785.64,64.17L787.53,80.25L790.38,85.73L791.33,74.74L792.28,78.13L794.18,71.38L797.02,79.69L798.92,89.95L799.87,89.86L800.82,94.49L803.67,102.06L805.56,82L806.51,79.78L811.26,96.52L812.2,86.03L813.15,86.31L814.1,88.81L817.9,69.42L818.85,76.69L820.74,69.86L823.59,82.06L824.54,82.19L825.49,74.61L826.44,69.55L827.39,76.33L832.13,83.61L833.08,88.57L834.03,83.94L836.87,99.17L837.82,99.93L838.77,91.24L839.72,102.64L840.67,98.77L843.52,97.07L844.47,106.69L845.41,97.94L846.36,105.37L847.31,109.61L850.16,94.16L851.11,95.31L852.06,102.38L853,105.55L853.95,120.68L856.8,120.84L857.75,129.27L858.7,131.16L859.65,122.76L860.6,121.28L863.44,126.38L864.39,136.06L865.34,137.09L867.24,120.86L870.08,123.24L873.88,174.72L876.73,184.92L877.67,193.17L878.62,192.78L880.52,241.22L883.37,262.95L884.32,258.76L885.27,231.75L886.21,232.11L887.16,212.76L890.01,185.25L890.96,191L891.91,182.13L892.86,203.23L893.8,213.82L896.65,228.01L898.55,208.22L899.5,193.6L900.45,190.77L903.29,192.44L904.24,203.49L905.19,183.67L906.14,175.5L907.09,178.71L909.93,165.28L910.88,177.09L912.78,169.46L913.73,184.32L916.58,180.38L917.53,182.41L918.47,194.47L919.42,194.03L920.37,195.01L924.17,219.84L925.12,214.85L926.07,221.92L927.01,217.42L929.86,213.86L931.76,205.29L932.71,221.14L933.66,220.38L936.5,212.32L937.45,236.96L938.4,239.64L939.35,255.37L940.3,252.21L943.14,253.96L944.09,265.02L945.99,243.99L946.94,268.82L949.79,277.95L950.73,250.95L951.68,267.69L952.63,266.75L953.58,277.81L956.43,281.39L957.38,278.77L958.33,292.36L960.22,253.43L963.07,250.7L964.02,230.54L964.97,242L965.92,225.09L966.87,227.12L969.71,212.05L970.66,215.77L971.61,219.44L972.56,232.17L973.51,224.65L976.35,230.71L977.3,237.82L978.25,230.77L979.2,234.98L980.15,223.99L983,224.57L983.94,213.47L984.89,208.22L985.84,217.38L986.79,224.17L989.64,238.03L990.59,241.47L991.53,241.97L993.43,225.25L996.28,225.8L997.23,222.99L998.18,215.36L999.13,206.35L1000.07,210.18L1002.92,207.61L1003.87,217.32L1004.82,202.53L1006.72,200.98L1009.56,206.84L1010.51,212.42L1011.46,211.63L1012.41,213.68L1013.36,215.02L1016.2,225.59L1017.15,219.94L1018.1,219.5L1020,226.38" style="vector-effect: non-scaling-stroke; fill: none; stroke: rgb(255, 151, 255); stroke-opacity: 1; stroke-width: 2px; opacity: 1;"/></g><g class="points"/><g class="text"/></g><g class="trace scatter trace9fa647" style="stroke-miterlimit: 2; opacity: 1;"><g class="fills"/><g class="errorbars"/><g class="lines"><path class="js-line" d="M0,102.93L0.95,126.06L1.9,118.04L2.85,109.63L3.8,92.31L6.64,89.12L7.59,93.05L9.49,88.46L10.44,79.42L15.18,94.45L16.13,103.33L19.93,125.4L20.87,124L22.77,124.12L23.72,142.72L27.52,123.28L28.47,125.72L29.41,125.06L30.36,128.25L33.21,131.98L34.16,128.65L36.06,148.85L37,162.9L39.85,156.81L40.8,144.06L42.7,157.15L43.65,176.13L47.44,170.64L48.39,175.73L50.29,199.12L53.13,187.76L54.08,181.99L55.03,181.38L55.98,179.64L56.93,166.63L59.78,179.28L60.73,203.37L61.67,199.48L62.62,189.56L63.57,194.83L66.42,193.65L67.37,202.39L68.32,181.79L69.27,149.69L70.21,151.96L73.06,146.49L74.01,131.89L74.96,134.5L75.91,118.22L76.86,118.67L79.7,124.26L80.65,130.03L81.6,124.72L83.5,130.95L86.34,111.65L87.29,115.32L88.24,123.74L89.19,118.57L90.14,118.75L92.99,113.93L93.93,107.46L95.83,130.84L96.78,170.58L99.63,152.78L100.58,140.88L101.53,146.83L102.47,135.96L106.27,131.96L107.22,117.9L109.12,133.12L110.07,143.04L112.91,138.03L113.86,143.22L115.76,163.71L116.71,153.08L119.55,151.42L120.5,155.72L121.45,166.59L122.4,155.13L126.2,138.29L127.14,130.13L128.09,140.74L129.04,140.25L129.99,149.93L132.84,155.35L133.79,163.09L134.73,155.81L135.68,169.41L136.63,171L140.43,156.34L141.38,156.65L143.27,139.13L146.12,137.81L147.07,142.93L148.02,137.96L149.92,150.75L152.76,153.96L155.61,144.27L156.56,161.35L159.4,154.37L160.35,162.26L161.3,158.23L162.25,166.05L163.2,164.21L166.05,155.32L167,157.8L167.94,156.3L168.89,164.64L169.84,161.44L172.69,154.18L174.59,159.14L175.53,159.28L176.48,149.34L179.33,148.66L180.28,143.47L181.23,139.83L182.18,139.52L183.13,137.97L185.97,138.51L187.87,145.47L188.82,135.97L189.77,143.06L192.61,146.18L193.56,145.22L194.51,157.03L195.46,152.55L196.41,157.37L199.26,156.67L200.2,151.21L202.1,144.8L203.05,140.86L205.9,134.48L206.85,127.41L207.8,131.98L208.74,131.79L209.69,124.14L212.54,114.6L214.44,125.39L215.39,122.35L216.33,122.94L219.18,120.79L220.13,116.97L221.08,116.62L222.98,113.53L225.82,109.66L226.77,112.09L227.72,119.3L229.62,110.57L233.41,109.16L234.36,105.94L235.31,109.21L236.26,111.73L239.11,113.35L240.06,110.92L241,114.21L242.9,130.62L245.75,138.24L246.7,139.48L247.65,146L249.54,135.74L252.39,138.27L253.34,149.64L254.29,149.83L255.24,137.24L256.19,148.38L259.98,143.95L260.93,139.79L261.88,143.62L262.83,151.88L265.67,153.68L266.62,156.52L267.57,163.63L268.52,188.02L269.47,177.89L272.32,174.89L274.21,191.85L275.16,181.05L276.11,175.67L278.96,172.77L279.91,164.96L280.86,169.25L281.8,165.8L282.75,152.26L286.55,127.78L287.5,132.39L288.45,133.61L289.4,137.63L292.24,127.39L293.19,129L295.09,136.59L296.04,151.46L298.88,156.98L299.83,146.44L300.78,144.73L301.73,148.05L302.68,149.73L305.53,160.49L306.47,158.44L307.42,164.56L309.32,160L312.17,155.12L313.12,157.6L314.07,149.78L315.01,163.59L315.96,166.22L318.81,154.17L319.76,132.44L320.71,147.51L321.66,150.54L322.6,144.39L325.45,143.56L327.35,139.15L328.3,146.83L329.25,162.27L332.09,148.73L333.04,152.66L333.99,169.73L335.89,149.37L339.68,145.71L341.58,134.37L342.53,139.56L346.33,148.69L347.27,129.41L348.22,131.56L349.17,147.67L352.02,150.28L352.97,153.42L354.87,151.04L355.81,156.45L359.61,148.27L360.56,152.66L361.51,146.62L362.46,152.45L365.3,153.05L366.25,148.45L367.2,148.63L368.15,143.32L369.1,147.8L371.94,145.08L372.89,133.57L373.84,133.17L374.79,126.98L375.74,134.67L378.59,128.12L379.53,128.66L380.48,129.35L381.43,133.61L382.38,139.98L385.23,129.35L386.18,132.14L387.13,139.08L388.07,132.93L389.02,138.8L392.82,143.24L393.77,156.38L394.72,156.36L395.67,161.82L398.51,148.92L399.46,149.28L401.36,161.29L402.31,160.25L406.1,152.22L407.05,143.32L408,135.04L408.95,148.78L411.8,176.85L412.74,171.54L413.69,191.95L414.64,188.24L415.59,201.61L418.44,192.88L421.28,229.52L422.23,222.1L425.08,210.35L426.03,193.62L426.98,204.05L427.93,203.17L428.87,198.04L431.72,204.53L432.67,223.33L433.62,221.42L434.57,195.52L435.52,203.68L438.36,200.21L439.31,183.64L440.26,189.38L441.21,182.08L445,180.05L445.95,176.31L446.9,150.64L447.85,145.63L448.8,152.95L451.65,156.01L452.6,161.02L453.54,150.03L455.44,138.14L458.29,142.97L459.24,132.46L460.19,133.86L461.13,139L462.08,129.06L464.93,130.09L465.88,133.42L466.83,134.48L467.78,131.69L468.73,137.42L471.57,133.82L472.52,134.1L473.47,112.04L475.37,106.52L478.21,104.19L479.16,109.38L480.11,119.14L481.06,118.05L482.01,125.58L485.8,123.41L486.75,134.12L487.7,131.59L488.65,126.54L491.5,121.97L492.45,114.61L493.4,121.41L494.34,120.09L495.29,127.4L498.14,130.94L499.09,129.25L500.04,134.18L501.93,150.13L504.78,148.73L505.73,151.87L506.68,148.61L507.63,144.23L508.58,151.36L513.32,162.28L514.27,153.83L515.22,157.93L518.07,152.06L519.01,153.51L520.91,159.38L521.86,173.99L524.71,170.99L525.66,178.95L526.6,174.74L528.5,155.57L531.35,159.88L532.3,151.24L533.25,153.59L534.2,151.01L535.14,153.16L537.99,162.95L538.94,174.74L540.84,160.94L541.79,163.45L544.63,164.41L545.58,156.62L546.53,157.44L547.48,154.79L551.27,164.43L552.22,160.74L553.17,171.37L554.12,171.04L555.07,163.47L557.92,163.49L558.87,163.74L559.81,167.99L560.76,165L561.71,174.76L564.56,169.66L565.51,179.05L566.46,172.44L567.4,175.51L568.35,163.03L571.2,165.65L574.05,195.42L575,193.48L578.79,190.41L579.74,188.11L581.64,215.6L584.48,215.62L591.13,259.67L592.07,260.78L593.02,270.06L593.97,294.69L594.92,303.72L597.77,280.05L598.72,276.44L599.67,282.4L601.56,264.37L604.41,265.06L606.31,246.61L607.26,250.65L608.2,246.87L611.05,250.2L612,251.2L612.95,239.08L613.9,228.17L614.85,232.43L617.69,232.21L618.64,229.85L620.54,244.07L621.49,241.44L624.33,230.32L625.28,232.69L626.23,232.34L627.18,224.79L628.13,219.5L630.98,237.23L632.87,249.74L633.82,237.59L634.77,233.76L637.62,226.2L638.57,216.55L639.52,218.91L641.41,215.46L644.26,218.91L646.16,201.59L647.11,198.46L648.06,198.8L650.9,191.76L652.8,200.88L654.7,192.84L657.54,191.36L658.49,198.44L659.44,208.78L660.39,201.22L661.34,199.8L664.19,205.43L666.08,182.9L667.03,183.87L671.78,197.43L672.73,197.01L673.67,205.27L674.62,202.39L677.47,197.2L678.42,190.35L679.37,185.71L680.32,191.2L681.27,187.97L684.11,187.97L687.91,181.44L690.75,188.86L692.65,185.53L693.6,179.17L694.55,173.54L697.4,177.57L701.19,191.05L704.04,197.23L704.99,195.13L705.93,208.75L706.88,199.89L707.83,204.92L711.63,208.66L712.58,207.55L714.47,200.53L717.32,198.88L718.27,214.8L719.22,205.5L720.17,195.39L721.12,196.21L723.96,210.37L724.91,210.48L726.81,214.34L727.76,206.7L730.6,197.66L731.55,199.01L732.5,190.91L733.45,190.12L734.4,196.48L738.2,206.64L739.14,194.03L740.09,200.88L741.04,192.3L743.89,180.87L744.84,182.83L745.79,182.04L746.73,183.42L747.68,166.52L750.53,152.5L751.48,162.37L752.43,153.31L753.38,156.45L754.33,153.42L757.17,150.93L758.12,149.57L759.07,157.97L760.02,156.98L760.97,151.19L763.81,153.08L764.76,149.39L765.71,157.98L766.66,159.38L770.46,172.13L771.4,167.52L772.35,162.79L773.3,164.26L777.1,166.92L778.05,170.07L779,177.49L779.94,175.12L780.89,172.77L783.74,174.23L784.69,176.82L785.64,165.69L786.59,178.92L787.53,177.97L790.38,184.22L791.33,170.87L792.28,176.05L793.23,177.04L794.18,173.71L797.02,181.47L798.92,188.29L799.87,187.99L800.82,195.99L803.67,201.83L805.56,186.41L806.51,184.34L810.31,202.59L811.26,200.76L812.2,181.12L813.15,187.84L814.1,194.11L816.95,183.19L817.9,171.07L818.85,174.57L820.74,167.54L823.59,175.49L824.54,183.45L825.49,180.09L826.44,176.35L827.39,183.54L831.18,191.43L832.13,195.2L833.08,195.93L834.03,195.06L837.82,210.33L838.77,203.32L839.72,214.39L840.67,216.64L843.52,213.06L844.47,221.3L845.41,214.84L846.36,222.23L847.31,224.07L850.16,210.35L851.11,209.15L852.06,218.45L853.95,238.24L856.8,236.44L857.75,246.41L858.7,246.84L859.65,237.21L860.6,238.92L863.44,247.51L864.39,254.07L865.34,251.03L867.24,230.16L870.08,236.89L871.03,248.39L871.98,266.57L872.93,267.34L873.88,274.86L876.73,277.78L877.67,288.46L878.62,284L879.57,292.55L880.52,317.65L884.32,338.04L885.27,306.59L886.21,306.91L887.16,301.89L890.01,273.1L890.96,275.15L891.91,271.51L892.86,286.3L893.8,298.75L896.65,316.08L899.5,273.09L900.45,270.94L903.29,274.58L904.24,287.86L906.14,266.27L907.09,268.84L909.93,255.16L910.88,262.8L912.78,251.12L913.73,262.74L916.58,259.78L917.53,265.86L918.47,274.25L919.42,275.73L920.37,276.21L924.17,299.08L925.12,291.55L926.07,300.64L927.01,291.41L929.86,285.48L930.81,280.13L931.76,281.51L933.66,298.78L936.5,294.44L937.45,305.54L938.4,307.8L939.35,322.6L940.3,319.79L943.14,327.11L944.09,339.27L945.99,319.08L946.94,338.09L949.79,345.14L950.73,322.83L953.58,349.23L956.43,356.02L957.38,350.96L958.33,364.8L960.22,328.52L963.07,326.78L964.02,302.45L964.97,316.57L965.92,301.2L966.87,298.15L969.71,284.27L970.66,289.94L971.61,287.1L972.56,298.48L973.51,290.33L976.35,295.22L977.3,295.16L978.25,291.4L979.2,293.35L980.15,285.6L983,282.12L983.94,275.26L984.89,269.3L985.84,281.18L989.64,295.8L990.59,294.06L991.53,293.26L992.48,284.02L993.43,281.64L996.28,287.59L997.23,288.35L998.18,278.82L999.13,264.53L1000.07,267.12L1002.92,264.26L1003.87,275.38L1004.82,258.96L1006.72,261.25L1009.56,263.41L1010.51,271.1L1011.46,271.43L1012.41,278.8L1013.36,277.35L1016.2,288.44L1017.15,281.95L1018.1,281L1019.05,284.26L1020,290.99" style="vector-effect: non-scaling-stroke; fill: none; stroke: rgb(254, 203, 82); stroke-opacity: 1; stroke-width: 2px; opacity: 1;"/></g><g class="points"/><g class="text"/></g></g></g><g class="overplot"/><path class="xlines-above crisp" d="M0,0" style="fill: none;"/><path class="ylines-above crisp" d="M0,0" style="fill: none;"/><g class="overlines-above"/><g class="xaxislayer-above"><g class="xtick"><text text-anchor="middle" x="0" y="457" transform="translate(220.79,0)" style="font-family: 'Open Sans', verdana, arial, sans-serif; font-size: 12px; fill: rgb(42, 63, 95); fill-opacity: 1; white-space: pre; opacity: 1;">Jul 2000</text></g><g class="xtick"><text text-anchor="middle" x="0" y="457" style="font-family: 'Open Sans', verdana, arial, sans-serif; font-size: 12px; fill: rgb(42, 63, 95); fill-opacity: 1; white-space: pre; opacity: 1;" transform="translate(395.38,0)">Jan 2001</text></g><g class="xtick"><text text-anchor="middle" x="0" y="457" style="font-family: 'Open Sans', verdana, arial, sans-serif; font-size: 12px; fill: rgb(42, 63, 95); fill-opacity: 1; white-space: pre; opacity: 1;" transform="translate(567.12,0)">Jul 2001</text></g><g class="xtick"><text text-anchor="middle" x="0" y="457" style="font-family: 'Open Sans', verdana, arial, sans-serif; font-size: 12px; fill: rgb(42, 63, 95); fill-opacity: 1; white-space: pre; opacity: 1;" transform="translate(741.7,0)">Jan 2002</text></g><g class="xtick"><text text-anchor="middle" x="0" y="457" style="font-family: 'Open Sans', verdana, arial, sans-serif; font-size: 12px; fill: rgb(42, 63, 95); fill-opacity: 1; white-space: pre; opacity: 1;" transform="translate(913.44,0)">Jul 2002</text></g></g><g class="yaxislayer-above"><g class="ytick"><text text-anchor="end" x="49" y="4.199999999999999" transform="translate(0,443.21)" style="font-family: 'Open Sans', verdana, arial, sans-serif; font-size: 12px; fill: rgb(42, 63, 95); fill-opacity: 1; white-space: pre; opacity: 1;">7k</text></g><g class="ytick"><text text-anchor="end" x="49" y="4.199999999999999" style="font-family: 'Open Sans', verdana, arial, sans-serif; font-size: 12px; fill: rgb(42, 63, 95); fill-opacity: 1; white-space: pre; opacity: 1;" transform="translate(0,378.89)">8k</text></g><g class="ytick"><text text-anchor="end" x="49" y="4.199999999999999" style="font-family: 'Open Sans', verdana, arial, sans-serif; font-size: 12px; fill: rgb(42, 63, 95); fill-opacity: 1; white-space: pre; opacity: 1;" transform="translate(0,314.57)">9k</text></g><g class="ytick"><text text-anchor="end" x="49" y="4.199999999999999" style="font-family: 'Open Sans', verdana, arial, sans-serif; font-size: 12px; fill: rgb(42, 63, 95); fill-opacity: 1; white-space: pre; opacity: 1;" transform="translate(0,250.25)">10k</text></g><g class="ytick"><text text-anchor="end" x="49" y="4.199999999999999" style="font-family: 'Open Sans', verdana, arial, sans-serif; font-size: 12px; fill: rgb(42, 63, 95); fill-opacity: 1; white-space: pre; opacity: 1;" transform="translate(0,185.92000000000002)">11k</text></g><g class="ytick"><text text-anchor="end" x="49" y="4.199999999999999" style="font-family: 'Open Sans', verdana, arial, sans-serif; font-size: 12px; fill: rgb(42, 63, 95); fill-opacity: 1; white-space: pre; opacity: 1;" transform="translate(0,121.6)">12k</text></g></g><g class="overaxes-above"/></g></g><g class="polarlayer"/><g class="ternarylayer"/><g class="geolayer"/><g class="funnelarealayer"/><g class="pielayer"/><g class="iciclelayer"/><g class="treemaplayer"/><g class="sunburstlayer"/><g class="glimages"/><defs id="topdefs-e4cae8"><g class="clips"/><clipPath id="legende4cae8"><rect width="136" height="200" x="0" y="0"/></clipPath></defs><g class="layer-above"><g class="imagelayer"/><g class="shapelayer"/></g><g class="infolayer"><g class="legend" pointer-events="all" transform="translate(1090.4,60)"><rect class="bg" shape-rendering="crispEdges" width="136" height="200" x="0" y="0" style="stroke: rgb(68, 68, 68); stroke-opacity: 1; fill: rgb(255, 255, 255); fill-opacity: 1; stroke-width: 0px;"/><g class="scrollbox" transform="" clip-path="url(#legende4cae8)"><g class="groups"><g class="traces" transform="translate(0,14.5)" style="opacity: 0.5;"><text class="legendtext" text-anchor="start" x="40" y="4.680000000000001" style="font-family: 'Open Sans', verdana, arial, sans-serif; font-size: 12px; fill: rgb(42, 63, 95); fill-opacity: 1; white-space: pre;">Conic =0.1</text><g class="layers" style="opacity: 1;"><g class="legendfill"/><g class="legendlines"><path class="js-line" d="M5,0h30" style="fill: none; stroke: rgb(99, 110, 250); stroke-opacity: 1; stroke-width: 2px;"/></g><g class="legendsymbols"><g class="legendpoints"/></g></g><rect class="legendtoggle" x="0" y="-9.5" width="130.8186798095703" height="19" style="fill: rgb(0, 0, 0); fill-opacity: 0;"/></g><g class="traces" transform="translate(0,33.5)" style="opacity: 0.5;"><text class="legendtext" text-anchor="start" x="40" y="4.680000000000001" style="font-family: 'Open Sans', verdana, arial, sans-serif; font-size: 12px; fill: rgb(42, 63, 95); fill-opacity: 1; white-space: pre;">Conic =3.275</text><g class="layers" style="opacity: 1;"><g class="legendfill"/><g class="legendlines"><path class="js-line" d="M5,0h30" style="fill: none; stroke: rgb(239, 85, 59); stroke-opacity: 1; stroke-width: 2px;"/></g><g class="legendsymbols"><g class="legendpoints"/></g></g><rect class="legendtoggle" x="0" y="-9.5" width="130.8186798095703" height="19" style="fill: rgb(0, 0, 0); fill-opacity: 0;"/></g><g class="traces" transform="translate(0,52.5)" style="opacity: 0.5;"><text class="legendtext" text-anchor="start" x="40" y="4.680000000000001" style="font-family: 'Open Sans', verdana, arial, sans-serif; font-size: 12px; fill: rgb(42, 63, 95); fill-opacity: 1; white-space: pre;">Conic =6.45</text><g class="layers" style="opacity: 1;"><g class="legendfill"/><g class="legendlines"><path class="js-line" d="M5,0h30" style="fill: none; stroke: rgb(0, 204, 150); stroke-opacity: 1; stroke-width: 2px;"/></g><g class="legendsymbols"><g class="legendpoints"/></g></g><rect class="legendtoggle" x="0" y="-9.5" width="130.8186798095703" height="19" style="fill: rgb(0, 0, 0); fill-opacity: 0;"/></g><g class="traces" transform="translate(0,71.5)" style="opacity: 0.5;"><text class="legendtext" text-anchor="start" x="40" y="4.680000000000001" style="font-family: 'Open Sans', verdana, arial, sans-serif; font-size: 12px; fill: rgb(42, 63, 95); fill-opacity: 1; white-space: pre;">Conic =9.625</text><g class="layers" style="opacity: 1;"><g class="legendfill"/><g class="legendlines"><path class="js-line" d="M5,0h30" style="fill: none; stroke: rgb(171, 99, 250); stroke-opacity: 1; stroke-width: 2px;"/></g><g class="legendsymbols"><g class="legendpoints"/></g></g><rect class="legendtoggle" x="0" y="-9.5" width="130.8186798095703" height="19" style="fill: rgb(0, 0, 0); fill-opacity: 0;"/></g><g class="traces" transform="translate(0,90.5)" style="opacity: 0.5;"><text class="legendtext" text-anchor="start" x="40" y="4.680000000000001" style="font-family: 'Open Sans', verdana, arial, sans-serif; font-size: 12px; fill: rgb(42, 63, 95); fill-opacity: 1; white-space: pre;">Conic =12.8</text><g class="layers" style="opacity: 1;"><g class="legendfill"/><g class="legendlines"><path class="js-line" d="M5,0h30" style="fill: none; stroke: rgb(255, 161, 90); stroke-opacity: 1; stroke-width: 2px;"/></g><g class="legendsymbols"><g class="legendpoints"/></g></g><rect class="legendtoggle" x="0" y="-9.5" width="130.8186798095703" height="19" style="fill: rgb(0, 0, 0); fill-opacity: 0;"/></g><g class="traces" transform="translate(0,109.5)" style="opacity: 1;"><text class="legendtext" text-anchor="start" x="40" y="4.680000000000001" style="font-family: 'Open Sans', verdana, arial, sans-serif; font-size: 12px; fill: rgb(42, 63, 95); fill-opacity: 1; white-space: pre;">Mean-Variance</text><g class="layers" style="opacity: 1;"><g class="legendfill"/><g class="legendlines"><path class="js-line" d="M5,0h30" style="fill: none; stroke: rgb(25, 211, 243); stroke-opacity: 1; stroke-width: 2px;"/></g><g class="legendsymbols"><g class="legendpoints"/></g></g><rect class="legendtoggle" x="0" y="-9.5" width="130.8186798095703" height="19" style="fill: rgb(0, 0, 0); fill-opacity: 0;"/></g><g class="traces" transform="translate(0,128.5)" style="opacity: 1;"><text class="legendtext" text-anchor="start" x="40" y="4.680000000000001" style="font-family: 'Open Sans', verdana, arial, sans-serif; font-size: 12px; fill: rgb(42, 63, 95); fill-opacity: 1; white-space: pre;">Mean-VaR</text><g class="layers" style="opacity: 1;"><g class="legendfill"/><g class="legendlines"><path class="js-line" d="M5,0h30" style="fill: none; stroke: rgb(255, 102, 146); stroke-opacity: 1; stroke-width: 2px;"/></g><g class="legendsymbols"><g class="legendpoints"/></g></g><rect class="legendtoggle" x="0" y="-9.5" width="130.8186798095703" height="19" style="fill: rgb(0, 0, 0); fill-opacity: 0;"/></g><g class="traces" transform="translate(0,147.5)" style="opacity: 1;"><text class="legendtext" text-anchor="start" x="40" y="4.680000000000001" style="font-family: 'Open Sans', verdana, arial, sans-serif; font-size: 12px; fill: rgb(42, 63, 95); fill-opacity: 1; white-space: pre;">Mean-CVaR 95%</text><g class="layers" style="opacity: 1;"><g class="legendfill"/><g class="legendlines"><path class="js-line" d="M5,0h30" style="fill: none; stroke: rgb(182, 232, 128); stroke-opacity: 1; stroke-width: 2px;"/></g><g class="legendsymbols"><g class="legendpoints"/></g></g><rect class="legendtoggle" x="0" y="-9.5" width="130.8186798095703" height="19" style="fill: rgb(0, 0, 0); fill-opacity: 0;"/></g><g class="traces" transform="translate(0,166.5)" style="opacity: 1;"><text class="legendtext" text-anchor="start" x="40" y="4.680000000000001" style="font-family: 'Open Sans', verdana, arial, sans-serif; font-size: 12px; fill: rgb(42, 63, 95); fill-opacity: 1; white-space: pre;">Mean-CVaR 99%</text><g class="layers" style="opacity: 1;"><g class="legendfill"/><g class="legendlines"><path class="js-line" d="M5,0h30" style="fill: none; stroke: rgb(255, 151, 255); stroke-opacity: 1; stroke-width: 2px;"/></g><g class="legendsymbols"><g class="legendpoints"/></g></g><rect class="legendtoggle" x="0" y="-9.5" width="130.8186798095703" height="19" style="fill: rgb(0, 0, 0); fill-opacity: 0;"/></g><g class="traces" transform="translate(0,185.5)" style="opacity: 1;"><text class="legendtext" text-anchor="start" x="40" y="4.680000000000001" style="font-family: 'Open Sans', verdana, arial, sans-serif; font-size: 12px; fill: rgb(42, 63, 95); fill-opacity: 1; white-space: pre;">DJIA</text><g class="layers" style="opacity: 1;"><g class="legendfill"/><g class="legendlines"><path class="js-line" d="M5,0h30" style="fill: none; stroke: rgb(254, 203, 82); stroke-opacity: 1; stroke-width: 2px;"/></g><g class="legendsymbols"><g class="legendpoints"/></g></g><rect class="legendtoggle" x="0" y="-9.5" width="130.8186798095703" height="19" style="fill: rgb(0, 0, 0); fill-opacity: 0;"/></g></g></g><rect class="scrollbar" rx="20" ry="3" width="0" height="0" x="0" y="0" style="fill: rgb(128, 139, 164); fill-opacity: 1;"/></g><g class="g-gtitle"/><g class="g-xtitle"/><g class="g-ytitle"/></g></svg>