<svg class="main-svg" xmlns="http://www.w3.org/2000/svg" xmlns:xlink="http://www.w3.org/1999/xlink" width="1238" height="317" style=""><rect x="0" y="0" width="1238" height="317" style="fill: rgb(255, 255, 255); fill-opacity: 1;"/><defs id="defs-309fbf"><g class="clips"><clipPath id="clip309fbfxyplot" class="plotclip"><rect width="1020" height="207"/></clipPath><clipPath class="axesclip" id="clip309fbfx"><rect x="50" y="0" width="1020" height="317"/></clipPath><clipPath class="axesclip" id="clip309fbfy"><rect x="0" y="60" width="1238" height="207"/></clipPath><clipPath class="axesclip" id="clip309fbfxy"><rect x="50" y="60" width="1020" height="207"/></clipPath></g><g class="gradients"/><g class="patterns"/></defs><g class="bglayer"><rect class="bg" x="50" y="60" width="1020" height="207" style="fill: rgb(229, 236, 246); fill-opacity: 1; stroke-width: 0;"/></g><g class="layer-below"><g class="imagelayer"/><g class="shapelayer"/></g><g class="cartesianlayer"><g class="subplot xy"><g class="layer-subplot"><g class="shapelayer"/><g class="imagelayer"/></g><g class="gridlayer"><g class="x"><path class="xgrid crisp" transform="translate(80.1,0)" d="M0,60v207" style="stroke: rgb(255, 255, 255); stroke-opacity: 1; stroke-width: 1px;"/><path class="xgrid crisp" transform="translate(188.13,0)" d="M0,60v207" style="stroke: rgb(255, 255, 255); stroke-opacity: 1; stroke-width: 1px;"/><path class="xgrid crisp" transform="translate(296.15,0)" d="M0,60v207" style="stroke: rgb(255, 255, 255); stroke-opacity: 1; stroke-width: 1px;"/><path class="xgrid crisp" transform="translate(402.4,0)" d="M0,60v207" style="stroke: rgb(255, 255, 255); stroke-opacity: 1; stroke-width: 1px;"/><path class="xgrid crisp" transform="translate(510.42,0)" d="M0,60v207" style="stroke: rgb(255, 255, 255); stroke-opacity: 1; stroke-width: 1px;"/><path class="xgrid crisp" transform="translate(618.44,0)" d="M0,60v207" style="stroke: rgb(255, 255, 255); stroke-opacity: 1; stroke-width: 1px;"/><path class="xgrid crisp" transform="translate(728.23,0)" d="M0,60v207" style="stroke: rgb(255, 255, 255); stroke-opacity: 1; stroke-width: 1px;"/><path class="xgrid crisp" transform="translate(836.25,0)" d="M0,60v207" style="stroke: rgb(255, 255, 255); stroke-opacity: 1; stroke-width: 1px;"/><path class="xgrid crisp" transform="translate(944.27,0)" d="M0,60v207" style="stroke: rgb(255, 255, 255); stroke-opacity: 1; stroke-width: 1px;"/><path class="xgrid crisp" transform="translate(1048.75,0)" d="M0,60v207" style="stroke: rgb(255, 255, 255); stroke-opacity: 1; stroke-width: 1px;"/></g><g class="y"><path class="ygrid crisp" transform="translate(0,254.11)" d="M50,0h1020" style="stroke: rgb(255, 255, 255); stroke-opacity: 1; stroke-width: 1px;"/><path class="ygrid crisp" transform="translate(0,211.68)" d="M50,0h1020" style="stroke: rgb(255, 255, 255); stroke-opacity: 1; stroke-width: 1px;"/><path class="ygrid crisp" transform="translate(0,169.24)" d="M50,0h1020" style="stroke: rgb(255, 255, 255); stroke-opacity: 1; stroke-width: 1px;"/><path class="ygrid crisp" transform="translate(0,126.8)" d="M50,0h1020" style="stroke: rgb(255, 255, 255); stroke-opacity: 1; stroke-width: 1px;"/><path class="ygrid crisp" transform="translate(0,84.36)" d="M50,0h1020" style="stroke: rgb(255, 255, 255); stroke-opacity: 1; stroke-width: 1px;"/></g></g><g class="zerolinelayer"/><path class="xlines-below"/><path class="ylines-below"/><g class="overlines-below"/><g class="xaxislayer-below"/><g class="yaxislayer-below"/><g class="overaxes-below"/><g class="plot" transform="translate(50,60)" clip-path="url(#clip309fbfxyplot)"><g class="scatterlayer mlayer"><g class="trace scatter trace06ebb2" style="stroke-miterlimit: 2; opacity: 1;"><g class="fills"/><g class="errorbars"/><g class="lines"><path class="js-line" d="M0,48.52L1.77,48.36L3.54,44.43L8.85,45.07L10.63,46.05L12.4,44.24L14.17,43.53L15.94,41.22L21.25,41.98L23.02,45.2L24.79,42.02L26.56,42.98L28.33,41.12L35.42,39.2L37.19,41.44L38.96,39.97L40.73,42.19L46.04,41.85L47.81,38.56L53.13,34.96L58.44,36.8L60.21,31.72L61.98,30L63.75,30.3L65.52,28.97L72.6,29.08L74.38,27.36L77.92,26.51L83.23,23.67L86.77,25.12L88.54,24.75L90.31,23.63L95.63,24.4L97.4,23.21L99.17,23.26L100.94,23.98L102.71,23.22L109.79,24.7L111.56,24.08L113.33,23.69L115.1,29.19L125.73,25.95L127.5,24.02L132.81,22.35L134.58,24.84L136.35,22.57L138.13,27.03L139.9,25.96L145.21,26.47L146.98,24.91L148.75,29.64L150.52,27.42L152.29,30.4L157.6,30.45L159.38,24.86L161.15,26.02L162.92,24.7L164.69,20.53L170,22.16L171.77,20.76L173.54,24.19L177.08,21.7L182.4,24.39L185.94,16.76L187.71,16.01L189.48,17.31L194.79,17.46L196.56,16.58L198.33,14.07L200.1,12.47L201.88,12.88L207.19,11.55L208.96,14.33L210.73,11.36L212.5,10.92L214.27,13.75L219.58,16.74L224.9,15.04L226.67,11.12L231.98,10.35L235.52,10.85L237.29,13.61L239.06,13.11L247.92,19.81L249.69,19.39L251.46,21.8L256.77,18.36L258.54,19.76L260.31,16.32L262.08,15.06L263.85,20.44L269.17,17.47L270.94,20.46L272.71,22.07L274.48,25.69L276.25,29.71L283.33,35.42L286.88,33.03L288.65,37.48L293.96,34.07L295.73,34.4L297.5,35.89L299.27,31.38L301.04,29.53L306.35,30.52L308.13,36.38L309.9,36.32L311.67,34.74L313.44,35.47L318.75,33.83L320.52,30.77L322.29,28.78L324.06,32.17L325.83,32.5L332.92,32.63L334.69,32.02L336.46,33.55L338.23,31.49L343.54,27.8L345.31,25.18L347.08,25.97L348.85,27.41L350.63,32.08L357.71,30.19L359.48,27.98L363.02,33.35L368.33,34.71L370.1,29.32L371.88,29.55L373.65,28.69L375.42,32.32L380.73,30.39L382.5,23.03L384.27,25.42L386.04,22.78L394.9,20.72L396.67,21.34L400.21,23.43L405.52,21.79L407.29,17.28L409.06,19.6L419.69,18.78L421.46,19.48L423.23,17.04L425,20.63L432.08,18.73L433.85,16.79L435.63,17.56L437.4,15.58L444.48,15.71L446.25,14.83L448.02,15.07L449.79,17.33L455.1,19.04L456.88,20.88L458.65,20.78L460.42,19.02L462.19,17.4L467.5,18.75L469.27,18.48L471.04,21.55L472.81,21.03L474.58,22.87L483.44,18.83L485.21,16.95L486.98,16.29L492.29,15.8L495.83,21.87L497.6,18.72L499.38,20.61L506.46,19.31L508.23,20.02L510,16.42L511.77,16.3L517.08,18.7L518.85,19.28L520.63,18.38L522.4,14.91L524.17,22.18L529.48,21.06L531.25,18.61L533.02,21.3L534.79,19.87L536.56,20.12L541.88,22.95L543.65,23.53L545.42,26.94L547.19,25.93L548.96,29.09L556.04,28.22L557.81,25.86L561.35,36.49L566.67,35.07L570.21,35.65L571.98,33.99L579.06,34.07L580.83,30.75L582.6,33.39L584.38,31.99L586.15,33.43L591.46,32.34L595,27.96L596.77,31.14L603.85,32.9L605.63,28.52L607.4,26.45L609.17,28.22L610.94,27.4L616.25,31.07L619.79,25.94L621.56,28.83L623.33,27.21L628.65,25.96L630.42,19.72L632.19,17.96L633.96,22.03L635.73,16.96L642.81,16.45L644.58,17.48L646.35,17.55L648.13,15.79L653.44,18.59L655.21,20.48L656.98,20L658.75,20.55L660.52,16.52L665.83,20.93L667.6,21.03L669.38,19.56L671.15,17.63L672.92,22.16L681.77,22.23L683.54,26.8L685.31,26.3L690.63,20.47L692.4,23.85L694.17,22.45L695.94,19.68L697.71,19.2L703.02,24.14L704.79,23.47L706.56,31.05L708.33,25.39L710.1,24.13L715.42,31.23L717.19,35.43L718.96,34.97L720.73,30.08L722.5,28.49L727.81,41.66L729.58,31.75L731.35,32.28L733.13,37.23L740.21,50.93L741.98,61.54L743.75,66.91L745.52,84.77L747.29,91.49L752.6,66.32L754.38,68.97L756.15,83.71L757.92,73.52L759.69,76.61L765,67.13L766.77,70.39L768.54,79.76L770.31,77.98L772.08,85.23L777.4,89.57L779.17,69.74L780.94,75.44L784.48,70.38L789.79,69.33L791.56,64.79L793.33,74.12L795.1,81.35L796.88,74.69L802.19,75.5L803.96,80.98L805.73,89.06L807.5,74.68L809.27,83.58L814.58,88.04L816.35,83.81L818.13,93.95L819.9,105.78L821.67,92.54L826.98,86.45L828.75,86.14L830.52,82.5L834.06,79.99L839.38,95.62L841.15,93.34L842.92,88.39L844.69,95.33L846.46,89.01L851.77,87.19L853.54,92.17L855.31,90.75L857.08,93.65L858.85,93.09L864.17,92.22L865.94,85.51L869.48,90.31L871.25,91.05L876.56,91.8L878.33,94.04L883.65,91.97L888.96,92.61L892.5,86.58L896.04,81.36L903.13,83.51L904.9,86.26L906.67,86.89L908.44,88.92L913.75,90.85L915.52,89.66L917.29,95.43L919.06,94.6L920.83,92.7L927.92,97.38L929.69,93.48L931.46,94.98L933.23,97.48L938.54,94.85L940.31,93.31L942.08,89.45L943.85,91.9L945.63,97.21L950.94,99.93L952.71,95.69L954.48,99.31L956.25,97.62L958.02,93.35L963.33,94.7L965.1,102.91L966.88,101.34L968.65,98.08L970.42,100.74L977.5,106.35L979.27,105.3L981.04,104.48L982.81,106.67L988.13,112.46L989.9,107.7L991.67,109.28L993.44,112.91L1002.29,125.67L1004.06,120.54L1005.83,126.49L1007.6,125.35L1012.92,128.62L1014.69,122.06L1016.46,120.91L1018.23,116.08L1020,113.32" style="vector-effect: non-scaling-stroke; fill: none; stroke: rgb(99, 110, 250); stroke-opacity: 1; stroke-width: 2px; opacity: 1;"/></g><g class="points"/><g class="text"/></g><g class="trace scatter tracefc4339" style="stroke-miterlimit: 2; opacity: 1;"><g class="fills"/><g class="errorbars"/><g class="lines"><path class="js-line" d="M0,48.52L1.77,48.04L3.54,43.77L10.63,44.92L12.4,42.95L14.17,42.25L15.94,40.09L21.25,41.02L23.02,44.45L24.79,41.47L26.56,42.49L28.33,40.78L35.42,39L37.19,41.32L38.96,39.87L40.73,42.22L46.04,41.81L47.81,38.46L49.58,36.78L53.13,34.17L58.44,35.76L60.21,30.8L61.98,28.82L63.75,28.99L65.52,27.56L72.6,27.59L74.38,25.75L77.92,24.95L83.23,21.97L86.77,23.15L88.54,22.67L90.31,21.64L95.63,22.65L97.4,21.28L99.17,21.64L100.94,22.49L102.71,21.82L109.79,23.83L111.56,22.87L113.33,22.38L115.1,27.97L120.42,26.93L122.19,25.67L125.73,25.03L127.5,23.45L132.81,21.77L134.58,24.79L136.35,22.72L138.13,27.6L139.9,26.51L145.21,26.63L146.98,24.87L148.75,29.95L150.52,27.05L152.29,29.02L157.6,29.08L159.38,24.12L161.15,25.09L162.92,24.35L164.69,20.17L170,21.43L171.77,20.39L173.54,24.33L177.08,21.7L182.4,24.39L185.94,16.79L187.71,15.91L189.48,16.57L194.79,16.99L196.56,16.45L198.33,13.91L200.1,12.17L201.88,12.15L207.19,10.82L208.96,13.59L210.73,10.89L212.5,10.65L214.27,13.41L219.58,16.48L224.9,15.53L226.67,11.56L231.98,10.79L235.52,11.19L237.29,13.83L239.06,13.42L244.38,16.79L247.92,19.94L249.69,19.45L251.46,21.43L256.77,17.78L258.54,18.94L260.31,15.82L262.08,14.62L263.85,20.33L269.17,18.08L270.94,21.34L272.71,22.69L276.25,32L283.33,37.58L286.88,35.81L288.65,39.95L293.96,36.74L295.73,36.61L297.5,38.07L299.27,33.8L301.04,31.91L306.35,32.68L308.13,38.53L309.9,38.46L311.67,36.71L313.44,38.07L318.75,37.2L320.52,33.94L322.29,32.02L324.06,35.06L325.83,35.4L332.92,35.73L334.69,35.67L336.46,37.14L338.23,34.81L343.54,31.23L345.31,29.23L347.08,30.56L348.85,31.76L350.63,36.64L357.71,35.61L359.48,33.34L363.02,39.16L368.33,40.64L370.1,35.49L371.88,36.01L373.65,34.96L375.42,38.57L380.73,36.77L382.5,29.45L384.27,32.13L386.04,29.36L394.9,26.73L396.67,27.5L400.21,29.3L405.52,27.6L407.29,22.57L409.06,24.58L412.6,25.03L417.92,24.2L419.69,24.46L421.46,25.59L423.23,23.59L425,26.91L432.08,25.5L433.85,23.84L435.63,25.04L437.4,22.87L442.71,22.73L444.48,23.45L448.02,22.73L449.79,24.46L455.1,25.77L456.88,27.81L458.65,27.34L460.42,25.49L462.19,23.68L467.5,25.09L469.27,24.91L471.04,28.92L472.81,28.47L474.58,31.04L483.44,27.29L485.21,25.53L486.98,24.73L492.29,23.84L495.83,30.35L497.6,27.42L499.38,29.54L506.46,28.72L508.23,29.78L510,26.08L511.77,25.7L517.08,28.1L518.85,28.9L520.63,28.06L522.4,24.65L524.17,31.93L529.48,31.01L531.25,28.85L533.02,31.39L534.79,30.07L536.56,30.21L541.88,33.3L543.65,34.08L545.42,37.33L547.19,36.1L548.96,39.48L556.04,39.31L557.81,37.45L561.35,48.14L566.67,46.55L570.21,46.63L571.98,44.96L579.06,45.32L580.83,41.72L582.6,44.05L584.38,43.34L586.15,45.04L591.46,44.07L593.23,43.19L595,40.56L596.77,42.89L598.54,43.29L603.85,44.3L605.63,40.11L607.4,37.43L609.17,39.92L610.94,39.22L616.25,43.39L619.79,37.68L621.56,40.94L623.33,39.21L628.65,38.02L630.42,31.08L632.19,30.11L633.96,34.95L635.73,29.13L642.81,28.63L644.58,30.3L646.35,30.18L648.13,28.07L653.44,30.93L655.21,33.16L656.98,32.69L658.75,33.51L660.52,29.55L665.83,34.21L667.6,34.14L669.38,32.73L671.15,29.98L672.92,33.96L681.77,32.63L683.54,37.61L685.31,36.66L690.63,30.99L692.4,35.09L694.17,35L695.94,32.44L697.71,34.2L703.02,44.04L704.79,44.95L706.56,54.92L708.33,48.65L710.1,45.68L715.42,51.43L717.19,55.19L718.96,56.85L720.73,53.34L722.5,51.61L727.81,64.59L729.58,54.1L731.35,52.6L733.13,56.37L740.21,69.05L741.98,78.87L743.75,83.85L745.52,102.19L747.29,107.63L752.6,84.46L754.38,86.12L756.15,100.74L757.92,91.64L759.69,94.89L765,85.52L766.77,88.26L768.54,97.04L770.31,94.44L772.08,102.17L777.4,106.19L779.17,86.74L780.94,93.5L784.48,88.32L789.79,86.7L791.56,81.67L793.33,90.94L795.1,97.81L796.88,91.02L802.19,90.72L803.96,95.99L805.73,103.8L807.5,90.63L809.27,98.31L814.58,102.35L816.35,98.74L818.13,108.79L819.9,119.77L821.67,107.19L826.98,101.72L828.75,101.48L830.52,97.66L834.06,94.8L839.38,109.81L841.15,107.42L842.92,102.58L844.69,109.06L846.46,103.59L851.77,102.81L853.54,107.52L855.31,106.75L857.08,109.17L858.85,108.56L864.17,108.17L865.94,102.02L869.48,106.2L871.25,106.96L876.56,107.25L878.33,109.52L883.65,107.51L888.96,108.19L892.5,102.73L896.04,97.97L903.13,100.69L904.9,103.2L906.67,103.48L908.44,104.95L913.75,106.98L915.52,106.11L917.29,111.52L919.06,111.42L920.83,109.54L927.92,113.39L929.69,110.77L931.46,112.11L933.23,114.25L938.54,112.43L940.31,110.9L942.08,107.36L943.85,109.53L945.63,114.73L950.94,117.57L952.71,114.42L954.48,117.99L956.25,116.49L958.02,113.03L963.33,114.22L965.1,122.16L966.88,120.99L968.65,118.83L970.42,121.28L977.5,126.77L979.27,126.25L981.04,126.19L982.81,128.45L988.13,133.44L989.9,130.19L991.67,131.02L993.44,134.16L995.21,137.78L1000.52,144.76L1002.29,146.48L1004.06,141.94L1005.83,147.88L1007.6,146.75L1012.92,149.51L1014.69,143.15L1016.46,142.51L1018.23,138.35L1020,134.86" style="vector-effect: non-scaling-stroke; fill: none; stroke: rgb(239, 85, 59); stroke-opacity: 1; stroke-width: 2px; opacity: 1;"/></g><g class="points"/><g class="text"/></g><g class="trace scatter trace8c0f4b" style="stroke-miterlimit: 2; opacity: 1;"><g class="fills"/><g class="errorbars"/><g class="lines"><path class="js-line" d="M0,48.52L1.77,47.66L3.54,43.34L10.63,44.22L12.4,41.88L14.17,41.12L15.94,39L21.25,39.97L23.02,43.61L24.79,40.42L26.56,41.63L28.33,40.01L35.42,38.37L37.19,40.84L38.96,39.77L40.73,42.38L46.04,41.91L47.81,38.68L49.58,37.12L51.35,35.03L53.13,34.31L58.44,35.6L60.21,30.62L61.98,28.4L63.75,28.48L65.52,27.09L70.83,27.01L72.6,27.36L74.38,25.46L77.92,24.64L83.23,21.69L88.54,22.14L90.31,21L95.63,22.02L97.4,20.52L100.94,21.82L102.71,21.18L109.79,23.54L111.56,22.8L113.33,22.54L115.1,28.18L120.42,27.29L122.19,25.92L125.73,26.12L127.5,24.41L132.81,22.65L134.58,25.55L136.35,23.54L138.13,28.85L139.9,27.77L145.21,27.78L146.98,25.91L148.75,31.45L150.52,28.82L152.29,30.15L157.6,29.89L159.38,24.93L161.15,26.08L162.92,25.97L164.69,21.97L170,23.34L171.77,22.59L173.54,27L177.08,24.25L182.4,27.13L185.94,19.16L187.71,17.95L196.56,18.43L198.33,15.61L200.1,13.54L201.88,13.61L207.19,12.34L208.96,14.84L210.73,12.26L212.5,12.21L214.27,15.1L219.58,17.96L221.35,17.26L223.13,17.68L224.9,17.1L226.67,12.99L231.98,12.12L235.52,12.46L237.29,15.15L239.06,14.74L244.38,17.88L247.92,21.35L249.69,20.9L251.46,22.98L256.77,19.09L258.54,20.44L260.31,17.63L262.08,16.36L263.85,21.7L269.17,19.79L270.94,23.1L272.71,24.02L276.25,34.21L283.33,39.09L286.88,37.72L288.65,41.7L295.73,37.62L297.5,39.24L299.27,35.1L301.04,33.37L306.35,34.07L308.13,40.01L309.9,40.16L311.67,38.47L313.44,40.51L318.75,40.75L322.29,35.21L324.06,38.08L325.83,38.39L332.92,38.68L334.69,39.01L336.46,40.28L338.23,37.77L343.54,34.22L345.31,32.56L347.08,34.16L348.85,35.43L350.63,40.56L357.71,39.9L359.48,37.73L363.02,43.62L368.33,45.08L370.1,39.67L371.88,40.6L373.65,39.62L375.42,43.23L380.73,41.55L382.5,34.03L384.27,37.24L386.04,34.27L394.9,31.25L396.67,32.32L400.21,34.01L405.52,32.31L407.29,26.72L409.06,28.58L412.6,29.17L417.92,28.14L419.69,28.77L421.46,30.57L423.23,28.62L425,31.96L430.31,31.71L432.08,30.79L433.85,29.03L435.63,29.93L437.4,27.23L442.71,27.43L444.48,28.12L446.25,27.51L448.02,26.83L449.79,28.51L455.1,29.83L456.88,32.01L458.65,31.79L460.42,29.33L462.19,27.28L467.5,28.76L469.27,28.54L471.04,32.87L472.81,32.23L474.58,35.55L483.44,31.71L485.21,30.09L486.98,29.32L492.29,28.54L495.83,35.28L497.6,32.64L499.38,35.31L506.46,34.52L508.23,35.52L510,31.65L511.77,31.14L517.08,33.56L518.85,34.26L520.63,33.62L522.4,30.11L524.17,37.59L529.48,37.05L531.25,35.51L533.02,38.31L534.79,36.76L536.56,36.19L541.88,39.14L543.65,40.32L545.42,43.57L547.19,42.14L548.96,45.86L556.04,46.02L557.81,44.19L561.35,54.86L566.67,53.27L568.44,52.9L570.21,53.42L571.98,51.92L579.06,52.09L580.83,47.9L582.6,50.38L584.38,49.93L586.15,51.96L593.23,51.63L595,48.39L598.54,49.92L603.85,50.65L607.4,43.28L609.17,46.49L610.94,45.86L616.25,50.69L619.79,44.35L621.56,48.04L623.33,46.68L628.65,45.54L630.42,38.04L632.19,37.62L633.96,43.5L635.73,37.61L641.04,36.35L642.81,37.01L644.58,39.3L646.35,38.95L648.13,36.68L653.44,39.68L655.21,42.45L656.98,41.97L658.75,42.88L660.52,39.26L665.83,44L667.6,43.61L669.38,42.21L671.15,38.47L672.92,41.94L680,39.71L681.77,39.57L683.54,45.13L685.31,43.78L690.63,38.25L692.4,43.74L694.17,44.42L695.94,42.01L697.71,46.43L703.02,62.31L704.79,64.82L706.56,77.35L708.33,70.09L710.1,65.01L715.42,69.07L718.96,75.93L720.73,73.19L722.5,71.44L727.81,85.13L729.58,74.32L731.35,71.8L740.21,86.32L741.98,95.85L743.75,100.53L745.52,118.44L747.29,122.81L752.6,101.14L754.38,101.14L756.15,116.3L757.92,107.85L759.69,111.13L765,102.13L766.77,105.23L768.54,113.52L770.31,110.04L772.08,118.05L777.4,122.63L779.17,103.95L780.94,111.2L782.71,109.27L784.48,106.02L789.79,104.15L791.56,98.89L795.1,115.34L796.88,108.53L802.19,107.56L803.96,112.03L805.73,119.94L807.5,107.94L809.27,114.73L814.58,118.7L816.35,114.97L818.13,125.17L819.9,135.75L821.67,124.16L826.98,119.07L828.75,118.6L830.52,114.75L834.06,112.23L839.38,126.55L841.15,123.57L842.92,119.04L844.69,124.95L846.46,120.05L851.77,119.5L853.54,123.62L855.31,123.7L857.08,125.56L858.85,124.89L864.17,125.04L865.94,119.83L869.48,123.24L871.25,123.9L876.56,124.08L878.33,126.18L883.65,124.41L888.96,125.09L892.5,120.34L896.04,115.84L903.13,118.44L904.9,121.09L908.44,122.42L913.75,124.34L915.52,123.38L917.29,128.18L919.06,128.63L920.83,126.86L927.92,130.08L929.69,128.09L933.23,131.15L938.54,130.11L940.31,128.5L942.08,125.34L943.85,127.6L945.63,132.19L950.94,134.56L952.71,132.51L954.48,135.95L956.25,134.79L958.02,131.62L963.33,132.39L965.1,139.93L966.88,138.91L968.65,138.1L970.42,140.67L977.5,145.81L979.27,145.76L981.04,146.67L982.81,148.9L988.13,153.32L989.9,151.59L991.67,151.63L993.44,153.82L995.21,158.05L1000.52,164L1002.29,165.31L1004.06,161.32L1005.83,166.81L1007.6,166.05L1012.92,168.51L1014.69,162.06L1016.46,161.86L1018.23,158.3L1020,154.29" style="vector-effect: non-scaling-stroke; fill: none; stroke: rgb(0, 204, 150); stroke-opacity: 1; stroke-width: 2px; opacity: 1;"/></g><g class="points"/><g class="text"/></g><g class="trace scatter tracef17302" style="stroke-miterlimit: 2; opacity: 1;"><g class="fills"/><g class="errorbars"/><g class="lines"><path class="js-line" d="M0,48.52L1.77,47.74L3.54,42.71L10.63,43.6L12.4,40.94L14.17,40.33L15.94,38.25L21.25,38.98L23.02,43.1L24.79,39.58L26.56,40.76L28.33,39.1L35.42,37.66L37.19,40.38L38.96,39.52L40.73,42.63L46.04,42.4L47.81,39.24L49.58,37.72L51.35,36.1L53.13,35.69L58.44,36.87L60.21,31.6L61.98,29.28L63.75,29.36L65.52,28.07L70.83,28.17L72.6,28.13L74.38,26.28L76.15,25.35L77.92,25.3L83.23,22.61L85,22.89L86.77,23.52L88.54,23.16L90.31,21.91L95.63,23L97.4,21.44L99.17,22.38L100.94,23.31L102.71,22.61L109.79,24.99L111.56,24.38L113.33,24.26L115.1,30.41L120.42,29.37L122.19,27.85L125.73,28.67L127.5,26.82L132.81,25.17L134.58,27.65L136.35,25.81L138.13,31.9L139.9,30.93L145.21,30.94L146.98,28.76L148.75,34.92L150.52,33L152.29,34.57L157.6,34.6L159.38,29.21L162.92,31.39L164.69,28.04L170,30.06L171.77,29.35L173.54,34.06L177.08,31.07L182.4,34.47L184.17,30.04L185.94,25.36L187.71,23.94L189.48,23.55L194.79,24.68L196.56,25.17L198.33,21.68L200.1,19.14L201.88,19.12L207.19,18.26L208.96,21.28L210.73,18.49L212.5,18.4L214.27,21.51L219.58,24.28L221.35,23.37L223.13,23.76L224.9,23.2L226.67,18.91L231.98,17.82L235.52,18.07L237.29,21.03L239.06,20.8L244.38,23.64L247.92,27.54L249.69,26.77L251.46,29.15L256.77,25.48L258.54,27.18L262.08,23.08L263.85,27.81L269.17,25.9L270.94,29.48L272.71,29.9L274.48,35.3L276.25,40.66L283.33,44.97L286.88,42.73L288.65,46.86L295.73,40.97L297.5,42.72L299.27,39.18L301.04,37.61L306.35,38.55L308.13,44.96L309.9,45.43L311.67,43.89L313.44,46.39L318.75,47.76L322.29,42.13L324.06,44.82L334.69,45.92L336.46,47.03L338.23,44.5L343.54,40.9L345.31,39.28L347.08,40.34L348.85,42.05L350.63,47.61L357.71,47.18L359.48,45.31L363.02,51.17L368.33,53.03L370.1,47.26L371.88,48.49L373.65,48.05L375.42,51.97L380.73,50.86L382.5,42.78L384.27,46.46L386.04,43.19L394.9,39.82L396.67,41.26L400.21,43.13L405.52,41.76L407.29,35.74L409.06,37.6L412.6,38.26L417.92,37.11L421.46,40.45L423.23,38.22L425,42.3L430.31,42.28L432.08,41.21L433.85,39.16L435.63,39.71L437.4,36.65L442.71,37.2L444.48,38.34L448.02,36.22L449.79,38.19L455.1,39.85L456.88,42.31L458.65,42.56L460.42,39.4L462.19,37.47L467.5,39.02L469.27,38.55L471.04,43.13L472.81,42.52L474.58,46.56L481.67,43.86L483.44,42.51L486.98,40.25L492.29,39.43L495.83,46.45L497.6,43.72L499.38,46.66L506.46,45.81L508.23,47.09L510,43.69L511.77,43.41L517.08,45.92L518.85,46.75L520.63,46.3L522.4,43.11L524.17,51.23L529.48,51.41L531.25,49.96L533.02,53.07L534.79,51.37L536.56,50.54L541.88,53.37L543.65,55.08L545.42,58.07L547.19,56.39L548.96,60.05L556.04,60.8L557.81,59.49L561.35,70.36L566.67,69.25L568.44,69.35L570.21,70.38L571.98,69.02L579.06,68.94L580.83,64.24L582.6,67.5L584.38,67.49L586.15,69.7L591.46,69.93L593.23,71.27L595,67.11L596.77,66.89L603.85,67.7L605.63,63.35L607.4,59.1L609.17,63.41L610.94,62.8L616.25,68.49L619.79,61.73L621.56,66.04L623.33,64.59L628.65,63.52L630.42,55.55L632.19,55.62L633.96,62.69L635.73,56.98L641.04,55.69L642.81,56.72L644.58,59.2L646.35,58.7L648.13,56.47L653.44,59.89L655.21,63.21L656.98,62.83L658.75,64.04L660.52,60.74L665.83,65.42L667.6,64.78L669.38,63.46L671.15,59.01L672.92,61.96L680,59.69L681.77,59.05L683.54,64.86L690.63,57.98L692.4,64.84L694.17,66.37L695.94,63.95L704.79,95.94L706.56,111.2L710.1,96.05L715.42,98.35L717.19,100.35L718.96,106.48L722.5,102.35L727.81,116.18L729.58,105.55L731.35,102.11L740.21,114.22L741.98,123.26L743.75,128.15L745.52,145L747.29,148.56L752.6,129.21L754.38,128.93L756.15,142.56L757.92,135.29L759.69,138.72L765,130.68L766.77,133.9L768.54,141.29L770.31,137.86L772.08,145.55L777.4,150.98L779.17,133.87L780.94,140.89L782.71,139.07L784.48,135.45L789.79,133.09L791.56,127.96L795.1,143.93L796.88,137.47L802.19,136.49L803.96,140.32L805.73,147.78L807.5,138.05L809.27,143.67L814.58,147.67L816.35,144.42L818.13,154.19L819.9,163.7L821.67,153.54L826.98,148.51L828.75,148.14L830.52,144.5L834.06,142.01L839.38,154.92L841.15,151.78L842.92,147.68L844.69,153.08L846.46,149.2L851.77,148.25L853.54,151.8L855.31,152.57L857.08,154.44L858.85,153.34L864.17,154.03L865.94,149.79L869.48,152.5L871.25,153.1L876.56,153.37L878.33,155.31L883.65,153.74L888.96,154.41L890.73,151.72L892.5,150.58L896.04,146.44L901.35,148.01L903.13,148.22L904.9,150.94L908.44,151.91L913.75,153.7L915.52,152.85L917.29,156.88L919.06,157.5L920.83,155.8L927.92,158.6L929.69,156.78L933.23,159.61L938.54,159.34L942.08,155.02L943.85,157.42L945.63,161.2L950.94,163.24L952.71,162.22L954.48,165.21L956.25,164.55L958.02,161.47L963.33,162L965.1,168.98L966.88,167.92L968.65,167.79L970.42,170.34L977.5,175.16L979.27,175.65L981.04,177.41L982.81,179.63L988.13,183.47L991.67,182.62L993.44,183.67L995.21,187.93L1000.52,192.72L1002.29,193.78L1004.06,190.63L1005.83,195.49L1007.6,194.92L1012.92,196.65L1014.69,190.25L1016.46,190.02L1018.23,187.01L1020,183.09" style="vector-effect: non-scaling-stroke; fill: none; stroke: rgb(171, 99, 250); stroke-opacity: 1; stroke-width: 2px; opacity: 1;"/></g><g class="points"/><g class="text"/></g><g class="trace scatter trace673185" style="stroke-miterlimit: 2; opacity: 1;"><g class="fills"/><g class="errorbars"/><g class="lines"><path class="js-line" d="M0,48.52L1.77,47.55L3.54,43.12L10.63,43.85L12.4,41.32L14.17,40.55L15.94,38.31L21.25,39.27L23.02,43.01L24.79,39.65L26.56,40.92L28.33,39.35L35.42,37.84L37.19,40.34L38.96,39.55L40.73,42.41L46.04,41.97L47.81,38.88L49.58,37.43L51.35,35.31L53.13,34.77L58.44,35.72L60.21,30.76L61.98,28.44L63.75,28.43L65.52,27.05L70.83,27.05L72.6,27.47L74.38,25.56L83.23,21.68L85,22.01L88.54,22.12L90.31,20.97L95.63,21.98L97.4,20.38L100.94,21.58L102.71,21.13L109.79,23.67L111.56,23.31L113.33,23.17L115.1,29.02L120.42,28.18L122.19,26.9L125.73,27.71L127.5,25.92L132.81,24.15L134.58,27.09L136.35,25.03L138.13,30.6L139.9,29.38L145.21,29.35L146.98,27.52L148.75,33.15L150.52,31.05L152.29,32.28L157.6,31.72L159.38,26.69L161.15,27.99L162.92,28.33L164.69,24.45L170,25.93L171.77,25.34L173.54,29.97L177.08,26.99L182.4,30.01L185.94,21.74L187.71,20.34L189.48,20.01L194.79,20.8L196.56,20.89L198.33,17.84L200.1,15.57L201.88,15.59L207.19,14.37L208.96,17.11L210.73,14.68L212.5,14.73L214.27,17.75L219.58,20.37L221.35,19.47L223.13,20.09L224.9,19.33L226.67,15.21L231.98,14.24L235.52,14.53L237.29,17.26L239.06,16.84L244.38,19.86L247.92,23.57L249.69,23.22L251.46,25.53L256.77,21.84L258.54,23.4L262.08,19.5L263.85,24.49L269.17,22.65L270.94,26.01L272.71,26.52L274.48,31.55L276.25,36.96L283.33,41.4L286.88,40.15L288.65,43.97L295.73,39.3L297.5,40.81L299.27,36.94L301.04,35.25L306.35,35.88L308.13,41.91L309.9,42.27L311.67,40.71L313.44,43.28L318.75,43.9L322.29,37.95L324.06,40.68L325.83,41.04L332.92,41.3L336.46,42.91L338.23,40.29L345.31,35.15L347.08,36.88L348.85,38.12L350.63,43.35L357.71,43.02L359.48,40.93L363.02,46.84L368.33,48.46L370.1,42.96L371.88,44.05L373.65,43.08L375.42,46.58L380.73,44.97L382.5,37.45L384.27,41.05L386.04,38.02L394.9,34.89L396.67,36.07L400.21,37.84L405.52,36.08L407.29,30.19L409.06,31.8L412.6,32.45L417.92,31.38L419.69,32.25L421.46,34.33L423.23,32.41L425,35.7L430.31,35.71L432.08,34.7L433.85,32.82L435.63,33.54L437.4,30.49L442.71,30.86L444.48,31.57L446.25,30.99L448.02,30.04L449.79,31.55L455.1,32.85L456.88,35.06L458.65,34.99L460.42,32.27L462.19,30.07L467.5,31.58L469.27,31.28L471.04,35.53L472.81,34.64L474.58,38.33L481.67,35.71L483.44,34.34L486.98,32.06L492.29,31.39L495.83,38.38L497.6,36.02L499.38,38.99L506.46,38.12L508.23,38.89L510,35L511.77,34.32L517.08,36.84L518.85,37.41L520.63,36.89L522.4,33.29L524.17,40.91L529.48,40.52L531.25,39.58L533.02,42.49L534.79,40.83L536.56,39.62L541.88,42.37L543.65,43.72L545.42,46.84L547.19,45.27L548.96,49.38L556.04,49.6L557.81,48L561.35,58.63L566.67,57.09L568.44,56.45L570.21,57.18L571.98,55.67L579.06,55.71L580.83,51.14L582.6,53.79L584.38,53.22L586.15,55.52L593.23,56.1L595,52.58L603.85,53.65L605.63,49.85L607.4,46.43L609.17,49.93L610.94,49.4L616.25,54.49L619.79,47.64L621.56,51.76L623.33,50.82L628.65,49.81L630.42,42L632.19,41.87L633.96,48.12L635.73,42.33L641.04,40.96L642.81,41.59L644.58,44.26L646.35,43.75L648.13,41.32L653.44,44.37L655.21,47.48L656.98,46.99L658.75,47.78L660.52,44.27L665.83,49.06L667.6,48.58L669.38,47.18L671.15,42.8L672.92,46.01L680,43.49L681.77,43.11L683.54,49.14L690.63,42.3L692.4,48.61L694.17,49.56L695.94,47.22L704.79,74.5L706.56,88.02L710.1,74.26L715.42,77.6L717.19,80.25L718.96,84.89L722.5,80.93L727.81,94.9L729.58,84L731.35,81.43L740.21,95.01L741.98,104.47L743.75,108.94L745.52,126.36L747.29,130.12L752.6,109.55L754.38,108.42L756.15,124.24L757.92,116.06L759.69,119.13L765,110.5L766.77,113.71L768.54,122.05L770.31,117.78L772.08,125.8L777.4,130.54L779.17,112.25L780.94,119.53L782.71,117.82L784.48,114.12L789.79,112.33L791.56,106.97L795.1,123.74L796.88,117.13L802.19,115.92L803.96,120.05L805.73,128.06L807.5,116.73L809.27,123.22L814.58,127.11L816.35,123.23L818.13,133.54L819.9,143.93L821.67,132.82L826.98,127.89L828.75,127.31L830.52,123.43L834.06,121.21L839.38,135.18L841.15,131.87L842.92,127.77L844.69,133.45L846.46,128.82L851.77,128.2L853.54,132.11L855.31,132.58L857.08,134.21L858.85,133.5L864.17,133.91L865.94,129.11L871.25,132.59L876.56,132.81L878.33,134.83L880.1,134.08L883.65,133.18L888.96,133.84L892.5,129.34L896.04,124.89L903.13,127.25L904.9,130.03L908.44,131.26L913.75,132.98L915.52,132.07L917.29,136.52L919.06,137.3L920.83,135.59L927.92,138.52L929.69,136.64L933.23,139.52L938.54,138.85L940.31,137.25L942.08,134.2L943.85,136.5L945.63,140.89L950.94,143.14L952.71,141.51L954.48,144.82L956.25,143.78L958.02,140.72L963.33,141.18L965.1,148.52L966.88,147.59L968.65,147.73L970.42,150.33L977.5,155.26L979.27,155.35L982.81,158.89L988.13,163.17L989.9,162.01L991.67,161.77L993.44,163.42L995.21,167.77L1002.29,174.43L1004.06,170.68L1005.83,175.74L1007.6,175.35L1012.92,177.7L1014.69,171.1L1016.46,171.13L1018.23,167.89L1020,163.75" style="vector-effect: non-scaling-stroke; fill: none; stroke: rgb(255, 161, 90); stroke-opacity: 1; stroke-width: 2px; opacity: 1;"/></g><g class="points"/><g class="text"/></g><g class="trace scatter tracefeb924" style="stroke-miterlimit: 2; opacity: 1;"><g class="fills"/><g class="errorbars"/><g class="lines"><path class="js-line" d="M0,48.52L1.77,48.4L3.54,44.45L8.85,44.88L10.63,45.89L15.94,41.9L21.25,42.55L23.02,45.81L24.79,43.02L26.56,43.92L28.33,42.32L35.42,40.59L37.19,42.86L38.96,41.15L40.73,43.03L46.04,42.66L47.81,39.33L51.35,36.33L53.13,35.37L58.44,37.37L60.21,32.56L61.98,30.68L63.75,30.79L65.52,29.43L70.83,29.15L72.6,29.13L74.38,27.36L77.92,26.41L83.23,23.69L86.77,25.04L88.54,24.57L90.31,23.77L95.63,24.71L97.4,23.52L99.17,24L100.94,24.96L102.71,24.12L109.79,25.86L111.56,24.76L113.33,24.24L115.1,29L120.42,27.56L122.19,26.27L125.73,25.2L127.5,23.55L132.81,21.76L134.58,24.16L136.35,22.31L138.13,26.74L139.9,25.95L145.21,26.38L146.98,24.77L148.75,29.3L150.52,26.44L152.29,28.67L157.6,28.59L159.38,23.38L161.15,24.31L162.92,23.44L164.69,19.63L170,21.17L171.77,19.97L173.54,23.35L177.08,21.14L182.4,23.32L185.94,15.68L187.71,15.07L189.48,16.52L194.79,16.79L196.56,15.92L198.33,13.68L200.1,12.39L201.88,12.72L207.19,11.68L208.96,14.56L210.73,12.13L212.5,11.5L214.27,13.92L219.58,17.03L224.9,16.13L226.67,12.3L231.98,11.69L235.52,12.33L237.29,15.01L239.06,14.72L247.92,21.45L249.69,20.66L251.46,22.45L256.77,18.69L258.54,19.51L260.31,15.72L262.08,14.34L263.85,19.61L269.17,17.23L270.94,20.27L272.71,21.33L274.48,24.89L276.25,29.75L283.33,35.85L286.88,34.24L288.65,38.96L293.96,35.67L295.73,36.04L297.5,37.69L299.27,33.5L301.04,31.79L306.35,32.81L308.13,38.3L309.9,38.05L311.67,36.56L313.44,37.45L318.75,36.24L320.52,32.85L322.29,31.39L324.06,34.56L334.69,34.81L336.46,36.21L338.23,34.04L343.54,30.7L345.31,28.42L347.08,29.11L348.85,30.66L350.63,35.17L357.71,33.41L359.48,31.32L363.02,36.96L368.33,38.35L370.1,33.63L371.88,33.82L373.65,33.16L375.42,36.64L380.73,34.61L382.5,27.55L384.27,29.49L386.04,26.27L394.9,24.73L396.67,25.33L400.21,27.36L405.52,25.89L407.29,21.51L409.06,23.93L421.46,23.77L423.23,21.66L425,25.11L430.31,24.08L432.08,23.81L433.85,22.31L435.63,23.26L437.4,21.68L444.48,21.85L446.25,20.57L448.02,20.49L449.79,22.51L455.1,23.82L456.88,25.48L458.65,25.34L460.42,23.35L462.19,22.24L467.5,23.62L469.27,23.65L471.04,27.19L472.81,27.2L474.58,29.23L483.44,25.69L485.21,24.09L492.29,22.74L494.06,25.86L495.83,28.81L497.6,25.45L499.38,26.96L506.46,25.86L508.23,27.36L510,23.74L511.77,23.76L517.08,26.03L518.85,26.94L520.63,26.14L522.4,23.27L524.17,30.48L529.48,29.77L531.25,26.8L533.02,29.34L534.79,28.02L536.56,28.77L541.88,31.98L543.65,32.9L545.42,36.34L547.19,35.13L548.96,37.88L556.04,37.33L557.81,35.41L561.35,45.97L566.67,44.54L570.21,44.97L571.98,43.23L579.06,43.37L580.83,39.92L582.6,42.21L584.38,41.49L586.15,43.12L591.46,41.96L595,37.01L596.77,40.15L598.54,40.42L603.85,42.08L605.63,37.28L607.4,34.7L609.17,36.81L610.94,35.94L616.25,39.83L618.02,36.84L619.79,35.52L621.56,38.01L623.33,35.91L628.65,33.84L630.42,27.27L632.19,25.82L633.96,30.19L635.73,24.57L642.81,24.59L644.58,25.79L646.35,25.77L648.13,24.1L655.21,28.51L656.98,28.3L658.75,29.26L660.52,25.21L665.83,29.54L667.6,29.77L671.15,26.63L672.92,31.01L681.77,30L683.54,34.37L685.31,33.5L690.63,27.41L692.4,30.12L694.17,29.77L695.94,27.21L697.71,27.6L703.02,33.13L704.79,33.18L706.56,41.69L708.33,36.06L710.1,35.47L715.42,42.19L717.19,45.74L718.96,46.17L720.73,41.63L722.5,39.56L727.81,51.55L729.58,41.62L731.35,41.27L733.13,45.09L734.9,48.92L740.21,58.13L741.98,67.98L743.75,73.34L745.52,92L747.29,98.45L752.6,74.01L754.38,77.46L756.15,89.86L757.92,80.13L759.69,83.69L765,74.34L766.77,77.62L768.54,86.39L770.31,85.34L772.08,92.69L777.4,96.75L779.17,77.06L780.94,83.79L782.71,81.54L784.48,79.49L789.79,77.71L791.56,73.54L793.33,82.6L795.1,89.15L796.88,82.07L802.19,82.79L803.96,88.11L805.73,95.26L807.5,81.67L809.27,90.17L814.58,94.31L816.35,90.97L818.13,100.55L819.9,110.99L821.67,97.98L826.98,92.54L828.75,92.71L830.52,89.84L834.06,86.57L839.38,101.2L841.15,98.8L842.92,93.66L844.69,100.08L846.46,94.01L851.77,92.31L853.54,97.54L855.31,96.53L857.08,99.11L858.85,98.87L864.17,97.91L865.94,91.3L869.48,95.37L871.25,96.46L876.56,96.7L878.33,99.06L883.65,97.11L888.96,97.97L892.5,92.23L896.04,87.6L903.13,90.52L904.9,92.65L906.67,93L908.44,94.6L913.75,96.7L915.52,95.78L917.29,101.22L919.06,100.61L920.83,98.79L927.92,102.82L929.69,100.05L931.46,100.9L933.23,103.79L938.54,101.3L940.31,99.46L942.08,95.83L943.85,98L945.63,102.76L950.94,105.29L952.71,101.23L954.48,104.87L956.25,103.45L958.02,99.73L963.33,101.6L965.1,109.63L966.88,108.01L968.65,104.03L970.42,106.64L977.5,112.21L979.27,111.63L981.04,111.01L982.81,113.5L988.13,118.76L989.9,114.63L991.67,116.41L993.44,120.47L995.21,123.87L1000.52,131.23L1002.29,133.43L1004.06,128.53L1005.83,134.61L1007.6,132.93L1012.92,136.05L1014.69,130.23L1016.46,129.07L1018.23,124.49L1020,121.1" style="vector-effect: non-scaling-stroke; fill: none; stroke: rgb(25, 211, 243); stroke-opacity: 1; stroke-width: 2px; opacity: 1;"/></g><g class="points"/><g class="text"/></g><g class="trace scatter trace04b074" style="stroke-miterlimit: 2; opacity: 1;"><g class="fills"/><g class="errorbars"/><g class="lines"><path class="js-line" d="M0,48.52L1.77,48.31L3.54,44.12L8.85,44.62L10.63,45.77L12.4,44.01L14.17,43.47L15.94,41.25L21.25,42.01L23.02,45.28L24.79,42.28L26.56,43.21L28.33,41.44L35.42,39.55L37.19,41.68L38.96,40.11L40.73,42.21L46.04,41.85L47.81,38.68L51.35,35.83L53.13,35L58.44,36.96L60.21,31.9L61.98,30.14L63.75,30.39L65.52,28.9L70.83,28.69L72.6,28.62L74.38,26.94L77.92,26.08L83.23,23.43L86.77,24.92L88.54,24.44L90.31,23.48L95.63,24.46L97.4,23.28L99.17,23.66L100.94,24.74L102.71,23.89L109.79,25.49L111.56,24.52L113.33,24.01L115.1,29.52L120.42,28.06L122.19,26.76L125.73,25.86L127.5,24.16L132.81,22.49L134.58,25.02L136.35,22.82L138.13,27.22L139.9,26.18L145.21,26.54L146.98,24.76L148.75,29.63L150.52,26.88L152.29,29.38L157.6,29.82L159.38,24.57L161.15,25.77L162.92,24.49L164.69,20.56L170,22.14L171.77,20.84L173.54,24.15L177.08,21.78L182.4,24.04L185.94,16.48L187.71,15.94L189.48,17.26L194.79,17.65L196.56,17.1L198.33,14.57L200.1,12.97L201.88,13.29L207.19,12.22L208.96,15.28L210.73,12.39L212.5,11.73L214.27,14.24L219.58,17.16L224.9,15.85L226.67,11.93L231.98,11.16L235.52,11.75L237.29,14.42L239.06,14.1L247.92,20.4L249.69,19.83L251.46,21.89L256.77,18.54L258.54,19.69L260.31,16.23L262.08,15.22L263.85,20.26L269.17,17.59L270.94,20.66L272.71,22.19L274.48,26.08L276.25,30.61L283.33,36.71L286.88,34.51L288.65,39L293.96,35.22L295.73,35.72L297.5,37.25L299.27,33.05L301.04,31.25L306.35,31.97L308.13,37.79L309.9,37.4L311.67,35.93L313.44,36.57L318.75,35.57L320.52,32.47L322.29,30.75L324.06,33.92L325.83,34.07L332.92,33.76L334.69,33.34L336.46,35.01L338.23,32.94L343.54,29.19L345.31,26.95L347.08,27.68L348.85,29.28L350.63,34.03L357.71,32.35L359.48,30.11L363.02,35.93L368.33,37.43L370.1,32.28L371.88,32.45L373.65,31.67L375.42,35.19L380.73,33.49L382.5,25.87L384.27,28.32L386.04,25.81L394.9,23.86L396.67,24.39L400.21,26.58L405.52,24.97L407.29,20.5L409.06,22.87L412.6,22.88L417.92,21.94L421.46,22.49L423.23,20.16L425,23.99L430.31,22.97L432.08,22.47L433.85,20.84L435.63,21.7L437.4,19.51L444.48,19.82L446.25,18.91L448.02,18.97L449.79,21.11L455.1,22.81L456.88,24.92L458.65,24.69L460.42,23.03L462.19,21.29L467.5,22.57L469.27,22.15L471.04,25.64L472.81,25.42L474.58,27.49L483.44,23.89L485.21,22L486.98,21.33L492.29,20.6L495.83,26.7L497.6,23.55L499.38,25.31L506.46,24.29L508.23,25.7L510,22.23L511.77,22.01L517.08,24.23L518.85,25.03L520.63,23.94L522.4,21.06L524.17,28.56L529.48,27.72L531.25,24.91L533.02,27.26L534.79,25.87L536.56,26.38L541.88,29.3L543.65,29.92L545.42,33.29L547.19,32.1L548.96,34.93L556.04,34.48L557.81,32.7L561.35,43.23L566.67,42.04L570.21,42.95L571.98,41.27L579.06,41.71L580.83,38.69L582.6,41.09L584.38,40.1L586.15,41.68L591.46,40.59L595,36.08L596.77,39.18L603.85,40.89L605.63,36.31L607.4,34L609.17,36.07L610.94,34.96L616.25,38.85L619.79,33.99L621.56,37.07L623.33,34.99L628.65,33.78L630.42,27.24L632.19,25.49L633.96,29.81L635.73,24.55L642.81,24.44L644.58,25.47L646.35,25.53L648.13,23.95L655.21,28.62L656.98,28.12L658.75,28.94L660.52,25.04L665.83,29.41L667.6,29.42L671.15,26.03L672.92,30.36L681.77,30.09L683.54,34.61L685.31,34.03L690.63,28.36L692.4,32.19L694.17,31.31L695.94,28.76L697.71,29.19L703.02,36.54L704.79,36.72L706.56,45.57L708.33,39.71L710.1,37.55L715.42,43.73L717.19,47.53L718.96,48.62L720.73,44.46L722.5,42.65L727.81,55.83L729.58,45.49L731.35,45.09L733.13,49.6L734.9,53.41L740.21,62.93L741.98,73.03L743.75,78.27L745.52,96.74L747.29,103.94L752.6,79.14L754.38,82.21L756.15,95.76L757.92,86.37L759.69,89.73L765,80.37L766.77,83.27L768.54,92.2L770.31,90.72L772.08,98.04L777.4,103.13L779.17,83.97L780.94,90L782.71,87.12L784.48,84.54L789.79,83.27L791.56,78.67L793.33,87.93L795.1,95.02L796.88,88.28L802.19,89.18L803.96,94.62L805.73,102.34L807.5,88.81L809.27,97.14L814.58,101.48L816.35,97.66L818.13,107.66L819.9,118.88L821.67,105.91L826.98,100.04L828.75,100.38L830.52,97.11L834.06,94.3L839.38,109.57L841.15,107.3L842.92,102.56L844.69,109.46L846.46,103.64L851.77,101.62L853.54,106.34L855.31,105.01L857.08,107.79L858.85,107.46L864.17,106.54L865.94,99.94L869.48,104.78L871.25,105.68L876.56,106.42L878.33,108.51L883.65,106.52L888.96,107.31L890.73,103.48L892.5,101.45L896.04,96.36L901.35,97.45L903.13,97.96L904.9,100.84L906.67,100.94L908.44,102.88L913.75,105.11L915.52,104.07L917.29,109.64L919.06,108.85L920.83,107.06L927.92,111.62L929.69,108.19L931.46,109.67L933.23,112.07L938.54,109.78L940.31,107.87L942.08,104.17L943.85,106.74L945.63,111.64L950.94,114.52L952.71,110.96L954.48,114.42L956.25,113.14L958.02,109.29L963.33,110.73L965.1,118.63L966.88,117.15L968.65,113.8L970.42,116.13L977.5,121.85L979.27,121.36L981.04,120.83L982.81,123.38L988.13,128.61L989.9,124.71L991.67,126.16L993.44,129.75L995.21,133.19L1000.52,140.69L1002.29,142.64L1004.06,137.9L1005.83,144.25L1007.6,142.82L1012.92,145.51L1014.69,139.2L1016.46,137.94L1018.23,133.54L1020,130.59" style="vector-effect: non-scaling-stroke; fill: none; stroke: rgb(255, 102, 146); stroke-opacity: 1; stroke-width: 2px; opacity: 1;"/></g><g class="points"/><g class="text"/></g><g class="trace scatter tracea8bf52" style="stroke-miterlimit: 2; opacity: 1;"><g class="fills"/><g class="errorbars"/><g class="lines"><path class="js-line" d="M0,48.52L1.77,48.31L3.54,44.11L8.85,44.62L10.63,45.76L12.4,43.98L14.17,43.42L15.94,41.2L21.25,41.97L23.02,45.26L24.79,42.25L26.56,43.17L28.33,41.41L35.42,39.5L37.19,41.62L38.96,40.07L40.73,42.18L46.04,41.81L47.81,38.66L51.35,35.78L53.13,34.97L58.44,36.93L60.21,31.87L61.98,30.1L63.75,30.34L65.52,28.83L70.83,28.62L72.6,28.55L74.38,26.86L77.92,26.03L83.23,23.37L86.77,24.87L88.54,24.39L90.31,23.42L95.63,24.41L97.4,23.23L99.17,23.63L100.94,24.73L102.71,23.87L109.79,25.48L111.56,24.52L113.33,24.02L115.1,29.54L120.42,28.09L122.19,26.77L125.73,25.91L127.5,24.21L132.81,22.54L134.58,25.07L136.35,22.85L138.13,27.26L139.9,26.22L145.21,26.59L146.98,24.8L148.75,29.7L150.52,26.97L152.29,29.44L157.6,29.89L159.38,24.65L161.15,25.87L162.92,24.59L164.69,20.66L170,22.26L171.77,20.97L173.54,24.3L177.08,21.92L182.4,24.17L185.94,16.61L187.71,16.08L189.48,17.4L194.79,17.8L196.56,17.26L198.33,14.72L200.1,13.1L201.88,13.42L207.19,12.37L208.96,15.42L210.73,12.5L212.5,11.85L214.27,14.36L219.58,17.28L224.9,15.95L226.67,12.02L231.98,11.24L235.52,11.82L237.29,14.49L239.06,14.17L247.92,20.46L249.69,19.9L251.46,21.97L256.77,18.63L258.54,19.81L260.31,16.38L262.08,15.36L263.85,20.39L269.17,17.7L270.94,20.78L272.71,22.31L274.48,26.23L276.25,30.8L283.33,36.9L286.88,34.73L288.65,39.22L293.96,35.42L295.73,35.89L297.5,37.44L299.27,33.24L301.04,31.44L306.35,32.13L308.13,37.98L309.9,37.57L311.67,36.13L313.44,36.76L318.75,35.82L320.52,32.71L322.29,30.96L324.06,34.13L325.83,34.26L332.92,33.97L334.69,33.57L336.46,35.24L338.23,33.16L343.54,29.39L345.31,27.17L347.08,27.91L348.85,29.49L350.63,34.27L357.71,32.61L359.48,30.37L363.02,36.22L368.33,37.72L370.1,32.55L371.88,32.75L373.65,31.97L375.42,35.47L380.73,33.75L382.5,26.11L384.27,28.6L386.04,26.1L394.9,24.14L396.67,24.68L400.21,26.89L405.52,25.26L407.29,20.75L409.06,23.12L412.6,23.12L417.92,22.16L421.46,22.72L423.23,20.42L425,24.26L430.31,23.26L432.08,22.77L433.85,21.13L435.63,21.96L437.4,19.74L444.48,20.06L446.25,19.15L448.02,19.2L449.79,21.31L455.1,23L456.88,25.1L458.65,24.87L460.42,23.18L462.19,21.41L467.5,22.71L469.27,22.26L471.04,25.78L472.81,25.57L474.58,27.67L483.44,24.09L485.21,22.19L486.98,21.53L492.29,20.8L495.83,26.92L497.6,23.79L499.38,25.56L506.46,24.55L508.23,25.96L510,22.48L511.77,22.24L517.08,24.45L518.85,25.26L520.63,24.17L522.4,21.28L524.17,28.79L529.48,27.98L531.25,25.19L533.02,27.55L534.79,26.16L536.56,26.63L541.88,29.55L543.65,30.18L545.42,33.54L547.19,32.34L548.96,35.18L556.04,34.76L557.81,32.99L561.35,43.49L566.67,42.31L570.21,43.22L571.98,41.57L579.06,42.02L580.83,39.03L582.6,41.43L584.38,40.45L586.15,42.03L591.46,40.96L595,36.45L596.77,39.52L603.85,41.2L605.63,36.66L607.4,34.33L609.17,36.42L610.94,35.32L616.25,39.24L619.79,34.39L621.56,37.46L623.33,35.39L628.65,34.22L630.42,27.67L632.19,25.92L633.96,30.27L635.73,25.02L642.81,24.95L644.58,25.98L646.35,26.03L648.13,24.47L655.21,29.16L656.98,28.64L658.75,29.46L660.52,25.58L665.83,29.96L667.6,29.95L671.15,26.51L672.92,30.82L681.77,30.56L683.54,35.11L685.31,34.54L690.63,28.88L692.4,32.79L694.17,31.95L695.94,29.43L697.71,29.99L703.02,37.7L704.79,37.98L706.56,46.96L708.33,41.05L710.1,38.71L715.42,44.78L717.19,48.56L718.96,49.8L720.73,45.7L722.5,43.91L727.81,57.14L729.58,46.76L731.35,46.35L733.13,50.83L734.9,54.64L740.21,64.13L741.98,74.19L743.75,79.43L745.52,97.88L747.29,105.08L752.6,80.36L754.38,83.34L756.15,96.9L757.92,87.6L759.69,90.96L765,81.6L766.77,84.49L768.54,93.43L770.31,91.91L772.08,99.25L777.4,104.36L779.17,85.24L780.94,91.28L782.71,88.4L784.48,85.8L789.79,84.51L791.56,79.86L793.33,89.14L795.1,96.26L796.88,89.52L802.19,90.39L803.96,95.8L805.73,103.52L807.5,90.01L809.27,98.3L814.58,102.64L816.35,98.85L818.13,108.88L819.9,120.04L821.67,107.12L826.98,101.24L828.75,101.58L830.52,98.3L834.06,95.51L839.38,110.77L841.15,108.45L842.92,103.74L844.69,110.65L846.46,104.87L851.77,102.8L853.54,107.48L855.31,106.18L857.08,108.95L858.85,108.62L864.17,107.73L865.94,101.14L869.48,106.01L871.25,106.91L876.56,107.64L878.33,109.73L883.65,107.76L888.96,108.54L892.5,102.7L896.04,97.59L903.13,99.17L904.9,102.08L906.67,102.13L908.44,104.08L913.75,106.33L915.52,105.29L917.29,110.85L919.06,110.08L920.83,108.31L927.92,112.87L929.69,109.4L931.46,110.91L933.23,113.25L938.54,110.98L940.31,109.09L942.08,105.39L943.85,108L945.63,112.84L950.94,115.71L952.71,112.2L954.48,115.66L956.25,114.41L958.02,110.57L963.33,111.98L965.1,119.87L966.88,118.4L968.65,115.11L970.42,117.42L977.5,123.15L979.27,122.7L981.04,122.23L982.81,124.76L988.13,129.96L989.9,126.16L991.67,127.55L993.44,131.08L995.21,134.56L1000.52,142.02L1002.29,143.93L1004.06,139.22L1005.83,145.59L1007.6,144.18L1012.92,146.86L1014.69,140.55L1016.46,139.3L1018.23,134.92L1020,131.96" style="vector-effect: non-scaling-stroke; fill: none; stroke: rgb(182, 232, 128); stroke-opacity: 1; stroke-width: 2px; opacity: 1;"/></g><g class="points"/><g class="text"/></g><g class="trace scatter trace05604a" style="stroke-miterlimit: 2; opacity: 1;"><g class="fills"/><g class="errorbars"/><g class="lines"><path class="js-line" d="M0,48.52L1.77,48.31L3.54,44.22L8.85,44.68L10.63,45.86L12.4,44.13L14.17,43.55L15.94,41.4L21.25,42.19L23.02,45.47L24.79,42.47L26.56,43.48L28.33,41.83L35.42,39.95L37.19,42.08L38.96,40.54L40.73,42.54L46.04,42.07L47.81,38.92L51.35,35.91L53.13,35.05L58.44,36.99L60.21,32.03L61.98,30.16L63.75,30.32L65.52,28.78L70.83,28.59L72.6,28.52L74.38,26.84L77.92,26.04L83.23,23.33L86.77,24.78L88.54,24.29L90.31,23.4L95.63,24.39L97.4,23.17L99.17,23.67L100.94,24.63L102.71,23.78L109.79,25.59L111.56,24.68L113.33,24.18L115.1,29.26L120.42,27.89L122.19,26.54L125.73,25.75L127.5,24.01L132.81,22.24L134.58,24.74L136.35,22.54L138.13,26.9L139.9,25.95L145.21,26.36L146.98,24.55L148.75,29.44L150.52,26.58L152.29,28.56L157.6,28.78L159.38,23.61L161.15,24.67L162.92,23.53L164.69,19.67L170,21.24L171.77,20.06L173.54,23.49L177.08,21.19L182.4,23.26L185.94,15.8L187.71,15.35L189.48,16.63L194.79,16.98L196.56,16.37L198.33,13.85L200.1,12.27L201.88,12.69L207.19,11.61L208.96,14.56L210.73,11.88L212.5,11.21L214.27,13.7L219.58,16.65L224.9,15.28L226.67,11.42L231.98,10.65L235.52,11.22L237.29,13.85L239.06,13.51L247.92,19.78L249.69,19.19L251.46,21.17L256.77,17.62L258.54,18.76L260.31,15.18L262.08,14.12L263.85,18.95L269.17,16.39L270.94,19.42L272.71,20.81L274.48,24.75L276.25,29.65L283.33,35.83L286.88,33.98L288.65,38.47L293.96,34.78L295.73,35.27L297.5,37.05L299.27,32.82L301.04,31.15L306.35,31.79L308.13,37.6L309.9,37.27L311.67,35.88L313.44,36.69L318.75,35.94L320.52,32.65L322.29,31.01L324.06,34.15L325.83,34.31L332.92,34.01L334.69,33.77L336.46,35.39L338.23,33.21L343.54,29.47L345.31,27.35L347.08,28.2L348.85,29.71L350.63,34.56L357.71,32.92L359.48,30.67L363.02,36.58L368.33,38.11L370.1,32.95L371.88,33.2L373.65,32.43L375.42,35.86L380.73,33.99L382.5,26.41L384.27,28.82L386.04,26.11L394.9,24.31L396.67,24.88L400.21,27.05L405.52,25.36L407.29,20.72L409.06,23.04L412.6,22.95L417.92,21.95L421.46,22.5L423.23,20.38L425,24.05L430.31,23.15L432.08,22.69L433.85,21.13L435.63,22.07L437.4,19.84L444.48,20.1L446.25,19.17L448.02,19.03L449.79,20.92L455.1,22.41L456.88,24.43L458.65,24.17L460.42,22.42L462.19,20.65L467.5,22L469.27,21.66L471.04,25.41L472.81,25.26L474.58,27.41L481.67,25.16L483.44,23.97L485.21,22.2L486.98,21.61L492.29,20.89L494.06,23.98L495.83,27L497.6,23.94L499.38,25.73L506.46,24.8L508.23,26.34L510,22.7L511.77,22.33L517.08,24.46L518.85,25.28L520.63,24.36L522.4,21.38L524.17,28.79L529.48,28.07L531.25,25.39L533.02,27.74L534.79,26.29L536.56,26.7L541.88,29.63L543.65,30.34L545.42,33.78L547.19,32.47L548.96,35.31L556.04,34.88L557.81,33.17L561.35,43.64L566.67,42.26L570.21,42.97L571.98,41.35L579.06,41.84L580.83,38.78L582.6,41.02L584.38,40.08L586.15,41.77L591.46,40.69L595,36.06L596.77,39.07L603.85,40.75L605.63,36.19L607.4,33.79L609.17,35.98L610.94,34.89L616.25,38.87L619.79,34.16L621.56,37L623.33,34.97L628.65,33.71L630.42,27.09L632.19,25.34L633.96,29.91L635.73,24.66L642.81,24.63L644.58,25.74L646.35,25.77L648.13,24.21L655.21,28.79L656.98,28.27L658.75,29.12L660.52,25.26L665.83,29.63L667.6,29.59L671.15,26.12L672.92,30.42L681.77,29.78L683.54,34.4L685.31,33.73L690.63,28.08L692.4,32.08L694.17,31.38L695.94,29.04L697.71,30.1L703.02,38.63L704.79,39.19L706.56,48.6L708.33,42.51L710.1,40.23L715.42,46.08L717.19,49.7L718.96,51.24L720.73,47.31L722.5,45.45L727.81,58.61L729.58,47.98L731.35,47.56L733.13,51.75L734.9,55.63L740.21,65.02L741.98,74.91L743.75,79.85L745.52,98.62L747.29,105.76L752.6,81.14L754.38,83.83L756.15,97.31L757.92,87.99L759.69,91.6L765,82.24L766.77,85.32L768.54,94.22L770.31,92.85L772.08,100.33L777.4,105.3L779.17,86.05L780.94,92.4L782.71,89.75L784.48,87.22L789.79,85.73L791.56,80.96L793.33,90.34L795.1,97.48L796.88,90.64L802.19,91.28L803.96,96.5L805.73,104.04L807.5,90.45L809.27,98.83L814.58,103.07L816.35,99.41L818.13,109.6L819.9,120.54L821.67,107.77L826.98,102L828.75,102.41L830.52,99.21L834.06,96.44L839.38,111.58L841.15,108.97L842.92,104.21L844.69,111.04L846.46,105.11L851.77,103.06L853.54,107.61L855.31,106.53L857.08,108.99L858.85,108.79L864.17,107.81L865.94,101.23L869.48,105.97L871.25,106.88L876.56,107.47L878.33,109.55L883.65,107.66L888.96,108.44L892.5,102.65L896.04,97.65L903.13,99.52L904.9,102.32L906.67,102.38L908.44,104.22L913.75,106.53L915.52,105.42L917.29,110.97L919.06,110.4L920.83,108.77L927.92,113.12L929.69,109.93L931.46,111.42L933.23,113.7L938.54,111.48L940.31,109.55L942.08,105.88L943.85,108.6L945.63,113.22L950.94,115.78L952.71,112.41L954.48,115.78L956.25,114.51L958.02,110.82L963.33,112.34L965.1,120.19L966.88,118.66L968.65,115.38L970.42,117.65L977.5,123.32L979.27,122.98L981.04,122.63L982.81,125.23L988.13,130.29L989.9,126.81L991.67,128.12L993.44,131.68L995.21,135.53L1000.52,142.89L1002.29,144.81L1004.06,140.16L1005.83,146.52L1007.6,145.05L1012.92,147.91L1014.69,141.73L1016.46,140.59L1018.23,136.3L1020,133.09" style="vector-effect: non-scaling-stroke; fill: none; stroke: rgb(255, 151, 255); stroke-opacity: 1; stroke-width: 2px; opacity: 1;"/></g><g class="points"/><g class="text"/></g><g class="trace scatter traceb58f1b" style="stroke-miterlimit: 2; opacity: 1;"><g class="fills"/><g class="errorbars"/><g class="lines"><path class="js-line" d="M0,48.52L1.77,48.85L3.54,43.9L8.85,43.01L10.63,43.65L12.4,40.57L14.17,40.58L15.94,37.54L21.25,38.75L23.02,44.69L24.79,39.44L26.56,40.52L28.33,37.99L35.42,36.06L37.19,39.1L38.96,37.87L40.73,43.18L46.04,42.87L47.81,39.04L49.58,39.39L51.35,36.57L53.13,36.19L58.44,37.02L60.21,29.89L61.98,28.28L63.75,29.31L65.52,28.18L70.83,29.48L72.6,29.06L74.38,26.95L76.15,26.21L77.92,26.58L83.23,22.51L86.77,25.04L88.54,24.91L90.31,22.96L95.63,23.43L97.4,20.87L99.17,22.69L100.94,24.04L102.71,22.39L111.56,26.64L113.33,26.72L115.1,34.51L120.42,33.55L122.19,31.23L123.96,31.25L125.73,31.32L127.5,28.46L132.81,27.12L134.58,28.77L136.35,25.85L138.13,33.53L139.9,32.95L145.21,34.05L146.98,31.56L148.75,39.22L150.52,39.93L152.29,44.67L157.6,45.85L159.38,39.07L162.92,43.25L164.69,41.83L170,46.46L171.77,45.37L173.54,49.85L177.08,45.99L182.4,51.03L184.17,46.46L185.94,39.44L187.71,38.97L189.48,37.69L194.79,38.91L196.56,40.3L198.33,36.14L200.1,32.43L201.88,32.31L207.19,30.15L208.96,36.4L212.5,34.59L214.27,38.37L219.58,42.03L221.35,40.65L223.13,41.18L224.9,40.37L226.67,36.02L231.98,33.91L235.52,33.88L237.29,37.95L239.06,37.82L244.38,39.96L247.92,44.65L249.69,44.38L251.46,49.82L256.77,49.24L258.54,54.3L260.31,51.2L262.08,48.7L263.85,53.94L269.17,50.29L270.94,56.17L272.71,56.91L274.48,63.42L276.25,64.69L283.33,67.41L285.1,61.07L286.88,58.77L288.65,62.4L293.96,58.65L295.73,56.61L297.5,57.4L299.27,53L301.04,51.03L306.35,53.32L308.13,61.17L309.9,62.55L311.67,61.56L313.44,62.94L318.75,61.71L322.29,55.08L324.06,58.8L325.83,59.41L332.92,59.65L334.69,57.73L336.46,60.77L338.23,58.72L343.54,54.7L345.31,52.27L347.08,52.07L348.85,54.45L350.63,61.15L355.94,61.31L357.71,62.26L359.48,61.39L361.25,65.94L363.02,69.06L368.33,72.31L370.1,63.47L371.88,64.46L373.65,63.71L375.42,67.84L380.73,67.39L382.5,58.47L384.27,64.69L386.04,59.13L393.13,55.16L394.9,55.5L400.21,62.21L405.52,61.22L407.29,52.92L409.06,53.88L412.6,53.87L417.92,53.81L421.46,55.61L423.23,54.45L425,59.9L430.31,60.39L432.08,59.11L433.85,53.66L435.63,53.63L437.4,48.78L442.71,49.29L444.48,51.52L446.25,50.61L448.02,48.79L449.79,47.88L455.1,48.3L458.65,49.4L460.42,45.37L462.19,44.35L467.5,46.23L469.27,45.14L471.04,49.52L472.81,48.41L474.58,50.97L479.9,48.21L481.67,49.14L485.21,45.74L486.98,45.86L492.29,44.98L494.06,49.22L495.83,54.04L497.6,53.53L499.38,56.62L506.46,55.17L510,53.09L511.77,53.26L517.08,56.11L518.85,58.25L520.63,58.52L522.4,53.97L524.17,62.35L529.48,60.85L531.25,60.65L533.02,65.02L534.79,63.8L536.56,60.28L541.88,61.09L543.65,63.4L545.42,66.18L547.19,65.46L548.96,70.14L554.27,70.15L556.04,70.89L557.81,70.79L559.58,78.4L561.35,80.67L568.44,79.91L570.21,83.45L571.98,81.9L579.06,83.1L580.83,79.87L582.6,84.89L584.38,83.16L586.15,85.89L591.46,86.85L593.23,88.81L596.77,78.54L598.54,77.48L603.85,78.1L605.63,75.24L607.4,74.6L609.17,80.61L610.94,80.15L616.25,85.24L619.79,75.63L621.56,80L623.33,81.1L628.65,81.99L630.42,74.95L632.19,74.1L633.96,78.87L635.73,72.44L641.04,71.42L642.81,74.39L644.58,76.71L646.35,74.95L648.13,74.02L653.44,77.85L655.21,80.62L656.98,79.16L658.75,78.89L660.52,74.69L665.83,79.82L667.6,79.26L669.38,77.36L671.15,72.84L672.92,76.48L680,77.05L681.77,76.71L683.54,84.03L685.31,83.33L690.63,77.18L692.4,83.12L694.17,82.31L695.94,78.82L697.71,79.07L703.02,89.77L704.79,86.77L706.56,96.3L708.33,87.6L710.1,79.78L715.42,87.69L717.19,91.11L718.96,91.73L722.5,84.98L727.81,101.48L729.58,91.19L731.35,91.6L733.13,98.99L734.9,102.33L740.21,110.18L741.98,120.97L743.75,124.98L745.52,139.39L747.29,142.1L752.6,122.23L754.38,123.86L756.15,139.41L757.92,130.9L759.69,133.59L765,124.83L766.77,129.74L768.54,140.66L770.31,137.01L772.08,143.64L777.4,147.95L779.17,129.08L780.94,130.65L784.48,123.56L789.79,123.67L791.56,117.19L793.33,127.5L795.1,136.91L796.88,131.65L802.19,133.2L803.96,136.95L805.73,145.68L807.5,133.95L809.27,141.12L814.58,145.87L816.35,142.66L818.13,151.73L819.9,161.18L821.67,150.69L826.98,142.27L828.75,141.5L830.52,136.26L834.06,134.09L839.38,148.51L841.15,142.78L842.92,139.12L844.69,143.69L846.46,138.19L851.77,131.85L853.54,137.01L855.31,135.52L857.08,139.69L858.85,138.32L864.17,139.7L865.94,132.07L867.71,134.18L869.48,138.84L876.56,140.65L878.33,142.78L880.1,141.74L883.65,140.74L888.96,141.41L890.73,137.49L896.04,129.72L901.35,131.46L903.13,130.14L904.9,135.34L906.67,135.92L908.44,138.96L915.52,142.16L917.29,147.43L919.06,147.17L920.83,145.71L927.92,152.76L929.69,146.84L931.46,149.07L933.23,150.03L938.54,149.21L940.31,147.97L942.08,143.71L943.85,148.51L945.63,151.66L950.94,153.02L952.71,150.01L954.48,152.6L956.25,150.34L958.02,145.72L963.33,145.93L965.1,154.03L966.88,152.96L968.65,153.1L977.5,161.17L979.27,161.11L988.13,170.46L989.9,165.45L995.21,171.56L1000.52,177.92L1002.29,178.71L1004.06,175.53L1005.83,181.5L1007.6,180.81L1012.92,182.51L1014.69,174.46L1016.46,174.37L1018.23,169.29L1020,168.14" style="vector-effect: non-scaling-stroke; fill: none; stroke: rgb(254, 203, 82); stroke-opacity: 1; stroke-width: 2px; opacity: 1;"/></g><g class="points"/><g class="text"/></g></g></g><g class="overplot"/><path class="xlines-above crisp" d="M0,0" style="fill: none;"/><path class="ylines-above crisp" d="M0,0" style="fill: none;"/><g class="overlines-above"/><g class="xaxislayer-above"><g class="xtick"><text text-anchor="middle" x="0" y="280" transform="translate(80.1,0)" style="font-family: 'Open Sans', verdana, arial, sans-serif; font-size: 12px; fill: rgb(42, 63, 95); fill-opacity: 1; white-space: pre; opacity: 1;">Sep 2007</text></g><g class="xtick"><text text-anchor="middle" x="0" y="280" style="font-family: 'Open Sans', verdana, arial, sans-serif; font-size: 12px; fill: rgb(42, 63, 95); fill-opacity: 1; white-space: pre; opacity: 1;" transform="translate(188.13,0)">Nov 2007</text></g><g class="xtick"><text text-anchor="middle" x="0" y="280" style="font-family: 'Open Sans', verdana, arial, sans-serif; font-size: 12px; fill: rgb(42, 63, 95); fill-opacity: 1; white-space: pre; opacity: 1;" transform="translate(296.15,0)">Jan 2008</text></g><g class="xtick"><text text-anchor="middle" x="0" y="280" style="font-family: 'Open Sans', verdana, arial, sans-serif; font-size: 12px; fill: rgb(42, 63, 95); fill-opacity: 1; white-space: pre; opacity: 1;" transform="translate(402.4,0)">Mar 2008</text></g><g class="xtick"><text text-anchor="middle" x="0" y="280" style="font-family: 'Open Sans', verdana, arial, sans-serif; font-size: 12px; fill: rgb(42, 63, 95); fill-opacity: 1; white-space: pre; opacity: 1;" transform="translate(510.42,0)">May 2008</text></g><g class="xtick"><text text-anchor="middle" x="0" y="280" style="font-family: 'Open Sans', verdana, arial, sans-serif; font-size: 12px; fill: rgb(42, 63, 95); fill-opacity: 1; white-space: pre; opacity: 1;" transform="translate(618.44,0)">Jul 2008</text></g><g class="xtick"><text text-anchor="middle" x="0" y="280" style="font-family: 'Open Sans', verdana, arial, sans-serif; font-size: 12px; fill: rgb(42, 63, 95); fill-opacity: 1; white-space: pre; opacity: 1;" transform="translate(728.23,0)">Sep 2008</text></g><g class="xtick"><text text-anchor="middle" x="0" y="280" style="font-family: 'Open Sans', verdana, arial, sans-serif; font-size: 12px; fill: rgb(42, 63, 95); fill-opacity: 1; white-space: pre; opacity: 1;" transform="translate(836.25,0)">Nov 2008</text></g><g class="xtick"><text text-anchor="middle" x="0" y="280" style="font-family: 'Open Sans', verdana, arial, sans-serif; font-size: 12px; fill: rgb(42, 63, 95); fill-opacity: 1; white-space: pre; opacity: 1;" transform="translate(944.27,0)">Jan 2009</text></g><g class="xtick"><text text-anchor="middle" x="0" y="280" style="font-family: 'Open Sans', verdana, arial, sans-serif; font-size: 12px; fill: rgb(42, 63, 95); fill-opacity: 1; white-space: pre; opacity: 1;" transform="translate(1048.75,0)">Mar 2009</text></g></g><g class="yaxislayer-above"><g class="ytick"><text text-anchor="end" x="49" y="4.199999999999999" transform="translate(0,254.11)" style="font-family: 'Open Sans', verdana, arial, sans-serif; font-size: 12px; fill: rgb(42, 63, 95); fill-opacity: 1; white-space: pre; opacity: 1;">6k</text></g><g class="ytick"><text text-anchor="end" x="49" y="4.199999999999999" style="font-family: 'Open Sans', verdana, arial, sans-serif; font-size: 12px; fill: rgb(42, 63, 95); fill-opacity: 1; white-space: pre; opacity: 1;" transform="translate(0,211.68)">8k</text></g><g class="ytick"><text text-anchor="end" x="49" y="4.199999999999999" style="font-family: 'Open Sans', verdana, arial, sans-serif; font-size: 12px; fill: rgb(42, 63, 95); fill-opacity: 1; white-space: pre; opacity: 1;" transform="translate(0,169.24)">10k</text></g><g class="ytick"><text text-anchor="end" x="49" y="4.199999999999999" style="font-family: 'Open Sans', verdana, arial, sans-serif; font-size: 12px; fill: rgb(42, 63, 95); fill-opacity: 1; white-space: pre; opacity: 1;" transform="translate(0,126.8)">12k</text></g><g class="ytick"><text text-anchor="end" x="49" y="4.199999999999999" style="font-family: 'Open Sans', verdana, arial, sans-serif; font-size: 12px; fill: rgb(42, 63, 95); fill-opacity: 1; white-space: pre; opacity: 1;" transform="translate(0,84.36)">14k</text></g></g><g class="overaxes-above"/></g></g><g class="polarlayer"/><g class="ternarylayer"/><g class="geolayer"/><g class="funnelarealayer"/><g class="pielayer"/><g class="iciclelayer"/><g class="treemaplayer"/><g class="sunburstlayer"/><g class="glimages"/><defs id="topdefs-309fbf"><g class="clips"/><clipPath id="legend309fbf"><rect width="136" height="200" x="0" y="0"/></clipPath></defs><g class="layer-above"><g class="imagelayer"/><g class="shapelayer"/></g><g class="infolayer"><g class="legend" pointer-events="all" transform="translate(1090.4,60)"><rect class="bg" shape-rendering="crispEdges" width="136" height="200" x="0" y="0" style="stroke: rgb(68, 68, 68); stroke-opacity: 1; fill: rgb(255, 255, 255); fill-opacity: 1; stroke-width: 0px;"/><g class="scrollbox" transform="" clip-path="url(#legend309fbf)"><g class="groups"><g class="traces" transform="translate(0,14.5)" style="opacity: 1;"><text class="legendtext" text-anchor="start" x="40" y="4.680000000000001" style="font-family: 'Open Sans', verdana, arial, sans-serif; font-size: 12px; fill: rgb(42, 63, 95); fill-opacity: 1; white-space: pre;">Conic =0.1</text><g class="layers" style="opacity: 1;"><g class="legendfill"/><g class="legendlines"><path class="js-line" d="M5,0h30" style="fill: none; stroke: rgb(99, 110, 250); stroke-opacity: 1; stroke-width: 2px;"/></g><g class="legendsymbols"><g class="legendpoints"/></g></g><rect class="legendtoggle" x="0" y="-9.5" width="130.8186798095703" height="19" style="fill: rgb(0, 0, 0); fill-opacity: 0;"/></g><g class="traces" transform="translate(0,33.5)" style="opacity: 1;"><text class="legendtext" text-anchor="start" x="40" y="4.680000000000001" style="font-family: 'Open Sans', verdana, arial, sans-serif; font-size: 12px; fill: rgb(42, 63, 95); fill-opacity: 1; white-space: pre;">Conic =3.275</text><g class="layers" style="opacity: 1;"><g class="legendfill"/><g class="legendlines"><path class="js-line" d="M5,0h30" style="fill: none; stroke: rgb(239, 85, 59); stroke-opacity: 1; stroke-width: 2px;"/></g><g class="legendsymbols"><g class="legendpoints"/></g></g><rect class="legendtoggle" x="0" y="-9.5" width="130.8186798095703" height="19" style="fill: rgb(0, 0, 0); fill-opacity: 0;"/></g><g class="traces" transform="translate(0,52.5)" style="opacity: 1;"><text class="legendtext" text-anchor="start" x="40" y="4.680000000000001" style="font-family: 'Open Sans', verdana, arial, sans-serif; font-size: 12px; fill: rgb(42, 63, 95); fill-opacity: 1; white-space: pre;">Conic =6.45</text><g class="layers" style="opacity: 1;"><g class="legendfill"/><g class="legendlines"><path class="js-line" d="M5,0h30" style="fill: none; stroke: rgb(0, 204, 150); stroke-opacity: 1; stroke-width: 2px;"/></g><g class="legendsymbols"><g class="legendpoints"/></g></g><rect class="legendtoggle" x="0" y="-9.5" width="130.8186798095703" height="19" style="fill: rgb(0, 0, 0); fill-opacity: 0;"/></g><g class="traces" transform="translate(0,71.5)" style="opacity: 1;"><text class="legendtext" text-anchor="start" x="40" y="4.680000000000001" style="font-family: 'Open Sans', verdana, arial, sans-serif; font-size: 12px; fill: rgb(42, 63, 95); fill-opacity: 1; white-space: pre;">Conic =9.625</text><g class="layers" style="opacity: 1;"><g class="legendfill"/><g class="legendlines"><path class="js-line" d="M5,0h30" style="fill: none; stroke: rgb(171, 99, 250); stroke-opacity: 1; stroke-width: 2px;"/></g><g class="legendsymbols"><g class="legendpoints"/></g></g><rect class="legendtoggle" x="0" y="-9.5" width="130.8186798095703" height="19" style="fill: rgb(0, 0, 0); fill-opacity: 0;"/></g><g class="traces" transform="translate(0,90.5)" style="opacity: 1;"><text class="legendtext" text-anchor="start" x="40" y="4.680000000000001" style="font-family: 'Open Sans', verdana, arial, sans-serif; font-size: 12px; fill: rgb(42, 63, 95); fill-opacity: 1; white-space: pre;">Conic =12.8</text><g class="layers" style="opacity: 1;"><g class="legendfill"/><g class="legendlines"><path class="js-line" d="M5,0h30" style="fill: none; stroke: rgb(255, 161, 90); stroke-opacity: 1; stroke-width: 2px;"/></g><g class="legendsymbols"><g class="legendpoints"/></g></g><rect class="legendtoggle" x="0" y="-9.5" width="130.8186798095703" height="19" style="fill: rgb(0, 0, 0); fill-opacity: 0;"/></g><g class="traces" transform="translate(0,109.5)" style="opacity: 1;"><text class="legendtext" text-anchor="start" x="40" y="4.680000000000001" style="font-family: 'Open Sans', verdana, arial, sans-serif; font-size: 12px; fill: rgb(42, 63, 95); fill-opacity: 1; white-space: pre;">Mean-Variance</text><g class="layers" style="opacity: 1;"><g class="legendfill"/><g class="legendlines"><path class="js-line" d="M5,0h30" style="fill: none; stroke: rgb(25, 211, 243); stroke-opacity: 1; stroke-width: 2px;"/></g><g class="legendsymbols"><g class="legendpoints"/></g></g><rect class="legendtoggle" x="0" y="-9.5" width="130.8186798095703" height="19" style="fill: rgb(0, 0, 0); fill-opacity: 0;"/></g><g class="traces" transform="translate(0,128.5)" style="opacity: 1;"><text class="legendtext" text-anchor="start" x="40" y="4.680000000000001" style="font-family: 'Open Sans', verdana, arial, sans-serif; font-size: 12px; fill: rgb(42, 63, 95); fill-opacity: 1; white-space: pre;">Mean-VaR</text><g class="layers" style="opacity: 1;"><g class="legendfill"/><g class="legendlines"><path class="js-line" d="M5,0h30" style="fill: none; stroke: rgb(255, 102, 146); stroke-opacity: 1; stroke-width: 2px;"/></g><g class="legendsymbols"><g class="legendpoints"/></g></g><rect class="legendtoggle" x="0" y="-9.5" width="130.8186798095703" height="19" style="fill: rgb(0, 0, 0); fill-opacity: 0;"/></g><g class="traces" transform="translate(0,147.5)" style="opacity: 1;"><text class="legendtext" text-anchor="start" x="40" y="4.680000000000001" style="font-family: 'Open Sans', verdana, arial, sans-serif; font-size: 12px; fill: rgb(42, 63, 95); fill-opacity: 1; white-space: pre;">Mean-CVaR 95%</text><g class="layers" style="opacity: 1;"><g class="legendfill"/><g class="legendlines"><path class="js-line" d="M5,0h30" style="fill: none; stroke: rgb(182, 232, 128); stroke-opacity: 1; stroke-width: 2px;"/></g><g class="legendsymbols"><g class="legendpoints"/></g></g><rect class="legendtoggle" x="0" y="-9.5" width="130.8186798095703" height="19" style="fill: rgb(0, 0, 0); fill-opacity: 0;"/></g><g class="traces" transform="translate(0,166.5)" style="opacity: 1;"><text class="legendtext" text-anchor="start" x="40" y="4.680000000000001" style="font-family: 'Open Sans', verdana, arial, sans-serif; font-size: 12px; fill: rgb(42, 63, 95); fill-opacity: 1; white-space: pre;">Mean-CVaR 99%</text><g class="layers" style="opacity: 1;"><g class="legendfill"/><g class="legendlines"><path class="js-line" d="M5,0h30" style="fill: none; stroke: rgb(255, 151, 255); stroke-opacity: 1; stroke-width: 2px;"/></g><g class="legendsymbols"><g class="legendpoints"/></g></g><rect class="legendtoggle" x="0" y="-9.5" width="130.8186798095703" height="19" style="fill: rgb(0, 0, 0); fill-opacity: 0;"/></g><g class="traces" transform="translate(0,185.5)" style="opacity: 1;"><text class="legendtext" text-anchor="start" x="40" y="4.680000000000001" style="font-family: 'Open Sans', verdana, arial, sans-serif; font-size: 12px; fill: rgb(42, 63, 95); fill-opacity: 1; white-space: pre;">DJIA</text><g class="layers" style="opacity: 1;"><g class="legendfill"/><g class="legendlines"><path class="js-line" d="M5,0h30" style="fill: none; stroke: rgb(254, 203, 82); stroke-opacity: 1; stroke-width: 2px;"/></g><g class="legendsymbols"><g class="legendpoints"/></g></g><rect class="legendtoggle" x="0" y="-9.5" width="130.8186798095703" height="19" style="fill: rgb(0, 0, 0); fill-opacity: 0;"/></g></g></g><rect class="scrollbar" rx="20" ry="3" width="0" height="0" x="0" y="0" style="fill: rgb(128, 139, 164); fill-opacity: 1;"/></g><g class="g-gtitle"/><g class="g-xtitle"/><g class="g-ytitle"/></g></svg>