<svg class="main-svg" xmlns="http://www.w3.org/2000/svg" xmlns:xlink="http://www.w3.org/1999/xlink" width="1238" height="317" style=""><rect x="0" y="0" width="1238" height="317" style="fill: rgb(255, 255, 255); fill-opacity: 1;"/><defs id="defs-07758f"><g class="clips"><clipPath id="clip07758fxyplot" class="plotclip"><rect width="1020" height="207"/></clipPath><clipPath class="axesclip" id="clip07758fx"><rect x="50" y="0" width="1020" height="317"/></clipPath><clipPath class="axesclip" id="clip07758fy"><rect x="0" y="60" width="1238" height="207"/></clipPath><clipPath class="axesclip" id="clip07758fxy"><rect x="50" y="60" width="1020" height="207"/></clipPath></g><g class="gradients"/><g class="patterns"/></defs><g class="bglayer"><rect class="bg" x="50" y="60" width="1020" height="207" style="fill: rgb(229, 236, 246); fill-opacity: 1; stroke-width: 0;"/></g><g class="layer-below"><g class="imagelayer"/><g class="shapelayer"/></g><g class="cartesianlayer"><g class="subplot xy"><g class="layer-subplot"><g class="shapelayer"/><g class="imagelayer"/></g><g class="gridlayer"><g class="x"><path class="xgrid crisp" transform="translate(122.1,0)" d="M0,60v207" style="stroke: rgb(255, 255, 255); stroke-opacity: 1; stroke-width: 1px;"/><path class="xgrid crisp" transform="translate(298.99,0)" d="M0,60v207" style="stroke: rgb(255, 255, 255); stroke-opacity: 1; stroke-width: 1px;"/><path class="xgrid crisp" transform="translate(473,0)" d="M0,60v207" style="stroke: rgb(255, 255, 255); stroke-opacity: 1; stroke-width: 1px;"/><path class="xgrid crisp" transform="translate(649.89,0)" d="M0,60v207" style="stroke: rgb(255, 255, 255); stroke-opacity: 1; stroke-width: 1px;"/><path class="xgrid crisp" transform="translate(824.85,0)" d="M0,60v207" style="stroke: rgb(255, 255, 255); stroke-opacity: 1; stroke-width: 1px;"/><path class="xgrid crisp" transform="translate(1001.74,0)" d="M0,60v207" style="stroke: rgb(255, 255, 255); stroke-opacity: 1; stroke-width: 1px;"/></g><g class="y"><path class="ygrid crisp" transform="translate(0,257.07)" d="M50,0h1020" style="stroke: rgb(255, 255, 255); stroke-opacity: 1; stroke-width: 1px;"/><path class="ygrid crisp" transform="translate(0,215.97)" d="M50,0h1020" style="stroke: rgb(255, 255, 255); stroke-opacity: 1; stroke-width: 1px;"/><path class="ygrid crisp" transform="translate(0,174.86)" d="M50,0h1020" style="stroke: rgb(255, 255, 255); stroke-opacity: 1; stroke-width: 1px;"/><path class="ygrid crisp" transform="translate(0,133.76)" d="M50,0h1020" style="stroke: rgb(255, 255, 255); stroke-opacity: 1; stroke-width: 1px;"/><path class="ygrid crisp" transform="translate(0,92.65)" d="M50,0h1020" style="stroke: rgb(255, 255, 255); stroke-opacity: 1; stroke-width: 1px;"/></g></g><g class="zerolinelayer"/><path class="xlines-below"/><path class="ylines-below"/><g class="overlines-below"/><g class="xaxislayer-below"/><g class="yaxislayer-below"/><g class="overaxes-below"/><g class="plot" transform="translate(50,60)" clip-path="url(#clip07758fxyplot)"><g class="scatterlayer mlayer"><g class="trace scatter trace503de5" style="stroke-miterlimit: 2; opacity: 1;"><g class="fills"/><g class="errorbars"/><g class="lines"><path class="js-line" d="M0,92.79L0.96,90.44L1.92,90.24L3.85,88.62L6.73,88.69L7.69,88.78L8.65,87.08L9.61,86.4L10.57,87L13.46,87.31L14.42,86.4L15.38,87.74L16.34,87.51L17.3,85.66L20.19,84.33L21.15,83.93L22.11,84.35L24.03,87.35L26.92,84.84L27.88,84.51L28.84,87.21L30.76,88.64L33.65,88.98L34.61,88.99L35.57,87.47L37.49,85.14L41.34,88.54L43.26,86.03L44.22,86.29L47.11,89.56L48.07,88.55L49.03,89.95L49.99,88.83L54.8,92.15L55.76,90.58L56.72,88.44L57.68,88.16L60.57,89.62L61.53,88.98L62.49,87.64L63.45,89.09L67.3,89.52L68.26,91.41L69.22,91.37L70.18,87.52L71.14,88.55L74.02,86.91L75.95,88.36L76.91,86.04L77.87,88.68L80.75,87.89L81.72,87.53L82.68,89.5L84.6,93.11L87.48,92.95L88.44,92.01L89.41,89.25L91.33,89.91L94.21,87.84L97.1,86.95L98.06,85.17L100.94,85.77L101.9,86.86L102.87,84.84L103.83,84.71L104.79,84.81L107.67,85.88L108.63,85.41L109.59,85.94L110.56,84.79L111.52,84.97L114.4,84.61L115.36,82.62L116.32,81.42L117.29,81.94L118.25,80.4L121.13,80.66L122.09,80.44L123.05,81.38L124.98,79.57L127.86,79.1L129.78,77.98L130.74,78.18L131.71,77.16L135.55,77.93L137.47,80.62L138.44,79.84L145.16,77.62L148.05,77.79L149.01,78.05L149.97,77.16L151.89,78.54L154.78,78.02L156.7,76.23L157.66,76.17L158.62,76.73L161.51,77.5L162.47,76.95L163.43,74.57L168.24,75.48L169.2,75.76L175.93,73.92L176.89,70.97L178.81,65.4L181.7,62.82L182.66,63.48L183.62,62.44L184.58,62.27L185.54,63.7L189.39,65.41L190.35,66.32L191.31,65.66L192.27,66.09L196.12,63.68L197.08,63.96L199,67.04L201.89,67.54L205.73,62.47L208.61,63.08L209.58,63.42L210.54,62.85L215.34,66.46L216.31,65.54L217.27,63.95L218.23,64.14L219.19,64.88L222.07,62.91L224,61.08L224.96,60.61L228.8,60.89L229.76,61.05L230.73,61.2L231.69,59.78L232.65,59.46L235.53,59.55L236.49,58.92L237.46,59.55L239.38,62L243.22,61.44L245.15,59.49L246.11,60.63L250.91,59.79L251.88,58.83L252.84,60.83L255.72,59.93L257.64,59.4L258.61,57.88L259.57,57.24L263.41,56.76L266.3,56.16L269.18,57.49L270.14,57.26L271.1,56.07L273.03,58.65L275.91,58.31L276.87,58.62L277.83,57.9L278.79,56.93L279.75,57.16L283.6,58.35L284.56,58.63L286.48,60.09L289.37,60.37L291.29,58.31L292.25,58.38L298.02,59.32L298.98,59.89L299.94,60.38L302.83,59.8L303.79,67.91L304.75,66.1L305.71,67.02L306.67,69.77L309.56,70.11L310.52,67.8L311.48,68.04L312.44,67.02L313.4,65.9L316.29,65.54L317.25,69.33L318.21,68.5L323.02,66.48L323.98,65.17L325.9,62.16L326.86,62.88L329.75,63.24L330.71,64.25L331.67,65.16L332.63,64.01L333.59,63.99L336.48,62.66L338.4,58.92L339.36,58.23L344.17,57.54L345.13,58.78L347.05,57.28L349.93,55.19L350.9,51.9L351.86,52.67L352.82,52.26L353.78,50.99L356.66,52.11L357.62,51.62L359.55,49.9L360.51,49.49L367.24,46.71L370.12,46.39L371.08,48.15L372.05,46.96L373.01,50.41L373.97,49.13L377.81,49.13L378.77,45.92L379.74,46.72L380.7,44.66L385.5,46.06L386.47,47.44L387.43,46.32L391.27,45.37L392.23,43L393.2,43.33L394.16,42.83L397.04,42.5L398.96,46.06L399.92,50.01L400.89,47.85L403.77,47.82L404.73,50.11L405.69,47.46L407.62,45.26L410.5,46.19L411.46,46.29L412.42,47.78L413.38,46.56L414.34,50.44L418.19,48.77L419.15,47.46L421.07,47.81L423.96,46.03L424.92,45.04L426.84,44.91L430.69,43.74L431.65,46.66L432.61,45.17L433.57,41.49L437.42,39.47L438.38,41.64L439.34,42.07L440.3,39.99L441.26,42.63L444.15,40.62L445.11,43.35L446.07,42.17L447.99,49.3L450.88,48.44L451.84,50.05L452.8,46.56L453.76,45.07L454.72,48.26L459.53,40.01L460.49,45.16L461.45,44.85L464.34,45.4L466.26,49.95L467.22,49.79L468.18,45.89L471.07,46.52L472.03,47.5L472.99,45.71L473.95,45L474.91,42.71L477.79,43.46L478.76,46.66L479.72,43.5L480.68,44.45L481.64,42.61L485.49,40.71L486.45,42.94L487.41,41.47L488.37,43.67L491.25,43.33L493.18,38.59L494.14,37.27L495.1,36.51L497.98,38.34L499.91,31.59L500.87,31.89L501.83,30.57L504.71,30.45L505.67,30.69L506.64,28.98L508.56,28.14L511.44,25.32L514.33,26.39L515.29,25.28L518.17,26.05L519.13,24.87L521.06,25.63L522.02,24.88L525.86,26.34L526.82,25.73L527.79,25.35L528.75,30.8L534.51,27.58L535.48,25.67L538.36,24.02L539.32,26.48L540.28,24.23L541.24,28.65L542.21,27.59L545.09,28.09L546.05,26.55L547.01,31.24L547.97,29.04L548.93,31.99L551.82,32.04L552.78,26.5L553.74,27.65L554.7,26.34L555.66,22.21L558.55,23.83L559.51,22.44L560.47,25.84L562.39,23.37L565.28,26.03L567.2,18.48L568.16,17.73L569.12,19.02L572.01,19.17L572.97,18.3L573.93,15.81L574.89,14.23L575.85,14.63L578.74,13.31L579.7,16.06L580.66,13.12L581.62,12.69L582.58,15.49L585.47,18.45L588.35,16.77L589.31,12.88L592.2,12.12L594.12,12.61L595.08,15.35L596.04,14.86L600.85,21.49L601.81,21.08L602.77,23.47L605.66,20.06L606.62,21.45L607.58,18.04L608.54,16.79L609.5,22.12L612.38,19.18L613.35,22.14L614.31,23.73L615.27,27.32L616.23,31.31L620.08,36.97L622,34.59L622.96,39.01L625.84,35.62L626.8,35.96L627.77,37.43L628.73,32.97L629.69,31.12L632.57,32.11L633.53,37.92L634.5,37.86L635.46,36.3L636.42,37.01L639.3,35.39L640.26,32.36L641.23,30.38L642.19,33.74L643.15,34.07L646.99,34.2L647.95,33.59L648.92,35.12L649.88,33.07L652.76,29.41L653.72,26.82L654.68,27.6L655.65,29.03L656.61,33.66L660.45,31.78L661.41,29.59L663.34,34.92L666.22,36.26L667.18,30.92L668.14,31.15L669.1,30.3L670.07,33.9L672.95,31.98L673.91,24.69L674.87,27.05L675.83,24.44L680.64,22.4L681.6,23.01L683.52,25.08L686.41,23.45L687.37,18.98L688.33,21.28L694.1,20.48L695.06,21.17L696.02,18.75L696.98,22.31L700.83,20.42L701.79,18.51L702.75,19.26L703.71,17.31L709.48,16.8L710.44,19.03L713.33,20.73L714.29,22.55L715.25,22.46L716.21,20.72L717.17,19.11L720.06,20.45L721.02,20.18L721.98,23.22L722.94,22.7L723.9,24.53L728.71,20.53L729.67,18.66L730.63,18.01L733.52,17.52L735.44,23.53L736.4,20.42L737.36,22.28L741.21,21L742.17,21.71L743.13,18.14L744.09,18.02L746.97,20.4L747.94,20.97L748.9,20.08L749.86,16.64L750.82,23.84L753.7,22.73L754.67,20.31L755.63,22.97L756.59,21.56L757.55,21.81L760.43,24.6L761.39,25.18L762.36,28.56L763.32,27.56L764.28,30.69L768.12,29.83L769.09,27.49L771.01,38.03L773.89,36.62L775.82,37.19L776.78,35.54L780.62,35.63L781.58,32.34L782.54,34.95L783.51,33.56L784.47,34.99L787.35,33.92L789.27,29.58L790.24,32.73L794.08,34.46L795.04,30.13L796,28.08L796.97,29.83L797.93,29.02L800.81,32.66L802.73,27.57L803.69,30.43L804.66,28.83L807.54,27.59L809.46,19.66L810.42,23.7L811.39,18.67L814.27,18.11L815.23,18.16L816.19,19.19L817.15,19.26L818.11,17.51L821.96,22.16L822.92,21.69L823.88,22.23L824.84,18.24L827.73,22.61L828.69,22.7L830.61,19.33L831.57,23.82L836.38,23.89L837.34,28.43L838.3,27.93L841.19,22.15L842.15,25.5L843.11,24.11L844.07,21.36L845.03,20.89L847.92,25.78L848.88,25.13L849.84,32.63L850.8,27.03L851.76,25.78L854.65,32.82L855.61,36.98L856.57,36.52L858.49,30.09L861.38,43.15L862.34,33.33L863.3,33.86L865.22,42.37L868.11,52.34L871.95,92.53L874.84,67.59L875.8,70.21L876.76,84.82L877.72,74.72L878.68,77.78L881.56,68.39L882.53,71.62L883.49,80.91L884.45,79.14L885.41,86.33L888.29,90.63L889.26,70.97L890.22,76.62L892.14,71.61L895.02,70.57L895.98,66.07L896.95,75.32L897.91,82.48L898.87,75.88L901.75,76.68L902.71,82.11L903.68,90.12L904.64,75.87L905.6,84.69L908.48,89.1L909.44,84.92L910.41,94.97L911.37,106.69L912.33,93.57L919.06,81.14L921.94,96.62L922.9,94.36L923.86,89.46L924.83,96.33L925.79,90.08L928.67,88.26L929.63,93.2L930.59,91.79L931.56,94.67L935.4,93.25L936.36,86.61L939.25,92.1L942.13,92.84L943.09,95.06L944.05,94.42L945.98,93.01L948.86,93.64L950.78,87.66L952.7,82.49L956.55,84.62L957.51,87.35L958.47,87.97L959.43,89.98L962.32,91.89L963.28,90.71L964.24,96.44L965.2,95.61L966.16,93.73L970.01,98.37L970.97,94.5L971.93,95.99L972.89,98.46L975.78,95.86L976.74,94.33L977.7,90.5L978.66,92.93L979.62,98.2L982.51,100.89L983.47,96.69L984.43,100.28L985.39,98.6L986.35,94.37L989.24,95.71L990.2,103.84L991.16,102.29L992.12,99.06L993.08,101.69L996.93,107.25L997.89,106.22L998.85,105.4L999.81,107.58L1002.7,113.3L1003.66,108.6L1004.62,110.16L1005.58,113.75L1010.39,126.4L1011.35,121.31L1012.31,127.21L1013.27,126.08L1016.15,129.32L1017.12,122.82L1018.08,121.68L1019.04,116.89L1020,114.16" style="vector-effect: non-scaling-stroke; fill: none; stroke: rgb(99, 110, 250); stroke-opacity: 1; stroke-width: 2px; opacity: 1;"/></g><g class="points"/><g class="text"/></g><g class="trace scatter tracedea0fd" style="stroke-miterlimit: 2; opacity: 1;"><g class="fills"/><g class="errorbars"/><g class="lines"><path class="js-line" d="M0,92.79L1.92,90.16L2.88,89.21L3.85,88.2L6.73,88.22L7.69,88.35L8.65,86.56L10.57,85.73L13.46,86.31L14.42,85.44L15.38,86.84L16.34,86.6L17.3,84.99L21.15,83.31L22.11,83.83L24.03,87.23L26.92,84.84L27.88,84.33L28.84,87.22L30.76,88.72L33.65,89.04L34.61,89.07L35.57,87.81L37.49,85.62L41.34,88.96L43.26,86.09L44.22,86.19L47.11,89.61L48.07,88.66L49.03,89.96L49.99,88.13L50.95,89.05L53.84,90.41L54.8,91.66L55.76,90L57.68,87.43L60.57,88.98L62.49,86.84L63.45,88.23L67.3,88.63L68.26,90.58L69.22,90.54L70.18,86.52L71.14,87.63L74.02,86.07L75.95,87.54L76.91,84.97L77.87,87.76L80.75,86.98L81.72,86.51L82.68,88.35L84.6,91.78L87.48,91.4L88.44,90.65L89.41,87.96L91.33,88.55L94.21,86.43L96.14,85.9L97.1,85.63L98.06,83.88L100.94,84.73L101.9,85.68L102.87,83.35L104.79,82.95L107.67,84.03L108.63,83.53L109.59,84.25L111.52,82.99L114.4,83L116.32,79.71L117.29,80.16L118.25,78.77L121.13,78.96L122.09,78.62L123.05,79.52L124.02,77.98L124.98,78.11L128.82,76.63L129.78,76.28L130.74,76.47L131.71,75.46L135.55,76.28L136.51,77.55L137.47,78.77L138.44,78.13L145.16,76.17L148.05,76.35L149.01,76.52L149.97,75.65L151.89,76.24L154.78,75.89L156.7,74.22L157.66,74.28L158.62,74.85L161.51,75.41L162.47,74.72L163.43,72.3L165.35,72.6L168.24,73.27L170.16,73.32L171.12,72.96L174.97,72.46L175.93,72.29L178.81,64.44L181.7,61.89L182.66,62.6L183.62,61.62L184.58,61.41L185.54,62.6L189.39,64.71L190.35,65.57L191.31,64.81L192.27,65.25L197.08,62.94L198.04,65.69L201.89,66.38L202.85,65.07L204.77,63.13L205.73,61.32L212.46,62.95L215.34,65.34L217.27,62.64L218.23,62.83L219.19,63.58L222.07,61.81L224.96,59.8L225.92,59.7L230.73,60.36L231.69,59.12L232.65,58.6L235.53,58.56L236.49,58L237.46,58.58L239.38,60.85L243.22,60.35L245.15,58.4L246.11,59.57L251.88,58L252.84,60.03L257.64,58.64L258.61,57.12L259.57,56.71L263.41,56.42L266.3,54.96L269.18,56.61L270.14,56.32L271.1,55.19L273.03,57.94L275.91,57.68L276.87,58.38L277.83,57.53L278.79,56.55L279.75,56.85L284.56,58.36L285.52,58.89L286.48,59.6L289.37,59.92L291.29,57.52L292.25,57.58L297.06,57.8L298.02,58.68L299.94,59.45L302.83,59L303.79,67.22L304.75,64.96L305.71,65.68L306.67,68.15L309.56,68.85L310.52,66.87L311.48,67.35L312.44,65.88L313.4,64.75L316.29,64.43L317.25,68.18L318.21,67.51L319.17,66.91L320.13,67.32L323.98,64.16L324.94,61.83L325.9,61.06L326.86,61.62L330.71,63.08L331.67,63.98L333.59,62.69L336.48,61.6L338.4,58.06L339.36,57.39L344.17,56.76L345.13,57.81L347.05,56.19L349.93,54.25L350.9,51.25L351.86,51.44L353.78,49.87L356.66,51.03L357.62,51.05L358.59,49.96L367.24,46.27L370.12,46.01L371.08,47.89L372.05,46.63L373.01,50.14L373.97,48.88L377.81,48.25L378.77,44.89L379.74,45.55L380.7,43.85L385.5,44.65L386.47,45.81L387.43,44.97L391.27,43.97L392.23,41.78L393.2,42.06L394.16,41.73L397.04,41.63L398.96,44.56L399.92,48.57L400.89,46.28L403.77,46.27L404.73,48.47L405.69,45.81L407.62,44L410.5,45.23L411.46,45.36L412.42,46.99L413.38,45.97L414.34,49.79L418.19,48.23L419.15,47.09L421.07,47.28L423.96,45.27L424.92,44.49L426.84,44.58L430.69,43.46L431.65,46.66L432.61,45.07L433.57,41.1L437.42,38.91L438.38,41.33L439.34,41.87L440.3,40.55L441.26,43.08L444.15,41.06L445.11,43.86L446.07,42.9L447.99,49.69L450.88,48.71L451.84,49.86L452.8,46.47L453.76,45.29L454.72,48.45L459.53,40.11L460.49,45.18L464.34,45.79L465.3,48.8L466.26,50.27L467.22,49.79L468.18,45.56L471.07,45.9L472.03,46.7L472.99,44.75L473.95,44.06L474.91,41.92L477.79,42.84L478.76,46.23L479.72,43.29L480.68,44.29L481.64,42.6L485.49,40.84L486.45,43.14L487.41,41.71L488.37,44.03L491.25,43.62L493.18,38.64L494.14,36.95L495.1,36.06L497.98,37.63L499.91,30.77L500.87,30.93L501.83,29.52L504.71,29.33L505.67,29.54L506.64,27.72L508.56,26.94L511.44,23.98L513.36,25.15L514.33,24.68L515.29,23.66L518.17,24.66L519.13,23.3L520.09,23.66L521.06,24.5L522.02,23.83L525.86,25.82L526.82,24.87L527.79,24.39L528.75,29.93L531.63,28.89L532.59,27.64L534.51,27.01L535.48,25.45L538.36,23.79L539.32,26.78L540.28,24.72L541.24,29.56L542.21,28.48L545.09,28.6L546.05,26.85L547.01,31.89L547.97,29.02L548.93,30.97L551.82,31.02L552.78,26.12L553.74,27.07L554.7,26.34L555.66,22.2L558.55,23.45L559.51,22.42L560.47,26.32L562.39,23.72L565.28,26.38L567.2,18.86L568.16,17.99L569.12,18.64L572.01,19.06L572.97,18.52L573.93,16.01L574.89,14.29L575.85,14.26L578.74,12.95L579.7,15.69L580.66,13.01L581.62,12.78L582.58,15.51L585.47,18.55L588.35,17.61L589.31,13.68L592.2,12.92L594.12,13.31L595.08,15.93L596.04,15.52L600.85,21.97L601.81,21.49L602.77,23.45L605.66,19.84L606.62,20.98L607.58,17.89L608.54,16.71L609.5,22.36L612.38,20.14L613.35,23.36L614.31,24.69L615.27,28.97L616.23,33.92L620.08,39.43L622,37.69L622.96,41.78L626.8,38.47L627.77,39.92L629.69,33.82L632.57,34.59L633.53,40.37L634.5,40.3L635.46,38.58L636.42,39.92L639.3,39.06L640.26,35.83L641.23,33.93L642.19,36.94L643.15,37.28L646.99,37.61L647.95,37.54L648.92,39L649.88,36.69L652.76,33.15L653.72,31.17L654.68,32.48L655.65,33.68L656.61,38.51L660.45,37.48L661.41,35.24L663.34,41L666.22,42.46L667.18,37.37L668.14,37.88L669.1,36.84L670.07,40.42L672.95,38.63L673.91,31.39L674.87,34.04L675.83,31.3L680.64,28.7L681.6,29.46L683.52,31.24L686.41,29.56L687.37,24.58L688.33,26.57L690.25,27.02L693.14,26.19L694.1,26.45L695.06,27.56L696.02,25.59L696.98,28.88L700.83,27.48L701.79,25.84L702.75,27.03L703.71,24.88L706.6,24.74L707.56,25.45L709.48,24.73L710.44,26.45L713.33,27.75L714.29,29.76L715.25,29.3L716.21,27.47L717.17,25.68L720.06,27.08L721.02,26.9L721.98,30.86L722.94,30.42L723.9,32.96L728.71,29.25L729.67,27.51L730.63,26.71L733.52,25.83L735.44,32.28L736.4,29.38L737.36,31.48L741.21,30.67L742.17,31.71L743.13,28.05L744.09,27.68L746.97,30.05L747.94,30.85L748.9,30.01L749.86,26.63L750.82,33.84L753.7,32.94L754.67,30.8L755.63,33.31L756.59,32L757.55,32.14L760.43,35.2L761.39,35.97L762.36,39.19L763.32,37.97L764.28,41.32L768.12,41.15L769.09,39.3L771.01,49.89L773.89,48.31L775.82,48.4L776.78,46.74L780.62,47.09L781.58,43.53L782.54,45.84L783.51,45.14L784.47,46.82L787.35,45.86L788.31,44.99L789.27,42.38L791.2,45.08L794.08,46.09L796,39.29L796.97,41.76L797.93,41.05L800.81,45.19L802.73,39.53L803.69,42.76L804.66,41.05L807.54,39.87L808.5,33L809.46,32.05L810.42,36.83L811.39,31.07L815.23,30.57L816.19,32.23L817.15,32.12L818.11,30.02L821,32.85L821.96,35.06L822.92,34.6L823.88,35.41L824.84,31.48L827.73,36.1L828.69,36.03L829.65,34.63L830.61,31.91L831.57,35.86L836.38,34.54L837.34,39.47L838.3,38.53L841.19,32.91L842.15,36.97L843.11,36.88L844.07,34.34L845.03,36.09L848.88,46.73L849.84,56.6L851.76,47.45L854.65,53.14L856.57,58.51L857.53,55.03L858.49,53.32L861.38,66.17L862.34,55.79L863.3,54.31L868.11,70.59L869.07,80.31L870.03,85.23L870.99,103.39L871.95,108.77L874.84,85.84L875.8,87.48L876.76,101.95L877.72,92.94L878.68,96.16L881.56,86.89L882.53,89.6L883.49,98.29L884.45,95.72L885.41,103.37L888.29,107.34L889.26,88.09L890.22,94.78L892.14,89.66L895.02,88.05L895.98,83.08L896.95,92.25L897.91,99.05L898.87,92.33L901.75,92.03L902.71,97.25L903.68,104.98L904.64,91.94L905.6,99.55L908.48,103.54L909.44,99.97L910.41,109.92L911.37,120.79L912.33,108.34L916.17,102.69L917.13,98.9L919.06,96.07L921.94,110.93L922.9,108.56L923.86,103.77L924.83,110.18L925.79,104.77L928.67,104L929.63,108.66L930.59,107.9L931.56,110.29L932.52,109.7L935.4,109.31L936.36,103.22L937.32,105.32L939.25,108.11L942.13,108.4L943.09,110.64L944.05,109.89L945.98,108.66L948.86,109.32L950.78,103.92L952.7,99.21L956.55,101.91L957.51,104.39L958.47,104.66L959.43,106.12L962.32,108.13L963.28,107.26L964.24,112.62L965.2,112.53L966.16,110.66L970.01,114.47L970.97,111.88L971.93,113.2L972.89,115.32L975.78,113.52L976.74,112.01L977.7,108.51L978.66,110.65L979.62,115.8L982.51,118.61L983.47,115.49L984.43,119.03L985.39,117.54L986.35,114.11L989.24,115.29L990.2,123.15L991.16,121.99L992.12,119.86L993.08,122.28L996.93,127.71L997.89,127.2L998.85,127.14L999.81,129.38L1002.7,134.31L1003.66,131.1L1004.62,131.93L1005.58,135.03L1006.54,138.61L1009.43,145.52L1010.39,147.23L1011.35,142.73L1012.31,148.61L1013.27,147.49L1016.15,150.22L1017.12,143.93L1018.08,143.29L1019.04,139.18L1020,135.73" style="vector-effect: non-scaling-stroke; fill: none; stroke: rgb(239, 85, 59); stroke-opacity: 1; stroke-width: 2px; opacity: 1;"/></g><g class="points"/><g class="text"/></g><g class="trace scatter traceb39d42" style="stroke-miterlimit: 2; opacity: 1;"><g class="fills"/><g class="errorbars"/><g class="lines"><path class="js-line" d="M0,92.79L0.96,90.53L1.92,90.32L3.85,88.32L6.73,88.14L7.69,88.27L8.65,86.5L10.57,85.38L13.46,86.11L14.42,85.33L15.38,86.55L16.34,86.34L17.3,84.91L21.15,83.47L22.11,84.09L24.03,87.77L26.92,85.34L27.88,84.72L28.84,87.72L30.76,89.19L33.65,89.51L34.61,89.55L35.57,88.29L37.49,86.06L41.34,89.33L43.26,86.13L44.22,86.19L47.11,89.56L48.07,88.55L49.03,89.81L49.99,87.79L50.95,88.84L53.84,90.02L54.8,91.26L55.76,89.64L57.68,87.04L60.57,88.42L62.49,86.31L63.45,87.72L67.3,88.24L68.26,90.08L69.22,90.03L70.18,86.04L71.14,87.06L74.02,85.59L75.95,87L76.91,84.15L77.87,86.95L80.75,86.32L81.72,85.93L82.68,87.72L84.6,90.93L87.48,90.36L88.44,89.8L89.41,87.15L91.33,87.39L94.21,85.3L96.14,84.69L97.1,84.21L98.06,82.31L100.94,83.29L101.9,84.2L102.87,81.74L104.79,81.07L107.67,82.19L108.63,81.66L109.59,82.67L111.52,81.02L114.4,81.12L116.32,77.86L117.29,78.13L118.25,76.54L121.13,76.75L122.09,76.58L123.05,77.41L124.02,75.84L124.98,76.05L130.74,74.3L131.71,73.21L135.55,74.14L136.51,75.3L137.47,76.49L138.44,75.66L145.16,73.5L148.05,73.72L149.01,73.83L149.97,72.9L154.78,73.16L155.74,72.14L157.66,71.86L158.62,72.37L161.51,72.85L162.47,72.08L163.43,69.67L164.39,69.67L169.2,70.77L170.16,70.25L172.08,69.84L174.97,69.56L175.93,69.24L176.89,66.9L178.81,62.11L181.7,59.58L182.66,60.31L183.62,59.3L184.58,58.97L185.54,60.16L189.39,62.39L190.35,63.28L191.31,62.42L192.27,62.98L196.12,60.61L197.08,60.68L198.04,63.81L199,63.91L201.89,64.14L202.85,62.82L204.77,61.01L205.73,58.94L210.54,59.64L212.46,60.81L215.34,63.07L216.31,62.12L217.27,60.29L218.23,60.49L219.19,61.23L222.07,59.51L225.92,58.02L228.8,58.03L230.73,58.5L231.69,57.18L232.65,56.65L235.53,56.42L236.49,55.96L237.46,56.59L239.38,58.68L243.22,58.16L245.15,56.07L246.11,57.15L251.88,55.67L252.84,57.76L257.64,56.38L258.61,54.71L259.57,54.4L263.41,54.11L266.3,52.37L269.18,54.08L270.14,53.94L271.1,52.57L273.03,55.47L275.91,55.19L276.87,56.02L277.83,55.08L278.79,54.2L279.75,54.61L283.6,55.92L284.56,56.21L286.48,57.46L289.37,57.8L291.29,55.17L292.25,55.27L297.06,55.36L298.02,56.28L299.94,57.04L302.83,56.6L303.79,64.88L304.75,62.54L305.71,63.19L306.67,65.29L309.56,66.47L310.52,64.62L311.48,65.14L312.44,63.48L313.4,62.41L316.29,62.23L317.25,66.04L318.21,65.51L319.17,64.94L320.13,65.39L323.98,62L324.94,59.77L325.9,59.07L326.86,59.65L330.71,61.13L331.67,61.98L333.59,60.47L336.48,59.42L338.4,55.93L339.36,55.17L344.17,54.81L345.13,55.78L349.93,52.2L350.9,49.44L352.82,48.95L353.78,47.8L357.62,49.28L358.59,48.29L365.32,45.86L366.28,45.33L367.24,44.83L370.12,44.66L371.08,46.52L372.05,45.22L373.01,48.74L373.97,47.42L377.81,46.5L378.77,43.02L379.74,43.57L380.7,42.09L385.5,42.25L386.47,43.41L387.43,42.81L391.27,41.99L392.23,40.13L393.2,40.3L394.16,39.86L397.04,39.63L398.96,42.39L399.92,46.54L400.89,44.18L403.77,44.19L404.73,46.34L405.69,43.56L407.62,41.87L410.5,43.28L411.46,43.34L412.42,45.37L413.38,44.61L414.34,48.53L418.19,46.72L419.15,45.69L421.07,45.66L423.96,43.55L424.92,42.99L426.84,43.14L430.69,42.04L431.65,45.56L432.61,43.83L433.57,39.73L437.42,37.92L438.38,40.3L439.34,41.16L440.3,40.12L441.26,42.75L444.15,40.82L445.11,43.81L446.07,43.13L447.99,50.09L450.88,49.02L451.84,49.91L452.8,46.82L453.76,45.8L454.72,49.2L458.57,42.3L459.53,40.58L460.49,46.16L461.45,46.25L464.34,46.64L465.3,49.76L466.26,51.18L467.22,50.33L468.18,46.06L471.07,46.44L472.03,46.94L472.99,44.63L473.95,43.88L474.91,41.79L477.79,42.74L478.76,46.34L479.72,43.19L480.68,44.37L481.64,42.78L485.49,41.16L486.45,43.6L487.41,42.54L488.37,45.11L491.25,44.66L493.18,39.92L494.14,37.87L495.1,37.16L497.98,38.43L499.91,31.33L500.87,31.41L501.83,30.04L504.71,29.95L505.67,30.3L506.64,28.42L511.44,24.71L512.4,25.05L513.36,25.55L514.33,25.15L515.29,24.03L518.17,25.03L519.13,23.55L520.09,24.16L521.06,24.83L522.02,24.21L525.86,26.54L526.82,25.81L527.79,25.54L528.75,31.11L531.63,30.23L532.59,28.88L534.51,29.08L535.48,27.39L538.36,25.66L539.32,28.52L540.28,26.53L541.24,31.77L542.21,30.7L545.09,30.71L546.05,28.87L547.01,34.34L547.97,31.74L548.93,33.05L551.82,32.8L552.78,27.9L553.74,29.04L554.7,28.93L555.66,24.99L558.55,26.34L559.51,25.6L560.47,29.95L562.39,27.24L565.28,30.08L568.16,21.02L569.12,21.05L572.97,21.49L573.93,18.72L574.89,16.67L575.85,16.73L578.74,15.48L579.7,17.95L580.66,15.41L581.62,15.36L582.58,18.21L585.47,21.03L586.43,20.34L587.39,20.75L588.35,20.18L589.31,16.13L592.2,15.27L594.12,15.6L595.08,18.25L596.04,17.85L598.93,20.95L600.85,24.37L601.81,23.92L602.77,25.98L605.66,22.14L606.62,23.48L608.54,19.45L609.5,24.72L612.38,22.84L613.35,26.1L614.31,27.01L615.27,31.74L616.23,37.06L620.08,41.87L622,40.52L622.96,44.45L626.8,40.42L627.77,42.02L629.69,36.23L632.57,36.92L633.53,42.78L634.5,42.93L635.46,41.26L636.42,43.27L639.3,43.51L640.26,40.18L641.23,38.05L642.19,40.88L643.15,41.18L646.99,41.47L647.95,41.79L648.92,43.05L649.88,40.57L652.76,37.06L653.72,35.43L654.68,37.01L655.65,38.26L656.61,43.33L660.45,42.67L661.41,40.53L663.34,46.34L666.22,47.78L667.18,42.45L668.14,43.36L669.1,42.39L670.07,45.96L672.95,44.3L673.91,36.88L674.87,40.05L675.83,37.12L680.64,34.14L681.6,35.19L683.52,36.86L686.41,35.19L687.37,29.67L688.33,31.5L690.25,32.09L693.14,31.07L694.1,31.69L695.06,33.46L696.02,31.54L696.98,34.84L699.87,34.6L700.83,33.68L701.79,31.95L702.75,32.84L703.71,30.18L706.6,30.37L707.56,31.06L708.52,30.44L709.48,29.78L710.44,31.43L713.33,32.74L714.29,34.88L715.25,34.68L716.21,32.24L717.17,30.22L720.06,31.69L721.02,31.46L721.98,35.74L722.94,35.11L723.9,38.38L728.71,34.59L729.67,32.99L730.63,32.23L733.52,31.47L735.44,38.11L736.4,35.51L737.36,38.14L741.21,37.37L742.17,38.35L743.13,34.53L744.09,34.03L746.97,36.42L747.94,37.1L748.9,36.47L749.86,33.01L750.82,40.39L753.7,39.86L754.67,38.35L755.63,41.1L756.59,39.57L757.55,39.01L760.43,41.92L761.39,43.09L762.36,46.29L763.32,44.88L764.28,48.55L768.12,48.71L769.09,46.91L771.01,57.43L773.89,55.86L774.85,55.5L775.82,56.01L776.78,54.53L780.62,54.7L781.58,50.56L782.54,53.01L783.51,52.57L784.47,54.57L788.31,54.25L789.27,51.05L791.2,52.55L794.08,53.28L796,46L796.97,49.17L797.93,48.55L800.81,53.31L802.73,47.06L803.69,50.7L804.66,49.36L807.54,48.24L808.5,40.83L809.46,40.42L810.42,46.22L811.39,40.42L814.27,39.17L815.23,39.82L816.19,42.08L817.15,41.74L818.11,39.49L821,42.45L821.96,45.19L822.92,44.72L823.88,45.61L824.84,42.04L827.73,46.72L828.69,46.34L829.65,44.95L830.61,41.26L831.57,44.68L835.42,42.49L836.38,42.34L837.34,47.83L838.3,46.5L841.19,41.04L842.15,46.46L843.11,47.13L844.07,44.75L845.03,49.11L848.88,67.26L849.84,79.62L851.76,67.45L854.65,71.45L856.57,78.21L857.53,75.51L858.49,73.79L861.38,87.29L863.3,74.14L864.26,77.07L868.11,88.46L869.07,97.87L870.03,102.48L870.99,120.15L871.95,124.46L874.84,103.08L875.8,103.08L876.76,118.04L877.72,109.7L878.68,112.94L881.56,104.06L882.53,107.12L883.49,115.29L884.45,111.87L885.41,119.77L888.29,124.28L889.26,105.86L890.22,113.01L892.14,107.9L895.02,106.05L895.98,100.87L896.95,110.23L897.91,117.09L898.87,110.38L901.75,109.42L902.71,113.82L903.68,121.62L904.64,109.79L905.6,116.49L908.48,120.41L909.44,116.72L910.41,126.79L911.37,137.22L912.33,125.79L916.17,120.31L917.13,116.51L919.06,114.03L921.94,128.15L923.86,120.74L924.83,126.57L925.79,121.74L928.67,121.19L929.63,125.26L930.59,125.33L931.56,127.17L932.52,126.51L935.4,126.66L936.36,121.52L939.25,125.54L942.13,125.71L943.09,127.78L944.05,127.03L945.98,126.04L948.86,126.71L950.78,122.03L952.7,117.59L956.55,120.15L957.51,122.76L959.43,124.08L962.32,125.97L963.28,125.02L964.24,129.76L965.2,130.2L966.16,128.46L970.01,131.64L970.97,129.67L972.89,132.69L975.78,131.66L976.74,130.08L977.7,126.95L978.66,129.18L979.62,133.72L982.51,136.06L983.47,134.03L984.43,137.42L985.39,136.28L986.35,133.15L989.24,133.91L990.2,141.35L991.16,140.34L992.12,139.54L993.08,142.08L996.93,147.15L997.89,147.1L998.85,148L999.81,150.2L1002.7,154.55L1003.66,152.85L1004.62,152.89L1005.58,155.05L1006.54,159.22L1009.43,165.09L1010.39,166.38L1011.35,162.45L1012.31,167.86L1013.27,167.12L1016.15,169.54L1017.12,163.18L1018.08,162.99L1019.04,159.47L1020,155.51" style="vector-effect: non-scaling-stroke; fill: none; stroke: rgb(0, 204, 150); stroke-opacity: 1; stroke-width: 2px; opacity: 1;"/></g><g class="points"/><g class="text"/></g><g class="trace scatter trace65a80a" style="stroke-miterlimit: 2; opacity: 1;"><g class="fills"/><g class="errorbars"/><g class="lines"><path class="js-line" d="M0,92.79L0.96,90.34L1.92,90.15L3.85,87.98L6.73,87.48L7.69,87.66L8.65,85.99L10.57,84.75L13.46,85.57L14.42,84.75L15.38,85.78L16.34,85.45L17.3,83.96L21.15,82.61L22.11,83.27L24.03,87.35L26.92,84.84L27.88,84.21L28.84,87.52L29.8,88.91L30.76,88.74L34.61,89.02L35.57,87.74L37.49,85.35L41.34,88.64L43.26,85.41L44.22,85.45L47.11,88.75L48.07,88.05L49.03,89.38L49.99,87.54L50.95,88.6L53.84,89.67L54.8,90.68L55.76,89.2L57.68,86.49L60.57,87.65L62.49,85.82L63.45,87.04L64.41,87.39L67.3,87.49L68.26,89.23L69.22,88.92L70.18,85.26L71.14,86.34L74.02,84.91L75.95,86.3L76.91,83.01L77.87,86.04L81.72,85.41L82.68,87.12L84.6,90.54L87.48,90.2L88.44,89.36L89.41,86.63L91.33,86.55L94.21,84.32L96.14,83.69L97.1,83.18L98.06,81.17L100.94,82.3L101.9,83.15L102.87,80.93L104.79,80.11L107.67,81.27L108.63,80.75L109.59,81.99L111.52,80.17L114.4,80.19L116.32,76.89L117.29,76.91L118.25,75.07L121.13,75.36L122.09,75.31L123.05,76.03L124.02,74.76L124.98,74.97L131.71,71.92L135.55,72.97L137.47,75.35L138.44,74.36L145.16,71.43L148.05,71.84L149.01,72.04L149.97,70.94L151.89,71.26L154.78,71.81L156.7,70.52L157.66,70.78L158.62,71.28L161.51,71.78L162.47,70.96L163.43,68.47L165.35,68.6L168.24,69.03L169.2,69.39L170.16,68.81L172.08,68.26L174.97,68.2L175.93,68.03L176.89,66.01L178.81,61.39L181.7,58.91L182.66,59.68L183.62,58.73L184.58,58.49L185.54,59.5L189.39,61.3L190.35,62.2L191.31,61.48L192.27,62L197.08,59.33L198.04,62.51L201.89,62.42L202.85,61.04L204.77,59.01L205.73,56.69L210.54,57.69L212.46,58.83L215.34,61L216.31,60.22L217.27,58.35L218.23,58.36L219.19,59.22L222.07,57.71L224.96,56.62L225.92,56.59L230.73,56.63L231.69,55.36L232.65,54.84L235.53,54.47L237.46,54.75L238.42,55.38L239.38,56.63L243.22,56.02L245.15,54.11L246.11,55.07L251.88,53.59L252.84,55.71L256.68,55.16L257.64,54.14L259.57,52.32L263.41,51.96L266.3,50.77L269.18,52.56L270.14,52.44L271.1,50.75L273.03,53.5L275.91,53.33L276.87,54.55L277.83,53.49L278.79,52.64L279.75,53.14L283.6,54.29L284.56,54.57L286.48,55.92L289.37,56.25L291.29,53.4L292.25,53.41L297.06,53.57L298.02,54.58L299.94,55.57L302.83,55.08L303.79,63.33L304.75,60.9L305.71,61.5L306.67,63.24L309.56,64.55L310.52,62.4L311.48,62.87L312.44,61.1L313.4,60.13L316.29,59.84L317.25,63.57L318.21,63.1L319.17,62.46L320.13,62.99L323.98,59.47L324.94,57.21L325.9,56.6L326.86,57.31L330.71,58.71L331.67,59.55L333.59,58L336.48,56.65L338.4,53.06L339.36,52.43L344.17,52.3L345.13,53.55L347.05,52.06L349.93,50.25L350.9,47.79L351.86,47.59L353.78,45.62L356.66,46.82L357.62,47.14L358.59,46.03L364.35,44.23L365.32,43.74L367.24,42.59L370.12,42.08L371.08,43.78L372.05,42.64L373.01,46.02L373.97,44.54L377.81,43.55L378.77,40.29L379.74,40.74L380.7,39.42L385.5,39.38L386.47,40.52L387.43,39.69L391.27,38.96L392.23,37.11L393.2,37.22L394.16,36.79L397.04,36.6L398.96,39.64L399.92,44L400.89,41.57L403.77,41.75L404.73,44.02L405.69,40.84L407.62,39.15L410.5,40.57L411.46,40.72L412.42,42.99L413.38,42.15L414.34,46.02L418.19,44.25L419.15,42.96L421.07,42.62L423.96,40.46L424.92,39.97L426.84,40.14L430.69,39.04L431.65,42.72L432.61,41.05L433.57,36.82L437.42,35.24L438.38,37.23L439.34,38.3L440.3,37.37L441.26,40.1L444.15,38.21L445.11,41.42L446.07,40.37L447.99,47.68L450.88,46.33L451.84,47.62L452.8,44.63L453.76,43.67L454.72,47.52L458.57,40.17L459.53,38.32L460.49,44.38L461.45,44.8L464.34,44.96L465.3,48.14L466.26,49.75L467.22,48.98L468.18,43.99L471.07,44.47L472.03,44.87L472.99,42.24L473.95,41.63L474.91,39.56L477.79,40.29L478.76,44.37L479.72,40.88L480.68,42.05L481.64,40.41L485.49,38.98L486.45,41.68L487.41,40.83L488.37,43.91L491.25,43.69L493.18,39.04L494.14,37.44L495.1,37.03L497.98,38.2L499.91,30.67L500.87,30.75L501.83,29.47L504.71,29.57L505.67,29.53L506.64,27.7L511.44,24.06L512.4,24.34L513.36,24.96L514.33,24.61L515.29,23.37L518.17,24.45L519.13,22.9L520.09,23.83L521.06,24.75L522.02,24.05L525.86,26.42L526.82,25.81L527.79,25.69L528.75,31.79L531.63,30.76L532.59,29.25L534.51,30.07L535.48,28.23L538.36,26.59L539.32,29.06L540.28,27.23L541.24,33.27L542.21,32.3L545.09,32.32L546.05,30.16L547.01,36.26L547.97,34.36L548.93,35.92L551.82,35.95L552.78,30.6L554.7,32.76L555.66,29.45L558.55,31.45L559.51,30.74L560.47,35.41L562.39,32.44L565.28,35.82L566.24,31.43L568.16,25.38L569.12,24.99L572.97,26.6L573.93,23.14L574.89,20.62L575.85,20.6L578.74,19.74L579.7,22.74L580.66,19.97L581.62,19.88L582.58,22.96L585.47,25.71L586.43,24.81L587.39,25.2L588.35,24.64L589.31,20.39L592.2,19.31L594.12,19.55L595.08,22.49L596.04,22.26L598.93,25.08L600.85,28.94L601.81,28.19L602.77,30.54L605.66,26.9L606.62,28.59L608.54,24.52L609.5,29.21L612.38,27.32L613.35,30.87L614.31,31.29L615.27,36.64L616.23,41.96L620.08,46.23L622,44.01L622.96,48.11L626.8,42.26L627.77,44L629.69,38.94L632.57,39.87L633.53,46.22L634.5,46.69L635.46,45.16L636.42,47.64L639.3,49L640.26,45.69L641.23,43.41L642.19,46.09L647.95,47.17L648.92,48.27L649.88,45.77L652.76,42.19L653.72,40.59L654.68,41.64L655.65,43.34L656.61,48.85L660.45,48.42L661.41,46.57L663.34,52.38L666.22,54.22L667.18,48.5L668.14,49.72L669.1,49.28L670.07,53.18L672.95,52.08L673.91,44.06L674.87,47.71L675.83,44.47L680.64,41.13L681.6,42.56L683.52,44.4L686.41,43.05L687.37,37.08L688.33,38.92L690.25,39.58L693.14,38.44L695.06,41.75L696.02,39.53L696.98,43.58L699.87,43.56L701.79,40.47L702.75,41.02L703.71,37.98L706.6,38.53L707.56,39.65L708.52,38.97L709.48,37.56L710.44,39.51L713.33,41.15L714.29,43.6L715.25,43.84L716.21,40.71L717.17,38.79L720.06,40.33L721.02,39.87L721.98,44.4L722.94,43.8L723.9,47.81L727.75,45.14L728.71,43.79L730.63,41.56L733.52,40.74L735.44,47.7L736.4,44.99L737.36,47.91L741.21,47.06L742.17,48.33L743.13,44.97L744.09,44.69L746.97,47.18L747.94,47.99L748.9,47.55L749.86,44.39L750.82,52.44L753.7,52.61L754.67,51.18L755.63,54.26L756.59,52.58L757.55,51.76L760.43,54.57L762.36,59.22L763.32,57.56L764.28,61.18L767.16,61.87L768.12,61.93L769.09,60.63L771.01,71.41L773.89,70.31L774.85,70.41L775.82,71.43L776.78,70.08L780.62,70L781.58,65.35L782.54,68.57L783.51,68.57L784.47,70.76L787.35,70.98L788.31,72.31L789.27,68.19L790.24,67.97L794.08,68.77L795.04,64.45L796,60.25L796.97,64.52L797.93,63.92L800.81,69.56L802.73,62.85L803.69,67.13L804.66,65.69L807.54,64.63L808.5,56.72L809.46,56.8L810.42,63.81L811.39,58.14L814.27,56.86L815.23,57.88L816.19,60.34L817.15,59.84L818.11,57.64L821,61.02L821.96,64.32L822.92,63.94L823.88,65.14L824.84,61.87L827.73,66.51L828.69,65.88L829.65,64.57L830.61,60.16L831.57,63.08L835.42,60.83L836.38,60.2L837.34,65.96L841.19,59.14L842.15,65.94L843.11,67.45L844.07,65.06L848.88,96.77L849.84,111.91L851.76,96.89L854.65,99.17L855.61,101.15L856.57,107.23L858.49,103.14L861.38,116.85L863.3,102.9L864.26,105.53L868.11,114.9L869.07,123.87L870.03,128.72L870.99,145.43L871.95,148.96L874.84,129.77L875.8,129.49L876.76,143.01L877.72,135.8L878.68,139.2L881.56,131.23L882.53,134.42L883.49,141.75L884.45,138.35L885.41,145.98L888.29,151.36L889.26,134.39L890.22,141.35L891.18,139.55L892.14,135.96L895.02,133.62L895.98,128.53L897.91,144.36L898.87,137.96L901.75,136.99L902.71,140.78L903.68,148.18L904.64,138.54L905.6,144.11L908.48,148.08L909.44,144.85L910.41,154.54L911.37,163.98L912.33,153.9L916.17,148.54L917.13,144.94L919.06,142.47L921.94,155.27L923.86,148.08L924.83,153.44L925.79,149.6L928.67,148.66L930.59,152.94L931.56,154.79L932.52,153.7L935.4,154.39L936.36,150.18L937.32,151.62L939.25,153.46L942.13,153.73L943.09,155.65L944.05,154.96L945.98,154.1L948.86,154.76L950.78,150.97L952.7,146.86L956.55,148.62L957.51,151.32L959.43,152.28L962.32,154.06L963.28,153.22L964.24,157.21L965.2,157.83L966.16,156.14L970.01,158.92L970.97,157.11L972.89,159.92L975.78,159.65L977.7,155.36L978.66,157.75L979.62,161.5L982.51,163.52L983.47,162.5L984.43,165.47L985.39,164.82L986.35,161.76L989.24,162.29L990.2,169.21L992.12,168.03L993.08,170.56L998.85,177.57L999.81,179.77L1002.7,183.58L1003.66,183.07L1004.62,182.74L1005.58,183.78L1006.54,188L1009.43,192.75L1010.39,193.8L1011.35,190.68L1012.31,195.5L1013.27,194.94L1016.15,196.65L1017.12,190.3L1018.08,190.08L1019.04,187.1L1020,183.2" style="vector-effect: non-scaling-stroke; fill: none; stroke: rgb(171, 99, 250); stroke-opacity: 1; stroke-width: 2px; opacity: 1;"/></g><g class="points"/><g class="text"/></g><g class="trace scatter trace8ddde4" style="stroke-miterlimit: 2; opacity: 1;"><g class="fills"/><g class="errorbars"/><g class="lines"><path class="js-line" d="M0,92.79L0.96,90.44L1.92,90.4L3.85,88.34L6.73,87.99L7.69,88.05L8.65,86.29L10.57,85.17L13.46,85.96L14.42,85.24L15.38,86.36L16.34,86.17L17.3,84.85L21.15,83.69L22.11,84.36L24.03,88.23L26.92,85.91L27.88,85.17L28.84,88.35L30.76,89.85L33.65,90.15L34.61,90.16L35.57,88.99L37.49,86.7L41.34,89.93L43.26,86.61L44.22,86.69L47.11,90.07L48.07,89.09L49.03,90.34L49.99,88.25L50.95,89.41L53.84,90.54L54.8,91.73L55.76,90.02L57.68,87.35L60.57,88.67L62.49,86.45L63.45,87.87L67.3,88.42L68.26,90.26L69.22,90.11L70.18,86.17L71.14,87.27L74.02,85.88L75.95,87.26L76.91,84.26L77.87,87.21L80.75,86.72L81.72,86.41L82.68,88.23L84.6,91.4L87.48,90.84L88.44,90.48L89.41,87.72L91.33,87.93L94.21,85.71L96.14,85.27L97.1,84.71L98.06,82.73L100.94,83.8L101.9,84.71L102.87,82.16L104.79,81.23L107.67,82.37L108.63,81.85L109.59,82.93L111.52,81.09L114.4,81.25L116.32,77.96L117.29,78.13L118.25,76.44L121.13,76.64L122.09,76.56L123.05,77.39L124.02,75.85L124.98,76.09L130.74,74.25L131.71,73.16L135.55,74.17L136.51,75.23L137.47,76.45L138.44,75.53L145.16,73.14L148.05,73.37L149.01,73.45L149.97,72.4L154.78,72.78L155.74,71.8L157.66,71.67L158.62,72.12L161.51,72.57L162.47,71.71L163.43,69.22L164.39,69.24L168.24,70.01L169.2,70.21L172.08,69.17L174.97,69.01L175.93,68.56L176.89,66.22L178.81,62.11L181.7,59.57L182.66,60.27L183.62,59.27L184.58,58.88L185.54,60.01L189.39,62.37L190.35,63.27L191.31,62.44L192.27,62.99L196.12,60.61L197.08,60.65L198.04,63.92L199,63.91L201.89,64.07L202.85,62.66L204.77,60.91L205.73,58.73L210.54,59.47L212.46,60.63L215.34,62.94L216.31,62.01L217.27,60.16L218.23,60.45L219.19,61.19L222.07,59.49L228.8,58.59L229.76,58.82L230.73,59.04L231.69,57.69L232.65,57.09L235.53,56.77L236.49,56.32L237.46,56.95L239.38,58.96L243.22,58.42L245.15,56.25L246.11,57.25L251.88,55.65L252.84,57.78L256.68,57.4L257.64,56.44L259.57,54.37L263.41,54.02L265.33,52.79L266.3,52.25L270.14,53.91L271.1,52.39L273.03,55.34L275.91,55.01L276.87,56.02L277.83,55.02L278.79,54.23L279.75,54.72L282.64,55.08L283.6,55.98L289.37,57.96L290.33,56.18L291.29,55.08L292.25,55.15L297.06,55.18L298.02,56.1L299.94,56.84L302.83,56.55L303.79,64.9L304.75,62.46L305.71,63.09L306.67,65L309.56,66.43L310.52,64.62L311.48,65.15L312.44,63.5L313.4,62.54L316.29,62.47L317.25,66.33L318.21,65.8L319.17,65.18L320.13,65.7L323.98,62.21L324.94,60.08L325.9,59.34L326.86,59.91L330.71,61.48L331.67,62.36L333.59,60.75L336.48,59.74L338.4,56.34L339.36,55.57L344.17,55.46L345.13,56.43L347.05,54.84L349.93,52.93L350.9,50.55L351.86,50.59L353.78,48.83L356.66,49.94L357.62,50.29L358.59,49.26L363.39,47.86L364.35,47.48L367.24,45.99L370.12,45.86L371.08,47.63L372.05,46.3L373.01,49.75L373.97,48.4L377.81,47.27L378.77,43.78L379.74,44.21L380.7,42.81L385.5,42.51L386.47,43.67L387.43,43.21L391.27,42.41L392.23,40.73L393.2,40.89L394.16,40.32L397.04,40.01L398.96,42.71L399.92,46.92L400.89,44.51L403.77,44.52L404.73,46.66L405.69,43.88L407.62,42.23L410.5,43.82L411.46,43.77L412.42,46L413.38,45.41L414.34,49.4L418.19,47.63L419.15,46.7L421.07,46.58L423.96,44.43L424.92,43.92L426.84,44.02L430.69,42.84L431.65,46.47L432.61,44.67L433.57,40.48L437.42,38.95L438.38,41.19L439.34,42.24L440.3,41.23L441.26,43.84L444.15,41.97L445.11,44.95L446.07,44.44L447.99,51.29L450.88,50.19L451.84,51.02L452.8,48.17L453.76,47.26L454.72,50.8L458.57,43.77L459.53,42.34L460.49,48.35L461.45,48.31L464.34,48.5L465.3,51.75L466.26,53.19L467.22,52.23L468.18,47.9L471.07,48.32L472.03,48.61L472.99,46.14L473.95,45.39L474.91,43.19L477.79,44.13L478.76,47.79L479.72,44.5L480.68,45.74L481.64,44.21L485.49,42.73L486.45,45.17L487.41,44.41L488.37,47.2L491.25,46.77L493.18,42.32L494.14,40.25L495.1,39.73L497.98,40.65L499.91,33.53L500.87,33.51L501.83,32.16L504.71,32.16L505.67,32.58L506.64,30.7L511.44,26.91L512.4,27.23L514.33,27.34L515.29,26.21L518.17,27.2L519.13,25.63L521.06,26.81L522.02,26.37L525.86,28.86L526.82,28.5L527.79,28.36L528.75,34.1L531.63,33.27L532.59,32.02L534.51,32.81L535.48,31.06L538.36,29.32L539.32,32.21L540.28,30.18L541.24,35.64L542.21,34.45L545.09,34.42L546.05,32.62L547.01,38.14L547.97,36.08L548.93,37.28L551.82,36.74L552.78,31.81L554.7,33.42L555.66,29.62L558.55,31.07L559.51,30.49L560.47,35.02L562.39,32.11L565.28,35.06L566.24,31.2L568.16,25.59L569.12,25.27L572.97,26.13L573.93,23.14L574.89,20.92L575.85,20.94L578.74,19.74L579.7,22.43L580.66,20.05L581.62,20.1L582.58,23.06L585.47,25.63L586.43,24.75L587.39,25.35L588.35,24.61L589.31,20.57L592.2,19.62L594.12,19.91L595.08,22.57L596.04,22.17L598.93,25.12L600.85,28.76L601.81,28.42L602.77,30.68L605.66,27.06L606.62,28.59L608.54,24.77L609.5,29.66L612.38,27.85L613.35,31.14L614.31,31.65L615.27,36.57L616.23,41.87L620.08,46.21L622,44.99L622.96,48.73L626.8,44.16L627.77,45.64L629.69,40.19L632.57,40.81L633.53,46.71L634.5,47.06L635.46,45.54L636.42,48.05L639.3,48.66L640.26,45.25L641.23,42.83L642.19,45.51L643.15,45.86L646.99,46.12L648.92,47.69L649.88,45.13L653.72,40.09L654.68,41.79L655.65,43L656.61,48.12L660.45,47.8L661.41,45.75L663.34,51.54L666.22,53.13L667.18,47.74L668.14,48.81L669.1,47.86L670.07,51.28L672.95,49.71L673.91,42.35L674.87,45.87L675.83,42.91L680.64,39.84L681.6,41L683.52,42.73L686.41,41L687.37,35.24L688.33,36.82L690.25,37.45L693.14,36.41L694.1,37.26L695.06,39.3L696.02,37.41L696.98,40.63L699.87,40.65L700.83,39.65L701.79,37.81L702.75,38.52L703.71,35.53L706.6,35.89L707.56,36.59L708.52,36.02L709.48,35.09L710.44,36.57L713.33,37.84L714.29,40L715.25,39.94L716.21,37.27L717.17,35.12L720.06,36.6L721.02,36.3L721.98,40.46L722.94,39.6L723.9,43.21L727.75,40.64L728.71,39.3L730.63,37.07L733.52,36.41L735.44,43.26L736.4,40.94L737.36,43.86L741.21,43L742.17,43.76L743.13,39.95L744.09,39.28L746.97,41.75L747.94,42.31L748.9,41.8L749.86,38.27L750.82,45.73L753.7,45.35L754.67,44.43L755.63,47.29L756.59,45.65L757.55,44.47L760.43,47.16L761.39,48.49L762.36,51.54L763.32,50L764.28,54.02L768.12,54.24L769.09,52.67L771.01,63.09L773.89,61.58L774.85,60.95L775.82,61.66L776.78,60.18L780.62,60.22L781.58,55.75L782.54,58.34L783.51,57.78L784.47,60.04L788.31,60.61L789.27,57.16L794.08,58.21L795.04,54.49L796,51.14L796.97,54.57L797.93,54.05L800.81,59.03L802.73,52.32L803.69,56.36L804.66,55.44L807.54,54.45L808.5,46.8L809.46,46.68L810.42,52.79L811.39,47.13L814.27,45.79L815.23,46.4L816.19,49.01L817.15,48.51L818.11,46.14L821,49.13L821.96,52.17L822.92,51.69L823.88,52.46L824.84,49.03L827.73,53.72L828.69,53.25L829.65,51.88L830.61,47.59L831.57,50.72L835.42,48.26L836.38,47.89L837.34,53.79L841.19,47.1L842.15,53.27L843.11,54.2L844.07,51.91L848.88,78.63L849.84,91.86L851.76,78.39L854.65,81.66L856.57,88.79L857.53,86.51L858.49,84.92L861.38,98.59L863.3,85.41L864.26,88.13L868.11,98.7L869.07,107.96L870.03,112.34L870.99,129.4L871.95,133.08L874.84,112.94L875.8,111.84L876.76,127.33L877.72,119.32L878.68,122.32L881.56,113.87L882.53,117.02L883.49,125.18L884.45,121L885.41,128.85L888.29,133.49L889.26,115.59L890.22,122.71L891.18,121.03L892.14,117.42L895.02,115.66L895.98,110.42L897.91,126.83L898.87,120.36L901.75,119.17L902.71,123.22L903.68,131.07L904.64,119.97L905.6,126.33L908.48,130.13L909.44,126.33L910.41,136.43L911.37,146.6L912.33,135.72L916.17,130.33L917.13,126.53L919.06,124.36L921.94,138.04L923.86,130.78L924.83,136.34L925.79,131.8L928.67,131.2L929.63,135.03L930.59,135.49L931.56,137.09L932.52,136.39L935.4,136.8L936.36,132.09L939.25,135.5L942.13,135.71L943.09,137.69L944.05,136.96L945.98,136.07L948.86,136.72L950.78,132.32L952.7,127.96L956.55,130.27L957.51,133L959.43,134.2L962.32,135.88L963.28,134.99L964.24,139.35L965.2,140.11L966.16,138.44L970.01,141.3L970.97,139.46L972.89,142.28L975.78,141.63L977.7,137.07L978.66,139.33L979.62,143.62L982.51,145.83L983.47,144.24L984.43,147.47L985.39,146.45L986.35,143.45L989.24,143.91L990.2,151.1L991.16,150.19L992.12,150.32L993.08,152.87L996.93,157.69L997.89,157.78L998.85,159.12L999.81,161.25L1002.7,165.44L1004.62,164.07L1005.58,165.68L1006.54,169.94L1009.43,175.4L1010.39,176.47L1011.35,172.79L1012.31,177.75L1013.27,177.37L1016.15,179.66L1017.12,173.21L1018.08,173.24L1019.04,170.06L1020,166" style="vector-effect: non-scaling-stroke; fill: none; stroke: rgb(255, 161, 90); stroke-opacity: 1; stroke-width: 2px; opacity: 1;"/></g><g class="points"/><g class="text"/></g><g class="trace scatter trace761feb" style="stroke-miterlimit: 2; opacity: 1;"><g class="fills"/><g class="errorbars"/><g class="lines"><path class="js-line" d="M0,92.79L1.92,90.27L2.88,89.36L3.85,88.63L6.73,88.8L7.69,88.97L8.65,87.29L9.61,86.45L10.57,86.73L13.46,87.09L14.42,86.13L15.38,87.55L16.34,87.31L17.3,85.34L20.19,84.02L21.15,83.67L22.11,84.14L24.03,86.66L26.92,83.85L27.88,83.36L28.84,85.82L30.76,86.91L33.65,87.13L34.61,87.06L35.57,85.51L37.49,83.34L41.34,86.86L43.26,84.35L44.22,84.57L47.11,87.67L48.07,86.6L49.03,87.46L49.99,86.24L54.8,89.17L55.76,87.66L57.68,85.21L60.57,86.61L62.49,84.64L63.45,86.1L67.3,86.9L68.26,88.9L69.22,88.99L70.18,85.37L71.14,86.45L74.02,84.92L75.95,86.37L76.91,83.9L77.87,85.9L80.75,84.81L81.72,84.36L82.68,86.1L84.6,89.69L87.48,89.18L88.44,88.08L89.41,85.28L91.33,85.67L94.21,83.74L97.1,83.04L98.06,81.37L101.9,83.08L102.87,81.07L104.79,80.83L107.67,81.93L108.63,81.3L109.59,81.92L110.56,80.79L111.52,81L114.4,80.51L115.36,78.44L116.32,77.4L117.29,78L118.25,76.72L121.13,77.12L122.09,76.79L123.05,77.67L124.02,75.96L124.98,76.04L128.82,74.54L129.78,74.24L130.74,74.51L131.71,73.55L135.55,74.53L136.51,75.87L137.47,77.24L138.44,76.51L145.16,74.43L148.05,74.59L149.01,74.72L149.97,73.74L151.89,74.93L154.78,74.47L156.7,72.61L157.66,72.47L158.62,73.13L161.51,73.54L162.47,72.74L163.43,70.4L170.16,72.12L171.12,71.99L172.08,72.05L174.97,71.3L175.93,70.99L176.89,67.82L178.81,61.92L181.7,59.34L182.66,60.18L183.62,59.35L184.58,59.32L185.54,60.66L189.39,62.49L190.35,63.25L191.31,62.46L192.27,62.93L196.12,60.16L197.08,60.59L198.04,63.51L199,63.9L201.89,64.43L202.85,62.93L203.81,62.36L204.77,60.87L205.73,59.16L208.61,59.93L209.58,60.32L210.54,59.86L215.34,63.43L216.31,62.49L217.27,61.01L218.23,61.25L219.19,61.94L222.07,60.1L224,57.89L224.96,57.33L228.8,57.6L229.76,57.7L230.73,57.98L231.69,56.52L232.65,56.09L235.53,55.94L236.49,55.38L237.46,56.02L239.38,58.4L243.22,57.79L245.15,55.97L246.11,57.18L250.91,55.9L251.88,54.79L252.84,56.87L255.72,56.1L257.64,55.62L258.61,54.27L264.37,53.34L265.33,52.81L266.3,52.96L269.18,54.62L270.14,54.6L271.1,53.57L273.03,56.22L275.91,55.99L276.87,56.17L277.83,55.18L278.79,54.2L279.75,54.6L284.56,56.09L285.52,56.67L286.48,57.42L289.37,57.67L291.29,55.74L292.25,55.74L297.06,56.05L298.02,57.1L299.94,58.26L302.83,57.71L303.79,65.61L304.75,63.73L305.71,64.62L306.67,67.28L309.56,67.46L310.52,65.35L311.48,65.67L312.44,64.61L313.4,63.32L316.29,62.92L317.25,66.75L318.21,66.24L323.02,64.5L323.98,63.15L325.9,60.54L326.86,61.32L329.75,61.77L330.71,62.73L331.67,63.5L332.63,62.3L333.59,62.39L336.48,61.1L338.4,57.1L339.36,56.43L344.17,55.61L345.13,56.77L349.93,53.28L350.9,49.47L352.82,49.19L353.78,47.94L357.62,48.89L358.59,47.63L360.51,47.5L363.39,46.49L365.32,45.66L366.28,45.2L367.24,44.57L370.12,44.18L371.08,46.12L372.05,44.99L373.01,48.74L373.97,47.75L377.81,47.8L378.77,44.53L379.74,45.56L380.7,43.47L386.47,45.83L387.43,44.77L391.27,43.78L392.23,41.41L394.16,41.46L397.04,41.32L398.96,44.64L399.92,48.49L400.89,46.49L403.77,46.46L404.73,48.77L405.69,46.28L407.62,44.38L410.5,45.42L411.46,45.71L412.42,47L413.38,45.75L414.34,49.7L418.19,47.82L419.15,46.78L421.07,46.93L423.96,45.24L424.92,44.19L426.84,44.01L427.8,43.91L430.69,42.81L431.65,45.74L432.61,44.24L433.57,40.76L434.53,40.13L437.42,38.13L438.38,40.73L439.34,41.24L440.3,39.52L441.26,41.98L444.15,40.01L445.11,42.52L446.07,40.96L447.99,48.26L450.88,47.27L451.84,48.5L452.8,44.93L453.76,43.57L454.72,46.39L457.61,40.29L458.57,40.06L459.53,37.55L460.49,42.48L464.34,43.25L465.3,46.03L466.26,47.39L467.22,47.26L468.18,43.31L471.07,43.75L472.03,44.76L472.99,43.23L473.95,42.69L474.91,40.77L477.79,41.42L478.76,44.68L479.72,41.88L480.68,42.78L481.64,41.19L485.49,39.45L486.45,41.72L487.41,40.01L488.37,41.89L491.25,41.53L493.18,36.49L494.14,35.19L495.1,34.23L497.98,36.23L499.91,29.54L500.87,29.65L501.83,28.29L504.71,28.01L505.67,27.99L506.64,26.22L508.56,25.27L511.44,22.55L513.36,23.9L514.33,23.42L515.29,22.63L518.17,23.56L519.13,22.38L520.09,22.85L521.06,23.82L522.02,22.98L525.86,24.72L526.82,23.62L527.79,23.1L528.75,27.86L533.55,24.94L534.51,24.05L535.48,22.41L538.36,20.62L539.32,23.01L540.28,21.16L541.24,25.59L542.21,24.81L545.09,25.24L546.05,23.62L547.01,28.16L547.97,25.29L548.93,27.53L551.82,27.45L552.78,22.23L553.74,23.17L554.7,22.3L555.66,18.48L558.55,20.03L559.51,18.82L560.47,22.21L562.39,19.99L565.28,22.18L566.24,18.1L567.2,14.53L568.16,13.93L569.12,15.38L572.01,15.64L572.97,14.77L573.93,12.53L574.89,11.24L575.85,11.57L578.74,10.54L579.7,13.41L581.62,10.35L582.58,12.77L585.47,15.88L586.43,15.55L588.35,14.98L589.31,11.15L592.2,10.54L594.12,11.19L595.08,13.86L596.04,13.58L600.85,20.31L601.81,19.52L602.77,21.31L605.66,17.54L606.62,18.37L607.58,14.58L608.54,13.2L609.5,18.47L612.38,16.08L613.35,19.13L614.31,20.19L615.27,23.74L616.23,28.61L620.08,34.71L622,33.1L622.96,37.82L625.84,34.54L626.8,34.9L627.77,36.55L628.73,32.37L629.69,30.65L632.57,31.67L633.53,37.16L634.5,36.91L635.46,35.42L636.42,36.31L639.3,35.1L640.26,31.71L641.23,30.25L642.19,33.42L647.95,33.67L648.92,35.08L649.88,32.9L652.76,29.56L653.72,27.28L654.68,27.97L655.65,29.52L656.61,34.03L660.45,32.27L661.41,30.18L663.34,35.82L666.22,37.22L667.18,32.49L668.14,32.68L669.1,32.02L670.07,35.5L672.95,33.47L673.91,26.41L674.87,28.35L675.83,25.13L680.64,23.59L681.6,24.19L683.52,26.22L686.41,24.75L687.37,20.37L688.33,22.79L695.06,22.63L696.02,20.52L696.98,23.97L699.87,22.94L700.83,22.67L701.79,21.17L702.75,22.11L703.71,20.54L707.56,20.71L708.52,19.43L709.48,19.35L710.44,21.37L713.33,22.67L714.29,24.34L715.25,24.19L716.21,22.21L717.17,21.1L720.06,22.48L721.02,22.51L721.98,26.05L722.94,26.06L723.9,28.09L728.71,24.54L729.67,22.94L733.52,21.59L734.48,24.72L735.44,27.67L736.4,24.31L737.36,25.82L741.21,24.72L742.17,26.22L743.13,22.6L744.09,22.62L746.97,24.89L747.94,25.8L748.9,25L749.86,22.13L750.82,29.34L753.7,28.63L754.67,25.66L755.63,28.2L756.59,26.88L757.55,27.63L760.43,30.84L761.39,31.76L762.36,35.21L763.32,33.99L764.28,36.74L768.12,36.19L769.09,34.27L771.01,44.84L773.89,43.4L775.82,43.83L776.78,42.09L780.62,42.23L781.58,38.78L782.54,41.07L783.51,40.35L784.47,41.98L787.35,40.82L789.27,35.88L790.24,39.02L791.2,39.28L794.08,40.95L796,33.57L796.97,35.67L797.93,34.8L800.81,38.69L802.73,34.38L803.69,36.87L804.66,34.78L807.54,32.71L809.46,24.68L810.42,29.05L811.39,23.43L814.27,23.04L817.15,24.62L818.11,22.96L821.96,27.37L822.92,27.16L823.88,28.12L824.84,24.07L828.69,28.63L829.65,27.15L830.61,25.49L831.57,29.87L836.38,28.86L837.34,33.23L838.3,32.36L841.19,26.27L842.15,28.98L843.11,28.63L844.07,26.07L845.03,26.46L847.92,31.99L848.88,32.04L849.84,40.55L850.8,34.92L851.76,34.33L854.65,41.06L855.61,44.6L856.57,45.04L858.49,38.42L861.38,50.42L862.34,40.49L863.3,40.13L868.11,57L869.07,66.85L870.03,72.21L870.99,90.88L871.95,97.34L874.84,72.89L875.8,76.33L876.76,88.74L877.72,79.01L878.68,82.57L881.56,73.21L882.53,76.49L883.49,85.27L884.45,84.22L885.41,91.57L888.29,95.63L889.26,75.94L890.22,82.67L892.14,78.37L895.02,76.59L895.98,72.42L896.95,81.48L897.91,88.03L898.87,80.95L901.75,81.67L902.71,86.99L903.68,94.14L904.64,80.54L905.6,89.05L908.48,93.19L909.44,89.85L910.41,99.43L911.37,109.88L912.33,96.86L915.21,91.42L916.17,91.59L917.13,88.72L919.06,85.45L921.94,100.09L922.9,97.69L923.86,92.54L924.83,98.96L925.79,92.89L928.67,91.19L929.63,96.42L930.59,95.41L931.56,98L932.52,97.76L935.4,96.79L936.36,90.18L938.28,94.25L939.25,95.34L942.13,95.59L943.09,97.95L945.98,96L948.86,96.86L950.78,91.11L952.7,86.48L956.55,89.4L957.51,91.53L958.47,91.88L959.43,93.48L962.32,95.59L963.28,94.66L964.24,100.11L965.2,99.49L966.16,97.67L970.01,101.71L970.97,98.93L971.93,99.79L972.89,102.67L975.78,100.18L976.74,98.35L977.7,94.71L978.66,96.88L979.62,101.64L982.51,104.17L983.47,100.12L984.43,103.76L985.39,102.33L986.35,98.61L989.24,100.49L990.2,108.52L991.16,106.89L992.12,102.91L993.08,105.53L996.93,111.1L997.89,110.52L998.85,109.9L999.81,112.38L1002.7,117.65L1003.66,113.52L1004.62,115.3L1005.58,119.36L1006.54,122.76L1009.43,130.12L1010.39,132.32L1011.35,127.43L1012.31,133.5L1013.27,131.82L1016.15,134.94L1017.12,129.12L1018.08,127.97L1019.04,123.38L1020,119.99" style="vector-effect: non-scaling-stroke; fill: none; stroke: rgb(25, 211, 243); stroke-opacity: 1; stroke-width: 2px; opacity: 1;"/></g><g class="points"/><g class="text"/></g><g class="trace scatter tracedd5348" style="stroke-miterlimit: 2; opacity: 1;"><g class="fills"/><g class="errorbars"/><g class="lines"><path class="js-line" d="M0,92.79L1.92,90.15L2.88,89.27L3.85,88.34L6.73,88.39L7.69,88.65L8.65,87.04L9.61,86.34L10.57,86.74L13.46,87.13L14.42,86.08L15.38,87.63L16.34,87.27L17.3,85.37L20.19,84.08L22.11,83.82L23.07,85.09L24.03,86.71L26.92,84.17L27.88,83.77L28.84,86.42L30.76,87.82L33.65,88.09L34.61,88.09L35.57,86.62L37.49,84.45L41.34,87.85L43.26,85.42L44.22,85.49L47.11,88.79L48.07,87.89L49.03,89.19L49.99,88L54.8,91.71L55.76,90.02L57.68,87.47L60.57,89.01L62.49,87.13L63.45,88.47L67.3,88.91L68.26,90.9L69.22,90.86L70.18,87.17L71.14,88.16L74.02,86.52L75.95,87.95L76.91,85.55L77.87,87.93L80.75,87.09L81.72,86.62L82.68,88.43L84.6,92.01L87.48,91.88L88.44,90.82L89.41,88.14L91.33,88.84L94.21,86.76L97.1,85.91L98.06,84.29L101.9,85.91L102.87,83.92L104.79,83.92L107.67,85L108.63,84.58L109.59,85.13L110.56,84.04L111.52,84.17L114.4,83.9L115.36,81.79L116.32,80.62L117.29,81.24L118.25,79.75L121.13,79.95L122.09,79.73L123.05,80.68L124.02,79.13L124.98,79.05L128.82,77.85L129.78,77.65L130.74,77.79L131.71,76.94L135.55,77.7L136.51,79.14L137.47,80.54L138.44,80.11L148.05,78.12L149.01,78.4L149.97,77.62L150.93,78.17L151.89,79L154.78,78.54L156.7,76.53L157.66,76.46L158.62,77.02L161.51,77.66L162.47,77.07L163.43,74.68L165.35,74.88L168.24,75.67L170.16,75.89L171.12,75.67L174.97,74.84L175.93,74.5L178.81,66.08L181.7,63.78L182.66,64.44L183.62,63.5L184.58,63.44L185.54,64.73L189.39,66.32L190.35,67.11L192.27,66.54L195.16,64.6L196.12,63.78L197.08,63.99L199,66.92L201.89,67.51L205.73,62.29L208.61,62.95L209.58,63.27L210.54,62.77L215.34,66.24L216.31,65.3L217.27,63.74L218.23,63.87L219.19,64.5L222.07,62.7L224,60.69L224.96,60.22L228.8,60.49L229.76,60.59L230.73,60.95L231.69,59.51L232.65,59.17L235.53,59.27L236.49,58.59L237.46,59.22L239.38,61.79L243.22,61.31L245.15,59.49L246.11,60.79L250.91,60.06L251.88,59.12L252.84,61.07L255.72,60.15L257.64,59.72L258.61,58.2L259.57,57.73L263.41,57.46L266.3,56.37L269.18,58.03L271.1,56.76L272.06,58.48L273.03,59.43L275.91,59.23L276.87,59.51L277.83,58.63L278.79,57.49L279.75,57.84L284.56,59.4L285.52,59.91L286.48,60.86L289.37,61.21L291.29,59.17L292.25,59.19L293.21,59.44L297.06,59.63L299.94,61.54L302.83,60.96L303.79,68.93L304.75,66.9L305.71,67.7L306.67,70.35L309.56,70.58L310.52,68.37L311.48,68.5L312.44,67.48L313.4,66.3L316.29,65.97L317.25,69.73L318.21,68.96L323.02,67.04L323.98,65.83L325.9,62.95L326.86,63.75L329.75,64.07L330.71,65.15L331.67,65.98L332.63,64.83L333.59,64.94L336.48,63.7L338.4,59.86L339.36,59.26L344.17,58.46L345.13,59.59L347.05,58.01L349.93,56.08L350.9,52.57L351.86,52.94L353.78,51.3L356.66,52.42L357.62,52.12L358.59,50.68L360.51,50.11L363.39,49.09L364.35,48.2L365.32,48.5L370.12,47.21L371.08,48.94L372.05,47.88L373.01,51.58L373.97,50.43L376.85,50.25L377.81,50.57L378.77,47.29L379.74,48.05L380.7,46.14L385.5,47.37L386.47,48.63L387.43,47.49L391.27,46.63L392.23,44.14L393.2,44.57L397.04,44.23L398,45.59L398.96,47.69L399.92,51.67L400.89,49.69L403.77,49.69L404.73,51.95L405.69,49.26L407.62,47.01L410.5,47.94L411.46,48.18L412.42,49.58L413.38,48.23L414.34,51.98L418.19,50.42L419.15,49.13L421.07,49.42L423.96,47.63L424.92,46.72L426.84,46.53L430.69,45.44L431.65,48.17L432.61,46.74L433.57,43.19L437.42,41.07L438.38,43.31L439.34,43.72L440.3,42.07L441.26,44.54L444.15,42.6L445.11,45.43L446.07,44.04L447.99,51.16L450.88,50.05L451.84,51.71L452.8,48.15L453.76,46.71L454.72,49.81L459.53,41.66L460.49,46.71L461.45,46.41L464.34,46.93L466.26,51.26L467.22,51.05L468.18,46.92L471.07,47.42L472.03,48.55L472.99,46.81L473.95,46.27L474.91,44.08L477.79,44.83L478.76,48.06L479.72,45.11L480.68,46.02L481.64,44.28L485.49,42.41L486.45,44.51L487.41,42.97L488.37,45.04L491.25,44.68L493.18,39.75L494.14,38.74L495.1,37.93L497.98,39.86L499.91,33.14L500.87,33.38L501.83,31.91L504.71,31.7L505.67,31.64L506.64,29.97L508.56,29.13L511.44,26.51L513.36,27.98L514.33,27.51L515.29,26.56L518.17,27.53L519.13,26.37L520.09,26.74L521.06,27.81L522.02,26.97L525.86,28.55L526.82,27.59L527.79,27.08L528.75,32.52L534.51,28.91L535.48,27.23L538.36,25.59L539.32,28.08L540.28,25.92L541.24,30.26L542.21,29.22L545.09,29.58L546.05,27.83L547.01,32.63L547.97,29.92L548.93,32.39L551.82,32.82L552.78,27.64L553.74,28.82L554.7,27.57L555.66,23.68L558.55,25.25L559.51,23.96L560.47,27.23L562.39,24.89L565.28,27.12L567.2,19.66L568.16,19.13L569.12,20.43L572.01,20.82L572.97,20.27L573.93,17.77L574.89,16.2L575.85,16.52L578.74,15.46L579.7,18.48L581.62,14.98L582.58,17.45L585.47,20.33L586.43,19.94L588.35,19.04L589.31,15.17L592.2,14.42L594.12,14.99L595.08,17.63L596.04,17.32L600.85,23.53L601.81,22.97L602.77,25L605.66,21.69L606.62,22.83L607.58,19.42L608.54,18.42L609.5,23.39L612.38,20.76L613.35,23.79L614.31,25.29L615.27,29.13L616.23,33.6L620.08,39.61L622,37.44L622.96,41.87L625.84,38.14L626.8,38.64L627.77,40.14L628.73,36L629.69,34.23L632.57,34.94L633.53,40.68L634.5,40.29L635.46,38.84L636.42,39.47L639.3,38.49L640.26,35.43L641.23,33.73L642.19,36.86L643.15,37.01L646.99,36.7L647.95,36.29L648.92,37.94L649.88,35.9L652.76,32.2L653.72,29.99L654.68,30.71L655.65,32.28L656.61,36.97L660.45,35.32L661.41,33.11L663.34,38.84L666.22,40.32L667.18,35.24L668.14,35.41L669.1,34.65L670.07,38.12L672.95,36.43L673.91,28.92L674.87,31.34L675.83,28.86L680.64,26.94L681.6,27.46L683.52,29.62L686.41,28.04L687.37,23.63L688.33,25.96L690.25,25.97L693.14,25.05L695.06,25.58L696.02,23.29L696.98,27.07L699.87,26.06L700.83,25.56L701.79,23.96L702.75,24.81L703.71,22.65L707.56,22.95L708.52,22.05L709.48,22.11L710.44,24.23L713.33,25.9L714.29,27.98L715.25,27.76L716.21,26.12L717.17,24.4L720.06,25.67L721.02,25.25L721.98,28.69L722.94,28.48L723.9,30.52L728.71,26.97L729.67,25.1L730.63,24.44L733.52,23.73L735.44,29.74L736.4,26.63L737.36,28.37L741.21,27.37L742.17,28.75L743.13,25.33L744.09,25.11L746.97,27.31L747.94,28.1L748.9,27.02L749.86,24.18L750.82,31.58L753.7,30.75L754.67,27.98L755.63,30.3L756.59,28.92L757.55,29.42L760.43,32.3L761.39,32.92L762.36,36.24L763.32,35.07L764.28,37.86L768.12,37.42L769.09,35.66L771.01,46.04L773.89,44.87L775.82,45.76L776.78,44.11L780.62,44.54L781.58,41.57L782.54,43.93L783.51,42.96L784.47,44.52L787.35,43.44L789.27,38.99L790.24,42.04L794.08,43.74L795.04,39.21L796,36.94L796.97,38.98L797.93,37.89L800.81,41.72L802.73,36.92L803.69,39.97L804.66,37.91L807.54,36.72L809.46,28.54L810.42,32.81L811.39,27.62L814.27,27.23L817.15,28.58L818.11,27.02L821.96,31.64L822.92,31.14L823.88,31.95L824.84,28.11L827.73,32.41L828.69,32.42L830.61,29.08L831.57,33.35L836.38,33.09L837.34,37.54L838.3,36.97L841.19,31.38L842.15,35.15L843.11,34.29L844.07,31.77L845.03,32.19L847.92,39.44L848.88,39.63L849.84,48.35L850.8,42.57L851.76,40.44L854.65,46.53L856.57,51.35L857.53,47.26L858.49,45.47L861.38,58.47L862.34,48.27L863.3,47.87L865.22,56.08L868.11,65.47L870.03,80.6L870.99,98.81L871.95,105.91L874.84,81.45L875.8,84.48L876.76,97.84L877.72,88.59L878.68,91.9L881.56,82.66L882.53,85.53L883.49,94.33L884.45,92.87L885.41,100.09L888.29,105.12L889.26,86.22L890.22,92.17L892.14,86.78L895.02,85.53L895.98,80.99L896.95,90.13L897.91,97.11L898.87,90.47L901.75,91.35L902.71,96.72L903.68,104.33L904.64,90.99L905.6,99.21L908.48,103.48L909.44,99.72L910.41,109.58L911.37,120.65L912.33,107.85L915.21,102.06L916.17,102.4L917.13,99.18L919.06,96.4L921.94,111.46L922.9,109.22L923.86,104.55L924.83,111.35L925.79,105.62L928.67,103.62L929.63,108.28L930.59,106.96L931.56,109.71L932.52,109.38L935.4,108.47L936.36,101.97L938.28,106.74L939.25,107.63L942.13,108.35L943.09,110.42L945.98,108.46L948.86,109.23L950.78,103.46L952.7,98.44L956.55,100.01L957.51,102.86L958.47,102.95L959.43,104.87L962.32,107.06L963.28,106.04L964.24,111.54L965.2,110.75L966.16,108.99L970.01,113.49L970.97,110.1L971.93,111.57L972.89,113.93L975.78,111.67L976.74,109.79L977.7,106.13L978.66,108.67L979.62,113.5L982.51,116.35L983.47,112.83L984.43,116.24L985.39,114.99L986.35,111.18L989.24,112.6L990.2,120.4L991.16,118.94L992.12,115.63L993.08,117.93L996.93,123.57L997.89,123.09L998.85,122.57L999.81,125.08L1002.7,130.24L1003.66,126.4L1004.62,127.83L1005.58,131.37L1006.54,134.76L1009.43,142.15L1010.39,144.08L1011.35,139.41L1012.31,145.67L1013.27,144.25L1016.15,146.91L1017.12,140.69L1018.08,139.44L1019.04,135.1L1020,132.19" style="vector-effect: non-scaling-stroke; fill: none; stroke: rgb(255, 102, 146); stroke-opacity: 1; stroke-width: 2px; opacity: 1;"/></g><g class="points"/><g class="text"/></g><g class="trace scatter trace025097" style="stroke-miterlimit: 2; opacity: 1;"><g class="fills"/><g class="errorbars"/><g class="lines"><path class="js-line" d="M0,92.79L1.92,90.15L2.88,89.29L3.85,88.36L6.73,88.41L7.69,88.67L8.65,87.05L9.61,86.35L10.57,86.75L13.46,87.15L14.42,86.11L15.38,87.65L16.34,87.29L17.3,85.4L20.19,84.12L22.11,83.85L23.07,85.12L24.03,86.73L26.92,84.21L27.88,83.82L28.84,86.48L30.76,87.89L33.65,88.16L34.61,88.16L35.57,86.7L37.49,84.53L41.34,87.92L43.26,85.46L44.22,85.52L47.11,88.82L48.07,87.92L49.03,89.22L49.99,88.04L54.8,91.78L55.76,90.08L57.68,87.52L60.57,89.06L62.49,87.19L63.45,88.54L67.3,88.97L68.26,90.97L69.22,90.93L70.18,87.25L71.14,88.22L74.02,86.58L75.95,88L76.91,85.61L77.87,87.99L80.75,87.15L81.72,86.69L82.68,88.49L84.6,92.06L87.48,91.92L88.44,90.88L89.41,88.2L91.33,88.91L94.21,86.82L97.1,85.92L98.06,84.32L101.9,85.93L102.87,83.93L104.79,83.95L107.67,85.04L108.63,84.62L109.59,85.16L110.56,84.08L111.52,84.2L114.4,83.93L115.36,81.81L116.32,80.64L117.29,81.27L118.25,79.78L121.13,79.97L122.09,79.75L123.05,80.71L124.02,79.16L124.98,79.07L128.82,77.88L129.78,77.69L130.74,77.83L131.71,76.98L135.55,77.72L136.51,79.17L137.47,80.58L138.44,80.17L148.05,78.18L149.01,78.47L149.97,77.69L150.93,78.22L151.89,79.05L154.78,78.57L156.7,76.57L157.66,76.51L158.62,77.05L161.51,77.69L162.47,77.1L163.43,74.71L165.35,74.92L168.24,75.7L170.16,75.9L171.12,75.67L174.97,74.85L175.93,74.49L178.81,66.08L181.7,63.81L182.66,64.46L183.62,63.53L184.58,63.46L185.54,64.75L189.39,66.34L190.35,67.14L192.27,66.54L195.16,64.59L196.12,63.76L197.08,63.96L199,66.91L201.89,67.5L205.73,62.3L208.61,62.95L209.58,63.27L210.54,62.78L215.34,66.24L216.31,65.29L217.27,63.72L218.23,63.84L219.19,64.46L222.07,62.66L224,60.67L224.96,60.2L229.76,60.55L230.73,60.91L232.65,59.12L235.53,59.23L236.49,58.55L237.46,59.2L239.38,61.77L243.22,61.3L245.15,59.46L246.11,60.77L250.91,60.07L251.88,59.13L252.84,61.09L255.72,60.17L257.64,59.75L258.61,58.23L259.57,57.74L263.41,57.48L266.3,56.37L269.18,58.02L271.1,56.74L272.06,58.47L273.03,59.42L275.91,59.21L276.87,59.48L277.83,58.6L278.79,57.46L279.75,57.8L284.56,59.38L285.52,59.88L286.48,60.84L289.37,61.2L291.29,59.15L292.25,59.18L293.21,59.43L297.06,59.63L299.94,61.54L302.83,60.96L303.79,68.92L304.75,66.89L305.71,67.7L306.67,70.33L309.56,70.57L310.52,68.37L311.48,68.5L312.44,67.47L313.4,66.29L316.29,65.97L317.25,69.71L318.21,68.94L323.02,67.02L323.98,65.82L325.9,62.93L326.86,63.74L329.75,64.05L330.71,65.13L331.67,65.96L332.63,64.81L333.59,64.93L336.48,63.7L338.4,59.88L339.36,59.28L344.17,58.47L345.13,59.59L347.05,58.02L349.93,56.08L350.9,52.58L351.86,52.95L353.78,51.31L356.66,52.42L357.62,52.14L358.59,50.69L360.51,50.12L363.39,49.1L364.35,48.19L365.32,48.49L370.12,47.2L371.08,48.92L372.05,47.85L373.01,51.56L373.97,50.41L376.85,50.22L377.81,50.54L378.77,47.24L379.74,48L380.7,46.09L385.5,47.31L386.47,48.57L387.43,47.44L391.27,46.59L392.23,44.1L393.2,44.53L397.04,44.23L398,45.59L398.96,47.69L399.92,51.67L400.89,49.7L403.77,49.68L404.73,51.95L405.69,49.26L407.62,46.99L410.5,47.92L411.46,48.15L412.42,49.56L413.38,48.2L414.34,51.97L418.19,50.42L419.15,49.13L421.07,49.41L423.96,47.62L424.92,46.71L426.84,46.52L430.69,45.44L431.65,48.17L432.61,46.74L433.57,43.2L437.42,41.09L438.38,43.33L439.34,43.74L440.3,42.1L441.26,44.56L444.15,42.62L445.11,45.45L446.07,44.06L447.99,51.18L450.88,50.08L451.84,51.73L452.8,48.16L453.76,46.73L454.72,49.84L459.53,41.75L460.49,46.82L461.45,46.49L464.34,46.99L466.26,51.31L467.22,51.1L468.18,46.96L471.07,47.46L472.03,48.59L472.99,46.84L473.95,46.28L474.91,44.09L477.79,44.85L478.76,48.09L479.72,45.13L480.68,46.04L481.64,44.3L485.49,42.42L486.45,44.5L487.41,42.98L488.37,45.06L491.25,44.69L493.18,39.78L494.14,38.75L495.1,37.95L497.98,39.88L499.91,33.15L500.87,33.39L501.83,31.9L504.71,31.69L505.67,31.62L506.64,29.96L508.56,29.13L511.44,26.51L513.36,27.99L514.33,27.52L515.29,26.57L518.17,27.53L519.13,26.37L520.09,26.77L521.06,27.85L522.02,27.01L525.86,28.59L526.82,27.64L527.79,27.15L528.75,32.6L534.51,29.02L535.48,27.34L538.36,25.69L539.32,28.19L540.28,26L541.24,30.35L542.21,29.32L545.09,29.69L546.05,27.92L547.01,32.76L547.97,30.06L548.93,32.5L551.82,32.94L552.78,27.78L553.74,28.98L554.7,27.72L555.66,23.84L558.55,25.42L559.51,24.15L560.47,27.43L562.39,25.08L565.28,27.3L567.2,19.85L568.16,19.33L569.12,20.63L572.01,21.02L572.97,20.49L573.93,17.98L574.89,16.39L575.85,16.71L578.74,15.67L579.7,18.68L581.62,15.16L582.58,17.63L585.47,20.51L586.43,20.1L588.35,19.2L589.31,15.32L592.2,14.56L594.12,15.12L595.08,17.75L596.04,17.44L600.85,23.65L601.81,23.09L602.77,25.13L605.66,21.84L606.62,23.01L607.58,19.62L608.54,18.62L609.5,23.58L612.38,20.92L613.35,23.96L614.31,25.47L615.27,29.33L616.23,33.84L620.08,39.85L622,37.71L622.96,42.14L625.84,38.39L626.8,38.85L627.77,40.38L628.73,36.24L629.69,34.48L632.57,35.15L633.53,40.92L634.5,40.52L635.46,39.09L636.42,39.72L639.3,38.79L640.26,35.72L641.23,34L642.19,37.12L643.15,37.26L646.99,36.97L647.95,36.57L648.92,38.22L649.88,36.16L652.76,32.44L653.72,30.26L654.68,30.99L655.65,32.55L656.61,37.26L660.45,35.63L661.41,33.42L663.34,39.18L666.22,40.67L667.18,35.57L668.14,35.76L669.1,34.99L670.07,38.45L672.95,36.75L673.91,29.22L674.87,31.67L675.83,29.2L680.64,27.27L681.6,27.81L683.52,29.98L686.41,28.37L687.37,23.93L688.33,26.27L690.25,26.27L693.14,25.32L695.06,25.87L696.02,23.61L696.98,27.39L699.87,26.4L700.83,25.92L701.79,24.3L702.75,25.13L703.71,22.93L707.56,23.25L708.52,22.35L709.48,22.4L710.44,24.49L713.33,26.14L714.29,28.22L715.25,27.99L716.21,26.33L717.17,24.58L720.06,25.86L721.02,25.42L721.98,28.89L722.94,28.69L723.9,30.75L728.71,27.22L729.67,25.35L730.63,24.7L733.52,23.98L735.44,30.01L736.4,26.92L737.36,28.67L741.21,27.68L742.17,29.07L743.13,25.64L744.09,25.4L746.97,27.58L747.94,28.38L748.9,27.31L749.86,24.45L750.82,31.86L753.7,31.06L754.67,28.31L755.63,30.63L756.59,29.26L757.55,29.73L760.43,32.6L761.39,33.23L762.36,36.54L763.32,35.36L764.28,38.16L768.12,37.74L769.09,36L771.01,46.35L773.89,45.19L775.82,46.08L776.78,44.46L780.62,44.9L781.58,41.95L782.54,44.32L783.51,43.35L784.47,44.91L787.35,43.85L789.27,39.41L790.24,42.44L794.08,44.09L795.04,39.61L796,37.32L796.97,39.38L797.93,38.3L800.81,42.16L802.73,37.38L803.69,40.41L804.66,38.36L807.54,37.22L809.46,29.03L810.42,33.32L811.39,28.14L814.27,27.75L817.15,29.14L818.11,27.6L821.96,32.23L822.92,31.71L823.88,32.52L824.84,28.7L827.73,33.01L828.69,33L830.61,29.61L831.57,33.86L836.38,33.6L837.34,38.09L838.3,37.52L841.19,31.95L842.15,35.8L843.11,34.97L844.07,32.49L845.03,33.04L847.92,40.64L848.88,40.91L849.84,49.77L850.8,43.94L851.76,41.64L854.65,47.63L856.57,52.57L857.53,48.53L858.49,46.76L861.38,59.81L862.34,49.57L863.3,49.17L865.22,57.34L868.11,66.7L870.03,81.78L870.99,99.98L871.95,107.08L874.84,82.7L875.8,85.64L876.76,99.01L877.72,89.84L878.68,93.15L881.56,83.92L882.53,86.78L883.49,95.59L884.45,94.1L885.41,101.33L888.29,106.36L889.26,87.51L890.22,93.47L892.14,88.07L895.02,86.79L895.98,82.21L896.95,91.36L897.91,98.38L898.87,91.74L901.75,92.6L902.71,97.93L903.68,105.54L904.64,92.22L905.6,100.39L908.48,104.68L909.44,100.94L910.41,110.82L911.37,121.83L912.33,109.09L915.21,103.29L916.17,103.63L917.13,100.39L919.06,97.64L921.94,112.69L922.9,110.4L923.86,105.76L924.83,112.57L925.79,106.87L928.67,104.83L929.63,109.45L930.59,108.17L931.56,110.89L932.52,110.57L935.4,109.69L936.36,103.19L938.28,107.99L939.25,108.88L942.13,109.61L943.09,111.66L945.98,109.72L948.86,110.49L950.78,104.73L952.7,99.7L956.55,101.25L957.51,104.11L958.47,104.17L959.43,106.09L962.32,108.3L963.28,107.29L964.24,112.77L965.2,112L966.16,110.26L970.01,114.75L970.97,111.33L971.93,112.83L972.89,115.13L975.78,112.9L976.74,111.03L977.7,107.38L978.66,109.95L979.62,114.73L982.51,117.55L983.47,114.1L984.43,117.5L985.39,116.27L986.35,112.49L989.24,113.89L990.2,121.66L991.16,120.21L992.12,116.97L993.08,119.24L996.93,124.9L997.89,124.45L998.85,123.99L999.81,126.48L1002.7,131.6L1003.66,127.86L1004.62,129.24L1005.58,132.71L1006.54,136.14L1009.43,143.49L1010.39,145.38L1011.35,140.74L1012.31,147.02L1013.27,145.63L1016.15,148.27L1017.12,142.05L1018.08,140.81L1019.04,136.5L1020,133.58" style="vector-effect: non-scaling-stroke; fill: none; stroke: rgb(182, 232, 128); stroke-opacity: 1; stroke-width: 2px; opacity: 1;"/></g><g class="points"/><g class="text"/></g><g class="trace scatter trace46ddc9" style="stroke-miterlimit: 2; opacity: 1;"><g class="fills"/><g class="errorbars"/><g class="lines"><path class="js-line" d="M0,92.79L1.92,90.1L2.88,89.25L3.85,88.43L6.73,88.55L7.69,88.79L8.65,87.16L9.61,86.48L10.57,86.92L13.46,87.28L14.42,86.22L15.38,87.87L16.34,87.55L17.3,85.7L20.19,84.47L22.11,84.3L23.07,85.49L24.03,87.07L26.92,84.49L27.88,84.03L28.84,86.62L30.76,88.05L33.65,88.3L34.61,88.29L35.57,86.81L37.49,84.61L41.34,88.05L43.26,85.53L44.22,85.58L47.11,88.87L48.07,87.88L49.03,89L49.99,87.79L54.8,91.39L55.76,89.74L57.68,87.14L60.57,88.68L62.49,86.77L63.45,88.14L67.3,88.72L68.26,90.73L69.22,90.76L70.18,87.09L71.14,87.98L74.02,86.39L75.95,87.78L76.91,85.47L77.87,87.43L80.75,86.48L81.72,86.07L82.68,87.84L84.6,91.36L87.48,91.15L88.44,90.17L89.41,87.4L91.33,88.07L94.21,86.01L97.1,84.88L98.06,83.3L101.9,84.87L102.87,82.84L104.79,82.78L107.67,83.83L108.63,83.36L109.59,83.95L110.56,82.87L111.52,82.97L114.4,82.68L115.36,80.55L116.32,79.45L117.29,80.14L118.25,78.68L121.13,78.88L122.09,78.69L123.05,79.62L124.02,77.93L124.98,77.84L128.82,76.73L129.78,76.55L130.74,76.68L131.71,75.82L135.55,76.55L136.51,78.02L137.47,79.4L138.44,79.04L148.05,77.14L149.01,77.37L149.97,76.62L150.93,77.06L151.89,77.89L154.78,77.31L156.7,75.4L157.66,75.28L158.62,75.8L161.51,76.32L162.47,75.67L163.43,73.34L165.35,73.78L168.24,74.6L170.16,74.76L171.12,74.53L172.08,74.52L174.97,73.73L175.93,73.3L176.89,70.2L178.81,64.91L181.7,62.68L182.66,63.35L183.62,62.39L184.58,62.3L185.54,63.63L189.39,65.42L190.35,66.26L191.31,65.45L192.27,65.63L196.12,62.85L197.08,63.17L198.04,65.84L199,66.28L201.89,66.87L202.85,65.51L204.77,63.35L205.73,61.78L212.46,63.53L215.34,65.78L217.27,63.26L218.23,63.45L219.19,64.01L222.07,62.26L224,60.32L224.96,59.86L225.92,59.72L228.8,60.08L230.73,60.61L231.69,59.09L232.65,58.65L235.53,58.73L236.49,58.01L237.46,58.73L239.38,61.3L243.22,60.8L245.15,58.91L246.11,60.24L250.91,59.47L251.88,58.46L252.84,60.45L255.72,59.62L257.64,59.29L258.61,57.73L259.57,57.31L263.41,57.11L266.3,55.73L269.18,57.44L270.14,57.28L271.1,56.2L273.03,58.94L275.91,58.76L276.87,58.7L277.83,57.73L278.79,56.57L279.75,56.95L284.56,58.64L285.52,59.15L286.48,60.07L289.37,60.46L291.29,58.45L292.25,58.49L293.21,58.76L297.06,58.96L299.94,60.96L302.83,60.35L303.79,68.26L304.75,66.25L305.71,67.11L306.67,69.7L309.56,69.99L310.52,67.92L311.48,68.12L312.44,67.1L313.4,65.9L316.29,65.64L317.25,69.45L318.21,68.78L323.02,66.9L323.98,65.68L324.94,63.29L325.9,62.94L326.86,63.74L329.75,64.1L331.67,65.99L332.63,64.81L333.59,64.93L336.48,63.81L338.4,59.96L339.36,59.31L344.17,58.51L345.13,59.56L347.05,57.94L349.93,55.94L350.9,52.32L351.86,52.62L353.78,50.83L356.66,51.98L357.62,51.75L358.59,50.37L360.51,50.08L363.39,49.16L364.35,48.26L365.32,48.5L370.12,47.23L371.08,49.04L372.05,47.9L373.01,51.74L373.97,50.68L376.85,50.38L377.81,50.83L378.77,47.45L379.74,48.28L380.7,46.35L385.5,47.59L386.47,48.73L387.43,47.69L391.27,46.82L392.23,44.38L393.2,44.75L397.04,44.41L398,45.73L398.96,47.73L399.92,51.67L400.89,49.74L403.77,49.65L404.73,51.91L405.69,49.34L407.62,47.12L410.5,48.14L411.46,48.36L412.42,49.75L413.38,48.47L414.34,52.33L418.19,50.73L419.15,49.58L421.07,49.81L423.96,48.04L424.92,47.13L426.84,46.93L430.69,45.8L431.65,48.59L432.61,47.1L433.57,43.61L437.42,41.38L438.38,43.81L439.34,44.35L440.3,42.73L441.26,45.17L444.15,43.3L445.11,46.07L446.07,44.73L447.99,52.02L450.88,50.93L451.84,52.28L452.8,48.74L453.76,47.38L454.72,50.43L459.53,42.22L460.49,47.36L461.45,47.03L464.34,47.46L466.26,51.68L467.22,51.47L468.18,47.44L471.07,47.89L472.03,49.05L472.99,47.36L473.95,46.78L474.91,44.66L477.79,45.45L478.76,48.67L479.72,45.72L480.68,46.72L481.64,45.09L485.49,43.24L486.45,45.34L487.41,43.82L488.37,45.78L491.25,45.32L493.18,40.44L494.14,39.26L495.1,38.42L497.98,40.32L499.91,33.6L500.87,33.75L501.83,32.24L504.71,32.05L505.67,31.98L506.64,30.32L508.56,29.54L511.44,26.88L513.36,28.3L514.33,27.82L515.29,26.94L518.17,27.92L519.13,26.72L520.09,27.2L521.06,28.15L522.02,27.31L525.86,29.1L526.82,28.21L527.79,27.71L528.75,32.71L531.63,31.36L532.59,30.03L534.51,29.26L535.48,27.54L538.36,25.8L539.32,28.26L540.28,26.1L541.24,30.39L542.21,29.46L545.09,29.85L546.05,28.08L547.01,32.89L547.97,30.07L548.93,32.02L551.82,32.24L552.78,27.15L553.74,28.19L554.7,27.07L555.66,23.27L558.55,24.82L559.51,23.66L560.47,27.03L562.39,24.77L565.28,26.81L567.2,19.46L568.16,19.01L569.12,20.28L572.01,20.62L572.97,20.02L573.93,17.54L574.89,15.98L575.85,16.39L578.74,15.33L579.7,18.24L581.62,14.94L582.58,17.39L585.47,20.3L586.43,19.81L588.35,18.95L589.31,15.15L592.2,14.39L594.12,14.95L595.08,17.54L596.04,17.2L600.85,23.38L601.81,22.8L602.77,24.75L605.66,21.25L606.62,22.38L607.58,18.85L608.54,17.81L609.5,22.56L612.38,20.04L613.35,23.02L614.31,24.4L615.27,28.27L616.23,33.1L620.08,39.18L622,37.36L622.96,41.78L625.84,38.15L626.8,38.63L627.77,40.38L628.73,36.22L629.69,34.58L632.57,35.2L633.53,40.92L634.5,40.6L635.46,39.23L636.42,40.03L639.3,39.29L640.26,36.04L641.23,34.44L642.19,37.53L643.15,37.69L646.99,37.39L647.95,37.16L648.92,38.75L649.88,36.6L652.76,32.92L653.72,30.83L654.68,31.67L655.65,33.15L656.61,37.93L660.45,36.31L661.41,34.1L663.34,39.92L666.22,41.42L667.18,36.35L668.14,36.59L669.1,35.84L670.07,39.21L672.95,37.37L673.91,29.91L674.87,32.28L675.83,29.61L680.64,27.84L681.6,28.39L683.52,30.54L686.41,28.87L687.37,24.3L688.33,26.58L690.25,26.5L693.14,25.51L695.06,26.06L696.02,23.97L696.98,27.58L699.87,26.69L700.83,26.24L701.79,24.71L702.75,25.63L703.71,23.44L707.56,23.69L708.52,22.78L709.48,22.64L710.44,24.5L713.33,25.97L714.29,27.96L715.25,27.7L716.21,25.98L717.17,24.23L720.06,25.56L721.02,25.23L721.98,28.92L722.94,28.78L723.9,30.89L728.71,27.5L729.67,25.76L730.63,25.18L733.52,24.47L735.44,30.48L736.4,27.47L737.36,29.24L741.21,28.32L742.17,29.84L743.13,26.25L744.09,25.89L746.97,27.99L747.94,28.79L748.9,27.89L749.86,24.96L750.82,32.25L753.7,31.54L754.67,28.9L755.63,31.22L756.59,29.78L757.55,30.19L760.43,33.08L761.39,33.77L762.36,37.16L763.32,35.88L764.28,38.67L768.12,38.24L769.09,36.56L771.01,46.87L773.89,45.52L775.82,46.21L776.78,44.62L780.62,45.1L781.58,42.08L782.54,44.29L783.51,43.36L784.47,45.03L787.35,43.97L789.27,39.41L790.24,42.37L794.08,44.02L795.04,39.54L796,37.18L796.97,39.33L797.93,38.25L800.81,42.18L802.73,37.54L803.69,40.33L804.66,38.34L807.54,37.09L809.46,28.85L810.42,33.35L811.39,28.18L814.27,27.81L817.15,29.28L818.11,27.74L821.96,32.25L822.92,31.73L823.88,32.57L824.84,28.78L827.73,33.07L828.69,33.04L830.61,29.62L831.57,33.85L836.38,33.22L837.34,37.78L838.3,37.11L841.19,31.55L842.15,35.49L843.11,34.8L844.07,32.49L845.03,33.54L848.88,42.49L849.84,51.75L851.76,43.51L854.65,49.28L856.57,54.36L857.53,50.48L858.49,48.65L861.38,61.62L862.34,51.14L863.3,50.73L865.22,58.68L868.11,67.92L870.03,82.52L870.99,101L871.95,108.04L874.84,83.8L875.8,86.45L876.76,99.71L877.72,90.54L878.68,94.09L881.56,84.88L882.53,87.91L883.49,96.67L884.45,95.32L885.41,102.69L888.29,107.58L889.26,88.63L890.22,94.88L892.14,89.78L895.02,88.32L895.98,83.61L896.95,92.85L897.91,99.89L898.87,93.14L901.75,93.78L902.71,98.92L903.68,106.34L904.64,92.96L905.6,101.22L908.48,105.39L909.44,101.78L910.41,111.82L911.37,122.59L912.33,110.01L915.21,104.33L916.17,104.74L917.13,101.58L919.06,98.86L921.94,113.77L922.9,111.2L923.86,106.51L924.83,113.23L925.79,107.4L928.67,105.38L929.63,109.86L930.59,108.79L931.56,111.21L932.52,111.02L935.4,110.06L936.36,103.58L938.28,108.24L939.25,109.14L942.13,109.72L943.09,111.77L945.98,109.9L948.86,110.67L950.78,104.98L952.7,100.05L956.55,101.9L957.51,104.65L958.47,104.71L959.43,106.52L962.32,108.8L963.28,107.7L964.24,113.17L965.2,112.6L966.16,111L970.01,115.28L970.97,112.14L971.93,113.61L972.89,115.85L975.78,113.67L976.74,111.77L977.7,108.15L979.62,115.38L982.51,117.9L983.47,114.58L984.43,117.91L985.39,116.66L986.35,113.01L989.24,114.51L990.2,122.25L991.16,120.74L992.12,117.51L993.08,119.75L996.93,125.33L998.85,124.64L999.81,127.21L1002.7,132.19L1003.66,128.76L1004.62,130.05L1005.58,133.56L1006.54,137.35L1009.43,144.59L1010.39,146.48L1011.35,141.91L1012.31,148.17L1013.27,146.72L1016.15,149.54L1017.12,143.45L1018.08,142.33L1019.04,138.11L1020,134.95" style="vector-effect: non-scaling-stroke; fill: none; stroke: rgb(255, 151, 255); stroke-opacity: 1; stroke-width: 2px; opacity: 1;"/></g><g class="points"/><g class="text"/></g><g class="trace scatter traceb76b86" style="stroke-miterlimit: 2; opacity: 1;"><g class="fills"/><g class="errorbars"/><g class="lines"><path class="js-line" d="M0,92.79L0.96,88.79L1.92,88.58L3.85,87.17L6.73,87.4L7.69,88.49L8.65,87.02L9.61,86.45L10.57,86.76L13.46,87.25L14.42,85.75L15.38,86.08L16.34,85.29L17.3,82.44L20.19,82.3L22.11,81.1L23.07,84.02L24.03,86.48L26.92,85.5L27.88,85.68L28.84,90.08L29.8,91.67L30.76,91.35L35.57,91.9L36.53,89.97L37.49,88.58L41.34,92.37L43.26,88.96L44.22,89.21L49.03,95.73L49.99,95.57L54.8,100.35L55.76,98.07L56.72,94L57.68,94.01L60.57,95.5L61.53,94.83L62.49,92.68L63.45,93.92L64.41,94.53L67.3,93.38L68.26,95.86L69.22,94.85L70.18,90.39L71.14,91.22L74.02,89.62L75.95,91.19L76.91,89.68L77.87,92.45L81.72,91.54L82.68,94.04L84.6,99.67L87.48,99.5L88.44,98.44L89.41,94.07L91.33,97.01L94.21,93.26L96.14,92.2L97.1,92.25L98.06,89.79L100.94,90.49L101.9,91.73L102.87,90.2L104.79,89.37L107.67,89.8L108.63,90.74L109.59,92.74L110.56,91.75L111.52,92.5L114.4,92.3L115.36,89.58L116.32,87.59L117.29,87.42L118.25,86.47L121.13,87.22L122.09,87.32L123.05,88.19L124.98,88.47L127.86,87.07L130.74,86.48L131.71,84.77L135.55,84.66L136.51,85.96L137.47,87.5L138.44,86.25L141.32,86.15L142.28,84.07L143.24,83.14L144.2,83.47L145.16,82.78L148.05,82.9L149.01,83.19L149.97,81.71L151.89,83.87L154.78,82.47L156.7,80.14L157.66,79.54L158.62,80.35L161.51,80.53L162.47,79.36L163.43,76.83L165.35,76.84L168.24,76.68L170.16,76.8L171.12,74.83L174.97,74.16L175.93,74.78L177.85,73.52L178.81,73.71L182.66,71.13L183.62,70.99L184.58,70.39L185.54,71.9L189.39,72.1L190.35,73.12L192.27,74.04L195.16,71.59L197.08,70.13L198.04,71.63L201.89,71.05L202.85,69.28L205.73,66.72L208.61,67.25L210.54,67.04L212.46,68L215.34,71.26L216.31,70.95L217.27,69.1L218.23,69.2L219.19,69.77L222.07,67.92L223.03,66.94L224,67.4L224.96,68.03L225.92,67.44L230.73,67.23L231.69,65.19L232.65,64.6L235.53,64.69L237.46,64.22L238.42,65.1L239.38,66.7L243.22,65.38L244.18,63.26L245.15,63.45L246.11,64.24L250.91,64L251.88,63.88L252.84,65.58L257.64,64.67L258.61,63.17L259.57,62.33L263.41,61.78L266.3,62.13L269.18,63.95L271.1,60.98L272.06,63.43L273.03,63.75L275.91,63.67L276.87,63L277.83,60.98L278.79,59.91L279.75,60.33L285.52,60.65L286.48,61.82L289.37,62.4L290.33,60.3L292.25,58.03L293.21,57.98L297.06,57.59L298.02,58.58L299.94,60.45L302.83,60.76L303.79,69.31L304.75,68.24L305.71,68.94L306.67,71.41L309.56,72.72L310.52,69.49L311.48,69.8L312.44,68.4L316.29,67.21L317.25,72.2L319.17,70.47L320.13,71.49L323.98,67.84L324.94,64.56L326.86,63.87L329.75,64.12L331.67,67.58L332.63,66.59L336.48,65.9L337.44,63.27L339.36,62.24L343.2,62.06L344.17,61.96L345.13,63.8L347.05,61.18L349.93,58.95L351.86,57.24L352.82,57.14L353.78,53.99L356.66,54.86L357.62,54.15L358.59,51.36L360.51,50.72L363.39,51.91L366.28,48.24L367.24,47.77L372.05,45.75L373.01,48.78L373.97,46.5L376.85,46.08L377.81,45.31L378.77,43.18L379.74,43.41L380.7,41.77L385.5,42.4L386.47,44.14L387.43,42.78L391.27,42.49L392.23,40.19L393.2,40.3L394.16,39.47L397.04,39.3L398.96,43.63L399.92,47.72L400.89,44.48L403.77,44.47L404.73,47.14L405.69,43.29L407.62,40.06L410.5,40.61L411.46,40.14L412.42,43.14L413.38,41.99L414.34,45.8L418.19,46.26L419.15,44.41L421.07,44.81L423.96,42.2L424.92,41.34L426.84,41.57L427.8,40.63L430.69,39.85L431.65,42.89L432.61,41.33L433.57,35.49L434.53,34.56L438.38,33.24L439.34,34.33L440.3,32.64L441.26,35.71L444.15,33.81L445.11,38.47L446.07,37.07L447.03,43.47L447.99,47.75L450.88,45.84L451.84,48.85L452.8,45.76L453.76,43.68L454.72,49.47L459.53,39.68L460.49,47.64L461.45,48.28L464.34,48.34L466.26,56.05L467.22,56.37L468.18,51.58L471.07,50.71L472.03,51.34L472.99,48.35L473.95,48.36L474.91,45.42L477.79,46.58L478.76,52.34L479.72,47.26L480.68,48.3L481.64,45.85L485.49,43.98L486.45,46.93L487.41,45.74L488.37,50.87L491.25,50.58L492.21,46.87L493.18,47.21L494.14,44.47L495.1,44.11L497.98,44.91L498.94,38.01L499.91,36.44L500.87,37.45L501.83,36.35L504.71,37.6L505.67,37.2L506.64,35.16L507.6,34.44L508.56,34.8L511.44,30.85L512.4,31.68L513.36,33.31L514.33,33.18L515.29,31.29L518.17,31.75L519.13,29.27L520.09,31.03L521.06,32.34L522.02,30.74L526.82,34.86L527.79,34.93L528.75,42.47L531.63,41.55L532.59,39.31L533.55,39.33L534.51,39.39L535.48,36.62L538.36,35.32L539.32,36.92L540.28,34.09L541.24,41.53L542.21,40.97L545.09,42.04L546.05,39.62L547.01,47.04L547.97,47.73L548.93,52.33L551.82,53.46L552.78,46.89L554.7,50.94L555.66,49.57L558.55,54.06L559.51,53L560.47,57.33L562.39,53.6L565.28,58.48L566.24,54.06L567.2,47.25L568.16,46.8L569.12,45.56L572.01,46.74L572.97,48.09L573.93,44.06L574.89,40.46L575.85,40.35L578.74,38.26L579.7,44.31L581.62,42.56L582.58,46.22L585.47,49.77L586.43,48.43L587.39,48.94L588.35,48.16L589.31,43.94L592.2,41.9L594.12,41.87L595.08,45.81L596.04,45.68L598.93,47.76L600.85,52.3L601.81,52.04L602.77,57.31L605.66,56.75L606.62,61.65L607.58,58.64L608.54,56.22L609.5,61.3L612.38,57.76L613.35,63.46L614.31,64.18L615.27,70.48L616.23,71.72L620.08,74.35L622,65.98L622.96,69.5L626.8,63.89L627.77,64.66L629.69,58.48L632.57,60.7L633.53,68.31L634.5,69.64L635.46,68.68L636.42,70.01L639.3,68.82L640.26,66.08L641.23,62.41L642.19,66.01L643.15,66.6L646.99,66.83L647.95,64.98L648.92,67.91L649.88,65.93L652.76,62.04L653.72,59.68L654.68,59.49L655.65,61.79L656.61,68.28L659.49,68.44L660.45,69.36L661.41,68.52L662.38,72.93L663.34,75.94L666.22,79.1L667.18,70.53L668.14,71.49L669.1,70.76L670.07,74.76L672.95,74.33L673.91,65.69L674.87,71.71L675.83,66.33L679.68,62.48L680.64,62.81L683.52,69.31L686.41,68.35L687.37,60.31L688.33,61.24L690.25,61.23L693.14,61.17L695.06,62.92L696.02,61.8L696.98,67.07L699.87,67.55L700.83,66.31L701.79,61.03L702.75,61L703.71,56.3L706.6,56.8L707.56,58.95L710.44,55.43L713.33,55.84L715.25,56.9L716.21,53L717.17,52.01L720.06,53.83L721.02,52.78L721.98,57.02L722.94,55.94L723.9,58.43L726.79,55.75L727.75,56.65L729.67,53.35L730.63,53.48L733.52,52.63L734.48,56.72L735.44,61.4L736.4,60.9L737.36,63.9L741.21,62.49L743.13,60.47L744.09,60.64L746.97,63.4L747.94,65.48L748.9,65.73L749.86,61.33L750.82,69.44L753.7,68L754.67,67.8L755.63,72.03L756.59,70.85L757.55,67.44L760.43,68.23L761.39,70.46L762.36,73.16L763.32,72.46L764.28,76.99L767.16,77L769.09,77.62L770.05,84.99L771.01,87.19L773.89,87.12L774.85,86.45L775.82,89.88L776.78,88.38L780.62,89.54L781.58,86.41L782.54,91.28L783.51,89.6L784.47,92.24L787.35,93.18L788.31,95.08L790.24,85.13L791.2,84.1L794.08,84.7L795.04,81.93L796,81.31L796.97,87.13L797.93,86.69L800.81,91.62L802.73,82.31L803.69,86.54L804.66,87.6L807.54,88.47L808.5,81.65L809.46,80.83L810.42,85.44L811.39,79.22L814.27,78.23L815.23,81.1L816.19,83.36L817.15,81.65L818.11,80.75L821,84.46L821.96,87.15L822.92,85.73L823.88,85.47L824.84,81.4L827.73,86.37L828.69,85.82L829.65,83.98L830.61,79.61L831.57,83.13L835.42,83.69L836.38,83.36L837.34,90.44L838.3,89.77L841.19,83.81L842.15,89.57L843.11,88.78L844.07,85.4L845.03,85.64L847.92,96L848.88,93.1L849.84,102.33L850.8,93.9L851.76,86.33L854.65,93.99L855.61,97.31L856.57,97.9L858.49,91.37L861.38,107.35L862.34,97.38L863.3,97.78L865.22,108.17L868.11,115.78L870.99,144.06L871.95,146.69L874.84,127.45L875.8,129.02L876.76,144.09L877.72,135.84L878.68,138.45L881.56,129.96L882.53,134.72L883.49,145.3L884.45,141.76L885.41,148.18L888.29,152.36L889.26,134.08L890.22,135.6L891.18,131.7L892.14,128.74L895.02,128.84L895.98,122.56L896.95,132.55L897.91,141.67L898.87,136.57L901.75,138.08L902.71,141.7L903.68,150.16L904.64,138.8L905.6,145.75L908.48,150.34L909.44,147.24L910.41,156.02L911.37,165.17L912.33,155.01L916.17,146.11L917.13,141.03L919.06,138.93L921.94,152.9L923.86,143.81L924.83,148.23L925.79,142.91L928.67,136.77L929.63,141.76L930.59,140.32L931.56,144.35L932.52,143.03L935.4,144.37L936.36,136.97L937.32,139.03L938.28,143.53L942.13,145.29L943.09,147.35L945.98,145.37L948.86,146.02L950.78,140.01L952.7,134.7L955.59,136.38L956.55,135.1L957.51,140.15L958.47,140.71L959.43,143.65L962.32,146.23L963.28,146.75L964.24,151.85L965.2,151.6L966.16,150.19L970.01,157.01L970.97,151.28L972.89,154.37L975.78,153.58L976.74,152.38L977.7,148.25L979.62,155.95L982.51,157.27L983.47,154.36L984.43,156.86L985.39,154.67L986.35,150.2L989.24,150.4L990.2,158.25L991.16,157.21L992.12,157.35L996.93,165.16L997.89,165.1L1002.7,174.16L1003.66,169.31L1006.54,175.23L1009.43,181.39L1010.39,182.15L1011.35,179.07L1012.31,184.86L1013.27,184.19L1016.15,185.83L1017.12,178.03L1018.08,177.95L1019.04,173.03L1020,171.92" style="vector-effect: non-scaling-stroke; fill: none; stroke: rgb(254, 203, 82); stroke-opacity: 1; stroke-width: 2px; opacity: 1;"/></g><g class="points"/><g class="text"/></g></g></g><g class="overplot"/><path class="xlines-above crisp" d="M0,0" style="fill: none;"/><path class="ylines-above crisp" d="M0,0" style="fill: none;"/><g class="overlines-above"/><g class="xaxislayer-above"><g class="xtick"><text text-anchor="middle" x="0" y="280" transform="translate(122.1,0)" style="font-family: 'Open Sans', verdana, arial, sans-serif; font-size: 12px; fill: rgb(42, 63, 95); fill-opacity: 1; white-space: pre; opacity: 1;">Jul 2006</text></g><g class="xtick"><text text-anchor="middle" x="0" y="280" style="font-family: 'Open Sans', verdana, arial, sans-serif; font-size: 12px; fill: rgb(42, 63, 95); fill-opacity: 1; white-space: pre; opacity: 1;" transform="translate(298.99,0)">Jan 2007</text></g><g class="xtick"><text text-anchor="middle" x="0" y="280" style="font-family: 'Open Sans', verdana, arial, sans-serif; font-size: 12px; fill: rgb(42, 63, 95); fill-opacity: 1; white-space: pre; opacity: 1;" transform="translate(473,0)">Jul 2007</text></g><g class="xtick"><text text-anchor="middle" x="0" y="280" style="font-family: 'Open Sans', verdana, arial, sans-serif; font-size: 12px; fill: rgb(42, 63, 95); fill-opacity: 1; white-space: pre; opacity: 1;" transform="translate(649.89,0)">Jan 2008</text></g><g class="xtick"><text text-anchor="middle" x="0" y="280" style="font-family: 'Open Sans', verdana, arial, sans-serif; font-size: 12px; fill: rgb(42, 63, 95); fill-opacity: 1; white-space: pre; opacity: 1;" transform="translate(824.85,0)">Jul 2008</text></g><g class="xtick"><text text-anchor="middle" x="0" y="280" style="font-family: 'Open Sans', verdana, arial, sans-serif; font-size: 12px; fill: rgb(42, 63, 95); fill-opacity: 1; white-space: pre; opacity: 1;" transform="translate(1001.74,0)">Jan 2009</text></g></g><g class="yaxislayer-above"><g class="ytick"><text text-anchor="end" x="49" y="4.199999999999999" transform="translate(0,257.07)" style="font-family: 'Open Sans', verdana, arial, sans-serif; font-size: 12px; fill: rgb(42, 63, 95); fill-opacity: 1; white-space: pre; opacity: 1;">6k</text></g><g class="ytick"><text text-anchor="end" x="49" y="4.199999999999999" style="font-family: 'Open Sans', verdana, arial, sans-serif; font-size: 12px; fill: rgb(42, 63, 95); fill-opacity: 1; white-space: pre; opacity: 1;" transform="translate(0,215.97)">8k</text></g><g class="ytick"><text text-anchor="end" x="49" y="4.199999999999999" style="font-family: 'Open Sans', verdana, arial, sans-serif; font-size: 12px; fill: rgb(42, 63, 95); fill-opacity: 1; white-space: pre; opacity: 1;" transform="translate(0,174.86)">10k</text></g><g class="ytick"><text text-anchor="end" x="49" y="4.199999999999999" style="font-family: 'Open Sans', verdana, arial, sans-serif; font-size: 12px; fill: rgb(42, 63, 95); fill-opacity: 1; white-space: pre; opacity: 1;" transform="translate(0,133.76)">12k</text></g><g class="ytick"><text text-anchor="end" x="49" y="4.199999999999999" style="font-family: 'Open Sans', verdana, arial, sans-serif; font-size: 12px; fill: rgb(42, 63, 95); fill-opacity: 1; white-space: pre; opacity: 1;" transform="translate(0,92.65)">14k</text></g></g><g class="overaxes-above"/></g></g><g class="polarlayer"/><g class="ternarylayer"/><g class="geolayer"/><g class="funnelarealayer"/><g class="pielayer"/><g class="iciclelayer"/><g class="treemaplayer"/><g class="sunburstlayer"/><g class="glimages"/><defs id="topdefs-07758f"><g class="clips"/><clipPath id="legend07758f"><rect width="136" height="200" x="0" y="0"/></clipPath></defs><g class="layer-above"><g class="imagelayer"/><g class="shapelayer"/></g><g class="infolayer"><g class="legend" pointer-events="all" transform="translate(1090.4,60)"><rect class="bg" shape-rendering="crispEdges" width="136" height="200" x="0" y="0" style="stroke: rgb(68, 68, 68); stroke-opacity: 1; fill: rgb(255, 255, 255); fill-opacity: 1; stroke-width: 0px;"/><g class="scrollbox" transform="" clip-path="url(#legend07758f)"><g class="groups"><g class="traces" transform="translate(0,14.5)" style="opacity: 1;"><text class="legendtext" text-anchor="start" x="40" y="4.680000000000001" style="font-family: 'Open Sans', verdana, arial, sans-serif; font-size: 12px; fill: rgb(42, 63, 95); fill-opacity: 1; white-space: pre;">Conic =0.1</text><g class="layers" style="opacity: 1;"><g class="legendfill"/><g class="legendlines"><path class="js-line" d="M5,0h30" style="fill: none; stroke: rgb(99, 110, 250); stroke-opacity: 1; stroke-width: 2px;"/></g><g class="legendsymbols"><g class="legendpoints"/></g></g><rect class="legendtoggle" x="0" y="-9.5" width="130.8186798095703" height="19" style="fill: rgb(0, 0, 0); fill-opacity: 0;"/></g><g class="traces" transform="translate(0,33.5)" style="opacity: 1;"><text class="legendtext" text-anchor="start" x="40" y="4.680000000000001" style="font-family: 'Open Sans', verdana, arial, sans-serif; font-size: 12px; fill: rgb(42, 63, 95); fill-opacity: 1; white-space: pre;">Conic =3.275</text><g class="layers" style="opacity: 1;"><g class="legendfill"/><g class="legendlines"><path class="js-line" d="M5,0h30" style="fill: none; stroke: rgb(239, 85, 59); stroke-opacity: 1; stroke-width: 2px;"/></g><g class="legendsymbols"><g class="legendpoints"/></g></g><rect class="legendtoggle" x="0" y="-9.5" width="130.8186798095703" height="19" style="fill: rgb(0, 0, 0); fill-opacity: 0;"/></g><g class="traces" transform="translate(0,52.5)" style="opacity: 1;"><text class="legendtext" text-anchor="start" x="40" y="4.680000000000001" style="font-family: 'Open Sans', verdana, arial, sans-serif; font-size: 12px; fill: rgb(42, 63, 95); fill-opacity: 1; white-space: pre;">Conic =6.45</text><g class="layers" style="opacity: 1;"><g class="legendfill"/><g class="legendlines"><path class="js-line" d="M5,0h30" style="fill: none; stroke: rgb(0, 204, 150); stroke-opacity: 1; stroke-width: 2px;"/></g><g class="legendsymbols"><g class="legendpoints"/></g></g><rect class="legendtoggle" x="0" y="-9.5" width="130.8186798095703" height="19" style="fill: rgb(0, 0, 0); fill-opacity: 0;"/></g><g class="traces" transform="translate(0,71.5)" style="opacity: 1;"><text class="legendtext" text-anchor="start" x="40" y="4.680000000000001" style="font-family: 'Open Sans', verdana, arial, sans-serif; font-size: 12px; fill: rgb(42, 63, 95); fill-opacity: 1; white-space: pre;">Conic =9.625</text><g class="layers" style="opacity: 1;"><g class="legendfill"/><g class="legendlines"><path class="js-line" d="M5,0h30" style="fill: none; stroke: rgb(171, 99, 250); stroke-opacity: 1; stroke-width: 2px;"/></g><g class="legendsymbols"><g class="legendpoints"/></g></g><rect class="legendtoggle" x="0" y="-9.5" width="130.8186798095703" height="19" style="fill: rgb(0, 0, 0); fill-opacity: 0;"/></g><g class="traces" transform="translate(0,90.5)" style="opacity: 1;"><text class="legendtext" text-anchor="start" x="40" y="4.680000000000001" style="font-family: 'Open Sans', verdana, arial, sans-serif; font-size: 12px; fill: rgb(42, 63, 95); fill-opacity: 1; white-space: pre;">Conic =12.8</text><g class="layers" style="opacity: 1;"><g class="legendfill"/><g class="legendlines"><path class="js-line" d="M5,0h30" style="fill: none; stroke: rgb(255, 161, 90); stroke-opacity: 1; stroke-width: 2px;"/></g><g class="legendsymbols"><g class="legendpoints"/></g></g><rect class="legendtoggle" x="0" y="-9.5" width="130.8186798095703" height="19" style="fill: rgb(0, 0, 0); fill-opacity: 0;"/></g><g class="traces" transform="translate(0,109.5)" style="opacity: 1;"><text class="legendtext" text-anchor="start" x="40" y="4.680000000000001" style="font-family: 'Open Sans', verdana, arial, sans-serif; font-size: 12px; fill: rgb(42, 63, 95); fill-opacity: 1; white-space: pre;">Mean-Variance</text><g class="layers" style="opacity: 1;"><g class="legendfill"/><g class="legendlines"><path class="js-line" d="M5,0h30" style="fill: none; stroke: rgb(25, 211, 243); stroke-opacity: 1; stroke-width: 2px;"/></g><g class="legendsymbols"><g class="legendpoints"/></g></g><rect class="legendtoggle" x="0" y="-9.5" width="130.8186798095703" height="19" style="fill: rgb(0, 0, 0); fill-opacity: 0;"/></g><g class="traces" transform="translate(0,128.5)" style="opacity: 1;"><text class="legendtext" text-anchor="start" x="40" y="4.680000000000001" style="font-family: 'Open Sans', verdana, arial, sans-serif; font-size: 12px; fill: rgb(42, 63, 95); fill-opacity: 1; white-space: pre;">Mean-VaR</text><g class="layers" style="opacity: 1;"><g class="legendfill"/><g class="legendlines"><path class="js-line" d="M5,0h30" style="fill: none; stroke: rgb(255, 102, 146); stroke-opacity: 1; stroke-width: 2px;"/></g><g class="legendsymbols"><g class="legendpoints"/></g></g><rect class="legendtoggle" x="0" y="-9.5" width="130.8186798095703" height="19" style="fill: rgb(0, 0, 0); fill-opacity: 0;"/></g><g class="traces" transform="translate(0,147.5)" style="opacity: 1;"><text class="legendtext" text-anchor="start" x="40" y="4.680000000000001" style="font-family: 'Open Sans', verdana, arial, sans-serif; font-size: 12px; fill: rgb(42, 63, 95); fill-opacity: 1; white-space: pre;">Mean-CVaR 95%</text><g class="layers" style="opacity: 1;"><g class="legendfill"/><g class="legendlines"><path class="js-line" d="M5,0h30" style="fill: none; stroke: rgb(182, 232, 128); stroke-opacity: 1; stroke-width: 2px;"/></g><g class="legendsymbols"><g class="legendpoints"/></g></g><rect class="legendtoggle" x="0" y="-9.5" width="130.8186798095703" height="19" style="fill: rgb(0, 0, 0); fill-opacity: 0;"/></g><g class="traces" transform="translate(0,166.5)" style="opacity: 1;"><text class="legendtext" text-anchor="start" x="40" y="4.680000000000001" style="font-family: 'Open Sans', verdana, arial, sans-serif; font-size: 12px; fill: rgb(42, 63, 95); fill-opacity: 1; white-space: pre;">Mean-CVaR 99%</text><g class="layers" style="opacity: 1;"><g class="legendfill"/><g class="legendlines"><path class="js-line" d="M5,0h30" style="fill: none; stroke: rgb(255, 151, 255); stroke-opacity: 1; stroke-width: 2px;"/></g><g class="legendsymbols"><g class="legendpoints"/></g></g><rect class="legendtoggle" x="0" y="-9.5" width="130.8186798095703" height="19" style="fill: rgb(0, 0, 0); fill-opacity: 0;"/></g><g class="traces" transform="translate(0,185.5)" style="opacity: 1;"><text class="legendtext" text-anchor="start" x="40" y="4.680000000000001" style="font-family: 'Open Sans', verdana, arial, sans-serif; font-size: 12px; fill: rgb(42, 63, 95); fill-opacity: 1; white-space: pre;">DJIA</text><g class="layers" style="opacity: 1;"><g class="legendfill"/><g class="legendlines"><path class="js-line" d="M5,0h30" style="fill: none; stroke: rgb(254, 203, 82); stroke-opacity: 1; stroke-width: 2px;"/></g><g class="legendsymbols"><g class="legendpoints"/></g></g><rect class="legendtoggle" x="0" y="-9.5" width="130.8186798095703" height="19" style="fill: rgb(0, 0, 0); fill-opacity: 0;"/></g></g></g><rect class="scrollbar" rx="20" ry="3" width="0" height="0" x="0" y="0" style="fill: rgb(128, 139, 164); fill-opacity: 1;"/></g><g class="g-gtitle"/><g class="g-xtitle"/><g class="g-ytitle"/></g></svg>