<svg class="main-svg" xmlns="http://www.w3.org/2000/svg" xmlns:xlink="http://www.w3.org/1999/xlink" width="1238" height="317" style=""><rect x="0" y="0" width="1238" height="317" style="fill: rgb(255, 255, 255); fill-opacity: 1;"/><defs id="defs-cac065"><g class="clips"><clipPath id="clipcac065xyplot" class="plotclip"><rect width="1020" height="207"/></clipPath><clipPath class="axesclip" id="clipcac065x"><rect x="50" y="0" width="1020" height="317"/></clipPath><clipPath class="axesclip" id="clipcac065y"><rect x="0" y="60" width="1238" height="207"/></clipPath><clipPath class="axesclip" id="clipcac065xy"><rect x="50" y="60" width="1020" height="207"/></clipPath></g><g class="gradients"/><g class="patterns"/></defs><g class="bglayer"><rect class="bg" x="50" y="60" width="1020" height="207" style="fill: rgb(229, 236, 246); fill-opacity: 1; stroke-width: 0;"/></g><g class="layer-below"><g class="imagelayer"/><g class="shapelayer"/></g><g class="cartesianlayer"><g class="subplot xy"><g class="layer-subplot"><g class="shapelayer"/><g class="imagelayer"/></g><g class="gridlayer"><g class="x"><path class="xgrid crisp" transform="translate(115.19,0)" d="M0,60v207" style="stroke: rgb(255, 255, 255); stroke-opacity: 1; stroke-width: 1px;"/><path class="xgrid crisp" transform="translate(232.14,0)" d="M0,60v207" style="stroke: rgb(255, 255, 255); stroke-opacity: 1; stroke-width: 1px;"/><path class="xgrid crisp" transform="translate(347.18,0)" d="M0,60v207" style="stroke: rgb(255, 255, 255); stroke-opacity: 1; stroke-width: 1px;"/><path class="xgrid crisp" transform="translate(464.14,0)" d="M0,60v207" style="stroke: rgb(255, 255, 255); stroke-opacity: 1; stroke-width: 1px;"/><path class="xgrid crisp" transform="translate(581.09,0)" d="M0,60v207" style="stroke: rgb(255, 255, 255); stroke-opacity: 1; stroke-width: 1px;"/><path class="xgrid crisp" transform="translate(699.96,0)" d="M0,60v207" style="stroke: rgb(255, 255, 255); stroke-opacity: 1; stroke-width: 1px;"/><path class="xgrid crisp" transform="translate(816.92,0)" d="M0,60v207" style="stroke: rgb(255, 255, 255); stroke-opacity: 1; stroke-width: 1px;"/><path class="xgrid crisp" transform="translate(933.87,0)" d="M0,60v207" style="stroke: rgb(255, 255, 255); stroke-opacity: 1; stroke-width: 1px;"/><path class="xgrid crisp" transform="translate(1046.99,0)" d="M0,60v207" style="stroke: rgb(255, 255, 255); stroke-opacity: 1; stroke-width: 1px;"/></g><g class="y"><path class="ygrid crisp" transform="translate(0,253.58)" d="M50,0h1020" style="stroke: rgb(255, 255, 255); stroke-opacity: 1; stroke-width: 1px;"/><path class="ygrid crisp" transform="translate(0,211.25)" d="M50,0h1020" style="stroke: rgb(255, 255, 255); stroke-opacity: 1; stroke-width: 1px;"/><path class="ygrid crisp" transform="translate(0,168.92000000000002)" d="M50,0h1020" style="stroke: rgb(255, 255, 255); stroke-opacity: 1; stroke-width: 1px;"/><path class="ygrid crisp" transform="translate(0,126.59)" d="M50,0h1020" style="stroke: rgb(255, 255, 255); stroke-opacity: 1; stroke-width: 1px;"/><path class="ygrid crisp" transform="translate(0,84.26)" d="M50,0h1020" style="stroke: rgb(255, 255, 255); stroke-opacity: 1; stroke-width: 1px;"/></g></g><g class="zerolinelayer"/><path class="xlines-below"/><path class="ylines-below"/><g class="overlines-below"/><g class="xaxislayer-below"/><g class="yaxislayer-below"/><g class="overaxes-below"/><g class="plot" transform="translate(50,60)" clip-path="url(#clipcac065xyplot)"><g class="scatterlayer mlayer"><g class="trace scatter trace2ad465" style="stroke-miterlimit: 2; opacity: 1;"><g class="fills"/><g class="errorbars"/><g class="lines"><path class="js-line" d="M0,26.47L5.75,23.64L7.67,24.1L9.59,25.08L11.5,24.71L13.42,23.6L19.17,24.36L21.09,23.18L23.01,23.22L24.92,23.95L26.84,23.19L34.51,24.66L36.43,24.04L38.35,23.66L40.26,29.14L51.77,25.91L53.68,23.99L59.44,22.32L61.35,24.8L63.27,22.54L65.19,26.99L67.11,25.92L72.86,26.42L74.77,24.87L76.69,29.59L78.61,27.37L80.53,30.34L86.28,30.4L88.2,24.82L90.11,25.98L92.03,24.66L93.95,20.51L99.7,22.13L101.62,20.74L103.53,24.15L107.37,21.67L113.12,24.35L116.95,16.75L118.87,16L120.79,17.29L126.54,17.44L128.46,16.56L130.38,14.06L132.29,12.47L134.21,12.88L139.96,11.55L141.88,14.32L143.8,11.35L145.71,10.92L147.63,13.75L153.38,16.72L159.14,15.03L161.05,11.12L166.8,10.35L170.64,10.85L172.56,13.6L174.47,13.1L184.06,19.78L185.98,19.37L187.89,21.77L193.65,18.34L195.56,19.74L197.48,16.3L199.4,15.05L201.32,20.42L207.07,17.45L208.98,20.43L210.9,22.04L212.82,25.65L214.74,29.66L222.41,35.35L226.24,32.97L228.16,37.4L233.91,34L235.83,34.34L237.74,35.82L239.66,31.33L241.58,29.47L247.33,30.47L249.25,36.31L251.17,36.25L253.08,34.68L255,35.4L260.75,33.77L262.67,30.71L264.59,28.73L266.5,32.11L268.42,32.44L276.09,32.56L278.01,31.96L279.92,33.49L281.84,31.43L287.59,27.75L289.51,25.14L291.43,25.93L293.35,27.36L295.26,32.02L302.93,30.13L304.85,27.93L308.68,33.29L314.44,34.64L316.35,29.27L318.27,29.5L320.19,28.64L322.11,32.26L327.86,30.33L329.77,23L331.69,25.38L333.61,22.75L343.2,20.69L345.11,21.31L348.95,23.4L354.7,21.75L356.62,17.26L358.53,19.57L370.04,18.76L371.95,19.45L373.87,17.02L375.79,20.6L383.46,18.7L385.38,16.78L387.29,17.54L389.21,15.57L396.88,15.7L398.8,14.82L400.71,15.06L402.63,17.31L408.38,19.02L410.3,20.85L412.22,20.76L414.14,19L416.05,17.39L421.8,18.73L423.72,18.46L425.64,21.52L427.56,21L429.47,22.83L439.06,18.81L440.98,16.93L442.89,16.27L448.65,15.78L452.48,21.84L454.4,18.7L456.32,20.58L463.98,19.29L465.9,20L467.82,16.41L469.74,16.28L475.49,18.68L477.41,19.26L479.32,18.36L481.24,14.9L483.16,22.15L488.91,21.03L490.83,18.59L492.74,21.27L494.66,19.85L496.58,20.1L502.33,22.91L504.25,23.49L506.17,26.9L508.08,25.89L510,29.04L517.67,28.17L519.59,25.82L523.42,36.42L529.17,35L533.01,35.58L534.92,33.92L542.59,34.01L544.51,30.7L546.43,33.33L548.35,31.93L550.26,33.37L556.02,32.28L559.85,27.92L561.77,31.09L569.44,32.84L571.35,28.47L573.27,26.41L575.19,28.17L577.11,27.36L582.86,31.02L586.69,25.9L588.61,28.77L590.53,27.17L596.28,25.91L598.2,19.69L600.11,17.94L602.03,22L603.95,16.94L611.62,16.43L613.53,17.47L615.45,17.53L617.37,15.77L623.12,18.57L625.04,20.46L626.95,19.98L628.87,20.52L630.79,16.51L636.54,20.91L638.46,21L640.38,19.54L642.29,17.61L644.21,22.13L653.8,22.19L655.71,26.76L657.63,26.25L663.38,20.44L665.3,23.81L667.22,22.42L669.14,19.65L671.05,19.18L676.8,24.1L678.72,23.44L680.64,30.99L682.56,25.35L684.47,24.09L690.23,31.18L692.14,35.36L694.06,34.9L695.98,30.02L697.89,28.44L703.65,41.58L705.56,31.69L707.48,32.22L709.4,37.16L717.07,50.82L718.98,61.4L720.9,66.76L722.82,84.57L724.74,91.27L730.49,66.17L732.41,68.81L734.32,83.51L736.24,73.35L738.16,76.43L743.91,66.97L745.83,70.22L747.74,79.57L749.66,77.79L751.58,85.03L757.33,89.36L759.25,69.58L761.17,75.26L765,70.22L770.75,69.17L772.67,64.64L774.59,73.95L776.5,81.15L778.42,74.51L784.17,75.32L786.09,80.78L788.01,88.85L789.92,74.5L791.84,83.38L797.59,87.82L799.51,83.61L801.43,93.72L803.35,105.51L805.26,92.32L811.02,86.24L812.93,85.93L814.85,82.3L818.68,79.8L824.44,95.39L826.35,93.11L828.27,88.18L830.19,95.1L832.11,88.8L837.86,86.98L839.77,91.95L841.69,90.53L843.61,93.43L845.53,92.86L851.28,92L853.2,85.31L857.03,90.09L858.95,90.83L864.7,91.58L866.62,93.81L872.37,91.75L878.12,92.39L880.04,88.5L881.95,86.37L885.79,81.17L891.54,82.59L893.46,83.31L895.38,86.06L897.29,86.68L899.21,88.7L904.96,90.63L906.88,89.44L908.8,95.2L910.71,94.37L912.63,92.48L920.3,97.14L922.22,93.25L924.14,94.75L926.05,97.24L931.8,94.62L933.72,93.08L935.64,89.23L937.56,91.67L939.47,96.97L945.23,99.69L947.14,95.45L949.06,99.07L950.98,97.38L952.89,93.12L958.65,94.47L960.56,102.65L962.48,101.09L964.4,97.84L966.32,100.49L973.98,106.08L975.9,105.04L977.82,104.22L979.74,106.41L985.49,112.18L987.41,107.44L989.32,109.01L991.24,112.63L1000.83,125.36L1002.74,120.23L1004.66,126.17L1006.58,125.03L1012.33,128.29L1014.25,121.75L1016.17,120.61L1018.08,115.79L1020,113.04" style="vector-effect: non-scaling-stroke; fill: none; stroke: rgb(99, 110, 250); stroke-opacity: 1; stroke-width: 2px; opacity: 1;"/></g><g class="points"/><g class="text"/></g><g class="trace scatter trace1ea749" style="stroke-miterlimit: 2; opacity: 1;"><g class="fills"/><g class="errorbars"/><g class="lines"><path class="js-line" d="M0,26.47L5.75,23.51L7.67,23.98L9.59,24.68L11.5,24.2L13.42,23.18L19.17,24.18L21.09,22.83L23.01,23.18L24.92,24.02L26.84,23.36L34.51,25.35L36.43,24.4L38.35,23.91L40.26,29.46L46.02,28.43L47.93,27.18L51.77,26.54L53.68,24.98L59.44,23.31L61.35,26.31L63.27,24.25L65.19,29.09L67.11,28.01L72.86,28.13L74.77,26.38L76.69,31.43L78.61,28.55L80.53,30.51L86.28,30.56L88.2,25.64L90.11,26.61L92.03,25.87L93.95,21.72L99.7,22.98L101.62,21.94L103.53,25.85L107.37,23.24L113.12,25.91L116.95,18.37L118.87,17.5L120.79,18.15L126.54,18.57L128.46,18.03L130.38,15.51L132.29,13.79L134.21,13.76L139.96,12.45L141.88,15.2L143.8,12.51L145.71,12.28L147.63,15.02L153.38,18.06L159.14,17.12L161.05,13.18L166.8,12.42L170.64,12.81L172.56,15.43L174.47,15.03L180.23,18.37L184.06,21.49L185.98,21.01L187.89,22.98L193.65,19.36L195.56,20.5L197.48,17.41L199.4,16.22L201.32,21.88L207.07,19.65L208.98,22.88L210.9,24.22L214.74,33.46L222.41,38.99L226.24,37.24L228.16,41.35L233.91,38.16L235.83,38.03L237.74,39.48L239.66,35.25L241.58,33.36L247.33,34.13L249.25,39.93L251.17,39.86L253.08,38.13L255,39.48L260.75,38.62L262.67,35.38L264.59,33.48L266.5,36.49L268.42,36.83L276.09,37.16L278.01,37.1L279.92,38.55L281.84,36.24L287.59,32.7L289.51,30.71L291.43,32.03L293.35,33.22L295.26,38.06L302.93,37.04L304.85,34.79L308.68,40.56L314.44,42.03L316.35,36.92L318.27,37.44L320.19,36.39L322.11,39.98L327.86,38.19L329.77,30.93L331.69,33.59L333.61,30.84L343.2,28.23L345.11,28.99L348.95,30.78L354.7,29.09L356.62,24.11L358.53,26.1L362.37,26.55L368.12,25.72L370.04,25.98L371.95,27.1L373.87,25.12L375.79,28.41L383.46,27.01L385.38,25.36L387.29,26.56L389.21,24.4L394.96,24.27L396.88,24.98L400.71,24.26L402.63,25.98L408.38,27.28L410.3,29.3L412.22,28.84L414.14,27L416.05,25.2L421.8,26.61L423.72,26.43L425.64,30.4L427.56,29.96L429.47,32.51L439.06,28.79L440.98,27.04L442.89,26.24L448.65,25.36L452.48,31.83L454.4,28.92L456.32,31.02L463.98,30.21L465.9,31.26L467.82,27.59L469.74,27.21L475.49,29.59L477.41,30.39L479.32,29.55L481.24,26.16L483.16,33.39L488.91,32.48L490.83,30.34L492.74,32.86L494.66,31.54L496.58,31.68L502.33,34.75L504.25,35.53L506.17,38.75L508.08,37.53L510,40.88L517.67,40.71L519.59,38.86L523.42,49.47L529.17,47.89L533.01,47.98L534.92,46.31L542.59,46.67L544.51,43.1L546.43,45.42L548.35,44.71L550.26,46.39L556.02,45.44L557.93,44.56L559.85,41.95L561.77,44.26L563.68,44.66L569.44,45.66L571.35,41.51L573.27,38.85L575.19,41.32L577.11,40.62L582.86,44.76L586.69,39.09L588.61,42.33L590.53,40.62L596.28,39.43L598.2,32.55L600.11,31.59L602.03,36.39L603.95,30.61L611.62,30.11L613.53,31.78L615.45,31.66L617.37,29.56L623.12,32.39L625.04,34.61L626.95,34.14L628.87,34.96L630.79,31.03L636.54,35.66L638.46,35.58L640.38,34.18L642.29,31.45L644.21,35.41L653.8,34.08L655.71,39.03L657.63,38.09L663.38,32.45L665.3,36.52L667.22,36.43L669.14,33.89L671.05,35.65L676.8,45.41L678.72,46.31L680.64,56.2L682.56,49.97L684.47,47.03L690.23,52.73L692.14,56.47L694.06,58.11L695.98,54.63L697.89,52.91L703.65,65.79L705.56,55.38L707.48,53.9L709.4,57.63L717.07,70.22L718.98,79.96L720.9,84.89L722.82,103.09L724.74,108.49L730.49,85.5L732.41,87.14L734.32,101.65L736.24,92.62L738.16,95.85L743.91,86.56L745.83,89.27L747.74,97.98L749.66,95.4L751.58,103.07L757.33,107.06L759.25,87.76L761.17,94.46L765,89.33L770.75,87.72L772.67,82.73L774.59,91.93L776.5,98.74L778.42,92L784.17,91.71L786.09,96.93L788.01,104.69L789.92,91.62L791.84,99.24L797.59,103.25L799.51,99.67L801.43,109.64L803.35,120.53L805.26,108.05L811.02,102.62L812.93,102.39L814.85,98.59L818.68,95.75L824.44,110.65L826.35,108.28L828.27,103.47L830.19,109.9L832.11,104.47L837.86,103.71L839.77,108.37L841.69,107.61L843.61,110.01L845.53,109.41L851.28,109.02L853.2,102.92L857.03,107.06L858.95,107.82L864.7,108.11L866.62,110.36L872.37,108.37L878.12,109.04L881.95,103.62L885.79,98.9L893.46,101.6L895.38,104.09L897.29,104.37L899.21,105.83L904.96,107.84L906.88,106.97L908.8,112.35L910.71,112.25L912.63,110.38L920.3,114.2L922.22,111.6L924.14,112.93L926.05,115.05L931.8,113.25L933.72,111.73L935.64,108.22L937.56,110.37L939.47,115.53L945.23,118.35L947.14,115.22L949.06,118.77L950.98,117.27L952.89,113.84L958.65,115.02L960.56,122.89L962.48,121.74L964.4,119.6L966.32,122.02L973.98,127.47L975.9,126.95L977.82,126.9L979.74,129.14L985.49,134.09L987.41,130.86L989.32,131.69L991.24,134.8L993.16,138.39L998.91,145.32L1000.83,147.03L1002.74,142.52L1004.66,148.41L1006.58,147.29L1012.33,150.03L1014.25,143.72L1016.17,143.08L1018.08,138.96L1020,135.5" style="vector-effect: non-scaling-stroke; fill: none; stroke: rgb(239, 85, 59); stroke-opacity: 1; stroke-width: 2px; opacity: 1;"/></g><g class="points"/><g class="text"/></g><g class="trace scatter tracecf36bf" style="stroke-miterlimit: 2; opacity: 1;"><g class="fills"/><g class="errorbars"/><g class="lines"><path class="js-line" d="M0,26.47L5.75,23.54L7.67,23.88L9.59,24.38L11.5,23.99L13.42,22.86L19.17,23.87L21.09,22.38L23.01,22.99L24.92,23.67L26.84,23.04L34.51,25.38L36.43,24.64L38.35,24.38L40.26,29.97L46.02,29.09L47.93,27.73L51.77,27.93L53.68,26.24L59.44,24.5L61.35,27.37L63.27,25.37L65.19,30.63L67.11,29.56L72.86,29.57L74.77,27.72L76.69,33.21L78.61,30.6L80.53,31.93L86.28,31.67L88.2,26.75L90.11,27.89L92.03,27.78L93.95,23.82L99.7,25.18L101.62,24.44L103.53,28.81L107.37,26.08L113.12,28.94L116.95,21.04L118.87,19.83L128.46,20.31L130.38,17.52L132.29,15.46L134.21,15.53L139.96,14.27L141.88,16.75L143.8,14.2L145.71,14.15L147.63,17.01L153.38,19.84L155.3,19.15L157.22,19.57L159.14,19L161.05,14.92L166.8,14.06L170.64,14.39L172.56,17.06L174.47,16.65L180.23,19.77L184.06,23.2L185.98,22.75L187.89,24.82L193.65,20.96L195.56,22.3L197.48,19.52L199.4,18.25L201.32,23.55L207.07,21.66L208.98,24.94L210.9,25.85L214.74,35.95L222.41,40.78L226.24,39.43L228.16,43.37L235.83,39.32L237.74,40.93L239.66,36.83L241.58,35.12L247.33,35.81L249.25,41.7L251.17,41.84L253.08,40.17L255,42.19L260.75,42.43L264.59,36.94L266.5,39.79L268.42,40.09L276.09,40.38L278.01,40.7L279.92,41.96L281.84,39.48L287.59,35.95L289.51,34.31L291.43,35.9L293.35,37.15L295.26,42.25L302.93,41.58L304.85,39.44L308.68,45.27L314.44,46.72L316.35,41.36L318.27,42.28L320.19,41.31L322.11,44.89L327.86,43.23L329.77,35.77L331.69,38.95L333.61,36.01L343.2,33.02L345.11,34.07L348.95,35.75L354.7,34.07L356.62,28.53L358.53,30.37L362.37,30.96L368.12,29.93L370.04,30.56L371.95,32.34L373.87,30.41L375.79,33.72L381.54,33.48L383.46,32.56L385.38,30.81L387.29,31.71L389.21,29.03L394.96,29.23L396.88,29.92L398.8,29.3L400.71,28.64L402.63,30.3L408.38,31.61L410.3,33.76L412.22,33.55L414.14,31.11L416.05,29.08L421.8,30.55L423.72,30.33L425.64,34.62L427.56,33.99L429.47,37.27L439.06,33.47L440.98,31.86L442.89,31.1L448.65,30.33L452.48,37.01L454.4,34.39L456.32,37.04L463.98,36.26L465.9,37.24L467.82,33.41L469.74,32.91L475.49,35.31L477.41,35.99L479.32,35.36L481.24,31.88L483.16,39.29L488.91,38.76L490.83,37.24L492.74,40.01L494.66,38.47L496.58,37.91L502.33,40.83L504.25,42L506.17,45.22L508.08,43.8L510,47.5L517.67,47.65L519.59,45.84L523.42,56.42L529.17,54.84L531.09,54.47L533.01,54.98L534.92,53.5L542.59,53.66L544.51,49.51L546.43,51.97L548.35,51.53L550.26,53.54L557.93,53.22L559.85,50L563.68,51.51L569.44,52.24L573.27,44.93L575.19,48.11L577.11,47.5L582.86,52.28L586.69,45.99L588.61,49.65L590.53,48.31L596.28,47.18L598.2,39.74L600.11,39.33L602.03,45.15L603.95,39.32L609.7,38.07L611.62,38.73L613.53,40.99L615.45,40.65L617.37,38.39L623.12,41.37L625.04,44.11L626.95,43.64L628.87,44.54L630.79,40.96L636.54,45.65L638.46,45.27L640.38,43.88L642.29,40.17L644.21,43.61L651.88,41.4L653.8,41.26L655.71,46.77L657.63,45.43L663.38,39.95L665.3,45.39L667.22,46.07L669.14,43.68L671.05,48.05L676.8,63.79L678.72,66.28L680.64,78.7L682.56,71.51L684.47,66.48L690.23,70.5L694.06,77.29L695.98,74.57L697.89,72.85L703.65,86.41L705.56,75.7L707.48,73.2L717.07,87.59L718.98,97.04L720.9,101.67L722.82,119.42L724.74,123.75L730.49,102.27L732.41,102.28L734.32,117.3L736.24,108.92L738.16,112.18L743.91,103.26L745.83,106.33L747.74,114.54L749.66,111.1L751.58,119.03L757.33,123.57L759.25,105.06L761.17,112.24L763.08,110.33L765,107.11L770.75,105.26L772.67,100.05L776.5,116.34L778.42,109.6L784.17,108.64L786.09,113.06L788.01,120.9L789.92,109.01L791.84,115.74L797.59,119.68L799.51,115.98L801.43,126.09L803.35,136.57L805.26,125.08L811.02,120.04L812.93,119.58L814.85,115.76L818.68,113.27L824.44,127.45L826.35,124.5L828.27,120.02L830.19,125.87L832.11,121.02L837.86,120.47L839.77,124.55L841.69,124.63L843.61,126.47L845.53,125.81L851.28,125.96L853.2,120.79L857.03,124.18L858.95,124.83L864.7,125L866.62,127.08L872.37,125.33L878.12,126.01L881.95,121.3L885.79,116.84L893.46,119.42L895.38,122.05L899.21,123.37L904.96,125.26L906.88,124.32L908.8,129.07L910.71,129.51L912.63,127.77L920.3,130.96L922.22,128.98L926.05,132.02L931.8,130.99L933.72,129.39L935.64,126.25L937.56,128.49L939.47,133.05L945.23,135.4L947.14,133.36L949.06,136.77L950.98,135.62L952.89,132.48L958.65,133.24L960.56,140.72L962.48,139.7L964.4,138.9L966.32,141.45L973.98,146.54L975.9,146.49L977.82,147.4L979.74,149.61L985.49,153.98L987.41,152.27L989.32,152.31L991.24,154.48L993.16,158.67L998.91,164.57L1000.83,165.86L1002.74,161.92L1004.66,167.35L1006.58,166.6L1012.33,169.04L1014.25,162.65L1016.17,162.45L1018.08,158.91L1020,154.94" style="vector-effect: non-scaling-stroke; fill: none; stroke: rgb(0, 204, 150); stroke-opacity: 1; stroke-width: 2px; opacity: 1;"/></g><g class="points"/><g class="text"/></g><g class="trace scatter tracef42853" style="stroke-miterlimit: 2; opacity: 1;"><g class="fills"/><g class="errorbars"/><g class="lines"><path class="js-line" d="M0,26.47L5.75,23.8L7.67,24.08L9.59,24.7L11.5,24.35L13.42,23.11L19.17,24.19L21.09,22.64L23.01,23.57L24.92,24.5L26.84,23.79L34.51,26.16L36.43,25.56L38.35,25.43L40.26,31.54L46.02,30.51L47.93,29L51.77,29.81L53.68,27.98L59.44,26.34L61.35,28.81L63.27,26.98L65.19,33.03L67.11,32.06L72.86,32.07L74.77,29.91L76.69,36.02L78.61,34.12L80.53,35.68L86.28,35.71L88.2,30.35L92.03,32.52L93.95,29.2L99.7,31.2L101.62,30.49L103.53,35.17L107.37,32.2L113.12,35.58L115.04,31.18L116.95,26.53L118.87,25.12L120.79,24.73L126.54,25.85L128.46,26.34L130.38,22.88L132.29,20.35L134.21,20.34L139.96,19.48L141.88,22.48L143.8,19.7L145.71,19.62L147.63,22.7L153.38,25.45L155.3,24.55L157.22,24.94L159.14,24.38L161.05,20.13L166.8,19.04L170.64,19.29L172.56,22.23L174.47,22L180.23,24.82L184.06,28.69L185.98,27.93L187.89,30.29L193.65,26.64L195.56,28.33L199.4,24.27L201.32,28.96L207.07,27.06L208.98,30.63L210.9,31.04L212.82,36.4L214.74,41.72L222.41,46.01L226.24,43.78L228.16,47.89L235.83,42.03L237.74,43.77L239.66,40.25L241.58,38.7L247.33,39.63L249.25,46L251.17,46.47L253.08,44.93L255,47.42L260.75,48.78L264.59,43.18L266.5,45.86L278.01,46.95L279.92,48.05L281.84,45.54L287.59,41.96L289.51,40.36L291.43,41.41L293.35,43.11L295.26,48.63L302.93,48.2L304.85,46.34L308.68,52.16L314.44,54.01L316.35,48.28L318.27,49.5L320.19,49.06L322.11,52.96L327.86,51.86L329.77,43.83L331.69,47.49L333.61,44.24L343.2,40.89L345.11,42.32L348.95,44.17L354.7,42.81L356.62,36.84L358.53,38.69L362.37,39.34L368.12,38.2L371.95,41.52L373.87,39.3L375.79,43.35L381.54,43.33L383.46,42.27L385.38,40.23L387.29,40.79L389.21,37.74L394.96,38.29L396.88,39.42L400.71,37.32L402.63,39.28L408.38,40.92L410.3,43.37L412.22,43.61L414.14,40.47L416.05,38.55L421.8,40.1L423.72,39.63L425.64,44.18L427.56,43.57L429.47,47.59L437.14,44.91L439.06,43.56L442.89,41.32L448.65,40.51L452.48,47.48L454.4,44.76L456.32,47.69L463.98,46.84L465.9,48.11L467.82,44.74L469.74,44.46L475.49,46.95L477.41,47.77L479.32,47.32L481.24,44.16L483.16,52.23L488.91,52.4L490.83,50.96L492.74,54.05L494.66,52.37L496.58,51.54L502.33,54.35L504.25,56.04L506.17,59.02L508.08,57.35L510,60.98L517.67,61.73L519.59,60.42L523.42,71.22L529.17,70.12L531.09,70.22L533.01,71.25L534.92,69.89L542.59,69.81L544.51,65.15L546.43,68.38L548.35,68.37L550.26,70.57L556.02,70.8L557.93,72.13L559.85,67.99L561.77,67.78L569.44,68.58L571.35,64.26L573.27,60.04L575.19,64.32L577.11,63.72L582.86,69.37L584.77,65.07L586.69,62.65L588.61,66.93L590.53,65.5L596.28,64.43L598.2,56.51L600.11,56.59L602.03,63.61L603.95,57.94L609.7,56.65L611.62,57.68L613.53,60.13L615.45,59.64L617.37,57.43L623.12,60.82L625.04,64.12L626.95,63.74L628.87,64.94L630.79,61.67L636.54,66.32L640.38,64.37L642.29,59.95L644.21,62.88L651.88,60.62L653.8,59.99L655.71,65.76L663.38,58.93L665.3,65.74L667.22,67.26L669.14,64.86L678.72,96.62L680.64,111.78L684.47,96.74L690.23,99.03L692.14,101.01L694.06,107.09L697.89,103L703.65,116.73L705.56,106.17L707.48,102.76L717.07,114.78L718.98,123.76L720.9,128.62L722.82,145.36L724.74,148.88L730.49,129.67L732.41,129.39L734.32,142.93L736.24,135.71L738.16,139.11L743.91,131.13L745.83,134.33L747.74,141.67L749.66,138.26L751.58,145.9L757.33,151.29L759.25,134.29L761.17,141.27L763.08,139.46L765,135.86L770.75,133.52L772.67,128.43L776.5,144.29L778.42,137.87L784.17,136.9L786.09,140.7L788.01,148.11L789.92,138.45L791.84,144.04L797.59,148L799.51,144.78L801.43,154.48L803.35,163.93L805.26,153.84L811.02,148.84L812.93,148.47L814.85,144.86L818.68,142.38L824.44,155.2L826.35,152.08L828.27,148.01L830.19,153.38L832.11,149.53L837.86,148.58L839.77,152.11L841.69,152.87L843.61,154.73L845.53,153.64L851.28,154.33L853.2,150.11L857.03,152.8L858.95,153.39L864.7,153.67L866.62,155.59L872.37,154.03L878.12,154.69L880.04,152.03L881.95,150.9L885.79,146.78L891.54,148.35L893.46,148.55L895.38,151.26L899.21,152.21L904.96,154L906.88,153.15L908.8,157.15L910.71,157.77L912.63,156.08L920.3,158.86L922.22,157.05L926.05,159.87L931.8,159.59L935.64,155.3L937.56,157.69L939.47,161.45L945.23,163.47L947.14,162.45L949.06,165.42L950.98,164.77L952.89,161.71L958.65,162.24L960.56,169.17L962.48,168.12L964.4,167.98L966.32,170.52L973.98,175.31L975.9,175.8L977.82,177.54L979.74,179.75L985.49,183.56L989.32,182.72L991.24,183.76L993.16,187.99L998.91,192.75L1000.83,193.8L1002.74,190.67L1004.66,195.5L1006.58,194.94L1012.33,196.65L1014.25,190.29L1016.17,190.07L1018.08,187.08L1020,183.18" style="vector-effect: non-scaling-stroke; fill: none; stroke: rgb(171, 99, 250); stroke-opacity: 1; stroke-width: 2px; opacity: 1;"/></g><g class="points"/><g class="text"/></g><g class="trace scatter traceb650c4" style="stroke-miterlimit: 2; opacity: 1;"><g class="fills"/><g class="errorbars"/><g class="lines"><path class="js-line" d="M0,26.47L5.75,23.5L7.67,23.83L11.5,23.93L13.42,22.79L19.17,23.79L21.09,22.21L24.92,23.4L26.84,22.95L34.51,25.47L36.43,25.11L38.35,24.97L40.26,30.78L46.02,29.94L47.93,28.67L51.77,29.48L53.68,27.7L59.44,25.94L61.35,28.86L63.27,26.81L65.19,32.34L67.11,31.13L72.86,31.1L74.77,29.28L76.69,34.87L78.61,32.78L80.53,34L86.28,33.45L88.2,28.46L90.11,29.75L92.03,30.09L93.95,26.24L99.7,27.71L101.62,27.12L103.53,31.71L107.37,28.76L113.12,31.75L116.95,23.55L118.87,22.17L120.79,21.84L126.54,22.62L128.46,22.71L130.38,19.69L132.29,17.44L134.21,17.46L139.96,16.25L141.88,18.96L143.8,16.56L145.71,16.61L147.63,19.6L153.38,22.2L155.3,21.31L157.22,21.92L159.14,21.17L161.05,17.08L166.8,16.12L170.64,16.41L172.56,19.11L174.47,18.7L180.23,21.69L184.06,25.37L185.98,25.03L187.89,27.31L193.65,23.65L195.56,25.2L199.4,21.34L201.32,26.28L207.07,24.45L208.98,27.78L210.9,28.3L212.82,33.28L214.74,38.64L222.41,43.04L226.24,41.8L228.16,45.58L235.83,40.96L237.74,42.46L239.66,38.62L241.58,36.95L247.33,37.57L249.25,43.54L251.17,43.9L253.08,42.36L255,44.9L260.75,45.51L264.59,39.62L266.5,42.33L268.42,42.68L276.09,42.94L278.01,43.35L279.92,44.53L281.84,41.94L287.59,38.39L289.51,36.84L291.43,38.56L293.35,39.79L295.26,44.97L302.93,44.64L304.85,42.57L308.68,48.43L314.44,50.04L316.35,44.58L318.27,45.67L320.19,44.71L322.11,48.17L327.86,46.58L329.77,39.13L331.69,42.69L333.61,39.69L343.2,36.58L345.11,37.76L348.95,39.51L354.7,37.77L356.62,31.93L358.53,33.53L362.37,34.17L368.12,33.11L370.04,33.97L371.95,36.04L373.87,34.13L375.79,37.39L381.54,37.4L383.46,36.4L385.38,34.53L387.29,35.25L389.21,32.23L394.96,32.59L396.88,33.29L398.8,32.72L400.71,31.78L402.63,33.28L408.38,34.56L410.3,36.75L412.22,36.69L414.14,33.99L416.05,31.81L421.8,33.31L423.72,33.01L425.64,37.22L427.56,36.34L429.47,40L437.14,37.4L439.06,36.04L442.89,33.79L448.65,33.12L452.48,40.04L454.4,37.71L456.32,40.66L463.98,39.79L465.9,40.55L467.82,36.7L469.74,36.02L475.49,38.52L477.41,39.08L479.32,38.57L481.24,35L483.16,42.55L488.91,42.16L490.83,41.23L492.74,44.12L494.66,42.47L496.58,41.27L502.33,44L504.25,45.34L506.17,48.43L508.08,46.87L510,50.95L517.67,51.17L519.59,49.58L523.42,60.12L529.17,58.59L531.09,57.95L533.01,58.68L534.92,57.18L542.59,57.22L544.51,52.69L546.43,55.32L548.35,54.75L550.26,57.03L557.93,57.61L559.85,54.12L569.44,55.18L571.35,51.42L573.27,48.02L575.19,51.5L577.11,50.97L582.86,56.02L586.69,49.22L588.61,53.31L590.53,52.38L596.28,51.38L598.2,43.63L600.11,43.51L602.03,49.7L603.95,43.96L609.7,42.61L611.62,43.22L613.53,45.87L615.45,45.37L617.37,42.96L623.12,45.99L625.04,49.07L626.95,48.58L628.87,49.37L630.79,45.89L636.54,50.64L638.46,50.16L640.38,48.77L642.29,44.43L644.21,47.61L651.88,45.11L653.8,44.74L655.71,50.71L663.38,43.93L665.3,50.19L667.22,51.12L669.14,48.81L676.8,72.69L678.72,75.85L680.64,89.24L682.56,81.62L684.47,75.61L690.23,78.92L692.14,81.54L694.06,86.14L697.89,82.22L703.65,96.06L705.56,85.26L707.48,82.72L717.07,96.17L718.98,105.55L720.9,109.98L722.82,127.24L724.74,130.97L730.49,110.59L732.41,109.47L734.32,125.15L736.24,117.04L738.16,120.08L743.91,111.53L745.83,114.71L747.74,122.97L749.66,118.74L751.58,126.69L757.33,131.38L759.25,113.26L761.17,120.48L763.08,118.78L765,115.12L770.75,113.34L772.67,108.03L776.5,124.65L778.42,118.1L784.17,116.9L786.09,120.99L788.01,128.93L789.92,117.7L791.84,124.13L797.59,127.98L799.51,124.14L801.43,134.36L803.35,144.66L805.26,133.64L811.02,128.76L812.93,128.19L814.85,124.34L818.68,122.14L824.44,135.99L826.35,132.71L828.27,128.64L830.19,134.27L832.11,129.68L837.86,129.07L839.77,132.95L841.69,133.41L843.61,135.02L845.53,134.32L851.28,134.73L853.2,129.97L858.95,133.42L864.7,133.63L866.62,135.63L868.53,134.89L872.37,134L878.12,134.66L880.04,131.73L881.95,130.2L885.79,125.79L891.54,127.6L893.46,128.13L895.38,130.89L899.21,132.1L904.96,133.8L906.88,132.91L908.8,137.32L910.71,138.08L912.63,136.39L920.3,139.29L922.22,137.43L926.05,140.29L931.8,139.63L933.72,138.04L935.64,135.01L937.56,137.3L939.47,141.64L945.23,143.88L947.14,142.26L949.06,145.54L950.98,144.5L952.89,141.47L958.65,141.94L960.56,149.21L962.48,148.29L964.4,148.43L966.32,151L973.98,155.88L975.9,155.97L979.74,159.49L985.49,163.73L987.41,162.57L989.32,162.34L991.24,163.97L993.16,168.28L1000.83,174.89L1002.74,171.17L1004.66,176.18L1006.58,175.8L1012.33,178.12L1014.25,171.59L1016.17,171.62L1018.08,168.4L1020,164.3" style="vector-effect: non-scaling-stroke; fill: none; stroke: rgb(255, 161, 90); stroke-opacity: 1; stroke-width: 2px; opacity: 1;"/></g><g class="points"/><g class="text"/></g><g class="trace scatter trace29c609" style="stroke-miterlimit: 2; opacity: 1;"><g class="fills"/><g class="errorbars"/><g class="lines"><path class="js-line" d="M0,26.47L5.75,22.4L7.67,23.26L9.59,24.93L11.5,24.8L13.42,22.86L19.17,23.33L21.09,20.77L23.01,22.59L24.92,23.94L26.84,22.29L36.43,26.53L38.35,26.61L40.26,34.37L46.02,33.42L47.93,31.11L49.85,31.13L51.77,31.2L53.68,28.35L59.44,27L61.35,28.65L63.27,25.74L65.19,33.4L67.11,32.83L72.86,33.92L74.77,31.43L76.69,39.07L78.61,39.79L80.53,44.52L86.28,45.69L88.2,38.92L92.03,43.09L93.95,41.68L99.7,46.3L101.62,45.21L103.53,49.68L107.37,45.83L113.12,50.85L115.04,46.3L116.95,39.3L118.87,38.82L120.79,37.55L126.54,38.76L128.46,40.16L130.38,36L132.29,32.3L134.21,32.18L139.96,30.03L141.88,36.26L145.71,34.46L147.63,38.23L153.38,41.88L155.3,40.5L157.22,41.04L159.14,40.22L161.05,35.88L166.8,33.78L170.64,33.75L172.56,37.81L174.47,37.68L180.23,39.82L184.06,44.49L185.98,44.22L187.89,49.65L193.65,49.07L195.56,54.12L197.48,51.02L199.4,48.53L201.32,53.76L207.07,50.12L208.98,55.98L210.9,56.72L212.82,63.22L214.74,64.49L222.41,67.2L224.32,60.87L226.24,58.57L228.16,62.2L233.91,58.46L235.83,56.42L237.74,57.22L239.66,52.82L241.58,50.86L247.33,53.14L249.25,60.98L251.17,62.35L253.08,61.36L255,62.73L260.75,61.51L264.59,54.9L266.5,58.61L268.42,59.22L276.09,59.45L278.01,57.54L279.92,60.57L281.84,58.52L287.59,54.52L289.51,52.09L291.43,51.89L293.35,54.27L295.26,60.95L301.02,61.11L302.93,62.06L304.85,61.19L306.77,65.73L308.68,68.84L314.44,72.09L316.35,63.27L318.27,64.25L320.19,63.5L322.11,67.62L327.86,67.18L329.77,58.28L331.69,64.48L333.61,58.94L341.28,54.98L343.2,55.32L348.95,62.01L354.7,61.02L356.62,52.74L358.53,53.7L362.37,53.69L368.12,53.63L371.95,55.43L373.87,54.27L375.79,59.7L381.54,60.19L383.46,58.92L385.38,53.48L387.29,53.46L389.21,48.61L394.96,49.13L396.88,51.34L398.8,50.43L400.71,48.62L402.63,47.71L408.38,48.14L412.22,49.23L414.14,45.21L416.05,44.19L421.8,46.07L423.72,44.98L425.64,49.35L427.56,48.24L429.47,50.8L435.23,48.04L437.14,48.97L440.98,45.58L442.89,45.7L448.65,44.83L450.56,49.05L452.48,53.86L454.4,53.35L456.32,56.44L463.98,54.98L467.82,52.91L469.74,53.08L475.49,55.92L477.41,58.06L479.32,58.32L481.24,53.79L483.16,62.15L488.91,60.65L490.83,60.46L492.74,64.82L494.66,63.59L496.58,60.08L502.33,60.89L504.25,63.2L506.17,65.97L508.08,65.25L510,69.92L515.75,69.92L517.67,70.66L519.59,70.57L521.5,78.16L523.42,80.42L531.09,79.66L533.01,83.19L534.92,81.65L542.59,82.84L544.51,79.62L546.43,84.63L548.35,82.91L550.26,85.63L556.02,86.59L557.93,88.55L561.77,78.3L563.68,77.24L569.44,77.86L571.35,75L573.27,74.37L575.19,80.36L577.11,79.91L582.86,84.98L586.69,75.4L588.61,79.75L590.53,80.85L596.28,81.74L598.2,74.72L600.11,73.87L602.03,78.62L603.95,72.21L609.7,71.19L611.62,74.16L613.53,76.47L615.45,74.72L617.37,73.79L623.12,77.61L625.04,80.38L626.95,78.92L628.87,78.65L630.79,74.46L636.54,79.58L638.46,79.02L640.38,77.12L642.29,72.62L644.21,76.24L651.88,76.81L653.8,76.48L655.71,83.77L657.63,83.08L663.38,76.94L665.3,82.87L667.22,82.06L669.14,78.57L671.05,78.82L676.8,89.5L678.72,86.5L680.64,96.02L682.56,87.34L684.47,79.53L690.23,87.42L692.14,90.84L694.06,91.45L697.89,84.72L703.65,101.18L705.56,90.91L707.48,91.33L709.4,98.7L711.32,102.03L717.07,109.86L718.98,120.62L720.9,124.62L722.82,138.99L724.74,141.7L730.49,121.88L732.41,123.5L734.32,139.02L736.24,130.52L738.16,133.21L743.91,124.47L745.83,129.37L747.74,140.26L749.66,136.62L751.58,143.23L757.33,147.53L759.25,128.71L761.17,130.28L765,123.21L770.75,123.32L772.67,116.85L774.59,127.14L776.5,136.52L778.42,131.27L784.17,132.83L786.09,136.56L788.01,145.27L789.92,133.57L791.84,140.72L797.59,145.46L799.51,142.26L801.43,151.31L803.35,160.73L805.26,150.27L811.02,141.87L812.93,141.1L814.85,135.87L818.68,133.7L824.44,148.1L826.35,142.38L828.27,138.73L830.19,143.29L832.11,137.8L837.86,131.48L839.77,136.62L841.69,135.13L843.61,139.29L845.53,137.92L851.28,139.3L853.2,131.69L855.11,133.8L857.03,138.45L864.7,140.25L866.62,142.37L868.53,141.34L872.37,140.34L878.12,141.01L880.04,137.1L885.79,129.35L891.54,131.08L893.46,129.77L895.38,134.96L897.29,135.54L899.21,138.57L906.88,141.76L908.8,147.01L910.71,146.75L912.63,145.3L920.3,152.33L922.22,146.42L924.14,148.65L926.05,149.61L931.8,148.79L933.72,147.55L935.64,143.3L937.56,148.1L939.47,151.23L945.23,152.59L947.14,149.59L949.06,152.17L950.98,149.92L952.89,145.31L958.65,145.52L960.56,153.6L962.48,152.53L964.4,152.67L973.98,160.72L975.9,160.66L985.49,169.99L987.41,164.99L991.24,168.56L993.16,171.08L998.91,177.43L1000.83,178.22L1002.74,175.04L1004.66,181L1006.58,180.31L1012.33,182L1014.25,173.97L1016.17,173.89L1018.08,168.82L1020,167.68" style="vector-effect: non-scaling-stroke; fill: none; stroke: rgb(254, 203, 82); stroke-opacity: 1; stroke-width: 2px; opacity: 1;"/></g><g class="points"/><g class="text"/></g></g></g><g class="overplot"/><path class="xlines-above crisp" d="M0,0" style="fill: none;"/><path class="ylines-above crisp" d="M0,0" style="fill: none;"/><g class="overlines-above"/><g class="xaxislayer-above"><g class="xtick"><text text-anchor="middle" x="0" y="280" transform="translate(115.19,0)" style="font-family: 'Open Sans', verdana, arial, sans-serif; font-size: 12px; fill: rgb(42, 63, 95); fill-opacity: 1; white-space: pre; opacity: 1;">Nov 2007</text></g><g class="xtick"><text text-anchor="middle" x="0" y="280" style="font-family: 'Open Sans', verdana, arial, sans-serif; font-size: 12px; fill: rgb(42, 63, 95); fill-opacity: 1; white-space: pre; opacity: 1;" transform="translate(232.14,0)">Jan 2008</text></g><g class="xtick"><text text-anchor="middle" x="0" y="280" style="font-family: 'Open Sans', verdana, arial, sans-serif; font-size: 12px; fill: rgb(42, 63, 95); fill-opacity: 1; white-space: pre; opacity: 1;" transform="translate(347.18,0)">Mar 2008</text></g><g class="xtick"><text text-anchor="middle" x="0" y="280" style="font-family: 'Open Sans', verdana, arial, sans-serif; font-size: 12px; fill: rgb(42, 63, 95); fill-opacity: 1; white-space: pre; opacity: 1;" transform="translate(464.14,0)">May 2008</text></g><g class="xtick"><text text-anchor="middle" x="0" y="280" style="font-family: 'Open Sans', verdana, arial, sans-serif; font-size: 12px; fill: rgb(42, 63, 95); fill-opacity: 1; white-space: pre; opacity: 1;" transform="translate(581.09,0)">Jul 2008</text></g><g class="xtick"><text text-anchor="middle" x="0" y="280" style="font-family: 'Open Sans', verdana, arial, sans-serif; font-size: 12px; fill: rgb(42, 63, 95); fill-opacity: 1; white-space: pre; opacity: 1;" transform="translate(699.96,0)">Sep 2008</text></g><g class="xtick"><text text-anchor="middle" x="0" y="280" style="font-family: 'Open Sans', verdana, arial, sans-serif; font-size: 12px; fill: rgb(42, 63, 95); fill-opacity: 1; white-space: pre; opacity: 1;" transform="translate(816.92,0)">Nov 2008</text></g><g class="xtick"><text text-anchor="middle" x="0" y="280" style="font-family: 'Open Sans', verdana, arial, sans-serif; font-size: 12px; fill: rgb(42, 63, 95); fill-opacity: 1; white-space: pre; opacity: 1;" transform="translate(933.87,0)">Jan 2009</text></g><g class="xtick"><text text-anchor="middle" x="0" y="280" style="font-family: 'Open Sans', verdana, arial, sans-serif; font-size: 12px; fill: rgb(42, 63, 95); fill-opacity: 1; white-space: pre; opacity: 1;" transform="translate(1046.99,0)">Mar 2009</text></g></g><g class="yaxislayer-above"><g class="ytick"><text text-anchor="end" x="49" y="4.199999999999999" transform="translate(0,253.58)" style="font-family: 'Open Sans', verdana, arial, sans-serif; font-size: 12px; fill: rgb(42, 63, 95); fill-opacity: 1; white-space: pre; opacity: 1;">6k</text></g><g class="ytick"><text text-anchor="end" x="49" y="4.199999999999999" style="font-family: 'Open Sans', verdana, arial, sans-serif; font-size: 12px; fill: rgb(42, 63, 95); fill-opacity: 1; white-space: pre; opacity: 1;" transform="translate(0,211.25)">8k</text></g><g class="ytick"><text text-anchor="end" x="49" y="4.199999999999999" style="font-family: 'Open Sans', verdana, arial, sans-serif; font-size: 12px; fill: rgb(42, 63, 95); fill-opacity: 1; white-space: pre; opacity: 1;" transform="translate(0,168.92000000000002)">10k</text></g><g class="ytick"><text text-anchor="end" x="49" y="4.199999999999999" style="font-family: 'Open Sans', verdana, arial, sans-serif; font-size: 12px; fill: rgb(42, 63, 95); fill-opacity: 1; white-space: pre; opacity: 1;" transform="translate(0,126.59)">12k</text></g><g class="ytick"><text text-anchor="end" x="49" y="4.199999999999999" style="font-family: 'Open Sans', verdana, arial, sans-serif; font-size: 12px; fill: rgb(42, 63, 95); fill-opacity: 1; white-space: pre; opacity: 1;" transform="translate(0,84.26)">14k</text></g></g><g class="overaxes-above"/></g></g><g class="polarlayer"/><g class="ternarylayer"/><g class="geolayer"/><g class="funnelarealayer"/><g class="pielayer"/><g class="iciclelayer"/><g class="treemaplayer"/><g class="sunburstlayer"/><g class="glimages"/><defs id="topdefs-cac065"><g class="clips"/><clipPath id="legendcac065"><rect width="136" height="200" x="0" y="0"/></clipPath></defs><g class="layer-above"><g class="imagelayer"/><g class="shapelayer"/></g><g class="infolayer"><g class="legend" pointer-events="all" transform="translate(1090.4,60)"><rect class="bg" shape-rendering="crispEdges" width="136" height="200" x="0" y="0" style="stroke: rgb(68, 68, 68); stroke-opacity: 1; fill: rgb(255, 255, 255); fill-opacity: 1; stroke-width: 0px;"/><g class="scrollbox" transform="" clip-path="url(#legendcac065)"><g class="groups"><g class="traces" transform="translate(0,14.5)" style="opacity: 1;"><text class="legendtext" text-anchor="start" x="40" y="4.680000000000001" style="font-family: 'Open Sans', verdana, arial, sans-serif; font-size: 12px; fill: rgb(42, 63, 95); fill-opacity: 1; white-space: pre;">Conic γ=0.1</text><g class="layers" style="opacity: 1;"><g class="legendfill"/><g class="legendlines"><path class="js-line" d="M5,0h30" style="fill: none; stroke: rgb(99, 110, 250); stroke-opacity: 1; stroke-width: 2px;"/></g><g class="legendsymbols"><g class="legendpoints"/></g></g><rect class="legendtoggle" x="0" y="-9.5" width="130.8186798095703" height="19" style="fill: rgb(0, 0, 0); fill-opacity: 0;"/></g><g class="traces" transform="translate(0,33.5)" style="opacity: 1;"><text class="legendtext" text-anchor="start" x="40" y="4.680000000000001" style="font-family: 'Open Sans', verdana, arial, sans-serif; font-size: 12px; fill: rgb(42, 63, 95); fill-opacity: 1; white-space: pre;">Conic γ=3.275</text><g class="layers" style="opacity: 1;"><g class="legendfill"/><g class="legendlines"><path class="js-line" d="M5,0h30" style="fill: none; stroke: rgb(239, 85, 59); stroke-opacity: 1; stroke-width: 2px;"/></g><g class="legendsymbols"><g class="legendpoints"/></g></g><rect class="legendtoggle" x="0" y="-9.5" width="130.8186798095703" height="19" style="fill: rgb(0, 0, 0); fill-opacity: 0;"/></g><g class="traces" transform="translate(0,52.5)" style="opacity: 1;"><text class="legendtext" text-anchor="start" x="40" y="4.680000000000001" style="font-family: 'Open Sans', verdana, arial, sans-serif; font-size: 12px; fill: rgb(42, 63, 95); fill-opacity: 1; white-space: pre;">Conic γ=6.45</text><g class="layers" style="opacity: 1;"><g class="legendfill"/><g class="legendlines"><path class="js-line" d="M5,0h30" style="fill: none; stroke: rgb(0, 204, 150); stroke-opacity: 1; stroke-width: 2px;"/></g><g class="legendsymbols"><g class="legendpoints"/></g></g><rect class="legendtoggle" x="0" y="-9.5" width="130.8186798095703" height="19" style="fill: rgb(0, 0, 0); fill-opacity: 0;"/></g><g class="traces" transform="translate(0,71.5)" style="opacity: 1;"><text class="legendtext" text-anchor="start" x="40" y="4.680000000000001" style="font-family: 'Open Sans', verdana, arial, sans-serif; font-size: 12px; fill: rgb(42, 63, 95); fill-opacity: 1; white-space: pre;">Conic γ=9.625</text><g class="layers" style="opacity: 1;"><g class="legendfill"/><g class="legendlines"><path class="js-line" d="M5,0h30" style="fill: none; stroke: rgb(171, 99, 250); stroke-opacity: 1; stroke-width: 2px;"/></g><g class="legendsymbols"><g class="legendpoints"/></g></g><rect class="legendtoggle" x="0" y="-9.5" width="130.8186798095703" height="19" style="fill: rgb(0, 0, 0); fill-opacity: 0;"/></g><g class="traces" transform="translate(0,90.5)" style="opacity: 1;"><text class="legendtext" text-anchor="start" x="40" y="4.680000000000001" style="font-family: 'Open Sans', verdana, arial, sans-serif; font-size: 12px; fill: rgb(42, 63, 95); fill-opacity: 1; white-space: pre;">Conic γ=12.8</text><g class="layers" style="opacity: 1;"><g class="legendfill"/><g class="legendlines"><path class="js-line" d="M5,0h30" style="fill: none; stroke: rgb(255, 161, 90); stroke-opacity: 1; stroke-width: 2px;"/></g><g class="legendsymbols"><g class="legendpoints"/></g></g><rect class="legendtoggle" x="0" y="-9.5" width="130.8186798095703" height="19" style="fill: rgb(0, 0, 0); fill-opacity: 0;"/></g><g class="traces" transform="translate(0,109.5)" style="opacity: 0.5;"><text class="legendtext" text-anchor="start" x="40" y="4.680000000000001" style="font-family: 'Open Sans', verdana, arial, sans-serif; font-size: 12px; fill: rgb(42, 63, 95); fill-opacity: 1; white-space: pre;">Mean-Variance</text><g class="layers" style="opacity: 1;"><g class="legendfill"/><g class="legendlines"><path class="js-line" d="M5,0h30" style="fill: none; stroke: rgb(25, 211, 243); stroke-opacity: 1; stroke-width: 2px;"/></g><g class="legendsymbols"><g class="legendpoints"/></g></g><rect class="legendtoggle" x="0" y="-9.5" width="130.8186798095703" height="19" style="fill: rgb(0, 0, 0); fill-opacity: 0;"/></g><g class="traces" transform="translate(0,128.5)" style="opacity: 0.5;"><text class="legendtext" text-anchor="start" x="40" y="4.680000000000001" style="font-family: 'Open Sans', verdana, arial, sans-serif; font-size: 12px; fill: rgb(42, 63, 95); fill-opacity: 1; white-space: pre;">Mean-VaR</text><g class="layers" style="opacity: 1;"><g class="legendfill"/><g class="legendlines"><path class="js-line" d="M5,0h30" style="fill: none; stroke: rgb(255, 102, 146); stroke-opacity: 1; stroke-width: 2px;"/></g><g class="legendsymbols"><g class="legendpoints"/></g></g><rect class="legendtoggle" x="0" y="-9.5" width="130.8186798095703" height="19" style="fill: rgb(0, 0, 0); fill-opacity: 0;"/></g><g class="traces" transform="translate(0,147.5)" style="opacity: 0.5;"><text class="legendtext" text-anchor="start" x="40" y="4.680000000000001" style="font-family: 'Open Sans', verdana, arial, sans-serif; font-size: 12px; fill: rgb(42, 63, 95); fill-opacity: 1; white-space: pre;">Mean-CVaR 95%</text><g class="layers" style="opacity: 1;"><g class="legendfill"/><g class="legendlines"><path class="js-line" d="M5,0h30" style="fill: none; stroke: rgb(182, 232, 128); stroke-opacity: 1; stroke-width: 2px;"/></g><g class="legendsymbols"><g class="legendpoints"/></g></g><rect class="legendtoggle" x="0" y="-9.5" width="130.8186798095703" height="19" style="fill: rgb(0, 0, 0); fill-opacity: 0;"/></g><g class="traces" transform="translate(0,166.5)" style="opacity: 0.5;"><text class="legendtext" text-anchor="start" x="40" y="4.680000000000001" style="font-family: 'Open Sans', verdana, arial, sans-serif; font-size: 12px; fill: rgb(42, 63, 95); fill-opacity: 1; white-space: pre;">Mean-CVaR 99%</text><g class="layers" style="opacity: 1;"><g class="legendfill"/><g class="legendlines"><path class="js-line" d="M5,0h30" style="fill: none; stroke: rgb(255, 151, 255); stroke-opacity: 1; stroke-width: 2px;"/></g><g class="legendsymbols"><g class="legendpoints"/></g></g><rect class="legendtoggle" x="0" y="-9.5" width="130.8186798095703" height="19" style="fill: rgb(0, 0, 0); fill-opacity: 0;"/></g><g class="traces" transform="translate(0,185.5)" style="opacity: 1;"><text class="legendtext" text-anchor="start" x="40" y="4.680000000000001" style="font-family: 'Open Sans', verdana, arial, sans-serif; font-size: 12px; fill: rgb(42, 63, 95); fill-opacity: 1; white-space: pre;">DJIA</text><g class="layers" style="opacity: 1;"><g class="legendfill"/><g class="legendlines"><path class="js-line" d="M5,0h30" style="fill: none; stroke: rgb(254, 203, 82); stroke-opacity: 1; stroke-width: 2px;"/></g><g class="legendsymbols"><g class="legendpoints"/></g></g><rect class="legendtoggle" x="0" y="-9.5" width="130.8186798095703" height="19" style="fill: rgb(0, 0, 0); fill-opacity: 0;"/></g></g></g><rect class="scrollbar" rx="20" ry="3" width="0" height="0" x="0" y="0" style="fill: rgb(128, 139, 164); fill-opacity: 1;"/></g><g class="g-gtitle"/><g class="g-xtitle"/><g class="g-ytitle"/></g></svg>