<svg class="main-svg" xmlns="http://www.w3.org/2000/svg" xmlns:xlink="http://www.w3.org/1999/xlink" width="1238" height="317" style=""><rect x="0" y="0" width="1238" height="317" style="fill: rgb(255, 255, 255); fill-opacity: 1;"/><defs id="defs-9546bb"><g class="clips"><clipPath id="clip9546bbxyplot" class="plotclip"><rect width="1020" height="207"/></clipPath><clipPath class="axesclip" id="clip9546bbx"><rect x="50" y="0" width="1020" height="317"/></clipPath><clipPath class="axesclip" id="clip9546bby"><rect x="0" y="60" width="1238" height="207"/></clipPath><clipPath class="axesclip" id="clip9546bbxy"><rect x="50" y="60" width="1020" height="207"/></clipPath></g><g class="gradients"/><g class="patterns"/></defs><g class="bglayer"><rect class="bg" x="50" y="60" width="1020" height="207" style="fill: rgb(229, 236, 246); fill-opacity: 1; stroke-width: 0;"/></g><g class="layer-below"><g class="imagelayer"/><g class="shapelayer"/></g><g class="cartesianlayer"><g class="subplot xy"><g class="layer-subplot"><g class="shapelayer"/><g class="imagelayer"/></g><g class="gridlayer"><g class="x"><path class="xgrid crisp" transform="translate(115.19,0)" d="M0,60v207" style="stroke: rgb(255, 255, 255); stroke-opacity: 1; stroke-width: 1px;"/><path class="xgrid crisp" transform="translate(232.14,0)" d="M0,60v207" style="stroke: rgb(255, 255, 255); stroke-opacity: 1; stroke-width: 1px;"/><path class="xgrid crisp" transform="translate(347.18,0)" d="M0,60v207" style="stroke: rgb(255, 255, 255); stroke-opacity: 1; stroke-width: 1px;"/><path class="xgrid crisp" transform="translate(464.14,0)" d="M0,60v207" style="stroke: rgb(255, 255, 255); stroke-opacity: 1; stroke-width: 1px;"/><path class="xgrid crisp" transform="translate(581.09,0)" d="M0,60v207" style="stroke: rgb(255, 255, 255); stroke-opacity: 1; stroke-width: 1px;"/><path class="xgrid crisp" transform="translate(699.96,0)" d="M0,60v207" style="stroke: rgb(255, 255, 255); stroke-opacity: 1; stroke-width: 1px;"/><path class="xgrid crisp" transform="translate(816.92,0)" d="M0,60v207" style="stroke: rgb(255, 255, 255); stroke-opacity: 1; stroke-width: 1px;"/><path class="xgrid crisp" transform="translate(933.87,0)" d="M0,60v207" style="stroke: rgb(255, 255, 255); stroke-opacity: 1; stroke-width: 1px;"/><path class="xgrid crisp" transform="translate(1046.99,0)" d="M0,60v207" style="stroke: rgb(255, 255, 255); stroke-opacity: 1; stroke-width: 1px;"/></g><g class="y"><path class="ygrid crisp" transform="translate(0,223.3)" d="M50,0h1020" style="stroke: rgb(255, 255, 255); stroke-opacity: 1; stroke-width: 1px;"/><path class="ygrid crisp" transform="translate(0,177.39)" d="M50,0h1020" style="stroke: rgb(255, 255, 255); stroke-opacity: 1; stroke-width: 1px;"/><path class="ygrid crisp" transform="translate(0,131.49)" d="M50,0h1020" style="stroke: rgb(255, 255, 255); stroke-opacity: 1; stroke-width: 1px;"/><path class="ygrid crisp" transform="translate(0,85.58)" d="M50,0h1020" style="stroke: rgb(255, 255, 255); stroke-opacity: 1; stroke-width: 1px;"/></g></g><g class="zerolinelayer"/><path class="xlines-below"/><path class="ylines-below"/><g class="overlines-below"/><g class="xaxislayer-below"/><g class="yaxislayer-below"/><g class="overaxes-below"/><g class="plot" transform="translate(50,60)" clip-path="url(#clip9546bbxyplot)"><g class="scatterlayer mlayer"><g class="trace scatter tracee922db" style="stroke-miterlimit: 2; opacity: 1;"><g class="fills"/><g class="errorbars"/><g class="lines"><path class="js-line" d="M0,27.98L5.75,25.35L7.67,25.8L9.59,26.73L11.5,26.19L13.42,25.66L19.17,26.66L23.01,26.25L24.92,26.65L26.84,26.2L32.59,27.99L34.51,27.2L36.43,27.44L38.35,26.72L40.26,31.9L51.77,29.52L53.68,27.95L59.44,25.52L61.35,27.83L63.27,25.95L65.19,29.87L67.11,28.4L72.86,29.13L74.77,28.97L76.69,33.2L78.61,30.64L80.53,32.7L86.28,32.83L88.2,28.08L90.11,29.02L92.03,27.05L93.95,22.58L99.7,23.77L101.62,23.52L103.53,26.49L107.37,24.68L113.12,25.89L116.95,19.81L118.87,18.82L120.79,21.64L126.54,21.97L128.46,20.45L130.38,17.8L134.21,16.54L139.96,16.06L141.88,17.01L143.8,15.04L145.71,13.61L147.63,15.34L153.38,18.15L155.3,17.15L157.22,17.19L159.14,15.95L161.05,12L166.8,11.54L170.64,12.68L172.56,14.79L174.47,14L180.23,19.01L184.06,21.09L185.98,19.27L187.89,19.76L193.65,15.35L195.56,15.82L197.48,12.1L199.4,10.35L201.32,13.79L207.07,11.56L208.98,14.25L212.82,20.63L214.74,26.69L224.32,37.81L226.24,36.29L228.16,39.81L233.91,37.34L237.74,40.78L239.66,35.95L241.58,34.08L247.33,33.08L249.25,38.34L251.17,38.24L255,37.91L260.75,37.57L262.67,33.32L264.59,32.64L266.5,35.15L268.42,35.69L278.01,36.43L279.92,38.11L281.84,35.71L287.59,31.9L289.51,29.35L291.43,30.35L293.35,30.15L295.26,34.38L302.93,32.82L304.85,29.72L308.68,35.99L314.44,37.23L316.35,34.03L318.27,34L320.19,33.06L322.11,36.02L327.86,38.08L329.77,30.15L331.69,31.45L333.61,30.08L347.03,27.68L348.95,28.48L354.7,26.11L356.62,22.97L358.53,25.15L360.45,25.23L362.37,25.33L368.12,23.73L371.95,24L373.87,21.12L375.79,25.63L381.54,23.49L385.38,23.36L387.29,24.62L389.21,22.32L394.96,22.12L396.88,21.79L398.8,20.68L400.71,20.67L402.63,24.51L408.38,26.37L410.3,28.03L412.22,29.14L414.14,28.59L416.05,25.92L421.8,27.59L423.72,27.94L425.64,31.28L427.56,31.05L429.47,34.9L435.23,34.11L437.14,32.38L440.98,30.63L442.89,29.86L448.65,28.79L450.56,30.7L452.48,33.5L454.4,29.62L456.32,31.3L463.98,30.28L465.9,32.18L467.82,27.77L469.74,26.9L475.49,28.99L479.32,29.43L481.24,26.83L483.16,34.01L488.91,31.21L490.83,27.78L492.74,29.48L494.66,28.26L496.58,31.13L502.33,34.96L504.25,34.74L506.17,38.6L508.08,37.19L510,39.76L515.75,38.98L517.67,40.11L519.59,37.75L523.42,48.49L529.17,46.41L531.09,47.74L533.01,48.12L534.92,47.11L542.59,46.17L544.51,42.7L546.43,43.76L548.35,44.16L550.26,45.57L556.02,43.23L557.93,41.4L559.85,40.83L561.77,47.95L563.68,47.3L569.44,46.94L571.35,39.46L573.27,37.17L575.19,38.56L577.11,38.31L582.86,43.25L584.77,42.04L586.69,39.69L588.61,42.34L590.53,39.53L596.28,37L598.2,30.09L600.11,27.67L602.03,34.59L603.95,29.21L609.7,29.73L611.62,28.28L615.45,30.29L617.37,28.33L628.87,33.91L630.79,30.68L638.46,35.33L640.38,34.25L642.29,32.62L644.21,36.9L653.8,36.17L655.71,39.98L657.63,39.74L663.38,33.64L665.3,36.61L667.22,36.32L669.14,35.19L671.05,39.17L678.72,54.66L680.64,65.11L682.56,60.27L684.47,57.79L690.23,58.24L692.14,63.22L694.06,67.16L695.98,63.81L697.89,64.71L703.65,73.64L705.56,63.68L707.48,62.53L717.07,80.58L718.98,90.51L720.9,96.72L722.82,115.64L724.74,122.18L730.49,97.3L732.41,97.57L734.32,110.76L736.24,100.8L738.16,105.58L743.91,96.26L745.83,101.06L747.74,108.74L749.66,107.67L751.58,116.48L757.33,121.9L759.25,101.24L761.17,107.4L765,105.99L770.75,102.84L772.67,98.24L774.59,108.15L776.5,114.67L778.42,106.92L784.17,105.98L786.09,111.19L788.01,119.08L789.92,107.39L791.84,113.68L797.59,117.58L799.51,114.29L801.43,126.78L803.35,137.44L805.26,125.97L811.02,120.34L812.93,121.36L814.85,117.27L818.68,112.76L824.44,125.85L826.35,124.05L828.27,118.92L830.19,126.43L832.11,121.28L837.86,122.29L839.77,125.86L841.69,124.39L845.53,125.75L851.28,122.89L853.2,117.75L855.11,120.83L857.03,121.6L858.95,123.47L864.7,123.21L866.62,125.33L872.37,123.37L878.12,124.33L880.04,121.27L881.95,119.71L885.79,113.88L891.54,114.95L895.38,117.76L897.29,118.01L899.21,118.66L904.96,121.6L906.88,121.22L908.8,129.21L910.71,129.65L912.63,127.13L920.3,128.22L922.22,127.36L926.05,133.55L931.8,130.92L933.72,129.85L935.64,127.01L937.56,128.63L939.47,134.41L945.23,137.85L947.14,133.57L949.06,138.23L950.98,138.34L952.89,136.19L958.65,136.22L960.56,143.51L962.48,141.66L964.4,138.29L966.32,139.86L975.9,142.73L977.82,142.22L979.74,147.65L985.49,151.06L987.41,149.92L989.32,151.71L991.24,155.68L993.16,163.82L1000.83,174.42L1002.74,169.56L1004.66,172.24L1006.58,169.64L1012.33,172.99L1014.25,167.78L1016.17,166.72L1018.08,164.15L1020,160.6" style="vector-effect: non-scaling-stroke; fill: none; stroke: rgb(25, 211, 243); stroke-opacity: 1; stroke-width: 2px; opacity: 1;"/></g><g class="points"/><g class="text"/></g><g class="trace scatter tracec94a41" style="stroke-miterlimit: 2; opacity: 1;"><g class="fills"/><g class="errorbars"/><g class="lines"><path class="js-line" d="M0,27.98L5.75,25.27L7.67,25.93L9.59,26.77L11.5,26.31L13.42,25.63L19.17,26.73L23.01,26.07L24.92,26.63L26.84,25.96L32.59,27.52L34.51,26.8L36.43,27.37L38.35,26.7L40.26,32.9L51.77,30.83L53.68,29.21L59.44,26.96L61.35,29.38L63.27,27.11L65.19,30.95L67.11,29.23L72.86,29.82L74.77,29.35L76.69,33.96L78.61,31.42L80.53,33.96L86.28,34.64L88.2,29.99L90.11,31.32L92.03,28.94L93.95,24.31L99.7,25.53L101.62,24.82L103.53,27.8L107.37,25.7L113.12,27.44L116.95,21.57L118.87,20.71L120.79,23.1L126.54,23.25L128.46,21.96L130.38,18.93L134.21,17.6L139.96,17.31L141.88,18.8L143.8,16.18L145.71,14.63L147.63,16.61L153.38,19.26L155.3,18.1L157.22,18.19L159.14,16.61L161.05,12.68L166.8,12.09L170.64,13.14L172.56,15.28L174.47,14.48L180.23,19.08L184.06,20.92L185.98,19.4L187.89,20.38L193.65,16.28L195.56,17.07L197.48,13.72L199.4,12.52L201.32,16.27L207.07,13.73L208.98,16.07L212.82,23.09L214.74,28.92L224.32,39.26L226.24,37.21L228.16,40.57L233.91,37.55L237.74,40.99L239.66,36L241.58,34.39L247.33,33.24L249.25,38.95L251.17,38.67L255,38.12L260.75,37.89L262.67,33.96L264.59,33.1L266.5,35.65L268.42,36.51L278.01,36.39L279.92,38.36L281.84,36.02L287.59,31.89L289.51,29.28L291.43,30.48L293.35,30.48L295.26,34.96L302.93,33.48L304.85,30.23L308.68,36.62L314.44,37.99L316.35,34.16L318.27,34.57L320.19,33.4L322.11,36.56L327.86,38.98L329.77,30.64L331.69,32.6L333.61,32.01L341.28,30.59L343.2,29.34L347.03,29.42L348.95,30.45L354.7,27.26L356.62,23.81L358.53,25.66L360.45,26.17L362.37,26.16L368.12,24.31L371.95,24.75L373.87,21.5L375.79,25.68L381.54,23.48L385.38,23.05L387.29,24.02L389.21,21.12L394.96,20.8L396.88,20.73L398.8,19.77L400.71,20.12L402.63,24L408.38,26.22L410.3,27.88L412.22,29.01L414.14,28.57L416.05,25.41L421.8,27.07L423.72,26.89L425.64,30.46L427.56,30.12L429.47,33.78L435.23,33.17L437.14,31.12L442.89,28.01L448.65,27.1L452.48,31.79L454.4,28.18L456.32,30.21L463.98,29.27L465.9,31.16L467.82,26.89L469.74,25.89L475.49,27.97L477.41,28.43L479.32,28L481.24,25.22L483.16,32.8L488.91,30.12L490.83,27.14L492.74,28.33L494.66,26.57L496.58,28.94L502.33,32.51L504.25,32.06L506.17,35.7L508.08,34.31L510,36.95L515.75,35.85L517.67,37.42L519.59,35.52L521.5,41.3L523.42,46.19L529.17,44.38L533.01,46.45L534.92,45.57L542.59,45.09L544.51,42.08L546.43,43.41L548.35,43.74L550.26,45.12L556.02,42.88L557.93,41.43L559.85,41.06L561.77,47.89L563.68,47.62L569.44,46.71L571.35,39.73L573.27,37.4L575.19,38.8L577.11,38.3L582.86,43.16L584.77,42.13L586.69,39.45L588.61,42.79L590.53,39.85L596.28,38.34L598.2,31.56L600.11,28.98L602.03,35.33L603.95,30.05L609.7,30.06L611.62,28.36L613.53,29.14L615.45,30.28L617.37,28.43L626.95,33.16L628.87,33.53L630.79,30.34L636.54,34.37L638.46,34.66L640.38,33.59L642.29,31.78L644.21,35.96L653.8,35.43L655.71,39.51L657.63,39.89L663.38,34.07L665.3,38.12L667.22,37.26L669.14,36.26L671.05,39.36L678.72,55.21L680.64,65.15L684.47,56.94L690.23,57.64L694.06,66.71L695.98,63.62L697.89,64.33L703.65,74.85L705.56,64.84L707.48,63.58L711.32,71.81L717.07,82.19L718.98,92.06L720.9,97.94L722.82,116.75L724.74,125.21L730.49,98.64L732.41,98.7L734.32,113.39L736.24,103.79L738.16,108.02L743.91,98.38L745.83,102.65L747.74,110.5L749.66,108.42L751.58,116.65L757.33,122.81L759.25,102.34L761.17,107.92L763.08,106.41L770.75,102.98L772.67,97.87L776.5,115.49L778.42,108.07L784.17,107.61L786.09,113.04L788.01,121.52L789.92,109.22L791.84,115.68L797.59,119.57L799.51,115.31L801.43,127.49L803.35,138.41L805.26,126.35L811.02,120.47L812.93,122.31L814.85,117.81L818.68,114.23L824.44,128.01L826.35,126.83L828.27,121.78L830.19,129.51L832.11,124.5L837.86,125.41L839.77,128.54L841.69,126.91L845.53,128.21L851.28,125.32L853.2,120.14L855.11,123.14L858.95,126.33L864.7,126.59L866.62,128.77L868.53,128.17L872.37,126.71L878.12,127.59L880.04,124.56L881.95,123.27L885.79,117.02L891.54,117.04L895.38,119.61L897.29,119.41L904.96,123.33L906.88,122.59L908.8,130.62L910.71,130.48L912.63,127.72L920.3,128.96L922.22,127.47L924.14,131.17L926.05,133.88L931.8,131.4L933.72,130.4L935.64,127.48L937.56,129.62L939.47,135.33L945.23,138.72L947.14,134.72L949.06,139.26L950.98,139.13L952.89,136.85L958.65,137.22L960.56,144.29L962.48,142.92L964.4,139.83L966.32,141.12L973.98,144.47L975.9,144.48L977.82,143.68L979.74,148.71L985.49,152.43L987.41,150.83L989.32,152.69L991.24,156.67L993.16,164.35L998.91,171.89L1000.83,174.51L1002.74,169.48L1004.66,172.52L1006.58,170.18L1012.33,173.28L1014.25,167.93L1018.08,164.25L1020,161.28" style="vector-effect: non-scaling-stroke; fill: none; stroke: rgb(255, 102, 146); stroke-opacity: 1; stroke-width: 2px; opacity: 1;"/></g><g class="points"/><g class="text"/></g><g class="trace scatter trace1d7d66" style="stroke-miterlimit: 2; opacity: 1;"><g class="fills"/><g class="errorbars"/><g class="lines"><path class="js-line" d="M0,27.98L5.75,25.27L7.67,25.91L9.59,26.76L11.5,26.32L13.42,25.63L19.17,26.72L23.01,26.08L24.92,26.63L26.84,25.92L32.59,27.49L34.51,26.81L36.43,27.37L38.35,26.7L40.26,32.89L51.77,30.95L53.68,29.37L59.44,27.08L61.35,29.51L63.27,27.25L65.19,31.12L67.11,29.38L72.86,29.95L74.77,29.46L76.69,34.1L78.61,31.58L80.53,34.06L86.28,34.7L88.2,30.01L90.11,31.35L92.03,28.97L93.95,24.35L99.7,25.57L101.62,24.87L103.53,27.9L107.37,25.8L113.12,27.47L116.95,21.58L118.87,20.69L120.79,23.13L126.54,23.22L128.46,21.93L130.38,18.88L134.21,17.54L139.96,17.26L141.88,18.68L143.8,16.07L145.71,14.56L147.63,16.54L153.38,19.16L155.3,18.01L157.22,18.14L159.14,16.57L161.05,12.59L166.8,12L170.64,13.07L172.56,15.22L174.47,14.41L180.23,19.03L184.06,20.9L185.98,19.42L187.89,20.42L193.65,16.31L195.56,17.14L197.48,13.8L199.4,12.58L201.32,16.38L207.07,13.82L208.98,16.17L212.82,23.3L214.74,29.2L224.32,39.45L226.24,37.46L228.16,40.83L233.91,37.86L237.74,41.28L239.66,36.23L241.58,34.57L247.33,33.41L249.25,39.07L251.17,38.81L255,38.26L260.75,38.1L262.67,34.12L264.59,33.27L266.5,35.83L268.42,36.69L278.01,36.58L279.92,38.55L281.84,36.19L287.59,32.1L289.51,29.45L291.43,30.68L293.35,30.67L295.26,35.19L302.93,33.77L304.85,30.53L308.68,36.88L314.44,38.22L316.35,34.39L318.27,34.83L320.19,33.64L322.11,36.78L327.86,39.2L329.77,30.86L331.69,32.85L333.61,32.22L341.28,30.77L343.2,29.54L347.03,29.67L348.95,30.73L354.7,27.49L356.62,23.99L358.53,25.83L360.45,26.33L362.37,26.3L368.12,24.42L371.95,24.81L373.87,21.6L375.79,25.62L381.54,23.45L385.38,22.93L387.29,23.88L389.21,21L394.96,20.7L396.88,20.61L398.8,19.65L400.71,19.99L402.63,23.84L408.38,26.05L410.3,27.6L412.22,28.74L414.14,28.25L416.05,25.09L421.8,26.78L423.72,26.61L425.64,30.22L427.56,29.88L429.47,33.6L435.23,33.05L437.14,31.01L442.89,27.9L448.65,27.02L452.48,31.72L454.4,28.08L456.32,30.13L463.98,29.19L465.9,31.08L467.82,26.78L469.74,25.75L475.49,27.81L477.41,28.26L479.32,27.83L481.24,25.04L483.16,32.64L488.91,29.92L490.83,26.95L492.74,28.17L494.66,26.37L496.58,28.74L502.33,32.27L504.25,31.87L506.17,35.54L508.08,34.13L510,36.78L515.75,35.71L517.67,37.29L519.59,35.38L521.5,41.16L523.42,46.04L529.17,44.27L533.01,46.24L534.92,45.43L542.59,44.95L544.51,41.91L546.43,43.25L548.35,43.65L550.26,45.06L556.02,42.82L557.93,41.38L559.85,41.02L561.77,47.77L563.68,47.43L569.44,46.45L571.35,39.5L573.27,37.22L575.19,38.68L577.11,38.18L582.86,43.1L584.77,42.06L586.69,39.37L588.61,42.61L590.53,39.7L596.28,38.18L598.2,31.33L600.11,28.78L602.03,35.26L603.95,29.97L609.7,30L611.62,28.38L613.53,29.2L615.45,30.32L617.37,28.46L626.95,33.19L628.87,33.62L630.79,30.44L636.54,34.48L638.46,34.73L640.38,33.62L642.29,31.77L644.21,35.94L653.8,35.43L655.71,39.54L657.63,39.86L663.38,34.05L665.3,38.2L667.22,37.41L669.14,36.44L671.05,39.78L678.72,56.34L680.64,66.53L684.47,58.07L690.23,58.61L694.06,67.79L695.98,64.86L697.89,65.54L703.65,76.1L705.56,66.03L707.48,64.62L711.32,72.74L717.07,83.07L718.98,92.94L720.9,98.83L722.82,117.66L724.74,126.18L730.49,99.66L732.41,99.55L734.32,114.27L736.24,104.68L738.16,108.99L743.91,99.35L745.83,103.63L747.74,111.42L749.66,109.27L751.58,117.54L757.33,123.82L759.25,103.35L761.17,109.01L763.08,107.5L770.75,103.93L772.67,98.86L776.5,116.45L778.42,109L784.17,108.43L786.09,113.79L788.01,122.25L789.92,110L791.84,116.37L797.59,120.3L799.51,116.06L801.43,128.25L803.35,139.03L805.26,127.1L811.02,121.24L812.93,123.12L814.85,118.59L818.68,115.06L824.44,128.82L826.35,127.66L828.27,122.61L830.19,130.32L832.11,125.29L837.86,126.26L839.77,129.32L841.69,127.82L845.53,129.04L851.28,126.2L853.2,121.02L855.11,124.04L858.95,127.26L864.7,127.46L866.62,129.7L868.53,129.09L872.37,127.64L878.12,128.53L880.04,125.5L881.95,124.22L885.79,118.01L891.54,118.05L895.38,120.6L897.29,120.46L904.96,124.42L906.88,123.63L908.8,131.63L910.71,131.57L912.63,128.84L920.3,130.08L922.22,128.56L924.14,132.3L926.05,134.85L931.8,132.43L933.72,131.42L935.64,128.52L937.56,130.67L939.47,136.31L945.23,139.65L947.14,135.73L949.06,140.28L950.98,140.11L952.89,137.86L958.65,138.29L960.56,145.35L962.48,143.99L964.4,140.96L966.32,142.25L973.98,145.55L975.9,145.56L977.82,144.88L979.74,149.85L985.49,153.51L987.41,152.05L989.32,153.82L991.24,157.74L993.16,165.5L998.91,172.9L1000.83,175.41L1002.74,170.4L1004.66,173.51L1006.58,171.2L1012.33,174.35L1014.25,169.08L1018.08,165.49L1020,162.46" style="vector-effect: non-scaling-stroke; fill: none; stroke: rgb(182, 232, 128); stroke-opacity: 1; stroke-width: 2px; opacity: 1;"/></g><g class="points"/><g class="text"/></g><g class="trace scatter trace32f0ac" style="stroke-miterlimit: 2; opacity: 1;"><g class="fills"/><g class="errorbars"/><g class="lines"><path class="js-line" d="M0,27.98L5.75,25.27L7.67,25.99L9.59,26.8L11.5,26.41L13.42,25.85L19.17,26.82L23.01,26.41L24.92,26.94L26.84,26.09L32.59,27.71L34.51,27.01L36.43,27.79L38.35,26.97L40.26,32.87L49.85,31.47L51.77,31.59L53.68,30.08L59.44,27.63L61.35,30.23L63.27,28.13L65.19,32.05L67.11,30.32L74.77,30.43L76.69,34.88L78.61,32.55L80.53,35.06L86.28,35.39L88.2,30.86L90.11,32.19L92.03,30.12L93.95,25.79L99.7,27.15L101.62,26.34L103.53,29.2L107.37,27.19L113.12,28.59L115.04,26.38L116.95,22.76L118.87,21.74L120.79,24.42L126.54,24.22L128.46,22.76L130.38,19.63L132.29,18.61L134.21,18.14L139.96,17.87L141.88,19.13L143.8,16.83L145.71,15.18L147.63,16.99L153.38,19.73L155.3,18.52L157.22,18.73L159.14,17.17L161.05,13.21L166.8,12.82L170.64,13.88L172.56,15.89L174.47,15.04L180.23,19.86L184.06,22.11L185.98,20.51L187.89,21.59L193.65,17.47L195.56,18.26L197.48,15.1L199.4,13.67L201.32,16.72L207.07,14.14L208.98,16.45L212.82,23.96L214.74,30.31L224.32,40.47L226.24,38.59L228.16,41.75L233.91,39.15L237.74,42.58L239.66,37.67L241.58,35.87L247.33,34.45L249.25,40.03L251.17,39.87L255,39.48L260.75,39.37L262.67,35.14L264.59,34.63L266.5,37.07L268.42,37.95L278.01,37.89L279.92,39.81L281.84,37.37L287.59,33.47L289.51,30.69L291.43,31.88L293.35,31.77L295.26,36.16L302.93,35.2L304.85,31.95L308.68,38.45L314.44,39.63L316.35,36.15L318.27,36.42L320.19,35.32L322.11,38.27L327.86,41.07L329.77,32.83L331.69,34.8L333.61,34.35L347.03,31.7L348.95,32.75L354.7,29.56L356.62,26.16L358.53,27.88L360.45,28.35L362.37,28.13L368.12,26.2L371.95,26.42L373.87,23.3L375.79,26.38L381.54,24.24L385.38,23.61L387.29,24.63L389.21,21.62L394.96,21.4L400.71,20.29L402.63,24.37L410.3,27.77L412.22,29.09L414.14,28.7L416.05,25.58L423.72,27.37L425.64,30.99L427.56,30.67L429.47,34.66L435.23,34.24L437.14,32.12L442.89,28.95L448.65,28.11L452.48,32.6L454.4,29.09L456.32,31.17L463.98,30.18L465.9,32.17L467.82,27.91L469.74,26.82L475.49,28.79L479.32,29.06L481.24,26.6L483.16,34.07L488.91,31.26L490.83,28.41L492.74,29.56L494.66,27.53L496.58,29.81L502.33,33.24L504.25,32.83L506.17,36.55L508.08,35.14L510,37.74L515.75,36.84L517.67,38.68L519.59,36.76L523.42,47.29L529.17,45.55L533.01,47.7L534.92,47.01L542.59,46.49L544.51,43.55L550.26,46.96L556.02,44.56L557.93,43.17L559.85,42.89L561.77,49.14L563.68,48.48L569.44,47.15L571.35,39.53L573.27,37.61L575.19,39.01L577.11,38.6L582.86,43.64L584.77,42.65L586.69,40.02L588.61,43.15L590.53,40.45L596.28,38.64L598.2,31.75L600.11,29.16L602.03,35.77L603.95,30.35L609.7,30.57L611.62,29.02L613.53,29.92L615.45,31.18L617.37,29.36L626.95,34.08L628.87,34.55L630.79,31.48L636.54,35.52L638.46,35.7L640.38,34.56L642.29,32.63L644.21,36.71L653.8,36.03L655.71,40.26L657.63,40.46L663.38,34.52L665.3,38.59L667.22,38L669.14,37.15L671.05,40.96L678.72,58.47L680.64,68.81L684.47,60.74L690.23,60.85L694.06,70.13L695.98,67.53L697.89,68.07L703.65,77.82L705.56,67.97L707.48,66.09L711.32,73.57L717.07,83.81L718.98,93.54L720.9,99.26L722.82,118.06L724.74,126.67L730.49,100.31L732.41,99.82L734.32,114.41L736.24,104.35L738.16,109.15L743.91,99.48L747.74,112.93L749.66,110.35L751.58,118.82L757.33,125.26L759.25,104.54L761.17,110.5L765,107.98L770.75,105.46L772.67,100.53L774.59,111.2L776.5,117.98L778.42,110.32L784.17,109.45L786.09,114.3L788.01,122.27L789.92,109.96L791.84,116.2L797.59,120.27L799.51,116.01L801.43,128.6L803.35,139.13L805.26,128.12L811.02,122.11L812.93,124.36L814.85,119.82L818.68,116.28L824.44,129.46L826.35,128.29L828.27,123.25L830.19,130.68L832.11,125.61L837.86,126.92L839.77,129.66L841.69,128.12L845.53,128.82L851.28,125.66L853.2,120.34L855.11,123.42L857.03,124.3L858.95,126.64L864.7,126.42L866.62,128.88L872.37,126.65L878.12,127.84L880.04,124.77L881.95,123.73L885.79,117.71L891.54,118.08L895.38,120.56L897.29,120.56L904.96,124.71L906.88,123.78L908.8,131.97L910.71,132.13L912.63,129.5L920.3,130.47L922.22,128.83L924.14,132.84L926.05,134.91L931.8,132.57L933.72,131.93L935.64,128.98L937.56,131.04L939.47,136.75L945.23,139.87L947.14,135.79L949.06,140.45L950.98,140.23L952.89,138.09L958.65,139.03L960.56,145.85L962.48,144.56L964.4,141.58L966.32,142.82L975.9,146.12L977.82,145.59L979.74,151.01L985.49,154.2L987.41,153.07L989.32,154.76L991.24,158.64L993.16,167.25L1000.83,176.78L1002.74,171.63L1004.66,174.74L1006.58,172.38L1012.33,176.06L1014.25,171.07L1018.08,167.93L1020,164.47" style="vector-effect: non-scaling-stroke; fill: none; stroke: rgb(255, 151, 255); stroke-opacity: 1; stroke-width: 2px; opacity: 1;"/></g><g class="points"/><g class="text"/></g><g class="trace scatter tracef8346b" style="stroke-miterlimit: 2; opacity: 1;"><g class="fills"/><g class="errorbars"/><g class="lines"><path class="js-line" d="M0,27.98L5.75,23.57L7.67,24.5L9.59,26.32L11.5,26.17L13.42,24.07L19.17,24.58L21.09,21.81L23.01,23.78L24.92,25.24L26.84,23.45L32.59,25.93L34.51,27.58L38.35,28.13L40.26,36.55L46.02,35.52L47.93,33.01L51.77,33.11L53.68,30.02L59.44,28.56L61.35,30.35L63.27,27.19L65.19,35.5L67.11,34.88L72.86,36.06L74.77,33.37L76.69,41.65L78.61,42.42L80.53,47.55L86.28,48.82L88.2,41.49L90.11,43.23L92.03,46.01L93.95,44.48L99.7,49.49L101.62,48.3L103.53,53.15L107.37,48.97L113.12,54.42L115.04,49.49L116.95,41.89L118.87,41.38L120.79,40L126.54,41.32L128.46,42.83L132.29,34.31L134.21,34.18L139.96,31.85L141.88,38.6L145.71,36.65L147.63,40.74L153.38,44.7L155.3,43.2L157.22,43.78L159.14,42.9L161.05,38.19L166.8,35.91L170.64,35.87L172.56,40.28L174.47,40.14L180.23,42.46L184.06,47.53L185.98,47.23L187.89,53.12L193.65,52.5L195.56,57.97L197.48,54.61L199.4,51.91L201.32,57.57L207.07,53.63L208.98,59.99L210.9,60.79L212.82,67.83L214.74,69.21L222.41,72.15L224.32,65.29L226.24,62.8L228.16,66.73L233.91,62.68L235.83,60.46L237.74,61.32L239.66,56.56L241.58,54.43L247.33,56.91L249.25,65.4L251.17,66.9L253.08,65.82L255,67.31L260.75,65.98L264.59,58.81L266.5,62.84L268.42,63.5L276.09,63.75L278.01,61.68L279.92,64.96L281.84,62.74L287.59,58.4L289.51,55.77L291.43,55.55L293.35,58.13L295.26,65.37L301.02,65.55L302.93,66.58L304.85,65.64L306.77,70.56L308.68,73.93L314.44,77.45L316.35,67.89L318.27,68.96L320.19,68.14L322.11,72.61L327.86,72.13L329.77,62.48L331.69,69.2L333.61,63.2L341.28,58.9L343.2,59.26L348.95,66.52L354.7,65.45L356.62,56.47L358.53,57.51L360.45,57.12L362.37,57.5L368.12,57.43L370.04,58.26L371.95,59.39L373.87,58.13L375.79,64.02L381.54,64.56L383.46,63.17L385.38,57.27L387.29,57.25L389.21,51.99L394.96,52.55L396.88,54.96L398.8,53.97L400.71,52L402.63,51.02L408.38,51.48L412.22,52.66L414.14,48.31L416.05,47.2L421.8,49.24L423.72,48.06L425.64,52.8L427.56,51.59L429.47,54.37L435.23,51.37L437.14,52.39L440.98,48.7L442.89,48.84L448.65,47.89L450.56,52.47L452.48,57.69L454.4,57.13L456.32,60.48L463.98,58.9L467.82,56.66L469.74,56.84L475.49,59.92L477.41,62.24L479.32,62.53L481.24,57.61L483.16,66.67L488.91,65.05L490.83,64.84L492.74,69.57L494.66,68.24L496.58,64.43L502.33,65.31L504.25,67.81L506.17,70.82L508.08,70.04L510,75.1L515.75,75.11L517.67,75.91L519.59,75.81L521.5,84.03L523.42,86.49L531.09,85.67L533.01,89.5L534.92,87.82L542.59,89.12L544.51,85.62L546.43,91.06L548.35,89.19L550.26,92.13L556.02,93.17L557.93,95.3L561.77,84.19L563.68,83.04L569.44,83.71L571.35,80.61L573.27,79.93L575.19,86.42L577.11,85.93L582.86,91.43L586.69,81.04L588.61,85.77L590.53,86.95L596.28,87.92L598.2,80.31L600.11,79.38L602.03,84.54L603.95,77.59L609.7,76.48L611.62,79.7L613.53,82.21L615.45,80.3L617.37,79.3L623.12,83.44L625.04,86.44L626.95,84.86L628.87,84.57L630.79,80.03L636.54,85.58L638.46,84.97L640.38,82.91L642.29,78.03L644.21,81.96L651.88,82.58L653.8,82.21L655.71,90.12L657.63,89.37L663.38,82.72L665.3,89.15L667.22,88.27L669.14,84.49L671.05,84.76L676.8,96.34L678.72,93.09L680.64,103.4L682.56,93.99L684.47,85.53L690.23,94.08L692.14,97.79L694.06,98.45L697.89,91.16L703.65,109.01L705.56,97.87L707.48,98.32L709.4,106.31L711.32,109.93L717.07,118.42L718.98,130.09L720.9,134.42L722.82,150.01L724.74,152.94L730.49,131.45L732.41,133.21L734.32,150.04L736.24,140.82L738.16,143.74L743.91,134.26L745.83,139.58L747.74,151.38L749.66,147.43L751.58,154.6L757.33,159.27L759.25,138.85L761.17,140.56L765,132.89L770.75,133.01L772.67,126L774.59,137.15L776.5,147.33L778.42,141.64L784.17,143.32L786.09,147.37L788.01,156.81L789.92,144.13L791.84,151.89L797.59,157.02L799.51,153.55L801.43,163.36L803.35,173.58L805.26,162.24L811.02,153.12L812.93,152.3L814.85,146.62L818.68,144.27L824.44,159.88L826.35,153.68L828.27,149.72L830.19,154.66L832.11,148.72L837.86,141.86L839.77,147.43L841.69,145.82L843.61,150.33L845.53,148.85L851.28,150.34L853.2,142.09L855.11,144.38L857.03,149.41L864.7,151.37L866.62,153.67L868.53,152.55L872.37,151.47L878.12,152.19L880.04,147.96L885.79,139.55L891.54,141.43L893.46,140L895.38,145.63L897.29,146.26L899.21,149.55L906.88,153L908.8,158.71L910.71,158.42L912.63,156.85L920.3,164.47L922.22,158.06L924.14,160.48L926.05,161.52L931.8,160.64L933.72,159.29L935.64,154.68L937.56,159.88L939.47,163.28L945.23,164.75L947.14,161.5L949.06,164.3L950.98,161.85L952.89,156.86L958.65,157.08L960.56,165.85L962.48,164.69L964.4,164.84L973.98,173.57L975.9,173.5L985.49,183.62L987.41,178.2L991.24,182.07L993.16,184.81L998.91,191.69L1000.83,192.54L1002.74,189.1L1004.66,195.56L1006.58,194.82L1012.33,196.65L1014.25,187.94L1016.17,187.85L1018.08,182.35L1020,181.11" style="vector-effect: non-scaling-stroke; fill: none; stroke: rgb(254, 203, 82); stroke-opacity: 1; stroke-width: 2px; opacity: 1;"/></g><g class="points"/><g class="text"/></g></g></g><g class="overplot"/><path class="xlines-above crisp" d="M0,0" style="fill: none;"/><path class="ylines-above crisp" d="M0,0" style="fill: none;"/><g class="overlines-above"/><g class="xaxislayer-above"><g class="xtick"><text text-anchor="middle" x="0" y="280" transform="translate(115.19,0)" style="font-family: 'Open Sans', verdana, arial, sans-serif; font-size: 12px; fill: rgb(42, 63, 95); fill-opacity: 1; white-space: pre; opacity: 1;">Nov 2007</text></g><g class="xtick"><text text-anchor="middle" x="0" y="280" style="font-family: 'Open Sans', verdana, arial, sans-serif; font-size: 12px; fill: rgb(42, 63, 95); fill-opacity: 1; white-space: pre; opacity: 1;" transform="translate(232.14,0)">Jan 2008</text></g><g class="xtick"><text text-anchor="middle" x="0" y="280" style="font-family: 'Open Sans', verdana, arial, sans-serif; font-size: 12px; fill: rgb(42, 63, 95); fill-opacity: 1; white-space: pre; opacity: 1;" transform="translate(347.18,0)">Mar 2008</text></g><g class="xtick"><text text-anchor="middle" x="0" y="280" style="font-family: 'Open Sans', verdana, arial, sans-serif; font-size: 12px; fill: rgb(42, 63, 95); fill-opacity: 1; white-space: pre; opacity: 1;" transform="translate(464.14,0)">May 2008</text></g><g class="xtick"><text text-anchor="middle" x="0" y="280" style="font-family: 'Open Sans', verdana, arial, sans-serif; font-size: 12px; fill: rgb(42, 63, 95); fill-opacity: 1; white-space: pre; opacity: 1;" transform="translate(581.09,0)">Jul 2008</text></g><g class="xtick"><text text-anchor="middle" x="0" y="280" style="font-family: 'Open Sans', verdana, arial, sans-serif; font-size: 12px; fill: rgb(42, 63, 95); fill-opacity: 1; white-space: pre; opacity: 1;" transform="translate(699.96,0)">Sep 2008</text></g><g class="xtick"><text text-anchor="middle" x="0" y="280" style="font-family: 'Open Sans', verdana, arial, sans-serif; font-size: 12px; fill: rgb(42, 63, 95); fill-opacity: 1; white-space: pre; opacity: 1;" transform="translate(816.92,0)">Nov 2008</text></g><g class="xtick"><text text-anchor="middle" x="0" y="280" style="font-family: 'Open Sans', verdana, arial, sans-serif; font-size: 12px; fill: rgb(42, 63, 95); fill-opacity: 1; white-space: pre; opacity: 1;" transform="translate(933.87,0)">Jan 2009</text></g><g class="xtick"><text text-anchor="middle" x="0" y="280" style="font-family: 'Open Sans', verdana, arial, sans-serif; font-size: 12px; fill: rgb(42, 63, 95); fill-opacity: 1; white-space: pre; opacity: 1;" transform="translate(1046.99,0)">Mar 2009</text></g></g><g class="yaxislayer-above"><g class="ytick"><text text-anchor="end" x="49" y="4.199999999999999" transform="translate(0,223.3)" style="font-family: 'Open Sans', verdana, arial, sans-serif; font-size: 12px; fill: rgb(42, 63, 95); fill-opacity: 1; white-space: pre; opacity: 1;">8k</text></g><g class="ytick"><text text-anchor="end" x="49" y="4.199999999999999" style="font-family: 'Open Sans', verdana, arial, sans-serif; font-size: 12px; fill: rgb(42, 63, 95); fill-opacity: 1; white-space: pre; opacity: 1;" transform="translate(0,177.39)">10k</text></g><g class="ytick"><text text-anchor="end" x="49" y="4.199999999999999" style="font-family: 'Open Sans', verdana, arial, sans-serif; font-size: 12px; fill: rgb(42, 63, 95); fill-opacity: 1; white-space: pre; opacity: 1;" transform="translate(0,131.49)">12k</text></g><g class="ytick"><text text-anchor="end" x="49" y="4.199999999999999" style="font-family: 'Open Sans', verdana, arial, sans-serif; font-size: 12px; fill: rgb(42, 63, 95); fill-opacity: 1; white-space: pre; opacity: 1;" transform="translate(0,85.58)">14k</text></g></g><g class="overaxes-above"/></g></g><g class="polarlayer"/><g class="ternarylayer"/><g class="geolayer"/><g class="funnelarealayer"/><g class="pielayer"/><g class="iciclelayer"/><g class="treemaplayer"/><g class="sunburstlayer"/><g class="glimages"/><defs id="topdefs-9546bb"><g class="clips"/><clipPath id="legend9546bb"><rect width="136" height="200" x="0" y="0"/></clipPath></defs><g class="layer-above"><g class="imagelayer"/><g class="shapelayer"/></g><g class="infolayer"><g class="legend" pointer-events="all" transform="translate(1090.4,60)"><rect class="bg" shape-rendering="crispEdges" width="136" height="200" x="0" y="0" style="stroke: rgb(68, 68, 68); stroke-opacity: 1; fill: rgb(255, 255, 255); fill-opacity: 1; stroke-width: 0px;"/><g class="scrollbox" transform="" clip-path="url(#legend9546bb)"><g class="groups"><g class="traces" transform="translate(0,14.5)" style="opacity: 0.5;"><text class="legendtext" text-anchor="start" x="40" y="4.680000000000001" style="font-family: 'Open Sans', verdana, arial, sans-serif; font-size: 12px; fill: rgb(42, 63, 95); fill-opacity: 1; white-space: pre;">Conic γ=0.1</text><g class="layers" style="opacity: 1;"><g class="legendfill"/><g class="legendlines"><path class="js-line" d="M5,0h30" style="fill: none; stroke: rgb(99, 110, 250); stroke-opacity: 1; stroke-width: 2px;"/></g><g class="legendsymbols"><g class="legendpoints"/></g></g><rect class="legendtoggle" x="0" y="-9.5" width="130.8186798095703" height="19" style="fill: rgb(0, 0, 0); fill-opacity: 0;"/></g><g class="traces" transform="translate(0,33.5)" style="opacity: 0.5;"><text class="legendtext" text-anchor="start" x="40" y="4.680000000000001" style="font-family: 'Open Sans', verdana, arial, sans-serif; font-size: 12px; fill: rgb(42, 63, 95); fill-opacity: 1; white-space: pre;">Conic γ=3.275</text><g class="layers" style="opacity: 1;"><g class="legendfill"/><g class="legendlines"><path class="js-line" d="M5,0h30" style="fill: none; stroke: rgb(239, 85, 59); stroke-opacity: 1; stroke-width: 2px;"/></g><g class="legendsymbols"><g class="legendpoints"/></g></g><rect class="legendtoggle" x="0" y="-9.5" width="130.8186798095703" height="19" style="fill: rgb(0, 0, 0); fill-opacity: 0;"/></g><g class="traces" transform="translate(0,52.5)" style="opacity: 0.5;"><text class="legendtext" text-anchor="start" x="40" y="4.680000000000001" style="font-family: 'Open Sans', verdana, arial, sans-serif; font-size: 12px; fill: rgb(42, 63, 95); fill-opacity: 1; white-space: pre;">Conic γ=6.45</text><g class="layers" style="opacity: 1;"><g class="legendfill"/><g class="legendlines"><path class="js-line" d="M5,0h30" style="fill: none; stroke: rgb(0, 204, 150); stroke-opacity: 1; stroke-width: 2px;"/></g><g class="legendsymbols"><g class="legendpoints"/></g></g><rect class="legendtoggle" x="0" y="-9.5" width="130.8186798095703" height="19" style="fill: rgb(0, 0, 0); fill-opacity: 0;"/></g><g class="traces" transform="translate(0,71.5)" style="opacity: 0.5;"><text class="legendtext" text-anchor="start" x="40" y="4.680000000000001" style="font-family: 'Open Sans', verdana, arial, sans-serif; font-size: 12px; fill: rgb(42, 63, 95); fill-opacity: 1; white-space: pre;">Conic γ=9.625</text><g class="layers" style="opacity: 1;"><g class="legendfill"/><g class="legendlines"><path class="js-line" d="M5,0h30" style="fill: none; stroke: rgb(171, 99, 250); stroke-opacity: 1; stroke-width: 2px;"/></g><g class="legendsymbols"><g class="legendpoints"/></g></g><rect class="legendtoggle" x="0" y="-9.5" width="130.8186798095703" height="19" style="fill: rgb(0, 0, 0); fill-opacity: 0;"/></g><g class="traces" transform="translate(0,90.5)" style="opacity: 0.5;"><text class="legendtext" text-anchor="start" x="40" y="4.680000000000001" style="font-family: 'Open Sans', verdana, arial, sans-serif; font-size: 12px; fill: rgb(42, 63, 95); fill-opacity: 1; white-space: pre;">Conic γ=12.8</text><g class="layers" style="opacity: 1;"><g class="legendfill"/><g class="legendlines"><path class="js-line" d="M5,0h30" style="fill: none; stroke: rgb(255, 161, 90); stroke-opacity: 1; stroke-width: 2px;"/></g><g class="legendsymbols"><g class="legendpoints"/></g></g><rect class="legendtoggle" x="0" y="-9.5" width="130.8186798095703" height="19" style="fill: rgb(0, 0, 0); fill-opacity: 0;"/></g><g class="traces" transform="translate(0,109.5)" style="opacity: 1;"><text class="legendtext" text-anchor="start" x="40" y="4.680000000000001" style="font-family: 'Open Sans', verdana, arial, sans-serif; font-size: 12px; fill: rgb(42, 63, 95); fill-opacity: 1; white-space: pre;">Mean-Variance</text><g class="layers" style="opacity: 1;"><g class="legendfill"/><g class="legendlines"><path class="js-line" d="M5,0h30" style="fill: none; stroke: rgb(25, 211, 243); stroke-opacity: 1; stroke-width: 2px;"/></g><g class="legendsymbols"><g class="legendpoints"/></g></g><rect class="legendtoggle" x="0" y="-9.5" width="130.8186798095703" height="19" style="fill: rgb(0, 0, 0); fill-opacity: 0;"/></g><g class="traces" transform="translate(0,128.5)" style="opacity: 1;"><text class="legendtext" text-anchor="start" x="40" y="4.680000000000001" style="font-family: 'Open Sans', verdana, arial, sans-serif; font-size: 12px; fill: rgb(42, 63, 95); fill-opacity: 1; white-space: pre;">Mean-VaR</text><g class="layers" style="opacity: 1;"><g class="legendfill"/><g class="legendlines"><path class="js-line" d="M5,0h30" style="fill: none; stroke: rgb(255, 102, 146); stroke-opacity: 1; stroke-width: 2px;"/></g><g class="legendsymbols"><g class="legendpoints"/></g></g><rect class="legendtoggle" x="0" y="-9.5" width="130.8186798095703" height="19" style="fill: rgb(0, 0, 0); fill-opacity: 0;"/></g><g class="traces" transform="translate(0,147.5)" style="opacity: 1;"><text class="legendtext" text-anchor="start" x="40" y="4.680000000000001" style="font-family: 'Open Sans', verdana, arial, sans-serif; font-size: 12px; fill: rgb(42, 63, 95); fill-opacity: 1; white-space: pre;">Mean-CVaR 95%</text><g class="layers" style="opacity: 1;"><g class="legendfill"/><g class="legendlines"><path class="js-line" d="M5,0h30" style="fill: none; stroke: rgb(182, 232, 128); stroke-opacity: 1; stroke-width: 2px;"/></g><g class="legendsymbols"><g class="legendpoints"/></g></g><rect class="legendtoggle" x="0" y="-9.5" width="130.8186798095703" height="19" style="fill: rgb(0, 0, 0); fill-opacity: 0;"/></g><g class="traces" transform="translate(0,166.5)" style="opacity: 1;"><text class="legendtext" text-anchor="start" x="40" y="4.680000000000001" style="font-family: 'Open Sans', verdana, arial, sans-serif; font-size: 12px; fill: rgb(42, 63, 95); fill-opacity: 1; white-space: pre;">Mean-CVaR 99%</text><g class="layers" style="opacity: 1;"><g class="legendfill"/><g class="legendlines"><path class="js-line" d="M5,0h30" style="fill: none; stroke: rgb(255, 151, 255); stroke-opacity: 1; stroke-width: 2px;"/></g><g class="legendsymbols"><g class="legendpoints"/></g></g><rect class="legendtoggle" x="0" y="-9.5" width="130.8186798095703" height="19" style="fill: rgb(0, 0, 0); fill-opacity: 0;"/></g><g class="traces" transform="translate(0,185.5)" style="opacity: 1;"><text class="legendtext" text-anchor="start" x="40" y="4.680000000000001" style="font-family: 'Open Sans', verdana, arial, sans-serif; font-size: 12px; fill: rgb(42, 63, 95); fill-opacity: 1; white-space: pre;">DJIA</text><g class="layers" style="opacity: 1;"><g class="legendfill"/><g class="legendlines"><path class="js-line" d="M5,0h30" style="fill: none; stroke: rgb(254, 203, 82); stroke-opacity: 1; stroke-width: 2px;"/></g><g class="legendsymbols"><g class="legendpoints"/></g></g><rect class="legendtoggle" x="0" y="-9.5" width="130.8186798095703" height="19" style="fill: rgb(0, 0, 0); fill-opacity: 0;"/></g></g></g><rect class="scrollbar" rx="20" ry="3" width="0" height="0" x="0" y="0" style="fill: rgb(128, 139, 164); fill-opacity: 1;"/></g><g class="g-gtitle"/><g class="g-xtitle"/><g class="g-ytitle"/></g></svg>