<svg class="main-svg" xmlns="http://www.w3.org/2000/svg" xmlns:xlink="http://www.w3.org/1999/xlink" width="1238" height="317" style=""><rect x="0" y="0" width="1238" height="317" style="fill: rgb(255, 255, 255); fill-opacity: 1;"/><defs id="defs-87418f"><g class="clips"><clipPath id="clip87418fxyplot" class="plotclip"><rect width="1020" height="207"/></clipPath><clipPath class="axesclip" id="clip87418fx"><rect x="50" y="0" width="1020" height="317"/></clipPath><clipPath class="axesclip" id="clip87418fy"><rect x="0" y="60" width="1238" height="207"/></clipPath><clipPath class="axesclip" id="clip87418fxy"><rect x="50" y="60" width="1020" height="207"/></clipPath></g><g class="gradients"/><g class="patterns"/></defs><g class="bglayer"><rect class="bg" x="50" y="60" width="1020" height="207" style="fill: rgb(229, 236, 246); fill-opacity: 1; stroke-width: 0;"/></g><g class="layer-below"><g class="imagelayer"/><g class="shapelayer"/></g><g class="cartesianlayer"><g class="subplot xy"><g class="layer-subplot"><g class="shapelayer"/><g class="imagelayer"/></g><g class="gridlayer"><g class="x"><path class="xgrid crisp" transform="translate(80.1,0)" d="M0,60v207" style="stroke: rgb(255, 255, 255); stroke-opacity: 1; stroke-width: 1px;"/><path class="xgrid crisp" transform="translate(188.13,0)" d="M0,60v207" style="stroke: rgb(255, 255, 255); stroke-opacity: 1; stroke-width: 1px;"/><path class="xgrid crisp" transform="translate(296.15,0)" d="M0,60v207" style="stroke: rgb(255, 255, 255); stroke-opacity: 1; stroke-width: 1px;"/><path class="xgrid crisp" transform="translate(402.4,0)" d="M0,60v207" style="stroke: rgb(255, 255, 255); stroke-opacity: 1; stroke-width: 1px;"/><path class="xgrid crisp" transform="translate(510.42,0)" d="M0,60v207" style="stroke: rgb(255, 255, 255); stroke-opacity: 1; stroke-width: 1px;"/><path class="xgrid crisp" transform="translate(618.44,0)" d="M0,60v207" style="stroke: rgb(255, 255, 255); stroke-opacity: 1; stroke-width: 1px;"/><path class="xgrid crisp" transform="translate(728.23,0)" d="M0,60v207" style="stroke: rgb(255, 255, 255); stroke-opacity: 1; stroke-width: 1px;"/><path class="xgrid crisp" transform="translate(836.25,0)" d="M0,60v207" style="stroke: rgb(255, 255, 255); stroke-opacity: 1; stroke-width: 1px;"/><path class="xgrid crisp" transform="translate(944.27,0)" d="M0,60v207" style="stroke: rgb(255, 255, 255); stroke-opacity: 1; stroke-width: 1px;"/><path class="xgrid crisp" transform="translate(1048.75,0)" d="M0,60v207" style="stroke: rgb(255, 255, 255); stroke-opacity: 1; stroke-width: 1px;"/></g><g class="y"><path class="ygrid crisp" transform="translate(0,226.29)" d="M50,0h1020" style="stroke: rgb(255, 255, 255); stroke-opacity: 1; stroke-width: 1px;"/><path class="ygrid crisp" transform="translate(0,184.51)" d="M50,0h1020" style="stroke: rgb(255, 255, 255); stroke-opacity: 1; stroke-width: 1px;"/><path class="ygrid crisp" transform="translate(0,142.73000000000002)" d="M50,0h1020" style="stroke: rgb(255, 255, 255); stroke-opacity: 1; stroke-width: 1px;"/><path class="ygrid crisp" transform="translate(0,100.94)" d="M50,0h1020" style="stroke: rgb(255, 255, 255); stroke-opacity: 1; stroke-width: 1px;"/></g></g><g class="zerolinelayer"/><path class="xlines-below"/><path class="ylines-below"/><g class="overlines-below"/><g class="xaxislayer-below"/><g class="yaxislayer-below"/><g class="overaxes-below"/><g class="plot" transform="translate(50,60)" clip-path="url(#clip87418fxyplot)"><g class="scatterlayer mlayer"><g class="trace scatter trace594303" style="stroke-miterlimit: 2; opacity: 1;"><g class="fills"/><g class="errorbars"/><g class="lines"><path class="js-line" d="M0,64.73L1.77,65.41L3.54,61.84L8.85,62.61L10.63,63.75L15.94,58.57L21.25,58.63L23.02,61.29L24.79,58.29L26.56,60L28.33,58.66L35.42,57.37L37.19,59.49L38.96,58.01L40.73,59.33L46.04,59.26L47.81,55.84L53.13,51.54L58.44,53.58L60.21,49.74L61.98,47.74L63.75,48.05L65.52,46.03L72.6,45.76L74.38,43.96L83.23,40.46L85,40.9L86.77,41.68L88.54,41.44L90.31,40.63L95.63,41.43L102.71,40.26L108.02,41.82L109.79,41.15L111.56,42L113.33,41.49L115.1,47.11L122.19,46.13L123.96,46.37L125.73,46.21L127.5,44.32L132.81,42.05L134.58,44.44L136.35,42.54L138.13,46.35L139.9,44.75L145.21,45.77L146.98,45.79L148.75,49.77L150.52,48.22L152.29,50.97L157.6,51.15L159.38,46.53L161.15,47.61L162.92,45.6L164.69,41.35L170,42.83L171.77,42.24L173.54,44.84L177.08,42.89L182.4,44.67L184.17,42.96L185.94,39.48L187.71,38.28L189.48,40.65L194.79,40.55L196.56,38.95L198.33,36.14L200.1,35.3L201.88,34.79L207.19,34.31L208.96,35.26L210.73,33.21L212.5,32.2L214.27,34.21L219.58,36.67L221.35,35.4L223.13,35.57L224.9,33.9L226.67,30.31L231.98,29.79L235.52,30.78L237.29,32.73L239.06,31.84L244.38,36.46L247.92,38.3L249.69,36.93L251.46,38.06L256.77,34.41L258.54,35.43L260.31,32.47L262.08,30.91L263.85,33.9L269.17,31.17L270.94,33.5L276.25,45.37L283.33,52.22L285.1,54.15L286.88,52.32L288.65,55.23L293.96,53.11L297.5,55.85L299.27,50.97L301.04,49.13L306.35,48.12L308.13,53.4L309.9,53.55L318.75,52.45L320.52,48.85L322.29,48.1L324.06,50.43L325.83,51.32L332.92,51.23L334.69,51.36L336.46,52.99L338.23,50.91L343.54,47.32L345.31,44.43L347.08,45.31L348.85,45.04L350.63,49.12L357.71,47.89L359.48,44.92L363.02,50.47L368.33,51.62L370.1,48.07L371.88,48.46L373.65,47.35L375.42,50.36L380.73,53.56L382.5,45.96L384.27,47.79L386.04,47.22L396.67,44.51L398.44,44.7L400.21,45.56L405.52,42.25L407.29,39.1L409.06,40.57L412.6,40.79L417.92,39.13L421.46,39.75L423.23,36.86L425,39.7L430.31,37.76L433.85,36.78L435.63,37.44L437.4,34.98L442.71,34.62L446.25,33.67L448.02,34.08L449.79,37.91L455.1,40.02L458.65,42.65L460.42,42.4L462.19,39.42L467.5,41.07L469.27,41.03L471.04,43.91L472.81,43.31L474.58,46.96L479.9,46.14L481.67,44.26L486.98,41.39L492.29,40.75L495.83,44.95L497.6,41.56L499.38,43.48L506.46,42.32L508.23,43.4L510,39.43L511.77,38.59L517.08,40.56L520.63,40.82L522.4,38.02L524.17,44.51L529.48,41.27L531.25,38.55L533.02,40.34L534.79,38.68L536.56,40.67L541.88,43.72L543.65,43.21L545.42,46.61L547.19,45.65L548.96,48.6L554.27,47.69L556.04,49.26L557.81,46.63L561.35,56.31L566.67,54.73L570.21,56.69L571.98,56.19L579.06,55.18L580.83,52.2L582.6,53.55L584.38,53.74L586.15,54.84L591.46,52.8L593.23,51.51L595,51.35L596.77,58L598.54,56.91L603.85,55.65L605.63,48.55L607.4,46.99L609.17,48.32L610.94,48.36L616.25,52.87L618.02,51.94L619.79,49.18L621.56,51.67L623.33,49.6L628.65,47.99L630.42,41.92L632.19,39.56L633.96,45.72L635.73,41.11L641.04,41.28L642.81,39.62L644.58,40.27L646.35,41.51L648.13,39.59L656.98,44.05L658.75,44.11L660.52,41.31L665.83,44.99L667.6,45.3L669.38,44.34L671.15,42.63L672.92,46.4L681.77,46.39L683.54,50.16L685.31,50.37L690.63,45L692.4,48.44L694.17,47.27L695.94,46.41L697.71,49.33L704.79,63.9L706.56,72.68L710.1,64.98L715.42,64.83L718.96,72.93L720.73,70.08L722.5,71.46L727.81,80.07L729.58,71.31L731.35,69.92L740.21,87.44L741.98,97.14L743.75,103.31L745.52,119.98L747.29,127.47L752.6,103.42L754.38,101.81L756.15,116.08L757.92,106.92L759.69,111.03L765,102.51L766.77,107.53L768.54,114.85L770.31,112.84L772.08,120.56L777.4,125.79L779.17,106.7L780.94,111.56L789.79,107.57L791.56,103.31L795.1,119.36L796.88,112.45L802.19,111.44L803.96,116.14L805.73,124.04L807.5,113.1L809.27,118.46L814.58,122.39L816.35,118.62L818.13,130.83L819.9,141.63L821.67,132.1L826.98,125.51L828.75,126.63L830.52,121.69L834.06,118.15L839.38,130.68L841.15,129.65L842.92,125L844.69,132.24L846.46,127.68L851.77,128.81L853.54,131.27L855.31,129.75L858.85,130.59L864.17,127.93L865.94,123.37L867.71,125.95L869.48,127.11L871.25,129.33L876.56,129.46L878.33,131.57L883.65,129.5L888.96,130.36L890.73,127.6L892.5,126.65L896.04,120.85L901.35,121.13L906.67,123.62L908.44,124.6L913.75,127.87L915.52,126.9L917.29,135.32L919.06,135.8L920.83,133.58L927.92,134.8L929.69,132.61L931.46,136.97L933.23,138.64L938.54,136.67L940.31,136.25L942.08,133.4L943.85,134.96L945.63,140.93L950.94,143.63L952.71,139.62L954.48,143.9L956.25,143.55L958.02,141.33L963.33,141.76L965.1,148.26L966.88,146.8L968.65,144.3L970.42,145.64L979.27,148.17L981.04,147.82L982.81,153.11L988.13,155.91L989.9,154.02L991.67,155.59L993.44,158.93L995.21,167.32L1002.29,176.7L1004.06,171.96L1005.83,174.18L1007.6,172.31L1012.92,175.5L1014.69,170.6L1018.23,167.79L1020,164.98" style="vector-effect: non-scaling-stroke; fill: none; stroke: rgb(99, 110, 250); stroke-opacity: 1; stroke-width: 2px; opacity: 1;"/></g><g class="points"/><g class="text"/></g><g class="trace scatter trace2ac0aa" style="stroke-miterlimit: 2; opacity: 1;"><g class="fills"/><g class="errorbars"/><g class="lines"><path class="js-line" d="M0,64.73L1.77,64.86L3.54,61.24L10.63,63.21L12.4,61.42L14.17,60.25L15.94,57.96L21.25,58.15L23.02,60.66L24.79,57.66L26.56,59.39L28.33,58.27L35.42,56.64L37.19,58.62L38.96,57L40.73,58.43L46.04,58.04L49.58,52.9L51.35,51.99L53.13,50.6L58.44,52.38L61.98,46.74L63.75,46.73L65.52,44.58L70.83,44.11L72.6,44.31L74.38,42.55L77.92,41.92L83.23,39.39L86.77,40.45L88.54,39.98L90.31,39.47L95.63,40.45L102.71,38.91L108.02,40.15L109.79,39.03L111.56,39.34L113.33,38.93L115.1,43.49L122.19,41.8L123.96,41.96L125.73,41.54L127.5,39.98L132.81,37.8L134.58,40.54L136.35,38.27L138.13,41.73L139.9,40.2L145.21,40.47L146.98,40.15L148.75,43.76L150.52,41.48L152.29,43.69L157.6,43.9L159.38,39.52L161.15,40.82L162.92,38L164.69,32.99L170,33.9L171.77,33.05L173.54,36.05L177.08,34.03L182.4,36.02L187.71,29.23L189.48,31.18L194.79,31L196.56,29.22L198.33,26.76L200.1,26.29L201.88,25.74L207.19,25.45L208.96,25.99L210.73,22.63L212.5,21.87L214.27,23.88L219.58,26.51L221.35,25.21L223.13,25.27L224.9,23.37L226.67,19.65L231.98,19.16L235.52,19.89L237.29,21.97L239.06,20.96L244.38,25.79L247.92,27.46L249.69,26.29L251.46,27.25L256.77,22.94L258.54,23.7L260.31,20.81L262.08,19.15L263.85,22.71L269.17,20.45L270.94,22.12L274.48,27.87L276.25,33.83L285.1,43.61L286.88,42.26L288.65,45.75L293.96,43.55L297.5,45.95L299.27,41.71L301.04,40.51L306.35,39.42L308.13,44.57L309.9,44.43L311.67,43.22L313.44,43.4L318.75,42.31L320.52,38.64L322.29,37.34L324.06,39.82L325.83,40.46L332.92,41.5L334.69,41.77L336.46,42.99L338.23,40.54L343.54,36.74L345.31,34.19L347.08,35.86L348.85,35.26L350.63,38.89L357.71,37.48L359.48,34.36L363.02,39.11L368.33,39.83L370.1,37.13L371.88,38.01L373.65,36.86L375.42,39.75L380.73,40.33L382.5,33.6L384.27,34.75L386.04,34.23L396.67,31.56L398.44,31.9L400.21,32.2L405.52,29.96L407.29,27.31L409.06,28.95L412.6,29.64L417.92,27.98L419.69,27.99L421.46,28.9L423.23,25.7L425,28.72L432.08,25.89L433.85,25.84L435.63,26.96L437.4,25.89L444.48,24.63L446.25,23.34L448.02,24.14L449.79,28.09L455.1,30.04L456.88,31.52L460.42,31.84L462.19,28.88L469.27,30.24L471.04,32.16L472.81,31.3L474.58,34.35L479.9,33.22L481.67,31.41L485.21,28.81L486.98,27.67L492.29,27.06L494.06,29.28L495.83,31.47L497.6,27.99L499.38,29.94L506.46,28.73L508.23,29.69L510,25.39L511.77,24.42L517.08,26.54L520.63,26.18L522.4,22.46L524.17,28.84L529.48,26.6L531.25,24.43L533.02,25.76L534.79,24.59L536.56,26.5L541.88,30.13L543.65,29.41L545.42,32.51L547.19,31.2L548.96,34.21L554.27,32.26L556.04,33.39L557.81,30.49L561.35,40.36L566.67,37.91L568.44,39.28L570.21,38.92L571.98,37.91L579.06,37.47L580.83,34.54L582.6,35.26L584.38,34.46L586.15,35.84L591.46,33.41L593.23,31.07L595,32.08L596.77,39.11L603.85,39.32L605.63,33.95L607.4,31.5L609.17,31.64L610.94,31.47L616.25,35.13L618.02,34.15L619.79,31.12L621.56,34.77L623.33,32.4L628.65,30.83L630.42,25L632.19,22.84L633.96,28.06L635.73,23.94L641.04,23.71L642.81,21.72L644.58,22.19L646.35,23.31L648.13,21.17L653.44,23.39L655.21,24.96L658.75,25.14L660.52,22.18L667.6,26.53L669.38,25.57L671.15,23.92L672.92,27.96L681.77,27.45L683.54,31.11L685.31,31.47L690.63,26.12L692.4,28.29L694.17,26.99L695.94,25.62L697.71,26.9L704.79,36.91L706.56,44.47L708.33,41.14L710.1,40.17L715.42,42.71L717.19,48.27L718.96,49.16L720.73,45.26L722.5,46.18L727.81,55.74L729.58,46.81L731.35,46.36L734.9,51.4L740.21,62.71L741.98,72.68L743.75,78.32L745.52,95.28L747.29,102.62L752.6,76.66L754.38,77.12L756.15,92.14L757.92,81.31L759.69,83.63L765,73.18L766.77,78.21L768.54,86.94L770.31,84.01L772.08,91.71L777.4,96.21L779.17,74.9L780.94,80.53L782.71,79.07L789.79,76.86L791.56,72.5L795.1,88.64L796.88,81.85L802.19,80.64L803.96,85.67L805.73,93.77L807.5,80.57L809.27,87.75L814.58,91.59L816.35,86.57L818.13,97.38L819.9,108.6L821.67,94.77L826.98,91.06L828.75,91.59L830.52,87.54L834.06,85.71L839.38,98.84L841.15,98.13L842.92,93.22L844.69,100.49L846.46,94.85L851.77,96.49L853.54,100.54L855.31,99.13L858.85,99.58L864.17,97.15L865.94,92.64L867.71,94.95L871.25,97.04L876.56,96.83L878.33,99.01L880.1,98.41L883.65,96.76L888.96,96.72L892.5,92.05L896.04,86.34L901.35,87.62L903.13,89.69L908.44,92.14L913.75,93.3L915.52,92.34L917.29,98.52L919.06,97.87L920.83,94.72L927.92,94.9L929.69,93.64L933.23,98.46L938.54,94.36L940.31,94.69L942.08,92.14L943.85,93.6L945.63,99.51L950.94,102.6L952.71,96.87L954.48,102.8L956.25,102.35L958.02,99.71L963.33,100.51L965.1,107.08L966.88,106.19L968.65,103L970.42,104.97L977.5,107.21L979.27,106.17L981.04,103.29L982.81,106.23L988.13,110.92L989.9,109.37L991.67,110.45L993.44,114.17L995.21,117.89L1000.52,124.86L1002.29,128.4L1004.06,122.58L1005.83,124.16L1007.6,122.69L1012.92,127.61L1014.69,123.4L1016.46,122.37L1018.23,119.87L1020,117.05" style="vector-effect: non-scaling-stroke; fill: none; stroke: rgb(239, 85, 59); stroke-opacity: 1; stroke-width: 2px; opacity: 1;"/></g><g class="points"/><g class="text"/></g><g class="trace scatter traceb4d664" style="stroke-miterlimit: 2; opacity: 1;"><g class="fills"/><g class="errorbars"/><g class="lines"><path class="js-line" d="M0,64.73L1.77,64.52L3.54,60.99L10.63,62.75L12.4,61.03L14.17,59.76L15.94,57.34L21.25,57.69L23.02,60.18L24.79,57.26L26.56,59.03L28.33,58.08L35.42,55.97L37.19,57.95L38.96,56.22L40.73,57.81L46.04,57.31L49.58,52.42L51.35,51.48L53.13,50.29L58.44,51.83L61.98,46.1L63.75,45.91L65.52,43.68L70.83,43.1L72.6,43.36L74.38,41.43L77.92,40.78L83.23,38.3L86.77,39.25L88.54,38.68L90.31,38.06L95.63,39.03L99.17,37.45L100.94,37.6L102.71,37.14L108.02,38.15L109.79,36.87L111.56,36.74L113.33,36.48L115.1,41.01L122.19,39.11L123.96,39.18L125.73,39.01L127.5,37.77L132.81,35.4L134.58,38.25L136.35,35.84L138.13,39.37L139.9,37.69L145.21,37.26L146.98,36.27L148.75,40.09L150.52,37.7L152.29,39.52L157.6,39.9L159.38,35.5L161.15,37L162.92,33.98L164.69,28.46L170,28.82L171.77,27.78L173.54,31.34L177.08,29.34L182.4,31.19L185.94,25.27L187.71,23.69L189.48,25.64L194.79,25.51L198.33,21.08L200.1,20.46L201.88,19.9L207.19,19.75L208.96,20.04L210.73,15.86L212.5,15.25L214.27,17.3L219.58,19.96L221.35,18.32L223.13,18.47L224.9,16.56L226.67,12.56L231.98,12.03L235.52,12.73L237.29,14.92L239.06,13.78L244.38,18.76L247.92,20.6L249.69,19.58L251.46,20.49L256.77,15.73L258.54,16.17L260.31,13.23L262.08,11.54L263.85,15.64L269.17,13.56L270.94,14.67L274.48,20.84L276.25,27.43L285.1,37.97L286.88,36.9L288.65,40.7L293.96,38.53L297.5,41.05L299.27,36.96L301.04,35.95L306.35,34.74L308.13,39.56L309.9,39.14L311.67,37.69L313.44,37.91L318.75,37.86L320.52,34.06L322.29,32.47L324.06,34.8L336.46,37.46L338.23,34.68L343.54,30.65L345.31,28.07L347.08,30.22L348.85,29.65L350.63,33.23L355.94,32.07L357.71,31.47L359.48,28.59L363.02,32.88L368.33,33.06L370.1,30.64L371.88,31.66L373.65,30.7L375.42,33.57L380.73,33.04L382.5,26.61L384.27,27.8L386.04,27.55L398.44,25.5L400.21,25.47L405.52,23.56L407.29,21.06L409.06,22.76L410.83,22.76L412.6,23.48L417.92,21.76L419.69,21.67L421.46,23.16L423.23,20.02L425,22.95L433.85,19.57L435.63,20.7L437.4,20.09L442.71,19.64L444.48,19.26L446.25,17.91L448.02,18.87L449.79,23.07L458.65,26.12L460.42,25.83L462.19,22.83L467.5,24.33L469.27,24.03L471.04,25.66L472.81,24.69L474.58,28.25L479.9,27.34L481.67,25.47L485.21,22.81L486.98,21.28L492.29,20.82L494.06,22.99L495.83,24.88L497.6,21.37L499.38,23.46L506.46,22.58L508.23,23.7L510,19.27L511.77,18.08L517.08,20.11L518.85,20.05L520.63,19.15L522.4,14.68L524.17,21.18L529.48,18.89L531.25,16.95L533.02,18.16L534.79,17.44L536.56,19.31L541.88,23.36L543.65,22.96L545.42,26.23L547.19,24.56L548.96,27.65L554.27,25.29L556.04,26.55L557.81,23.14L559.58,28.24L561.35,32.79L566.67,30.11L568.44,31.44L570.21,30.47L571.98,29.46L579.06,29.13L580.83,26.33L582.6,27.01L584.38,26.48L586.15,28.06L591.46,25.26L593.23,22.99L595,24.49L596.77,31.63L598.54,32.67L603.85,32.88L607.4,25.26L609.17,24.7L610.94,24.48L616.25,28.31L618.02,27.2L619.79,23.75L621.56,27.96L623.33,25.64L628.65,24.04L630.42,17.8L632.19,15.99L633.96,22.32L635.73,18.58L641.04,18.34L642.81,16.59L644.58,16.91L646.35,17.76L648.13,15.68L653.44,17.84L655.21,19.66L656.98,19.38L658.75,20.13L660.52,17.49L665.83,21.61L667.6,21.85L669.38,20.84L671.15,18.86L672.92,22.88L681.77,22.35L683.54,25.94L685.31,26.16L690.63,21.19L692.4,24.31L694.17,23.29L695.94,21.76L697.71,25.45L704.79,43.14L706.56,53.59L708.33,49.64L710.1,48.15L715.42,49.4L717.19,54.28L718.96,57.41L720.73,54.49L722.5,55.27L727.81,65.78L729.58,56.13L731.35,55.32L733.13,57.41L734.9,57.42L740.21,68.05L741.98,77.56L743.75,83.25L745.52,101.03L747.29,108.6L752.6,83.21L754.38,84.37L756.15,99.41L757.92,88.39L759.69,90.66L765,79.56L766.77,84.03L768.54,92.64L770.31,89.32L772.08,97.51L777.4,102.61L779.17,81.05L780.94,87.88L784.48,85.24L789.79,83.08L791.56,78.59L793.33,88.02L795.1,93.78L796.88,86.47L802.19,84.27L803.96,88.92L805.73,96.91L807.5,83.37L809.27,90.32L814.58,94.44L816.35,88.6L818.13,98.09L819.9,107.38L821.67,90.46L828.75,90.72L830.52,87.29L834.06,87.13L839.38,99.74L841.15,99.2L842.92,94.57L844.69,101.73L846.46,95.86L851.77,98.31L853.54,102.59L864.17,99.55L865.94,95.88L867.71,97.77L869.48,98.53L871.25,99.62L876.56,98.96L878.33,101.15L880.1,100.8L883.65,99.05L888.96,98.73L892.5,93.88L896.04,88.62L901.35,90.58L903.13,92.84L908.44,95.11L913.75,94.77L915.52,93.88L917.29,97.67L919.06,96.19L920.83,92.44L927.92,91.18L929.69,91.72L931.46,92.93L933.23,95.81L938.54,91.77L940.31,92.03L942.08,90.31L943.85,91.42L945.63,96.7L950.94,100.11L952.71,94.65L954.48,101.57L956.25,101.24L958.02,99.06L963.33,100.03L965.1,106.09L966.88,105.86L968.65,103.05L970.42,105.46L977.5,107.12L979.27,105.84L981.04,102.98L982.81,103.47L988.13,109.07L989.9,110.44L991.67,110.25L993.44,113.06L995.21,113.56L1000.52,118.59L1002.29,121.66L1004.06,115.11L1005.83,117.38L1007.6,116.52L1012.92,122.11L1014.69,119.21L1016.46,118.97L1018.23,116.81L1020,113.32" style="vector-effect: non-scaling-stroke; fill: none; stroke: rgb(0, 204, 150); stroke-opacity: 1; stroke-width: 2px; opacity: 1;"/></g><g class="points"/><g class="text"/></g><g class="trace scatter trace1d517e" style="stroke-miterlimit: 2; opacity: 1;"><g class="fills"/><g class="errorbars"/><g class="lines"><path class="js-line" d="M0,64.73L1.77,64.28L3.54,60.81L10.63,62.53L12.4,60.84L14.17,59.48L15.94,57.04L21.25,57.46L23.02,59.98L24.79,57.01L26.56,58.8L28.33,57.95L35.42,55.54L37.19,57.58L38.96,55.81L40.73,57.51L46.04,56.94L49.58,52.15L51.35,51.27L53.13,50.28L58.44,51.68L61.98,45.97L63.75,45.64L65.52,43.36L70.83,42.72L72.6,42.93L74.38,40.97L77.92,40.24L83.23,37.79L86.77,38.78L88.54,38.25L90.31,37.58L95.63,38.44L99.17,36.73L100.94,36.88L102.71,36.31L108.02,37.29L109.79,36L111.56,35.85L113.33,35.7L115.1,40.42L123.96,38.7L125.73,38.81L132.81,35.4L134.58,38.35L136.35,35.9L138.13,39.52L139.9,37.6L145.21,36.81L146.98,35.59L148.75,39.57L150.52,37.28L152.29,39.05L157.6,39.37L159.38,34.93L161.15,36.62L162.92,33.69L164.69,28.09L170,28.37L171.77,27.3L173.54,31.11L177.08,29.14L182.4,31.01L185.94,24.8L187.71,23.11L189.48,24.98L194.79,24.74L200.1,19.39L201.88,19.11L208.96,19.33L210.73,14.87L212.5,14.21L214.27,16.26L219.58,18.73L221.35,17.02L223.13,17.23L224.9,15.38L226.67,11.26L231.98,10.75L235.52,11.42L237.29,13.66L239.06,12.47L244.38,17.38L247.92,19.52L249.69,18.56L251.46,19.58L256.77,14.71L258.54,15.13L260.31,12.29L262.08,10.68L263.85,15.31L269.17,13.27L270.94,14.09L274.48,20.53L276.25,27.37L285.1,37.87L286.88,36.9L288.65,40.64L293.96,38.57L297.5,41L299.27,36.92L301.04,35.91L306.35,34.65L308.13,39.28L309.9,38.71L311.67,37.33L313.44,37.71L318.75,38.23L320.52,34.29L322.29,32.61L324.06,34.89L332.92,36.69L334.69,36.83L336.46,37.62L338.23,34.73L343.54,30.81L345.31,27.97L347.08,30.25L348.85,29.73L350.63,33.25L355.94,32.15L357.71,31.46L359.48,28.71L363.02,32.7L368.33,32.62L370.1,30.25L371.88,31.4L373.65,30.55L375.42,33.41L380.73,32.74L382.5,26.47L384.27,27.85L386.04,27.59L396.67,25.36L398.44,25.78L400.21,25.77L405.52,23.34L407.29,20.75L409.06,22.41L412.6,23.44L417.92,21.58L419.69,21.56L421.46,23.25L423.23,20.14L425,22.87L433.85,19.29L435.63,20.29L437.4,19.62L442.71,19.32L444.48,19.09L446.25,17.67L448.02,18.68L449.79,23.03L456.88,25.48L458.65,25.41L460.42,24.74L462.19,21.9L467.5,23.47L469.27,23.08L471.04,24.83L472.81,23.85L474.58,27.75L479.9,27.1L483.44,23.28L485.21,22.48L486.98,20.87L492.29,20.5L495.83,24.39L497.6,20.89L499.38,23.12L506.46,22.32L508.23,23.57L510,19.07L511.77,17.76L517.08,19.79L518.85,19.78L520.63,18.56L522.4,14.02L524.17,20.77L529.48,18.45L531.25,16.7L533.02,17.81L534.79,16.91L536.56,18.65L541.88,22.79L543.65,22.73L545.42,26.08L547.19,24.31L548.96,27.52L554.27,25.13L556.04,26.5L557.81,23.2L559.58,28.4L561.35,32.9L566.67,30.21L568.44,31.22L570.21,30.03L571.98,29.1L579.06,28.7L580.83,25.79L582.6,26.66L584.38,26.3L586.15,28.04L591.46,25.23L593.23,23.21L595,24.83L596.77,31.5L598.54,32.8L603.85,32.77L607.4,24.94L609.17,24.34L610.94,24.2L616.25,28.29L618.02,27.05L619.79,23.57L621.56,27.99L623.33,25.8L628.65,24.02L630.42,17.51L632.19,16.06L633.96,22.87L635.73,19.16L641.04,18.89L642.81,17.21L644.58,17.72L646.35,18.36L648.13,16.19L653.44,18.32L655.21,20.33L656.98,20.11L658.75,21.16L660.52,18.51L665.83,22.78L667.6,22.91L669.38,21.86L671.15,19.51L672.92,23.44L680,22.27L681.77,22.75L683.54,26.49L685.31,26.67L690.63,21.8L692.4,25.54L695.94,23.41L697.71,28.34L704.79,50.03L706.56,61.66L708.33,57.35L710.1,55.46L715.42,56.06L717.19,60.14L718.96,64.6L720.73,62.36L722.5,62.86L727.81,73.85L729.58,64.1L731.35,63L733.13,64.59L734.9,63.96L740.21,73.99L741.98,83.15L743.75,88.74L745.52,106.69L747.29,114.53L752.6,89.51L754.38,90.33L756.15,105.39L757.92,94.7L759.69,97.19L765,86.22L766.77,90.45L768.54,98.74L770.31,95.01L772.08,103.24L777.4,108.74L779.17,87.41L780.94,94.82L784.48,91.85L789.79,89.3L791.56,84.72L793.33,94.04L795.1,99.73L796.88,92.18L802.19,89.68L803.96,94.08L805.73,102.01L807.5,88.65L809.27,95.23L814.58,99.38L816.35,93.15L818.13,101.97L819.9,109.76L821.67,92.1L828.75,94.16L830.52,90.98L834.06,91.3L839.38,103.56L841.15,103.17L842.92,98.59L844.69,105.57L846.46,99.81L851.77,102.6L853.54,106.67L855.31,107.06L857.08,106.2L858.85,105.97L864.17,103.97L865.94,100.66L867.71,102.35L871.25,104.15L876.56,103.33L878.33,105.75L880.1,105.4L883.65,103.7L888.96,103.22L892.5,98.54L896.04,93.45L901.35,95.49L903.13,97.53L906.67,99.59L908.44,99.71L915.52,98.01L917.29,101.08L919.06,99.49L920.83,95.53L927.92,93.42L929.69,94.61L931.46,95.83L933.23,98.62L938.54,94.94L940.31,95L942.08,93.55L943.85,94.56L945.63,99.52L950.94,102.83L952.71,97.93L954.48,105.03L956.25,104.7L958.02,102.78L963.33,103.96L965.1,109.75L966.88,109.84L968.65,107.41L970.42,109.72L977.5,111.18L979.27,109.93L981.04,107.53L982.81,107.2L988.13,112.99L989.9,115.57L991.67,114.95L993.44,117.42L995.21,117.17L1000.52,121.28L1002.29,123.67L1004.06,116.87L1005.83,119.41L1007.6,118.97L1012.92,124.63L1014.69,122.28L1016.46,122.09L1018.23,120.46L1020,116.86" style="vector-effect: non-scaling-stroke; fill: none; stroke: rgb(171, 99, 250); stroke-opacity: 1; stroke-width: 2px; opacity: 1;"/></g><g class="points"/><g class="text"/></g><g class="trace scatter trace1254ff" style="stroke-miterlimit: 2; opacity: 1;"><g class="fills"/><g class="errorbars"/><g class="lines"><path class="js-line" d="M0,64.73L1.77,64.32L3.54,60.81L10.63,62.34L12.4,60.58L14.17,59.2L15.94,56.77L21.25,57.14L23.02,59.75L24.79,56.82L26.56,58.54L35.42,55.34L37.19,57.39L38.96,55.7L40.73,57.49L46.04,57.02L47.81,54.13L51.35,51.24L53.13,50.18L58.44,51.54L60.21,48.1L61.98,45.82L63.75,45.52L65.52,43.33L70.83,42.64L72.6,42.86L74.38,40.77L77.92,40.12L83.23,37.6L86.77,38.56L88.54,38.04L90.31,37.35L95.63,38.26L99.17,36.44L100.94,36.54L102.71,35.82L108.02,36.85L109.79,35.69L111.56,35.43L113.33,35.3L115.1,39.81L123.96,37.99L125.73,38.05L132.81,34.39L134.58,37.55L136.35,35.19L138.13,38.94L139.9,37.11L145.21,36.28L146.98,34.84L148.75,38.96L150.52,36.51L152.29,38.04L157.6,38.39L159.38,34.14L161.15,35.66L162.92,32.95L164.69,27.39L170,27.55L171.77,26.4L173.54,30.45L177.08,28.46L182.4,30.34L185.94,24.04L187.71,22.32L189.48,24L194.79,23.69L200.1,18.33L201.88,17.95L208.96,18.4L210.73,14.14L212.5,13.42L214.27,15.61L219.58,18.27L221.35,16.53L223.13,16.68L224.9,14.94L226.67,10.9L231.98,10.36L235.52,11.09L237.29,13.37L239.06,12.27L244.38,17.08L247.92,19.32L249.69,18.39L251.46,19.51L256.77,14.58L258.54,14.79L260.31,11.91L262.08,10.35L263.85,15.04L269.17,12.99L270.94,13.85L274.48,20.59L276.25,27.69L285.1,38.24L286.88,37.04L288.65,40.78L293.96,38.82L297.5,41.33L299.27,37.32L301.04,36.23L306.35,35L308.13,39.65L309.9,39.1L311.67,37.7L313.44,38.03L318.75,38.9L320.52,34.99L322.29,33.4L324.06,35.58L332.92,37.2L334.69,37.28L336.46,38.07L338.23,35.1L343.54,31.17L345.31,28.37L347.08,30.66L348.85,30.31L350.63,33.99L355.94,32.86L357.71,32.19L359.48,29.46L363.02,33.61L368.33,33.55L370.1,31.11L371.88,32.47L373.65,31.67L375.42,34.65L380.73,34.22L382.5,27.95L384.27,29.54L386.04,29.34L396.67,27.01L398.44,27.41L400.21,27.4L405.52,25.18L407.29,22.5L409.06,24.01L412.6,24.76L417.92,22.96L419.69,23.03L421.46,24.81L423.23,21.82L425,23.88L433.85,20.48L435.63,21.46L437.4,20.89L442.71,20.55L444.48,20.52L446.25,19.22L448.02,20.11L449.79,24.22L458.65,26.63L460.42,25.87L462.19,23.01L467.5,24.52L469.27,24.01L471.04,26L472.81,24.94L474.58,28.97L479.9,28.24L481.67,26.2L485.21,23.39L486.98,21.75L492.29,21.36L494.06,23.5L495.83,25.37L497.6,21.87L499.38,24.19L506.46,23.51L508.23,24.86L510,20.45L511.77,19.17L517.08,21.2L518.85,21.36L520.63,20.14L522.4,15.52L524.17,22.21L529.48,19.79L531.25,18.04L533.02,19.35L534.79,18.45L541.88,24.15L543.65,24.23L545.42,27.55L547.19,25.68L548.96,29.03L554.27,26.81L556.04,28.17L557.81,24.93L561.35,34.59L566.67,31.95L568.44,32.91L570.21,31.72L571.98,30.74L579.06,30.39L580.83,27.51L582.6,28.39L584.38,28.23L586.15,30.11L591.46,27.33L593.23,25.31L595,26.84L596.77,33.34L598.54,34.61L603.85,34.59L607.4,26.91L609.17,26.54L610.94,26.41L616.25,30.46L618.02,28.97L619.79,25.53L621.56,29.93L623.33,27.72L628.65,25.99L630.42,19.36L632.19,18.15L633.96,25.13L635.73,21.3L641.04,20.85L642.81,19.34L644.58,19.78L646.35,20.39L648.13,18.24L653.44,20.41L655.21,22.43L656.98,22.16L658.75,23.3L660.52,20.73L665.83,24.99L667.6,25.02L669.38,23.97L671.15,21.57L672.92,25.37L681.77,24.41L683.54,28.29L685.31,28.31L690.63,23.59L692.4,27.48L694.17,26.85L695.94,25.42L697.71,30.6L704.79,53.8L706.56,66L708.33,61.44L710.1,59.39L715.42,59.87L717.19,63.7L718.96,68.53L720.73,66.68L722.5,67.14L727.81,78.36L729.58,68.46L731.35,66.82L733.13,68.03L734.9,67.49L740.21,77.35L741.98,86.33L743.75,92.21L745.52,110.54L747.29,118.82L752.6,93.88L754.38,94.66L756.15,109.81L757.92,99.25L759.69,101.79L765,90.76L766.77,95.1L768.54,103.29L770.31,99.51L772.08,107.73L777.4,113.24L779.17,91.96L780.94,99.62L784.48,96.52L789.79,93.86L791.56,89.41L793.33,98.7L795.1,104.37L796.88,96.76L802.19,94.07L803.96,98.57L805.73,106.31L807.5,93.29L809.27,99.58L814.58,103.85L816.35,97.75L818.13,106.51L819.9,114.52L821.67,96.99L828.75,99.15L830.52,95.91L834.06,96.35L839.38,108.36L841.15,108.09L842.92,103.66L844.69,110.66L846.46,104.97L851.77,107.74L853.54,111.62L855.31,112.06L857.08,110.99L858.85,110.64L864.17,108.69L865.94,105.58L867.71,107.18L869.48,107.62L871.25,108.94L876.56,108.12L878.33,110.54L880.1,110.24L883.65,108.51L888.96,108.54L890.73,105.73L892.5,104.08L896.04,99.27L901.35,101.26L903.13,103.09L908.44,104.92L913.75,104.18L915.52,103.2L917.29,106.19L919.06,104.58L920.83,100.79L927.92,98.73L929.69,99.94L933.23,103.6L938.54,100.38L940.31,100.31L942.08,98.83L943.85,99.84L945.63,104.8L950.94,107.88L952.71,103.11L954.48,110.12L956.25,109.67L958.02,107.94L963.33,109.66L965.1,115.3L966.88,115.57L968.65,113.2L970.42,115.62L977.5,117.43L979.27,116.37L981.04,114.32L982.81,113.92L989.9,122.01L991.67,121.32L993.44,123.76L995.21,123.89L1002.29,129.57L1004.06,122.81L1005.83,125.99L1007.6,125.43L1012.92,131.25L1014.69,129.14L1016.46,129.21L1018.23,127.78L1020,123.79" style="vector-effect: non-scaling-stroke; fill: none; stroke: rgb(255, 161, 90); stroke-opacity: 1; stroke-width: 2px; opacity: 1;"/></g><g class="points"/><g class="text"/></g><g class="trace scatter trace4195d9" style="stroke-miterlimit: 2; opacity: 1;"><g class="fills"/><g class="errorbars"/><g class="lines"><path class="js-line" d="M0,64.73L1.77,65.28L3.54,61.74L8.85,62.46L10.63,63.61L14.17,60.77L15.94,59.23L21.25,59.37L23.02,62.13L24.79,59.64L26.56,61.37L28.33,60.28L35.42,59L37.19,61.17L38.96,59.09L40.73,60.15L46.04,59.69L49.58,54.63L51.35,53.67L53.13,51.87L58.44,54.02L61.98,48.03L63.75,48.06L65.52,45.97L70.83,45.42L72.6,45.2L74.38,43.4L83.23,39.87L85,40.29L86.77,41.13L88.54,40.64L90.31,40.16L95.63,41.06L99.17,40.7L100.94,41.06L102.71,40.65L108.02,42.29L109.79,41.56L111.56,41.78L113.33,41.12L115.1,45.85L125.73,43.68L127.5,42.24L132.81,40.03L134.58,42.14L136.35,40.42L138.13,43.99L139.9,42.66L145.21,43.32L146.98,43.18L148.75,47.04L150.52,44.7L152.29,46.58L157.6,46.7L159.38,42.37L161.15,43.23L162.92,41.42L164.69,37.34L170,38.43L171.77,38.2L173.54,40.91L177.08,39.26L182.4,40.36L185.94,34.81L187.71,33.91L189.48,36.49L194.79,36.79L196.56,35.4L198.33,32.98L201.88,31.83L207.19,31.39L208.96,32.26L210.73,30.46L212.5,29.15L214.27,30.73L219.58,33.3L221.35,32.39L223.13,32.42L224.9,31.29L226.67,27.69L231.98,27.26L235.52,28.31L237.29,30.24L239.06,29.51L244.38,34.09L247.92,35.99L249.69,34.32L251.46,34.77L256.77,30.74L258.54,31.17L260.31,27.78L262.08,26.18L263.85,29.32L269.17,27.29L270.94,29.74L274.48,35.57L276.25,41.1L285.1,51.25L286.88,49.86L288.65,53.08L293.96,50.82L297.5,53.96L299.27,49.55L301.04,47.84L306.35,46.93L308.13,51.73L309.9,51.64L313.44,51.33L318.75,51.03L320.52,47.15L322.29,46.53L324.06,48.81L325.83,49.32L334.69,49.99L336.46,51.52L338.23,49.33L343.54,45.85L345.31,43.52L347.08,44.44L348.85,44.25L350.63,48.11L357.71,46.69L359.48,43.86L363.02,49.59L368.33,50.72L370.1,47.8L371.88,47.77L373.65,46.91L375.42,49.62L380.73,51.49L382.5,44.25L384.27,45.44L386.04,44.19L398.44,42L400.21,42.73L405.52,40.57L407.29,37.7L409.06,39.69L410.83,39.76L412.6,39.85L417.92,38.39L421.46,38.64L423.23,36.01L425,40.13L430.31,38.18L433.85,38.06L435.63,39.21L437.4,37.1L442.71,36.92L448.02,35.6L449.79,39.1L455.1,40.8L456.88,42.32L458.65,43.33L460.42,42.83L462.19,40.39L467.5,41.92L469.27,42.23L471.04,45.28L472.81,45.08L474.58,48.59L479.9,47.87L481.67,46.28L485.21,44.69L486.98,43.99L492.29,43.01L494.06,44.76L495.83,47.31L497.6,43.77L499.38,45.3L506.46,44.37L508.23,46.1L510,42.08L511.77,41.28L517.08,43.2L520.63,43.6L522.4,41.23L524.17,47.77L529.48,45.22L531.25,42.09L533.02,43.64L534.79,42.52L536.56,45.15L541.88,48.64L543.65,48.44L545.42,51.97L547.19,50.68L548.96,53.03L554.27,52.32L556.04,53.35L557.81,51.19L561.35,60.99L566.67,59.1L570.21,60.66L571.98,59.74L579.06,58.87L580.83,55.71L586.15,58.33L591.46,56.19L593.23,54.52L595,54.01L596.77,60.51L598.54,59.91L603.85,59.58L605.63,52.75L607.4,50.66L609.17,51.93L610.94,51.7L616.25,56.22L618.02,55.11L619.79,52.96L621.56,55.38L623.33,52.82L628.65,50.5L630.42,44.2L632.19,41.99L633.96,48.31L635.73,43.39L641.04,43.87L642.81,42.54L644.58,43.31L646.35,44.38L648.13,42.59L658.75,47.68L660.52,44.74L667.6,48.98L669.38,48L671.15,46.51L672.92,50.42L681.77,49.75L683.54,53.23L685.31,53.01L690.63,47.44L692.4,50.15L694.17,49.89L695.94,48.86L697.71,52.49L704.79,66.62L706.56,76.17L708.33,71.75L710.1,69.48L715.42,69.9L717.19,74.44L718.96,78.04L720.73,74.98L722.5,75.8L727.81,83.96L729.58,74.86L731.35,73.81L740.21,90.29L741.98,99.35L743.75,105.02L745.52,122.3L747.29,128.26L752.6,105.55L754.38,105.8L756.15,117.84L757.92,108.75L759.69,113.11L765,104.6L766.77,108.99L768.54,115.99L770.31,115.02L772.08,123.07L777.4,128.01L779.17,109.15L780.94,114.78L784.48,113.48L789.79,110.61L791.56,106.41L793.33,115.46L795.1,121.41L796.88,114.33L802.19,113.48L803.96,118.23L805.73,125.44L807.5,114.77L809.27,120.5L814.58,124.07L816.35,121.07L818.13,132.47L819.9,142.2L821.67,131.73L826.98,126.59L828.75,127.52L830.52,123.79L834.06,119.67L839.38,131.62L841.15,129.97L842.92,125.29L844.69,132.14L846.46,127.45L851.77,128.37L853.54,131.62L855.31,130.28L858.85,131.53L864.17,128.92L865.94,124.22L867.71,127.03L869.48,127.74L871.25,129.44L876.56,129.21L878.33,131.14L883.65,129.35L888.96,130.23L892.5,126.01L896.04,120.69L901.35,121.66L903.13,123.28L906.67,124.46L908.44,125.06L913.75,127.74L915.52,127.39L917.29,134.69L919.06,135.09L920.83,132.79L927.92,133.78L929.69,132.99L931.46,135.55L933.23,138.64L938.54,136.25L940.31,135.27L942.08,132.68L943.85,134.15L945.63,139.43L950.94,142.57L952.71,138.66L954.48,142.92L956.25,143.02L958.02,141.06L963.33,141.08L965.1,147.74L966.88,146.05L968.65,142.97L970.42,144.41L979.27,147.02L981.04,146.56L982.81,151.52L988.13,154.63L989.9,153.59L991.67,155.22L993.44,158.85L995.21,166.28L1002.29,175.96L1004.06,171.52L1005.83,173.96L1007.6,171.59L1012.92,174.65L1014.69,169.89L1016.46,168.93L1018.23,166.58L1020,163.34" style="vector-effect: non-scaling-stroke; fill: none; stroke: rgb(25, 211, 243); stroke-opacity: 1; stroke-width: 2px; opacity: 1;"/></g><g class="points"/><g class="text"/></g><g class="trace scatter trace23ec98" style="stroke-miterlimit: 2; opacity: 1;"><g class="fills"/><g class="errorbars"/><g class="lines"><path class="js-line" d="M0,64.73L1.77,65.21L3.54,61.37L8.85,62.04L10.63,63.36L15.94,58.5L21.25,58.66L23.02,61.37L24.79,58.47L26.56,60.06L28.33,58.74L35.42,57.3L37.19,59.33L38.96,57.61L40.73,58.96L46.04,58.61L47.81,55.41L49.58,53.25L51.35,52.67L53.13,51.23L58.44,53.33L60.21,49.43L61.98,47.4L63.75,47.63L65.52,45.55L72.6,44.81L74.38,43.26L77.92,42.37L83.23,39.9L86.77,41.26L88.54,40.85L90.31,40.22L95.63,41.23L99.17,40.62L100.94,41.14L102.71,40.52L108.02,41.95L109.79,41.29L111.56,41.81L113.33,41.2L115.1,46.86L125.73,44.97L127.5,43.5L132.81,41.44L134.58,43.65L136.35,41.58L138.13,45.08L139.9,43.51L145.21,44.05L146.98,43.62L148.75,47.82L150.52,45.51L152.29,47.83L157.6,48.44L159.38,44.2L161.15,45.42L162.92,43.25L164.69,39.02L170,40.13L171.77,39.48L173.54,42.21L177.08,40.29L182.4,41.88L185.94,36.52L187.71,35.74L189.48,37.92L194.79,38.05L196.56,36.87L198.33,34.11L201.88,32.9L207.19,32.63L208.96,34L210.73,31.6L212.5,30.19L214.27,32L219.58,34.41L221.35,33.35L223.13,33.44L224.9,32L226.67,28.4L231.98,27.87L235.52,28.83L237.29,30.78L239.06,30.05L244.38,34.25L247.92,35.93L249.69,34.54L251.46,35.44L256.77,31.69L258.54,32.41L260.31,29.36L262.08,28.26L263.85,31.68L269.17,29.37L270.94,31.5L274.48,37.91L276.25,43.23L285.1,52.66L286.88,50.79L288.65,53.86L293.96,51.1L297.5,54.25L299.27,49.69L301.04,48.22L306.35,47.17L308.13,52.38L309.9,52.13L313.44,51.62L318.75,51.41L320.52,47.83L322.29,47.04L324.06,49.37L325.83,50.16L334.69,50.05L336.46,51.85L338.23,49.71L343.54,45.94L345.31,43.56L347.08,44.65L348.85,44.65L350.63,48.74L357.71,47.39L359.48,44.42L363.02,50.25L368.33,51.5L370.1,48.01L371.88,48.39L373.65,47.32L375.42,50.2L380.73,52.4L382.5,44.79L384.27,46.59L386.04,46.05L393.13,44.75L394.9,43.61L398.44,43.68L400.21,44.62L405.52,41.71L407.29,38.56L409.06,40.25L410.83,40.72L412.6,40.71L417.92,39.02L421.46,39.43L423.23,36.46L425,40.27L430.31,38.26L433.85,37.87L435.63,38.76L437.4,36.11L442.71,35.82L444.48,35.75L446.25,34.87L448.02,35.2L449.79,38.73L455.1,40.77L456.88,42.28L458.65,43.31L460.42,42.91L462.19,40.02L467.5,41.54L469.27,41.37L471.04,44.63L472.81,44.32L474.58,47.66L479.9,47.11L481.67,45.23L486.98,42.4L492.29,41.57L495.83,45.85L497.6,42.55L499.38,44.41L506.46,43.55L508.23,45.27L510,41.38L511.77,40.46L517.08,42.36L518.85,42.78L520.63,42.39L522.4,39.85L524.17,46.77L529.48,44.32L531.25,41.6L533.02,42.69L534.79,41.08L536.56,43.25L541.88,46.51L543.65,46.1L545.42,49.42L547.19,48.15L548.96,50.55L554.27,49.56L556.04,50.99L557.81,49.25L559.58,54.52L561.35,58.99L566.67,57.33L570.21,59.22L571.98,58.42L579.06,57.98L580.83,55.24L586.15,58.01L591.46,55.97L593.23,54.64L595,54.31L596.77,60.54L598.54,60.3L603.85,59.46L605.63,53.09L607.4,50.96L609.17,52.25L610.94,51.78L616.25,56.23L618.02,55.28L619.79,52.84L621.56,55.88L623.33,53.2L628.65,51.83L630.42,45.63L632.19,43.29L633.96,49.08L635.73,44.26L641.04,44.27L642.81,42.71L644.58,43.43L646.35,44.47L648.13,42.78L656.98,47.1L658.75,47.44L660.52,44.53L665.83,48.2L667.6,48.47L669.38,47.49L671.15,45.84L672.92,49.65L681.77,49.17L683.54,52.9L685.31,53.24L690.63,47.93L692.4,51.62L694.17,50.84L695.94,49.93L697.71,52.76L704.79,67.22L706.56,76.29L710.1,68.8L715.42,69.44L718.96,77.71L720.73,74.9L722.5,75.54L727.81,85.14L729.58,76.01L731.35,74.86L734.9,82.37L740.21,91.84L743.75,106.22L745.52,123.38L747.29,131.1L752.6,106.86L754.38,106.9L756.15,120.31L757.92,111.55L759.69,115.41L765,106.61L766.77,110.51L768.54,117.67L770.31,115.77L772.08,123.29L777.4,128.91L779.17,110.23L780.94,115.32L784.48,113.03L789.79,110.81L791.56,106.15L793.33,115.62L795.1,122.23L796.88,115.46L802.19,115.04L803.96,119.99L805.73,127.73L807.5,116.51L809.27,122.4L814.58,125.95L816.35,122.07L818.13,133.18L819.9,143.15L821.67,132.14L826.98,126.78L828.75,128.45L830.52,124.35L834.06,121.08L839.38,133.65L841.15,132.58L842.92,127.97L844.69,135.03L846.46,130.45L851.77,131.28L853.54,134.14L855.31,132.65L858.85,133.84L864.17,131.2L865.94,126.47L867.71,129.21L871.25,132.12L876.56,132.36L878.33,134.35L880.1,133.81L883.65,132.47L888.96,133.27L890.73,130.51L892.5,129.33L896.04,123.63L901.35,123.64L904.9,125.99L906.67,125.81L913.75,129.38L915.52,128.71L917.29,136.03L919.06,135.91L920.83,133.39L927.92,134.52L929.69,133.16L931.46,136.54L933.23,139.01L938.54,136.75L940.31,135.83L942.08,133.17L943.85,135.12L945.63,140.34L950.94,143.43L952.71,139.78L954.48,143.92L956.25,143.81L958.02,141.73L963.33,142.06L965.1,148.51L966.88,147.27L968.65,144.45L970.42,145.62L979.27,148.69L981.04,147.96L982.81,152.54L988.13,155.94L989.9,154.48L991.67,156.18L993.44,159.81L995.21,166.82L1002.29,176.09L1004.06,171.5L1005.83,174.28L1007.6,172.14L1012.92,174.97L1014.69,170.09L1018.23,166.73L1020,164.02" style="vector-effect: non-scaling-stroke; fill: none; stroke: rgb(255, 102, 146); stroke-opacity: 1; stroke-width: 2px; opacity: 1;"/></g><g class="points"/><g class="text"/></g><g class="trace scatter trace0eb265" style="stroke-miterlimit: 2; opacity: 1;"><g class="fills"/><g class="errorbars"/><g class="lines"><path class="js-line" d="M0,64.73L1.77,65.17L3.54,61.35L8.85,62.02L10.63,63.36L15.94,58.48L21.25,58.69L23.02,61.41L24.79,58.5L26.56,60.1L28.33,58.79L35.42,57.31L37.19,59.35L38.96,57.63L40.73,58.97L46.04,58.6L47.81,55.38L49.58,53.25L51.35,52.63L53.13,51.18L58.44,53.29L60.21,49.4L61.98,47.35L63.75,47.55L65.52,45.46L72.6,44.72L74.38,43.16L77.92,42.28L83.23,39.81L86.77,41.17L88.54,40.77L90.31,40.14L95.63,41.13L99.17,40.55L100.94,41.05L102.71,40.4L108.02,41.84L109.79,41.21L111.56,41.72L113.33,41.12L115.1,46.76L125.73,45L127.5,43.55L132.81,41.46L134.58,43.68L136.35,41.61L138.13,45.15L139.9,43.56L145.21,44.08L146.98,43.63L148.75,47.87L150.52,45.57L152.29,47.84L157.6,48.42L159.38,44.14L161.15,45.36L162.92,43.19L164.69,38.96L170,40.08L171.77,39.44L173.54,42.21L177.08,40.29L182.4,41.82L185.94,36.44L187.71,35.63L189.48,37.86L194.79,37.93L196.56,36.76L198.33,33.97L201.88,32.75L207.19,32.49L208.96,33.79L210.73,31.41L212.5,30.03L214.27,31.84L219.58,34.23L221.35,33.18L223.13,33.3L224.9,31.87L226.67,28.24L231.98,27.7L235.52,28.67L237.29,30.63L239.06,29.89L244.38,34.11L247.92,35.82L249.69,34.47L251.46,35.38L256.77,31.63L258.54,32.39L260.31,29.34L262.08,28.22L263.85,31.69L269.17,29.35L270.94,31.5L274.48,38.01L276.25,43.4L285.1,52.75L286.88,50.93L288.65,54.01L293.96,51.3L297.5,54.42L299.27,49.81L301.04,48.3L306.35,47.24L308.13,52.41L309.9,52.17L313.44,51.66L318.75,51.52L320.52,47.88L322.29,47.11L324.06,49.44L325.83,50.23L334.69,50.13L336.46,51.93L338.23,49.78L343.54,46.04L345.31,43.62L347.08,44.75L348.85,44.74L350.63,48.86L357.71,47.57L359.48,44.61L363.02,50.41L368.33,51.63L370.1,48.14L371.88,48.53L373.65,47.45L375.42,50.32L380.73,52.52L382.5,44.91L384.27,46.73L386.04,46.15L393.13,44.83L394.9,43.71L398.44,43.82L400.21,44.79L405.52,41.84L407.29,38.64L409.06,40.32L410.83,40.77L412.6,40.75L417.92,39.03L421.46,39.39L423.23,36.46L425,40.13L430.31,38.14L433.85,37.67L435.63,38.54L437.4,35.91L442.71,35.64L444.48,35.56L446.25,34.68L448.02,34.99L449.79,38.5L456.88,41.93L458.65,42.98L460.42,42.53L462.19,39.64L469.27,41.03L471.04,44.33L472.81,44.02L474.58,47.41L479.9,46.91L481.67,45.05L486.98,42.21L492.29,41.41L495.83,45.69L497.6,42.37L499.38,44.24L506.46,43.38L508.23,45.12L510,41.19L511.77,40.25L517.08,42.13L518.85,42.54L520.63,42.15L522.4,39.59L524.17,46.53L529.48,44.05L531.25,41.34L533.02,42.46L534.79,40.81L536.56,42.98L541.88,46.2L543.65,45.83L545.42,49.18L547.19,47.89L548.96,50.31L554.27,49.34L556.04,50.78L557.81,49.03L559.58,54.31L561.35,58.77L566.67,57.15L570.21,58.95L571.98,58.21L579.06,57.78L580.83,55L586.15,57.87L591.46,55.83L593.23,54.51L595,54.18L596.77,60.35L598.54,60.04L603.85,59.15L605.63,52.8L607.4,50.72L609.17,52.05L610.94,51.59L616.25,56.08L618.02,55.14L619.79,52.68L621.56,55.64L623.33,52.98L628.65,51.59L630.42,45.34L632.19,43.01L633.96,48.92L635.73,44.1L641.04,44.13L642.81,42.65L644.58,43.4L646.35,44.42L648.13,42.72L656.98,47.04L658.75,47.43L660.52,44.53L665.83,48.22L667.6,48.45L669.38,47.43L671.15,45.74L672.92,49.55L681.77,49.09L683.54,52.84L685.31,53.13L690.63,47.83L692.4,51.61L694.17,50.89L695.94,50.01L697.71,53.06L704.79,68.17L706.56,77.47L710.1,69.75L715.42,70.25L718.96,78.62L720.73,75.95L722.5,76.57L727.81,86.21L729.58,77.02L731.35,75.73L734.9,83.14L740.21,92.57L743.75,106.95L745.52,124.15L747.29,131.92L752.6,107.72L754.38,107.61L756.15,121.05L757.92,112.3L759.69,116.24L765,107.43L766.77,111.34L768.54,118.45L770.31,116.49L772.08,124.04L777.4,129.77L779.17,111.08L780.94,116.25L784.48,113.88L789.79,111.61L791.56,106.98L793.33,116.49L795.1,123.05L796.88,116.24L802.19,115.72L803.96,120.61L805.73,128.34L807.5,117.15L809.27,122.97L814.58,126.55L816.35,122.69L818.13,133.81L819.9,143.65L821.67,132.76L826.98,127.42L828.75,129.13L830.52,124.99L834.06,121.77L839.38,134.33L841.15,133.28L842.92,128.67L844.69,135.71L846.46,131.11L851.77,132L853.54,134.79L855.31,133.42L858.85,134.54L864.17,131.94L865.94,127.21L867.71,129.97L871.25,132.91L876.56,133.09L878.33,135.13L880.1,134.58L883.65,133.26L888.96,134.07L890.73,131.31L892.5,130.14L896.04,124.47L901.35,124.5L904.9,126.83L906.67,126.71L913.75,130.32L915.52,129.6L917.29,136.9L919.06,136.85L920.83,134.36L927.92,135.48L929.69,134.09L931.46,137.51L933.23,139.84L938.54,137.63L940.31,136.71L942.08,134.06L943.85,136.02L945.63,141.18L950.94,144.22L952.71,140.64L954.48,144.79L956.25,144.64L958.02,142.58L963.33,142.98L965.1,149.42L966.88,148.18L968.65,145.42L970.42,146.6L979.27,149.61L981.04,148.99L982.81,153.53L988.13,156.87L989.9,155.54L991.67,157.16L993.44,160.74L995.21,167.81L1002.29,176.87L1004.06,172.29L1005.83,175.13L1007.6,173.02L1012.92,175.9L1014.69,171.08L1018.23,167.81L1020,165.04" style="vector-effect: non-scaling-stroke; fill: none; stroke: rgb(182, 232, 128); stroke-opacity: 1; stroke-width: 2px; opacity: 1;"/></g><g class="points"/><g class="text"/></g><g class="trace scatter tracea005d6" style="stroke-miterlimit: 2; opacity: 1;"><g class="fills"/><g class="errorbars"/><g class="lines"><path class="js-line" d="M0,64.73L1.77,65.29L3.54,61.52L8.85,62.06L10.63,63.57L15.94,58.81L21.25,58.99L23.02,61.63L24.79,58.62L26.56,60.2L28.33,59.03L35.42,57.75L37.19,59.74L38.96,58.03L40.73,59.28L46.04,58.99L47.81,55.71L49.58,53.74L51.35,53.13L53.13,51.45L58.44,53.41L61.98,47.54L63.75,47.6L65.52,45.36L70.83,44.78L72.6,44.61L74.38,43.01L77.92,42.16L83.23,39.68L86.77,41.08L88.54,40.73L90.31,40.22L95.63,41.1L99.17,40.72L100.94,41.21L102.71,40.44L108.02,41.91L109.79,41.28L111.56,41.98L113.33,41.24L115.1,46.63L123.96,45.35L125.73,45.46L127.5,44.08L132.81,41.84L134.58,44.22L136.35,42.3L138.13,45.88L139.9,44.3L146.98,44.4L148.75,48.47L150.52,46.33L152.29,48.63L157.6,48.93L159.38,44.79L161.15,46.01L162.92,44.12L164.69,40.16L170,41.4L171.77,40.66L173.54,43.28L177.08,41.44L182.4,42.72L184.17,40.7L185.94,37.4L187.71,36.46L189.48,38.91L194.79,38.73L196.56,37.39L198.33,34.53L200.1,33.6L201.88,33.17L207.19,32.93L208.96,34.08L210.73,31.98L212.5,30.47L214.27,32.12L219.58,34.62L221.35,33.52L223.13,33.71L224.9,32.29L226.67,28.67L231.98,28.32L235.52,29.29L237.29,31.12L239.06,30.35L244.38,34.75L247.92,36.8L249.69,35.34L251.46,36.32L256.77,32.57L258.54,33.29L260.31,30.4L262.08,29.09L263.85,31.88L269.17,29.52L270.94,31.63L274.48,38.49L276.25,44.29L285.1,53.57L286.88,51.85L288.65,54.74L293.96,52.36L297.5,55.49L299.27,51.01L301.04,49.36L306.35,48.07L308.13,53.17L309.9,53.02L318.75,52.56L320.52,48.7L322.29,48.24L324.06,50.47L325.83,51.26L332.92,50.75L334.69,51.21L336.46,52.96L338.23,50.74L343.54,47.17L345.31,44.64L347.08,45.72L348.85,45.62L350.63,49.63L357.71,48.76L359.48,45.79L363.02,51.72L368.33,52.8L370.1,49.63L371.88,49.87L373.65,48.86L375.42,51.56L380.73,54.12L382.5,46.59L384.27,48.39L386.04,47.98L398.44,45.56L400.21,46.51L405.52,43.6L407.29,40.5L409.06,42.07L410.83,42.5L412.6,42.3L417.92,40.53L421.46,40.74L423.23,37.88L425,40.7L430.31,38.75L433.85,38.17L435.63,39.1L437.4,36.35L442.71,36.15L448.02,35.14L449.79,38.86L456.88,41.97L458.65,43.17L460.42,42.82L462.19,39.97L469.27,41.6L471.04,44.91L472.81,44.62L474.58,48.26L479.9,47.88L481.67,45.94L486.98,43.04L492.29,42.28L495.83,46.38L497.6,43.18L499.38,45.08L506.46,44.17L508.23,45.98L510,42.09L511.77,41.1L517.08,42.9L520.63,43.15L522.4,40.9L524.17,47.72L529.48,45.16L531.25,42.55L533.02,43.61L534.79,41.75L536.56,43.83L541.88,46.96L543.65,46.59L545.42,49.98L547.19,48.7L548.96,51.08L554.27,50.26L556.04,51.93L557.81,50.18L561.35,59.8L566.67,58.2L570.21,60.17L571.98,59.54L579.06,59.06L580.83,56.38L586.15,59.5L591.46,57.3L593.23,56.04L595,55.77L596.77,61.49L598.54,60.89L603.85,59.67L605.63,52.71L607.4,50.96L609.17,52.24L610.94,51.86L616.25,56.46L618.02,55.56L619.79,53.16L621.56,56.01L623.33,53.55L628.65,51.89L630.42,45.61L632.19,43.24L633.96,49.28L635.73,44.32L641.04,44.53L642.81,43.11L644.58,43.94L646.35,45.08L648.13,43.42L658.75,48.16L660.52,45.36L665.83,49.04L667.6,49.21L671.15,46.41L672.92,50.14L681.77,49.51L683.54,53.38L685.31,53.56L690.63,48.13L692.4,51.85L694.17,51.31L695.94,50.53L697.71,54.01L704.79,70.01L706.56,79.45L710.1,72.08L715.42,72.18L718.96,80.66L720.73,78.28L722.5,78.77L727.81,87.67L729.58,78.68L731.35,76.96L734.9,83.8L740.21,93.14L743.75,107.26L745.52,124.43L747.29,132.29L752.6,108.22L754.38,107.77L756.15,121.09L757.92,111.91L759.69,116.29L765,107.46L766.77,112.58L768.54,119.74L770.31,117.39L772.08,125.11L777.4,131L779.17,112.08L780.94,117.53L784.48,115.22L789.79,112.92L791.56,108.42L793.33,118.16L795.1,124.35L796.88,117.35L802.19,116.56L803.96,120.99L805.73,128.27L807.5,117.02L809.27,122.73L814.58,126.44L816.35,122.56L818.13,134.05L819.9,143.67L821.67,133.62L826.98,128.12L828.75,130.18L830.52,126.03L834.06,122.8L839.38,134.84L841.15,133.77L842.92,129.16L844.69,135.95L846.46,131.32L851.77,132.51L853.54,135.02L855.31,133.61L858.85,134.25L864.17,131.37L865.94,126.51L867.71,129.32L869.48,130.12L871.25,132.26L876.56,132.06L878.33,134.3L883.65,132.27L888.96,133.36L890.73,130.55L892.5,129.6L896.04,124.1L901.35,124.45L904.9,126.71L906.67,126.7L913.75,130.49L915.52,129.65L917.29,137.12L919.06,137.28L920.83,134.87L927.92,135.76L929.69,134.26L931.46,137.92L933.23,139.81L938.54,137.67L940.31,137.09L942.08,134.4L943.85,136.28L945.63,141.49L950.94,144.34L952.71,140.62L954.48,144.87L956.25,144.67L958.02,142.72L963.33,143.57L965.1,149.8L966.88,148.63L968.65,145.91L970.42,147.03L979.27,150.05L981.04,149.56L982.81,154.52L988.13,157.43L989.9,156.4L991.67,157.94L993.44,161.48L995.21,169.34L1002.29,178.05L1004.06,173.35L1005.83,176.19L1007.6,174.03L1012.92,177.39L1014.69,172.83L1018.23,169.97L1020,166.81" style="vector-effect: non-scaling-stroke; fill: none; stroke: rgb(255, 151, 255); stroke-opacity: 1; stroke-width: 2px; opacity: 1;"/></g><g class="points"/><g class="text"/></g><g class="trace scatter trace9cf06b" style="stroke-miterlimit: 2; opacity: 1;"><g class="fills"/><g class="errorbars"/><g class="lines"><path class="js-line" d="M0,64.73L1.77,65.06L3.54,60.18L8.85,59.3L10.63,59.94L12.4,56.9L14.17,56.91L15.94,53.92L21.25,55.11L23.02,60.96L24.79,55.79L26.56,56.85L28.33,54.36L35.42,52.46L37.19,55.45L38.96,54.24L40.73,59.47L46.04,59.16L47.81,55.39L49.58,55.74L51.35,52.96L53.13,52.59L58.44,53.41L60.21,46.39L61.98,44.8L63.75,45.82L65.52,44.7L70.83,45.98L72.6,45.57L74.38,43.49L76.15,42.76L77.92,43.12L83.23,39.11L86.77,41.61L88.54,41.48L90.31,39.56L95.63,40.03L97.4,37.51L99.17,39.3L100.94,40.63L102.71,39L111.56,43.19L113.33,43.26L115.1,50.93L120.42,49.99L122.19,47.71L123.96,47.73L125.73,47.8L127.5,44.98L132.81,43.65L134.58,45.28L136.35,42.41L138.13,49.97L139.9,49.4L145.21,50.48L146.98,48.03L148.75,55.57L150.52,56.27L152.29,60.94L157.6,62.1L159.38,55.42L162.92,59.54L164.69,58.14L170,62.7L171.77,61.62L173.54,66.03L177.08,62.23L182.4,67.2L184.17,62.7L185.94,55.79L187.71,55.32L189.48,54.07L194.79,55.26L196.56,56.64L198.33,52.54L200.1,48.88L201.88,48.77L207.19,46.65L208.96,52.79L212.5,51.01L214.27,54.73L219.58,58.34L221.35,56.98L223.13,57.5L224.9,56.7L226.67,52.42L231.98,50.34L235.52,50.31L237.29,54.32L239.06,54.19L244.38,56.3L247.92,60.92L249.69,60.65L251.46,66.01L256.77,65.44L258.54,70.42L260.31,67.36L262.08,64.9L263.85,70.06L269.17,66.47L270.94,72.26L272.71,72.99L274.48,79.4L276.25,80.65L283.33,83.33L285.1,77.08L286.88,74.82L288.65,78.4L293.96,74.71L295.73,72.69L297.5,73.48L299.27,69.14L301.04,67.2L306.35,69.46L308.13,77.19L309.9,78.55L311.67,77.57L313.44,78.92L318.75,77.71L322.29,71.19L324.06,74.85L325.83,75.45L332.92,75.68L334.69,73.8L336.46,76.79L338.23,74.77L343.54,70.81L345.31,68.42L347.08,68.22L348.85,70.56L350.63,77.16L355.94,77.32L357.71,78.26L359.48,77.4L361.25,81.88L363.02,84.95L368.33,88.16L370.1,79.45L371.88,80.42L373.65,79.68L375.42,83.75L380.73,83.31L382.5,74.52L384.27,80.64L386.04,75.18L393.13,71.26L394.9,71.6L400.21,78.21L405.52,77.23L407.29,69.06L409.06,70.01L412.6,70L417.92,69.93L421.46,71.71L423.23,70.57L425,75.93L430.31,76.42L432.08,75.15L433.85,69.79L435.63,69.76L437.4,64.98L442.71,65.49L444.48,67.68L446.25,66.78L448.02,64.99L449.79,64.09L455.1,64.51L458.65,65.59L460.42,61.63L462.19,60.62L467.5,62.47L469.27,61.4L471.04,65.71L472.81,64.62L474.58,67.14L479.9,64.42L481.67,65.34L485.21,61.99L486.98,62.11L492.29,61.25L494.06,65.41L495.83,70.17L497.6,69.66L499.38,72.71L506.46,71.27L510,69.23L511.77,69.39L517.08,72.2L518.85,74.31L520.63,74.57L522.4,70.1L524.17,78.34L529.48,76.87L531.25,76.67L533.02,80.98L534.79,79.77L536.56,76.31L541.88,77.11L543.65,79.38L545.42,82.12L547.19,81.41L548.96,86.01L554.27,86.02L556.04,86.75L557.81,86.66L559.58,94.15L561.35,96.38L568.44,95.63L570.21,99.12L571.98,97.59L579.06,98.77L580.83,95.59L582.6,100.54L584.38,98.83L586.15,101.52L591.46,102.47L593.23,104.4L596.77,94.29L598.54,93.24L603.85,93.86L605.63,91.03L607.4,90.41L609.17,96.32L610.94,95.87L616.25,100.88L619.79,91.42L621.56,95.72L623.33,96.8L628.65,97.68L630.42,90.75L632.19,89.91L633.96,94.61L635.73,88.28L641.04,87.27L642.81,90.2L644.58,92.48L646.35,90.75L648.13,89.83L653.44,93.6L655.21,96.34L656.98,94.9L658.75,94.63L660.52,90.5L665.83,95.55L667.6,94.99L669.38,93.12L671.15,88.68L672.92,92.25L680,92.82L681.77,92.49L683.54,99.69L685.31,99L690.63,92.95L692.4,98.8L694.17,98L695.94,94.56L697.71,94.8L703.02,105.34L704.79,102.39L706.56,111.77L708.33,103.21L710.1,95.5L715.42,103.29L717.19,106.67L718.96,107.27L722.5,100.63L727.81,116.88L729.58,106.74L731.35,107.15L733.13,114.42L734.9,117.71L740.21,125.44L741.98,136.06L743.75,140.01L745.52,154.19L747.29,156.87L752.6,137.31L754.38,138.91L756.15,154.22L757.92,145.84L759.69,148.49L765,139.86L766.77,144.7L768.54,155.45L770.31,151.85L772.08,158.38L777.4,162.62L779.17,144.04L780.94,145.59L784.48,138.61L789.79,138.72L791.56,132.34L793.33,142.49L795.1,151.76L796.88,146.58L802.19,148.11L803.96,151.8L805.73,160.39L807.5,148.84L809.27,155.91L814.58,160.58L816.35,157.42L818.13,166.35L819.9,175.65L821.67,165.33L826.98,157.03L828.75,156.28L830.52,151.11L834.06,148.97L839.38,163.18L841.15,157.54L842.92,153.93L844.69,158.43L846.46,153.02L851.77,146.78L853.54,151.85L855.31,150.39L857.08,154.49L858.85,153.14L864.17,154.5L865.94,146.99L867.71,149.07L869.48,153.66L876.56,155.44L878.33,157.53L880.1,156.51L883.65,155.52L888.96,156.18L890.73,152.33L896.04,144.68L901.35,146.39L903.13,145.09L904.9,150.21L906.67,150.78L908.44,153.78L915.52,156.92L917.29,162.11L919.06,161.86L920.83,160.42L927.92,167.36L929.69,161.53L931.46,163.73L933.23,164.67L938.54,163.87L940.31,162.64L942.08,158.45L943.85,163.18L945.63,166.28L950.94,167.62L952.71,164.66L954.48,167.2L956.25,164.98L958.02,160.43L963.33,160.64L965.1,168.62L966.88,167.56L968.65,167.7L977.5,175.64L979.27,175.58L988.13,184.79L989.9,179.86L995.21,185.87L1000.52,192.13L1002.29,192.91L1004.06,189.78L1005.83,195.66L1007.6,194.98L1012.92,196.65L1014.69,188.72L1016.46,188.64L1018.23,183.63L1020,182.51" style="vector-effect: non-scaling-stroke; fill: none; stroke: rgb(254, 203, 82); stroke-opacity: 1; stroke-width: 2px; opacity: 1;"/></g><g class="points"/><g class="text"/></g></g></g><g class="overplot"/><path class="xlines-above crisp" d="M0,0" style="fill: none;"/><path class="ylines-above crisp" d="M0,0" style="fill: none;"/><g class="overlines-above"/><g class="xaxislayer-above"><g class="xtick"><text text-anchor="middle" x="0" y="280" transform="translate(80.1,0)" style="font-family: 'Open Sans', verdana, arial, sans-serif; font-size: 12px; fill: rgb(42, 63, 95); fill-opacity: 1; white-space: pre; opacity: 1;">Sep 2007</text></g><g class="xtick"><text text-anchor="middle" x="0" y="280" style="font-family: 'Open Sans', verdana, arial, sans-serif; font-size: 12px; fill: rgb(42, 63, 95); fill-opacity: 1; white-space: pre; opacity: 1;" transform="translate(188.13,0)">Nov 2007</text></g><g class="xtick"><text text-anchor="middle" x="0" y="280" style="font-family: 'Open Sans', verdana, arial, sans-serif; font-size: 12px; fill: rgb(42, 63, 95); fill-opacity: 1; white-space: pre; opacity: 1;" transform="translate(296.15,0)">Jan 2008</text></g><g class="xtick"><text text-anchor="middle" x="0" y="280" style="font-family: 'Open Sans', verdana, arial, sans-serif; font-size: 12px; fill: rgb(42, 63, 95); fill-opacity: 1; white-space: pre; opacity: 1;" transform="translate(402.4,0)">Mar 2008</text></g><g class="xtick"><text text-anchor="middle" x="0" y="280" style="font-family: 'Open Sans', verdana, arial, sans-serif; font-size: 12px; fill: rgb(42, 63, 95); fill-opacity: 1; white-space: pre; opacity: 1;" transform="translate(510.42,0)">May 2008</text></g><g class="xtick"><text text-anchor="middle" x="0" y="280" style="font-family: 'Open Sans', verdana, arial, sans-serif; font-size: 12px; fill: rgb(42, 63, 95); fill-opacity: 1; white-space: pre; opacity: 1;" transform="translate(618.44,0)">Jul 2008</text></g><g class="xtick"><text text-anchor="middle" x="0" y="280" style="font-family: 'Open Sans', verdana, arial, sans-serif; font-size: 12px; fill: rgb(42, 63, 95); fill-opacity: 1; white-space: pre; opacity: 1;" transform="translate(728.23,0)">Sep 2008</text></g><g class="xtick"><text text-anchor="middle" x="0" y="280" style="font-family: 'Open Sans', verdana, arial, sans-serif; font-size: 12px; fill: rgb(42, 63, 95); fill-opacity: 1; white-space: pre; opacity: 1;" transform="translate(836.25,0)">Nov 2008</text></g><g class="xtick"><text text-anchor="middle" x="0" y="280" style="font-family: 'Open Sans', verdana, arial, sans-serif; font-size: 12px; fill: rgb(42, 63, 95); fill-opacity: 1; white-space: pre; opacity: 1;" transform="translate(944.27,0)">Jan 2009</text></g><g class="xtick"><text text-anchor="middle" x="0" y="280" style="font-family: 'Open Sans', verdana, arial, sans-serif; font-size: 12px; fill: rgb(42, 63, 95); fill-opacity: 1; white-space: pre; opacity: 1;" transform="translate(1048.75,0)">Mar 2009</text></g></g><g class="yaxislayer-above"><g class="ytick"><text text-anchor="end" x="49" y="4.199999999999999" transform="translate(0,226.29)" style="font-family: 'Open Sans', verdana, arial, sans-serif; font-size: 12px; fill: rgb(42, 63, 95); fill-opacity: 1; white-space: pre; opacity: 1;">8k</text></g><g class="ytick"><text text-anchor="end" x="49" y="4.199999999999999" style="font-family: 'Open Sans', verdana, arial, sans-serif; font-size: 12px; fill: rgb(42, 63, 95); fill-opacity: 1; white-space: pre; opacity: 1;" transform="translate(0,184.51)">10k</text></g><g class="ytick"><text text-anchor="end" x="49" y="4.199999999999999" style="font-family: 'Open Sans', verdana, arial, sans-serif; font-size: 12px; fill: rgb(42, 63, 95); fill-opacity: 1; white-space: pre; opacity: 1;" transform="translate(0,142.73000000000002)">12k</text></g><g class="ytick"><text text-anchor="end" x="49" y="4.199999999999999" style="font-family: 'Open Sans', verdana, arial, sans-serif; font-size: 12px; fill: rgb(42, 63, 95); fill-opacity: 1; white-space: pre; opacity: 1;" transform="translate(0,100.94)">14k</text></g></g><g class="overaxes-above"/></g></g><g class="polarlayer"/><g class="ternarylayer"/><g class="geolayer"/><g class="funnelarealayer"/><g class="pielayer"/><g class="iciclelayer"/><g class="treemaplayer"/><g class="sunburstlayer"/><g class="glimages"/><defs id="topdefs-87418f"><g class="clips"/><clipPath id="legend87418f"><rect width="136" height="200" x="0" y="0"/></clipPath></defs><g class="layer-above"><g class="imagelayer"/><g class="shapelayer"/></g><g class="infolayer"><g class="legend" pointer-events="all" transform="translate(1090.4,60)"><rect class="bg" shape-rendering="crispEdges" width="136" height="200" x="0" y="0" style="stroke: rgb(68, 68, 68); stroke-opacity: 1; fill: rgb(255, 255, 255); fill-opacity: 1; stroke-width: 0px;"/><g class="scrollbox" transform="" clip-path="url(#legend87418f)"><g class="groups"><g class="traces" transform="translate(0,14.5)" style="opacity: 1;"><text class="legendtext" text-anchor="start" x="40" y="4.680000000000001" style="font-family: 'Open Sans', verdana, arial, sans-serif; font-size: 12px; fill: rgb(42, 63, 95); fill-opacity: 1; white-space: pre;">Conic =0.1</text><g class="layers" style="opacity: 1;"><g class="legendfill"/><g class="legendlines"><path class="js-line" d="M5,0h30" style="fill: none; stroke: rgb(99, 110, 250); stroke-opacity: 1; stroke-width: 2px;"/></g><g class="legendsymbols"><g class="legendpoints"/></g></g><rect class="legendtoggle" x="0" y="-9.5" width="130.8186798095703" height="19" style="fill: rgb(0, 0, 0); fill-opacity: 0;"/></g><g class="traces" transform="translate(0,33.5)" style="opacity: 1;"><text class="legendtext" text-anchor="start" x="40" y="4.680000000000001" style="font-family: 'Open Sans', verdana, arial, sans-serif; font-size: 12px; fill: rgb(42, 63, 95); fill-opacity: 1; white-space: pre;">Conic =3.275</text><g class="layers" style="opacity: 1;"><g class="legendfill"/><g class="legendlines"><path class="js-line" d="M5,0h30" style="fill: none; stroke: rgb(239, 85, 59); stroke-opacity: 1; stroke-width: 2px;"/></g><g class="legendsymbols"><g class="legendpoints"/></g></g><rect class="legendtoggle" x="0" y="-9.5" width="130.8186798095703" height="19" style="fill: rgb(0, 0, 0); fill-opacity: 0;"/></g><g class="traces" transform="translate(0,52.5)" style="opacity: 1;"><text class="legendtext" text-anchor="start" x="40" y="4.680000000000001" style="font-family: 'Open Sans', verdana, arial, sans-serif; font-size: 12px; fill: rgb(42, 63, 95); fill-opacity: 1; white-space: pre;">Conic =6.45</text><g class="layers" style="opacity: 1;"><g class="legendfill"/><g class="legendlines"><path class="js-line" d="M5,0h30" style="fill: none; stroke: rgb(0, 204, 150); stroke-opacity: 1; stroke-width: 2px;"/></g><g class="legendsymbols"><g class="legendpoints"/></g></g><rect class="legendtoggle" x="0" y="-9.5" width="130.8186798095703" height="19" style="fill: rgb(0, 0, 0); fill-opacity: 0;"/></g><g class="traces" transform="translate(0,71.5)" style="opacity: 1;"><text class="legendtext" text-anchor="start" x="40" y="4.680000000000001" style="font-family: 'Open Sans', verdana, arial, sans-serif; font-size: 12px; fill: rgb(42, 63, 95); fill-opacity: 1; white-space: pre;">Conic =9.625</text><g class="layers" style="opacity: 1;"><g class="legendfill"/><g class="legendlines"><path class="js-line" d="M5,0h30" style="fill: none; stroke: rgb(171, 99, 250); stroke-opacity: 1; stroke-width: 2px;"/></g><g class="legendsymbols"><g class="legendpoints"/></g></g><rect class="legendtoggle" x="0" y="-9.5" width="130.8186798095703" height="19" style="fill: rgb(0, 0, 0); fill-opacity: 0;"/></g><g class="traces" transform="translate(0,90.5)" style="opacity: 1;"><text class="legendtext" text-anchor="start" x="40" y="4.680000000000001" style="font-family: 'Open Sans', verdana, arial, sans-serif; font-size: 12px; fill: rgb(42, 63, 95); fill-opacity: 1; white-space: pre;">Conic =12.8</text><g class="layers" style="opacity: 1;"><g class="legendfill"/><g class="legendlines"><path class="js-line" d="M5,0h30" style="fill: none; stroke: rgb(255, 161, 90); stroke-opacity: 1; stroke-width: 2px;"/></g><g class="legendsymbols"><g class="legendpoints"/></g></g><rect class="legendtoggle" x="0" y="-9.5" width="130.8186798095703" height="19" style="fill: rgb(0, 0, 0); fill-opacity: 0;"/></g><g class="traces" transform="translate(0,109.5)" style="opacity: 1;"><text class="legendtext" text-anchor="start" x="40" y="4.680000000000001" style="font-family: 'Open Sans', verdana, arial, sans-serif; font-size: 12px; fill: rgb(42, 63, 95); fill-opacity: 1; white-space: pre;">Mean-Variance</text><g class="layers" style="opacity: 1;"><g class="legendfill"/><g class="legendlines"><path class="js-line" d="M5,0h30" style="fill: none; stroke: rgb(25, 211, 243); stroke-opacity: 1; stroke-width: 2px;"/></g><g class="legendsymbols"><g class="legendpoints"/></g></g><rect class="legendtoggle" x="0" y="-9.5" width="130.8186798095703" height="19" style="fill: rgb(0, 0, 0); fill-opacity: 0;"/></g><g class="traces" transform="translate(0,128.5)" style="opacity: 1;"><text class="legendtext" text-anchor="start" x="40" y="4.680000000000001" style="font-family: 'Open Sans', verdana, arial, sans-serif; font-size: 12px; fill: rgb(42, 63, 95); fill-opacity: 1; white-space: pre;">Mean-VaR</text><g class="layers" style="opacity: 1;"><g class="legendfill"/><g class="legendlines"><path class="js-line" d="M5,0h30" style="fill: none; stroke: rgb(255, 102, 146); stroke-opacity: 1; stroke-width: 2px;"/></g><g class="legendsymbols"><g class="legendpoints"/></g></g><rect class="legendtoggle" x="0" y="-9.5" width="130.8186798095703" height="19" style="fill: rgb(0, 0, 0); fill-opacity: 0;"/></g><g class="traces" transform="translate(0,147.5)" style="opacity: 1;"><text class="legendtext" text-anchor="start" x="40" y="4.680000000000001" style="font-family: 'Open Sans', verdana, arial, sans-serif; font-size: 12px; fill: rgb(42, 63, 95); fill-opacity: 1; white-space: pre;">Mean-CVaR 95%</text><g class="layers" style="opacity: 1;"><g class="legendfill"/><g class="legendlines"><path class="js-line" d="M5,0h30" style="fill: none; stroke: rgb(182, 232, 128); stroke-opacity: 1; stroke-width: 2px;"/></g><g class="legendsymbols"><g class="legendpoints"/></g></g><rect class="legendtoggle" x="0" y="-9.5" width="130.8186798095703" height="19" style="fill: rgb(0, 0, 0); fill-opacity: 0;"/></g><g class="traces" transform="translate(0,166.5)" style="opacity: 1;"><text class="legendtext" text-anchor="start" x="40" y="4.680000000000001" style="font-family: 'Open Sans', verdana, arial, sans-serif; font-size: 12px; fill: rgb(42, 63, 95); fill-opacity: 1; white-space: pre;">Mean-CVaR 99%</text><g class="layers" style="opacity: 1;"><g class="legendfill"/><g class="legendlines"><path class="js-line" d="M5,0h30" style="fill: none; stroke: rgb(255, 151, 255); stroke-opacity: 1; stroke-width: 2px;"/></g><g class="legendsymbols"><g class="legendpoints"/></g></g><rect class="legendtoggle" x="0" y="-9.5" width="130.8186798095703" height="19" style="fill: rgb(0, 0, 0); fill-opacity: 0;"/></g><g class="traces" transform="translate(0,185.5)" style="opacity: 1;"><text class="legendtext" text-anchor="start" x="40" y="4.680000000000001" style="font-family: 'Open Sans', verdana, arial, sans-serif; font-size: 12px; fill: rgb(42, 63, 95); fill-opacity: 1; white-space: pre;">DJIA</text><g class="layers" style="opacity: 1;"><g class="legendfill"/><g class="legendlines"><path class="js-line" d="M5,0h30" style="fill: none; stroke: rgb(254, 203, 82); stroke-opacity: 1; stroke-width: 2px;"/></g><g class="legendsymbols"><g class="legendpoints"/></g></g><rect class="legendtoggle" x="0" y="-9.5" width="130.8186798095703" height="19" style="fill: rgb(0, 0, 0); fill-opacity: 0;"/></g></g></g><rect class="scrollbar" rx="20" ry="3" width="0" height="0" x="0" y="0" style="fill: rgb(128, 139, 164); fill-opacity: 1;"/></g><g class="g-gtitle"/><g class="g-xtitle"/><g class="g-ytitle"/></g></svg>