<svg class="main-svg" xmlns="http://www.w3.org/2000/svg" xmlns:xlink="http://www.w3.org/1999/xlink" width="1238" height="317" style=""><rect x="0" y="0" width="1238" height="317" style="fill: rgb(255, 255, 255); fill-opacity: 1;"/><defs id="defs-d58a3a"><g class="clips"><clipPath id="clipd58a3axyplot" class="plotclip"><rect width="1020" height="207"/></clipPath><clipPath class="axesclip" id="clipd58a3ax"><rect x="50" y="0" width="1020" height="317"/></clipPath><clipPath class="axesclip" id="clipd58a3ay"><rect x="0" y="60" width="1238" height="207"/></clipPath><clipPath class="axesclip" id="clipd58a3axy"><rect x="50" y="60" width="1020" height="207"/></clipPath></g><g class="gradients"/><g class="patterns"/></defs><g class="bglayer"><rect class="bg" x="50" y="60" width="1020" height="207" style="fill: rgb(229, 236, 246); fill-opacity: 1; stroke-width: 0;"/></g><g class="layer-below"><g class="imagelayer"/><g class="shapelayer"/></g><g class="cartesianlayer"><g class="subplot xy"><g class="layer-subplot"><g class="shapelayer"/><g class="imagelayer"/></g><g class="gridlayer"><g class="x"><path class="xgrid crisp" transform="translate(122.1,0)" d="M0,60v207" style="stroke: rgb(255, 255, 255); stroke-opacity: 1; stroke-width: 1px;"/><path class="xgrid crisp" transform="translate(298.99,0)" d="M0,60v207" style="stroke: rgb(255, 255, 255); stroke-opacity: 1; stroke-width: 1px;"/><path class="xgrid crisp" transform="translate(473,0)" d="M0,60v207" style="stroke: rgb(255, 255, 255); stroke-opacity: 1; stroke-width: 1px;"/><path class="xgrid crisp" transform="translate(649.89,0)" d="M0,60v207" style="stroke: rgb(255, 255, 255); stroke-opacity: 1; stroke-width: 1px;"/><path class="xgrid crisp" transform="translate(824.85,0)" d="M0,60v207" style="stroke: rgb(255, 255, 255); stroke-opacity: 1; stroke-width: 1px;"/><path class="xgrid crisp" transform="translate(1001.74,0)" d="M0,60v207" style="stroke: rgb(255, 255, 255); stroke-opacity: 1; stroke-width: 1px;"/></g><g class="y"><path class="ygrid crisp" transform="translate(0,228.93)" d="M50,0h1020" style="stroke: rgb(255, 255, 255); stroke-opacity: 1; stroke-width: 1px;"/><path class="ygrid crisp" transform="translate(0,190.77)" d="M50,0h1020" style="stroke: rgb(255, 255, 255); stroke-opacity: 1; stroke-width: 1px;"/><path class="ygrid crisp" transform="translate(0,152.61)" d="M50,0h1020" style="stroke: rgb(255, 255, 255); stroke-opacity: 1; stroke-width: 1px;"/><path class="ygrid crisp" transform="translate(0,114.45)" d="M50,0h1020" style="stroke: rgb(255, 255, 255); stroke-opacity: 1; stroke-width: 1px;"/><path class="ygrid crisp" transform="translate(0,76.28999999999999)" d="M50,0h1020" style="stroke: rgb(255, 255, 255); stroke-opacity: 1; stroke-width: 1px;"/></g></g><g class="zerolinelayer"/><path class="xlines-below"/><path class="ylines-below"/><g class="overlines-below"/><g class="xaxislayer-below"/><g class="yaxislayer-below"/><g class="overaxes-below"/><g class="plot" transform="translate(50,60)" clip-path="url(#clipd58a3axyplot)"><g class="scatterlayer mlayer"><g class="trace scatter tracee9a1e1" style="stroke-miterlimit: 2; opacity: 1;"><g class="fills"/><g class="errorbars"/><g class="lines"><path class="js-line" d="M0,110.28L1.92,108.19L2.88,107.42L3.85,106.54L6.73,106.41L7.69,106.39L8.65,104.9L9.61,105.3L10.57,106.64L14.42,105.58L15.38,106.51L16.34,106.64L17.3,105.32L22.11,103.29L23.07,104.68L24.03,106.17L26.92,103.77L27.88,102.97L28.84,105.2L30.76,106.6L33.65,106.53L34.61,106.52L35.57,105.32L37.49,103.47L41.34,106.15L43.26,104.27L44.22,104.59L47.11,107.24L48.07,105.86L49.03,107.05L49.99,106L50.95,106.89L53.84,108.04L54.8,109.12L55.76,107.56L57.68,105L60.57,106.33L62.49,105.46L63.45,106.89L67.3,107.44L68.26,108.97L69.22,109.46L70.18,106.59L71.14,106.92L74.02,106.04L75.95,106.78L76.91,104.56L77.87,107.31L80.75,106.32L81.72,106.28L82.68,107.93L84.6,111.92L87.48,111.9L90.37,109.02L91.33,109.09L96.14,106.78L97.1,106.7L98.06,105.37L100.94,105.78L101.9,106.77L102.87,104.53L104.79,104.64L107.67,105.75L108.63,105.39L109.59,105.91L111.52,104.08L114.4,103.88L116.32,101.66L117.29,101.8L118.25,100L121.13,100.25L122.09,100.19L123.05,101.24L124.02,99.71L124.98,99.62L127.86,99.38L128.82,98.25L131.71,96.88L135.55,97.72L137.47,100.09L138.44,99.23L145.16,97.41L148.05,97.43L149.01,97.55L149.97,96.89L151.89,97.99L154.78,97.45L156.7,96.58L157.66,96.88L161.51,97.89L162.47,97.65L163.43,95.25L164.39,95.37L168.24,96.12L169.2,97L175.93,95.63L176.89,92.54L178.81,86.75L181.7,83.55L182.66,84.18L183.62,83.32L185.54,84.8L188.43,86.07L190.35,87.87L191.31,87.01L192.27,87.49L195.16,85.97L197.08,85.48L198.04,87.44L199,88.33L201.89,88.84L204.77,85.87L205.73,84.24L212.46,85.6L215.34,87.59L217.27,85.17L218.23,85.28L219.19,85.84L222.07,84.84L224.96,81.37L225.92,80.92L230.73,81.76L231.69,80.88L232.65,80.38L235.53,79.97L236.49,79.17L237.46,79.56L239.38,81.68L243.22,81.21L245.15,79.65L246.11,80.41L251.88,79.47L252.84,81.03L256.68,79.54L257.64,80L259.57,77.38L263.41,76.94L265.33,75.55L266.3,75.81L269.18,77.72L270.14,77.35L271.1,76.64L272.06,78.4L273.03,78.97L275.91,78.74L276.87,79.25L277.83,78.47L279.75,77.56L282.64,78.12L286.48,80.86L289.37,81.06L291.29,79.83L292.25,79.86L293.21,80.12L297.06,79.84L299.94,81.08L302.83,80.5L303.79,88.15L304.75,86.64L305.71,86.87L306.67,88.87L309.56,89.18L310.52,87.25L311.48,87.29L312.44,86.42L313.4,85.47L316.29,84.93L317.25,87.52L318.21,87.24L323.02,84.52L323.98,83.01L325.9,79.98L326.86,80.97L330.71,82.06L331.67,82.65L333.59,81.86L336.48,80.41L338.4,77.29L339.36,76.48L344.17,76.61L345.13,78.04L347.05,77.18L349.93,75.4L350.9,72.51L351.86,74.39L353.78,73.77L356.66,74.9L359.55,73.33L360.51,72.33L364.35,69.15L365.32,70.01L367.24,69.12L370.12,69.02L371.08,71L372.05,70.11L373.01,72.69L373.97,71.41L377.81,71.27L378.77,68.02L379.74,68.37L380.7,66.94L385.5,68.7L386.47,69.82L387.43,68.33L391.27,67.75L392.23,65.27L393.2,65.55L397.04,64.17L398,65.5L398.96,66.96L399.92,70.79L400.89,68.63L403.77,68.78L404.73,70.79L405.69,68.44L407.62,67.13L410.5,67.86L411.46,67.99L412.42,68.94L413.38,68.16L414.34,71.43L424.92,67.01L426.84,66.59L430.69,66.09L431.65,68.4L433.57,65.23L434.53,65.32L437.42,63.21L438.38,66.07L439.34,66.05L440.3,63.68L441.26,65.25L444.15,63.26L445.11,64.48L446.07,63.63L447.99,69.92L450.88,70.03L451.84,71.2L452.8,68.09L453.76,66.66L454.72,68.95L458.57,63.23L459.53,62.75L460.49,66.8L461.45,66.5L464.34,66.34L465.3,69.34L467.22,71.03L468.18,67.69L471.07,68.41L472.03,69.48L474.91,64.63L477.79,64.69L478.76,67.17L479.72,64.37L480.68,65.97L481.64,64.72L485.49,63.51L486.45,65.5L487.41,64.11L488.37,65.35L491.25,65.28L492.21,62.08L495.1,58.06L497.98,59.97L499.91,54.51L500.87,54.8L501.83,52.91L504.71,52.46L505.67,52.66L506.64,50.97L511.44,47.7L512.4,48.12L513.36,48.85L514.33,48.63L515.29,47.86L518.17,48.61L522.02,47.52L524.9,48.97L525.86,48.35L526.82,49.15L527.79,48.66L528.75,53.93L532.59,53.01L533.55,53.23L534.51,53.08L535.48,51.32L538.36,49.2L539.32,51.43L540.28,49.65L541.24,53.21L542.21,51.72L545.09,52.67L546.05,52.69L547.01,56.41L547.97,54.96L548.93,57.53L551.82,57.7L552.78,53.38L553.74,54.39L554.7,52.51L555.66,48.54L558.55,49.92L559.51,49.37L560.47,51.8L562.39,49.98L565.28,51.64L566.24,50.04L567.2,46.79L568.16,45.67L569.12,47.89L572.01,47.79L572.97,46.3L574.89,42.88L575.85,42.41L578.74,41.95L579.7,42.85L581.62,39.99L582.58,41.86L585.47,44.16L586.43,42.97L587.39,43.14L588.35,41.57L589.31,38.22L592.2,37.74L594.12,38.65L595.08,40.48L596.04,39.65L598.93,43.96L600.85,45.68L601.81,44.4L602.77,45.46L605.66,42.05L606.62,43.01L607.58,40.24L608.54,38.77L609.5,41.57L612.38,39.02L613.35,41.2L616.23,52.29L620.08,58.7L621.04,60.5L622,58.79L622.96,61.51L625.84,59.53L627.77,62.1L628.73,57.53L629.69,55.81L632.57,54.87L633.53,59.8L634.5,59.94L639.3,58.92L640.26,55.55L641.23,54.85L642.19,57.02L643.15,57.85L646.99,57.77L647.95,57.89L648.92,59.42L649.88,57.48L652.76,54.12L653.72,51.42L654.68,52.24L655.65,51.99L656.61,55.8L660.45,54.65L661.41,51.88L663.34,57.06L666.22,58.14L667.18,54.82L668.14,55.18L669.1,54.15L670.07,56.96L672.95,59.95L673.91,52.85L674.87,54.56L675.83,54.02L682.56,51.67L683.52,52.47L686.41,49.38L687.37,46.44L688.33,47.81L689.29,47.82L690.25,48.01L693.14,46.47L695.06,47.04L696.02,44.34L696.98,47L699.87,45.18L701.79,44.27L702.75,44.88L703.71,42.59L706.6,42.24L709.48,41.74L710.44,45.33L714.29,48.31L715.25,49.75L716.21,49.52L717.17,46.73L721.02,48.24L721.98,50.93L722.94,50.37L723.9,53.78L726.79,53.02L727.75,51.25L730.63,48.58L733.52,47.98L735.44,51.91L736.4,48.73L737.36,50.53L741.21,49.45L742.17,50.46L743.13,46.74L744.09,45.96L746.97,47.79L748.9,48.04L749.86,45.43L750.82,51.49L753.7,48.46L754.67,45.92L755.63,47.59L756.59,46.04L757.55,47.9L760.43,50.75L761.39,50.28L762.36,53.45L763.32,52.55L764.28,55.31L767.16,54.47L768.12,55.93L769.09,53.48L771.01,62.52L773.89,61.04L775.82,62.88L776.78,62.41L780.62,61.47L781.58,58.68L783.51,60.12L784.47,61.15L789.27,57.89L790.24,64.1L791.2,63.08L794.08,61.9L796,53.81L796.97,55.06L797.93,55.09L800.81,59.3L801.77,58.44L802.73,55.86L803.69,58.19L804.66,56.25L807.54,54.74L808.5,49.07L809.46,46.86L810.42,52.62L811.39,48.32L814.27,48.47L815.23,46.92L816.19,47.53L817.15,48.69L818.11,46.89L822.92,51.06L823.88,51.12L824.84,48.5L827.73,51.94L828.69,52.23L829.65,51.33L830.61,49.73L831.57,53.26L836.38,53.25L837.34,56.77L838.3,56.97L841.19,51.95L842.15,55.17L843.11,54.07L844.07,53.26L845.03,56L848.88,69.62L849.84,77.83L851.76,70.63L854.65,70.49L856.57,78.05L857.53,75.39L858.49,76.69L861.38,84.73L862.34,76.55L863.3,75.24L868.11,91.62L869.07,100.69L870.03,106.46L870.99,122.04L871.95,129.04L874.84,106.56L875.8,105.06L876.76,118.4L877.72,109.83L878.68,113.68L881.56,105.71L882.53,110.4L883.49,117.25L884.45,115.36L885.41,122.58L888.29,127.47L889.26,109.62L890.22,114.16L895.02,110.44L895.98,106.46L897.91,121.46L898.87,115L901.75,114.06L902.71,118.45L903.68,125.84L904.64,115.6L905.6,120.61L908.48,124.3L909.44,120.76L910.41,132.18L911.37,142.27L912.33,133.37L915.21,127.21L916.17,128.26L917.13,123.63L919.06,120.32L921.94,132.04L922.9,131.08L923.86,126.73L924.83,133.5L925.79,129.24L928.67,130.3L929.63,132.59L930.59,131.17L932.52,131.96L935.4,129.47L936.36,125.2L937.32,127.62L939.25,130.78L942.13,130.9L943.09,132.88L944.05,132.27L945.98,130.94L948.86,131.74L952.7,122.85L955.59,123.11L962.32,129.41L963.28,128.51L964.24,136.38L965.2,136.83L966.16,134.75L970.01,135.89L970.97,133.84L971.93,137.92L972.89,139.48L975.78,137.64L976.74,137.25L977.7,134.59L978.66,136.05L979.62,141.63L982.51,144.15L983.47,140.4L984.43,144.4L985.39,144.07L986.35,141.99L989.24,142.4L990.2,148.48L991.16,147.11L992.12,144.78L993.08,146.02L997.89,148.39L998.85,148.06L999.81,153.01L1002.7,155.62L1003.66,153.86L1004.62,155.33L1005.58,158.45L1006.54,166.29L1010.39,175.06L1011.35,170.63L1012.31,172.71L1013.27,170.96L1016.15,173.94L1017.12,169.36L1019.04,166.73L1020,164.1" style="vector-effect: non-scaling-stroke; fill: none; stroke: rgb(99, 110, 250); stroke-opacity: 1; stroke-width: 2px; opacity: 1;"/></g><g class="points"/><g class="text"/></g><g class="trace scatter trace86afc5" style="stroke-miterlimit: 2; opacity: 1;"><g class="fills"/><g class="errorbars"/><g class="lines"><path class="js-line" d="M0,110.28L1.92,108.14L2.88,107.32L3.85,106.55L6.73,106.29L7.69,105.89L8.65,104.3L9.61,104.21L10.57,105.44L14.42,104.75L15.38,105.92L16.34,105.89L17.3,104.66L22.11,103.01L23.07,104.43L24.03,105.9L26.92,103.68L27.88,102.68L28.84,105.16L30.76,106.46L33.65,106.41L34.61,106.29L35.57,105.12L37.49,103.07L41.34,105.84L43.26,103.6L44.22,103.9L47.11,106.44L48.07,105L49.03,106.09L49.99,105.04L50.95,106.02L53.84,107.18L54.8,108.12L55.76,106.57L57.68,103.88L60.57,105.12L62.49,103.99L63.45,105.2L67.3,105.71L68.26,107.21L69.22,107.57L70.18,104.53L71.14,104.93L74.02,103.95L75.95,104.79L76.91,102.29L77.87,104.62L80.75,103.78L81.72,103.53L82.68,105.24L84.6,109.24L87.48,109.13L90.37,105.74L91.33,105.96L98.06,101.24L100.94,101.79L101.9,102.94L102.87,100.48L104.79,100.78L107.67,102.12L109.59,101.62L110.56,100.1L111.52,99.61L114.4,99.57L116.32,97.64L117.29,98.11L118.25,95.91L121.13,95.97L122.09,95.95L123.05,96.98L124.02,95.21L124.98,95.1L127.86,94.84L128.82,93.77L129.78,93.19L130.74,93.51L131.71,92.41L135.55,93.43L137.47,95.58L138.44,94.77L143.24,93.39L144.2,93.24L145.16,92.77L148.05,93.2L149.01,93.08L149.97,92.08L155.74,92.46L156.7,92.43L161.51,93.7L162.47,93.3L163.43,90.92L164.39,91.34L168.24,92.27L169.2,93L172.08,91.69L174.97,91.33L175.93,91.39L176.89,88.36L178.81,81.23L181.7,78.41L182.66,79.15L183.62,78.04L184.58,78.09L185.54,79.06L188.43,80.66L189.39,82.08L190.35,82.88L191.31,82.15L192.27,82.56L195.16,80.9L197.08,80.53L198.04,82.69L199,83.97L201.89,84.54L204.77,81.32L205.73,79.65L212.46,81.2L215.34,83.38L217.27,80.74L218.23,81.01L219.19,81.48L222.07,80.13L225.92,76.61L228.8,76.77L231.69,76.57L232.65,76.03L235.53,75.95L236.49,75.05L238.42,76.4L239.38,77.62L243.22,77.14L244.18,75.91L245.15,75.44L246.11,76.37L251.88,74.64L252.84,76.4L257.64,75L258.61,73.25L259.57,72.2L263.41,71.7L265.33,70.16L266.3,70.58L269.18,72.06L270.14,71.4L271.1,70.52L272.06,72.25L273.03,73.17L275.91,72.78L277.83,72.57L278.79,71.92L282.64,72.36L283.6,73.4L286.48,75.56L289.37,75.97L291.29,74.59L292.25,74.92L298.02,75.51L298.98,75.77L299.94,75.94L302.83,75.22L303.79,83.43L304.75,80.83L305.71,81.24L306.67,83.42L309.56,83.97L310.52,81.92L311.48,82.26L312.44,81.05L313.4,80.12L316.29,79.77L317.25,82.53L318.21,82.23L320.13,81.63L323.02,79.58L325.9,74.79L326.86,75.83L330.71,77.04L331.67,77.74L333.59,76.54L336.48,74.76L338.4,71.59L339.36,70.58L344.17,70.88L345.13,72.29L347.05,71.27L349.93,69.53L350.9,66.91L351.86,68.67L353.78,68.32L356.66,69.41L360.51,67.6L363.39,65.58L364.35,64.54L365.32,65.16L367.24,64.12L370.12,64.04L371.08,66.26L372.05,65.43L373.01,68.16L373.97,66.77L377.81,66.21L378.77,63.11L379.74,63.56L380.7,62.08L385.5,63.44L386.47,64.8L387.43,63.54L391.27,62.58L392.23,60.26L393.2,60.61L397.04,59.33L398,60.84L398.96,62.13L399.92,65.91L400.89,63.86L403.77,63.78L404.73,65.95L405.69,64.01L407.62,62.61L410.5,63.63L411.46,63.72L412.42,64.82L413.38,64.09L414.34,67.31L418.19,65.45L419.15,64.32L421.07,64.26L423.96,62.85L424.92,62.05L426.84,61.81L430.69,61.46L431.65,64.48L433.57,61.23L434.53,61.26L437.42,59.02L438.38,62.12L439.34,62.4L440.3,59.93L441.26,61.39L444.15,58.96L445.11,60.17L446.07,59.17L447.99,64.82L450.88,65.04L451.84,65.96L452.8,62.49L453.76,61.25L454.72,63.17L458.57,57.71L459.53,57.46L460.49,61.71L461.45,61.06L464.34,60.84L465.3,64.13L467.22,65.36L468.18,61.91L472.03,63.8L472.99,62.09L474.91,58.79L477.79,58.97L478.76,61.36L479.72,58.5L480.68,60.15L481.64,59.09L485.49,57.52L486.45,59.41L487.41,57.87L488.37,59.24L491.25,58.86L492.21,55.8L495.1,51.76L497.98,53.47L499.91,48.09L500.87,48.07L501.83,46.02L504.71,45.58L505.67,45.76L506.64,44.09L508.56,43.48L511.44,41.07L513.36,42.08L514.33,41.63L515.29,41.15L518.17,42.08L522.02,40.61L524.9,41.8L525.86,40.73L526.82,41.03L527.79,40.63L528.75,44.99L532.59,43.37L533.55,43.53L534.51,43.13L535.48,41.63L538.36,39.56L539.32,42.17L540.28,40L541.24,43.31L542.21,41.85L545.09,42.1L546.05,41.79L547.01,45.24L547.97,43.06L548.93,45.17L551.82,45.37L552.78,41.19L553.74,42.44L554.7,39.74L555.66,34.97L558.55,35.84L559.51,35.03L560.47,37.88L562.39,35.96L565.28,37.86L568.16,31.38L569.12,33.24L572.01,33.07L572.97,31.37L574.89,28.57L575.85,28.05L579.7,28.29L580.66,25.08L581.62,24.36L582.58,26.27L585.47,28.78L586.43,27.55L587.39,27.6L588.35,25.79L589.31,22.24L592.2,21.78L594.12,22.47L595.08,24.45L596.04,23.49L598.93,28.1L600.85,29.7L601.81,28.58L602.77,29.49L605.66,25.38L606.62,26.1L607.58,23.35L608.54,21.76L609.5,25.16L612.38,23L613.35,24.6L615.27,30.09L616.23,35.77L621.04,45.1L622,43.81L622.96,47.14L625.84,45.04L627.77,47.33L628.73,43.28L629.69,42.14L632.57,41.1L633.53,46.01L634.5,45.88L635.46,44.73L636.42,44.9L639.3,43.86L640.26,40.36L641.23,39.12L642.19,41.48L643.15,42.09L646.99,43.09L647.95,43.34L648.92,44.51L649.88,42.17L652.76,38.55L653.72,36.11L654.68,37.7L655.65,37.13L656.61,40.59L660.45,39.25L661.41,36.28L663.34,40.8L666.22,41.5L667.18,38.92L668.14,39.75L669.1,38.66L670.07,41.42L672.95,41.97L673.91,35.55L674.87,36.64L675.83,36.15L682.56,33.92L683.52,34.21L686.41,32.08L687.37,29.55L688.33,31.11L689.29,31.09L690.25,31.77L693.14,30.19L694.1,30.2L695.06,31.07L696.02,28.01L696.98,30.89L700.83,28.19L701.79,28.15L702.75,29.22L703.71,28.19L707.56,26.99L708.52,25.77L709.48,26.52L710.44,30.29L715.25,34.03L716.21,33.87L717.17,31.05L720.06,32.41L721.02,32.34L721.98,34.17L722.94,33.35L723.9,36.27L726.79,35.18L727.75,33.46L730.63,29.89L733.52,29.31L735.44,33.52L736.4,30.19L737.36,32.05L741.21,30.91L742.17,31.81L743.13,27.72L744.09,26.79L746.97,28.81L748.9,28.47L749.86,24.92L750.82,31.01L753.7,28.87L754.67,26.81L755.63,28.07L756.59,26.96L757.55,28.78L760.43,32.24L761.39,31.55L762.36,34.51L763.32,33.26L764.28,36.13L767.16,34.27L768.12,35.35L769.09,32.58L771.01,42L773.89,39.66L774.85,40.97L775.82,40.63L776.78,39.66L780.62,39.24L781.58,36.44L782.54,37.13L783.51,36.37L784.47,37.68L787.35,35.37L788.31,33.13L789.27,34.1L790.24,40.81L794.08,41L795.04,35.88L796,33.54L796.97,33.68L797.93,33.51L800.81,37.01L801.77,36.08L802.73,33.18L803.69,36.67L804.66,34.41L807.54,32.9L808.5,27.35L809.46,25.28L810.42,30.26L811.39,26.33L814.27,26.11L815.23,24.22L816.19,24.66L817.15,25.73L818.11,23.69L822.92,27.3L823.88,27.47L824.84,24.65L827.73,28.31L828.69,28.8L829.65,27.88L830.61,26.31L831.57,30.17L836.38,29.68L837.34,33.18L838.3,33.51L841.19,28.41L842.15,30.48L843.11,29.24L844.07,27.93L845.03,29.15L848.88,38.71L849.84,45.92L851.76,41.82L854.65,44.24L855.61,49.54L856.57,50.39L857.53,46.67L858.49,47.55L861.38,56.66L862.34,48.15L863.3,47.72L864.26,50.63L865.22,52.53L868.11,63.32L871.95,101.39L874.84,76.62L875.8,77.07L876.76,91.39L877.72,81.06L878.68,83.27L881.56,73.3L882.53,78.1L883.49,86.43L884.45,83.64L885.41,90.99L888.29,95.28L889.26,74.94L890.22,80.31L892.14,78.48L895.02,76.81L895.98,72.66L896.95,82.13L897.91,88.05L898.87,81.57L901.75,80.42L902.71,85.22L903.68,92.94L904.64,80.35L905.6,87.21L908.48,90.86L909.44,86.08L910.41,96.39L911.37,107.1L912.33,93.91L915.21,90.36L916.17,90.87L917.13,87L919.06,85.26L921.94,97.79L922.9,97.11L923.86,92.42L924.83,99.36L925.79,93.98L928.67,95.54L929.63,99.4L930.59,98.06L932.52,98.49L935.4,96.17L936.36,91.87L937.32,94.07L939.25,96.07L942.13,95.87L943.09,97.95L944.05,97.38L945.98,95.8L948.86,95.76L952.7,85.86L955.59,87.08L957.51,89.98L958.47,90.79L962.32,92.5L963.28,91.59L964.24,97.48L965.2,96.86L966.16,93.86L970.01,94.03L970.97,92.82L971.93,94.96L972.89,97.42L975.78,93.51L976.74,93.82L977.7,91.39L978.66,92.78L979.62,98.42L982.51,101.37L983.47,95.91L984.43,101.56L985.39,101.14L986.35,98.62L989.24,99.38L990.2,105.65L991.16,104.8L992.12,101.75L993.08,103.63L996.93,105.77L997.89,104.78L998.85,102.03L999.81,104.83L1002.7,109.3L1003.66,107.83L1004.62,108.86L1005.58,112.4L1006.54,115.96L1009.43,122.61L1010.39,125.98L1011.35,120.43L1012.31,121.94L1013.27,120.54L1016.15,125.23L1017.12,121.21L1018.08,120.23L1019.04,117.84L1020,115.16" style="vector-effect: non-scaling-stroke; fill: none; stroke: rgb(239, 85, 59); stroke-opacity: 1; stroke-width: 2px; opacity: 1;"/></g><g class="points"/><g class="text"/></g><g class="trace scatter tracea1d1c7" style="stroke-miterlimit: 2; opacity: 1;"><g class="fills"/><g class="errorbars"/><g class="lines"><path class="js-line" d="M0,110.28L1.92,108.18L2.88,107.4L3.85,106.53L6.73,106.16L7.69,105.71L8.65,104.03L9.61,103.7L10.57,104.94L14.42,104.53L15.38,105.71L16.34,105.57L17.3,104.46L22.11,102.7L23.07,104.34L24.03,105.63L26.92,103.46L27.88,102.2L28.84,104.86L30.76,106.21L33.65,106.24L34.61,105.99L35.57,104.77L37.49,102.64L41.34,105.41L43.26,103.06L44.22,103.3L47.11,105.76L48.07,104.31L49.03,105.42L49.99,104.37L50.95,105.4L53.84,106.48L54.8,107.34L55.76,105.89L57.68,103.21L60.57,104.5L62.49,103.21L63.45,104.38L67.3,104.91L68.26,106.38L69.22,106.69L70.18,103.46L71.14,103.75L74.02,102.76L75.95,103.65L76.91,101.12L77.87,103.74L80.75,102.91L81.72,102.62L82.68,104.26L84.6,108.21L87.48,107.9L90.37,104.45L91.33,104.78L97.1,101.22L98.06,99.83L100.94,100.37L101.9,101.67L102.87,99.19L103.83,99.46L104.79,99.65L107.67,101.16L109.59,100.4L110.56,98.52L111.52,97.8L114.4,97.75L116.32,96.13L117.29,96.59L118.25,94.3L121.13,94.21L122.09,94.27L123.05,95.33L124.02,93.41L124.98,93.24L127.86,92.9L128.82,91.87L129.78,91.28L130.74,91.63L131.71,90.46L135.55,91.61L137.47,93.52L138.44,92.55L142.28,90.9L143.24,91.4L145.16,90.66L148.05,91.2L150.93,89.86L151.89,90.54L154.78,90.98L155.74,90.21L158.62,90.73L161.51,91.58L162.47,91.17L163.43,89L165.35,89.71L168.24,90.53L169.2,91.17L170.16,90.31L175.93,89.1L176.89,86.11L178.81,78.28L181.7,75.59L182.66,76.41L183.62,75.27L184.58,74.95L185.54,75.92L188.43,77.75L189.39,79.31L190.35,80.17L191.31,79.44L192.27,79.89L195.16,78.1L197.08,77.95L198.04,80.2L199,81.54L201.89,81.98L204.77,78.73L205.73,77.14L212.46,78.64L215.34,80.95L217.27,78.15L218.23,78.43L219.19,79.17L222.07,77.59L225.92,74.53L228.8,74.68L235.53,74.26L236.49,73.39L239.38,75.99L243.22,75.51L245.15,73.88L246.11,74.92L250.91,73.94L251.88,72.91L252.84,74.69L255.72,73.63L257.64,73.12L258.61,71.25L259.57,70.14L263.41,69.73L266.3,68.45L269.18,69.81L271.1,68.24L272.06,70.01L273.03,71.16L275.91,70.65L277.83,71.07L278.79,70.66L282.64,70.97L283.6,72.11L286.48,74.15L289.37,74.73L291.29,73.14L292.25,73.61L297.06,73.24L298.02,73.91L299.94,74.26L302.83,73.36L303.79,81.82L304.75,78.82L305.71,79.42L306.67,81.31L309.56,81.94L310.52,79.99L311.48,80.44L312.44,79.1L313.4,78.21L316.29,77.99L317.25,80.75L318.21,80.49L320.13,80.06L323.02,77.9L325.9,73.17L326.86,74.19L330.71,75.4L331.67,76.17L333.59,74.77L336.48,72.95L338.4,69.9L339.36,68.81L344.17,69.25L345.13,70.59L347.05,69.49L349.93,67.76L350.9,65.19L351.86,67.06L353.78,66.56L356.66,67.71L359.55,66.74L360.51,66.17L364.35,63.16L365.32,63.51L367.24,62.38L370.12,62.1L371.08,64.27L372.05,63.59L373.01,66.28L373.97,64.8L377.81,64.03L378.77,61.22L379.74,61.71L380.7,60.26L385.5,61.29L386.47,62.88L387.43,61.72L391.27,60.75L392.23,58.57L393.2,58.87L397.04,57.41L398,58.96L398.96,60.05L399.92,63.82L400.89,61.95L403.77,61.78L404.73,63.86L405.69,62.06L407.62,60.54L410.5,61.61L411.46,61.77L412.42,63.22L413.38,62.56L414.34,65.69L418.19,63.67L419.15,62.62L421.07,62.55L423.96,61.05L424.92,60.11L426.84,60.06L427.8,60.19L430.69,59.76L431.65,63.28L432.61,62.04L433.57,60L434.53,59.91L437.42,57.62L438.38,60.79L439.34,61.07L440.3,58.61L441.26,60.15L444.15,57.59L445.11,58.75L446.07,57.84L447.99,63.28L450.88,63.74L451.84,64.43L452.8,60.93L453.76,60.02L454.72,61.86L458.57,56.3L459.53,56.16L460.49,60.33L461.45,59.6L464.34,59.24L465.3,62.59L466.26,63.7L467.22,63.5L468.18,60.11L471.07,61.19L472.03,61.79L472.99,60.14L474.91,56.6L477.79,56.94L478.76,59.33L479.72,56.53L480.68,58.23L481.64,57.32L485.49,55.29L486.45,57.19L487.41,55.53L488.37,57.05L491.25,56.58L492.21,53.78L494.14,50.98L495.1,49.84L497.98,51.31L498.94,47.88L499.91,45.82L500.87,45.63L501.83,43.5L504.71,42.94L505.67,43.18L506.64,41.33L508.56,40.71L511.44,38.33L513.36,39.24L514.33,38.7L515.29,38.1L518.17,39.04L520.09,37.52L521.06,37.66L522.02,37.22L524.9,38.19L526.82,36.83L527.79,36.58L528.75,40.94L531.63,39.42L534.51,39.01L535.48,37.83L538.36,35.55L539.32,38.29L540.28,35.97L541.24,39.36L542.21,37.75L545.09,37.34L546.05,36.39L547.01,40.05L547.97,37.76L548.93,39.51L551.82,39.87L552.78,35.65L553.74,37.09L554.7,34.18L555.66,28.89L558.55,29.23L559.51,28.24L560.47,31.65L562.39,29.74L565.28,31.51L568.16,24.31L569.12,26.18L572.01,26.06L572.97,24.3L574.89,21.21L575.85,20.68L579.7,20.8L580.66,16.79L581.62,16.21L582.58,18.18L585.47,20.73L586.43,19.16L587.39,19.3L588.35,17.47L589.31,13.63L592.2,13.13L594.12,13.79L595.08,15.89L596.04,14.8L598.93,19.58L600.85,21.34L601.81,20.37L602.77,21.24L605.66,16.67L606.62,17.09L607.58,14.28L608.54,12.65L609.5,16.59L612.38,14.59L613.35,15.65L615.27,21.57L616.23,27.9L621.04,38.02L622,36.99L622.96,40.63L625.84,38.55L627.77,40.97L628.73,37.05L629.69,36.08L632.57,34.91L633.53,39.54L634.5,39.14L635.46,37.75L636.42,37.96L639.3,37.91L640.26,34.26L641.23,32.74L642.19,34.97L648.92,37.52L649.88,34.86L653.72,28.51L654.68,30.58L655.65,30.03L656.61,33.46L660.45,31.78L661.41,29.02L663.34,33.13L666.22,33.3L667.18,30.99L668.14,31.96L669.1,31.03L670.07,33.79L672.95,33.28L673.91,27.11L674.87,28.25L675.83,28.01L682.56,26.05L683.52,26.02L686.41,24.19L687.37,21.79L688.33,23.42L689.29,23.42L690.25,24.11L693.14,22.46L694.1,22.37L695.06,23.8L696.02,20.79L696.98,23.6L701.79,20.36L702.75,21.44L703.71,20.86L706.6,20.43L707.56,20.06L708.52,18.77L709.48,19.68L710.44,23.72L715.25,26.64L716.21,26.36L717.17,23.48L720.06,24.92L721.02,24.63L721.98,26.2L722.94,25.27L723.9,28.69L726.79,27.81L727.75,26.02L730.63,22L733.52,21.55L735.44,25.45L736.4,22.08L737.36,24.09L741.21,23.24L742.17,24.32L743.13,20.07L744.09,18.93L746.97,20.87L747.94,20.82L748.9,19.96L749.86,15.66L750.82,21.91L753.7,19.7L754.67,17.84L755.63,19L756.59,18.31L760.43,24L761.39,23.61L762.36,26.75L763.32,25.15L764.28,28.11L767.16,25.85L768.12,27.05L769.09,23.79L771.01,33.05L773.89,30.48L774.85,31.75L775.82,30.82L776.78,29.85L780.62,29.53L781.58,26.84L782.54,27.49L783.51,26.99L784.47,28.51L787.35,25.82L788.31,23.64L789.27,25.08L790.24,31.93L791.2,32.93L794.08,33.13L796,25.82L796.97,25.28L797.93,25.07L800.81,28.75L801.77,27.68L802.73,24.37L803.69,28.41L804.66,26.18L807.54,24.65L808.5,18.66L809.46,16.93L810.42,23L811.39,19.41L814.27,19.18L815.23,17.49L816.19,17.8L817.15,18.62L818.11,16.63L821,18.7L821.96,20.45L822.92,20.17L823.88,20.89L824.84,18.36L827.73,22.32L828.69,22.54L829.65,21.58L830.61,19.68L831.57,23.53L836.38,23.02L837.34,26.47L838.3,26.68L841.19,21.91L842.15,24.9L843.11,23.93L844.07,22.46L845.03,26L848.88,42.98L849.84,53.01L851.76,47.79L854.65,48.99L856.57,56.68L857.53,53.87L858.49,54.62L861.38,64.7L862.34,55.45L863.3,54.66L864.26,56.68L865.22,56.68L868.11,66.89L869.07,76.01L870.03,81.47L870.99,98.54L871.95,105.8L874.84,81.43L875.8,82.54L876.76,96.98L877.72,86.4L878.68,88.58L881.56,77.93L882.53,82.22L883.49,90.48L884.45,87.3L885.41,95.16L888.29,100.05L889.26,79.36L890.22,85.91L892.14,83.39L895.02,81.3L895.98,77L896.95,86.05L897.91,91.58L898.87,84.56L901.75,82.45L902.71,86.91L903.68,94.58L904.64,81.59L905.6,88.26L908.48,92.21L909.44,86.6L910.41,95.72L911.37,104.62L912.33,88.39L916.17,88.64L917.13,85.34L919.06,85.19L921.94,97.3L922.9,96.78L923.86,92.34L924.83,99.2L925.79,93.57L928.67,95.93L929.63,100.03L935.4,97.11L936.36,93.59L938.28,96.14L939.25,97.18L942.13,96.55L943.09,98.65L944.05,98.31L945.98,96.63L948.86,96.33L949.82,93.5L952.7,86.62L955.59,88.51L957.51,91.59L958.47,92.6L959.43,92.85L962.32,92.53L963.28,91.68L964.24,95.31L965.2,93.89L966.16,90.29L970.01,89.08L970.97,89.6L971.93,90.76L972.89,93.53L975.78,89.65L976.74,89.9L977.7,88.25L978.66,89.31L979.62,94.38L982.51,97.65L983.47,92.41L984.43,99.05L985.39,98.73L986.35,96.65L989.24,97.57L990.2,103.39L991.16,103.17L992.12,100.48L993.08,102.78L996.93,104.38L997.89,103.15L998.85,100.4L999.81,100.87L1002.7,106.25L1003.66,107.57L1004.62,107.39L1006.54,110.56L1009.43,115.38L1010.39,118.34L1011.35,112.05L1012.31,114.23L1013.27,113.4L1016.15,118.76L1017.12,115.99L1018.08,115.75L1019.04,113.67L1020,110.33" style="vector-effect: non-scaling-stroke; fill: none; stroke: rgb(0, 204, 150); stroke-opacity: 1; stroke-width: 2px; opacity: 1;"/></g><g class="points"/><g class="text"/></g><g class="trace scatter traceee4c23" style="stroke-miterlimit: 2; opacity: 1;"><g class="fills"/><g class="errorbars"/><g class="lines"><path class="js-line" d="M0,110.28L0.96,108.39L1.92,108.2L3.85,106.6L6.73,106.15L7.69,105.63L8.65,103.85L9.61,103.33L10.57,104.61L14.42,104.42L15.38,105.62L16.34,105.5L17.3,104.49L22.11,102.67L23.07,104.42L24.03,105.59L26.92,103.33L27.88,101.97L28.84,104.68L29.8,106.07L30.76,106.12L34.61,105.79L35.57,104.54L37.49,102.44L41.34,105.08L43.26,102.77L44.22,103.05L47.11,105.44L48.07,104.02L49.03,105.11L49.99,104.07L50.95,105.13L53.84,106.11L54.8,106.87L55.76,105.38L57.68,102.66L60.57,103.95L62.49,102.67L63.45,103.83L67.3,104.38L68.26,105.84L69.22,106.13L70.18,102.84L71.14,103.17L74.02,102.24L75.95,103.17L76.91,100.63L77.87,103.52L80.75,102.73L81.72,102.29L82.68,103.92L84.6,107.88L87.48,107.47L90.37,104.08L91.33,104.5L97.1,100.83L98.06,99.37L100.94,99.92L101.9,101.27L102.87,98.72L103.83,99.01L104.79,99.13L107.67,100.67L109.59,99.92L110.56,97.85L111.52,96.96L114.4,96.89L116.32,95.34L117.29,95.59L118.25,93.37L121.13,93.24L122.09,93.38L123.05,94.47L124.02,92.48L124.98,92.33L127.86,91.88L128.82,90.92L129.78,90.25L130.74,90.57L131.71,89.4L135.55,90.58L137.47,92.47L138.44,91.41L142.28,89.77L143.24,90.34L145.16,89.57L148.05,90.16L149.01,89.85L149.97,88.73L150.93,88.6L151.89,89.3L154.78,89.69L155.74,88.78L158.62,89.3L161.51,90.21L162.47,89.71L163.43,87.54L165.35,88.32L168.24,89.19L169.2,89.76L170.16,88.77L175.93,87.46L176.89,84.42L178.81,76.64L181.7,74.01L182.66,74.88L183.62,73.77L184.58,73.29L185.54,74.38L188.43,76.19L189.39,77.81L190.35,78.7L191.31,77.95L192.27,78.44L195.16,76.57L197.08,76.35L198.04,78.65L199,79.95L201.89,80.32L205.73,75.51L208.61,75.91L210.54,76.25L212.46,77.12L215.34,79.48L216.31,78.09L217.27,76.68L218.23,76.92L219.19,77.85L222.07,76.14L225.92,73.35L228.8,73.51L235.53,73.2L236.49,72.32L239.38,74.82L243.22,74.33L245.15,72.77L246.11,73.85L250.91,72.93L251.88,71.86L252.84,73.63L255.72,72.52L257.64,72.03L258.61,70.07L259.57,68.96L263.41,68.61L266.3,67.38L269.18,68.77L271.1,67.25L272.06,69.05L273.03,70.3L275.91,69.67L277.83,70.26L278.79,69.97L279.75,69.8L282.64,70.17L284.56,71.8L285.52,72.28L286.48,73.32L289.37,74.09L291.29,72.36L292.25,72.8L297.06,72.39L298.02,73.06L299.94,73.34L302.83,72.58L303.79,81.19L304.75,77.99L305.71,78.65L306.67,80.41L309.56,81.05L310.52,79.17L311.48,79.68L312.44,78.24L313.4,77.48L316.29,77.26L317.25,79.96L318.21,79.74L320.13,79.44L323.02,77.25L325.9,72.49L326.86,73.54L330.71,74.8L331.67,75.61L333.59,74.16L336.48,72.44L338.4,69.49L339.36,68.37L344.17,68.84L345.13,70.22L347.05,69.28L349.93,67.48L350.9,64.91L351.86,66.76L353.78,65.94L356.66,67.1L359.55,66.3L360.51,65.77L364.35,62.67L365.32,62.93L367.24,61.79L370.12,61.63L371.08,63.74L372.05,63.04L373.01,65.61L373.97,64.11L377.81,63.29L378.77,60.48L379.74,60.91L380.7,59.54L385.5,60.56L386.47,62.25L387.43,61.12L391.27,60.11L392.23,58.02L393.2,58.24L397.04,56.75L398,58.26L398.96,59.32L399.92,63.1L400.89,61.24L403.77,61.1L404.73,63.12L405.69,61.34L407.62,59.64L410.5,60.83L411.46,61.06L412.42,62.66L413.38,62.05L414.34,65.18L420.11,62.4L421.07,62L424.92,59.48L426.84,59.48L427.8,59.66L430.69,59.18L431.65,62.83L432.61,61.64L433.57,59.55L434.53,59.6L437.42,57.29L438.38,60.33L439.34,60.65L440.3,58.08L441.26,59.64L444.15,57.06L445.11,58.16L446.07,57.31L447.99,62.45L450.88,62.97L451.84,63.77L452.8,60.27L453.76,59.38L454.72,61.15L458.57,55.43L459.53,55.5L460.49,59.54L461.45,58.71L464.34,58.31L465.3,61.61L466.26,62.72L467.22,62.28L468.18,58.94L471.07,60.03L472.03,60.6L472.99,58.97L474.91,55.3L477.79,55.71L478.76,58.14L479.72,55.28L480.68,57.01L481.64,56.19L485.49,53.86L486.45,55.83L487.41,54.13L488.37,55.76L491.25,55.21L492.21,52.48L494.14,49.75L495.1,48.8L497.98,50.14L498.94,46.79L501.83,42.13L504.71,41.51L505.67,41.72L506.64,39.83L508.56,39.12L511.44,36.76L513.36,37.72L514.33,37.21L515.29,36.56L518.17,37.39L520.09,35.74L521.06,35.88L522.02,35.34L524.9,36.28L526.82,34.9L527.79,34.75L528.75,39.3L531.63,37.89L533.55,37.64L534.51,37.74L538.36,34.46L539.32,37.3L540.28,34.95L541.24,38.43L542.21,36.58L545.09,35.82L546.05,34.64L547.01,38.48L547.97,36.27L548.93,37.98L551.82,38.28L552.78,34.01L553.74,35.64L554.7,32.82L555.66,27.42L558.55,27.69L559.51,26.65L560.47,30.33L562.39,28.43L565.28,30.23L568.16,22.62L569.12,24.43L572.01,24.19L572.97,22.49L574.89,19.04L575.85,18.77L579.7,18.98L580.66,14.69L581.62,14.05L582.58,16.03L585.47,18.4L586.43,16.75L587.39,16.96L588.35,15.18L589.31,11.21L592.2,10.72L594.12,11.36L595.08,13.52L596.04,12.37L598.93,17.1L600.85,19.16L601.81,18.24L602.77,19.22L605.66,14.53L606.62,14.93L607.58,12.2L608.54,10.65L609.5,15.11L612.38,13.14L613.35,13.93L615.27,20.14L616.23,26.72L621.04,36.84L622,35.9L622.96,39.51L625.84,37.52L627.77,39.86L628.73,35.92L629.69,34.95L632.57,33.73L633.53,38.2L634.5,37.65L635.46,36.33L636.42,36.69L639.3,37.19L640.26,33.4L641.23,31.78L642.19,33.97L646.99,35.7L647.95,35.84L648.92,36.6L649.88,33.82L652.76,30.04L653.72,27.31L654.68,29.5L655.65,29L656.61,32.39L659.49,31.33L660.45,30.67L661.41,28.01L663.34,31.86L666.22,31.79L667.18,29.5L668.14,30.6L669.1,29.79L670.07,32.55L672.95,31.9L673.91,25.86L674.87,27.18L675.83,26.93L681.6,24.79L682.56,25.19L683.52,25.18L686.41,22.85L687.37,20.34L688.33,21.95L690.25,22.94L693.14,21.15L694.1,21.13L695.06,22.75L696.02,19.76L696.98,22.39L701.79,18.94L702.75,19.9L703.71,19.26L706.6,18.97L707.56,18.75L708.52,17.38L709.48,18.36L710.44,22.54L715.25,24.84L716.21,24.19L717.17,21.46L720.06,22.97L721.02,22.59L721.98,24.28L722.94,23.34L723.9,27.09L726.79,26.46L727.75,24.58L730.63,20.46L733.52,20.11L735.44,23.85L736.4,20.48L737.36,22.63L741.21,21.87L742.17,23.06L743.13,18.73L744.09,17.47L746.97,19.43L747.94,19.41L748.9,18.24L749.86,13.87L750.82,20.36L754.67,16.45L755.63,17.52L756.59,16.65L757.55,18.33L760.43,22.31L761.39,22.25L762.36,25.48L763.32,23.78L764.28,26.87L767.16,24.57L768.12,25.89L769.09,22.71L771.01,32.05L773.89,29.46L774.85,30.44L775.82,29.29L776.78,28.39L780.62,28L781.58,25.2L782.54,26.04L783.51,25.7L784.47,27.37L787.35,24.67L788.31,22.72L789.27,24.28L790.24,30.71L791.2,31.96L794.08,31.93L796,24.39L796.97,23.8L797.93,23.67L800.81,27.61L801.77,26.41L802.73,23.07L803.69,27.33L804.66,25.22L807.54,23.5L808.5,17.22L809.46,15.83L810.42,22.39L811.39,18.82L814.27,18.56L815.23,16.94L816.19,17.43L817.15,18.04L818.11,15.96L821,18.01L821.96,19.94L822.92,19.73L823.88,20.75L824.84,18.19L827.73,22.3L828.69,22.43L829.65,21.42L830.61,19.16L831.57,22.94L836.38,22.27L837.34,25.88L838.3,26.05L841.19,21.36L842.15,24.96L843.11,24.24L844.07,22.91L845.03,27.66L848.88,48.55L849.84,59.76L851.76,53.78L854.65,54.37L856.57,62.59L857.53,60.43L858.49,60.92L861.38,71.5L862.34,62.11L863.3,61.05L864.26,62.58L865.22,61.98L868.11,71.64L869.07,80.46L870.03,85.84L870.99,103.14L871.95,110.69L874.84,86.59L875.8,87.38L876.76,101.89L877.72,91.58L878.68,93.98L881.56,83.42L882.53,87.49L883.49,95.48L884.45,91.89L885.41,99.81L888.29,105.11L889.26,84.56L890.22,91.7L892.14,88.84L895.02,86.39L895.98,81.97L896.95,90.95L897.91,96.43L898.87,89.16L901.75,86.76L902.71,90.99L903.68,98.63L904.64,85.76L905.6,92.09L908.48,96.09L909.44,90.09L910.41,98.59L911.37,106.1L912.33,89.08L916.17,91.07L917.13,88.01L919.06,88.32L921.94,100.12L922.9,99.75L923.86,95.34L924.83,102.06L925.79,96.51L928.67,99.19L929.63,103.12L930.59,103.49L931.56,102.67L932.52,102.45L935.4,100.52L936.36,97.33L937.32,98.95L939.25,100.69L942.13,99.91L943.09,102.23L944.05,101.89L945.98,100.26L948.86,99.8L952.7,90.39L955.59,92.35L957.51,95.26L958.47,96.3L959.43,96.42L962.32,95.63L963.28,94.78L964.24,97.73L965.2,96.2L966.16,92.39L970.01,90.35L970.97,91.51L971.93,92.68L972.89,95.36L975.78,91.82L976.74,91.88L977.7,90.48L978.66,91.45L979.62,96.23L982.51,99.42L983.47,94.7L984.43,101.54L985.39,101.22L986.35,99.37L989.24,100.51L990.2,106.08L991.16,106.18L992.12,103.83L993.08,106.06L996.93,107.47L999.81,103.63L1002.7,109.2L1003.66,111.7L1004.62,111.09L1005.58,113.48L1006.54,113.24L1010.39,119.5L1011.35,112.94L1012.31,115.4L1013.27,114.97L1016.15,120.42L1017.12,118.15L1018.08,117.97L1019.04,116.4L1020,112.93" style="vector-effect: non-scaling-stroke; fill: none; stroke: rgb(171, 99, 250); stroke-opacity: 1; stroke-width: 2px; opacity: 1;"/></g><g class="points"/><g class="text"/></g><g class="trace scatter trace5efa58" style="stroke-miterlimit: 2; opacity: 1;"><g class="fills"/><g class="errorbars"/><g class="lines"><path class="js-line" d="M0,110.28L0.96,108.46L1.92,108.27L3.85,106.57L6.73,106.14L7.69,105.58L8.65,103.84L9.61,103.33L10.57,104.54L14.42,104.36L15.38,105.62L16.34,105.51L17.3,104.56L22.11,102.8L23.07,104.61L24.03,105.78L26.92,103.58L27.88,102.23L28.84,104.95L29.8,106.32L30.76,106.29L34.61,106.14L35.57,104.92L37.49,102.76L41.34,105.44L43.26,103.07L44.22,103.28L47.11,105.69L48.07,104.3L49.03,105.38L49.99,104.28L50.95,105.35L53.84,106.29L54.8,107.18L55.76,105.7L57.68,103.03L60.57,104.37L62.49,102.96L63.45,104.11L64.41,104.03L67.3,104.61L69.22,106.35L70.18,102.93L71.14,103.24L74.02,102.25L75.95,103.23L76.91,100.62L77.87,103.37L80.75,102.55L81.72,102.13L82.68,103.71L84.6,107.44L87.48,107.07L90.37,103.73L91.33,104.16L97.1,100.89L98.06,99.4L100.94,99.88L101.9,101.22L102.87,98.63L103.83,98.92L104.79,99.01L107.67,100.55L109.59,99.6L110.56,97.49L111.52,96.59L114.4,96.53L116.32,95.02L117.29,95.3L118.25,93.03L121.13,92.92L122.09,93.01L123.05,94.05L124.02,91.99L124.98,91.88L127.86,91.48L128.82,90.51L129.78,89.81L130.74,90.16L131.71,89L135.55,90.28L137.47,92.16L138.44,91.08L142.28,89.57L143.24,90.16L145.16,89.34L148.05,89.91L149.01,89.63L149.97,88.53L150.93,88.31L151.89,88.94L154.78,89.49L155.74,88.62L158.62,89.06L161.51,89.93L162.47,89.53L163.43,87.38L165.35,88.13L168.24,89L169.2,89.61L170.16,88.69L175.93,87.38L176.89,84.33L178.81,76.36L181.7,73.84L182.66,74.64L183.62,73.51L184.58,72.95L185.54,73.89L188.43,75.69L189.39,77.32L190.35,78.17L191.31,77.36L192.27,77.88L195.16,76.01L197.08,75.88L198.04,78.16L199,79.4L201.89,79.72L205.73,75.03L208.61,75.44L212.46,76.67L215.34,79.03L217.27,76.09L218.23,76.32L219.19,77.27L222.07,75.51L225.92,72.85L228.8,72.98L235.53,72.79L236.49,71.84L239.38,74.4L243.22,73.88L245.15,72.2L246.11,73.3L250.91,72.41L251.88,71.33L252.84,73.13L255.72,72.09L257.64,71.5L258.61,69.54L259.57,68.47L263.41,68.16L266.3,66.64L269.18,68.06L271.1,66.64L272.06,68.52L273.03,69.71L275.91,69.17L277.83,69.76L278.79,69.51L282.64,69.79L283.6,70.91L289.37,73.46L290.33,71.94L293.21,71.83L297.06,71.75L298.98,72.52L299.94,72.59L302.83,71.78L303.79,80.5L304.75,77.26L305.71,77.97L306.67,79.76L309.56,80.5L310.52,78.58L311.48,79.13L313.4,76.76L316.29,76.56L317.25,79.39L318.21,79.17L320.13,78.74L323.02,76.62L325.9,72.11L326.86,73.09L330.71,74.38L331.67,75.11L333.59,73.62L336.48,71.91L338.4,68.87L339.36,67.78L344.17,68.09L345.13,69.44L347.05,68.44L349.93,66.62L350.9,64.03L351.86,65.86L353.78,65.06L356.66,66.21L359.55,65.49L360.51,65.11L367.24,61.11L370.12,60.83L371.08,62.89L372.05,62.23L373.01,64.82L373.97,63.34L377.81,62.4L378.77,59.57L379.74,60.02L380.7,58.61L385.5,59.63L386.47,61.33L387.43,60.25L391.27,59.19L392.23,57.2L393.2,57.46L397.04,56.03L398,57.48L398.96,58.53L399.92,62.31L400.89,60.48L403.77,60.33L404.73,62.27L405.69,60.57L407.62,58.86L410.5,60.13L411.46,60.51L412.42,62.17L413.38,61.55L414.34,64.7L424.92,58.92L426.84,58.85L427.8,59.05L430.69,58.46L431.65,62.28L432.61,61.06L433.57,58.79L434.53,58.8L437.42,56.6L438.38,59.67L439.34,59.98L440.3,57.59L441.26,59.12L444.15,56.65L445.11,57.92L446.07,57.16L447.99,62.61L450.88,63.03L451.84,63.71L452.8,60.27L453.76,59.42L454.72,61.28L458.57,55.51L459.53,55.49L460.49,59.5L461.45,58.7L464.34,58.4L465.3,61.62L466.26,62.73L467.22,62.34L468.18,58.95L471.07,59.87L472.03,60.43L472.99,58.74L474.91,55.07L477.79,55.42L478.76,57.94L479.72,55.11L480.68,56.78L481.64,56.02L485.49,53.69L486.45,55.66L487.41,54.03L488.37,55.76L491.25,55.31L492.21,52.52L494.14,49.73L495.1,48.72L497.98,50.02L498.94,46.71L499.91,44.52L500.87,44.23L501.83,42.12L504.71,41.45L505.67,41.66L506.64,39.66L508.56,39.03L511.44,36.6L513.36,37.52L514.33,37.02L515.29,36.36L518.17,37.23L520.09,35.48L521.06,35.58L522.02,34.89L524.9,35.87L526.82,34.51L527.79,34.38L528.75,38.73L531.63,37.37L533.55,36.97L534.51,37.03L538.36,33.51L539.32,36.55L540.28,34.28L541.24,37.89L542.21,36.13L545.09,35.33L546.05,33.94L547.01,37.91L547.97,35.55L548.93,37.03L551.82,37.36L552.78,33.27L553.74,34.73L554.7,32.12L555.66,26.76L558.55,26.91L559.51,25.81L560.47,29.71L562.39,27.79L565.28,29.61L568.16,21.88L569.12,23.5L572.01,23.2L572.97,21.48L574.89,18.04L575.85,17.67L579.7,18.1L580.66,14L581.62,13.3L582.58,15.41L585.47,17.98L586.43,16.3L587.39,16.45L588.35,14.78L589.31,10.88L592.2,10.36L594.12,11.06L595.08,13.26L596.04,12.2L598.93,16.83L600.85,18.99L601.81,18.09L602.77,19.17L605.66,14.42L606.62,14.63L607.58,11.85L608.54,10.35L609.5,14.87L612.38,12.89L613.35,13.73L615.27,20.22L616.23,27.05L621.04,37.21L622,36.06L622.96,39.67L625.84,37.77L627.77,40.19L628.73,36.33L629.69,35.28L632.57,34.09L633.53,38.57L634.5,38.05L635.46,36.69L636.42,37.02L639.3,37.85L640.26,34.09L641.23,32.56L642.19,34.65L646.99,36.21L647.95,36.29L648.92,37.05L649.88,34.19L652.76,30.41L653.72,27.71L654.68,29.91L655.65,29.58L656.61,33.12L659.49,32.03L660.45,31.38L661.41,28.76L663.34,32.75L666.22,32.7L667.18,30.35L668.14,31.66L669.1,30.89L670.07,33.75L672.95,33.34L673.91,27.3L674.87,28.84L675.83,28.64L681.6,26.4L682.56,26.78L683.52,26.77L686.41,24.64L687.37,22.05L688.33,23.51L690.25,24.23L693.14,22.5L694.1,22.57L695.06,24.28L696.02,21.4L696.98,23.38L701.79,20.11L702.75,21.06L703.71,20.5L706.6,20.17L707.56,20.14L708.52,18.89L709.48,19.75L710.44,23.71L715.25,26.03L716.21,25.3L717.17,22.54L720.06,24L721.02,23.5L721.98,25.42L722.94,24.41L723.9,28.29L726.79,27.59L727.75,25.62L730.63,21.33L733.52,20.95L735.44,24.82L736.4,21.45L737.36,23.68L741.21,23.03L742.17,24.33L743.13,20.08L744.09,18.85L746.97,20.8L747.94,20.95L748.9,19.78L749.86,15.33L750.82,21.78L754.67,17.76L755.63,19.02L756.59,18.15L757.55,19.63L761.39,23.72L762.36,26.92L763.32,25.12L764.28,28.34L767.16,26.21L768.12,27.52L769.09,24.4L770.05,29.41L771.01,33.7L773.89,31.15L774.85,32.08L775.82,30.93L776.78,29.99L780.62,29.66L781.58,26.88L782.54,27.73L783.51,27.58L784.47,29.38L787.35,26.71L788.31,24.76L789.27,26.23L790.24,32.5L791.2,33.72L794.08,33.7L796,26.3L796.97,25.95L797.93,25.82L800.81,29.72L801.77,28.29L802.73,24.98L803.69,29.21L804.66,27.09L807.54,25.42L808.5,19.03L809.46,17.86L810.42,24.59L811.39,20.9L814.27,20.46L815.23,19.01L816.19,19.44L817.15,20.02L818.11,17.95L821,20.04L821.96,21.98L822.92,21.73L823.88,22.83L824.84,20.35L827.73,24.45L828.69,24.48L829.65,23.47L830.61,21.16L831.57,24.82L836.38,23.89L837.34,27.63L838.3,27.65L841.19,23.1L842.15,26.85L843.11,26.24L844.07,24.87L845.03,29.86L848.88,52.21L849.84,63.96L851.76,57.59L854.65,58.05L856.57,66.39L857.53,64.61L858.49,65.06L861.38,75.86L862.34,66.32L863.3,64.75L864.26,65.91L865.22,65.39L868.11,74.89L869.07,83.54L870.03,89.2L870.99,106.86L871.95,114.83L874.84,90.81L875.8,91.56L876.76,106.16L877.72,95.99L878.68,98.43L881.56,87.8L882.53,91.99L883.49,99.88L884.45,96.24L885.41,104.16L888.29,109.46L889.26,88.96L890.22,96.35L892.14,93.35L895.02,90.79L895.98,86.51L896.95,95.45L897.91,100.92L898.87,93.59L901.75,90.99L902.71,95.33L903.68,102.79L904.64,90.25L905.6,96.3L908.48,100.42L909.44,94.54L910.41,102.97L911.37,110.69L912.33,93.81L916.17,95.89L917.13,92.77L919.06,93.2L921.94,104.76L922.9,104.5L923.86,100.23L924.83,106.97L925.79,101.49L928.67,104.16L929.63,107.9L930.59,108.33L931.56,107.29L932.52,106.96L935.4,105.08L936.36,102.08L937.32,103.63L938.28,104.05L939.25,105.32L942.13,104.53L943.09,106.86L944.05,106.58L945.98,104.9L948.86,104.94L949.82,102.23L952.7,96.01L955.59,97.92L957.51,100.52L958.47,101.38L959.43,101.45L962.32,100.73L963.28,99.79L964.24,102.67L965.2,101.12L966.16,97.47L970.01,95.49L970.97,96.65L972.89,100.17L975.78,97.08L976.74,97L977.7,95.59L978.66,96.56L979.62,101.33L982.51,104.3L983.47,99.7L984.43,106.46L985.39,106.02L986.35,104.36L989.24,106.01L990.2,111.45L991.16,111.7L992.12,109.42L993.08,111.75L996.93,113.5L997.89,112.48L999.81,110.12L1002.7,115.54L1003.66,117.91L1004.62,117.24L1005.58,119.6L1006.54,119.72L1010.39,125.2L1011.35,118.68L1012.31,121.74L1013.27,121.21L1016.15,126.81L1017.12,124.78L1018.08,124.85L1019.04,123.47L1020,119.63" style="vector-effect: non-scaling-stroke; fill: none; stroke: rgb(255, 161, 90); stroke-opacity: 1; stroke-width: 2px; opacity: 1;"/></g><g class="points"/><g class="text"/></g><g class="trace scatter traceebb154" style="stroke-miterlimit: 2; opacity: 1;"><g class="fills"/><g class="errorbars"/><g class="lines"><path class="js-line" d="M0,110.28L1.92,108.01L2.88,107.06L3.85,106.29L6.73,106.25L7.69,106.3L8.65,104.8L9.61,104.98L10.57,106L14.42,104.94L15.38,105.92L16.34,105.85L17.3,104.42L22.11,102.61L23.07,103.73L24.03,105L26.92,102.37L27.88,101.23L28.84,103.28L30.76,104.56L33.65,104.38L34.61,104.26L35.57,103.05L37.49,101.37L41.34,104.18L43.26,102.2L44.22,102.51L47.11,105.11L48.07,103.63L49.03,104.33L49.99,103.23L50.95,104.03L53.84,105.06L54.8,105.92L55.76,104.55L57.68,101.98L60.57,103.19L62.49,102.15L63.45,103.57L67.3,104.52L68.26,106.27L69.22,106.89L70.18,104.15L71.14,104.42L74.02,103.58L75.95,104.36L76.91,102.04L77.87,104.16L80.75,102.9L81.72,102.76L82.68,104.18L84.6,108.5L87.48,108.03L90.37,104.64L91.33,104.77L98.06,101.14L100.94,101.93L101.9,102.69L102.87,100.51L104.79,100.58L107.67,101.75L108.63,101.38L109.59,101.94L111.52,100.27L114.4,99.93L116.32,97.59L117.29,98.06L118.25,96.47L121.13,96.79L122.09,96.66L123.05,97.59L124.02,96.09L124.98,96.16L127.86,95.86L128.82,94.79L131.71,93.46L135.55,94.44L137.47,96.68L138.44,95.85L143.24,94.5L144.2,94.59L145.16,94.1L148.05,94.23L149.01,94.16L149.97,93.33L151.89,94.4L154.78,93.96L156.7,93.03L157.66,93.23L158.62,93.75L161.51,94L162.47,93.44L163.43,91.19L168.24,92.43L169.2,93.51L171.12,93.3L172.08,93.1L175.93,92.31L176.89,89.15L178.81,83.13L181.7,80.02L182.66,80.79L183.62,80.07L188.43,82.99L189.39,84.22L190.35,84.85L191.31,84L192.27,84.53L195.16,83L196.12,81.99L197.08,82.43L199,85.56L201.89,86.07L203.81,84.77L204.77,82.85L205.73,81.18L208.61,82L210.54,81.69L212.46,82.8L215.34,84.82L216.31,83.92L217.27,82.66L218.23,82.96L219.19,83.52L222.07,82.4L224.96,78.57L225.92,78.19L230.73,79.31L231.69,78.42L232.65,77.53L235.53,76.91L236.49,76.23L237.46,76.55L239.38,78.61L243.22,78.13L245.15,76.82L246.11,77.72L251.88,75.85L252.84,77.55L257.64,76.48L258.61,75.06L259.57,74.6L263.41,74.24L265.33,72.6L266.3,73.17L269.18,75.25L270.14,74.99L271.1,74.43L272.06,75.99L273.03,76.77L275.91,76.59L276.87,77.01L277.83,76.08L279.75,75.34L282.64,76.01L286.48,78.69L289.37,78.83L291.29,77.61L292.25,77.66L293.21,77.9L297.06,77.63L299.94,79.38L302.83,78.61L303.79,85.88L304.75,84.12L305.71,84.37L306.67,86.21L309.56,86.36L310.52,84.66L311.48,84.84L312.44,83.92L313.4,82.75L316.29,82.18L317.25,84.86L318.21,84.85L323.02,82.45L323.98,80.99L325.9,78.23L326.86,79.22L330.71,80.35L331.67,80.88L333.59,80.11L336.48,78.63L338.4,75.42L339.36,74.65L344.17,74.86L345.13,76.1L347.05,74.82L349.93,73.26L350.9,70.02L351.86,71.24L353.78,70.52L356.66,71.72L359.55,70.38L360.51,69.35L364.35,66.43L365.32,67.02L370.12,66.01L371.08,68.2L372.05,67.36L373.01,70.26L373.97,69.2L376.85,68.73L377.81,69.08L378.77,65.95L379.74,66.62L380.7,65.14L386.47,67.49L387.43,66.07L391.27,65.44L392.23,62.93L394.16,62.98L397.04,62.2L398.96,64.78L399.92,68.46L400.89,66.46L403.77,66.49L404.73,68.57L405.69,66.34L407.62,65.34L410.5,66.17L411.46,66.22L412.42,67.13L413.38,66.39L414.34,69.63L424.92,65.04L426.84,64.71L430.69,64.29L431.65,66.75L434.53,63.15L437.42,60.6L438.38,63.71L439.34,63.82L440.3,61.69L441.26,63.32L444.15,61.08L445.11,62.16L446.07,60.88L447.03,63.92L447.99,67.27L450.88,67.24L451.84,68.07L452.8,64.82L453.76,63.51L454.72,65.44L458.57,59.6L459.53,58.73L460.49,62.57L461.45,62.91L464.34,62.59L465.3,65.32L467.22,66.97L468.18,63.6L471.07,64.28L472.03,65.38L474.91,61.22L477.79,61.35L478.76,63.97L479.72,61.6L480.68,63.25L481.64,62.22L485.49,61L486.45,63.06L487.41,61.08L488.37,62.09L491.25,61.65L492.21,58.6L495.1,54.23L497.98,56.27L499.91,50.59L500.87,50.61L501.83,48.62L504.71,48.11L505.67,47.9L506.64,46.19L511.44,42.83L512.4,43.23L513.36,44.03L514.33,43.56L515.29,43.11L518.17,43.97L520.09,43.62L521.06,43.96L522.02,43.57L524.9,45.13L526.82,44.65L527.79,44.02L528.75,48.51L531.63,47.2L534.51,46.46L535.48,45.09L538.36,42.98L539.32,44.99L540.28,43.36L541.24,46.75L542.21,45.48L545.09,46.11L546.05,45.98L547.01,49.64L547.97,47.42L548.93,49.2L551.82,49.32L552.78,45.21L553.74,46.02L554.7,44.31L555.66,40.43L558.55,41.47L559.51,41.25L560.47,43.83L562.39,42.26L565.28,43.31L568.16,37.17L569.12,39.62L572.01,39.91L572.97,38.59L574.89,35.73L575.85,35.2L578.74,34.79L579.7,35.61L581.62,32.66L582.58,34.16L585.47,36.6L586.43,35.73L587.39,35.76L588.35,34.69L589.31,31.27L592.2,30.87L594.12,31.86L595.08,33.69L596.04,33L598.93,37.35L600.85,39.15L601.81,37.56L602.77,38L605.66,34.17L606.62,34.57L607.58,31.36L608.54,29.84L609.5,32.82L612.38,30.89L613.35,33.22L615.27,38.75L616.23,44L621.04,53.64L622,52.32L622.96,55.38L625.84,53.23L627.77,56.21L628.73,52.03L629.69,50.41L632.57,49.54L633.53,54.1L634.5,54.01L636.42,53.72L639.3,53.43L640.26,49.74L641.23,49.16L643.15,51.8L646.99,51.92L647.95,52.44L648.92,53.9L649.88,51.82L652.76,48.51L653.72,46.3L654.68,47.17L655.65,47L656.61,50.66L660.45,49.31L661.41,46.63L663.34,52.06L666.22,53.14L667.18,50.36L668.14,50.34L669.1,49.52L670.07,52.09L672.95,53.87L673.91,47L674.87,48.13L675.83,46.93L682.56,44.86L683.52,45.55L686.41,43.5L687.37,40.78L688.33,42.67L689.29,42.73L690.25,42.82L693.14,41.43L695.06,41.66L696.02,39.17L696.98,43.08L699.87,41.23L701.79,41.12L702.75,42.21L703.71,40.21L706.6,40.03L709.48,38.78L710.44,42.11L713.33,43.72L714.29,45.16L715.25,46.12L716.21,45.64L717.17,43.33L720.06,44.78L721.02,45.08L721.98,47.98L722.94,47.78L723.9,51.12L726.79,50.43L727.75,48.93L729.67,47.41L730.63,46.74L733.52,45.82L734.48,47.48L735.44,49.9L736.4,46.54L737.36,47.99L741.21,47.11L742.17,48.75L743.13,44.93L744.09,44.18L746.97,46L748.9,46.38L749.86,44.12L750.82,50.34L753.7,47.92L754.67,44.94L755.63,46.42L756.59,45.36L757.55,47.85L760.43,51.16L761.39,50.98L762.36,54.32L763.32,53.1L764.28,55.33L767.16,54.66L768.12,55.63L769.09,53.59L771.01,62.89L773.89,61.1L775.82,62.57L776.78,61.7L780.62,60.88L781.58,57.87L784.47,60.36L787.35,58.33L789.27,56.26L790.24,62.43L791.2,61.86L794.08,61.55L796,53.08L796.97,54.28L797.93,54.07L800.81,58.36L802.73,55.26L803.69,57.56L804.66,55.13L807.54,52.93L809.46,44.85L810.42,50.85L811.39,46.18L814.27,46.64L815.23,45.37L816.19,46.1L817.15,47.12L818.11,45.42L823.88,50.25L824.84,47.46L828.69,51.48L829.65,50.56L830.61,49.14L831.57,52.85L836.38,52.22L837.34,55.52L838.3,55.31L841.19,50.02L842.15,52.59L843.11,52.35L844.07,51.37L845.03,54.82L848.88,68.24L849.84,77.3L851.76,70.95L854.65,71.35L856.57,79.08L857.53,76.18L858.49,76.95L861.38,84.7L862.34,76.06L863.3,75.07L868.11,90.71L869.07,99.31L870.03,104.7L870.99,121.1L871.95,126.76L874.84,105.2L875.8,105.44L876.76,116.87L877.72,108.23L878.68,112.38L881.56,104.3L882.53,108.46L883.49,115.11L884.45,114.19L885.41,121.83L888.29,126.52L889.26,108.62L890.22,113.96L892.14,112.73L895.02,110L895.98,106.02L896.95,114.61L897.91,120.26L898.87,113.54L901.75,112.73L902.71,117.24L903.68,124.08L904.64,113.95L905.6,119.4L908.48,122.78L909.44,119.93L910.41,130.76L911.37,139.99L912.33,130.05L915.21,125.17L916.17,126.06L917.13,122.51L919.06,118.6L921.94,129.95L922.9,128.39L923.86,123.94L924.83,130.45L925.79,125.99L928.67,126.87L929.63,129.96L930.59,128.68L932.52,129.86L935.4,127.38L936.36,122.93L937.32,125.6L938.28,126.26L939.25,127.88L942.13,127.66L943.09,129.5L945.98,127.8L948.86,128.63L952.7,119.57L955.59,120.5L957.51,122.94L958.47,123.16L962.32,126.27L963.28,125.94L964.24,132.86L965.2,133.25L966.16,131.06L970.01,132.01L970.97,131.26L971.93,133.68L972.89,136.62L975.78,134.34L976.74,133.41L977.7,130.95L978.66,132.35L979.62,137.37L982.51,140.35L983.47,136.64L984.43,140.68L985.39,140.78L986.35,138.91L989.24,138.94L990.2,145.26L991.16,143.65L992.12,140.73L993.08,142.09L997.89,144.58L998.85,144.14L999.81,148.85L1002.7,151.8L1003.66,150.81L1004.62,152.36L1005.58,155.81L1006.54,162.86L1010.39,172.05L1011.35,167.84L1012.31,170.15L1013.27,167.91L1016.15,170.81L1017.12,166.29L1018.08,165.38L1019.04,163.15L1020,160.06" style="vector-effect: non-scaling-stroke; fill: none; stroke: rgb(25, 211, 243); stroke-opacity: 1; stroke-width: 2px; opacity: 1;"/></g><g class="points"/><g class="text"/></g><g class="trace scatter trace31b5ad" style="stroke-miterlimit: 2; opacity: 1;"><g class="fills"/><g class="errorbars"/><g class="lines"><path class="js-line" d="M0,110.28L1.92,107.78L2.88,106.86L3.85,105.9L6.73,105.81L7.69,105.9L8.65,104.48L9.61,104.65L10.57,105.95L13.46,105.75L14.42,104.92L15.38,106.06L16.34,105.94L17.3,104.54L20.19,103.44L22.11,102.52L23.07,103.83L24.03,105.19L26.92,102.75L27.88,101.97L28.84,104.18L30.76,105.54L33.65,105.41L34.61,105.38L35.57,104.2L37.49,102.53L41.34,105.2L43.26,103.31L44.22,103.42L47.11,106.2L48.07,104.98L49.03,106.12L49.99,105.04L50.95,106.1L53.84,107.43L54.8,108.59L55.76,106.91L57.68,104.17L60.57,105.56L61.53,105.53L62.49,104.72L63.45,106.02L64.41,105.95L67.3,106.54L68.26,108.23L69.22,108.66L70.18,105.87L71.14,106.17L74.02,105.3L75.95,106.12L76.91,103.87L77.87,106.43L80.75,105.51L81.72,105.17L82.68,106.71L84.6,110.68L87.48,110.67L90.37,107.8L91.33,107.9L98.06,103.96L100.94,104.55L101.9,105.3L102.87,103.26L109.59,104.79L110.56,103.48L111.52,103.07L114.4,102.93L116.32,100.48L117.29,100.78L118.25,98.96L121.13,99.15L122.09,99.15L123.05,100.23L124.02,98.75L124.98,98.73L127.86,98.62L128.82,97.69L131.71,96.45L135.55,97.18L137.47,99.72L138.44,99.24L145.16,97.3L148.05,97.35L149.01,97.5L149.97,96.88L151.89,98.03L154.78,97.54L156.7,96.39L157.66,96.61L158.62,97.03L161.51,97.47L162.47,97.09L163.43,94.68L165.35,94.76L168.24,95.69L169.2,96.51L170.16,96.12L172.08,95.84L174.97,95.24L175.93,95.23L176.89,92.22L178.81,86.5L181.7,83.88L182.66,84.46L183.62,83.6L188.43,86.11L189.39,87.33L190.35,87.95L191.31,87.14L192.27,87.33L195.16,85.69L197.08,84.82L198.04,86.79L199,87.61L201.89,88.18L203.81,86.74L204.77,84.88L205.73,83.26L208.61,83.96L210.54,83.85L212.46,84.98L215.34,86.83L216.31,85.79L217.27,84.45L218.23,84.5L219.19,84.91L222.07,83.93L224.96,80.62L225.92,80.3L230.73,81.22L231.69,80.31L232.65,79.78L235.53,79.52L236.49,78.63L237.46,78.98L239.38,81.19L243.22,80.82L245.15,79.47L246.11,80.48L251.88,79.44L252.84,81L256.68,79.71L257.64,80.13L259.57,77.6L263.41,77.36L265.33,75.82L266.3,76.02L269.18,78.19L270.14,77.68L271.1,77L272.06,78.76L273.03,79.56L275.91,79.4L276.87,79.8L277.83,78.95L279.75,78.02L282.64,78.75L286.48,81.43L289.37,81.8L291.29,80.46L292.25,80.51L293.21,80.86L297.06,80.92L299.94,82.26L302.83,81.63L303.79,89L304.75,87.07L305.71,87.35L306.67,89.34L309.56,89.5L310.52,87.67L311.48,87.61L312.44,86.64L313.4,85.68L316.29,85.22L317.25,87.84L318.21,87.51L323.02,85.03L323.98,83.74L325.9,80.66L326.86,81.71L329.75,81.98L330.71,82.91L331.67,83.5L332.63,82.82L333.59,82.83L336.48,81.47L338.4,78.23L339.36,77.56L344.17,77.64L345.13,78.94L347.05,77.73L349.93,76.09L350.9,73.03L351.86,74.39L353.78,73.53L356.66,74.58L359.55,73.3L360.51,72.16L364.35,69.17L365.32,69.88L367.24,69.15L370.12,69.21L371.08,71.23L372.05,70.35L373.01,73.19L373.97,71.97L377.81,72.04L378.77,68.86L379.74,69.2L380.7,67.87L385.5,69.36L386.47,70.45L387.43,69.07L391.27,68.43L392.23,65.85L393.2,66.17L397.04,65.26L398,66.57L398.96,68.04L399.92,71.88L400.89,69.94L403.77,70.02L404.73,72.03L405.69,69.69L407.62,68.17L410.5,68.97L412.42,69.97L413.38,68.99L414.34,72.13L417.23,71.03L420.11,69.57L421.07,69.56L426.84,67.28L427.8,67.16L430.69,66.81L431.65,69.08L433.57,66L434.53,66.06L437.42,63.87L438.38,66.53L439.34,66.53L440.3,64.35L441.26,65.79L444.15,63.75L445.11,65.31L446.07,64.15L447.99,70.33L450.88,70.06L451.84,71.33L452.8,68.02L453.76,66.6L454.72,68.89L458.57,63.42L459.53,62.87L460.49,66.93L461.45,66.52L464.34,66.4L465.3,69.26L467.22,70.88L468.18,67.3L471.07,67.92L472.03,69.15L474.91,64.61L477.79,64.76L478.76,67.29L479.72,64.58L480.68,66.07L481.64,64.84L485.49,63.49L486.45,65.39L487.41,63.77L488.37,65.04L491.25,64.71L492.21,61.72L494.14,59.16L495.1,57.81L497.98,59.78L498.94,56.13L499.91,54.24L500.87,54.46L501.83,52.51L504.71,52.06L505.67,51.82L506.64,50.37L508.56,49.53L511.44,47.23L513.36,48.5L514.33,48.11L515.29,47.53L518.17,48.47L520.09,47.9L521.06,48.39L522.02,47.81L524.9,49.14L525.86,48.53L526.82,49.01L527.79,48.45L528.75,53.73L534.51,51.97L535.48,50.59L538.36,48.66L539.32,50.73L540.28,48.79L541.24,52.06L542.21,50.6L545.09,51.11L546.05,50.7L547.01,54.63L547.97,52.47L548.93,54.63L551.82,55.21L552.78,51.25L553.74,52.39L554.7,50.36L555.66,46.41L558.55,47.44L559.51,46.84L560.47,49.38L562.39,47.59L565.28,49.08L568.16,43.34L569.12,45.37L572.01,45.5L572.97,44.4L574.89,40.95L575.85,40.68L578.74,40.43L579.7,41.71L581.62,38.15L582.58,39.84L585.47,42.1L586.43,41.1L587.39,41.19L588.35,39.84L589.31,36.48L592.2,35.98L594.12,36.88L595.08,38.7L596.04,38.02L598.93,41.95L600.85,43.51L601.81,42.22L602.77,43.05L605.66,39.55L606.62,40.23L607.58,37.37L608.54,36.35L609.5,39.55L612.38,37.38L613.35,39.38L615.27,45.36L616.23,50.34L621.04,59.15L622,57.41L622.96,60.28L625.84,57.7L627.77,60.63L628.73,56.38L629.69,55.01L632.57,54.02L633.53,58.89L634.5,58.66L636.42,58.18L639.3,57.99L641.23,53.9L642.19,56.08L643.15,56.81L646.99,56.48L647.95,56.71L648.92,58.39L649.88,56.4L652.76,52.87L653.72,50.64L654.68,51.67L655.65,51.66L656.61,55.49L660.45,54.23L661.41,51.45L663.34,56.9L666.22,58.07L667.18,54.81L668.14,55.16L669.1,54.16L670.07,56.85L672.95,58.91L673.91,51.8L674.87,53.48L675.83,52.98L682.56,50.76L683.52,51.64L686.41,48.92L687.37,45.97L689.29,47.99L690.25,47.98L694.1,46.6L695.06,46.78L696.02,44.01L696.98,47.57L701.79,45.33L702.75,46.16L703.71,43.68L706.6,43.41L707.56,43.35L708.52,42.53L709.48,42.83L710.44,46.14L714.29,49.45L715.25,50.41L716.21,50.04L717.17,47.34L721.02,48.6L721.98,51.65L722.94,51.36L723.9,54.48L726.79,53.97L727.75,52.21L730.63,49.56L733.52,48.79L735.44,52.79L736.4,49.71L737.36,51.44L741.21,50.64L742.17,52.24L743.13,48.61L744.09,47.75L746.97,49.53L748.9,49.56L749.86,47.18L750.82,53.65L753.7,51.36L754.67,48.82L755.63,49.83L756.59,48.33L757.55,50.36L760.43,53.4L761.39,53.02L762.36,56.12L763.32,54.93L764.28,57.18L767.16,56.25L768.12,57.59L769.09,55.96L771.01,65.07L773.89,63.52L775.82,65.29L776.78,64.54L780.62,64.13L781.58,61.57L784.47,64.15L787.35,62.25L789.27,60.7L790.24,66.52L794.08,65.51L795.04,59.56L796,57.57L796.97,58.77L797.93,58.33L800.81,62.48L801.77,61.6L802.73,59.32L803.69,62.16L804.66,59.66L807.54,58.38L808.5,52.59L809.46,50.39L810.42,55.81L811.39,51.3L814.27,51.31L815.23,49.86L816.19,50.53L817.15,51.5L818.11,49.92L822.92,53.95L823.88,54.27L824.84,51.55L827.73,54.98L828.69,55.23L829.65,54.32L830.61,52.78L831.57,56.34L836.38,55.89L837.34,59.37L838.3,59.69L841.19,54.73L842.15,58.18L843.11,57.45L844.07,56.6L845.03,59.25L848.88,72.76L849.84,81.24L851.76,74.24L854.65,74.84L856.57,82.56L857.53,79.94L858.49,80.54L861.38,89.51L862.34,80.98L863.3,79.9L868.11,95.77L869.07,104.19L870.03,109.21L870.99,125.25L871.95,132.47L874.84,109.81L875.8,109.85L876.76,122.38L877.72,114.2L878.68,117.8L881.56,109.58L882.53,113.22L883.49,119.92L884.45,118.14L885.41,125.16L888.29,130.41L889.26,112.96L890.22,117.72L892.14,115.57L895.02,113.51L895.98,109.15L896.95,118L897.91,124.17L898.87,117.84L901.75,117.45L902.71,122.08L903.68,129.31L904.64,118.83L905.6,124.33L908.48,127.65L909.44,124.02L910.41,134.41L911.37,143.73L912.33,133.44L915.21,128.42L916.17,129.99L917.13,126.15L919.06,123.1L921.94,134.85L922.9,133.84L923.86,129.54L924.83,136.13L925.79,131.86L928.67,132.63L929.63,135.3L930.59,133.91L932.52,135.02L935.4,132.56L936.36,128.14L937.32,130.7L939.25,133.42L942.13,133.64L943.09,135.5L944.05,134.99L945.98,133.74L948.86,134.49L952.7,125.48L955.59,125.49L957.51,127.69L958.47,127.52L962.32,130.86L963.28,130.23L964.24,137.08L965.2,136.96L966.16,134.6L970.01,135.66L970.97,134.39L971.93,137.55L972.89,139.86L975.78,137.74L976.74,136.89L977.7,134.4L978.66,136.23L979.62,141.1L982.51,143.98L983.47,140.57L984.43,144.44L985.39,144.34L986.35,142.4L989.24,142.71L990.2,148.74L991.16,147.57L992.12,144.94L993.08,146.04L997.89,148.9L998.85,148.22L999.81,152.51L1002.7,155.68L1003.66,154.31L1004.62,155.91L1005.58,159.3L1006.54,165.85L1010.39,174.52L1011.35,170.22L1012.31,172.82L1013.27,170.82L1016.15,173.47L1017.12,168.9L1019.04,165.76L1020,163.23" style="vector-effect: non-scaling-stroke; fill: none; stroke: rgb(255, 102, 146); stroke-opacity: 1; stroke-width: 2px; opacity: 1;"/></g><g class="points"/><g class="text"/></g><g class="trace scatter traceea2ce7" style="stroke-miterlimit: 2; opacity: 1;"><g class="fills"/><g class="errorbars"/><g class="lines"><path class="js-line" d="M0,110.28L1.92,107.77L2.88,106.87L3.85,105.91L6.73,105.83L7.69,105.93L8.65,104.48L9.61,104.63L10.57,105.91L13.46,105.73L14.42,104.89L15.38,106.03L16.34,105.93L17.3,104.54L20.19,103.4L22.11,102.47L23.07,103.79L24.03,105.14L26.92,102.7L27.88,101.9L28.84,104.11L30.76,105.49L33.65,105.36L34.61,105.33L35.57,104.17L37.49,102.49L41.34,105.15L43.26,103.24L44.22,103.35L47.11,106.12L48.07,104.9L49.03,106.03L49.99,104.95L50.95,105.99L53.84,107.31L54.8,108.47L55.76,106.77L57.68,104.02L60.57,105.41L61.53,105.38L62.49,104.57L63.45,105.9L64.41,105.82L67.3,106.44L68.26,108.14L69.22,108.58L70.18,105.76L71.14,106.05L74.02,105.18L75.95,106.01L76.91,103.8L77.87,106.38L80.75,105.46L81.72,105.08L82.68,106.64L84.6,110.61L87.48,110.56L90.37,107.73L91.33,107.84L98.06,103.88L100.94,104.47L101.9,105.22L102.87,103.15L109.59,104.7L110.56,103.37L111.52,102.96L114.4,102.8L116.32,100.36L117.29,100.66L118.25,98.89L121.13,99.08L122.09,99.09L123.05,100.16L124.02,98.66L124.98,98.64L127.86,98.5L128.82,97.55L131.71,96.29L135.55,97.02L137.47,99.57L138.44,99.06L145.16,97.17L148.05,97.22L149.01,97.36L149.97,96.74L151.89,97.86L154.78,97.32L156.7,96.15L157.66,96.37L161.51,97.25L162.47,96.84L163.43,94.46L164.39,94.4L168.24,95.5L169.2,96.29L172.08,95.57L174.97,94.96L175.93,94.94L176.89,91.91L178.81,86.15L181.7,83.5L182.66,84.07L183.62,83.26L185.54,84.73L188.43,85.8L190.35,87.65L191.31,86.84L192.27,87.04L195.16,85.39L197.08,84.53L198.04,86.53L199,87.32L201.89,87.88L203.81,86.45L204.77,84.6L205.73,82.99L208.61,83.68L210.54,83.59L212.46,84.72L215.34,86.6L216.31,85.55L217.27,84.2L218.23,84.26L219.19,84.69L222.07,83.67L224.96,80.36L225.92,80.03L230.73,80.96L231.69,80.07L232.65,79.58L235.53,79.34L236.49,78.46L237.46,78.82L239.38,81.05L243.22,80.68L245.15,79.33L246.11,80.33L251.88,79.31L252.84,80.86L256.68,79.58L257.64,80L259.57,77.46L263.41,77.21L265.33,75.69L266.3,75.84L269.18,78.01L270.14,77.51L271.1,76.81L272.06,78.58L273.03,79.4L275.91,79.22L276.87,79.62L277.83,78.76L279.75,77.81L282.64,78.54L286.48,81.22L289.37,81.6L291.29,80.29L292.25,80.32L293.21,80.65L297.06,80.69L299.94,82.03L302.83,81.41L303.79,88.78L304.75,86.88L305.71,87.17L306.67,89.14L309.56,89.31L310.52,87.49L311.48,87.45L312.44,86.47L313.4,85.51L316.29,85.03L317.25,87.65L318.21,87.34L323.02,84.87L323.98,83.57L325.9,80.51L326.86,81.55L329.75,81.81L330.71,82.73L331.67,83.33L332.63,82.65L333.59,82.65L336.48,81.32L338.4,78.12L339.36,77.44L344.17,77.47L345.13,78.76L347.05,77.56L349.93,75.89L350.9,72.81L351.86,74.16L353.78,73.28L356.66,74.32L359.55,73.11L360.51,72.03L364.35,69.03L365.32,69.75L367.24,69.03L370.12,69.09L371.08,71.12L372.05,70.23L373.01,73.07L373.97,71.87L377.81,71.94L378.77,68.72L379.74,69.04L380.7,67.73L385.5,69.25L386.47,70.34L387.43,68.97L391.27,68.35L392.23,65.79L393.2,66.08L397.04,65.14L398,66.44L398.96,67.91L399.92,71.75L400.89,69.79L403.77,69.88L404.73,71.88L405.69,69.53L407.62,67.99L410.5,68.79L412.42,69.84L413.38,68.87L414.34,72.02L417.23,70.9L420.11,69.45L421.07,69.43L426.84,67.17L427.8,67.06L430.69,66.71L431.65,68.98L433.57,65.91L434.53,65.97L437.42,63.81L438.38,66.49L439.34,66.5L440.3,64.31L441.26,65.77L444.15,63.72L445.11,65.28L446.07,64.12L447.99,70.29L450.88,70.04L451.84,71.31L452.8,67.99L453.76,66.56L454.72,68.86L458.57,63.37L459.53,62.84L460.49,66.89L461.45,66.44L464.34,66.31L465.3,69.18L467.22,70.74L468.18,67.17L471.07,67.8L472.03,69.05L474.91,64.49L477.79,64.68L478.76,67.23L479.72,64.51L480.68,66.01L481.64,64.78L485.49,63.39L486.45,65.3L487.41,63.7L488.37,64.94L491.25,64.6L492.21,61.59L494.14,59.02L495.1,57.67L497.98,59.64L498.94,56L499.91,54.08L500.87,54.27L501.83,52.31L504.71,51.84L505.67,51.62L506.64,50.17L508.56,49.34L511.44,47.03L513.36,48.3L514.33,47.93L515.29,47.34L518.17,48.27L520.09,47.72L521.06,48.19L522.02,47.59L524.9,48.93L525.86,48.34L526.82,48.82L527.79,48.25L528.75,53.53L534.51,51.88L535.48,50.53L538.36,48.57L539.32,50.65L540.28,48.72L541.24,52.02L542.21,50.54L545.09,51.02L546.05,50.61L547.01,54.57L547.97,52.41L548.93,54.54L551.82,55.08L552.78,51.08L553.74,52.22L554.7,50.19L555.66,46.24L558.55,47.29L559.51,46.69L560.47,49.28L562.39,47.48L565.28,48.91L568.16,43.12L569.12,45.21L572.01,45.28L572.97,44.18L574.89,40.66L575.85,40.43L578.74,40.19L579.7,41.4L581.62,37.89L582.58,39.58L585.47,41.82L586.43,40.83L587.39,40.94L588.35,39.61L589.31,36.21L592.2,35.71L594.12,36.62L595.08,38.45L596.04,37.76L598.93,41.7L600.85,43.3L601.81,42.04L602.77,42.89L605.66,39.38L606.62,40.09L607.58,37.24L608.54,36.2L609.5,39.44L612.38,37.25L613.35,39.26L616.23,50.39L620.08,57.16L621.04,59.14L622,57.43L622.96,60.31L625.84,57.77L627.77,60.7L628.73,56.38L629.69,54.97L632.57,53.97L633.53,58.81L634.5,58.59L636.42,58.12L639.3,57.98L641.23,53.86L642.19,56.04L643.15,56.78L646.99,56.42L647.95,56.68L648.92,58.36L649.88,56.35L652.76,52.86L653.72,50.6L654.68,51.65L655.65,51.64L656.61,55.49L660.45,54.29L661.41,51.52L663.34,56.94L666.22,58.08L667.18,54.82L668.14,55.19L669.1,54.18L670.07,56.85L672.95,58.92L673.91,51.8L674.87,53.5L675.83,52.96L682.56,50.78L683.52,51.69L686.41,48.93L687.37,45.94L689.29,47.93L690.25,47.91L694.1,46.47L695.06,46.64L696.02,43.9L696.98,47.33L701.79,45.03L702.75,45.84L703.71,43.39L706.6,43.13L709.48,42.52L710.44,45.81L714.29,49.02L715.25,49.99L716.21,49.58L717.17,46.87L721.02,48.17L721.98,51.26L722.94,50.97L723.9,54.14L726.79,53.67L727.75,51.93L730.63,49.28L733.52,48.53L735.44,52.53L736.4,49.43L737.36,51.17L741.21,50.37L742.17,51.99L743.13,48.32L744.09,47.44L746.97,49.2L748.9,49.22L749.86,46.83L750.82,53.32L753.7,51L754.67,48.46L755.63,49.51L756.59,47.97L757.55,49.99L760.43,53L761.39,52.66L762.36,55.79L763.32,54.59L764.28,56.85L767.16,55.94L768.12,57.29L769.09,55.65L771.01,64.76L773.89,63.25L775.82,64.93L776.78,64.23L780.62,63.83L781.58,61.24L784.47,63.92L787.35,62.01L789.27,60.47L790.24,66.23L794.08,65.11L795.04,59.18L796,57.23L796.97,58.48L797.93,58.05L800.81,62.25L801.77,61.36L802.73,59.07L803.69,61.83L804.66,59.35L807.54,58.05L808.5,52.2L809.46,50.02L810.42,55.55L811.39,51.05L814.27,51.07L815.23,49.68L816.19,50.38L817.15,51.34L818.11,49.75L822.92,53.79L823.88,54.16L824.84,51.44L827.73,54.89L828.69,55.11L829.65,54.16L830.61,52.58L831.57,56.14L836.38,55.7L837.34,59.21L838.3,59.49L841.19,54.53L842.15,58.07L843.11,57.4L844.07,56.57L845.03,59.42L848.88,73.55L849.84,82.24L851.76,75.03L854.65,75.49L856.57,83.32L857.53,80.82L858.49,81.4L861.38,90.41L862.34,81.82L863.3,80.61L868.11,96.36L869.07,104.79L870.03,109.81L870.99,125.89L871.95,133.16L874.84,110.53L875.8,110.43L876.76,122.99L877.72,114.81L878.68,118.49L881.56,110.26L882.53,113.92L883.49,120.56L884.45,118.73L885.41,125.79L888.29,131.15L889.26,113.67L890.22,118.51L892.14,116.29L895.02,114.17L895.98,109.84L896.95,118.72L897.91,124.86L898.87,118.49L901.75,118.01L902.71,122.58L903.68,129.81L904.64,119.35L905.6,124.79L908.48,128.14L909.44,124.52L910.41,134.92L911.37,144.12L912.33,133.94L915.21,128.95L916.17,130.55L917.13,126.68L919.06,123.67L921.94,135.41L922.9,134.42L923.86,130.11L924.83,136.69L925.79,132.4L928.67,133.23L929.63,135.84L930.59,134.56L932.52,135.6L935.4,133.18L936.36,128.75L937.32,131.33L939.25,134.08L942.13,134.25L943.09,136.16L944.05,135.64L945.98,134.41L948.86,135.17L952.7,126.19L955.59,126.22L962.32,131.66L963.28,130.98L964.24,137.81L965.2,137.76L966.16,135.43L970.01,136.49L970.97,135.19L971.93,138.38L972.89,140.56L975.78,138.5L976.74,137.63L977.7,135.15L978.66,136.99L979.62,141.81L982.51,144.65L983.47,141.31L984.43,145.19L985.39,145.04L986.35,143.13L989.24,143.49L990.2,149.52L991.16,148.36L992.12,145.78L993.08,146.88L997.89,149.7L998.85,149.12L999.81,153.36L1002.7,156.48L1003.66,155.24L1004.62,156.75L1005.58,160.1L1006.54,166.71L1010.39,175.18L1011.35,170.9L1012.31,173.56L1013.27,171.59L1016.15,174.28L1017.12,169.77L1019.04,166.71L1020,164.12" style="vector-effect: non-scaling-stroke; fill: none; stroke: rgb(182, 232, 128); stroke-opacity: 1; stroke-width: 2px; opacity: 1;"/></g><g class="points"/><g class="text"/></g><g class="trace scatter traced90e12" style="stroke-miterlimit: 2; opacity: 1;"><g class="fills"/><g class="errorbars"/><g class="lines"><path class="js-line" d="M0,110.28L1.92,107.72L2.88,106.87L3.85,105.99L6.73,105.87L7.69,105.95L8.65,104.51L9.61,104.76L10.57,106.01L13.46,105.72L14.42,104.78L16.34,105.99L17.3,104.65L22.11,102.54L23.07,103.81L24.03,105.21L26.92,102.7L27.88,101.83L28.84,103.98L30.76,105.41L33.65,105.23L34.61,105.24L35.57,104.27L37.49,102.58L41.34,105.28L43.26,103.37L44.22,103.55L47.11,106.27L48.07,105.03L49.03,106.08L49.99,105L50.95,105.97L53.84,107.2L54.8,108.3L55.76,106.59L57.68,103.68L60.57,105.02L61.53,104.94L62.49,104.1L63.45,105.44L64.41,105.37L67.3,106.08L68.26,107.74L69.22,108.15L70.18,105.34L71.14,105.66L74.02,104.81L75.95,105.59L76.91,103.39L77.87,105.77L80.75,104.79L81.72,104.28L82.68,105.9L84.6,109.88L87.48,109.79L89.41,106.89L90.37,106.89L91.33,106.95L94.21,105.09L98.06,103.05L100.94,103.62L101.9,104.38L102.87,102.07L104.79,102.11L107.67,103.14L108.63,102.89L109.59,103.59L111.52,101.76L114.4,101.57L116.32,99.17L117.29,99.51L118.25,97.83L121.13,98.1L122.09,98.1L123.05,99.17L124.02,97.63L124.98,97.64L127.86,97.39L128.82,96.4L131.71,94.98L135.55,95.69L137.47,98.38L138.44,97.81L145.16,96.15L148.05,96.13L150.93,95.86L151.89,96.77L157.66,95.2L158.62,95.7L162.47,95.57L163.43,93.19L165.35,93.36L168.24,94.25L169.2,95.16L170.16,94.7L175.93,93.7L176.89,90.48L178.81,85.12L181.7,82.22L182.66,82.75L183.62,82.01L184.58,82.36L185.54,83.53L188.43,84.59L189.39,85.81L190.35,86.5L191.31,85.6L192.27,85.85L195.16,84.26L196.12,83.32L197.08,83.45L199,86.27L201.89,86.81L204.77,83.6L205.73,82.06L212.46,83.96L215.34,85.86L217.27,83.37L218.23,83.47L219.19,83.95L222.07,82.8L224.96,79.42L225.92,79.12L231.69,79.43L232.65,78.97L235.53,78.69L236.49,77.79L238.42,79.21L239.38,80.37L243.22,79.91L244.18,78.75L245.15,78.44L246.11,79.37L251.88,78.3L252.84,79.83L256.68,78.67L257.64,79.11L259.57,76.58L263.41,76.38L266.3,74.71L269.18,76.98L271.1,75.8L272.06,77.5L273.03,78.3L275.91,78.11L276.87,78.3L277.83,77.28L279.75,76.33L282.64,77.08L286.48,79.63L289.37,80.03L291.29,78.85L292.25,78.75L293.21,79.04L297.06,79.08L298.98,80.25L299.94,80.43L302.83,79.82L303.79,87.36L304.75,85.61L305.71,85.92L306.67,87.85L309.56,88.02L310.52,86.32L311.48,86.26L313.4,84.43L316.29,83.88L317.25,86.49L318.21,86.32L323.02,83.92L323.98,82.54L325.9,79.66L326.86,80.63L329.75,80.88L330.71,81.75L331.67,82.3L332.63,81.65L333.59,81.63L336.48,80.32L338.4,77.15L339.36,76.37L344.17,76.33L345.13,77.69L347.05,76.61L349.93,74.9L350.9,71.64L351.86,72.87L353.78,71.96L356.66,72.99L360.51,71.23L363.39,69.55L364.35,68.29L365.32,69.09L370.12,68.51L371.08,70.52L372.05,69.53L373.01,72.4L373.97,71.21L376.85,70.68L377.81,71.28L378.77,67.97L379.74,68.25L380.7,66.93L385.5,68.6L386.47,69.68L387.43,68.28L391.27,67.72L392.23,65.26L393.2,65.49L397.04,64.55L398,65.74L398.96,67.16L399.92,70.96L400.89,68.93L403.77,69L404.73,71L405.69,68.7L407.62,67.1L410.5,67.91L412.42,69.05L413.38,68.15L414.34,71.4L417.23,70.29L420.11,68.73L421.07,68.78L426.84,66.43L427.8,66.28L430.69,65.92L431.65,67.99L433.57,64.98L434.53,65.01L437.42,62.74L438.38,65.77L439.34,65.88L440.3,63.63L441.26,65.09L444.15,63.03L445.11,64.31L446.07,63.16L447.99,69.41L450.88,69.26L451.84,70.39L452.8,67.06L453.76,65.69L454.72,67.74L457.61,62.44L458.57,62.25L459.53,61.94L460.49,65.96L461.45,65.46L464.34,65.24L466.26,69.02L467.22,69.54L468.18,66L471.07,66.51L472.03,67.93L472.99,66.16L474.91,63.46L477.79,63.63L478.76,66.1L479.72,63.28L480.68,64.76L481.64,63.66L485.49,62.46L486.45,64.33L487.41,62.72L488.37,63.89L491.25,63.62L492.21,60.54L495.1,56.54L497.98,58.38L499.91,52.86L500.87,52.92L501.83,50.82L504.71,50.27L505.67,50.11L506.64,48.61L508.56,47.81L511.44,45.48L513.36,46.79L514.33,46.46L515.29,45.98L518.17,46.81L520.09,46.46L521.06,46.91L522.02,46.19L524.9,47.57L525.86,46.97L526.82,47.64L527.79,46.94L528.75,52.01L533.55,50.8L534.51,50.9L535.48,49.61L538.36,47.51L539.32,49.74L540.28,47.94L541.24,51.3L542.21,49.82L546.05,49.91L547.01,53.73L547.97,51.73L548.93,53.88L551.82,54.17L552.78,50.28L553.74,51.42L554.7,49.65L555.66,45.92L558.55,47.09L559.51,46.4L560.47,48.85L562.39,47.13L565.28,48.33L568.16,42.45L569.12,44.76L572.01,44.58L572.97,43.32L574.89,39.76L575.85,39.36L578.74,39.13L579.7,40.21L581.62,36.82L582.58,38.37L585.47,40.72L586.43,39.69L587.39,39.87L588.35,38.53L589.31,35.13L592.2,34.8L594.12,35.7L595.08,37.43L596.04,36.7L598.93,40.84L600.85,42.77L601.81,41.4L602.77,42.32L605.66,38.79L606.62,39.47L607.58,36.75L608.54,35.52L609.5,38.14L612.38,35.93L613.35,37.91L616.23,49.81L620.08,56.6L621.04,58.53L622,56.91L622.96,59.63L625.84,57.4L627.77,60.34L628.73,56.13L629.69,54.58L632.57,53.36L633.53,58.15L634.5,58.01L639.3,57.58L640.26,53.95L641.23,53.52L642.19,55.61L643.15,56.36L646.99,55.88L647.95,56.31L648.92,57.96L649.88,55.87L652.76,52.52L653.72,50.13L654.68,51.15L655.65,51.06L656.61,54.83L660.45,54.01L661.41,51.21L663.34,56.8L666.22,57.81L667.18,54.82L668.14,55.05L669.1,54.1L670.07,56.64L672.95,59.04L673.91,51.97L674.87,53.66L675.83,53.28L682.56,51L683.52,51.9L686.41,49.16L687.37,46.24L689.29,48.13L690.25,47.94L694.1,46.46L695.06,46.47L696.02,43.79L696.98,46.43L701.79,44.05L702.75,44.93L703.71,42.35L706.6,42.16L709.48,41.21L710.44,44.71L714.29,47.63L715.25,48.76L716.21,48.42L717.17,45.75L721.02,47.28L721.98,50.39L722.94,50.11L723.9,53.54L726.79,53.18L727.75,51.36L730.63,48.64L733.52,47.92L735.44,51.78L736.4,48.76L737.36,50.55L741.21,49.69L742.17,51.4L743.13,47.74L744.09,46.81L746.97,48.5L748.9,48.73L749.86,46.62L750.82,53.03L753.7,50.62L754.67,48.17L755.63,49.17L756.59,47.42L757.55,49.38L760.43,52.32L761.39,51.97L762.36,55.16L763.32,53.95L764.28,56.19L767.16,55.42L768.12,56.99L769.09,55.34L771.01,64.38L773.89,62.89L775.82,64.74L776.78,64.14L780.62,63.69L781.58,61.17L784.47,64.1L787.35,62.04L789.27,60.6L790.24,65.97L794.08,64.26L795.04,57.72L796,56.07L796.97,57.28L797.93,56.92L800.81,61.25L801.77,60.4L802.73,58.14L803.69,60.83L804.66,58.51L807.54,56.96L808.5,51.05L809.46,48.82L810.42,54.49L811.39,49.84L814.27,50.03L815.23,48.7L816.19,49.48L817.15,50.55L818.11,48.99L823.88,53.44L824.84,50.81L828.69,54.43L829.65,53.46L830.61,51.8L831.57,55.3L836.38,54.72L837.34,58.35L838.3,58.52L841.19,53.42L842.15,56.92L843.11,56.41L844.07,55.68L845.03,58.94L848.88,73.98L849.84,82.85L851.76,75.93L854.65,76.02L856.57,83.99L857.53,81.76L858.49,82.22L861.38,90.58L862.34,82.13L863.3,80.51L868.11,95.72L869.07,104.08L870.03,108.99L870.99,125.13L871.95,132.52L874.84,109.89L875.8,109.47L876.76,121.99L877.72,113.36L878.68,117.48L881.56,109.18L882.53,113.99L883.49,120.73L884.45,118.51L885.41,125.77L888.29,131.3L889.26,113.52L890.22,118.64L892.14,116.48L895.02,114.31L895.98,110.08L896.95,119.24L897.91,125.06L898.87,118.48L901.75,117.74L902.71,121.9L903.68,128.74L904.64,118.17L905.6,123.53L908.48,127.02L909.44,123.37L910.41,134.17L911.37,143.21L912.33,133.76L915.21,128.6L916.17,130.53L917.13,126.63L919.06,123.59L921.94,134.91L922.9,133.91L923.86,129.58L924.83,135.96L925.79,131.61L928.67,132.73L929.63,135.08L930.59,133.76L932.52,134.36L935.4,131.65L936.36,127.08L937.32,129.73L938.28,130.48L939.25,132.49L942.13,132.3L943.09,134.41L945.98,132.5L948.86,133.52L952.7,124.82L955.59,125.14L958.47,127.27L959.43,128.04L962.32,130.83L963.28,130.04L964.24,137.06L965.2,137.21L966.16,134.94L970.01,135.78L970.97,134.37L971.93,137.81L972.89,139.59L975.78,137.58L976.74,137.03L977.7,134.5L978.66,136.26L979.62,141.16L982.51,143.84L983.47,140.34L984.43,144.35L985.39,144.15L986.35,142.32L989.24,143.12L990.2,148.98L991.16,147.87L992.12,145.32L993.08,146.38L997.89,149.21L998.85,148.75L999.81,153.41L1002.7,156.15L1003.66,155.18L1004.62,156.63L1005.58,159.96L1006.54,167.35L1010.39,175.53L1011.35,171.11L1012.31,173.78L1013.27,171.75L1016.15,174.91L1017.12,170.62L1019.04,167.93L1020,164.96" style="vector-effect: non-scaling-stroke; fill: none; stroke: rgb(255, 151, 255); stroke-opacity: 1; stroke-width: 2px; opacity: 1;"/></g><g class="points"/><g class="text"/></g><g class="trace scatter tracefa8d63" style="stroke-miterlimit: 2; opacity: 1;"><g class="fills"/><g class="errorbars"/><g class="lines"><path class="js-line" d="M0,110.28L0.96,106.56L1.92,106.37L3.85,105.06L6.73,105.27L7.69,106.28L8.65,104.92L10.57,104.68L13.46,105.14L14.42,103.74L15.38,104.05L16.34,103.31L17.3,100.66L20.19,100.53L21.15,99.48L22.11,99.43L23.07,102.13L24.03,104.42L26.92,103.51L27.88,103.68L28.84,107.76L29.8,109.24L30.76,108.94L35.57,109.45L36.53,107.66L37.49,106.37L41.34,109.89L43.26,106.72L44.22,106.96L49.03,113.01L49.99,112.85L54.8,117.29L55.76,115.18L56.72,111.4L57.68,111.41L60.57,112.79L61.53,112.17L62.49,110.17L63.45,111.32L64.41,111.9L67.3,110.82L68.26,113.12L69.22,112.19L70.18,108.05L71.14,108.82L74.02,107.34L75.95,108.79L76.91,107.39L77.87,109.96L81.72,109.12L82.68,111.44L84.6,116.66L87.48,116.51L88.44,115.52L89.41,111.47L91.33,114.2L94.21,110.71L96.14,109.73L97.1,109.77L98.06,107.5L100.94,108.14L101.9,109.29L102.87,107.87L104.79,107.1L107.67,107.5L109.59,110.23L110.56,109.31L111.52,110.01L114.4,109.82L116.32,105.45L117.29,105.3L118.25,104.41L121.13,105.1L124.02,105.88L124.98,106.27L130.74,104.42L131.71,102.83L135.55,102.73L136.51,103.94L137.47,105.36L138.44,104.21L141.32,104.12L142.28,102.18L143.24,101.32L144.2,101.62L145.16,100.99L148.05,101.1L149.01,101.37L149.97,99.99L151.89,101.99L154.78,100.7L156.7,98.54L157.66,97.98L158.62,98.73L161.51,98.9L162.47,97.81L163.43,95.46L165.35,95.47L168.24,95.32L170.16,95.43L171.12,93.61L174.97,92.98L175.93,93.56L177.85,92.38L178.81,92.56L182.66,90.17L183.62,90.04L184.58,89.48L185.54,90.89L189.39,91.07L190.35,92.02L192.27,92.87L195.16,90.59L197.08,89.24L198.04,90.64L201.89,90.09L202.85,88.45L205.73,86.07L208.61,86.57L210.54,86.37L212.46,87.26L215.34,90.29L216.31,90L217.27,88.28L218.23,88.37L219.19,88.9L222.07,87.19L223.03,86.28L224,86.71L224.96,87.3L225.92,86.74L230.73,86.55L231.69,84.66L232.65,84.11L235.53,84.19L237.46,83.76L238.42,84.57L239.38,86.06L243.22,84.83L244.18,82.87L245.15,83.04L246.11,83.77L250.91,83.55L251.88,83.44L252.84,85.01L257.64,84.17L258.61,82.78L259.57,82L263.41,81.49L266.3,81.82L269.18,83.5L271.1,80.74L272.06,83.02L273.03,83.32L275.91,83.24L276.87,82.62L277.83,80.75L278.79,79.75L279.75,80.14L285.52,80.44L286.48,81.53L289.37,82.06L290.33,80.11L292.25,78.01L293.21,77.96L297.06,77.6L298.02,78.52L299.94,80.25L302.83,80.54L303.79,88.48L304.75,87.48L305.71,88.14L306.67,90.43L309.56,91.65L310.52,88.65L311.48,88.94L312.44,87.63L316.29,86.53L317.25,91.16L319.17,89.56L320.13,90.5L323.98,87.11L324.94,84.07L326.86,83.43L329.75,83.66L331.67,86.88L332.63,85.95L336.48,85.31L337.44,82.87L339.36,81.92L343.2,81.75L344.17,81.66L345.13,83.36L347.05,80.93L349.93,78.86L351.86,77.27L352.82,77.18L353.78,74.25L356.66,75.07L357.62,74.41L358.59,71.81L360.51,71.22L363.39,72.33L366.28,68.92L367.24,68.48L372.05,66.6L373.01,69.42L373.97,67.3L376.85,66.91L377.81,66.2L378.77,64.23L379.74,64.43L380.7,62.91L385.5,63.5L386.47,65.11L387.43,63.85L391.27,63.58L392.23,61.45L393.2,61.55L394.16,60.78L397.04,60.62L398.96,64.64L399.92,68.44L400.89,65.43L403.77,65.42L404.73,67.9L405.69,64.32L407.62,61.33L410.5,61.83L411.46,61.4L412.42,64.19L413.38,63.11L414.34,66.65L418.19,67.08L419.15,65.37L421.07,65.73L423.96,63.31L424.92,62.51L426.84,62.73L427.8,61.86L430.69,61.13L431.65,63.95L432.61,62.5L433.57,57.09L434.53,56.22L438.38,54.99L439.34,56.01L440.3,54.44L441.26,57.29L444.15,55.53L445.11,59.85L446.07,58.55L447.03,64.49L447.99,68.46L450.88,66.69L451.84,69.48L452.8,66.61L453.76,64.69L454.72,70.06L459.53,60.98L460.49,68.36L461.45,68.96L464.34,69.01L466.26,76.17L467.22,76.47L468.18,72.02L471.07,71.21L472.03,71.79L472.99,69.02L473.95,69.03L474.91,66.3L477.79,67.38L478.76,72.73L479.72,68.01L480.68,68.97L481.64,66.7L485.49,64.96L486.45,67.7L487.41,66.59L488.37,71.36L491.25,71.09L492.21,67.64L493.18,67.96L494.14,65.42L495.1,65.08L497.98,65.83L498.94,59.42L499.91,57.97L500.87,58.9L501.83,57.88L504.71,59.04L505.67,58.67L506.64,56.77L507.6,56.11L508.56,56.44L511.44,52.78L512.4,53.54L513.36,55.06L514.33,54.94L515.29,53.19L518.17,53.61L519.13,51.31L520.09,52.95L521.06,54.16L522.02,52.67L526.82,56.5L527.79,56.57L528.75,63.57L531.63,62.71L532.59,60.62L533.55,60.64L534.51,60.71L535.48,58.14L538.36,56.92L539.32,58.41L540.28,55.78L541.24,62.69L542.21,62.17L545.09,63.16L546.05,60.92L547.01,67.8L547.97,68.45L548.93,72.71L551.82,73.76L552.78,67.67L554.7,71.43L555.66,70.15L558.55,74.32L559.51,73.33L560.47,77.36L562.39,73.89L565.28,78.42L566.24,74.32L567.2,68L568.16,67.58L569.12,66.43L572.01,67.53L572.97,68.78L573.93,65.04L574.89,61.7L575.85,61.59L578.74,59.66L579.7,65.27L581.62,63.64L582.58,67.04L585.47,70.34L586.43,69.09L587.39,69.57L588.35,68.84L589.31,64.93L592.2,63.03L594.12,63L595.08,66.67L596.04,66.55L598.93,68.47L600.85,72.69L601.81,72.45L602.77,77.34L605.66,76.82L606.62,81.37L607.58,78.58L608.54,76.33L609.5,81.04L612.38,77.76L613.35,83.05L614.31,83.71L615.27,89.57L616.23,90.71L620.08,93.16L622,85.38L622.96,88.65L626.8,83.44L627.77,84.16L629.69,78.43L632.57,80.49L633.53,87.55L634.5,88.79L635.46,87.89L636.42,89.13L639.3,88.03L640.26,85.48L641.23,82.07L642.19,85.41L643.15,85.96L646.99,86.17L647.95,84.46L648.92,87.18L649.88,85.34L652.76,81.73L653.72,79.54L654.68,79.36L655.65,81.5L656.61,87.52L659.49,87.67L660.45,88.53L661.41,87.74L662.38,91.84L663.34,94.64L666.22,97.57L667.18,89.62L668.14,90.5L669.1,89.83L670.07,93.54L672.95,93.14L673.91,85.12L674.87,90.71L675.83,85.71L679.68,82.14L680.64,82.45L683.52,88.48L686.41,87.59L687.37,80.12L688.33,80.99L690.25,80.98L693.14,80.92L695.06,82.55L696.02,81.5L696.98,86.4L699.87,86.84L700.83,85.69L701.79,80.79L702.75,80.77L703.71,76.4L706.6,76.87L707.56,78.87L710.44,75.59L713.33,75.97L715.25,76.96L716.21,73.34L717.17,72.42L720.06,74.11L721.02,73.13L721.98,77.07L722.94,76.07L723.9,78.38L726.79,75.89L727.75,76.73L729.67,73.67L730.63,73.78L733.52,72.99L734.48,76.8L735.44,81.14L736.4,80.67L737.36,83.46L741.21,82.14L743.13,80.28L744.09,80.43L746.97,82.99L747.94,84.92L748.9,85.16L749.86,81.07L750.82,88.6L753.7,87.26L754.67,87.08L755.63,91.01L756.59,89.91L757.55,86.74L760.43,87.47L761.39,89.55L762.36,92.05L763.32,91.4L764.28,95.61L767.16,95.62L769.09,96.2L770.05,103.04L771.01,105.08L773.89,105.01L774.85,104.39L775.82,107.58L776.78,106.18L780.62,107.26L781.58,104.36L782.54,108.87L783.51,107.32L784.47,109.77L787.35,110.63L788.31,112.4L790.24,103.17L791.2,102.21L794.08,102.77L795.04,100.19L796,99.62L796.97,105.02L797.93,104.61L800.81,109.19L802.73,100.55L803.69,104.47L804.66,105.46L807.54,106.27L808.5,99.94L809.46,99.17L810.42,103.46L811.39,97.68L814.27,96.76L815.23,99.43L816.19,101.52L817.15,99.94L818.11,99.1L821,102.54L821.96,105.04L822.92,103.72L823.88,103.48L824.84,99.7L827.73,104.32L828.69,103.81L829.65,102.1L830.61,98.04L831.57,101.31L835.42,101.82L836.38,101.52L837.34,108.1L838.3,107.47L841.19,101.94L842.15,107.29L843.11,106.56L844.07,103.41L845.03,103.64L847.92,113.26L848.88,110.56L849.84,119.14L850.8,111.31L851.76,104.28L854.65,111.39L855.61,114.47L856.57,115.02L858.49,108.96L861.38,123.79L862.34,114.54L863.3,114.91L865.22,124.56L868.11,131.62L870.99,157.88L871.95,160.32L874.84,142.45L875.8,143.91L876.76,157.9L877.72,150.24L878.68,152.67L881.56,144.78L882.53,149.21L883.49,159.02L884.45,155.74L885.41,161.7L888.29,165.57L889.26,148.61L890.22,150.02L891.18,146.4L892.14,143.65L895.02,143.75L895.98,137.92L896.95,147.19L897.91,155.65L898.87,150.92L901.75,152.32L902.71,155.69L903.68,163.53L904.64,152.99L905.6,159.44L908.48,163.71L909.44,160.82L910.41,168.98L911.37,177.47L912.33,168.04L916.17,159.78L917.13,155.06L919.06,153.11L921.94,166.08L923.86,157.64L924.83,161.75L925.79,156.8L928.67,151.1L929.63,155.74L930.59,154.4L931.56,158.15L932.52,156.91L935.4,158.16L936.36,151.3L937.32,153.2L938.28,157.38L942.13,159.01L943.09,160.92L945.98,159.09L948.86,159.69L950.78,154.11L952.7,149.19L955.59,150.75L956.55,149.56L957.51,154.24L958.47,154.76L959.43,157.5L962.32,159.88L963.28,160.37L964.24,165.11L965.2,164.87L966.16,163.56L970.01,169.9L970.97,164.58L972.89,167.45L975.78,166.71L976.74,165.59L977.7,161.76L979.62,168.91L982.51,170.13L983.47,167.43L984.43,169.75L985.39,167.72L986.35,163.57L989.24,163.76L990.2,171.05L991.16,170.08L992.12,170.21L996.93,177.46L997.89,177.41L1002.7,185.82L1003.66,181.31L1006.54,186.81L1009.43,192.52L1010.39,193.24L1011.35,190.38L1012.31,195.75L1013.27,195.13L1016.15,196.65L1017.12,189.41L1018.08,189.34L1019.04,184.76L1020,183.73" style="vector-effect: non-scaling-stroke; fill: none; stroke: rgb(254, 203, 82); stroke-opacity: 1; stroke-width: 2px; opacity: 1;"/></g><g class="points"/><g class="text"/></g></g></g><g class="overplot"/><path class="xlines-above crisp" d="M0,0" style="fill: none;"/><path class="ylines-above crisp" d="M0,0" style="fill: none;"/><g class="overlines-above"/><g class="xaxislayer-above"><g class="xtick"><text text-anchor="middle" x="0" y="280" transform="translate(122.1,0)" style="font-family: 'Open Sans', verdana, arial, sans-serif; font-size: 12px; fill: rgb(42, 63, 95); fill-opacity: 1; white-space: pre; opacity: 1;">Jul 2006</text></g><g class="xtick"><text text-anchor="middle" x="0" y="280" style="font-family: 'Open Sans', verdana, arial, sans-serif; font-size: 12px; fill: rgb(42, 63, 95); fill-opacity: 1; white-space: pre; opacity: 1;" transform="translate(298.99,0)">Jan 2007</text></g><g class="xtick"><text text-anchor="middle" x="0" y="280" style="font-family: 'Open Sans', verdana, arial, sans-serif; font-size: 12px; fill: rgb(42, 63, 95); fill-opacity: 1; white-space: pre; opacity: 1;" transform="translate(473,0)">Jul 2007</text></g><g class="xtick"><text text-anchor="middle" x="0" y="280" style="font-family: 'Open Sans', verdana, arial, sans-serif; font-size: 12px; fill: rgb(42, 63, 95); fill-opacity: 1; white-space: pre; opacity: 1;" transform="translate(649.89,0)">Jan 2008</text></g><g class="xtick"><text text-anchor="middle" x="0" y="280" style="font-family: 'Open Sans', verdana, arial, sans-serif; font-size: 12px; fill: rgb(42, 63, 95); fill-opacity: 1; white-space: pre; opacity: 1;" transform="translate(824.85,0)">Jul 2008</text></g><g class="xtick"><text text-anchor="middle" x="0" y="280" style="font-family: 'Open Sans', verdana, arial, sans-serif; font-size: 12px; fill: rgb(42, 63, 95); fill-opacity: 1; white-space: pre; opacity: 1;" transform="translate(1001.74,0)">Jan 2009</text></g></g><g class="yaxislayer-above"><g class="ytick"><text text-anchor="end" x="49" y="4.199999999999999" transform="translate(0,228.93)" style="font-family: 'Open Sans', verdana, arial, sans-serif; font-size: 12px; fill: rgb(42, 63, 95); fill-opacity: 1; white-space: pre; opacity: 1;">8k</text></g><g class="ytick"><text text-anchor="end" x="49" y="4.199999999999999" style="font-family: 'Open Sans', verdana, arial, sans-serif; font-size: 12px; fill: rgb(42, 63, 95); fill-opacity: 1; white-space: pre; opacity: 1;" transform="translate(0,190.77)">10k</text></g><g class="ytick"><text text-anchor="end" x="49" y="4.199999999999999" style="font-family: 'Open Sans', verdana, arial, sans-serif; font-size: 12px; fill: rgb(42, 63, 95); fill-opacity: 1; white-space: pre; opacity: 1;" transform="translate(0,152.61)">12k</text></g><g class="ytick"><text text-anchor="end" x="49" y="4.199999999999999" style="font-family: 'Open Sans', verdana, arial, sans-serif; font-size: 12px; fill: rgb(42, 63, 95); fill-opacity: 1; white-space: pre; opacity: 1;" transform="translate(0,114.45)">14k</text></g><g class="ytick"><text text-anchor="end" x="49" y="4.199999999999999" style="font-family: 'Open Sans', verdana, arial, sans-serif; font-size: 12px; fill: rgb(42, 63, 95); fill-opacity: 1; white-space: pre; opacity: 1;" transform="translate(0,76.28999999999999)">16k</text></g></g><g class="overaxes-above"/></g></g><g class="polarlayer"/><g class="ternarylayer"/><g class="geolayer"/><g class="funnelarealayer"/><g class="pielayer"/><g class="iciclelayer"/><g class="treemaplayer"/><g class="sunburstlayer"/><g class="glimages"/><defs id="topdefs-d58a3a"><g class="clips"/><clipPath id="legendd58a3a"><rect width="136" height="200" x="0" y="0"/></clipPath></defs><g class="layer-above"><g class="imagelayer"/><g class="shapelayer"/></g><g class="infolayer"><g class="legend" pointer-events="all" transform="translate(1090.4,60)"><rect class="bg" shape-rendering="crispEdges" width="136" height="200" x="0" y="0" style="stroke: rgb(68, 68, 68); stroke-opacity: 1; fill: rgb(255, 255, 255); fill-opacity: 1; stroke-width: 0px;"/><g class="scrollbox" transform="" clip-path="url(#legendd58a3a)"><g class="groups"><g class="traces" transform="translate(0,14.5)" style="opacity: 1;"><text class="legendtext" text-anchor="start" x="40" y="4.680000000000001" style="font-family: 'Open Sans', verdana, arial, sans-serif; font-size: 12px; fill: rgb(42, 63, 95); fill-opacity: 1; white-space: pre;">Conic =0.1</text><g class="layers" style="opacity: 1;"><g class="legendfill"/><g class="legendlines"><path class="js-line" d="M5,0h30" style="fill: none; stroke: rgb(99, 110, 250); stroke-opacity: 1; stroke-width: 2px;"/></g><g class="legendsymbols"><g class="legendpoints"/></g></g><rect class="legendtoggle" x="0" y="-9.5" width="130.8186798095703" height="19" style="fill: rgb(0, 0, 0); fill-opacity: 0;"/></g><g class="traces" transform="translate(0,33.5)" style="opacity: 1;"><text class="legendtext" text-anchor="start" x="40" y="4.680000000000001" style="font-family: 'Open Sans', verdana, arial, sans-serif; font-size: 12px; fill: rgb(42, 63, 95); fill-opacity: 1; white-space: pre;">Conic =3.275</text><g class="layers" style="opacity: 1;"><g class="legendfill"/><g class="legendlines"><path class="js-line" d="M5,0h30" style="fill: none; stroke: rgb(239, 85, 59); stroke-opacity: 1; stroke-width: 2px;"/></g><g class="legendsymbols"><g class="legendpoints"/></g></g><rect class="legendtoggle" x="0" y="-9.5" width="130.8186798095703" height="19" style="fill: rgb(0, 0, 0); fill-opacity: 0;"/></g><g class="traces" transform="translate(0,52.5)" style="opacity: 1;"><text class="legendtext" text-anchor="start" x="40" y="4.680000000000001" style="font-family: 'Open Sans', verdana, arial, sans-serif; font-size: 12px; fill: rgb(42, 63, 95); fill-opacity: 1; white-space: pre;">Conic =6.45</text><g class="layers" style="opacity: 1;"><g class="legendfill"/><g class="legendlines"><path class="js-line" d="M5,0h30" style="fill: none; stroke: rgb(0, 204, 150); stroke-opacity: 1; stroke-width: 2px;"/></g><g class="legendsymbols"><g class="legendpoints"/></g></g><rect class="legendtoggle" x="0" y="-9.5" width="130.8186798095703" height="19" style="fill: rgb(0, 0, 0); fill-opacity: 0;"/></g><g class="traces" transform="translate(0,71.5)" style="opacity: 1;"><text class="legendtext" text-anchor="start" x="40" y="4.680000000000001" style="font-family: 'Open Sans', verdana, arial, sans-serif; font-size: 12px; fill: rgb(42, 63, 95); fill-opacity: 1; white-space: pre;">Conic =9.625</text><g class="layers" style="opacity: 1;"><g class="legendfill"/><g class="legendlines"><path class="js-line" d="M5,0h30" style="fill: none; stroke: rgb(171, 99, 250); stroke-opacity: 1; stroke-width: 2px;"/></g><g class="legendsymbols"><g class="legendpoints"/></g></g><rect class="legendtoggle" x="0" y="-9.5" width="130.8186798095703" height="19" style="fill: rgb(0, 0, 0); fill-opacity: 0;"/></g><g class="traces" transform="translate(0,90.5)" style="opacity: 1;"><text class="legendtext" text-anchor="start" x="40" y="4.680000000000001" style="font-family: 'Open Sans', verdana, arial, sans-serif; font-size: 12px; fill: rgb(42, 63, 95); fill-opacity: 1; white-space: pre;">Conic =12.8</text><g class="layers" style="opacity: 1;"><g class="legendfill"/><g class="legendlines"><path class="js-line" d="M5,0h30" style="fill: none; stroke: rgb(255, 161, 90); stroke-opacity: 1; stroke-width: 2px;"/></g><g class="legendsymbols"><g class="legendpoints"/></g></g><rect class="legendtoggle" x="0" y="-9.5" width="130.8186798095703" height="19" style="fill: rgb(0, 0, 0); fill-opacity: 0;"/></g><g class="traces" transform="translate(0,109.5)" style="opacity: 1;"><text class="legendtext" text-anchor="start" x="40" y="4.680000000000001" style="font-family: 'Open Sans', verdana, arial, sans-serif; font-size: 12px; fill: rgb(42, 63, 95); fill-opacity: 1; white-space: pre;">Mean-Variance</text><g class="layers" style="opacity: 1;"><g class="legendfill"/><g class="legendlines"><path class="js-line" d="M5,0h30" style="fill: none; stroke: rgb(25, 211, 243); stroke-opacity: 1; stroke-width: 2px;"/></g><g class="legendsymbols"><g class="legendpoints"/></g></g><rect class="legendtoggle" x="0" y="-9.5" width="130.8186798095703" height="19" style="fill: rgb(0, 0, 0); fill-opacity: 0;"/></g><g class="traces" transform="translate(0,128.5)" style="opacity: 1;"><text class="legendtext" text-anchor="start" x="40" y="4.680000000000001" style="font-family: 'Open Sans', verdana, arial, sans-serif; font-size: 12px; fill: rgb(42, 63, 95); fill-opacity: 1; white-space: pre;">Mean-VaR</text><g class="layers" style="opacity: 1;"><g class="legendfill"/><g class="legendlines"><path class="js-line" d="M5,0h30" style="fill: none; stroke: rgb(255, 102, 146); stroke-opacity: 1; stroke-width: 2px;"/></g><g class="legendsymbols"><g class="legendpoints"/></g></g><rect class="legendtoggle" x="0" y="-9.5" width="130.8186798095703" height="19" style="fill: rgb(0, 0, 0); fill-opacity: 0;"/></g><g class="traces" transform="translate(0,147.5)" style="opacity: 1;"><text class="legendtext" text-anchor="start" x="40" y="4.680000000000001" style="font-family: 'Open Sans', verdana, arial, sans-serif; font-size: 12px; fill: rgb(42, 63, 95); fill-opacity: 1; white-space: pre;">Mean-CVaR 95%</text><g class="layers" style="opacity: 1;"><g class="legendfill"/><g class="legendlines"><path class="js-line" d="M5,0h30" style="fill: none; stroke: rgb(182, 232, 128); stroke-opacity: 1; stroke-width: 2px;"/></g><g class="legendsymbols"><g class="legendpoints"/></g></g><rect class="legendtoggle" x="0" y="-9.5" width="130.8186798095703" height="19" style="fill: rgb(0, 0, 0); fill-opacity: 0;"/></g><g class="traces" transform="translate(0,166.5)" style="opacity: 1;"><text class="legendtext" text-anchor="start" x="40" y="4.680000000000001" style="font-family: 'Open Sans', verdana, arial, sans-serif; font-size: 12px; fill: rgb(42, 63, 95); fill-opacity: 1; white-space: pre;">Mean-CVaR 99%</text><g class="layers" style="opacity: 1;"><g class="legendfill"/><g class="legendlines"><path class="js-line" d="M5,0h30" style="fill: none; stroke: rgb(255, 151, 255); stroke-opacity: 1; stroke-width: 2px;"/></g><g class="legendsymbols"><g class="legendpoints"/></g></g><rect class="legendtoggle" x="0" y="-9.5" width="130.8186798095703" height="19" style="fill: rgb(0, 0, 0); fill-opacity: 0;"/></g><g class="traces" transform="translate(0,185.5)" style="opacity: 1;"><text class="legendtext" text-anchor="start" x="40" y="4.680000000000001" style="font-family: 'Open Sans', verdana, arial, sans-serif; font-size: 12px; fill: rgb(42, 63, 95); fill-opacity: 1; white-space: pre;">DJIA</text><g class="layers" style="opacity: 1;"><g class="legendfill"/><g class="legendlines"><path class="js-line" d="M5,0h30" style="fill: none; stroke: rgb(254, 203, 82); stroke-opacity: 1; stroke-width: 2px;"/></g><g class="legendsymbols"><g class="legendpoints"/></g></g><rect class="legendtoggle" x="0" y="-9.5" width="130.8186798095703" height="19" style="fill: rgb(0, 0, 0); fill-opacity: 0;"/></g></g></g><rect class="scrollbar" rx="20" ry="3" width="0" height="0" x="0" y="0" style="fill: rgb(128, 139, 164); fill-opacity: 1;"/></g><g class="g-gtitle"/><g class="g-xtitle"/><g class="g-ytitle"/></g></svg>