<svg class="main-svg" xmlns="http://www.w3.org/2000/svg" xmlns:xlink="http://www.w3.org/1999/xlink" width="1238" height="317" style=""><rect x="0" y="0" width="1238" height="317" style="fill: rgb(255, 255, 255); fill-opacity: 1;"/><defs id="defs-1fcf7f"><g class="clips"><clipPath id="clip1fcf7fxyplot" class="plotclip"><rect width="1020" height="207"/></clipPath><clipPath class="axesclip" id="clip1fcf7fx"><rect x="50" y="0" width="1020" height="317"/></clipPath><clipPath class="axesclip" id="clip1fcf7fy"><rect x="0" y="60" width="1238" height="207"/></clipPath><clipPath class="axesclip" id="clip1fcf7fxy"><rect x="50" y="60" width="1020" height="207"/></clipPath></g><g class="gradients"/><g class="patterns"/></defs><g class="bglayer"><rect class="bg" x="50" y="60" width="1020" height="207" style="fill: rgb(229, 236, 246); fill-opacity: 1; stroke-width: 0;"/></g><g class="layer-below"><g class="imagelayer"/><g class="shapelayer"/></g><g class="cartesianlayer"><g class="subplot xy"><g class="layer-subplot"><g class="shapelayer"/><g class="imagelayer"/></g><g class="gridlayer"><g class="x"><path class="xgrid crisp" transform="translate(115.19,0)" d="M0,60v207" style="stroke: rgb(255, 255, 255); stroke-opacity: 1; stroke-width: 1px;"/><path class="xgrid crisp" transform="translate(232.14,0)" d="M0,60v207" style="stroke: rgb(255, 255, 255); stroke-opacity: 1; stroke-width: 1px;"/><path class="xgrid crisp" transform="translate(347.18,0)" d="M0,60v207" style="stroke: rgb(255, 255, 255); stroke-opacity: 1; stroke-width: 1px;"/><path class="xgrid crisp" transform="translate(464.14,0)" d="M0,60v207" style="stroke: rgb(255, 255, 255); stroke-opacity: 1; stroke-width: 1px;"/><path class="xgrid crisp" transform="translate(581.09,0)" d="M0,60v207" style="stroke: rgb(255, 255, 255); stroke-opacity: 1; stroke-width: 1px;"/><path class="xgrid crisp" transform="translate(699.96,0)" d="M0,60v207" style="stroke: rgb(255, 255, 255); stroke-opacity: 1; stroke-width: 1px;"/><path class="xgrid crisp" transform="translate(816.92,0)" d="M0,60v207" style="stroke: rgb(255, 255, 255); stroke-opacity: 1; stroke-width: 1px;"/><path class="xgrid crisp" transform="translate(933.87,0)" d="M0,60v207" style="stroke: rgb(255, 255, 255); stroke-opacity: 1; stroke-width: 1px;"/><path class="xgrid crisp" transform="translate(1046.99,0)" d="M0,60v207" style="stroke: rgb(255, 255, 255); stroke-opacity: 1; stroke-width: 1px;"/></g><g class="y"><path class="ygrid crisp" transform="translate(0,223.12)" d="M50,0h1020" style="stroke: rgb(255, 255, 255); stroke-opacity: 1; stroke-width: 1px;"/><path class="ygrid crisp" transform="translate(0,176.95999999999998)" d="M50,0h1020" style="stroke: rgb(255, 255, 255); stroke-opacity: 1; stroke-width: 1px;"/><path class="ygrid crisp" transform="translate(0,130.81)" d="M50,0h1020" style="stroke: rgb(255, 255, 255); stroke-opacity: 1; stroke-width: 1px;"/><path class="ygrid crisp" transform="translate(0,84.65)" d="M50,0h1020" style="stroke: rgb(255, 255, 255); stroke-opacity: 1; stroke-width: 1px;"/></g></g><g class="zerolinelayer"/><path class="xlines-below"/><path class="ylines-below"/><g class="overlines-below"/><g class="xaxislayer-below"/><g class="yaxislayer-below"/><g class="overaxes-below"/><g class="plot" transform="translate(50,60)" clip-path="url(#clip1fcf7fxyplot)"><g class="scatterlayer mlayer"><g class="trace scatter trace3592db" style="stroke-miterlimit: 2; opacity: 1;"><g class="fills"/><g class="errorbars"/><g class="lines"><path class="js-line" d="M0,27.06L5.75,24.11L7.67,24.56L9.59,25.57L11.5,25.06L13.42,24.19L19.17,25.21L21.09,23.92L23.01,24.44L24.92,25.48L26.84,24.57L34.51,26.46L36.43,25.27L38.35,24.7L40.26,29.88L46.02,28.31L47.93,26.91L51.77,25.74L53.68,23.96L59.44,22L61.35,24.61L63.27,22.6L65.19,27.42L67.11,26.57L72.86,27.03L74.77,25.27L76.69,30.2L78.61,27.09L80.53,29.52L86.28,29.43L88.2,23.76L90.11,24.78L92.03,23.83L93.95,19.69L99.7,21.37L101.62,20.06L103.53,23.74L107.37,21.33L113.12,23.7L116.95,15.39L118.87,14.74L120.79,16.31L126.54,16.6L128.46,15.66L130.38,13.22L132.29,11.82L134.21,12.18L139.96,11.05L141.88,14.18L143.8,11.53L145.71,10.85L147.63,13.48L153.38,16.86L159.14,15.89L161.05,11.72L166.8,11.06L170.64,11.76L172.56,14.67L174.47,14.36L180.23,18.19L184.06,21.67L185.98,20.81L187.89,22.76L193.65,18.67L195.56,19.56L197.48,15.45L199.4,13.95L201.32,19.67L207.07,17.08L208.98,20.39L210.9,21.54L214.74,30.69L222.41,37.32L226.24,35.57L228.16,40.7L233.91,37.13L235.83,37.53L237.74,39.32L239.66,34.77L241.58,32.91L247.33,34.02L249.25,39.98L251.17,39.72L253.08,38.09L255,39.06L260.75,37.74L262.67,34.06L264.59,32.47L266.5,35.92L278.01,36.19L279.92,37.72L281.84,35.35L287.59,31.73L289.51,29.25L291.43,29.99L293.35,31.68L295.26,36.58L302.93,34.67L304.85,32.4L308.68,38.52L314.44,40.04L316.35,34.91L318.27,35.12L320.19,34.4L322.11,38.18L327.86,35.98L329.77,28.3L331.69,30.4L333.61,26.91L343.2,25.23L345.11,25.89L348.95,28.1L354.7,26.49L356.62,21.74L358.53,24.37L371.95,24.19L373.87,21.9L375.79,25.65L381.54,24.53L383.46,24.23L385.38,22.6L387.29,23.63L389.21,21.92L396.88,22.1L398.8,20.72L400.71,20.62L402.63,22.82L408.38,24.24L410.3,26.05L412.22,25.89L414.14,23.73L416.05,22.53L421.8,24.03L423.72,24.06L425.64,27.91L427.56,27.92L429.47,30.13L439.06,26.27L440.98,24.54L448.65,23.07L450.56,26.46L452.48,29.67L454.4,26.02L456.32,27.66L463.98,26.47L465.9,28.1L467.82,24.16L469.74,24.19L475.49,26.65L477.41,27.64L479.32,26.77L481.24,23.65L483.16,31.48L488.91,30.72L490.83,27.49L492.74,30.25L494.66,28.81L496.58,29.62L502.33,33.12L504.25,34.11L506.17,37.86L508.08,36.54L510,39.53L517.67,38.93L519.59,36.85L523.42,48.33L529.17,46.77L533.01,47.23L534.92,45.34L542.59,45.49L544.51,41.74L546.43,44.23L548.35,43.45L550.26,45.23L556.02,43.96L559.85,38.59L561.77,42L563.68,42.29L569.44,44.1L571.35,38.88L573.27,36.08L575.19,38.36L577.11,37.42L582.86,41.64L584.77,38.4L586.69,36.97L588.61,39.67L590.53,37.39L596.28,35.14L598.2,28L600.11,26.42L602.03,31.17L603.95,25.06L611.62,25.08L613.53,26.39L615.45,26.36L617.37,24.55L625.04,29.35L626.95,29.12L628.87,30.16L630.79,25.76L636.54,30.46L638.46,30.72L642.29,27.3L644.21,32.07L651.88,30.55L653.8,30.96L655.71,35.71L657.63,34.77L663.38,28.15L665.3,31.09L667.22,30.72L669.14,27.93L671.05,28.36L676.8,34.37L678.72,34.42L680.64,43.67L682.56,37.55L684.47,36.91L690.23,44.21L692.14,48.07L694.06,48.54L695.98,43.61L697.89,41.36L703.65,54.39L705.56,43.6L707.48,43.21L711.32,51.53L717.07,61.54L718.98,72.25L720.9,78.07L722.82,98.36L724.74,105.37L730.49,78.8L732.41,82.55L734.32,96.03L736.24,85.46L738.16,89.32L743.91,79.16L745.83,82.72L747.74,92.26L749.66,91.12L751.58,99.11L757.33,103.52L759.25,82.12L761.17,89.43L763.08,86.99L765,84.76L770.75,82.82L772.67,78.29L774.59,88.14L776.5,95.26L778.42,87.57L784.17,88.35L786.09,94.12L788.01,101.89L789.92,87.12L791.84,96.37L797.59,100.86L799.51,97.24L801.43,107.64L803.35,119L805.26,104.86L811.02,98.94L812.93,99.13L814.85,96L818.68,92.46L824.44,108.36L826.35,105.75L828.27,100.16L830.19,107.14L832.11,100.54L837.86,98.69L839.77,104.38L841.69,103.28L843.61,106.09L845.53,105.83L851.28,104.78L853.2,97.6L855.11,100.5L857.03,102.02L858.95,103.2L864.7,103.47L866.62,106.03L868.53,105.37L872.37,103.91L878.12,104.85L881.95,98.61L885.79,93.57L893.46,96.74L895.38,99.06L897.29,99.44L899.21,101.18L904.96,103.47L906.88,102.47L908.8,108.38L910.71,107.71L912.63,105.74L920.3,110.12L922.22,107.1L924.14,108.03L926.05,111.17L931.8,108.46L933.72,106.47L935.64,102.52L937.56,104.88L939.47,110.05L945.23,112.8L947.14,108.39L949.06,112.35L950.98,110.8L952.89,106.76L958.65,108.79L960.56,117.52L962.48,115.75L964.4,111.43L966.32,114.27L973.98,120.33L975.9,119.69L977.82,119.02L979.74,121.72L985.49,127.44L987.41,122.96L989.32,124.89L991.24,129.3L993.16,132.99L998.91,141L1000.83,143.39L1002.74,138.07L1004.66,144.67L1006.58,142.84L1012.33,146.23L1014.25,139.91L1016.17,138.65L1018.08,133.67L1020,129.99" style="vector-effect: non-scaling-stroke; fill: none; stroke: rgb(25, 211, 243); stroke-opacity: 1; stroke-width: 2px; opacity: 1;"/></g><g class="points"/><g class="text"/></g><g class="trace scatter traced2033a" style="stroke-miterlimit: 2; opacity: 1;"><g class="fills"/><g class="errorbars"/><g class="lines"><path class="js-line" d="M0,27.06L5.75,24.17L7.67,24.74L9.59,25.8L11.5,25.27L13.42,24.23L19.17,25.29L21.09,24.02L23.01,24.43L24.92,25.61L26.84,24.67L34.51,26.41L36.43,25.36L38.35,24.81L40.26,30.79L46.02,29.21L47.93,27.8L51.77,26.82L53.68,24.97L59.44,23.16L61.35,25.91L63.27,23.52L65.19,28.3L67.11,27.16L72.86,27.56L74.77,25.62L76.69,30.91L78.61,27.93L80.53,30.64L86.28,31.12L88.2,25.42L90.11,26.72L92.03,25.34L93.95,21.06L99.7,22.78L101.62,21.37L103.53,24.97L107.37,22.39L113.12,24.84L116.95,16.63L118.87,16.04L120.79,17.48L126.54,17.9L128.46,17.3L130.38,14.55L132.29,12.82L134.21,13.17L139.96,12.01L141.88,15.33L143.8,12.19L145.71,11.48L147.63,14.2L153.38,17.37L159.14,15.94L161.05,11.69L166.8,10.86L170.64,11.49L172.56,14.39L174.47,14.05L184.06,20.89L185.98,20.27L187.89,22.51L193.65,18.87L195.56,20.12L197.48,16.36L199.4,15.26L201.32,20.74L207.07,17.84L208.98,21.18L210.9,22.83L212.82,27.06L214.74,31.98L222.41,38.6L226.24,36.21L228.16,41.09L233.91,36.98L235.83,37.52L237.74,39.18L239.66,34.63L241.58,32.67L247.33,33.45L249.25,39.77L251.17,39.34L253.08,37.75L255,38.44L260.75,37.36L262.67,33.99L264.59,32.13L266.5,35.56L268.42,35.73L276.09,35.4L278.01,34.94L279.92,36.75L281.84,34.51L287.59,30.43L289.51,28L291.43,28.79L293.35,30.53L295.26,35.69L302.93,33.87L304.85,31.44L308.68,37.75L314.44,39.38L316.35,33.78L318.27,33.98L320.19,33.13L322.11,36.95L327.86,35.1L329.77,26.83L331.69,29.49L333.61,26.76L343.2,24.65L345.11,25.22L348.95,27.6L354.7,25.85L356.62,21L358.53,23.57L362.37,23.58L368.12,22.56L371.95,23.15L373.87,20.63L375.79,24.79L381.54,23.68L383.46,23.13L385.38,21.37L387.29,22.3L389.21,19.92L396.88,20.26L398.8,19.27L400.71,19.33L402.63,21.66L408.38,23.5L410.3,25.79L412.22,25.55L414.14,23.74L416.05,21.85L421.8,23.25L423.72,22.78L425.64,26.58L427.56,26.34L429.47,28.59L439.06,24.68L440.98,22.62L442.89,21.9L448.65,21.11L452.48,27.73L454.4,24.31L456.32,26.22L463.98,25.12L465.9,26.64L467.82,22.88L469.74,22.64L475.49,25.05L477.41,25.92L479.32,24.73L481.24,21.6L483.16,29.75L488.91,28.84L490.83,25.79L492.74,28.34L494.66,26.83L496.58,27.38L502.33,30.55L504.25,31.23L506.17,34.88L508.08,33.6L510,36.67L517.67,36.18L519.59,34.25L523.42,45.67L529.17,44.39L533.01,45.37L534.92,43.55L542.59,44.02L544.51,40.75L546.43,43.35L548.35,42.28L550.26,44L556.02,42.82L559.85,37.92L561.77,41.28L569.44,43.14L571.35,38.16L573.27,35.66L575.19,37.9L577.11,36.7L582.86,40.92L586.69,35.64L588.61,38.99L590.53,36.73L596.28,35.41L598.2,28.32L600.11,26.41L602.03,31.11L603.95,25.4L611.62,25.27L613.53,26.39L615.45,26.46L617.37,24.74L623.12,27.9L625.04,29.82L626.95,29.27L628.87,30.16L630.79,25.93L636.54,30.67L638.46,30.68L640.38,29.08L642.29,27.01L644.21,31.7L653.8,31.41L655.71,36.32L657.63,35.69L663.38,29.53L665.3,33.69L667.22,32.74L669.14,29.97L671.05,30.43L676.8,38.41L678.72,38.61L680.64,48.22L682.56,41.86L684.47,39.51L690.23,46.22L692.14,50.35L694.06,51.53L695.98,47.01L697.89,45.05L703.65,59.36L705.56,48.13L707.48,47.7L709.4,52.59L711.32,56.73L717.07,67.07L718.98,78.04L720.9,83.72L722.82,103.78L724.74,111.59L730.49,84.66L732.41,88L734.32,102.71L736.24,92.52L738.16,96.16L743.91,86L745.83,89.15L747.74,98.85L749.66,97.24L751.58,105.19L757.33,110.72L759.25,89.91L761.17,96.46L763.08,93.33L765,90.54L770.75,89.15L772.67,84.16L774.59,94.22L776.5,101.91L778.42,94.59L784.17,95.57L786.09,101.48L788.01,109.86L789.92,95.17L791.84,104.21L797.59,108.92L799.51,104.78L801.43,115.64L803.35,127.82L805.26,113.74L811.02,107.36L812.93,107.73L814.85,104.18L818.68,101.13L824.44,117.7L826.35,115.24L828.27,110.1L830.19,117.59L832.11,111.28L837.86,109.08L839.77,114.2L841.69,112.75L843.61,115.78L845.53,115.41L851.28,114.42L853.2,107.26L857.03,112.51L858.95,113.49L864.7,114.28L866.62,116.56L872.37,114.4L878.12,115.25L880.04,111.1L881.95,108.9L885.79,103.36L891.54,104.55L893.46,105.1L895.38,108.23L897.29,108.34L899.21,110.45L904.96,112.86L906.88,111.74L908.8,117.79L910.71,116.92L912.63,114.98L920.3,119.94L922.22,116.21L924.14,117.82L926.05,120.43L931.8,117.93L933.72,115.86L935.64,111.84L937.56,114.63L939.47,119.95L945.23,123.08L947.14,119.21L949.06,122.97L950.98,121.59L952.89,117.4L958.65,118.96L960.56,127.54L962.48,125.94L964.4,122.3L966.32,124.83L973.98,131.04L975.9,130.5L977.82,129.94L979.74,132.7L985.49,138.38L987.41,134.15L989.32,135.72L991.24,139.63L993.16,143.35L998.91,151.5L1000.83,153.62L1002.74,148.47L1004.66,155.37L1006.58,153.81L1012.33,156.73L1014.25,149.88L1016.17,148.51L1018.08,143.73L1020,140.53" style="vector-effect: non-scaling-stroke; fill: none; stroke: rgb(255, 102, 146); stroke-opacity: 1; stroke-width: 2px; opacity: 1;"/></g><g class="points"/><g class="text"/></g><g class="trace scatter trace8bd34e" style="stroke-miterlimit: 2; opacity: 1;"><g class="fills"/><g class="errorbars"/><g class="lines"><path class="js-line" d="M0,27.06L5.75,24.18L7.67,24.74L9.59,25.81L11.5,25.28L13.42,24.24L19.17,25.3L21.09,24.02L23.01,24.46L24.92,25.65L26.84,24.72L34.51,26.47L36.43,25.42L38.35,24.88L40.26,30.88L46.02,29.31L47.93,27.87L51.77,26.94L53.68,25.09L59.44,23.27L61.35,26.02L63.27,23.61L65.19,28.4L67.11,27.27L72.86,27.67L74.77,25.73L76.69,31.05L78.61,28.08L80.53,30.76L86.28,31.25L88.2,25.57L90.11,26.89L92.03,25.51L93.95,21.23L99.7,22.98L101.62,21.57L103.53,25.18L107.37,22.6L113.12,25.04L116.95,16.84L118.87,16.27L120.79,17.7L126.54,18.13L128.46,17.55L130.38,14.78L132.29,13.03L134.21,13.38L139.96,12.24L141.88,15.55L143.8,12.38L145.71,11.67L147.63,14.4L153.38,17.57L159.14,16.13L161.05,11.86L166.8,11.01L170.64,11.64L172.56,14.53L174.47,14.19L184.06,21.02L185.98,20.41L187.89,22.65L193.65,19.03L195.56,20.32L197.48,16.59L199.4,15.49L201.32,20.94L207.07,18.02L208.98,21.37L210.9,23.02L212.82,27.28L214.74,32.24L222.41,38.86L226.24,36.51L228.16,41.38L233.91,37.25L235.83,37.76L237.74,39.45L239.66,34.89L241.58,32.94L247.33,33.69L249.25,40.04L251.17,39.6L253.08,38.02L255,38.72L260.75,37.69L262.67,34.31L264.59,32.42L266.5,35.86L268.42,36L276.09,35.69L278.01,35.25L279.92,37.07L281.84,34.8L287.59,30.71L289.51,28.3L291.43,29.11L293.35,30.82L295.26,36.01L302.93,34.21L304.85,31.78L308.68,38.12L314.44,39.76L316.35,34.15L318.27,34.36L320.19,33.51L322.11,37.32L327.86,35.45L329.77,27.16L331.69,29.85L333.61,27.14L343.2,25.02L345.11,25.6L348.95,28L354.7,26.22L356.62,21.33L358.53,23.91L362.37,23.91L368.12,22.87L371.95,23.47L373.87,20.98L375.79,25.14L381.54,24.05L383.46,23.52L385.38,21.75L387.29,22.65L389.21,20.23L396.88,20.58L398.8,19.6L400.71,19.65L402.63,21.95L408.38,23.77L410.3,26.05L412.22,25.81L414.14,23.97L416.05,22.05L421.8,23.46L423.72,22.97L425.64,26.79L427.56,26.57L429.47,28.84L439.06,24.96L440.98,22.9L442.89,22.18L448.65,21.39L452.48,28.03L454.4,24.63L456.32,26.55L463.98,25.46L465.9,26.99L467.82,23.21L469.74,22.95L475.49,25.35L477.41,26.23L479.32,25.05L481.24,21.91L483.16,30.06L488.91,29.18L490.83,26.15L492.74,28.71L494.66,27.2L496.58,27.72L502.33,30.88L504.25,31.57L506.17,35.22L508.08,33.91L510,37L517.67,36.54L519.59,34.62L523.42,46.02L529.17,44.74L533.01,45.72L534.92,43.93L542.59,44.42L544.51,41.18L546.43,43.78L548.35,42.71L550.26,44.44L556.02,43.27L559.85,38.37L561.77,41.71L569.44,43.53L571.35,38.6L573.27,36.08L575.19,38.34L577.11,37.15L582.86,41.41L586.69,36.14L588.61,39.48L590.53,37.22L596.28,35.96L598.2,28.85L600.11,26.95L602.03,31.67L603.95,25.97L611.62,25.89L613.53,27.02L615.45,27.06L617.37,25.37L623.12,28.54L625.04,30.47L626.95,29.9L628.87,30.79L630.79,26.58L636.54,31.33L638.46,31.32L640.38,29.7L642.29,27.59L644.21,32.27L653.8,31.98L655.71,36.92L657.63,36.3L663.38,30.16L665.3,34.4L667.22,33.49L669.14,30.75L671.05,31.36L676.8,39.73L678.72,40.03L680.64,49.79L682.56,43.37L684.47,40.83L690.23,47.42L692.14,51.53L694.06,52.86L695.98,48.41L697.89,46.47L703.65,60.83L705.56,49.57L707.48,49.12L709.4,53.99L711.32,58.12L717.07,68.42L718.98,79.35L720.9,85.03L722.82,105.07L724.74,112.88L730.49,86.04L732.41,89.28L734.32,104L736.24,93.9L738.16,97.55L743.91,87.39L745.83,90.53L747.74,100.23L749.66,98.59L751.58,106.55L757.33,112.09L759.25,91.34L761.17,97.9L763.08,94.77L765,91.95L770.75,90.55L772.67,85.5L774.59,95.58L776.5,103.3L778.42,95.99L784.17,96.94L786.09,102.81L788.01,111.18L789.92,96.52L791.84,105.52L797.59,110.23L799.51,106.12L801.43,117L803.35,129.12L805.26,115.1L811.02,108.71L812.93,109.08L814.85,105.52L818.68,102.49L824.44,119.06L826.35,116.54L828.27,111.43L830.19,118.93L832.11,112.65L837.86,110.41L839.77,115.49L841.69,114.08L843.61,117.08L845.53,116.73L851.28,115.76L853.2,108.6L857.03,113.89L858.95,114.86L864.7,115.66L866.62,117.92L872.37,115.79L878.12,116.63L880.04,112.5L881.95,110.29L885.79,104.75L891.54,105.94L893.46,106.46L895.38,109.62L897.29,109.67L899.21,111.8L904.96,114.23L906.88,113.11L908.8,119.14L910.71,118.3L912.63,116.39L920.3,121.33L922.22,117.56L924.14,119.21L926.05,121.75L931.8,119.29L933.72,117.23L935.64,113.22L937.56,116.04L939.47,121.31L945.23,124.41L947.14,120.61L949.06,124.36L950.98,123.01L952.89,118.84L958.65,120.38L960.56,128.94L962.48,127.34L964.4,123.77L966.32,126.28L973.98,132.5L975.9,132.01L977.82,131.5L979.74,134.24L985.49,139.88L987.41,135.76L989.32,137.28L991.24,141.1L993.16,144.88L998.91,152.98L1000.83,155.05L1002.74,149.94L1004.66,156.86L1006.58,155.32L1012.33,158.23L1014.25,151.38L1016.17,150.02L1018.08,145.28L1020,142.06" style="vector-effect: non-scaling-stroke; fill: none; stroke: rgb(182, 232, 128); stroke-opacity: 1; stroke-width: 2px; opacity: 1;"/></g><g class="points"/><g class="text"/></g><g class="trace scatter trace341db2" style="stroke-miterlimit: 2; opacity: 1;"><g class="fills"/><g class="errorbars"/><g class="lines"><path class="js-line" d="M0,27.06L5.75,24.12L7.67,24.68L9.59,25.69L11.5,25.16L13.42,24.2L19.17,25.27L21.09,23.94L23.01,24.48L24.92,25.53L26.84,24.6L34.51,26.57L36.43,25.59L38.35,25.04L40.26,30.55L46.02,29.06L47.93,27.6L51.77,26.75L53.68,24.86L59.44,22.93L61.35,25.65L63.27,23.26L65.19,27.99L67.11,26.97L72.86,27.4L74.77,25.44L76.69,30.75L78.61,27.65L80.53,29.8L86.28,30.04L88.2,24.42L90.11,25.57L92.03,24.34L93.95,20.15L99.7,21.85L101.62,20.57L103.53,24.29L107.37,21.8L113.12,24.04L116.95,15.94L118.87,15.45L120.79,16.84L126.54,17.22L128.46,16.56L130.38,13.82L132.29,12.11L134.21,12.56L139.96,11.39L141.88,14.59L143.8,11.68L145.71,10.96L147.63,13.66L153.38,16.86L159.14,15.38L161.05,11.19L166.8,10.35L170.64,10.97L172.56,13.83L174.47,13.45L184.06,20.26L185.98,19.62L187.89,21.77L193.65,17.92L195.56,19.16L197.48,15.27L199.4,14.12L201.32,19.36L207.07,16.58L208.98,19.87L210.9,21.39L212.82,25.66L214.74,30.98L222.41,37.69L226.24,35.68L228.16,40.56L233.91,36.55L235.83,37.08L237.74,39.01L239.66,34.42L241.58,32.61L247.33,33.3L249.25,39.61L251.17,39.26L253.08,37.74L255,38.62L260.75,37.81L262.67,34.23L264.59,32.46L266.5,35.87L268.42,36.04L276.09,35.72L278.01,35.45L279.92,37.21L281.84,34.84L287.59,30.78L289.51,28.48L291.43,29.4L293.35,31.04L295.26,36.3L302.93,34.52L304.85,32.08L308.68,38.5L314.44,40.16L316.35,34.57L318.27,34.84L320.19,34L322.11,37.72L327.86,35.69L329.77,27.47L331.69,30.08L333.61,27.13L343.2,25.19L345.11,25.8L348.95,28.15L354.7,26.32L356.62,21.28L358.53,23.8L362.37,23.7L368.12,22.62L371.95,23.22L373.87,20.92L375.79,24.89L381.54,23.92L383.46,23.42L385.38,21.73L387.29,22.75L389.21,20.33L396.88,20.61L398.8,19.6L400.71,19.45L402.63,21.5L408.38,23.12L410.3,25.32L412.22,25.03L414.14,23.13L416.05,21.2L421.8,22.67L423.72,22.3L425.64,26.37L427.56,26.22L429.47,28.55L437.14,26.11L439.06,24.81L440.98,22.89L442.89,22.26L448.65,21.46L450.56,24.82L452.48,28.1L454.4,24.78L456.32,26.73L463.98,25.71L465.9,27.38L467.82,23.43L469.74,23.04L475.49,25.35L477.41,26.23L479.32,25.24L481.24,22.01L483.16,30.05L488.91,29.26L490.83,26.36L492.74,28.9L494.66,27.33L496.58,27.78L502.33,30.96L504.25,31.73L506.17,35.46L508.08,34.04L510,37.12L517.67,36.65L519.59,34.8L523.42,46.16L529.17,44.67L533.01,45.44L534.92,43.68L542.59,44.22L544.51,40.89L546.43,43.32L548.35,42.3L550.26,44.14L556.02,42.96L559.85,37.94L561.77,41.2L569.44,43.03L571.35,38.08L573.27,35.48L575.19,37.85L577.11,36.66L582.86,40.99L586.69,35.88L588.61,38.96L590.53,36.76L596.28,35.39L598.2,28.2L600.11,26.3L602.03,31.26L603.95,25.56L611.62,25.53L613.53,26.73L615.45,26.77L617.37,25.07L625.04,30.05L626.95,29.47L628.87,30.4L630.79,26.21L636.54,30.95L638.46,30.91L642.29,27.14L644.21,31.81L653.8,31.12L655.71,36.14L657.63,35.41L663.38,29.27L665.3,33.62L667.22,32.86L669.14,30.31L671.05,31.46L676.8,40.72L678.72,41.34L680.64,51.55L682.56,44.94L684.47,42.46L690.23,48.82L692.14,52.74L694.06,54.42L695.98,50.15L697.89,48.13L703.65,62.42L705.56,50.87L707.48,50.42L709.4,54.97L711.32,59.18L717.07,69.37L718.98,80.12L720.9,85.48L722.82,105.85L724.74,113.61L730.49,86.88L732.41,89.8L734.32,104.43L736.24,94.31L738.16,98.23L743.91,88.07L745.83,91.41L747.74,101.08L749.66,99.59L751.58,107.71L757.33,113.11L759.25,92.2L761.17,99.1L763.08,96.22L765,93.47L770.75,91.87L772.67,86.68L774.59,96.87L776.5,104.62L778.42,97.19L784.17,97.89L786.09,103.55L788.01,111.74L789.92,96.99L791.84,106.09L797.59,110.69L799.51,106.71L801.43,117.78L803.35,129.65L805.26,115.78L811.02,109.52L812.93,109.97L814.85,106.49L818.68,103.49L824.44,119.92L826.35,117.09L828.27,111.92L830.19,119.34L832.11,112.9L837.86,110.67L839.77,115.62L841.69,114.44L843.61,117.11L845.53,116.89L851.28,115.83L853.2,108.69L857.03,113.84L858.95,114.82L864.7,115.47L866.62,117.72L872.37,115.67L878.12,116.51L881.95,110.23L885.79,104.81L893.46,106.84L895.38,109.87L897.29,109.93L899.21,111.93L904.96,114.45L906.88,113.23L908.8,119.26L910.71,118.64L912.63,116.88L920.3,121.59L922.22,118.13L924.14,119.75L926.05,122.22L931.8,119.81L933.72,117.73L935.64,113.74L937.56,116.69L939.47,121.7L945.23,124.48L947.14,120.83L949.06,124.49L950.98,123.11L952.89,119.09L958.65,120.75L960.56,129.28L962.48,127.61L964.4,124.05L966.32,126.52L973.98,132.67L975.9,132.3L977.82,131.92L979.74,134.75L985.49,140.24L987.41,136.46L989.32,137.87L991.24,141.75L993.16,145.92L998.91,153.91L1000.83,156L1002.74,150.95L1004.66,157.86L1006.58,156.26L1012.33,159.37L1014.25,152.65L1016.17,151.42L1018.08,146.76L1020,143.28" style="vector-effect: non-scaling-stroke; fill: none; stroke: rgb(255, 151, 255); stroke-opacity: 1; stroke-width: 2px; opacity: 1;"/></g><g class="points"/><g class="text"/></g><g class="trace scatter trace4ba624" style="stroke-miterlimit: 2; opacity: 1;"><g class="fills"/><g class="errorbars"/><g class="lines"><path class="js-line" d="M0,27.06L5.75,22.63L7.67,23.56L9.59,25.39L11.5,25.25L13.42,23.13L19.17,23.64L21.09,20.86L23.01,22.84L24.92,24.3L26.84,22.51L32.59,25L34.51,26.66L38.35,27.22L40.26,35.68L46.02,34.65L47.93,32.13L51.77,32.22L53.68,29.11L59.44,27.65L61.35,29.44L63.27,26.27L65.19,34.63L67.11,34L72.86,35.19L74.77,32.48L76.69,40.81L78.61,41.59L80.53,46.74L86.28,48.02L88.2,40.64L90.11,42.4L92.03,45.19L93.95,43.65L99.7,48.69L101.62,47.5L103.53,52.37L107.37,48.17L113.12,53.65L115.04,48.69L116.95,41.05L118.87,40.54L120.79,39.15L126.54,40.47L128.46,41.99L132.29,33.43L134.21,33.29L139.96,30.95L141.88,37.74L145.71,35.78L147.63,39.89L153.38,43.87L155.3,42.37L157.22,42.95L159.14,42.06L161.05,37.33L166.8,35.04L170.64,35L172.56,39.43L174.47,39.29L180.23,41.62L184.06,46.72L185.98,46.42L187.89,52.34L193.65,51.71L195.56,57.21L197.48,53.84L199.4,51.12L201.32,56.82L207.07,52.85L208.98,59.24L210.9,60.05L212.82,67.13L214.74,68.52L222.41,71.47L224.32,64.57L226.24,62.07L228.16,66.03L233.91,61.95L235.83,59.72L237.74,60.59L239.66,55.8L241.58,53.66L247.33,56.15L249.25,64.69L251.17,66.19L253.08,65.11L255,66.61L260.75,65.27L264.59,58.06L266.5,62.11L268.42,62.77L276.09,63.03L278.01,60.95L279.92,64.25L281.84,62.02L287.59,57.65L289.51,55L291.43,54.79L293.35,57.37L295.26,64.66L301.02,64.83L302.93,65.87L304.85,64.92L306.77,69.88L308.68,73.26L314.44,76.81L316.35,67.19L318.27,68.26L320.19,67.45L322.11,71.94L327.86,71.45L329.77,61.75L331.69,68.51L333.61,62.47L341.28,58.15L343.2,58.52L348.95,65.81L354.7,64.74L356.62,55.71L358.53,56.76L360.45,56.36L362.37,56.74L368.12,56.68L370.04,57.51L371.95,58.64L373.87,57.38L375.79,63.3L381.54,63.84L383.46,62.44L385.38,56.52L387.29,56.49L389.21,51.21L394.96,51.77L396.88,54.19L398.8,53.2L400.71,51.22L402.63,50.23L408.38,50.69L412.22,51.88L414.14,47.5L416.05,46.39L421.8,48.43L423.72,47.25L425.64,52.02L427.56,50.81L429.47,53.6L435.23,50.59L437.14,51.6L440.98,47.9L442.89,48.04L448.65,47.08L450.56,51.68L452.48,56.93L454.4,56.37L456.32,59.74L463.98,58.15L467.82,55.9L469.74,56.08L475.49,59.18L477.41,61.51L479.32,61.8L481.24,56.86L483.16,65.97L488.91,64.34L490.83,64.12L492.74,68.88L494.66,67.54L496.58,63.72L502.33,64.6L504.25,67.11L506.17,70.14L508.08,69.35L510,74.44L515.75,74.45L517.67,75.25L519.59,75.15L521.5,83.42L523.42,85.89L531.09,85.06L533.01,88.91L534.92,87.23L542.59,88.53L544.51,85.02L546.43,90.48L548.35,88.6L550.26,91.57L556.02,92.61L557.93,94.75L561.77,83.58L563.68,82.43L569.44,83.1L571.35,79.98L573.27,79.29L575.19,85.83L577.11,85.33L582.86,90.86L586.69,80.42L588.61,85.16L590.53,86.36L596.28,87.33L598.2,79.68L600.11,78.75L602.03,83.93L603.95,76.94L609.7,75.83L611.62,79.06L613.53,81.59L615.45,79.67L617.37,78.66L623.12,82.82L625.04,85.84L626.95,84.25L628.87,83.96L630.79,79.39L636.54,84.97L638.46,84.36L640.38,82.29L642.29,77.38L644.21,81.33L651.88,81.96L653.8,81.59L655.71,89.54L657.63,88.79L663.38,82.1L665.3,88.56L667.22,87.68L669.14,83.88L671.05,84.15L676.8,95.79L678.72,92.52L680.64,102.89L682.56,93.43L684.47,84.92L690.23,93.52L692.14,97.25L694.06,97.92L697.89,90.58L703.65,108.53L705.56,97.33L707.48,97.78L709.4,105.82L711.32,109.45L717.07,117.99L718.98,129.72L720.9,134.09L722.82,149.75L724.74,152.71L730.49,131.1L732.41,132.86L734.32,149.78L736.24,140.52L738.16,143.45L743.91,133.92L745.83,139.26L747.74,151.14L749.66,147.17L751.58,154.37L757.33,159.06L759.25,138.54L761.17,140.25L765,132.54L770.75,132.66L772.67,125.61L774.59,136.83L776.5,147.06L778.42,141.34L784.17,143.03L786.09,147.1L788.01,156.6L789.92,143.84L791.84,151.64L797.59,156.81L799.51,153.32L801.43,163.18L803.35,173.45L805.26,162.05L811.02,152.89L812.93,152.05L814.85,146.35L818.68,143.99L824.44,159.68L826.35,153.45L828.27,149.46L830.19,154.44L832.11,148.46L837.86,141.56L839.77,147.16L841.69,145.55L843.61,150.08L845.53,148.59L851.28,150.09L853.2,141.79L855.11,144.1L857.03,149.16L864.7,151.13L866.62,153.44L868.53,152.31L872.37,151.22L878.12,151.95L880.04,147.69L885.79,139.24L891.54,141.13L893.46,139.69L895.38,145.36L897.29,145.99L899.21,149.29L906.88,152.77L908.8,158.5L910.71,158.22L912.63,156.63L920.3,164.29L922.22,157.86L924.14,160.29L926.05,161.33L931.8,160.44L933.72,159.09L935.64,154.45L937.56,159.68L939.47,163.1L945.23,164.58L947.14,161.31L949.06,164.12L950.98,161.66L952.89,156.64L958.65,156.87L960.56,165.68L962.48,164.51L964.4,164.67L973.98,173.44L975.9,173.37L985.49,183.55L987.41,178.1L991.24,181.99L993.16,184.74L998.91,191.66L1000.83,192.52L1002.74,189.06L1004.66,195.56L1006.58,194.81L1012.33,196.65L1014.25,187.89L1016.17,187.8L1018.08,182.27L1020,181.03" style="vector-effect: non-scaling-stroke; fill: none; stroke: rgb(254, 203, 82); stroke-opacity: 1; stroke-width: 2px; opacity: 1;"/></g><g class="points"/><g class="text"/></g></g></g><g class="overplot"/><path class="xlines-above crisp" d="M0,0" style="fill: none;"/><path class="ylines-above crisp" d="M0,0" style="fill: none;"/><g class="overlines-above"/><g class="xaxislayer-above"><g class="xtick"><text text-anchor="middle" x="0" y="280" transform="translate(115.19,0)" style="font-family: 'Open Sans', verdana, arial, sans-serif; font-size: 12px; fill: rgb(42, 63, 95); fill-opacity: 1; white-space: pre; opacity: 1;">Nov 2007</text></g><g class="xtick"><text text-anchor="middle" x="0" y="280" style="font-family: 'Open Sans', verdana, arial, sans-serif; font-size: 12px; fill: rgb(42, 63, 95); fill-opacity: 1; white-space: pre; opacity: 1;" transform="translate(232.14,0)">Jan 2008</text></g><g class="xtick"><text text-anchor="middle" x="0" y="280" style="font-family: 'Open Sans', verdana, arial, sans-serif; font-size: 12px; fill: rgb(42, 63, 95); fill-opacity: 1; white-space: pre; opacity: 1;" transform="translate(347.18,0)">Mar 2008</text></g><g class="xtick"><text text-anchor="middle" x="0" y="280" style="font-family: 'Open Sans', verdana, arial, sans-serif; font-size: 12px; fill: rgb(42, 63, 95); fill-opacity: 1; white-space: pre; opacity: 1;" transform="translate(464.14,0)">May 2008</text></g><g class="xtick"><text text-anchor="middle" x="0" y="280" style="font-family: 'Open Sans', verdana, arial, sans-serif; font-size: 12px; fill: rgb(42, 63, 95); fill-opacity: 1; white-space: pre; opacity: 1;" transform="translate(581.09,0)">Jul 2008</text></g><g class="xtick"><text text-anchor="middle" x="0" y="280" style="font-family: 'Open Sans', verdana, arial, sans-serif; font-size: 12px; fill: rgb(42, 63, 95); fill-opacity: 1; white-space: pre; opacity: 1;" transform="translate(699.96,0)">Sep 2008</text></g><g class="xtick"><text text-anchor="middle" x="0" y="280" style="font-family: 'Open Sans', verdana, arial, sans-serif; font-size: 12px; fill: rgb(42, 63, 95); fill-opacity: 1; white-space: pre; opacity: 1;" transform="translate(816.92,0)">Nov 2008</text></g><g class="xtick"><text text-anchor="middle" x="0" y="280" style="font-family: 'Open Sans', verdana, arial, sans-serif; font-size: 12px; fill: rgb(42, 63, 95); fill-opacity: 1; white-space: pre; opacity: 1;" transform="translate(933.87,0)">Jan 2009</text></g><g class="xtick"><text text-anchor="middle" x="0" y="280" style="font-family: 'Open Sans', verdana, arial, sans-serif; font-size: 12px; fill: rgb(42, 63, 95); fill-opacity: 1; white-space: pre; opacity: 1;" transform="translate(1046.99,0)">Mar 2009</text></g></g><g class="yaxislayer-above"><g class="ytick"><text text-anchor="end" x="49" y="4.199999999999999" transform="translate(0,223.12)" style="font-family: 'Open Sans', verdana, arial, sans-serif; font-size: 12px; fill: rgb(42, 63, 95); fill-opacity: 1; white-space: pre; opacity: 1;">8k</text></g><g class="ytick"><text text-anchor="end" x="49" y="4.199999999999999" style="font-family: 'Open Sans', verdana, arial, sans-serif; font-size: 12px; fill: rgb(42, 63, 95); fill-opacity: 1; white-space: pre; opacity: 1;" transform="translate(0,176.95999999999998)">10k</text></g><g class="ytick"><text text-anchor="end" x="49" y="4.199999999999999" style="font-family: 'Open Sans', verdana, arial, sans-serif; font-size: 12px; fill: rgb(42, 63, 95); fill-opacity: 1; white-space: pre; opacity: 1;" transform="translate(0,130.81)">12k</text></g><g class="ytick"><text text-anchor="end" x="49" y="4.199999999999999" style="font-family: 'Open Sans', verdana, arial, sans-serif; font-size: 12px; fill: rgb(42, 63, 95); fill-opacity: 1; white-space: pre; opacity: 1;" transform="translate(0,84.65)">14k</text></g></g><g class="overaxes-above"/></g></g><g class="polarlayer"/><g class="ternarylayer"/><g class="geolayer"/><g class="funnelarealayer"/><g class="pielayer"/><g class="iciclelayer"/><g class="treemaplayer"/><g class="sunburstlayer"/><g class="glimages"/><defs id="topdefs-1fcf7f"><g class="clips"/><clipPath id="legend1fcf7f"><rect width="136" height="200" x="0" y="0"/></clipPath></defs><g class="layer-above"><g class="imagelayer"/><g class="shapelayer"/></g><g class="infolayer"><g class="legend" pointer-events="all" transform="translate(1090.4,60)"><rect class="bg" shape-rendering="crispEdges" width="136" height="200" x="0" y="0" style="stroke: rgb(68, 68, 68); stroke-opacity: 1; fill: rgb(255, 255, 255); fill-opacity: 1; stroke-width: 0px;"/><g class="scrollbox" transform="" clip-path="url(#legend1fcf7f)"><g class="groups"><g class="traces" transform="translate(0,14.5)" style="opacity: 0.5;"><text class="legendtext" text-anchor="start" x="40" y="4.680000000000001" style="font-family: 'Open Sans', verdana, arial, sans-serif; font-size: 12px; fill: rgb(42, 63, 95); fill-opacity: 1; white-space: pre;">Conic γ=0.1</text><g class="layers" style="opacity: 1;"><g class="legendfill"/><g class="legendlines"><path class="js-line" d="M5,0h30" style="fill: none; stroke: rgb(99, 110, 250); stroke-opacity: 1; stroke-width: 2px;"/></g><g class="legendsymbols"><g class="legendpoints"/></g></g><rect class="legendtoggle" x="0" y="-9.5" width="130.8186798095703" height="19" style="fill: rgb(0, 0, 0); fill-opacity: 0;"/></g><g class="traces" transform="translate(0,33.5)" style="opacity: 0.5;"><text class="legendtext" text-anchor="start" x="40" y="4.680000000000001" style="font-family: 'Open Sans', verdana, arial, sans-serif; font-size: 12px; fill: rgb(42, 63, 95); fill-opacity: 1; white-space: pre;">Conic γ=3.275</text><g class="layers" style="opacity: 1;"><g class="legendfill"/><g class="legendlines"><path class="js-line" d="M5,0h30" style="fill: none; stroke: rgb(239, 85, 59); stroke-opacity: 1; stroke-width: 2px;"/></g><g class="legendsymbols"><g class="legendpoints"/></g></g><rect class="legendtoggle" x="0" y="-9.5" width="130.8186798095703" height="19" style="fill: rgb(0, 0, 0); fill-opacity: 0;"/></g><g class="traces" transform="translate(0,52.5)" style="opacity: 0.5;"><text class="legendtext" text-anchor="start" x="40" y="4.680000000000001" style="font-family: 'Open Sans', verdana, arial, sans-serif; font-size: 12px; fill: rgb(42, 63, 95); fill-opacity: 1; white-space: pre;">Conic γ=6.45</text><g class="layers" style="opacity: 1;"><g class="legendfill"/><g class="legendlines"><path class="js-line" d="M5,0h30" style="fill: none; stroke: rgb(0, 204, 150); stroke-opacity: 1; stroke-width: 2px;"/></g><g class="legendsymbols"><g class="legendpoints"/></g></g><rect class="legendtoggle" x="0" y="-9.5" width="130.8186798095703" height="19" style="fill: rgb(0, 0, 0); fill-opacity: 0;"/></g><g class="traces" transform="translate(0,71.5)" style="opacity: 0.5;"><text class="legendtext" text-anchor="start" x="40" y="4.680000000000001" style="font-family: 'Open Sans', verdana, arial, sans-serif; font-size: 12px; fill: rgb(42, 63, 95); fill-opacity: 1; white-space: pre;">Conic γ=9.625</text><g class="layers" style="opacity: 1;"><g class="legendfill"/><g class="legendlines"><path class="js-line" d="M5,0h30" style="fill: none; stroke: rgb(171, 99, 250); stroke-opacity: 1; stroke-width: 2px;"/></g><g class="legendsymbols"><g class="legendpoints"/></g></g><rect class="legendtoggle" x="0" y="-9.5" width="130.8186798095703" height="19" style="fill: rgb(0, 0, 0); fill-opacity: 0;"/></g><g class="traces" transform="translate(0,90.5)" style="opacity: 0.5;"><text class="legendtext" text-anchor="start" x="40" y="4.680000000000001" style="font-family: 'Open Sans', verdana, arial, sans-serif; font-size: 12px; fill: rgb(42, 63, 95); fill-opacity: 1; white-space: pre;">Conic γ=12.8</text><g class="layers" style="opacity: 1;"><g class="legendfill"/><g class="legendlines"><path class="js-line" d="M5,0h30" style="fill: none; stroke: rgb(255, 161, 90); stroke-opacity: 1; stroke-width: 2px;"/></g><g class="legendsymbols"><g class="legendpoints"/></g></g><rect class="legendtoggle" x="0" y="-9.5" width="130.8186798095703" height="19" style="fill: rgb(0, 0, 0); fill-opacity: 0;"/></g><g class="traces" transform="translate(0,109.5)" style="opacity: 1;"><text class="legendtext" text-anchor="start" x="40" y="4.680000000000001" style="font-family: 'Open Sans', verdana, arial, sans-serif; font-size: 12px; fill: rgb(42, 63, 95); fill-opacity: 1; white-space: pre;">Mean-Variance</text><g class="layers" style="opacity: 1;"><g class="legendfill"/><g class="legendlines"><path class="js-line" d="M5,0h30" style="fill: none; stroke: rgb(25, 211, 243); stroke-opacity: 1; stroke-width: 2px;"/></g><g class="legendsymbols"><g class="legendpoints"/></g></g><rect class="legendtoggle" x="0" y="-9.5" width="130.8186798095703" height="19" style="fill: rgb(0, 0, 0); fill-opacity: 0;"/></g><g class="traces" transform="translate(0,128.5)" style="opacity: 1;"><text class="legendtext" text-anchor="start" x="40" y="4.680000000000001" style="font-family: 'Open Sans', verdana, arial, sans-serif; font-size: 12px; fill: rgb(42, 63, 95); fill-opacity: 1; white-space: pre;">Mean-VaR</text><g class="layers" style="opacity: 1;"><g class="legendfill"/><g class="legendlines"><path class="js-line" d="M5,0h30" style="fill: none; stroke: rgb(255, 102, 146); stroke-opacity: 1; stroke-width: 2px;"/></g><g class="legendsymbols"><g class="legendpoints"/></g></g><rect class="legendtoggle" x="0" y="-9.5" width="130.8186798095703" height="19" style="fill: rgb(0, 0, 0); fill-opacity: 0;"/></g><g class="traces" transform="translate(0,147.5)" style="opacity: 1;"><text class="legendtext" text-anchor="start" x="40" y="4.680000000000001" style="font-family: 'Open Sans', verdana, arial, sans-serif; font-size: 12px; fill: rgb(42, 63, 95); fill-opacity: 1; white-space: pre;">Mean-CVaR 95%</text><g class="layers" style="opacity: 1;"><g class="legendfill"/><g class="legendlines"><path class="js-line" d="M5,0h30" style="fill: none; stroke: rgb(182, 232, 128); stroke-opacity: 1; stroke-width: 2px;"/></g><g class="legendsymbols"><g class="legendpoints"/></g></g><rect class="legendtoggle" x="0" y="-9.5" width="130.8186798095703" height="19" style="fill: rgb(0, 0, 0); fill-opacity: 0;"/></g><g class="traces" transform="translate(0,166.5)" style="opacity: 1;"><text class="legendtext" text-anchor="start" x="40" y="4.680000000000001" style="font-family: 'Open Sans', verdana, arial, sans-serif; font-size: 12px; fill: rgb(42, 63, 95); fill-opacity: 1; white-space: pre;">Mean-CVaR 99%</text><g class="layers" style="opacity: 1;"><g class="legendfill"/><g class="legendlines"><path class="js-line" d="M5,0h30" style="fill: none; stroke: rgb(255, 151, 255); stroke-opacity: 1; stroke-width: 2px;"/></g><g class="legendsymbols"><g class="legendpoints"/></g></g><rect class="legendtoggle" x="0" y="-9.5" width="130.8186798095703" height="19" style="fill: rgb(0, 0, 0); fill-opacity: 0;"/></g><g class="traces" transform="translate(0,185.5)" style="opacity: 1;"><text class="legendtext" text-anchor="start" x="40" y="4.680000000000001" style="font-family: 'Open Sans', verdana, arial, sans-serif; font-size: 12px; fill: rgb(42, 63, 95); fill-opacity: 1; white-space: pre;">DJIA</text><g class="layers" style="opacity: 1;"><g class="legendfill"/><g class="legendlines"><path class="js-line" d="M5,0h30" style="fill: none; stroke: rgb(254, 203, 82); stroke-opacity: 1; stroke-width: 2px;"/></g><g class="legendsymbols"><g class="legendpoints"/></g></g><rect class="legendtoggle" x="0" y="-9.5" width="130.8186798095703" height="19" style="fill: rgb(0, 0, 0); fill-opacity: 0;"/></g></g></g><rect class="scrollbar" rx="20" ry="3" width="0" height="0" x="0" y="0" style="fill: rgb(128, 139, 164); fill-opacity: 1;"/></g><g class="g-gtitle"/><g class="g-xtitle"/><g class="g-ytitle"/></g></svg>