<svg class="main-svg" xmlns="http://www.w3.org/2000/svg" xmlns:xlink="http://www.w3.org/1999/xlink" width="1238" height="317" style=""><rect x="0" y="0" width="1238" height="317" style="fill: rgb(255, 255, 255); fill-opacity: 1;"/><defs id="defs-e51e7a"><g class="clips"><clipPath id="clipe51e7axyplot" class="plotclip"><rect width="1020" height="207"/></clipPath><clipPath class="axesclip" id="clipe51e7ax"><rect x="50" y="0" width="1020" height="317"/></clipPath><clipPath class="axesclip" id="clipe51e7ay"><rect x="0" y="60" width="1238" height="207"/></clipPath><clipPath class="axesclip" id="clipe51e7axy"><rect x="50" y="60" width="1020" height="207"/></clipPath></g><g class="gradients"/><g class="patterns"/></defs><g class="bglayer"><rect class="bg" x="50" y="60" width="1020" height="207" style="fill: rgb(229, 236, 246); fill-opacity: 1; stroke-width: 0;"/></g><g class="layer-below"><g class="imagelayer"/><g class="shapelayer"/></g><g class="cartesianlayer"><g class="subplot xy"><g class="layer-subplot"><g class="shapelayer"/><g class="imagelayer"/></g><g class="gridlayer"><g class="x"><path class="xgrid crisp" transform="translate(115.19,0)" d="M0,60v207" style="stroke: rgb(255, 255, 255); stroke-opacity: 1; stroke-width: 1px;"/><path class="xgrid crisp" transform="translate(232.14,0)" d="M0,60v207" style="stroke: rgb(255, 255, 255); stroke-opacity: 1; stroke-width: 1px;"/><path class="xgrid crisp" transform="translate(347.18,0)" d="M0,60v207" style="stroke: rgb(255, 255, 255); stroke-opacity: 1; stroke-width: 1px;"/><path class="xgrid crisp" transform="translate(464.14,0)" d="M0,60v207" style="stroke: rgb(255, 255, 255); stroke-opacity: 1; stroke-width: 1px;"/><path class="xgrid crisp" transform="translate(581.09,0)" d="M0,60v207" style="stroke: rgb(255, 255, 255); stroke-opacity: 1; stroke-width: 1px;"/><path class="xgrid crisp" transform="translate(699.96,0)" d="M0,60v207" style="stroke: rgb(255, 255, 255); stroke-opacity: 1; stroke-width: 1px;"/><path class="xgrid crisp" transform="translate(816.92,0)" d="M0,60v207" style="stroke: rgb(255, 255, 255); stroke-opacity: 1; stroke-width: 1px;"/><path class="xgrid crisp" transform="translate(933.87,0)" d="M0,60v207" style="stroke: rgb(255, 255, 255); stroke-opacity: 1; stroke-width: 1px;"/><path class="xgrid crisp" transform="translate(1046.99,0)" d="M0,60v207" style="stroke: rgb(255, 255, 255); stroke-opacity: 1; stroke-width: 1px;"/></g><g class="y"><path class="ygrid crisp" transform="translate(0,225.75)" d="M50,0h1020" style="stroke: rgb(255, 255, 255); stroke-opacity: 1; stroke-width: 1px;"/><path class="ygrid crisp" transform="translate(0,183.20999999999998)" d="M50,0h1020" style="stroke: rgb(255, 255, 255); stroke-opacity: 1; stroke-width: 1px;"/><path class="ygrid crisp" transform="translate(0,140.67000000000002)" d="M50,0h1020" style="stroke: rgb(255, 255, 255); stroke-opacity: 1; stroke-width: 1px;"/><path class="ygrid crisp" transform="translate(0,98.13)" d="M50,0h1020" style="stroke: rgb(255, 255, 255); stroke-opacity: 1; stroke-width: 1px;"/></g></g><g class="zerolinelayer"/><path class="xlines-below"/><path class="ylines-below"/><g class="overlines-below"/><g class="xaxislayer-below"/><g class="yaxislayer-below"/><g class="overaxes-below"/><g class="plot" transform="translate(50,60)" clip-path="url(#clipe51e7axyplot)"><g class="scatterlayer mlayer"><g class="trace scatter tracef8ef75" style="stroke-miterlimit: 2; opacity: 1;"><g class="fills"/><g class="errorbars"/><g class="lines"><path class="js-line" d="M0,40.35L5.75,37.79L7.67,38.24L9.59,39.04L11.5,38.79L13.42,37.96L19.17,38.78L26.84,37.59L32.59,39.17L34.51,38.49L36.43,39.36L38.35,38.84L40.26,44.56L47.93,43.56L49.85,43.8L51.77,43.64L53.68,41.73L59.44,39.41L61.35,41.85L63.27,39.91L65.19,43.79L67.11,42.16L72.86,43.19L74.77,43.21L76.69,47.27L78.61,45.69L80.53,48.48L86.28,48.67L88.2,43.97L90.11,45.07L92.03,43.02L93.95,38.7L99.7,40.2L101.62,39.6L103.53,42.25L107.37,40.27L113.12,42.07L115.04,40.34L116.95,36.8L118.87,35.58L120.79,37.99L126.54,37.88L128.46,36.26L130.38,33.4L132.29,32.54L134.21,32.02L139.96,31.53L141.88,32.51L143.8,30.42L145.71,29.39L147.63,31.43L153.38,33.94L155.3,32.64L157.22,32.82L159.14,31.12L161.05,27.47L166.8,26.94L170.64,27.94L172.56,29.92L174.47,29.02L180.23,33.72L184.06,35.59L185.98,34.2L187.89,35.35L193.65,31.63L195.56,32.68L197.48,29.66L199.4,28.07L201.32,31.12L207.07,28.34L208.98,30.71L214.74,42.79L222.41,49.76L224.32,51.72L226.24,49.86L228.16,52.82L233.91,50.66L237.74,53.46L239.66,48.49L241.58,46.61L247.33,45.59L249.25,50.96L251.17,51.11L260.75,50L262.67,46.33L264.59,45.57L266.5,47.94L268.42,48.84L276.09,48.75L278.01,48.88L279.92,50.54L281.84,48.43L287.59,44.78L289.51,41.84L291.43,42.73L293.35,42.45L295.26,46.61L302.93,45.36L304.85,42.34L308.68,47.98L314.44,49.15L316.35,45.53L318.27,45.93L320.19,44.81L322.11,47.87L327.86,51.12L329.77,43.39L331.69,45.25L333.61,44.67L345.11,41.91L347.03,42.11L348.95,42.98L354.7,39.61L356.62,36.41L358.53,37.9L362.37,38.13L368.12,36.44L371.95,37.07L373.87,34.13L375.79,37.02L381.54,35.05L385.38,34.05L387.29,34.72L389.21,32.22L394.96,31.85L398.8,30.88L400.71,31.3L402.63,35.2L408.38,37.34L412.22,40.02L414.14,39.76L416.05,36.73L421.8,38.42L423.72,38.38L425.64,41.31L427.56,40.7L429.47,44.4L435.23,43.58L437.14,41.66L442.89,38.74L448.65,38.09L452.48,42.37L454.4,38.91L456.32,40.86L463.98,39.69L465.9,40.79L467.82,36.74L469.74,35.89L475.49,37.89L479.32,38.16L481.24,35.31L483.16,41.92L488.91,38.62L490.83,35.85L492.74,37.67L494.66,35.98L496.58,38L502.33,41.11L504.25,40.59L506.17,44.05L508.08,43.07L510,46.08L515.75,45.15L517.67,46.75L519.59,44.07L523.42,53.92L529.17,52.31L533.01,54.31L534.92,53.8L542.59,52.77L544.51,49.74L546.43,51.11L548.35,51.31L550.26,52.42L556.02,50.35L557.93,49.04L559.85,48.87L561.77,55.64L563.68,54.53L569.44,53.25L571.35,46.03L573.27,44.44L575.19,45.79L577.11,45.83L582.86,50.42L584.77,49.48L586.69,46.67L588.61,49.2L590.53,47.09L596.28,45.45L598.2,39.28L600.11,36.87L602.03,43.14L603.95,38.46L609.7,38.62L611.62,36.94L613.53,37.6L615.45,38.86L617.37,36.9L626.95,41.44L628.87,41.51L630.79,38.66L636.54,42.4L638.46,42.71L640.38,41.74L642.29,40L644.21,43.84L653.8,43.83L655.71,47.66L657.63,47.88L663.38,42.41L665.3,45.91L667.22,44.72L669.14,43.84L671.05,46.82L678.72,61.64L680.64,70.58L684.47,62.75L690.23,62.6L694.06,70.83L695.98,67.93L697.89,69.34L703.65,78.1L705.56,69.19L707.48,67.77L717.07,85.6L718.98,95.47L720.9,101.75L722.82,118.71L724.74,126.33L730.49,101.86L732.41,100.22L734.32,114.74L736.24,105.42L738.16,109.6L743.91,100.93L745.83,106.04L747.74,113.49L749.66,111.44L751.58,119.3L757.33,124.62L759.25,105.19L761.17,110.14L770.75,106.08L772.67,101.75L776.5,118.07L778.42,111.05L784.17,110.02L786.09,114.8L788.01,122.84L789.92,111.7L791.84,117.16L797.59,121.16L799.51,117.32L801.43,129.75L803.35,140.74L805.26,131.04L811.02,124.34L812.93,125.47L814.85,120.44L818.68,116.84L824.44,129.6L826.35,128.55L828.27,123.82L830.19,131.19L832.11,126.54L837.86,127.7L839.77,130.19L841.69,128.65L845.53,129.51L851.28,126.79L853.2,122.15L855.11,124.78L857.03,125.96L858.95,128.22L864.7,128.36L866.62,130.51L872.37,128.4L878.12,129.27L880.04,126.46L881.95,125.5L885.79,119.59L891.54,119.88L897.29,122.41L899.21,123.41L904.96,126.73L906.88,125.75L908.8,134.32L910.71,134.81L912.63,132.54L920.3,133.79L922.22,131.56L924.14,135.99L926.05,137.69L931.8,135.69L933.72,135.26L935.64,132.37L937.56,133.95L939.47,140.03L945.23,142.77L947.14,138.7L949.06,143.05L950.98,142.69L952.89,140.43L958.65,140.87L960.56,147.49L962.48,146L964.4,143.46L966.32,144.82L975.9,147.39L977.82,147.04L979.74,152.42L985.49,155.26L987.41,153.34L989.32,154.95L991.24,158.34L993.16,166.88L1000.83,176.43L1002.74,171.6L1004.66,173.86L1006.58,171.96L1012.33,175.2L1014.25,170.22L1018.08,167.36L1020,164.5" style="vector-effect: non-scaling-stroke; fill: none; stroke: rgb(99, 110, 250); stroke-opacity: 1; stroke-width: 2px; opacity: 1;"/></g><g class="points"/><g class="text"/></g><g class="trace scatter trace9fa289" style="stroke-miterlimit: 2; opacity: 1;"><g class="fills"/><g class="errorbars"/><g class="lines"><path class="js-line" d="M0,40.35L5.75,37.78L7.67,38.18L9.59,38.86L11.5,38.38L13.42,37.86L19.17,38.86L26.84,37.29L32.59,38.56L34.51,37.42L36.43,37.74L38.35,37.32L40.26,41.94L47.93,40.23L49.85,40.39L51.77,39.97L53.68,38.38L59.44,36.17L61.35,38.95L63.27,36.65L65.19,40.16L67.11,38.61L72.86,38.88L74.77,38.55L76.69,42.21L78.61,39.9L80.53,42.14L86.28,42.36L88.2,37.91L90.11,39.23L92.03,36.37L93.95,31.29L99.7,32.22L101.62,31.36L103.53,34.39L107.37,32.35L113.12,34.36L118.87,27.48L120.79,29.46L126.54,29.28L128.46,27.47L130.38,24.97L132.29,24.5L134.21,23.95L139.96,23.65L141.88,24.2L143.8,20.79L145.71,20.02L147.63,22.05L153.38,24.72L155.3,23.41L157.22,23.46L159.14,21.54L161.05,17.76L166.8,17.27L170.64,18.01L172.56,20.12L174.47,19.1L180.23,24L184.06,25.69L185.98,24.51L187.89,25.47L193.65,21.11L195.56,21.87L197.48,18.94L199.4,17.26L201.32,20.88L207.07,18.58L208.98,20.28L212.82,26.11L214.74,32.14L224.32,42.06L226.24,40.69L228.16,44.23L233.91,42L237.74,44.43L239.66,40.13L241.58,38.91L247.33,37.81L249.25,43.03L251.17,42.9L253.08,41.67L255,41.85L260.75,40.74L262.67,37.02L264.59,35.71L266.5,38.22L268.42,38.86L276.09,39.93L278.01,40.2L279.92,41.44L281.84,38.95L287.59,35.1L289.51,32.51L291.43,34.2L293.35,33.6L295.26,37.27L302.93,35.84L304.85,32.69L308.68,37.5L314.44,38.23L316.35,35.5L318.27,36.38L320.19,35.22L322.11,38.15L327.86,38.74L329.77,31.91L331.69,33.08L333.61,32.55L345.11,29.85L347.03,30.19L348.95,30.49L354.7,28.22L356.62,25.54L358.53,27.2L362.37,27.89L368.12,26.21L370.04,26.23L371.95,27.15L373.87,23.9L375.79,26.96L383.46,24.09L385.38,24.04L387.29,25.18L389.21,24.09L396.88,22.81L398.8,21.51L400.71,22.32L402.63,26.32L408.38,28.3L410.3,29.8L414.14,30.13L416.05,27.13L423.72,28.51L425.64,30.45L427.56,29.58L429.47,32.68L435.23,31.53L437.14,29.69L440.98,27.06L442.89,25.9L448.65,25.28L450.56,27.54L452.48,29.75L454.4,26.22L456.32,28.2L463.98,26.98L465.9,27.94L467.82,23.59L469.74,22.61L475.49,24.75L479.32,24.39L481.24,20.62L483.16,27.09L488.91,24.81L490.83,22.62L492.74,23.96L494.66,22.78L496.58,24.72L502.33,28.4L504.25,27.66L506.17,30.81L508.08,29.48L510,32.53L515.75,30.55L517.67,31.7L519.59,28.76L523.42,38.77L529.17,36.28L531.09,37.68L533.01,37.31L534.92,36.28L542.59,35.83L544.51,32.86L546.43,33.59L548.35,32.79L550.26,34.18L556.02,31.72L557.93,29.34L559.85,30.37L561.77,37.5L569.44,37.71L571.35,32.26L573.27,29.78L575.19,29.92L577.11,29.75L582.86,33.47L584.77,32.47L586.69,29.4L588.61,33.1L590.53,30.7L596.28,29.1L598.2,23.2L600.11,21L602.03,26.3L603.95,22.12L609.7,21.89L611.62,19.87L613.53,20.34L615.45,21.48L617.37,19.31L623.12,21.56L625.04,23.15L628.87,23.33L630.79,20.33L638.46,24.74L640.38,23.77L642.29,22.1L644.21,26.19L653.8,25.68L655.71,29.39L657.63,29.75L663.38,24.32L665.3,26.53L667.22,25.21L669.14,23.82L671.05,25.12L678.72,35.27L680.64,42.93L682.56,39.56L684.47,38.58L690.23,41.15L692.14,46.78L694.06,47.69L695.98,43.73L697.89,44.67L703.65,54.35L705.56,45.3L707.48,44.85L711.32,49.96L717.07,61.43L718.98,71.54L720.9,77.25L722.82,94.45L724.74,101.89L730.49,75.57L732.41,76.04L734.32,91.26L736.24,80.29L738.16,82.64L743.91,72.04L745.83,77.14L747.74,85.99L749.66,83.02L751.58,90.83L757.33,95.4L759.25,73.78L761.17,79.49L763.08,78.02L770.75,75.77L772.67,71.35L776.5,87.72L778.42,80.83L784.17,79.61L786.09,84.7L788.01,92.91L789.92,79.53L791.84,86.82L797.59,90.7L799.51,85.62L801.43,96.58L803.35,107.96L805.26,93.94L811.02,90.17L812.93,90.71L814.85,86.6L818.68,84.75L824.44,98.06L826.35,97.34L828.27,92.36L830.19,99.73L832.11,94.02L837.86,95.68L839.77,99.78L841.69,98.36L845.53,98.8L851.28,96.35L853.2,91.77L855.11,94.11L858.95,96.23L864.7,96.02L866.62,98.23L868.53,97.63L872.37,95.95L878.12,95.91L881.95,91.17L885.79,85.38L891.54,86.68L893.46,88.79L899.21,91.26L904.96,92.44L906.88,91.47L908.8,97.73L910.71,97.08L912.63,93.88L920.3,94.07L922.22,92.78L926.05,97.67L931.8,93.52L933.72,93.85L935.64,91.26L937.56,92.74L939.47,98.73L945.23,101.87L947.14,96.06L949.06,102.07L950.98,101.62L952.89,98.94L958.65,99.75L960.56,106.41L962.48,105.51L964.4,102.28L966.32,104.27L973.98,106.55L975.9,105.49L977.82,102.57L979.74,105.55L985.49,110.3L987.41,108.73L989.32,109.83L991.24,113.6L993.16,117.37L998.91,124.44L1000.83,128.03L1002.74,122.13L1004.66,123.73L1006.58,122.24L1012.33,127.23L1014.25,122.96L1016.17,121.92L1018.08,119.38L1020,116.52" style="vector-effect: non-scaling-stroke; fill: none; stroke: rgb(239, 85, 59); stroke-opacity: 1; stroke-width: 2px; opacity: 1;"/></g><g class="points"/><g class="text"/></g><g class="trace scatter tracedf2efc" style="stroke-miterlimit: 2; opacity: 1;"><g class="fills"/><g class="errorbars"/><g class="lines"><path class="js-line" d="M0,40.35L5.75,37.84L7.67,38.19L9.59,38.8L11.5,38.23L13.42,37.6L19.17,38.58L23.01,36.99L24.92,37.14L26.84,36.67L32.59,37.69L34.51,36.4L36.43,36.26L38.35,36L40.26,40.58L47.93,38.66L49.85,38.73L51.77,38.56L53.68,37.31L59.44,34.91L61.35,37.79L63.27,35.36L65.19,38.92L67.11,37.23L72.86,36.8L74.77,35.8L76.69,39.65L78.61,37.24L80.53,39.08L86.28,39.46L88.2,35.02L90.11,36.53L92.03,33.47L93.95,27.9L99.7,28.26L101.62,27.22L103.53,30.81L107.37,28.8L113.12,30.66L116.95,24.69L118.87,23.09L120.79,25.06L126.54,24.93L130.38,20.45L132.29,19.82L134.21,19.26L139.96,19.11L141.88,19.4L143.8,15.18L145.71,14.56L147.63,16.63L153.38,19.32L155.3,17.67L157.22,17.81L159.14,15.88L161.05,11.85L166.8,11.32L170.64,12.02L172.56,14.23L174.47,13.08L180.23,18.1L184.06,19.96L185.98,18.94L187.89,19.85L193.65,15.05L195.56,15.49L197.48,12.53L199.4,10.81L201.32,14.96L207.07,12.86L208.98,13.98L212.82,20.2L214.74,26.86L224.32,37.51L226.24,36.43L228.16,40.26L233.91,38.07L237.74,40.62L239.66,36.49L241.58,35.47L247.33,34.24L249.25,39.11L251.17,38.69L253.08,37.23L255,37.45L260.75,37.4L262.67,33.56L264.59,31.96L266.5,34.31L279.92,36.99L281.84,34.19L287.59,30.12L289.51,27.51L291.43,29.68L293.35,29.11L295.26,32.72L301.02,31.55L302.93,30.95L304.85,28.04L308.68,32.37L314.44,32.55L316.35,30.11L318.27,31.14L320.19,30.16L322.11,33.06L327.86,32.53L329.77,26.03L331.69,27.24L333.61,26.98L347.03,24.91L348.95,24.88L354.7,22.96L356.62,20.43L358.53,22.15L360.45,22.15L362.37,22.87L368.12,21.14L370.04,21.05L371.95,22.55L373.87,19.38L375.79,22.34L385.38,18.93L387.29,20.06L389.21,19.45L394.96,19L396.88,18.61L398.8,17.25L400.71,18.22L402.63,22.46L412.22,25.54L414.14,25.25L416.05,22.21L421.8,23.73L423.72,23.43L425.64,25.07L427.56,24.1L429.47,27.69L435.23,26.77L437.14,24.88L440.98,22.2L442.89,20.66L448.65,20.19L450.56,22.38L452.48,24.29L454.4,20.74L456.32,22.86L463.98,21.96L465.9,23.1L467.82,18.62L469.74,17.42L475.49,19.47L477.41,19.42L479.32,18.51L481.24,13.99L483.16,20.56L488.91,18.24L490.83,16.28L492.74,17.5L494.66,16.78L496.58,18.66L502.33,22.76L504.25,22.35L506.17,25.65L508.08,23.97L510,27.09L515.75,24.71L517.67,25.97L519.59,22.53L521.5,27.68L523.42,32.28L529.17,29.57L531.09,30.91L533.01,29.94L534.92,28.91L542.59,28.58L544.51,25.75L546.43,26.44L548.35,25.91L550.26,27.5L556.02,24.67L557.93,22.38L559.85,23.9L561.77,31.11L563.68,32.16L569.44,32.37L573.27,24.68L575.19,24.11L577.11,23.89L582.86,27.75L584.77,26.63L586.69,23.15L588.61,27.4L590.53,25.06L596.28,23.44L598.2,17.14L600.11,15.32L602.03,21.71L603.95,17.93L609.7,17.69L611.62,15.91L613.53,16.24L615.45,17.1L617.37,15L623.12,17.18L625.04,19.02L626.95,18.73L628.87,19.49L630.79,16.82L636.54,20.99L638.46,21.22L640.38,20.21L642.29,18.21L644.21,22.27L653.8,21.73L655.71,25.36L657.63,25.58L663.38,20.56L665.3,23.71L667.22,22.69L669.14,21.14L671.05,24.86L678.72,42.73L680.64,53.28L682.56,49.29L684.47,47.79L690.23,49.05L692.14,53.99L694.06,57.15L695.98,54.19L697.89,54.98L703.65,65.59L705.56,55.85L707.48,55.03L709.4,57.15L711.32,57.15L717.07,67.89L718.98,77.49L720.9,83.23L722.82,101.2L724.74,108.84L730.49,83.2L732.41,84.37L734.32,99.56L736.24,88.43L738.16,90.72L743.91,79.51L745.83,84.03L747.74,92.72L749.66,89.37L751.58,97.64L757.33,102.79L759.25,81.02L761.17,87.91L765,85.25L770.75,83.06L772.67,78.54L774.59,88.05L776.5,93.87L778.42,86.49L784.17,84.26L786.09,88.97L788.01,97.04L789.92,83.36L791.84,90.38L797.59,94.54L799.51,88.64L801.43,98.23L803.35,107.6L805.26,90.52L812.93,90.78L814.85,87.31L818.68,87.16L824.44,99.9L826.35,99.35L828.27,94.67L830.19,101.9L832.11,95.97L837.86,98.45L839.77,102.77L851.28,99.7L853.2,95.99L855.11,97.9L857.03,98.67L858.95,99.77L864.7,99.1L866.62,101.31L868.53,100.96L872.37,99.19L878.12,98.87L881.95,93.97L885.79,88.66L891.54,90.65L893.46,92.93L899.21,95.21L904.96,94.87L906.88,93.98L908.8,97.8L910.71,96.3L912.63,92.52L920.3,91.25L922.22,91.79L924.14,93.02L926.05,95.92L931.8,91.85L933.72,92.11L935.64,90.37L937.56,91.49L939.47,96.83L945.23,100.27L947.14,94.75L949.06,101.74L950.98,101.4L952.89,99.21L958.65,100.18L960.56,106.3L962.48,106.07L964.4,103.24L966.32,105.67L973.98,107.35L975.9,106.05L977.82,103.16L979.74,103.66L985.49,109.31L987.41,110.7L989.32,110.51L991.24,113.35L993.16,113.85L998.91,118.93L1000.83,122.03L1002.74,115.41L1004.66,117.71L1006.58,116.84L1012.33,122.48L1014.25,119.56L1016.17,119.31L1018.08,117.13L1020,113.61" style="vector-effect: non-scaling-stroke; fill: none; stroke: rgb(0, 204, 150); stroke-opacity: 1; stroke-width: 2px; opacity: 1;"/></g><g class="points"/><g class="text"/></g><g class="trace scatter trace2bc177" style="stroke-miterlimit: 2; opacity: 1;"><g class="fills"/><g class="errorbars"/><g class="lines"><path class="js-line" d="M0,40.35L5.75,37.88L7.67,38.24L9.59,38.88L11.5,38.34L13.42,37.67L19.17,38.53L23.01,36.81L24.92,36.96L26.84,36.39L32.59,37.37L34.51,36.08L36.43,35.93L38.35,35.77L40.26,40.53L49.85,38.8L51.77,38.91L59.44,35.47L61.35,38.45L63.27,35.98L65.19,39.62L67.11,37.69L72.86,36.9L74.77,35.66L76.69,39.68L78.61,37.37L80.53,39.15L86.28,39.47L88.2,35L90.11,36.71L92.03,33.75L93.95,28.1L99.7,28.39L101.62,27.3L103.53,31.14L107.37,29.16L113.12,31.05L116.95,24.78L118.87,23.08L120.79,24.97L126.54,24.72L132.29,19.34L134.21,19.05L141.88,19.27L143.8,14.78L145.71,14.12L147.63,16.18L153.38,18.67L155.3,16.94L157.22,17.16L159.14,15.29L161.05,11.14L166.8,10.63L170.64,11.3L172.56,13.56L174.47,12.35L180.23,17.31L184.06,19.46L185.98,18.49L187.89,19.52L193.65,14.61L195.56,15.03L197.48,12.18L199.4,10.55L201.32,15.22L207.07,13.16L208.98,13.99L212.82,20.48L214.74,27.38L224.32,37.97L226.24,36.98L228.16,40.75L233.91,38.67L237.74,41.12L239.66,37L241.58,35.98L247.33,34.71L249.25,39.38L251.17,38.8L253.08,37.42L255,37.8L260.75,38.32L262.67,34.36L264.59,32.66L266.5,34.96L276.09,36.77L278.01,36.92L279.92,37.71L281.84,34.8L287.59,30.84L289.51,27.98L291.43,30.29L293.35,29.75L295.26,33.31L301.02,32.19L302.93,31.5L304.85,28.73L308.68,32.75L314.44,32.67L316.35,30.28L318.27,31.44L320.19,30.58L322.11,33.47L327.86,32.8L329.77,26.47L331.69,27.86L333.61,27.59L345.11,25.36L347.03,25.77L348.95,25.76L354.7,23.32L356.62,20.7L358.53,22.38L362.37,23.41L368.12,21.54L370.04,21.52L371.95,23.22L373.87,20.09L375.79,22.84L385.38,19.23L387.29,20.24L389.21,19.56L394.96,19.26L396.88,19.03L398.8,17.6L400.71,18.62L402.63,23L410.3,25.47L412.22,25.4L414.14,24.72L416.05,21.86L421.8,23.45L423.72,23.05L425.64,24.82L427.56,23.83L429.47,27.76L435.23,27.1L439.06,23.25L440.98,22.45L442.89,20.82L448.65,20.46L452.48,24.37L454.4,20.85L456.32,23.09L463.98,22.29L465.9,23.54L467.82,19.01L469.74,17.69L475.49,19.74L477.41,19.72L479.32,18.5L481.24,13.92L483.16,20.72L488.91,18.38L490.83,16.62L492.74,17.74L494.66,16.84L496.58,18.59L502.33,22.76L504.25,22.7L506.17,26.07L508.08,24.29L510,27.53L515.75,25.12L517.67,26.5L519.59,23.17L521.5,28.42L523.42,32.95L529.17,30.24L531.09,31.26L533.01,30.06L534.92,29.12L542.59,28.71L544.51,25.78L546.43,26.66L548.35,26.3L550.26,28.06L556.02,25.22L557.93,23.19L559.85,24.81L561.77,31.55L563.68,32.85L569.44,32.83L573.27,24.93L575.19,24.32L577.11,24.18L582.86,28.3L584.77,27.05L586.69,23.55L588.61,28L590.53,25.8L596.28,24L598.2,17.44L600.11,15.98L602.03,22.84L603.95,19.1L609.7,18.83L611.62,17.14L613.53,17.65L615.45,18.29L617.37,16.11L623.12,18.26L625.04,20.28L626.95,20.06L628.87,21.12L630.79,18.45L636.54,22.75L638.46,22.88L640.38,21.83L642.29,19.46L644.21,23.42L651.88,22.24L653.8,22.72L655.71,26.49L657.63,26.67L663.38,21.76L665.3,25.53L669.14,23.39L671.05,28.35L678.72,50.22L680.64,61.94L682.56,57.6L684.47,55.69L690.23,56.3L692.14,60.42L694.06,64.91L695.98,62.65L697.89,63.16L703.65,74.23L705.56,64.4L707.48,63.3L709.4,64.9L711.32,64.27L717.07,74.37L718.98,83.61L720.9,89.24L722.82,107.34L724.74,115.24L730.49,90.02L732.41,90.85L734.32,106.03L736.24,95.25L738.16,97.76L743.91,86.7L745.83,90.96L747.74,99.33L749.66,95.56L751.58,103.85L757.33,109.4L759.25,87.9L761.17,95.37L765,92.38L770.75,89.81L772.67,85.19L774.59,94.58L776.5,100.32L778.42,92.71L784.17,90.19L786.09,94.62L788.01,102.62L789.92,89.15L791.84,95.78L797.59,99.96L799.51,93.69L801.43,102.57L803.35,110.43L805.26,92.63L812.93,94.71L814.85,91.5L818.68,91.83L824.44,104.18L826.35,103.79L828.27,99.17L830.19,106.2L832.11,100.4L837.86,103.21L839.77,107.32L841.69,107.71L843.61,106.85L845.53,106.61L851.28,104.6L853.2,101.25L855.11,102.96L858.95,104.78L864.7,103.95L866.62,106.39L868.53,106.04L872.37,104.32L878.12,103.84L881.95,99.12L885.79,93.99L891.54,96.05L893.46,98.11L897.29,100.18L899.21,100.3L906.88,98.59L908.8,101.68L910.71,100.08L912.63,96.09L920.3,93.95L922.22,95.16L924.14,96.39L926.05,99.2L931.8,95.49L933.72,95.56L935.64,94.09L937.56,95.11L939.47,100.11L945.23,103.45L947.14,98.51L949.06,105.67L950.98,105.33L952.89,103.4L958.65,104.58L960.56,110.42L962.48,110.52L964.4,108.06L966.32,110.39L973.98,111.87L975.9,110.6L977.82,108.18L979.74,107.85L985.49,113.68L987.41,116.29L989.32,115.66L991.24,118.15L993.16,117.91L998.91,122.04L1000.83,124.46L1002.74,117.6L1004.66,120.16L1006.58,119.71L1012.33,125.42L1014.25,123.05L1016.17,122.86L1018.08,121.21L1020,117.59" style="vector-effect: non-scaling-stroke; fill: none; stroke: rgb(171, 99, 250); stroke-opacity: 1; stroke-width: 2px; opacity: 1;"/></g><g class="points"/><g class="text"/></g><g class="trace scatter traceb380db" style="stroke-miterlimit: 2; opacity: 1;"><g class="fills"/><g class="errorbars"/><g class="lines"><path class="js-line" d="M0,40.35L5.75,37.8L7.67,38.2L9.59,38.77L11.5,38.25L13.42,37.55L19.17,38.47L23.01,36.64L24.92,36.74L26.84,36.02L32.59,37.05L34.51,35.88L36.43,35.62L38.35,35.49L40.26,40.04L49.85,38.2L51.77,38.26L59.44,34.58L61.35,37.76L63.27,35.38L65.19,39.16L67.11,37.32L72.86,36.48L74.77,35.03L76.69,39.18L78.61,36.71L80.53,38.25L86.28,38.61L88.2,34.32L90.11,35.85L92.03,33.12L93.95,27.52L99.7,27.68L101.62,26.53L103.53,30.6L107.37,28.6L113.12,30.5L116.95,24.15L118.87,22.42L120.79,24.1L126.54,23.79L132.29,18.39L134.21,18.01L141.88,18.46L143.8,14.17L145.71,13.44L147.63,15.65L153.38,18.33L155.3,16.58L157.22,16.73L159.14,14.98L161.05,10.91L166.8,10.36L170.64,11.09L172.56,13.39L174.47,12.28L180.23,17.13L184.06,19.39L185.98,18.45L187.89,19.58L193.65,14.61L195.56,14.83L197.48,11.92L199.4,10.35L201.32,15.08L207.07,13.01L208.98,13.88L212.82,20.67L214.74,27.82L224.32,38.45L226.24,37.25L228.16,41.02L233.91,39.03L237.74,41.57L239.66,37.52L241.58,36.43L247.33,35.19L249.25,39.87L251.17,39.32L253.08,37.91L255,38.24L260.75,39.12L262.67,35.18L264.59,33.58L266.5,35.77L276.09,37.4L278.01,37.48L279.92,38.28L281.84,35.29L287.59,31.33L289.51,28.51L291.43,30.82L293.35,30.47L295.26,34.17L301.02,33.03L302.93,32.35L304.85,29.61L308.68,33.79L314.44,33.73L316.35,31.27L318.27,32.64L320.19,31.83L322.11,34.83L327.86,34.4L329.77,28.08L331.69,29.69L333.61,29.48L345.11,27.14L347.03,27.54L348.95,27.53L354.7,25.29L356.62,22.59L358.53,24.12L362.37,24.87L368.12,23.06L370.04,23.13L371.95,24.92L373.87,21.91L375.79,23.98L385.38,20.56L387.29,21.55L389.21,20.97L394.96,20.63L396.88,20.6L398.8,19.29L400.71,20.19L402.63,24.33L412.22,26.75L414.14,25.99L416.05,23.1L421.8,24.63L423.72,24.11L425.64,26.12L427.56,25.06L429.47,29.11L435.23,28.38L437.14,26.32L440.98,23.49L442.89,21.84L448.65,21.44L450.56,23.6L452.48,25.48L454.4,21.96L456.32,24.3L463.98,23.62L465.9,24.97L467.82,20.53L469.74,19.24L475.49,21.28L477.41,21.44L479.32,20.21L481.24,15.56L483.16,22.31L488.91,19.86L490.83,18.1L492.74,19.42L494.66,18.51L502.33,24.26L504.25,24.34L506.17,27.69L508.08,25.8L510,29.17L515.75,26.94L517.67,28.31L519.59,25.05L523.42,34.78L529.17,32.11L531.09,33.08L533.01,31.88L534.92,30.9L542.59,30.55L544.51,27.64L546.43,28.53L548.35,28.37L550.26,30.26L556.02,27.46L557.93,25.42L559.85,26.96L561.77,33.52L563.68,34.79L569.44,34.78L573.27,27.04L575.19,26.66L577.11,26.53L582.86,30.61L584.77,29.11L586.69,25.65L588.61,30.08L590.53,27.86L596.28,26.11L598.2,19.43L600.11,18.21L602.03,25.24L603.95,21.38L609.7,20.93L611.62,19.41L613.53,19.86L615.45,20.47L617.37,18.3L623.12,20.49L625.04,22.52L626.95,22.25L628.87,23.4L630.79,20.81L636.54,25.1L638.46,25.14L640.38,24.07L642.29,21.66L644.21,25.49L653.8,24.51L655.71,28.43L657.63,28.45L663.38,23.69L665.3,27.61L667.22,26.97L669.14,25.54L671.05,30.76L678.72,54.14L680.64,66.43L682.56,61.83L684.47,59.77L690.23,60.25L692.14,64.1L694.06,68.97L695.98,67.11L697.89,67.58L703.65,78.88L705.56,68.9L707.48,67.25L709.4,68.47L711.32,67.92L717.07,77.86L718.98,86.91L720.9,92.84L722.82,111.3L724.74,119.65L730.49,94.52L732.41,95.3L734.32,110.58L736.24,99.93L738.16,102.49L743.91,91.37L745.83,95.75L747.74,104L749.66,100.19L751.58,108.48L757.33,114.02L759.25,92.58L761.17,100.31L765,97.18L770.75,94.5L772.67,90.02L774.59,99.37L776.5,105.09L778.42,97.42L784.17,94.71L786.09,99.24L788.01,107.04L789.92,93.93L791.84,100.26L797.59,104.57L799.51,98.42L801.43,107.24L803.35,115.31L805.26,97.65L812.93,99.83L814.85,96.56L818.68,97.01L824.44,109.11L826.35,108.84L828.27,104.37L830.19,111.42L832.11,105.69L837.86,108.48L839.77,112.39L841.69,112.84L843.61,111.76L845.53,111.41L851.28,109.44L853.2,106.31L855.11,107.92L857.03,108.36L858.95,109.69L864.7,108.87L866.62,111.31L868.53,111.01L872.37,109.26L878.12,109.29L880.04,106.46L881.95,104.8L885.79,99.95L891.54,101.96L893.46,103.8L899.21,105.64L904.96,104.89L906.88,103.91L908.8,106.93L910.71,105.3L912.63,101.48L920.3,99.41L922.22,100.63L926.05,104.31L931.8,101.07L933.72,100.99L935.64,99.51L937.56,100.53L939.47,105.52L945.23,108.62L947.14,103.82L949.06,110.89L950.98,110.43L952.89,108.69L958.65,110.42L960.56,116.11L962.48,116.37L964.4,113.98L966.32,116.42L973.98,118.25L975.9,117.18L977.82,115.11L979.74,114.72L987.41,122.86L989.32,122.16L991.24,124.63L993.16,124.76L1000.83,130.49L1002.74,123.67L1004.66,126.87L1006.58,126.31L1012.33,132.18L1014.25,130.05L1016.17,130.12L1018.08,128.68L1020,124.66" style="vector-effect: non-scaling-stroke; fill: none; stroke: rgb(255, 161, 90); stroke-opacity: 1; stroke-width: 2px; opacity: 1;"/></g><g class="points"/><g class="text"/></g><g class="trace scatter trace5f72b6" style="stroke-miterlimit: 2; opacity: 1;"><g class="fills"/><g class="errorbars"/><g class="lines"><path class="js-line" d="M0,40.35L5.75,36.26L7.67,37.12L9.59,38.81L11.5,38.67L13.42,36.72L19.17,37.2L21.09,34.63L23.01,36.45L24.92,37.81L26.84,36.15L36.43,40.41L38.35,40.49L40.26,48.29L46.02,47.34L47.93,45.01L49.85,45.03L51.77,45.11L53.68,42.24L59.44,40.89L61.35,42.54L63.27,39.62L65.19,47.32L67.11,46.74L72.86,47.84L74.77,45.34L76.69,53.02L78.61,53.73L80.53,58.49L86.28,59.66L88.2,52.87L92.03,57.06L93.95,55.64L99.7,60.28L101.62,59.18L103.53,63.67L107.37,59.8L113.12,64.85L115.04,60.28L116.95,53.24L118.87,52.77L120.79,51.49L126.54,52.71L128.46,54.11L130.38,49.93L132.29,46.21L134.21,46.09L139.96,43.93L141.88,50.19L145.71,48.38L147.63,52.17L153.38,55.84L155.3,54.45L157.22,54.99L159.14,54.17L161.05,49.81L166.8,47.7L170.64,47.66L172.56,51.75L174.47,51.61L180.23,53.76L184.06,58.46L185.98,58.19L187.89,63.65L193.65,63.07L195.56,68.14L197.48,65.03L199.4,62.52L201.32,67.77L207.07,64.12L208.98,70.01L210.9,70.75L212.82,77.28L214.74,78.55L222.41,81.28L224.32,74.92L226.24,72.61L228.16,76.26L233.91,72.5L235.83,70.45L237.74,71.25L239.66,66.83L241.58,64.86L247.33,67.16L249.25,75.03L251.17,76.41L253.08,75.41L255,76.79L260.75,75.56L264.59,68.92L266.5,72.65L268.42,73.26L276.09,73.49L278.01,71.58L279.92,74.62L281.84,72.56L287.59,68.54L289.51,66.1L291.43,65.9L293.35,68.28L295.26,75L301.02,75.16L302.93,76.12L304.85,75.24L306.77,79.81L308.68,82.93L314.44,86.19L316.35,77.33L318.27,78.32L320.19,77.57L322.11,81.71L327.86,81.26L329.77,72.31L331.69,78.55L333.61,72.98L341.28,69L343.2,69.34L348.95,76.06L354.7,75.08L356.62,66.75L358.53,67.72L362.37,67.7L368.12,67.64L371.95,69.45L373.87,68.29L375.79,73.75L381.54,74.24L383.46,72.96L385.38,67.49L387.29,67.47L389.21,62.6L394.96,63.12L396.88,65.35L398.8,64.43L400.71,62.61L402.63,61.7L408.38,62.12L412.22,63.22L414.14,59.18L416.05,58.16L421.8,60.04L423.72,58.95L425.64,63.35L427.56,62.23L429.47,64.8L435.23,62.03L437.14,62.97L440.98,59.55L442.89,59.68L448.65,58.8L450.56,63.04L452.48,67.88L454.4,67.36L456.32,70.47L463.98,69L467.82,66.92L469.74,67.09L475.49,69.95L477.41,72.1L479.32,72.36L481.24,67.81L483.16,76.2L488.91,74.7L490.83,74.5L492.74,78.88L494.66,77.66L496.58,74.13L502.33,74.94L504.25,77.26L506.17,80.05L508.08,79.32L510,84.01L515.75,84.02L517.67,84.76L519.59,84.67L521.5,92.29L523.42,94.57L531.09,93.81L533.01,97.35L534.92,95.8L542.59,97L544.51,93.76L546.43,98.8L548.35,97.07L550.26,99.8L556.02,100.76L557.93,102.73L561.77,92.44L563.68,91.37L569.44,92L571.35,89.12L573.27,88.49L575.19,94.51L577.11,94.05L582.86,99.15L586.69,89.52L588.61,93.9L590.53,95L596.28,95.89L598.2,88.84L600.11,87.98L602.03,92.76L603.95,86.32L609.7,85.3L611.62,88.27L613.53,90.6L615.45,88.84L617.37,87.9L623.12,91.74L625.04,94.52L626.95,93.06L628.87,92.79L630.79,88.58L636.54,93.72L638.46,93.15L640.38,91.25L642.29,86.72L644.21,90.37L651.88,90.94L653.8,90.6L655.71,97.93L657.63,97.24L663.38,91.07L665.3,97.03L667.22,96.22L669.14,92.71L671.05,92.96L676.8,103.69L678.72,100.68L680.64,110.24L682.56,101.52L684.47,93.67L690.23,101.6L692.14,105.04L694.06,105.66L697.89,98.89L703.65,115.43L705.56,105.11L707.48,105.53L709.4,112.94L711.32,116.29L717.07,124.15L718.98,134.97L720.9,138.99L722.82,153.43L724.74,156.15L730.49,136.23L732.41,137.86L734.32,153.45L736.24,144.92L738.16,147.62L743.91,138.83L745.83,143.76L747.74,154.7L749.66,151.04L751.58,157.69L757.33,162.01L759.25,143.09L761.17,144.67L765,137.56L770.75,137.67L772.67,131.18L774.59,141.51L776.5,150.95L778.42,145.67L784.17,147.23L786.09,150.99L788.01,159.73L789.92,147.98L791.84,155.17L797.59,159.93L799.51,156.71L801.43,165.8L803.35,175.27L805.26,164.76L811.02,156.32L812.93,155.55L814.85,150.29L818.68,148.11L824.44,162.57L826.35,156.83L828.27,153.16L830.19,157.74L832.11,152.23L837.86,145.88L839.77,151.04L841.69,149.55L843.61,153.73L845.53,152.35L851.28,153.74L853.2,146.09L855.11,148.21L857.03,152.88L864.7,154.69L866.62,156.82L868.53,155.78L872.37,154.78L878.12,155.45L880.04,151.53L885.79,143.74L891.54,145.48L893.46,144.15L895.38,149.37L897.29,149.95L899.21,153L906.88,156.21L908.8,161.49L910.71,161.23L912.63,159.76L920.3,166.83L922.22,160.89L924.14,163.13L926.05,164.1L931.8,163.28L933.72,162.03L935.64,157.76L937.56,162.58L939.47,165.73L945.23,167.09L947.14,164.08L949.06,166.67L950.98,164.4L952.89,159.78L958.65,159.98L960.56,168.11L962.48,167.03L964.4,167.18L973.98,175.26L975.9,175.2L985.49,184.57L987.41,179.55L991.24,183.14L993.16,185.68L998.91,192.05L1000.83,192.84L1002.74,189.66L1004.66,195.64L1006.58,194.95L1012.33,196.65L1014.25,188.58L1016.17,188.5L1018.08,183.4L1020,182.25" style="vector-effect: non-scaling-stroke; fill: none; stroke: rgb(254, 203, 82); stroke-opacity: 1; stroke-width: 2px; opacity: 1;"/></g><g class="points"/><g class="text"/></g></g></g><g class="overplot"/><path class="xlines-above crisp" d="M0,0" style="fill: none;"/><path class="ylines-above crisp" d="M0,0" style="fill: none;"/><g class="overlines-above"/><g class="xaxislayer-above"><g class="xtick"><text text-anchor="middle" x="0" y="280" transform="translate(115.19,0)" style="font-family: 'Open Sans', verdana, arial, sans-serif; font-size: 12px; fill: rgb(42, 63, 95); fill-opacity: 1; white-space: pre; opacity: 1;">Nov 2007</text></g><g class="xtick"><text text-anchor="middle" x="0" y="280" style="font-family: 'Open Sans', verdana, arial, sans-serif; font-size: 12px; fill: rgb(42, 63, 95); fill-opacity: 1; white-space: pre; opacity: 1;" transform="translate(232.14,0)">Jan 2008</text></g><g class="xtick"><text text-anchor="middle" x="0" y="280" style="font-family: 'Open Sans', verdana, arial, sans-serif; font-size: 12px; fill: rgb(42, 63, 95); fill-opacity: 1; white-space: pre; opacity: 1;" transform="translate(347.18,0)">Mar 2008</text></g><g class="xtick"><text text-anchor="middle" x="0" y="280" style="font-family: 'Open Sans', verdana, arial, sans-serif; font-size: 12px; fill: rgb(42, 63, 95); fill-opacity: 1; white-space: pre; opacity: 1;" transform="translate(464.14,0)">May 2008</text></g><g class="xtick"><text text-anchor="middle" x="0" y="280" style="font-family: 'Open Sans', verdana, arial, sans-serif; font-size: 12px; fill: rgb(42, 63, 95); fill-opacity: 1; white-space: pre; opacity: 1;" transform="translate(581.09,0)">Jul 2008</text></g><g class="xtick"><text text-anchor="middle" x="0" y="280" style="font-family: 'Open Sans', verdana, arial, sans-serif; font-size: 12px; fill: rgb(42, 63, 95); fill-opacity: 1; white-space: pre; opacity: 1;" transform="translate(699.96,0)">Sep 2008</text></g><g class="xtick"><text text-anchor="middle" x="0" y="280" style="font-family: 'Open Sans', verdana, arial, sans-serif; font-size: 12px; fill: rgb(42, 63, 95); fill-opacity: 1; white-space: pre; opacity: 1;" transform="translate(816.92,0)">Nov 2008</text></g><g class="xtick"><text text-anchor="middle" x="0" y="280" style="font-family: 'Open Sans', verdana, arial, sans-serif; font-size: 12px; fill: rgb(42, 63, 95); fill-opacity: 1; white-space: pre; opacity: 1;" transform="translate(933.87,0)">Jan 2009</text></g><g class="xtick"><text text-anchor="middle" x="0" y="280" style="font-family: 'Open Sans', verdana, arial, sans-serif; font-size: 12px; fill: rgb(42, 63, 95); fill-opacity: 1; white-space: pre; opacity: 1;" transform="translate(1046.99,0)">Mar 2009</text></g></g><g class="yaxislayer-above"><g class="ytick"><text text-anchor="end" x="49" y="4.199999999999999" transform="translate(0,225.75)" style="font-family: 'Open Sans', verdana, arial, sans-serif; font-size: 12px; fill: rgb(42, 63, 95); fill-opacity: 1; white-space: pre; opacity: 1;">8k</text></g><g class="ytick"><text text-anchor="end" x="49" y="4.199999999999999" style="font-family: 'Open Sans', verdana, arial, sans-serif; font-size: 12px; fill: rgb(42, 63, 95); fill-opacity: 1; white-space: pre; opacity: 1;" transform="translate(0,183.20999999999998)">10k</text></g><g class="ytick"><text text-anchor="end" x="49" y="4.199999999999999" style="font-family: 'Open Sans', verdana, arial, sans-serif; font-size: 12px; fill: rgb(42, 63, 95); fill-opacity: 1; white-space: pre; opacity: 1;" transform="translate(0,140.67000000000002)">12k</text></g><g class="ytick"><text text-anchor="end" x="49" y="4.199999999999999" style="font-family: 'Open Sans', verdana, arial, sans-serif; font-size: 12px; fill: rgb(42, 63, 95); fill-opacity: 1; white-space: pre; opacity: 1;" transform="translate(0,98.13)">14k</text></g></g><g class="overaxes-above"/></g></g><g class="polarlayer"/><g class="ternarylayer"/><g class="geolayer"/><g class="funnelarealayer"/><g class="pielayer"/><g class="iciclelayer"/><g class="treemaplayer"/><g class="sunburstlayer"/><g class="glimages"/><defs id="topdefs-e51e7a"><g class="clips"/><clipPath id="legende51e7a"><rect width="136" height="200" x="0" y="0"/></clipPath></defs><g class="layer-above"><g class="imagelayer"/><g class="shapelayer"/></g><g class="infolayer"><g class="legend" pointer-events="all" transform="translate(1090.4,60)"><rect class="bg" shape-rendering="crispEdges" width="136" height="200" x="0" y="0" style="stroke: rgb(68, 68, 68); stroke-opacity: 1; fill: rgb(255, 255, 255); fill-opacity: 1; stroke-width: 0px;"/><g class="scrollbox" transform="" clip-path="url(#legende51e7a)"><g class="groups"><g class="traces" transform="translate(0,14.5)" style="opacity: 1;"><text class="legendtext" text-anchor="start" x="40" y="4.680000000000001" style="font-family: 'Open Sans', verdana, arial, sans-serif; font-size: 12px; fill: rgb(42, 63, 95); fill-opacity: 1; white-space: pre;">Conic γ=0.1</text><g class="layers" style="opacity: 1;"><g class="legendfill"/><g class="legendlines"><path class="js-line" d="M5,0h30" style="fill: none; stroke: rgb(99, 110, 250); stroke-opacity: 1; stroke-width: 2px;"/></g><g class="legendsymbols"><g class="legendpoints"/></g></g><rect class="legendtoggle" x="0" y="-9.5" width="130.8186798095703" height="19" style="fill: rgb(0, 0, 0); fill-opacity: 0;"/></g><g class="traces" transform="translate(0,33.5)" style="opacity: 1;"><text class="legendtext" text-anchor="start" x="40" y="4.680000000000001" style="font-family: 'Open Sans', verdana, arial, sans-serif; font-size: 12px; fill: rgb(42, 63, 95); fill-opacity: 1; white-space: pre;">Conic γ=3.275</text><g class="layers" style="opacity: 1;"><g class="legendfill"/><g class="legendlines"><path class="js-line" d="M5,0h30" style="fill: none; stroke: rgb(239, 85, 59); stroke-opacity: 1; stroke-width: 2px;"/></g><g class="legendsymbols"><g class="legendpoints"/></g></g><rect class="legendtoggle" x="0" y="-9.5" width="130.8186798095703" height="19" style="fill: rgb(0, 0, 0); fill-opacity: 0;"/></g><g class="traces" transform="translate(0,52.5)" style="opacity: 1;"><text class="legendtext" text-anchor="start" x="40" y="4.680000000000001" style="font-family: 'Open Sans', verdana, arial, sans-serif; font-size: 12px; fill: rgb(42, 63, 95); fill-opacity: 1; white-space: pre;">Conic γ=6.45</text><g class="layers" style="opacity: 1;"><g class="legendfill"/><g class="legendlines"><path class="js-line" d="M5,0h30" style="fill: none; stroke: rgb(0, 204, 150); stroke-opacity: 1; stroke-width: 2px;"/></g><g class="legendsymbols"><g class="legendpoints"/></g></g><rect class="legendtoggle" x="0" y="-9.5" width="130.8186798095703" height="19" style="fill: rgb(0, 0, 0); fill-opacity: 0;"/></g><g class="traces" transform="translate(0,71.5)" style="opacity: 1;"><text class="legendtext" text-anchor="start" x="40" y="4.680000000000001" style="font-family: 'Open Sans', verdana, arial, sans-serif; font-size: 12px; fill: rgb(42, 63, 95); fill-opacity: 1; white-space: pre;">Conic γ=9.625</text><g class="layers" style="opacity: 1;"><g class="legendfill"/><g class="legendlines"><path class="js-line" d="M5,0h30" style="fill: none; stroke: rgb(171, 99, 250); stroke-opacity: 1; stroke-width: 2px;"/></g><g class="legendsymbols"><g class="legendpoints"/></g></g><rect class="legendtoggle" x="0" y="-9.5" width="130.8186798095703" height="19" style="fill: rgb(0, 0, 0); fill-opacity: 0;"/></g><g class="traces" transform="translate(0,90.5)" style="opacity: 1;"><text class="legendtext" text-anchor="start" x="40" y="4.680000000000001" style="font-family: 'Open Sans', verdana, arial, sans-serif; font-size: 12px; fill: rgb(42, 63, 95); fill-opacity: 1; white-space: pre;">Conic γ=12.8</text><g class="layers" style="opacity: 1;"><g class="legendfill"/><g class="legendlines"><path class="js-line" d="M5,0h30" style="fill: none; stroke: rgb(255, 161, 90); stroke-opacity: 1; stroke-width: 2px;"/></g><g class="legendsymbols"><g class="legendpoints"/></g></g><rect class="legendtoggle" x="0" y="-9.5" width="130.8186798095703" height="19" style="fill: rgb(0, 0, 0); fill-opacity: 0;"/></g><g class="traces" transform="translate(0,109.5)" style="opacity: 0.5;"><text class="legendtext" text-anchor="start" x="40" y="4.680000000000001" style="font-family: 'Open Sans', verdana, arial, sans-serif; font-size: 12px; fill: rgb(42, 63, 95); fill-opacity: 1; white-space: pre;">Mean-Variance</text><g class="layers" style="opacity: 1;"><g class="legendfill"/><g class="legendlines"><path class="js-line" d="M5,0h30" style="fill: none; stroke: rgb(25, 211, 243); stroke-opacity: 1; stroke-width: 2px;"/></g><g class="legendsymbols"><g class="legendpoints"/></g></g><rect class="legendtoggle" x="0" y="-9.5" width="130.8186798095703" height="19" style="fill: rgb(0, 0, 0); fill-opacity: 0;"/></g><g class="traces" transform="translate(0,128.5)" style="opacity: 0.5;"><text class="legendtext" text-anchor="start" x="40" y="4.680000000000001" style="font-family: 'Open Sans', verdana, arial, sans-serif; font-size: 12px; fill: rgb(42, 63, 95); fill-opacity: 1; white-space: pre;">Mean-VaR</text><g class="layers" style="opacity: 1;"><g class="legendfill"/><g class="legendlines"><path class="js-line" d="M5,0h30" style="fill: none; stroke: rgb(255, 102, 146); stroke-opacity: 1; stroke-width: 2px;"/></g><g class="legendsymbols"><g class="legendpoints"/></g></g><rect class="legendtoggle" x="0" y="-9.5" width="130.8186798095703" height="19" style="fill: rgb(0, 0, 0); fill-opacity: 0;"/></g><g class="traces" transform="translate(0,147.5)" style="opacity: 0.5;"><text class="legendtext" text-anchor="start" x="40" y="4.680000000000001" style="font-family: 'Open Sans', verdana, arial, sans-serif; font-size: 12px; fill: rgb(42, 63, 95); fill-opacity: 1; white-space: pre;">Mean-CVaR 95%</text><g class="layers" style="opacity: 1;"><g class="legendfill"/><g class="legendlines"><path class="js-line" d="M5,0h30" style="fill: none; stroke: rgb(182, 232, 128); stroke-opacity: 1; stroke-width: 2px;"/></g><g class="legendsymbols"><g class="legendpoints"/></g></g><rect class="legendtoggle" x="0" y="-9.5" width="130.8186798095703" height="19" style="fill: rgb(0, 0, 0); fill-opacity: 0;"/></g><g class="traces" transform="translate(0,166.5)" style="opacity: 0.5;"><text class="legendtext" text-anchor="start" x="40" y="4.680000000000001" style="font-family: 'Open Sans', verdana, arial, sans-serif; font-size: 12px; fill: rgb(42, 63, 95); fill-opacity: 1; white-space: pre;">Mean-CVaR 99%</text><g class="layers" style="opacity: 1;"><g class="legendfill"/><g class="legendlines"><path class="js-line" d="M5,0h30" style="fill: none; stroke: rgb(255, 151, 255); stroke-opacity: 1; stroke-width: 2px;"/></g><g class="legendsymbols"><g class="legendpoints"/></g></g><rect class="legendtoggle" x="0" y="-9.5" width="130.8186798095703" height="19" style="fill: rgb(0, 0, 0); fill-opacity: 0;"/></g><g class="traces" transform="translate(0,185.5)" style="opacity: 1;"><text class="legendtext" text-anchor="start" x="40" y="4.680000000000001" style="font-family: 'Open Sans', verdana, arial, sans-serif; font-size: 12px; fill: rgb(42, 63, 95); fill-opacity: 1; white-space: pre;">DJIA</text><g class="layers" style="opacity: 1;"><g class="legendfill"/><g class="legendlines"><path class="js-line" d="M5,0h30" style="fill: none; stroke: rgb(254, 203, 82); stroke-opacity: 1; stroke-width: 2px;"/></g><g class="legendsymbols"><g class="legendpoints"/></g></g><rect class="legendtoggle" x="0" y="-9.5" width="130.8186798095703" height="19" style="fill: rgb(0, 0, 0); fill-opacity: 0;"/></g></g></g><rect class="scrollbar" rx="20" ry="3" width="0" height="0" x="0" y="0" style="fill: rgb(128, 139, 164); fill-opacity: 1;"/></g><g class="g-gtitle"/><g class="g-xtitle"/><g class="g-ytitle"/></g></svg>