<svg class="main-svg" xmlns="http://www.w3.org/2000/svg" xmlns:xlink="http://www.w3.org/1999/xlink" width="1238" height="317" style=""><rect x="0" y="0" width="1238" height="317" style="fill: rgb(255, 255, 255); fill-opacity: 1;"/><defs id="defs-10704c"><g class="clips"><clipPath id="clip10704cxyplot" class="plotclip"><rect width="1020" height="207"/></clipPath><clipPath class="axesclip" id="clip10704cx"><rect x="50" y="0" width="1020" height="317"/></clipPath><clipPath class="axesclip" id="clip10704cy"><rect x="0" y="60" width="1238" height="207"/></clipPath><clipPath class="axesclip" id="clip10704cxy"><rect x="50" y="60" width="1020" height="207"/></clipPath></g><g class="gradients"/><g class="patterns"/></defs><g class="bglayer"><rect class="bg" x="50" y="60" width="1020" height="207" style="fill: rgb(229, 236, 246); fill-opacity: 1; stroke-width: 0;"/></g><g class="layer-below"><g class="imagelayer"/><g class="shapelayer"/></g><g class="cartesianlayer"><g class="subplot xy"><g class="layer-subplot"><g class="shapelayer"/><g class="imagelayer"/></g><g class="gridlayer"><g class="x"><path class="xgrid crisp" transform="translate(115.19,0)" d="M0,60v207" style="stroke: rgb(255, 255, 255); stroke-opacity: 1; stroke-width: 1px;"/><path class="xgrid crisp" transform="translate(232.14,0)" d="M0,60v207" style="stroke: rgb(255, 255, 255); stroke-opacity: 1; stroke-width: 1px;"/><path class="xgrid crisp" transform="translate(347.18,0)" d="M0,60v207" style="stroke: rgb(255, 255, 255); stroke-opacity: 1; stroke-width: 1px;"/><path class="xgrid crisp" transform="translate(464.14,0)" d="M0,60v207" style="stroke: rgb(255, 255, 255); stroke-opacity: 1; stroke-width: 1px;"/><path class="xgrid crisp" transform="translate(581.09,0)" d="M0,60v207" style="stroke: rgb(255, 255, 255); stroke-opacity: 1; stroke-width: 1px;"/><path class="xgrid crisp" transform="translate(699.96,0)" d="M0,60v207" style="stroke: rgb(255, 255, 255); stroke-opacity: 1; stroke-width: 1px;"/><path class="xgrid crisp" transform="translate(816.92,0)" d="M0,60v207" style="stroke: rgb(255, 255, 255); stroke-opacity: 1; stroke-width: 1px;"/><path class="xgrid crisp" transform="translate(933.87,0)" d="M0,60v207" style="stroke: rgb(255, 255, 255); stroke-opacity: 1; stroke-width: 1px;"/><path class="xgrid crisp" transform="translate(1046.99,0)" d="M0,60v207" style="stroke: rgb(255, 255, 255); stroke-opacity: 1; stroke-width: 1px;"/></g><g class="y"><path class="ygrid crisp" transform="translate(0,253.58)" d="M50,0h1020" style="stroke: rgb(255, 255, 255); stroke-opacity: 1; stroke-width: 1px;"/><path class="ygrid crisp" transform="translate(0,211.25)" d="M50,0h1020" style="stroke: rgb(255, 255, 255); stroke-opacity: 1; stroke-width: 1px;"/><path class="ygrid crisp" transform="translate(0,168.92000000000002)" d="M50,0h1020" style="stroke: rgb(255, 255, 255); stroke-opacity: 1; stroke-width: 1px;"/><path class="ygrid crisp" transform="translate(0,126.59)" d="M50,0h1020" style="stroke: rgb(255, 255, 255); stroke-opacity: 1; stroke-width: 1px;"/><path class="ygrid crisp" transform="translate(0,84.26)" d="M50,0h1020" style="stroke: rgb(255, 255, 255); stroke-opacity: 1; stroke-width: 1px;"/></g></g><g class="zerolinelayer"/><path class="xlines-below"/><path class="ylines-below"/><g class="overlines-below"/><g class="xaxislayer-below"/><g class="yaxislayer-below"/><g class="overaxes-below"/><g class="plot" transform="translate(50,60)" clip-path="url(#clip10704cxyplot)"><g class="scatterlayer mlayer"><g class="trace scatter trace34b70b" style="stroke-miterlimit: 2; opacity: 1;"><g class="fills"/><g class="errorbars"/><g class="lines"><path class="js-line" d="M0,26.47L5.75,23.64L7.67,24.1L9.59,25.08L11.5,24.71L13.42,23.6L19.17,24.36L21.09,23.18L23.01,23.22L24.92,23.95L26.84,23.19L34.51,24.66L36.43,24.04L38.35,23.66L40.26,29.14L51.77,25.91L53.68,23.99L59.44,22.32L61.35,24.8L63.27,22.54L65.19,26.99L67.11,25.92L72.86,26.42L74.77,24.87L76.69,29.59L78.61,27.37L80.53,30.34L86.28,30.4L88.2,24.82L90.11,25.98L92.03,24.66L93.95,20.51L99.7,22.13L101.62,20.74L103.53,24.15L107.37,21.67L113.12,24.35L116.95,16.75L118.87,16L120.79,17.29L126.54,17.44L128.46,16.56L130.38,14.06L132.29,12.47L134.21,12.88L139.96,11.55L141.88,14.32L143.8,11.35L145.71,10.92L147.63,13.75L153.38,16.72L159.14,15.03L161.05,11.12L166.8,10.35L170.64,10.85L172.56,13.6L174.47,13.1L184.06,19.78L185.98,19.37L187.89,21.77L193.65,18.34L195.56,19.74L197.48,16.3L199.4,15.05L201.32,20.42L207.07,17.45L208.98,20.43L210.9,22.04L212.82,25.65L214.74,29.66L222.41,35.35L226.24,32.97L228.16,37.4L233.91,34L235.83,34.34L237.74,35.82L239.66,31.33L241.58,29.47L247.33,30.47L249.25,36.31L251.17,36.25L253.08,34.68L255,35.4L260.75,33.77L262.67,30.71L264.59,28.73L266.5,32.11L268.42,32.44L276.09,32.56L278.01,31.96L279.92,33.49L281.84,31.43L287.59,27.75L289.51,25.14L291.43,25.93L293.35,27.36L295.26,32.02L302.93,30.13L304.85,27.93L308.68,33.29L314.44,34.64L316.35,29.27L318.27,29.5L320.19,28.64L322.11,32.26L327.86,30.33L329.77,23L331.69,25.38L333.61,22.75L343.2,20.69L345.11,21.31L348.95,23.4L354.7,21.75L356.62,17.26L358.53,19.57L370.04,18.76L371.95,19.45L373.87,17.02L375.79,20.6L383.46,18.7L385.38,16.78L387.29,17.54L389.21,15.57L396.88,15.7L398.8,14.82L400.71,15.06L402.63,17.31L408.38,19.02L410.3,20.85L412.22,20.76L414.14,19L416.05,17.39L421.8,18.73L423.72,18.46L425.64,21.52L427.56,21L429.47,22.83L439.06,18.81L440.98,16.93L442.89,16.27L448.65,15.78L452.48,21.84L454.4,18.7L456.32,20.58L463.98,19.29L465.9,20L467.82,16.41L469.74,16.28L475.49,18.68L477.41,19.26L479.32,18.36L481.24,14.9L483.16,22.15L488.91,21.03L490.83,18.59L492.74,21.27L494.66,19.85L496.58,20.1L502.33,22.91L504.25,23.49L506.17,26.9L508.08,25.89L510,29.04L517.67,28.17L519.59,25.82L523.42,36.42L529.17,35L533.01,35.58L534.92,33.92L542.59,34.01L544.51,30.7L546.43,33.33L548.35,31.93L550.26,33.37L556.02,32.28L559.85,27.92L561.77,31.09L569.44,32.84L571.35,28.47L573.27,26.41L575.19,28.17L577.11,27.36L582.86,31.02L586.69,25.9L588.61,28.77L590.53,27.17L596.28,25.91L598.2,19.69L600.11,17.94L602.03,22L603.95,16.94L611.62,16.43L613.53,17.47L615.45,17.53L617.37,15.77L623.12,18.57L625.04,20.46L626.95,19.98L628.87,20.52L630.79,16.51L636.54,20.91L638.46,21L640.38,19.54L642.29,17.61L644.21,22.13L653.8,22.19L655.71,26.76L657.63,26.25L663.38,20.44L665.3,23.81L667.22,22.42L669.14,19.65L671.05,19.18L676.8,24.1L678.72,23.44L680.64,30.99L682.56,25.35L684.47,24.09L690.23,31.18L692.14,35.36L694.06,34.9L695.98,30.02L697.89,28.44L703.65,41.58L705.56,31.69L707.48,32.22L709.4,37.16L717.07,50.82L718.98,61.4L720.9,66.76L722.82,84.57L724.74,91.27L730.49,66.17L732.41,68.81L734.32,83.51L736.24,73.35L738.16,76.43L743.91,66.97L745.83,70.22L747.74,79.57L749.66,77.79L751.58,85.03L757.33,89.36L759.25,69.58L761.17,75.26L765,70.22L770.75,69.17L772.67,64.64L774.59,73.95L776.5,81.15L778.42,74.51L784.17,75.32L786.09,80.78L788.01,88.85L789.92,74.5L791.84,83.38L797.59,87.82L799.51,83.61L801.43,93.72L803.35,105.51L805.26,92.32L811.02,86.24L812.93,85.93L814.85,82.3L818.68,79.8L824.44,95.39L826.35,93.11L828.27,88.18L830.19,95.1L832.11,88.8L837.86,86.98L839.77,91.95L841.69,90.53L843.61,93.43L845.53,92.86L851.28,92L853.2,85.31L857.03,90.09L858.95,90.83L864.7,91.58L866.62,93.81L872.37,91.75L878.12,92.39L880.04,88.5L881.95,86.37L885.79,81.17L891.54,82.59L893.46,83.31L895.38,86.06L897.29,86.68L899.21,88.7L904.96,90.63L906.88,89.44L908.8,95.2L910.71,94.37L912.63,92.48L920.3,97.14L922.22,93.25L924.14,94.75L926.05,97.24L931.8,94.62L933.72,93.08L935.64,89.23L937.56,91.67L939.47,96.97L945.23,99.69L947.14,95.45L949.06,99.07L950.98,97.38L952.89,93.12L958.65,94.47L960.56,102.65L962.48,101.09L964.4,97.84L966.32,100.49L973.98,106.08L975.9,105.04L977.82,104.22L979.74,106.41L985.49,112.18L987.41,107.44L989.32,109.01L991.24,112.63L1000.83,125.36L1002.74,120.23L1004.66,126.17L1006.58,125.03L1012.33,128.29L1014.25,121.75L1016.17,120.61L1018.08,115.79L1020,113.04" style="vector-effect: non-scaling-stroke; fill: none; stroke: rgb(99, 110, 250); stroke-opacity: 1; stroke-width: 2px; opacity: 1;"/></g><g class="points"/><g class="text"/></g><g class="trace scatter tracec5e736" style="stroke-miterlimit: 2; opacity: 1;"><g class="fills"/><g class="errorbars"/><g class="lines"><path class="js-line" d="M0,26.47L5.75,23.51L7.67,23.98L9.59,24.68L11.5,24.2L13.42,23.18L19.17,24.18L21.09,22.83L23.01,23.18L24.92,24.02L26.84,23.36L34.51,25.35L36.43,24.4L38.35,23.91L40.26,29.46L46.02,28.43L47.93,27.18L51.77,26.54L53.68,24.98L59.44,23.31L61.35,26.31L63.27,24.25L65.19,29.09L67.11,28.01L72.86,28.13L74.77,26.38L76.69,31.43L78.61,28.55L80.53,30.51L86.28,30.56L88.2,25.64L90.11,26.61L92.03,25.87L93.95,21.72L99.7,22.98L101.62,21.94L103.53,25.85L107.37,23.24L113.12,25.91L116.95,18.37L118.87,17.5L120.79,18.15L126.54,18.57L128.46,18.03L130.38,15.51L132.29,13.79L134.21,13.76L139.96,12.45L141.88,15.2L143.8,12.51L145.71,12.28L147.63,15.02L153.38,18.06L159.14,17.12L161.05,13.18L166.8,12.42L170.64,12.81L172.56,15.43L174.47,15.03L180.23,18.37L184.06,21.49L185.98,21.01L187.89,22.98L193.65,19.36L195.56,20.5L197.48,17.41L199.4,16.22L201.32,21.88L207.07,19.65L208.98,22.88L210.9,24.22L214.74,33.46L222.41,38.99L226.24,37.24L228.16,41.35L233.91,38.16L235.83,38.03L237.74,39.48L239.66,35.25L241.58,33.36L247.33,34.13L249.25,39.93L251.17,39.86L253.08,38.13L255,39.48L260.75,38.62L262.67,35.38L264.59,33.48L266.5,36.49L268.42,36.83L276.09,37.16L278.01,37.1L279.92,38.55L281.84,36.24L287.59,32.7L289.51,30.71L291.43,32.03L293.35,33.22L295.26,38.06L302.93,37.04L304.85,34.79L308.68,40.56L314.44,42.03L316.35,36.92L318.27,37.44L320.19,36.39L322.11,39.98L327.86,38.19L329.77,30.93L331.69,33.59L333.61,30.84L343.2,28.23L345.11,28.99L348.95,30.78L354.7,29.09L356.62,24.11L358.53,26.1L362.37,26.55L368.12,25.72L370.04,25.98L371.95,27.1L373.87,25.12L375.79,28.41L383.46,27.01L385.38,25.36L387.29,26.56L389.21,24.4L394.96,24.27L396.88,24.98L400.71,24.26L402.63,25.98L408.38,27.28L410.3,29.3L412.22,28.84L414.14,27L416.05,25.2L421.8,26.61L423.72,26.43L425.64,30.4L427.56,29.96L429.47,32.51L439.06,28.79L440.98,27.04L442.89,26.24L448.65,25.36L452.48,31.83L454.4,28.92L456.32,31.02L463.98,30.21L465.9,31.26L467.82,27.59L469.74,27.21L475.49,29.59L477.41,30.39L479.32,29.55L481.24,26.16L483.16,33.39L488.91,32.48L490.83,30.34L492.74,32.86L494.66,31.54L496.58,31.68L502.33,34.75L504.25,35.53L506.17,38.75L508.08,37.53L510,40.88L517.67,40.71L519.59,38.86L523.42,49.47L529.17,47.89L533.01,47.98L534.92,46.31L542.59,46.67L544.51,43.1L546.43,45.42L548.35,44.71L550.26,46.39L556.02,45.44L557.93,44.56L559.85,41.95L561.77,44.26L563.68,44.66L569.44,45.66L571.35,41.51L573.27,38.85L575.19,41.32L577.11,40.62L582.86,44.76L586.69,39.09L588.61,42.33L590.53,40.62L596.28,39.43L598.2,32.55L600.11,31.59L602.03,36.39L603.95,30.61L611.62,30.11L613.53,31.78L615.45,31.66L617.37,29.56L623.12,32.39L625.04,34.61L626.95,34.14L628.87,34.96L630.79,31.03L636.54,35.66L638.46,35.58L640.38,34.18L642.29,31.45L644.21,35.41L653.8,34.08L655.71,39.03L657.63,38.09L663.38,32.45L665.3,36.52L667.22,36.43L669.14,33.89L671.05,35.65L676.8,45.41L678.72,46.31L680.64,56.2L682.56,49.97L684.47,47.03L690.23,52.73L692.14,56.47L694.06,58.11L695.98,54.63L697.89,52.91L703.65,65.79L705.56,55.38L707.48,53.9L709.4,57.63L717.07,70.22L718.98,79.96L720.9,84.89L722.82,103.09L724.74,108.49L730.49,85.5L732.41,87.14L734.32,101.65L736.24,92.62L738.16,95.85L743.91,86.56L745.83,89.27L747.74,97.98L749.66,95.4L751.58,103.07L757.33,107.06L759.25,87.76L761.17,94.46L765,89.33L770.75,87.72L772.67,82.73L774.59,91.93L776.5,98.74L778.42,92L784.17,91.71L786.09,96.93L788.01,104.69L789.92,91.62L791.84,99.24L797.59,103.25L799.51,99.67L801.43,109.64L803.35,120.53L805.26,108.05L811.02,102.62L812.93,102.39L814.85,98.59L818.68,95.75L824.44,110.65L826.35,108.28L828.27,103.47L830.19,109.9L832.11,104.47L837.86,103.71L839.77,108.37L841.69,107.61L843.61,110.01L845.53,109.41L851.28,109.02L853.2,102.92L857.03,107.06L858.95,107.82L864.7,108.11L866.62,110.36L872.37,108.37L878.12,109.04L881.95,103.62L885.79,98.9L893.46,101.6L895.38,104.09L897.29,104.37L899.21,105.83L904.96,107.84L906.88,106.97L908.8,112.35L910.71,112.25L912.63,110.38L920.3,114.2L922.22,111.6L924.14,112.93L926.05,115.05L931.8,113.25L933.72,111.73L935.64,108.22L937.56,110.37L939.47,115.53L945.23,118.35L947.14,115.22L949.06,118.77L950.98,117.27L952.89,113.84L958.65,115.02L960.56,122.89L962.48,121.74L964.4,119.6L966.32,122.02L973.98,127.47L975.9,126.95L977.82,126.9L979.74,129.14L985.49,134.09L987.41,130.86L989.32,131.69L991.24,134.8L993.16,138.39L998.91,145.32L1000.83,147.03L1002.74,142.52L1004.66,148.41L1006.58,147.29L1012.33,150.03L1014.25,143.72L1016.17,143.08L1018.08,138.96L1020,135.5" style="vector-effect: non-scaling-stroke; fill: none; stroke: rgb(239, 85, 59); stroke-opacity: 1; stroke-width: 2px; opacity: 1;"/></g><g class="points"/><g class="text"/></g><g class="trace scatter trace870081" style="stroke-miterlimit: 2; opacity: 1;"><g class="fills"/><g class="errorbars"/><g class="lines"><path class="js-line" d="M0,26.47L5.75,23.54L7.67,23.88L9.59,24.38L11.5,23.99L13.42,22.86L19.17,23.87L21.09,22.38L23.01,22.99L24.92,23.67L26.84,23.04L34.51,25.38L36.43,24.64L38.35,24.38L40.26,29.97L46.02,29.09L47.93,27.73L51.77,27.93L53.68,26.24L59.44,24.5L61.35,27.37L63.27,25.37L65.19,30.63L67.11,29.56L72.86,29.57L74.77,27.72L76.69,33.21L78.61,30.6L80.53,31.93L86.28,31.67L88.2,26.75L90.11,27.89L92.03,27.78L93.95,23.82L99.7,25.18L101.62,24.44L103.53,28.81L107.37,26.08L113.12,28.94L116.95,21.04L118.87,19.83L128.46,20.31L130.38,17.52L132.29,15.46L134.21,15.53L139.96,14.27L141.88,16.75L143.8,14.2L145.71,14.15L147.63,17.01L153.38,19.84L155.3,19.15L157.22,19.57L159.14,19L161.05,14.92L166.8,14.06L170.64,14.39L172.56,17.06L174.47,16.65L180.23,19.77L184.06,23.2L185.98,22.75L187.89,24.82L193.65,20.96L195.56,22.3L197.48,19.52L199.4,18.25L201.32,23.55L207.07,21.66L208.98,24.94L210.9,25.85L214.74,35.95L222.41,40.78L226.24,39.43L228.16,43.37L235.83,39.32L237.74,40.93L239.66,36.83L241.58,35.12L247.33,35.81L249.25,41.7L251.17,41.84L253.08,40.17L255,42.19L260.75,42.43L264.59,36.94L266.5,39.79L268.42,40.09L276.09,40.38L278.01,40.7L279.92,41.96L281.84,39.48L287.59,35.95L289.51,34.31L291.43,35.9L293.35,37.15L295.26,42.25L302.93,41.58L304.85,39.44L308.68,45.27L314.44,46.72L316.35,41.36L318.27,42.28L320.19,41.31L322.11,44.89L327.86,43.23L329.77,35.77L331.69,38.95L333.61,36.01L343.2,33.02L345.11,34.07L348.95,35.75L354.7,34.07L356.62,28.53L358.53,30.37L362.37,30.96L368.12,29.93L370.04,30.56L371.95,32.34L373.87,30.41L375.79,33.72L381.54,33.48L383.46,32.56L385.38,30.81L387.29,31.71L389.21,29.03L394.96,29.23L396.88,29.92L398.8,29.3L400.71,28.64L402.63,30.3L408.38,31.61L410.3,33.76L412.22,33.55L414.14,31.11L416.05,29.08L421.8,30.55L423.72,30.33L425.64,34.62L427.56,33.99L429.47,37.27L439.06,33.47L440.98,31.86L442.89,31.1L448.65,30.33L452.48,37.01L454.4,34.39L456.32,37.04L463.98,36.26L465.9,37.24L467.82,33.41L469.74,32.91L475.49,35.31L477.41,35.99L479.32,35.36L481.24,31.88L483.16,39.29L488.91,38.76L490.83,37.24L492.74,40.01L494.66,38.47L496.58,37.91L502.33,40.83L504.25,42L506.17,45.22L508.08,43.8L510,47.5L517.67,47.65L519.59,45.84L523.42,56.42L529.17,54.84L531.09,54.47L533.01,54.98L534.92,53.5L542.59,53.66L544.51,49.51L546.43,51.97L548.35,51.53L550.26,53.54L557.93,53.22L559.85,50L563.68,51.51L569.44,52.24L573.27,44.93L575.19,48.11L577.11,47.5L582.86,52.28L586.69,45.99L588.61,49.65L590.53,48.31L596.28,47.18L598.2,39.74L600.11,39.33L602.03,45.15L603.95,39.32L609.7,38.07L611.62,38.73L613.53,40.99L615.45,40.65L617.37,38.39L623.12,41.37L625.04,44.11L626.95,43.64L628.87,44.54L630.79,40.96L636.54,45.65L638.46,45.27L640.38,43.88L642.29,40.17L644.21,43.61L651.88,41.4L653.8,41.26L655.71,46.77L657.63,45.43L663.38,39.95L665.3,45.39L667.22,46.07L669.14,43.68L671.05,48.05L676.8,63.79L678.72,66.28L680.64,78.7L682.56,71.51L684.47,66.48L690.23,70.5L694.06,77.29L695.98,74.57L697.89,72.85L703.65,86.41L705.56,75.7L707.48,73.2L717.07,87.59L718.98,97.04L720.9,101.67L722.82,119.42L724.74,123.75L730.49,102.27L732.41,102.28L734.32,117.3L736.24,108.92L738.16,112.18L743.91,103.26L745.83,106.33L747.74,114.54L749.66,111.1L751.58,119.03L757.33,123.57L759.25,105.06L761.17,112.24L763.08,110.33L765,107.11L770.75,105.26L772.67,100.05L776.5,116.34L778.42,109.6L784.17,108.64L786.09,113.06L788.01,120.9L789.92,109.01L791.84,115.74L797.59,119.68L799.51,115.98L801.43,126.09L803.35,136.57L805.26,125.08L811.02,120.04L812.93,119.58L814.85,115.76L818.68,113.27L824.44,127.45L826.35,124.5L828.27,120.02L830.19,125.87L832.11,121.02L837.86,120.47L839.77,124.55L841.69,124.63L843.61,126.47L845.53,125.81L851.28,125.96L853.2,120.79L857.03,124.18L858.95,124.83L864.7,125L866.62,127.08L872.37,125.33L878.12,126.01L881.95,121.3L885.79,116.84L893.46,119.42L895.38,122.05L899.21,123.37L904.96,125.26L906.88,124.32L908.8,129.07L910.71,129.51L912.63,127.77L920.3,130.96L922.22,128.98L926.05,132.02L931.8,130.99L933.72,129.39L935.64,126.25L937.56,128.49L939.47,133.05L945.23,135.4L947.14,133.36L949.06,136.77L950.98,135.62L952.89,132.48L958.65,133.24L960.56,140.72L962.48,139.7L964.4,138.9L966.32,141.45L973.98,146.54L975.9,146.49L977.82,147.4L979.74,149.61L985.49,153.98L987.41,152.27L989.32,152.31L991.24,154.48L993.16,158.67L998.91,164.57L1000.83,165.86L1002.74,161.92L1004.66,167.35L1006.58,166.6L1012.33,169.04L1014.25,162.65L1016.17,162.45L1018.08,158.91L1020,154.94" style="vector-effect: non-scaling-stroke; fill: none; stroke: rgb(0, 204, 150); stroke-opacity: 1; stroke-width: 2px; opacity: 1;"/></g><g class="points"/><g class="text"/></g><g class="trace scatter tracef485c4" style="stroke-miterlimit: 2; opacity: 1;"><g class="fills"/><g class="errorbars"/><g class="lines"><path class="js-line" d="M0,26.47L5.75,23.8L7.67,24.08L9.59,24.7L11.5,24.35L13.42,23.11L19.17,24.19L21.09,22.64L23.01,23.57L24.92,24.5L26.84,23.79L34.51,26.16L36.43,25.56L38.35,25.43L40.26,31.54L46.02,30.51L47.93,29L51.77,29.81L53.68,27.98L59.44,26.34L61.35,28.81L63.27,26.98L65.19,33.03L67.11,32.06L72.86,32.07L74.77,29.91L76.69,36.02L78.61,34.12L80.53,35.68L86.28,35.71L88.2,30.35L92.03,32.52L93.95,29.2L99.7,31.2L101.62,30.49L103.53,35.17L107.37,32.2L113.12,35.58L115.04,31.18L116.95,26.53L118.87,25.12L120.79,24.73L126.54,25.85L128.46,26.34L130.38,22.88L132.29,20.35L134.21,20.34L139.96,19.48L141.88,22.48L143.8,19.7L145.71,19.62L147.63,22.7L153.38,25.45L155.3,24.55L157.22,24.94L159.14,24.38L161.05,20.13L166.8,19.04L170.64,19.29L172.56,22.23L174.47,22L180.23,24.82L184.06,28.69L185.98,27.93L187.89,30.29L193.65,26.64L195.56,28.33L199.4,24.27L201.32,28.96L207.07,27.06L208.98,30.63L210.9,31.04L212.82,36.4L214.74,41.72L222.41,46.01L226.24,43.78L228.16,47.89L235.83,42.03L237.74,43.77L239.66,40.25L241.58,38.7L247.33,39.63L249.25,46L251.17,46.47L253.08,44.93L255,47.42L260.75,48.78L264.59,43.18L266.5,45.86L278.01,46.95L279.92,48.05L281.84,45.54L287.59,41.96L289.51,40.36L291.43,41.41L293.35,43.11L295.26,48.63L302.93,48.2L304.85,46.34L308.68,52.16L314.44,54.01L316.35,48.28L318.27,49.5L320.19,49.06L322.11,52.96L327.86,51.86L329.77,43.83L331.69,47.49L333.61,44.24L343.2,40.89L345.11,42.32L348.95,44.17L354.7,42.81L356.62,36.84L358.53,38.69L362.37,39.34L368.12,38.2L371.95,41.52L373.87,39.3L375.79,43.35L381.54,43.33L383.46,42.27L385.38,40.23L387.29,40.79L389.21,37.74L394.96,38.29L396.88,39.42L400.71,37.32L402.63,39.28L408.38,40.92L410.3,43.37L412.22,43.61L414.14,40.47L416.05,38.55L421.8,40.1L423.72,39.63L425.64,44.18L427.56,43.57L429.47,47.59L437.14,44.91L439.06,43.56L442.89,41.32L448.65,40.51L452.48,47.48L454.4,44.76L456.32,47.69L463.98,46.84L465.9,48.11L467.82,44.74L469.74,44.46L475.49,46.95L477.41,47.77L479.32,47.32L481.24,44.16L483.16,52.23L488.91,52.4L490.83,50.96L492.74,54.05L494.66,52.37L496.58,51.54L502.33,54.35L504.25,56.04L506.17,59.02L508.08,57.35L510,60.98L517.67,61.73L519.59,60.42L523.42,71.22L529.17,70.12L531.09,70.22L533.01,71.25L534.92,69.89L542.59,69.81L544.51,65.15L546.43,68.38L548.35,68.37L550.26,70.57L556.02,70.8L557.93,72.13L559.85,67.99L561.77,67.78L569.44,68.58L571.35,64.26L573.27,60.04L575.19,64.32L577.11,63.72L582.86,69.37L584.77,65.07L586.69,62.65L588.61,66.93L590.53,65.5L596.28,64.43L598.2,56.51L600.11,56.59L602.03,63.61L603.95,57.94L609.7,56.65L611.62,57.68L613.53,60.13L615.45,59.64L617.37,57.43L623.12,60.82L625.04,64.12L626.95,63.74L628.87,64.94L630.79,61.67L636.54,66.32L640.38,64.37L642.29,59.95L644.21,62.88L651.88,60.62L653.8,59.99L655.71,65.76L663.38,58.93L665.3,65.74L667.22,67.26L669.14,64.86L678.72,96.62L680.64,111.78L684.47,96.74L690.23,99.03L692.14,101.01L694.06,107.09L697.89,103L703.65,116.73L705.56,106.17L707.48,102.76L717.07,114.78L718.98,123.76L720.9,128.62L722.82,145.36L724.74,148.88L730.49,129.67L732.41,129.39L734.32,142.93L736.24,135.71L738.16,139.11L743.91,131.13L745.83,134.33L747.74,141.67L749.66,138.26L751.58,145.9L757.33,151.29L759.25,134.29L761.17,141.27L763.08,139.46L765,135.86L770.75,133.52L772.67,128.43L776.5,144.29L778.42,137.87L784.17,136.9L786.09,140.7L788.01,148.11L789.92,138.45L791.84,144.04L797.59,148L799.51,144.78L801.43,154.48L803.35,163.93L805.26,153.84L811.02,148.84L812.93,148.47L814.85,144.86L818.68,142.38L824.44,155.2L826.35,152.08L828.27,148.01L830.19,153.38L832.11,149.53L837.86,148.58L839.77,152.11L841.69,152.87L843.61,154.73L845.53,153.64L851.28,154.33L853.2,150.11L857.03,152.8L858.95,153.39L864.7,153.67L866.62,155.59L872.37,154.03L878.12,154.69L880.04,152.03L881.95,150.9L885.79,146.78L891.54,148.35L893.46,148.55L895.38,151.26L899.21,152.21L904.96,154L906.88,153.15L908.8,157.15L910.71,157.77L912.63,156.08L920.3,158.86L922.22,157.05L926.05,159.87L931.8,159.59L935.64,155.3L937.56,157.69L939.47,161.45L945.23,163.47L947.14,162.45L949.06,165.42L950.98,164.77L952.89,161.71L958.65,162.24L960.56,169.17L962.48,168.12L964.4,167.98L966.32,170.52L973.98,175.31L975.9,175.8L977.82,177.54L979.74,179.75L985.49,183.56L989.32,182.72L991.24,183.76L993.16,187.99L998.91,192.75L1000.83,193.8L1002.74,190.67L1004.66,195.5L1006.58,194.94L1012.33,196.65L1014.25,190.29L1016.17,190.07L1018.08,187.08L1020,183.18" style="vector-effect: non-scaling-stroke; fill: none; stroke: rgb(171, 99, 250); stroke-opacity: 1; stroke-width: 2px; opacity: 1;"/></g><g class="points"/><g class="text"/></g><g class="trace scatter trace73ae99" style="stroke-miterlimit: 2; opacity: 1;"><g class="fills"/><g class="errorbars"/><g class="lines"><path class="js-line" d="M0,26.47L5.75,23.5L7.67,23.83L11.5,23.93L13.42,22.79L19.17,23.79L21.09,22.21L24.92,23.4L26.84,22.95L34.51,25.47L36.43,25.11L38.35,24.97L40.26,30.78L46.02,29.94L47.93,28.67L51.77,29.48L53.68,27.7L59.44,25.94L61.35,28.86L63.27,26.81L65.19,32.34L67.11,31.13L72.86,31.1L74.77,29.28L76.69,34.87L78.61,32.78L80.53,34L86.28,33.45L88.2,28.46L90.11,29.75L92.03,30.09L93.95,26.24L99.7,27.71L101.62,27.12L103.53,31.71L107.37,28.76L113.12,31.75L116.95,23.55L118.87,22.17L120.79,21.84L126.54,22.62L128.46,22.71L130.38,19.69L132.29,17.44L134.21,17.46L139.96,16.25L141.88,18.96L143.8,16.56L145.71,16.61L147.63,19.6L153.38,22.2L155.3,21.31L157.22,21.92L159.14,21.17L161.05,17.08L166.8,16.12L170.64,16.41L172.56,19.11L174.47,18.7L180.23,21.69L184.06,25.37L185.98,25.03L187.89,27.31L193.65,23.65L195.56,25.2L199.4,21.34L201.32,26.28L207.07,24.45L208.98,27.78L210.9,28.3L212.82,33.28L214.74,38.64L222.41,43.04L226.24,41.8L228.16,45.58L235.83,40.96L237.74,42.46L239.66,38.62L241.58,36.95L247.33,37.57L249.25,43.54L251.17,43.9L253.08,42.36L255,44.9L260.75,45.51L264.59,39.62L266.5,42.33L268.42,42.68L276.09,42.94L278.01,43.35L279.92,44.53L281.84,41.94L287.59,38.39L289.51,36.84L291.43,38.56L293.35,39.79L295.26,44.97L302.93,44.64L304.85,42.57L308.68,48.43L314.44,50.04L316.35,44.58L318.27,45.67L320.19,44.71L322.11,48.17L327.86,46.58L329.77,39.13L331.69,42.69L333.61,39.69L343.2,36.58L345.11,37.76L348.95,39.51L354.7,37.77L356.62,31.93L358.53,33.53L362.37,34.17L368.12,33.11L370.04,33.97L371.95,36.04L373.87,34.13L375.79,37.39L381.54,37.4L383.46,36.4L385.38,34.53L387.29,35.25L389.21,32.23L394.96,32.59L396.88,33.29L398.8,32.72L400.71,31.78L402.63,33.28L408.38,34.56L410.3,36.75L412.22,36.69L414.14,33.99L416.05,31.81L421.8,33.31L423.72,33.01L425.64,37.22L427.56,36.34L429.47,40L437.14,37.4L439.06,36.04L442.89,33.79L448.65,33.12L452.48,40.04L454.4,37.71L456.32,40.66L463.98,39.79L465.9,40.55L467.82,36.7L469.74,36.02L475.49,38.52L477.41,39.08L479.32,38.57L481.24,35L483.16,42.55L488.91,42.16L490.83,41.23L492.74,44.12L494.66,42.47L496.58,41.27L502.33,44L504.25,45.34L506.17,48.43L508.08,46.87L510,50.95L517.67,51.17L519.59,49.58L523.42,60.12L529.17,58.59L531.09,57.95L533.01,58.68L534.92,57.18L542.59,57.22L544.51,52.69L546.43,55.32L548.35,54.75L550.26,57.03L557.93,57.61L559.85,54.12L569.44,55.18L571.35,51.42L573.27,48.02L575.19,51.5L577.11,50.97L582.86,56.02L586.69,49.22L588.61,53.31L590.53,52.38L596.28,51.38L598.2,43.63L600.11,43.51L602.03,49.7L603.95,43.96L609.7,42.61L611.62,43.22L613.53,45.87L615.45,45.37L617.37,42.96L623.12,45.99L625.04,49.07L626.95,48.58L628.87,49.37L630.79,45.89L636.54,50.64L638.46,50.16L640.38,48.77L642.29,44.43L644.21,47.61L651.88,45.11L653.8,44.74L655.71,50.71L663.38,43.93L665.3,50.19L667.22,51.12L669.14,48.81L676.8,72.69L678.72,75.85L680.64,89.24L682.56,81.62L684.47,75.61L690.23,78.92L692.14,81.54L694.06,86.14L697.89,82.22L703.65,96.06L705.56,85.26L707.48,82.72L717.07,96.17L718.98,105.55L720.9,109.98L722.82,127.24L724.74,130.97L730.49,110.59L732.41,109.47L734.32,125.15L736.24,117.04L738.16,120.08L743.91,111.53L745.83,114.71L747.74,122.97L749.66,118.74L751.58,126.69L757.33,131.38L759.25,113.26L761.17,120.48L763.08,118.78L765,115.12L770.75,113.34L772.67,108.03L776.5,124.65L778.42,118.1L784.17,116.9L786.09,120.99L788.01,128.93L789.92,117.7L791.84,124.13L797.59,127.98L799.51,124.14L801.43,134.36L803.35,144.66L805.26,133.64L811.02,128.76L812.93,128.19L814.85,124.34L818.68,122.14L824.44,135.99L826.35,132.71L828.27,128.64L830.19,134.27L832.11,129.68L837.86,129.07L839.77,132.95L841.69,133.41L843.61,135.02L845.53,134.32L851.28,134.73L853.2,129.97L858.95,133.42L864.7,133.63L866.62,135.63L868.53,134.89L872.37,134L878.12,134.66L880.04,131.73L881.95,130.2L885.79,125.79L891.54,127.6L893.46,128.13L895.38,130.89L899.21,132.1L904.96,133.8L906.88,132.91L908.8,137.32L910.71,138.08L912.63,136.39L920.3,139.29L922.22,137.43L926.05,140.29L931.8,139.63L933.72,138.04L935.64,135.01L937.56,137.3L939.47,141.64L945.23,143.88L947.14,142.26L949.06,145.54L950.98,144.5L952.89,141.47L958.65,141.94L960.56,149.21L962.48,148.29L964.4,148.43L966.32,151L973.98,155.88L975.9,155.97L979.74,159.49L985.49,163.73L987.41,162.57L989.32,162.34L991.24,163.97L993.16,168.28L1000.83,174.89L1002.74,171.17L1004.66,176.18L1006.58,175.8L1012.33,178.12L1014.25,171.59L1016.17,171.62L1018.08,168.4L1020,164.3" style="vector-effect: non-scaling-stroke; fill: none; stroke: rgb(255, 161, 90); stroke-opacity: 1; stroke-width: 2px; opacity: 1;"/></g><g class="points"/><g class="text"/></g><g class="trace scatter traceea8c94" style="stroke-miterlimit: 2; opacity: 1;"><g class="fills"/><g class="errorbars"/><g class="lines"><path class="js-line" d="M0,26.47L5.75,23.76L7.67,24.17L9.59,25.1L11.5,24.63L13.42,23.84L19.17,24.77L21.09,23.58L23.01,24.06L24.92,25.02L26.84,24.18L34.51,25.92L36.43,24.82L38.35,24.3L40.26,29.05L46.02,27.61L47.93,26.33L51.77,25.25L53.68,23.62L59.44,21.83L61.35,24.22L63.27,22.37L65.19,26.79L67.11,26.01L72.86,26.44L74.77,24.83L76.69,29.34L78.61,26.49L80.53,28.72L86.28,28.64L88.2,23.44L90.11,24.37L92.03,23.5L93.95,19.7L99.7,21.24L101.62,20.04L103.53,23.42L107.37,21.21L113.12,23.39L116.95,15.76L118.87,15.16L120.79,16.61L126.54,16.87L128.46,16.01L130.38,13.77L132.29,12.49L134.21,12.82L139.96,11.78L141.88,14.65L143.8,12.22L145.71,11.6L147.63,14.01L153.38,17.11L159.14,16.22L161.05,12.4L166.8,11.79L170.64,12.43L172.56,15.1L174.47,14.81L184.06,21.52L185.98,20.73L187.89,22.52L193.65,18.77L195.56,19.59L197.48,15.81L199.4,14.44L201.32,19.69L207.07,17.31L208.98,20.34L210.9,21.4L212.82,24.95L214.74,29.79L222.41,35.87L226.24,34.27L228.16,38.97L233.91,35.7L235.83,36.07L237.74,37.71L239.66,33.54L241.58,31.83L247.33,32.85L249.25,38.32L251.17,38.07L253.08,36.58L255,37.47L260.75,36.26L262.67,32.89L264.59,31.43L266.5,34.59L278.01,34.84L279.92,36.24L281.84,34.07L287.59,30.74L289.51,28.47L291.43,29.15L293.35,30.7L295.26,35.19L302.93,33.45L304.85,31.36L308.68,36.98L314.44,38.37L316.35,33.66L318.27,33.85L320.19,33.19L322.11,36.66L327.86,34.64L329.77,27.6L331.69,29.53L333.61,26.33L343.2,24.79L345.11,25.39L348.95,27.41L354.7,25.95L356.62,21.58L358.53,23.99L371.95,23.83L373.87,21.73L375.79,25.17L381.54,24.14L383.46,23.87L385.38,22.38L387.29,23.32L389.21,21.75L396.88,21.92L398.8,20.65L400.71,20.56L402.63,22.58L408.38,23.88L410.3,25.54L412.22,25.39L414.14,23.41L416.05,22.31L421.8,23.68L423.72,23.72L425.64,27.24L427.56,27.25L429.47,29.28L439.06,25.74L440.98,24.15L448.65,22.8L450.56,25.92L452.48,28.86L454.4,25.51L456.32,27.01L463.98,25.92L465.9,27.42L467.82,23.8L469.74,23.83L475.49,26.09L477.41,27L479.32,26.2L481.24,23.33L483.16,30.52L488.91,29.82L490.83,26.86L492.74,29.39L494.66,28.07L496.58,28.81L502.33,32.02L504.25,32.93L506.17,36.37L508.08,35.16L510,37.9L517.67,37.35L519.59,35.44L523.42,45.97L529.17,44.54L533.01,44.97L534.92,43.23L542.59,43.37L544.51,39.93L546.43,42.21L548.35,41.49L550.26,43.12L556.02,41.97L559.85,37.04L561.77,40.17L563.68,40.43L569.44,42.09L571.35,37.31L573.27,34.73L575.19,36.83L577.11,35.96L582.86,39.84L584.77,36.87L586.69,35.55L588.61,38.03L590.53,35.94L596.28,33.88L598.2,27.33L600.11,25.88L602.03,30.24L603.95,24.63L611.62,24.65L613.53,25.85L615.45,25.82L617.37,24.16L625.04,28.56L626.95,28.35L628.87,29.31L630.79,25.27L636.54,29.58L638.46,29.82L642.29,26.69L644.21,31.05L653.8,30.04L655.71,34.4L657.63,33.53L663.38,27.46L665.3,30.16L667.22,29.82L669.14,27.27L671.05,27.65L676.8,33.17L678.72,33.21L680.64,41.7L682.56,36.08L684.47,35.5L690.23,42.2L692.14,45.74L694.06,46.17L695.98,41.64L697.89,39.58L703.65,51.53L705.56,41.63L707.48,41.28L709.4,45.09L711.32,48.9L717.07,58.09L718.98,67.91L720.9,73.25L722.82,91.85L724.74,98.29L730.49,73.92L732.41,77.36L734.32,89.72L736.24,80.02L738.16,83.57L743.91,74.25L745.83,77.51L747.74,86.26L749.66,85.22L751.58,92.54L757.33,96.59L759.25,76.96L761.17,83.67L763.08,81.43L765,79.38L770.75,77.61L772.67,73.45L774.59,82.49L776.5,89.01L778.42,81.96L784.17,82.67L786.09,87.97L788.01,95.1L789.92,81.55L791.84,90.03L797.59,94.15L799.51,90.83L801.43,100.37L803.35,110.78L805.26,97.82L811.02,92.39L812.93,92.56L814.85,89.7L818.68,86.44L824.44,101.03L826.35,98.64L828.27,93.51L830.19,99.91L832.11,93.85L837.86,92.16L839.77,97.38L841.69,96.37L843.61,98.94L845.53,98.71L851.28,97.74L853.2,91.16L857.03,95.21L858.95,96.3L864.7,96.54L866.62,98.89L872.37,96.95L878.12,97.81L881.95,92.09L885.79,87.47L893.46,90.38L895.38,92.5L897.29,92.85L899.21,94.44L904.96,96.54L906.88,95.62L908.8,101.05L910.71,100.43L912.63,98.62L920.3,102.64L922.22,99.88L924.14,100.73L926.05,103.6L931.8,101.12L933.72,99.29L935.64,95.67L937.56,97.83L939.47,102.58L945.23,105.1L947.14,101.06L949.06,104.68L950.98,103.27L952.89,99.56L958.65,101.42L960.56,109.43L962.48,107.81L964.4,103.84L966.32,106.45L973.98,112.01L975.9,111.42L977.82,110.81L979.74,113.28L985.49,118.53L987.41,114.41L989.32,116.18L991.24,120.24L993.16,123.62L998.91,130.96L1000.83,133.15L1002.74,128.27L1004.66,134.33L1006.58,132.65L1012.33,135.76L1014.25,129.96L1016.17,128.81L1018.08,124.25L1020,120.86" style="vector-effect: non-scaling-stroke; fill: none; stroke: rgb(25, 211, 243); stroke-opacity: 1; stroke-width: 2px; opacity: 1;"/></g><g class="points"/><g class="text"/></g><g class="trace scatter tracea18a96" style="stroke-miterlimit: 2; opacity: 1;"><g class="fills"/><g class="errorbars"/><g class="lines"><path class="js-line" d="M0,26.47L5.75,23.82L7.67,24.34L9.59,25.3L11.5,24.83L13.42,23.87L19.17,24.84L21.09,23.68L23.01,24.05L24.92,25.13L26.84,24.28L34.51,25.87L36.43,24.91L38.35,24.4L40.26,29.88L46.02,28.43L47.93,27.14L51.77,26.24L53.68,24.55L59.44,22.89L61.35,25.41L63.27,23.22L65.19,27.6L67.11,26.56L72.86,26.92L74.77,25.14L76.69,30L78.61,27.26L80.53,29.75L86.28,30.18L88.2,24.96L90.11,26.15L92.03,24.88L93.95,20.96L99.7,22.54L101.62,21.24L103.53,24.54L107.37,22.18L113.12,24.43L116.95,16.9L118.87,16.36L120.79,17.68L126.54,18.07L128.46,17.51L130.38,14.99L132.29,13.4L134.21,13.73L139.96,12.66L141.88,15.71L143.8,12.83L145.71,12.18L147.63,14.67L153.38,17.58L159.14,16.27L161.05,12.37L166.8,11.6L170.64,12.19L172.56,14.85L174.47,14.54L184.06,20.81L185.98,20.24L187.89,22.29L193.65,18.95L195.56,20.1L197.48,16.65L199.4,15.64L201.32,20.67L207.07,18.01L208.98,21.07L210.9,22.59L212.82,26.46L214.74,30.98L222.41,37.04L226.24,34.86L228.16,39.33L233.91,35.56L235.83,36.06L237.74,37.58L239.66,33.4L241.58,31.61L247.33,32.33L249.25,38.13L251.17,37.73L253.08,36.27L255,36.9L260.75,35.91L262.67,32.82L264.59,31.11L266.5,34.26L268.42,34.42L276.09,34.11L278.01,33.69L279.92,35.35L281.84,33.29L287.59,29.56L289.51,27.33L291.43,28.05L293.35,29.64L295.26,34.38L302.93,32.71L304.85,30.48L308.68,36.27L314.44,37.76L316.35,32.63L318.27,32.81L320.19,32.03L322.11,35.54L327.86,33.84L329.77,26.25L331.69,28.7L333.61,26.19L343.2,24.25L345.11,24.78L348.95,26.96L354.7,25.36L356.62,20.9L358.53,23.26L362.37,23.28L368.12,22.34L371.95,22.88L373.87,20.57L375.79,24.38L381.54,23.36L383.46,22.86L385.38,21.24L387.29,22.1L389.21,19.92L396.88,20.22L398.8,19.32L400.71,19.38L402.63,21.52L408.38,23.2L410.3,25.3L412.22,25.08L414.14,23.42L416.05,21.69L421.8,22.97L423.72,22.54L425.64,26.02L427.56,25.81L429.47,27.87L439.06,24.28L440.98,22.39L442.89,21.73L448.65,21.01L452.48,27.08L454.4,23.94L456.32,25.69L463.98,24.68L465.9,26.08L467.82,22.63L469.74,22.41L475.49,24.62L477.41,25.42L479.32,24.33L481.24,21.46L483.16,28.93L488.91,28.1L490.83,25.3L492.74,27.64L494.66,26.25L496.58,26.76L502.33,29.67L504.25,30.29L506.17,33.64L508.08,32.46L510,35.28L517.67,34.83L519.59,33.06L523.42,43.54L529.17,42.36L533.01,43.26L534.92,41.59L542.59,42.02L544.51,39.02L546.43,41.41L548.35,40.42L550.26,42L556.02,40.91L559.85,36.42L561.77,39.5L569.44,41.21L571.35,36.65L573.27,34.35L575.19,36.41L577.11,35.31L582.86,39.18L586.69,34.33L588.61,37.4L590.53,35.33L596.28,34.13L598.2,27.62L600.11,25.87L602.03,30.18L603.95,24.94L611.62,24.83L613.53,25.85L615.45,25.91L617.37,24.34L625.04,28.99L626.95,28.49L628.87,29.31L630.79,25.43L636.54,29.78L638.46,29.79L642.29,26.41L644.21,30.72L653.8,30.46L655.71,34.96L657.63,34.38L663.38,28.73L665.3,32.54L667.22,31.67L669.14,29.13L671.05,29.55L676.8,36.87L678.72,37.06L680.64,45.87L682.56,40.04L684.47,37.89L690.23,44.03L692.14,47.82L694.06,48.9L695.98,44.76L697.89,42.96L703.65,56.09L705.56,45.79L707.48,45.39L709.4,49.88L711.32,53.67L717.07,63.16L718.98,73.22L720.9,78.43L722.82,96.82L724.74,103.99L730.49,79.3L732.41,82.36L734.32,95.85L736.24,86.5L738.16,89.84L743.91,80.52L745.83,83.41L747.74,92.3L749.66,90.83L751.58,98.12L757.33,103.19L759.25,84.11L761.17,90.12L763.08,87.24L765,84.68L770.75,83.41L772.67,78.83L774.59,88.06L776.5,95.11L778.42,88.4L784.17,89.3L786.09,94.72L788.01,102.4L789.92,88.93L791.84,97.23L797.59,101.54L799.51,97.75L801.43,107.7L803.35,118.88L805.26,105.96L811.02,100.11L812.93,100.45L814.85,97.2L818.68,94.39L824.44,109.6L826.35,107.34L828.27,102.62L830.19,109.49L832.11,103.7L837.86,101.69L839.77,106.39L841.69,105.06L843.61,107.83L845.53,107.5L851.28,106.58L853.2,100.02L857.03,104.83L858.95,105.73L864.7,106.46L866.62,108.55L872.37,106.57L878.12,107.35L880.04,103.54L881.95,101.52L885.79,96.45L891.54,97.53L893.46,98.04L895.38,100.91L897.29,101.01L899.21,102.94L904.96,105.16L906.88,104.12L908.8,109.68L910.71,108.88L912.63,107.1L920.3,111.65L922.22,108.22L924.14,109.7L926.05,112.09L931.8,109.81L933.72,107.91L935.64,104.22L937.56,106.78L939.47,111.66L945.23,114.53L947.14,110.98L949.06,114.43L950.98,113.16L952.89,109.32L958.65,110.75L960.56,118.62L962.48,117.15L964.4,113.81L966.32,116.14L973.98,121.83L975.9,121.34L977.82,120.82L979.74,123.35L985.49,128.56L987.41,124.68L989.32,126.13L991.24,129.7L993.16,133.12L998.91,140.59L1000.83,142.54L1002.74,137.82L1004.66,144.14L1006.58,142.71L1012.33,145.39L1014.25,139.11L1016.17,137.85L1018.08,133.47L1020,130.53" style="vector-effect: non-scaling-stroke; fill: none; stroke: rgb(255, 102, 146); stroke-opacity: 1; stroke-width: 2px; opacity: 1;"/></g><g class="points"/><g class="text"/></g><g class="trace scatter trace1b9ff6" style="stroke-miterlimit: 2; opacity: 1;"><g class="fills"/><g class="errorbars"/><g class="lines"><path class="js-line" d="M0,26.47L5.75,23.82L7.67,24.34L9.59,25.31L11.5,24.83L13.42,23.87L19.17,24.85L21.09,23.68L23.01,24.08L24.92,25.17L26.84,24.32L34.51,25.92L36.43,24.96L38.35,24.46L40.26,29.97L46.02,28.52L47.93,27.2L51.77,26.35L53.68,24.66L59.44,22.99L61.35,25.51L63.27,23.3L65.19,27.69L67.11,26.65L72.86,27.03L74.77,25.24L76.69,30.12L78.61,27.4L80.53,29.86L86.28,30.31L88.2,25.1L90.11,26.31L92.03,25.04L93.95,21.12L99.7,22.72L101.62,21.43L103.53,24.74L107.37,22.37L113.12,24.62L116.95,17.09L118.87,16.56L120.79,17.88L126.54,18.27L128.46,17.74L130.38,15.21L132.29,13.59L134.21,13.92L139.96,12.87L141.88,15.91L143.8,13L145.71,12.35L147.63,14.85L153.38,17.76L159.14,16.44L161.05,12.52L166.8,11.75L170.64,12.32L172.56,14.98L174.47,14.66L184.06,20.92L185.98,20.36L187.89,22.42L193.65,19.1L195.56,20.28L197.48,16.86L199.4,15.85L201.32,20.85L207.07,18.17L208.98,21.25L210.9,22.76L212.82,26.67L214.74,31.22L222.41,37.29L226.24,35.13L228.16,39.6L233.91,35.81L235.83,36.28L237.74,37.83L239.66,33.64L241.58,31.86L247.33,32.55L249.25,38.37L251.17,37.96L253.08,36.52L255,37.15L260.75,36.22L262.67,33.12L264.59,31.38L266.5,34.53L268.42,34.67L276.09,34.38L278.01,33.97L279.92,35.64L281.84,33.57L287.59,29.81L289.51,27.6L291.43,28.34L293.35,29.91L295.26,34.67L302.93,33.02L304.85,30.79L308.68,36.61L314.44,38.11L316.35,32.96L318.27,33.16L320.19,32.38L322.11,35.87L327.86,34.16L329.77,26.55L331.69,29.03L333.61,26.54L343.2,24.59L345.11,25.13L348.95,27.33L354.7,25.7L356.62,21.21L358.53,23.57L362.37,23.57L368.12,22.62L371.95,23.17L373.87,20.88L375.79,24.71L381.54,23.71L383.46,23.22L385.38,21.59L387.29,22.42L389.21,20.2L396.88,20.52L398.8,19.62L400.71,19.67L402.63,21.77L408.38,23.45L410.3,25.54L412.22,25.31L414.14,23.63L416.05,21.87L421.8,23.16L423.72,22.72L425.64,26.22L427.56,26.01L429.47,28.1L439.06,24.54L440.98,22.65L442.89,21.99L448.65,21.26L452.48,27.36L454.4,24.24L456.32,26L463.98,25L465.9,26.4L467.82,22.94L469.74,22.69L475.49,24.9L477.41,25.7L479.32,24.62L481.24,21.74L483.16,29.22L488.91,28.41L490.83,25.63L492.74,27.98L494.66,26.59L496.58,27.07L502.33,29.97L504.25,30.6L506.17,33.95L508.08,32.75L510,35.58L517.67,35.16L519.59,33.4L523.42,43.85L529.17,42.68L533.01,43.58L534.92,41.94L542.59,42.39L544.51,39.41L546.43,41.8L548.35,40.82L550.26,42.4L556.02,41.33L559.85,36.84L561.77,39.9L569.44,41.57L571.35,37.05L573.27,34.73L575.19,36.81L577.11,35.72L582.86,39.62L586.69,34.79L588.61,37.85L590.53,35.79L596.28,34.63L598.2,28.11L600.11,26.36L602.03,30.69L603.95,25.47L611.62,25.39L613.53,26.42L615.45,26.47L617.37,24.92L625.04,29.59L626.95,29.07L628.87,29.89L630.79,26.03L636.54,30.38L638.46,30.37L642.29,26.95L644.21,31.24L653.8,30.98L655.71,35.51L657.63,34.94L663.38,29.31L665.3,33.2L667.22,32.36L669.14,29.85L671.05,30.41L676.8,38.09L678.72,38.36L680.64,47.31L682.56,41.42L684.47,39.1L690.23,45.14L692.14,48.9L694.06,50.13L695.98,46.05L697.89,44.27L703.65,57.44L705.56,47.11L707.48,46.7L709.4,51.16L711.32,54.95L717.07,64.4L718.98,74.42L720.9,79.63L722.82,98.01L724.74,105.18L730.49,80.56L732.41,83.53L734.32,97.03L736.24,87.77L738.16,91.11L743.91,81.79L745.83,84.68L747.74,93.58L749.66,92.06L751.58,99.37L757.33,104.45L759.25,85.42L761.17,91.43L763.08,88.56L765,85.98L770.75,84.69L772.67,80.06L774.59,89.3L776.5,96.39L778.42,89.68L784.17,90.55L786.09,95.94L788.01,103.62L789.92,90.17L791.84,98.43L797.59,102.75L799.51,98.98L801.43,108.95L803.35,120.07L805.26,107.21L811.02,101.35L812.93,101.69L814.85,98.42L818.68,95.65L824.44,110.84L826.35,108.53L828.27,103.84L830.19,110.72L832.11,104.97L837.86,102.9L839.77,107.57L841.69,106.27L843.61,109.02L845.53,108.7L851.28,107.82L853.2,101.25L857.03,106.1L858.95,106.99L864.7,107.73L866.62,109.8L872.37,107.84L878.12,108.62L880.04,104.82L881.95,102.8L885.79,97.72L891.54,98.81L893.46,99.29L895.38,102.18L897.29,102.23L899.21,104.18L904.96,106.41L906.88,105.38L908.8,110.92L910.71,110.15L912.63,108.39L920.3,112.93L922.22,109.47L924.14,110.98L926.05,113.31L931.8,111.05L933.72,109.17L935.64,105.48L937.56,108.08L939.47,112.9L945.23,115.75L947.14,112.27L949.06,115.7L950.98,114.46L952.89,110.64L958.65,112.05L960.56,119.9L962.48,118.43L964.4,115.16L966.32,117.46L973.98,123.17L975.9,122.72L977.82,122.25L979.74,124.76L985.49,129.94L987.41,126.16L989.32,127.55L991.24,131.06L993.16,134.52L998.91,141.95L1000.83,143.85L1002.74,139.16L1004.66,145.51L1006.58,144.1L1012.33,146.77L1014.25,140.49L1016.17,139.24L1018.08,134.89L1020,131.94" style="vector-effect: non-scaling-stroke; fill: none; stroke: rgb(182, 232, 128); stroke-opacity: 1; stroke-width: 2px; opacity: 1;"/></g><g class="points"/><g class="text"/></g><g class="trace scatter trace2e9815" style="stroke-miterlimit: 2; opacity: 1;"><g class="fills"/><g class="errorbars"/><g class="lines"><path class="js-line" d="M0,26.47L5.75,23.77L7.67,24.28L9.59,25.21L11.5,24.72L13.42,23.84L19.17,24.83L21.09,23.61L23.01,24.1L24.92,25.06L26.84,24.21L34.51,26.02L36.43,25.11L38.35,24.61L40.26,29.67L46.02,28.3L47.93,26.96L51.77,26.18L53.68,24.44L59.44,22.68L61.35,25.17L63.27,22.98L65.19,27.32L67.11,26.38L72.86,26.78L74.77,24.98L76.69,29.85L78.61,27L80.53,28.97L86.28,29.19L88.2,24.05L90.11,25.1L92.03,23.97L93.95,20.13L99.7,21.69L101.62,20.51L103.53,23.92L107.37,21.64L113.12,23.7L116.95,16.27L118.87,15.82L120.79,17.1L126.54,17.44L128.46,16.84L130.38,14.33L132.29,12.75L134.21,13.17L139.96,12.09L141.88,15.03L143.8,12.36L145.71,11.7L147.63,14.18L153.38,17.11L159.14,15.75L161.05,11.91L166.8,11.14L170.64,11.71L172.56,14.33L174.47,13.98L184.06,20.23L185.98,19.64L187.89,21.62L193.65,18.08L195.56,19.22L197.48,15.65L199.4,14.6L201.32,19.4L207.07,16.85L208.98,19.87L210.9,21.26L212.82,25.18L214.74,30.06L222.41,36.21L226.24,34.37L228.16,38.84L233.91,35.17L235.83,35.65L237.74,37.43L239.66,33.22L241.58,31.56L247.33,32.19L249.25,37.97L251.17,37.65L253.08,36.26L255,37.07L260.75,36.32L262.67,33.04L264.59,31.41L266.5,34.54L268.42,34.7L276.09,34.4L278.01,34.16L279.92,35.78L281.84,33.6L287.59,29.88L289.51,27.76L291.43,28.61L293.35,30.11L295.26,34.94L302.93,33.31L304.85,31.07L308.68,36.96L314.44,38.48L316.35,33.35L318.27,33.6L320.19,32.83L322.11,36.24L327.86,34.38L329.77,26.84L331.69,29.23L333.61,26.53L343.2,24.74L345.11,25.3L348.95,27.47L354.7,25.78L356.62,21.16L358.53,23.47L362.37,23.38L368.12,22.39L371.95,22.94L373.87,20.83L375.79,24.48L381.54,23.59L383.46,23.13L385.38,21.57L387.29,22.51L389.21,20.29L396.88,20.55L398.8,19.63L400.71,19.48L402.63,21.37L408.38,22.85L410.3,24.86L412.22,24.61L414.14,22.86L416.05,21.09L421.8,22.44L423.72,22.1L425.64,25.83L427.56,25.69L429.47,27.83L437.14,25.59L439.06,24.4L440.98,22.64L442.89,22.06L448.65,21.33L450.56,24.41L452.48,27.41L454.4,24.37L456.32,26.16L463.98,25.23L465.9,26.76L467.82,23.14L469.74,22.77L475.49,24.89L477.41,25.7L479.32,24.79L481.24,21.83L483.16,29.2L488.91,28.48L490.83,25.82L492.74,28.16L494.66,26.71L496.58,27.12L502.33,30.04L504.25,30.74L506.17,34.17L508.08,32.87L510,35.69L517.67,35.26L519.59,33.57L523.42,43.98L529.17,42.62L533.01,43.32L534.92,41.71L542.59,42.2L544.51,39.15L546.43,41.38L548.35,40.44L550.26,42.13L556.02,41.05L559.85,36.44L561.77,39.43L569.44,41.11L571.35,36.57L573.27,34.18L575.19,36.36L577.11,35.27L582.86,39.24L586.69,34.55L588.61,37.38L590.53,35.36L596.28,34.1L598.2,27.51L600.11,25.77L602.03,30.32L603.95,25.09L611.62,25.06L613.53,26.16L615.45,26.2L617.37,24.64L625.04,29.21L626.95,28.68L628.87,29.53L630.79,25.69L636.54,30.03L638.46,30L642.29,26.54L644.21,30.82L653.8,30.19L655.71,34.79L657.63,34.12L663.38,28.49L665.3,32.48L667.22,31.78L669.14,29.45L671.05,30.5L676.8,39L678.72,39.56L680.64,48.92L682.56,42.86L684.47,40.59L690.23,46.42L692.14,50.02L694.06,51.56L695.98,47.64L697.89,45.79L703.65,58.9L705.56,48.31L707.48,47.89L709.4,52.06L711.32,55.92L717.07,65.27L718.98,75.13L720.9,80.04L722.82,98.73L724.74,105.84L730.49,81.33L732.41,84.01L734.32,97.42L736.24,88.14L738.16,91.74L743.91,82.42L745.83,85.49L747.74,94.35L749.66,92.98L751.58,100.43L757.33,105.38L759.25,86.21L761.17,92.53L763.08,89.9L765,87.38L770.75,85.9L772.67,81.14L774.59,90.49L776.5,97.6L778.42,90.78L784.17,91.42L786.09,96.62L788.01,104.13L789.92,90.6L791.84,98.94L797.59,103.16L799.51,99.51L801.43,109.66L803.35,120.56L805.26,107.84L811.02,102.1L812.93,102.51L814.85,99.31L818.68,96.56L824.44,111.63L826.35,109.04L828.27,104.29L830.19,111.1L832.11,105.19L837.86,103.15L839.77,107.68L841.69,106.6L843.61,109.05L845.53,108.85L851.28,107.88L853.2,101.33L857.03,106.05L858.95,106.95L864.7,107.55L866.62,109.61L872.37,107.73L878.12,108.51L881.95,102.74L885.79,97.77L893.46,99.63L895.38,102.42L897.29,102.47L899.21,104.3L904.96,106.61L906.88,105.5L908.8,111.03L910.71,110.46L912.63,108.84L920.3,113.17L922.22,109.99L924.14,111.47L926.05,113.74L931.8,111.53L933.72,109.62L935.64,105.96L937.56,108.67L939.47,113.27L945.23,115.82L947.14,112.46L949.06,115.82L950.98,114.56L952.89,110.87L958.65,112.39L960.56,120.21L962.48,118.69L964.4,115.42L966.32,117.68L973.98,123.33L975.9,122.98L977.82,122.63L979.74,125.23L985.49,130.26L987.41,126.8L989.32,128.1L991.24,131.65L993.16,135.48L998.91,142.81L1000.83,144.72L1002.74,140.09L1004.66,146.42L1006.58,144.96L1012.33,147.81L1014.25,141.65L1016.17,140.52L1018.08,136.25L1020,133.05" style="vector-effect: non-scaling-stroke; fill: none; stroke: rgb(255, 151, 255); stroke-opacity: 1; stroke-width: 2px; opacity: 1;"/></g><g class="points"/><g class="text"/></g><g class="trace scatter tracecbd294" style="stroke-miterlimit: 2; opacity: 1;"><g class="fills"/><g class="errorbars"/><g class="lines"><path class="js-line" d="M0,26.47L5.75,22.4L7.67,23.26L9.59,24.93L11.5,24.8L13.42,22.86L19.17,23.33L21.09,20.77L23.01,22.59L24.92,23.94L26.84,22.29L36.43,26.53L38.35,26.61L40.26,34.37L46.02,33.42L47.93,31.11L49.85,31.13L51.77,31.2L53.68,28.35L59.44,27L61.35,28.65L63.27,25.74L65.19,33.4L67.11,32.83L72.86,33.92L74.77,31.43L76.69,39.07L78.61,39.79L80.53,44.52L86.28,45.69L88.2,38.92L92.03,43.09L93.95,41.68L99.7,46.3L101.62,45.21L103.53,49.68L107.37,45.83L113.12,50.85L115.04,46.3L116.95,39.3L118.87,38.82L120.79,37.55L126.54,38.76L128.46,40.16L130.38,36L132.29,32.3L134.21,32.18L139.96,30.03L141.88,36.26L145.71,34.46L147.63,38.23L153.38,41.88L155.3,40.5L157.22,41.04L159.14,40.22L161.05,35.88L166.8,33.78L170.64,33.75L172.56,37.81L174.47,37.68L180.23,39.82L184.06,44.49L185.98,44.22L187.89,49.65L193.65,49.07L195.56,54.12L197.48,51.02L199.4,48.53L201.32,53.76L207.07,50.12L208.98,55.98L210.9,56.72L212.82,63.22L214.74,64.49L222.41,67.2L224.32,60.87L226.24,58.57L228.16,62.2L233.91,58.46L235.83,56.42L237.74,57.22L239.66,52.82L241.58,50.86L247.33,53.14L249.25,60.98L251.17,62.35L253.08,61.36L255,62.73L260.75,61.51L264.59,54.9L266.5,58.61L268.42,59.22L276.09,59.45L278.01,57.54L279.92,60.57L281.84,58.52L287.59,54.52L289.51,52.09L291.43,51.89L293.35,54.27L295.26,60.95L301.02,61.11L302.93,62.06L304.85,61.19L306.77,65.73L308.68,68.84L314.44,72.09L316.35,63.27L318.27,64.25L320.19,63.5L322.11,67.62L327.86,67.18L329.77,58.28L331.69,64.48L333.61,58.94L341.28,54.98L343.2,55.32L348.95,62.01L354.7,61.02L356.62,52.74L358.53,53.7L362.37,53.69L368.12,53.63L371.95,55.43L373.87,54.27L375.79,59.7L381.54,60.19L383.46,58.92L385.38,53.48L387.29,53.46L389.21,48.61L394.96,49.13L396.88,51.34L398.8,50.43L400.71,48.62L402.63,47.71L408.38,48.14L412.22,49.23L414.14,45.21L416.05,44.19L421.8,46.07L423.72,44.98L425.64,49.35L427.56,48.24L429.47,50.8L435.23,48.04L437.14,48.97L440.98,45.58L442.89,45.7L448.65,44.83L450.56,49.05L452.48,53.86L454.4,53.35L456.32,56.44L463.98,54.98L467.82,52.91L469.74,53.08L475.49,55.92L477.41,58.06L479.32,58.32L481.24,53.79L483.16,62.15L488.91,60.65L490.83,60.46L492.74,64.82L494.66,63.59L496.58,60.08L502.33,60.89L504.25,63.2L506.17,65.97L508.08,65.25L510,69.92L515.75,69.92L517.67,70.66L519.59,70.57L521.5,78.16L523.42,80.42L531.09,79.66L533.01,83.19L534.92,81.65L542.59,82.84L544.51,79.62L546.43,84.63L548.35,82.91L550.26,85.63L556.02,86.59L557.93,88.55L561.77,78.3L563.68,77.24L569.44,77.86L571.35,75L573.27,74.37L575.19,80.36L577.11,79.91L582.86,84.98L586.69,75.4L588.61,79.75L590.53,80.85L596.28,81.74L598.2,74.72L600.11,73.87L602.03,78.62L603.95,72.21L609.7,71.19L611.62,74.16L613.53,76.47L615.45,74.72L617.37,73.79L623.12,77.61L625.04,80.38L626.95,78.92L628.87,78.65L630.79,74.46L636.54,79.58L638.46,79.02L640.38,77.12L642.29,72.62L644.21,76.24L651.88,76.81L653.8,76.48L655.71,83.77L657.63,83.08L663.38,76.94L665.3,82.87L667.22,82.06L669.14,78.57L671.05,78.82L676.8,89.5L678.72,86.5L680.64,96.02L682.56,87.34L684.47,79.53L690.23,87.42L692.14,90.84L694.06,91.45L697.89,84.72L703.65,101.18L705.56,90.91L707.48,91.33L709.4,98.7L711.32,102.03L717.07,109.86L718.98,120.62L720.9,124.62L722.82,138.99L724.74,141.7L730.49,121.88L732.41,123.5L734.32,139.02L736.24,130.52L738.16,133.21L743.91,124.47L745.83,129.37L747.74,140.26L749.66,136.62L751.58,143.23L757.33,147.53L759.25,128.71L761.17,130.28L765,123.21L770.75,123.32L772.67,116.85L774.59,127.14L776.5,136.52L778.42,131.27L784.17,132.83L786.09,136.56L788.01,145.27L789.92,133.57L791.84,140.72L797.59,145.46L799.51,142.26L801.43,151.31L803.35,160.73L805.26,150.27L811.02,141.87L812.93,141.1L814.85,135.87L818.68,133.7L824.44,148.1L826.35,142.38L828.27,138.73L830.19,143.29L832.11,137.8L837.86,131.48L839.77,136.62L841.69,135.13L843.61,139.29L845.53,137.92L851.28,139.3L853.2,131.69L855.11,133.8L857.03,138.45L864.7,140.25L866.62,142.37L868.53,141.34L872.37,140.34L878.12,141.01L880.04,137.1L885.79,129.35L891.54,131.08L893.46,129.77L895.38,134.96L897.29,135.54L899.21,138.57L906.88,141.76L908.8,147.01L910.71,146.75L912.63,145.3L920.3,152.33L922.22,146.42L924.14,148.65L926.05,149.61L931.8,148.79L933.72,147.55L935.64,143.3L937.56,148.1L939.47,151.23L945.23,152.59L947.14,149.59L949.06,152.17L950.98,149.92L952.89,145.31L958.65,145.52L960.56,153.6L962.48,152.53L964.4,152.67L973.98,160.72L975.9,160.66L985.49,169.99L987.41,164.99L991.24,168.56L993.16,171.08L998.91,177.43L1000.83,178.22L1002.74,175.04L1004.66,181L1006.58,180.31L1012.33,182L1014.25,173.97L1016.17,173.89L1018.08,168.82L1020,167.68" style="vector-effect: non-scaling-stroke; fill: none; stroke: rgb(254, 203, 82); stroke-opacity: 1; stroke-width: 2px; opacity: 1;"/></g><g class="points"/><g class="text"/></g></g></g><g class="overplot"/><path class="xlines-above crisp" d="M0,0" style="fill: none;"/><path class="ylines-above crisp" d="M0,0" style="fill: none;"/><g class="overlines-above"/><g class="xaxislayer-above"><g class="xtick"><text text-anchor="middle" x="0" y="280" transform="translate(115.19,0)" style="font-family: 'Open Sans', verdana, arial, sans-serif; font-size: 12px; fill: rgb(42, 63, 95); fill-opacity: 1; white-space: pre; opacity: 1;">Nov 2007</text></g><g class="xtick"><text text-anchor="middle" x="0" y="280" style="font-family: 'Open Sans', verdana, arial, sans-serif; font-size: 12px; fill: rgb(42, 63, 95); fill-opacity: 1; white-space: pre; opacity: 1;" transform="translate(232.14,0)">Jan 2008</text></g><g class="xtick"><text text-anchor="middle" x="0" y="280" style="font-family: 'Open Sans', verdana, arial, sans-serif; font-size: 12px; fill: rgb(42, 63, 95); fill-opacity: 1; white-space: pre; opacity: 1;" transform="translate(347.18,0)">Mar 2008</text></g><g class="xtick"><text text-anchor="middle" x="0" y="280" style="font-family: 'Open Sans', verdana, arial, sans-serif; font-size: 12px; fill: rgb(42, 63, 95); fill-opacity: 1; white-space: pre; opacity: 1;" transform="translate(464.14,0)">May 2008</text></g><g class="xtick"><text text-anchor="middle" x="0" y="280" style="font-family: 'Open Sans', verdana, arial, sans-serif; font-size: 12px; fill: rgb(42, 63, 95); fill-opacity: 1; white-space: pre; opacity: 1;" transform="translate(581.09,0)">Jul 2008</text></g><g class="xtick"><text text-anchor="middle" x="0" y="280" style="font-family: 'Open Sans', verdana, arial, sans-serif; font-size: 12px; fill: rgb(42, 63, 95); fill-opacity: 1; white-space: pre; opacity: 1;" transform="translate(699.96,0)">Sep 2008</text></g><g class="xtick"><text text-anchor="middle" x="0" y="280" style="font-family: 'Open Sans', verdana, arial, sans-serif; font-size: 12px; fill: rgb(42, 63, 95); fill-opacity: 1; white-space: pre; opacity: 1;" transform="translate(816.92,0)">Nov 2008</text></g><g class="xtick"><text text-anchor="middle" x="0" y="280" style="font-family: 'Open Sans', verdana, arial, sans-serif; font-size: 12px; fill: rgb(42, 63, 95); fill-opacity: 1; white-space: pre; opacity: 1;" transform="translate(933.87,0)">Jan 2009</text></g><g class="xtick"><text text-anchor="middle" x="0" y="280" style="font-family: 'Open Sans', verdana, arial, sans-serif; font-size: 12px; fill: rgb(42, 63, 95); fill-opacity: 1; white-space: pre; opacity: 1;" transform="translate(1046.99,0)">Mar 2009</text></g></g><g class="yaxislayer-above"><g class="ytick"><text text-anchor="end" x="49" y="4.199999999999999" transform="translate(0,253.58)" style="font-family: 'Open Sans', verdana, arial, sans-serif; font-size: 12px; fill: rgb(42, 63, 95); fill-opacity: 1; white-space: pre; opacity: 1;">6k</text></g><g class="ytick"><text text-anchor="end" x="49" y="4.199999999999999" style="font-family: 'Open Sans', verdana, arial, sans-serif; font-size: 12px; fill: rgb(42, 63, 95); fill-opacity: 1; white-space: pre; opacity: 1;" transform="translate(0,211.25)">8k</text></g><g class="ytick"><text text-anchor="end" x="49" y="4.199999999999999" style="font-family: 'Open Sans', verdana, arial, sans-serif; font-size: 12px; fill: rgb(42, 63, 95); fill-opacity: 1; white-space: pre; opacity: 1;" transform="translate(0,168.92000000000002)">10k</text></g><g class="ytick"><text text-anchor="end" x="49" y="4.199999999999999" style="font-family: 'Open Sans', verdana, arial, sans-serif; font-size: 12px; fill: rgb(42, 63, 95); fill-opacity: 1; white-space: pre; opacity: 1;" transform="translate(0,126.59)">12k</text></g><g class="ytick"><text text-anchor="end" x="49" y="4.199999999999999" style="font-family: 'Open Sans', verdana, arial, sans-serif; font-size: 12px; fill: rgb(42, 63, 95); fill-opacity: 1; white-space: pre; opacity: 1;" transform="translate(0,84.26)">14k</text></g></g><g class="overaxes-above"/></g></g><g class="polarlayer"/><g class="ternarylayer"/><g class="geolayer"/><g class="funnelarealayer"/><g class="pielayer"/><g class="iciclelayer"/><g class="treemaplayer"/><g class="sunburstlayer"/><g class="glimages"/><defs id="topdefs-10704c"><g class="clips"/><clipPath id="legend10704c"><rect width="136" height="200" x="0" y="0"/></clipPath></defs><g class="layer-above"><g class="imagelayer"/><g class="shapelayer"/></g><g class="infolayer"><g class="legend" pointer-events="all" transform="translate(1090.4,60)"><rect class="bg" shape-rendering="crispEdges" width="136" height="200" x="0" y="0" style="stroke: rgb(68, 68, 68); stroke-opacity: 1; fill: rgb(255, 255, 255); fill-opacity: 1; stroke-width: 0px;"/><g class="scrollbox" transform="" clip-path="url(#legend10704c)"><g class="groups"><g class="traces" transform="translate(0,14.5)" style="opacity: 1;"><text class="legendtext" text-anchor="start" x="40" y="4.680000000000001" style="font-family: 'Open Sans', verdana, arial, sans-serif; font-size: 12px; fill: rgb(42, 63, 95); fill-opacity: 1; white-space: pre;">Conic =0.1</text><g class="layers" style="opacity: 1;"><g class="legendfill"/><g class="legendlines"><path class="js-line" d="M5,0h30" style="fill: none; stroke: rgb(99, 110, 250); stroke-opacity: 1; stroke-width: 2px;"/></g><g class="legendsymbols"><g class="legendpoints"/></g></g><rect class="legendtoggle" x="0" y="-9.5" width="130.8186798095703" height="19" style="fill: rgb(0, 0, 0); fill-opacity: 0;"/></g><g class="traces" transform="translate(0,33.5)" style="opacity: 1;"><text class="legendtext" text-anchor="start" x="40" y="4.680000000000001" style="font-family: 'Open Sans', verdana, arial, sans-serif; font-size: 12px; fill: rgb(42, 63, 95); fill-opacity: 1; white-space: pre;">Conic =3.275</text><g class="layers" style="opacity: 1;"><g class="legendfill"/><g class="legendlines"><path class="js-line" d="M5,0h30" style="fill: none; stroke: rgb(239, 85, 59); stroke-opacity: 1; stroke-width: 2px;"/></g><g class="legendsymbols"><g class="legendpoints"/></g></g><rect class="legendtoggle" x="0" y="-9.5" width="130.8186798095703" height="19" style="fill: rgb(0, 0, 0); fill-opacity: 0;"/></g><g class="traces" transform="translate(0,52.5)" style="opacity: 1;"><text class="legendtext" text-anchor="start" x="40" y="4.680000000000001" style="font-family: 'Open Sans', verdana, arial, sans-serif; font-size: 12px; fill: rgb(42, 63, 95); fill-opacity: 1; white-space: pre;">Conic =6.45</text><g class="layers" style="opacity: 1;"><g class="legendfill"/><g class="legendlines"><path class="js-line" d="M5,0h30" style="fill: none; stroke: rgb(0, 204, 150); stroke-opacity: 1; stroke-width: 2px;"/></g><g class="legendsymbols"><g class="legendpoints"/></g></g><rect class="legendtoggle" x="0" y="-9.5" width="130.8186798095703" height="19" style="fill: rgb(0, 0, 0); fill-opacity: 0;"/></g><g class="traces" transform="translate(0,71.5)" style="opacity: 1;"><text class="legendtext" text-anchor="start" x="40" y="4.680000000000001" style="font-family: 'Open Sans', verdana, arial, sans-serif; font-size: 12px; fill: rgb(42, 63, 95); fill-opacity: 1; white-space: pre;">Conic =9.625</text><g class="layers" style="opacity: 1;"><g class="legendfill"/><g class="legendlines"><path class="js-line" d="M5,0h30" style="fill: none; stroke: rgb(171, 99, 250); stroke-opacity: 1; stroke-width: 2px;"/></g><g class="legendsymbols"><g class="legendpoints"/></g></g><rect class="legendtoggle" x="0" y="-9.5" width="130.8186798095703" height="19" style="fill: rgb(0, 0, 0); fill-opacity: 0;"/></g><g class="traces" transform="translate(0,90.5)" style="opacity: 1;"><text class="legendtext" text-anchor="start" x="40" y="4.680000000000001" style="font-family: 'Open Sans', verdana, arial, sans-serif; font-size: 12px; fill: rgb(42, 63, 95); fill-opacity: 1; white-space: pre;">Conic =12.8</text><g class="layers" style="opacity: 1;"><g class="legendfill"/><g class="legendlines"><path class="js-line" d="M5,0h30" style="fill: none; stroke: rgb(255, 161, 90); stroke-opacity: 1; stroke-width: 2px;"/></g><g class="legendsymbols"><g class="legendpoints"/></g></g><rect class="legendtoggle" x="0" y="-9.5" width="130.8186798095703" height="19" style="fill: rgb(0, 0, 0); fill-opacity: 0;"/></g><g class="traces" transform="translate(0,109.5)" style="opacity: 1;"><text class="legendtext" text-anchor="start" x="40" y="4.680000000000001" style="font-family: 'Open Sans', verdana, arial, sans-serif; font-size: 12px; fill: rgb(42, 63, 95); fill-opacity: 1; white-space: pre;">Mean-Variance</text><g class="layers" style="opacity: 1;"><g class="legendfill"/><g class="legendlines"><path class="js-line" d="M5,0h30" style="fill: none; stroke: rgb(25, 211, 243); stroke-opacity: 1; stroke-width: 2px;"/></g><g class="legendsymbols"><g class="legendpoints"/></g></g><rect class="legendtoggle" x="0" y="-9.5" width="130.8186798095703" height="19" style="fill: rgb(0, 0, 0); fill-opacity: 0;"/></g><g class="traces" transform="translate(0,128.5)" style="opacity: 1;"><text class="legendtext" text-anchor="start" x="40" y="4.680000000000001" style="font-family: 'Open Sans', verdana, arial, sans-serif; font-size: 12px; fill: rgb(42, 63, 95); fill-opacity: 1; white-space: pre;">Mean-VaR</text><g class="layers" style="opacity: 1;"><g class="legendfill"/><g class="legendlines"><path class="js-line" d="M5,0h30" style="fill: none; stroke: rgb(255, 102, 146); stroke-opacity: 1; stroke-width: 2px;"/></g><g class="legendsymbols"><g class="legendpoints"/></g></g><rect class="legendtoggle" x="0" y="-9.5" width="130.8186798095703" height="19" style="fill: rgb(0, 0, 0); fill-opacity: 0;"/></g><g class="traces" transform="translate(0,147.5)" style="opacity: 1;"><text class="legendtext" text-anchor="start" x="40" y="4.680000000000001" style="font-family: 'Open Sans', verdana, arial, sans-serif; font-size: 12px; fill: rgb(42, 63, 95); fill-opacity: 1; white-space: pre;">Mean-CVaR 95%</text><g class="layers" style="opacity: 1;"><g class="legendfill"/><g class="legendlines"><path class="js-line" d="M5,0h30" style="fill: none; stroke: rgb(182, 232, 128); stroke-opacity: 1; stroke-width: 2px;"/></g><g class="legendsymbols"><g class="legendpoints"/></g></g><rect class="legendtoggle" x="0" y="-9.5" width="130.8186798095703" height="19" style="fill: rgb(0, 0, 0); fill-opacity: 0;"/></g><g class="traces" transform="translate(0,166.5)" style="opacity: 1;"><text class="legendtext" text-anchor="start" x="40" y="4.680000000000001" style="font-family: 'Open Sans', verdana, arial, sans-serif; font-size: 12px; fill: rgb(42, 63, 95); fill-opacity: 1; white-space: pre;">Mean-CVaR 99%</text><g class="layers" style="opacity: 1;"><g class="legendfill"/><g class="legendlines"><path class="js-line" d="M5,0h30" style="fill: none; stroke: rgb(255, 151, 255); stroke-opacity: 1; stroke-width: 2px;"/></g><g class="legendsymbols"><g class="legendpoints"/></g></g><rect class="legendtoggle" x="0" y="-9.5" width="130.8186798095703" height="19" style="fill: rgb(0, 0, 0); fill-opacity: 0;"/></g><g class="traces" transform="translate(0,185.5)" style="opacity: 1;"><text class="legendtext" text-anchor="start" x="40" y="4.680000000000001" style="font-family: 'Open Sans', verdana, arial, sans-serif; font-size: 12px; fill: rgb(42, 63, 95); fill-opacity: 1; white-space: pre;">DJIA</text><g class="layers" style="opacity: 1;"><g class="legendfill"/><g class="legendlines"><path class="js-line" d="M5,0h30" style="fill: none; stroke: rgb(254, 203, 82); stroke-opacity: 1; stroke-width: 2px;"/></g><g class="legendsymbols"><g class="legendpoints"/></g></g><rect class="legendtoggle" x="0" y="-9.5" width="130.8186798095703" height="19" style="fill: rgb(0, 0, 0); fill-opacity: 0;"/></g></g></g><rect class="scrollbar" rx="20" ry="3" width="0" height="0" x="0" y="0" style="fill: rgb(128, 139, 164); fill-opacity: 1;"/></g><g class="g-gtitle"/><g class="g-xtitle"/><g class="g-ytitle"/></g></svg>