<svg class="main-svg" xmlns="http://www.w3.org/2000/svg" xmlns:xlink="http://www.w3.org/1999/xlink" width="1238" height="321" style=""><rect x="0" y="0" width="1238" height="321" style="fill: rgb(255, 255, 255); fill-opacity: 1;"/><defs id="defs-4cc7b9"><g class="clips"><clipPath id="clip4cc7b9xyplot" class="plotclip"><rect width="1020" height="211"/></clipPath><clipPath class="axesclip" id="clip4cc7b9x"><rect x="50" y="0" width="1020" height="321"/></clipPath><clipPath class="axesclip" id="clip4cc7b9y"><rect x="0" y="60" width="1238" height="211"/></clipPath><clipPath class="axesclip" id="clip4cc7b9xy"><rect x="50" y="60" width="1020" height="211"/></clipPath></g><g class="gradients"/><g class="patterns"/></defs><g class="bglayer"><rect class="bg" x="50" y="60" width="1020" height="211" style="fill: rgb(229, 236, 246); fill-opacity: 1; stroke-width: 0;"/></g><g class="layer-below"><g class="imagelayer"/><g class="shapelayer"/></g><g class="cartesianlayer"><g class="subplot xy"><g class="layer-subplot"><g class="shapelayer"/><g class="imagelayer"/></g><g class="gridlayer"><g class="x"><path class="xgrid crisp" transform="translate(197.86,0)" d="M0,60v211" style="stroke: rgb(255, 255, 255); stroke-opacity: 1; stroke-width: 1px;"/><path class="xgrid crisp" transform="translate(350.74,0)" d="M0,60v211" style="stroke: rgb(255, 255, 255); stroke-opacity: 1; stroke-width: 1px;"/><path class="xgrid crisp" transform="translate(503.61,0)" d="M0,60v211" style="stroke: rgb(255, 255, 255); stroke-opacity: 1; stroke-width: 1px;"/><path class="xgrid crisp" transform="translate(658.99,0)" d="M0,60v211" style="stroke: rgb(255, 255, 255); stroke-opacity: 1; stroke-width: 1px;"/><path class="xgrid crisp" transform="translate(811.87,0)" d="M0,60v211" style="stroke: rgb(255, 255, 255); stroke-opacity: 1; stroke-width: 1px;"/><path class="xgrid crisp" transform="translate(964.74,0)" d="M0,60v211" style="stroke: rgb(255, 255, 255); stroke-opacity: 1; stroke-width: 1px;"/></g><g class="y"><path class="ygrid crisp" transform="translate(0,239.67)" d="M50,0h1020" style="stroke: rgb(255, 255, 255); stroke-opacity: 1; stroke-width: 1px;"/><path class="ygrid crisp" transform="translate(0,165.87)" d="M50,0h1020" style="stroke: rgb(255, 255, 255); stroke-opacity: 1; stroke-width: 1px;"/><path class="ygrid crisp" transform="translate(0,92.07)" d="M50,0h1020" style="stroke: rgb(255, 255, 255); stroke-opacity: 1; stroke-width: 1px;"/></g></g><g class="zerolinelayer"/><path class="xlines-below"/><path class="ylines-below"/><g class="overlines-below"/><g class="xaxislayer-below"/><g class="yaxislayer-below"/><g class="overaxes-below"/><g class="plot" transform="translate(50,60)" clip-path="url(#clip4cc7b9xyplot)"><g class="scatterlayer mlayer"><g class="trace scatter trace9d11db" style="stroke-miterlimit: 2; opacity: 1;"><g class="fills"/><g class="errorbars"/><g class="lines"><path class="js-line" d="M0,48.77L2.51,51.61L10.02,50.88L12.53,53.25L15.04,52.81L17.54,49.74L20.05,50.04L30.07,48.05L32.58,45.18L35.09,43.57L37.59,42.86L47.62,43.74L50.12,43.01L52.63,42.93L55.14,46.39L67.67,50.4L70.17,46.17L72.68,50.75L80.2,50.16L82.7,48.13L85.21,43.94L87.71,44.2L90.22,45.57L97.74,44.1L100.25,44.6L107.76,45.08L117.79,47.65L120.29,46.89L122.8,47.85L125.31,47.49L132.83,58.04L135.33,65.92L137.84,68.88L140.34,86.06L142.85,92.71L150.37,74.98L152.87,82.61L155.38,65.15L157.89,77.27L160.39,81.75L167.91,106.48L170.42,92L172.92,110.3L175.43,144.75L177.94,124.45L185.45,157.9L187.96,142.32L190.47,158.48L192.97,162.52L195.48,178.06L203,189.18L205.5,166.69L208.01,162.47L210.52,144.96L213.02,154.62L220.54,141.14L223.05,146.13L225.55,156.71L228.06,144.58L230.57,146.54L238.08,128.46L240.59,130.79L243.1,121.74L245.6,116.9L255.63,122.47L258.13,112.24L260.64,120.8L263.14,121.92L265.65,110.3L273.17,119.81L275.68,126.4L278.18,119.82L280.69,120.36L283.19,117.65L290.71,112.39L293.22,112.83L295.72,108.19L298.23,113.62L300.74,120.96L308.26,121.19L310.76,120.19L313.27,125.12L315.77,124.16L318.28,116.43L325.8,117.95L330.81,130.67L333.32,128.15L335.82,128.53L343.34,117.08L345.85,122.98L348.35,116.94L350.86,119.86L353.37,120.28L363.39,115.44L365.9,111.48L370.91,109.59L378.43,110.7L380.93,108.07L383.44,101.78L385.95,102.5L388.45,94.18L395.97,88.11L398.48,93.41L400.98,97.96L403.49,120.08L406,116.46L413.51,115.6L416.02,110.69L418.53,112.79L421.03,112.13L423.54,115.57L431.06,116.15L433.56,117.21L436.07,125.37L438.57,123.61L441.08,131.53L448.6,125.37L451.11,122.36L453.61,122.6L456.12,121.27L466.14,117.43L468.65,119.58L471.15,119.44L473.66,125.55L476.17,119.59L483.69,118.29L486.19,111.51L488.7,108.94L491.2,109.29L493.71,107.7L501.23,110.39L506.24,100.13L508.75,101.54L511.25,101.79L518.77,100.94L521.28,101.65L523.78,101.16L526.29,103.92L528.8,105.34L536.31,106.3L538.82,102.02L541.33,99.24L543.83,97.75L546.34,95.71L553.86,93.81L556.36,94.19L558.87,90.69L561.38,92.17L563.88,91.56L573.91,90.77L576.41,94.46L578.92,94.85L581.43,94.21L588.94,89.82L591.45,91.67L593.96,92.08L596.46,91.29L598.97,86.37L606.49,89.04L608.99,90.96L611.5,83.51L614,89.17L616.51,89.74L626.54,95.04L629.04,92.27L631.55,96.02L634.05,93.08L644.08,90.19L646.58,88.49L649.09,89.57L651.6,91.67L659.12,99.07L661.62,98.2L664.13,105.32L666.63,104.19L669.14,102.12L676.66,98.15L679.16,101.51L681.67,98.57L684.18,100.76L686.68,100.69L694.2,96.74L696.71,100.35L701.72,91.51L704.23,91.08L711.74,89.21L714.25,91.48L716.76,93.2L719.26,92.73L721.77,91.73L729.29,97.03L731.79,95.02L734.3,95.97L736.81,91.67L739.31,91.24L749.34,99.49L751.84,112.62L754.35,110.57L756.86,111.13L764.37,105.93L766.88,102.02L769.39,102.09L771.89,99.43L774.4,98.98L781.92,84L784.42,77.78L786.93,78.25L789.43,83.67L791.94,78.4L799.46,73.82L801.97,75.48L804.47,80.77L806.98,79.88L809.48,81.55L817,77.33L819.51,71.36L822.01,73.74L827.03,74.62L834.55,77.44L839.56,71.75L842.06,70.17L844.57,65.97L852.09,69.27L854.59,66.02L857.1,65.93L859.61,66.34L862.11,64.11L869.63,68.74L872.14,64.92L874.64,67.7L877.15,65.82L879.66,65.51L887.17,70.71L889.68,73.35L892.19,71.16L904.72,67.64L907.22,68.7L909.73,68.19L912.24,65.72L922.26,71.05L924.77,69.05L929.78,68.68L932.29,65.56L944.82,66.51L947.32,67.92L949.83,71.05L959.85,70.84L962.36,68.74L964.86,70.05L967.37,71.69L974.89,69.46L977.4,69.03L979.9,78.37L982.41,74.81L984.91,81.4L992.43,80.6L994.94,78.53L997.44,77.68L999.95,74.38L1002.46,70.55L1009.98,67.66L1014.99,67.3L1017.49,67.85L1020,67" style="vector-effect: non-scaling-stroke; fill: none; stroke: rgb(99, 110, 250); stroke-opacity: 1; stroke-width: 2px; opacity: 1;"/></g><g class="points"/><g class="text"/></g><g class="trace scatter tracee769a8" style="stroke-miterlimit: 2; opacity: 1;"><g class="fills"/><g class="errorbars"/><g class="lines"><path class="js-line" d="M0,48.77L2.51,51.63L10.02,50.68L12.53,53.24L15.04,53.25L17.54,49.47L20.05,50L30.07,47.86L32.58,44.83L37.59,43.55L47.62,44.66L50.12,44.1L52.63,44.33L55.14,48.03L62.65,50.24L67.67,50.78L70.17,45.69L72.68,51.05L80.2,49.56L85.21,45.28L87.71,45.82L90.22,47.46L97.74,46.1L107.76,46.2L117.79,48.49L120.29,47.92L122.8,48.64L125.31,48.07L132.83,58.98L135.33,66.57L137.84,70.24L140.34,87.66L142.85,93.9L150.37,76.16L152.87,83.47L155.38,66.68L157.89,79.25L160.39,83.16L167.91,107.76L170.42,92.78L172.92,111.07L175.43,146.25L177.94,126.58L185.45,158.19L187.96,143.09L190.47,158.19L192.97,162.08L195.48,178.66L203,190.58L205.5,167.84L208.01,163.49L210.52,147.42L213.02,156.7L220.54,142.97L223.05,147.79L225.55,157.96L228.06,146.01L230.57,147.86L238.08,129.51L240.59,132.58L243.1,123.87L245.6,119.01L255.63,124.77L258.13,114.46L260.64,122.51L263.14,123.49L265.65,112.3L273.17,122.44L275.68,129.15L278.18,122.88L280.69,123.77L290.71,116.19L293.22,116.97L295.72,112.82L298.23,118.56L300.74,125.8L308.26,126.29L310.76,125.89L313.27,130.8L315.77,129.87L318.28,122.16L325.8,123.46L328.3,129.19L330.81,135.26L333.32,132.8L335.82,132.9L343.34,121.31L345.85,127.12L348.35,120.46L350.86,123.7L353.37,124.21L363.39,119.38L365.9,116.03L370.91,114.77L378.43,114.23L380.93,112.16L383.44,105.45L385.95,106.51L388.45,98.26L395.97,92.26L398.48,97.78L400.98,102.44L403.49,123.85L406,120.96L413.51,119.81L416.02,114.91L418.53,117.13L421.03,116.36L423.54,119.52L433.56,120.39L436.07,128.35L438.57,126.95L441.08,134.89L448.6,129.24L451.11,126.26L453.61,126.08L456.12,125.1L466.14,121.1L468.65,122.23L471.15,122.47L473.66,128.04L476.17,122.06L483.69,121.42L486.19,114.76L488.7,111.79L491.2,112.73L493.71,111.43L501.23,114.4L503.73,109.34L506.24,104.54L508.75,105.96L511.25,106.52L518.77,105.28L521.28,106.4L523.78,106.35L526.29,108.9L528.8,110.01L536.31,110.86L538.82,106.51L541.33,103.05L543.83,101.61L546.34,99.97L553.86,98.67L556.36,98.48L558.87,94.69L561.38,95.91L563.88,95.37L573.91,94.34L576.41,98.23L578.92,98.62L581.43,98.15L588.94,93.86L591.45,95.62L593.96,95.81L596.46,94.49L598.97,88.43L606.49,91.44L608.99,92.57L611.5,84.99L614,90.57L616.51,90.99L626.54,96.36L629.04,93.62L631.55,97.12L634.05,94.15L644.08,91.91L646.58,89.78L651.6,93.12L659.12,100.67L661.62,99.7L664.13,106.71L676.66,99.69L679.16,103.14L681.67,100.22L684.18,102.42L686.68,102.71L694.2,99.05L696.71,102.89L699.21,99.25L701.72,94.5L704.23,93.6L711.74,91.77L714.25,93.44L716.76,94.95L719.26,94.44L721.77,93.77L729.29,99.21L731.79,96.58L734.3,97.06L736.81,92.71L739.31,92.77L749.34,100.73L751.84,114L754.35,112.08L756.86,113.29L764.37,108.48L766.88,104.15L769.39,103.83L771.89,101.57L774.4,100.9L781.92,86.41L784.42,80.56L786.93,80.86L789.43,86.32L791.94,81.06L799.46,76L801.97,77.32L804.47,83.02L806.98,81.92L809.48,84.05L817,79.77L819.51,73.91L822.01,76.21L834.55,80.59L837.05,77.59L842.06,74.26L844.57,69.89L852.09,73.24L854.59,70.08L859.61,69.9L862.11,65.99L869.63,70.49L872.14,66.49L874.64,68.89L877.15,67.13L879.66,66.73L887.17,71.86L889.68,74.11L892.19,72.04L904.72,67.34L907.22,68.25L909.73,67.32L912.24,64.77L922.26,70.76L924.77,68.87L929.78,69.22L932.29,65.58L939.8,65.53L942.31,66.9L944.82,66.6L947.32,68.52L949.83,72.22L959.85,72.16L962.36,70.04L964.86,72.01L967.37,73.16L974.89,71.56L977.4,70.28L979.9,80.16L982.41,75.74L984.91,82.36L992.43,81.27L994.94,78.37L997.44,77.7L999.95,74.73L1002.46,70.42L1009.98,67.12L1014.99,66.98L1017.49,67L1020,65.97" style="vector-effect: non-scaling-stroke; fill: none; stroke: rgb(239, 85, 59); stroke-opacity: 1; stroke-width: 2px; opacity: 1;"/></g><g class="points"/><g class="text"/></g><g class="trace scatter trace97106f" style="stroke-miterlimit: 2; opacity: 1;"><g class="fills"/><g class="errorbars"/><g class="lines"><path class="js-line" d="M0,48.77L2.51,51.6L10.02,50.58L12.53,53.47L15.04,53.25L17.54,49.02L20.05,49.43L30.07,47.4L32.58,44.15L35.09,43.28L37.59,43.27L47.62,44.36L50.12,43.66L52.63,43.49L55.14,47.6L65.16,50.4L67.67,50.09L70.17,44.74L72.68,50.2L80.2,48.66L82.7,46.86L85.21,45.07L87.71,45.82L90.22,47.27L97.74,45.93L102.75,45.92L105.26,46.34L107.76,45.73L117.79,47.64L120.29,47.39L122.8,48.06L125.31,47.41L132.83,58.07L135.33,65.42L137.84,68.79L140.34,86.03L142.85,92.56L150.37,74.42L152.87,81.42L155.38,64.72L157.89,77.53L160.39,81.67L167.91,105.95L170.42,90.84L172.92,108.33L175.43,143.69L177.94,124.98L185.45,157.11L187.96,142.38L190.47,157.57L192.97,161.35L195.48,177.56L203,189.35L205.5,166.74L208.01,161.89L210.52,146.34L213.02,155.83L220.54,141.8L223.05,146.18L225.55,156.64L228.06,144.07L230.57,145.77L238.08,126.67L240.59,130.07L243.1,121.33L245.6,116.28L255.63,122.35L258.13,112.12L260.64,120.1L263.14,120.79L265.65,110.02L273.17,120.04L275.68,127.37L278.18,120.72L280.69,122.05L283.19,119.68L290.71,113.81L293.22,114.86L295.72,111.31L300.74,123.86L308.26,124.39L310.76,123.68L313.27,128.4L315.77,127.88L318.28,120.39L325.8,121.33L328.3,126.89L330.81,132.61L333.32,130.07L335.82,130.46L343.34,119.17L345.85,124.85L348.35,118.15L350.86,121.51L353.37,122.18L363.39,117.55L365.9,114.56L368.4,113.42L370.91,113.13L378.43,112.88L380.93,110.9L383.44,104.08L385.95,105.34L388.45,97.34L395.97,91.43L400.98,101.57L403.49,122.69L406,120.19L413.51,119.32L416.02,114.31L418.53,116.56L421.03,115.99L423.54,119.11L433.56,119.79L436.07,127.44L438.57,126.23L441.08,134.13L448.6,128.67L451.11,125.69L456.12,124.29L466.14,120.53L471.15,121.9L473.66,127.08L476.17,121.09L483.69,120.35L486.19,113.74L488.7,110.56L491.2,111.79L493.71,110.3L501.23,113.3L503.73,108.01L506.24,102.92L508.75,104.38L511.25,105.04L518.77,103.26L521.28,104.54L523.78,104.76L526.29,107.66L528.8,108.74L536.31,109.63L538.82,105.15L541.33,102.22L543.83,100.74L546.34,99.34L553.86,98.14L556.36,97.87L558.87,93.88L561.38,94.79L563.88,94.22L573.91,92.73L576.41,96.77L578.92,97.33L581.43,96.78L588.94,92.71L591.45,94.53L593.96,94.55L596.46,93.14L598.97,86.39L606.49,89.36L608.99,89.86L611.5,82.04L614,87.72L616.51,88.12L626.54,93.93L629.04,90.93L631.55,94.4L634.05,91.24L644.08,88.82L646.58,86.7L651.6,90.18L659.12,97.67L661.62,96.61L664.13,103.76L669.14,100.39L676.66,96.88L679.16,100.28L681.67,97.18L684.18,99.28L686.68,99.59L694.2,96.18L696.71,100.19L701.72,91.9L704.23,91.08L711.74,89.34L714.25,90.65L716.76,92.09L719.26,91.94L721.77,91.14L729.29,96.39L731.79,94.03L734.3,94.92L736.81,90.39L739.31,90.6L749.34,98.26L751.84,111.81L754.35,109.87L756.86,111.24L764.37,106.5L766.88,102.38L769.39,101.42L771.89,99.62L774.4,99.01L781.92,84.99L784.42,79.38L786.93,79.25L789.43,84.91L791.94,79.85L799.46,75.02L801.97,75.66L804.47,81.3L806.98,79.69L809.48,81.93L817,77.64L819.51,71.85L822.01,74.21L834.55,78.28L837.05,75.49L842.06,73.08L844.57,68.64L852.09,71.87L854.59,68.6L859.61,68.51L862.11,65.3L869.63,69.64L872.14,65.91L874.64,68.45L877.15,66.99L879.66,66.69L887.17,71.79L889.68,73.81L892.19,71.82L904.72,67.09L907.22,67.87L909.73,67.19L912.24,64.68L922.26,70.89L924.77,69.17L927.27,70.55L929.78,70.4L932.29,66.48L939.8,66.38L942.31,67.88L944.82,67.95L947.32,70.19L949.83,73.88L959.85,73.96L962.36,71.6L967.37,74.86L974.89,73.57L977.4,72.29L979.9,82.45L982.41,78.3L984.91,84.61L992.43,83.52L994.94,80.49L997.44,79.89L999.95,77.38L1002.46,73.11L1009.98,70.13L1012.48,69.64L1014.99,70.27L1017.49,70.03L1020,68.68" style="vector-effect: non-scaling-stroke; fill: none; stroke: rgb(0, 204, 150); stroke-opacity: 1; stroke-width: 2px; opacity: 1;"/></g><g class="points"/><g class="text"/></g><g class="trace scatter trace81db32" style="stroke-miterlimit: 2; opacity: 1;"><g class="fills"/><g class="errorbars"/><g class="lines"><path class="js-line" d="M0,48.77L2.51,51.57L10.02,50.57L12.53,53.56L15.04,53.36L17.54,49.1L20.05,49.54L30.07,47.58L32.58,44.35L35.09,43.48L37.59,43.55L47.62,44.64L50.12,43.87L52.63,43.7L55.14,47.89L65.16,50.61L67.67,50.32L70.17,44.87L72.68,50.36L80.2,48.79L82.7,46.93L85.21,45.29L87.71,46.01L90.22,47.38L97.74,45.97L102.75,45.9L105.26,46.24L107.76,45.61L117.79,47.39L120.29,47.18L122.8,47.84L125.31,47.19L132.83,57.83L135.33,65.23L137.84,68.66L140.34,85.86L142.85,92.47L150.37,74.28L152.87,81.13L155.38,64.48L157.89,77.27L160.39,81.32L167.91,105.71L170.42,90.56L172.92,107.81L175.43,143.4L177.94,124.57L185.45,157.08L187.96,142.53L190.47,158.13L192.97,161.65L195.48,177.63L203,189.28L205.5,166.57L208.01,161.75L210.52,146.2L213.02,155.87L220.54,141.9L223.05,146.27L225.55,156.87L228.06,144.24L230.57,145.97L238.08,126.64L240.59,130.03L243.1,121.45L245.6,116.26L255.63,122.28L258.13,112.11L260.64,120.19L263.14,120.88L265.65,110.18L273.17,120.27L275.68,127.68L278.18,121.03L280.69,122.55L283.19,120.14L290.71,114.11L293.22,115.14L295.72,111.61L300.74,124.14L308.26,124.72L310.76,124.01L313.27,128.76L315.77,128.13L318.28,120.63L325.8,121.64L328.3,127.21L330.81,132.91L333.32,130.36L335.82,130.81L343.34,119.44L345.85,125.13L348.35,118.28L350.86,121.62L353.37,122.34L363.39,117.63L365.9,114.66L370.91,113.38L378.43,113.03L380.93,111.11L383.44,104.27L385.95,105.48L388.45,97.54L395.97,91.59L398.48,96.96L400.98,101.81L403.49,122.87L406,120.39L413.51,119.5L416.02,114.5L418.53,116.75L421.03,116.18L423.54,119.31L433.56,119.93L436.07,127.55L438.57,126.34L441.08,134.26L448.6,128.8L451.11,125.83L456.12,124.48L466.14,120.76L471.15,122.01L473.66,127.16L476.17,121.06L483.69,120.47L486.19,113.84L488.7,110.65L491.2,111.92L493.71,110.43L501.23,113.48L503.73,108.07L506.24,102.91L508.75,104.41L511.25,105.01L518.77,103.2L521.28,104.54L523.78,104.8L526.29,107.76L528.8,108.9L536.31,109.85L538.82,105.33L541.33,102.41L543.83,100.84L546.34,99.47L553.86,98.19L556.36,97.92L558.87,93.94L561.38,94.74L563.88,94.14L573.91,92.68L576.41,96.84L578.92,97.5L581.43,96.95L588.94,92.87L591.45,94.65L593.96,94.62L596.46,93.06L598.97,86.22L606.49,89.26L608.99,89.5L611.5,81.63L614,87.28L616.51,87.68L626.54,93.61L629.04,90.61L631.55,94.03L634.05,90.89L644.08,88.49L646.58,86.38L651.6,89.91L659.12,97.33L661.62,96.16L664.13,103.49L669.14,100.13L676.66,96.62L679.16,100.04L681.67,96.94L684.18,98.9L686.68,99.16L694.2,95.8L696.71,99.79L701.72,91.55L704.23,90.77L711.74,88.99L714.25,90.17L716.76,91.68L719.26,91.47L721.77,90.73L729.29,95.93L731.79,93.52L734.3,94.37L736.81,89.89L739.31,90.08L749.34,97.78L751.84,111.31L754.35,109.34L756.86,110.7L764.37,105.97L766.88,101.7L769.39,100.79L771.89,98.92L774.4,98.36L781.92,84.32L784.42,78.6L786.93,78.44L789.43,84.12L791.94,79.04L799.46,74.04L801.97,74.8L804.47,80.42L806.98,78.68L809.48,80.94L817,76.53L819.51,70.71L822.01,73.1L834.55,77.27L837.05,74.59L842.06,72.3L844.57,67.85L852.09,71.15L854.59,68.03L859.61,68.02L862.11,64.75L869.63,68.96L872.14,65.28L874.64,67.9L877.15,66.56L879.66,66.26L887.17,71.33L889.68,73.38L892.19,71.36L904.72,66.57L907.22,67.4L909.73,66.75L912.24,64.27L922.26,70.52L924.77,68.97L927.27,70.42L929.78,70.3L932.29,66.32L939.8,66.28L942.31,67.73L944.82,67.86L947.32,70.3L949.83,74L959.85,74.16L962.36,71.72L967.37,75L974.89,73.81L977.4,72.62L979.9,82.81L982.41,78.68L984.91,84.95L992.43,83.82L994.94,80.67L997.44,80.09L999.95,77.64L1002.46,73.47L1009.98,70.51L1012.48,70.02L1014.99,70.67L1017.49,70.31L1020,68.99" style="vector-effect: non-scaling-stroke; fill: none; stroke: rgb(171, 99, 250); stroke-opacity: 1; stroke-width: 2px; opacity: 1;"/></g><g class="points"/><g class="text"/></g><g class="trace scatter trace34fc88" style="stroke-miterlimit: 2; opacity: 1;"><g class="fills"/><g class="errorbars"/><g class="lines"><path class="js-line" d="M0,48.77L2.51,51.63L10.02,50.7L12.53,53.69L15.04,53.47L17.54,49.13L20.05,49.49L30.07,47.41L32.58,44.14L35.09,43.28L37.59,43.4L47.62,44.52L50.12,43.81L52.63,43.56L55.14,47.71L65.16,50.79L67.67,50.4L70.17,44.9L72.68,50.31L80.2,48.7L82.7,46.86L85.21,45.23L87.71,45.88L90.22,47.24L97.74,45.79L100.25,45.42L102.75,45.88L105.26,46.48L107.76,45.86L122.8,48.25L125.31,47.59L132.83,58.2L135.33,65.62L137.84,68.87L140.34,85.92L142.85,92.75L150.37,74.64L152.87,81.55L155.38,64.93L157.89,77.93L160.39,82.33L167.91,106.83L170.42,91.93L172.92,109.17L175.43,144.5L177.94,126.41L185.45,158.83L187.96,144.5L190.47,160.36L192.97,164.47L195.48,180.43L203,191.51L205.5,169.29L208.01,163.43L210.52,147.72L213.02,157.85L220.54,143.82L223.05,147.94L225.55,158.79L228.06,146.21L230.57,147.93L238.08,128.57L240.59,131.83L243.1,122.91L245.6,117.74L255.63,124.27L258.13,114.29L260.64,122.07L263.14,123L265.65,112.26L273.17,122.16L275.68,129.83L278.18,123.33L280.69,124.61L283.19,122.32L290.71,116.1L293.22,117.26L295.72,113.67L298.23,119.53L300.74,126.28L308.26,126.91L310.76,126.1L313.27,130.67L315.77,130.16L318.28,122.7L325.8,123.64L328.3,129.18L330.81,134.74L333.32,132.18L335.82,132.67L343.34,121.32L345.85,126.93L348.35,120.23L350.86,123.49L353.37,124.28L363.39,119.47L365.9,116.58L368.4,115.41L370.91,115.19L378.43,115.12L380.93,113.13L383.44,106.03L385.95,107.01L388.45,98.94L395.97,92.89L400.98,103.25L403.49,124.91L406,122.14L413.51,121.39L416.02,116.24L418.53,118.6L421.03,118.06L423.54,121.31L433.56,121.92L436.07,129.67L438.57,128.54L441.08,136.43L451.11,128.07L453.61,127.41L466.14,122.9L468.65,123.48L471.15,124.43L473.66,129.62L476.17,123.56L483.69,122.75L486.19,116.21L488.7,112.81L491.2,114.23L493.71,112.73L501.23,115.75L503.73,110.3L506.24,105.18L508.75,106.78L511.25,107.57L518.77,105.82L521.28,107.08L523.78,107.49L526.29,110.67L528.8,111.8L536.31,112.67L538.82,108.45L541.33,105.29L543.83,103.88L546.34,102.6L553.86,101.41L556.36,101.03L558.87,97.1L561.38,97.95L563.88,97.35L573.91,96.04L576.41,100.12L578.92,100.71L581.43,100.25L588.94,96.05L591.45,97.93L593.96,97.88L596.46,96.37L598.97,89.45L606.49,92.46L608.99,92.91L611.5,84.91L614,90.67L616.51,90.9L626.54,96.99L629.04,94L631.55,97.5L634.05,94.23L644.08,91.84L646.58,89.73L651.6,93.26L659.12,100.93L661.62,99.85L664.13,107.11L669.14,103.77L676.66,100.16L679.16,103.54L681.67,100.45L684.18,102.6L686.68,102.91L694.2,99.67L696.71,103.92L699.21,100.4L701.72,95.54L704.23,94.69L711.74,93.08L716.76,95.94L719.26,96.05L721.77,95.12L729.29,100.2L731.79,97.91L734.3,98.97L736.81,94.19L739.31,94.48L749.34,102.22L751.84,115.64L754.35,113.65L756.86,115.07L764.37,110.32L766.88,106.41L774.4,102.87L781.92,87.83L784.42,82.23L786.93,82.43L789.43,88.14L791.94,83.07L799.46,78.13L801.97,78.28L804.47,83.93L806.98,82.15L809.48,84.44L817,80.11L819.51,74.27L822.01,76.74L834.55,80.82L837.05,77.88L842.06,75.15L844.57,70.6L852.09,73.75L854.59,70.38L859.61,70.16L862.11,67.02L869.63,71.64L872.14,67.96L874.64,70.7L877.15,69.36L879.66,69.11L887.17,74.15L889.68,76.04L892.19,73.99L904.72,69.33L907.22,69.97L909.73,69.2L912.24,66.82L922.26,73.41L924.77,71.75L927.27,73.56L929.78,73.46L932.29,69.57L939.8,69.59L942.31,71.09L944.82,71.32L947.32,73.51L949.83,77.2L959.85,77.08L962.36,74.72L967.37,77.99L974.89,76.85L977.4,75.74L979.9,85.86L982.41,81.66L984.91,88.04L992.43,86.85L994.94,83.71L997.44,83.12L999.95,80.71L1002.46,76.53L1009.98,73.48L1012.48,73.04L1014.99,73.76L1017.49,73.35L1020,71.87" style="vector-effect: non-scaling-stroke; fill: none; stroke: rgb(255, 161, 90); stroke-opacity: 1; stroke-width: 2px; opacity: 1;"/></g><g class="points"/><g class="text"/></g><g class="trace scatter traced033ed" style="stroke-miterlimit: 2; opacity: 1;"><g class="fills"/><g class="errorbars"/><g class="lines"><path class="js-line" d="M0,48.77L2.51,51.76L10.02,51.11L12.53,53.55L15.04,52.43L17.54,49.27L20.05,49.71L30.07,47.99L32.58,45.23L35.09,43.46L37.59,42.94L47.62,43.77L50.12,42.87L52.63,42.72L55.14,46.37L62.65,48.99L65.16,48.7L67.67,49.73L70.17,45.29L72.68,49.95L80.2,49.07L82.7,46.69L85.21,42.77L87.71,43.09L90.22,44.54L97.74,42.92L100.25,43.47L105.26,42.98L107.76,43.06L117.79,45.25L120.29,44.26L122.8,45.1L125.31,44.75L132.83,55.63L135.33,63.93L137.84,67.34L140.34,84.76L142.85,91.7L150.37,73.95L152.87,81.58L155.38,64.13L157.89,76.58L160.39,80.77L167.91,106.24L170.42,90.96L172.92,109L175.43,143.85L177.94,121.9L185.45,156.96L187.96,142.2L190.47,159.91L192.97,162.42L195.48,177.95L203,189.7L205.5,165.74L208.01,160.86L210.52,143.52L213.02,153.79L220.54,140.42L223.05,146.15L225.55,156.85L228.06,144.35L230.57,146.85L238.08,127.98L240.59,130.52L243.1,121.59L245.6,116.3L255.63,121.73L258.13,112.09L260.64,119.82L263.14,120.52L265.65,109.12L273.17,118.88L275.68,125.78L278.18,119.37L280.69,120.15L283.19,117.59L290.71,112.21L293.22,112.81L295.72,108.32L298.23,113.43L300.74,120.16L308.26,121.03L310.76,120.3L313.27,125.38L315.77,123.83L318.28,116.27L325.8,118.29L328.3,124.41L330.81,130.71L333.32,127.71L335.82,127.96L343.34,116.65L345.85,122.64L348.35,116.23L350.86,119.28L353.37,119.8L363.39,114.86L365.9,110.42L370.91,109.26L378.43,109.5L380.93,107.32L383.44,100.71L385.95,101.65L388.45,93.43L395.97,87.69L398.48,92.94L400.98,97.43L403.49,118.94L406,115.46L413.51,114.28L416.02,109.44L418.53,111.61L421.03,110.96L423.54,114.88L433.56,115.99L436.07,124.01L438.57,122.12L441.08,130.4L448.6,124.43L451.11,121.25L453.61,121.24L456.12,120.35L466.14,116.32L468.65,118.13L471.15,117.75L473.66,123.13L476.17,117.04L483.69,115.97L486.19,109.13L488.7,106.81L491.2,107.23L493.71,105.93L501.23,108.61L503.73,103.49L506.24,98.58L508.75,99.81L511.25,100L518.77,99.27L521.28,100.31L523.78,99.73L528.8,103.89L536.31,104.97L541.33,97.09L543.83,95.26L546.34,93.2L553.86,91.48L556.36,91.4L558.87,87.84L561.38,89L563.88,88.45L573.91,87.91L576.41,91.53L578.92,92.03L581.43,91.3L588.94,86.99L591.45,88.33L593.96,88.52L596.46,87.19L598.97,81.96L606.49,84.96L608.99,85.9L611.5,78.2L614,83.7L616.51,84.32L626.54,89.54L629.04,86.45L631.55,89.96L634.05,87.21L646.58,83.2L649.09,84.64L651.6,86.59L659.12,94.02L661.62,93.05L664.13,100.25L666.63,99.04L669.14,96.77L676.66,92.8L679.16,95.86L681.67,92.92L684.18,94.49L686.68,94.32L694.2,90.38L696.71,93.86L699.21,89.7L701.72,85.3L704.23,84.49L711.74,82.48L714.25,84.14L716.76,86.21L719.26,85.64L721.77,84.83L729.29,90.39L731.79,88.53L734.3,89.37L736.81,85.17L739.31,84.61L749.34,92.87L751.84,106.2L754.35,104.13L756.86,104.57L764.37,99.87L766.88,95.18L769.39,95L771.89,91.94L774.4,91.57L781.92,77.08L784.42,71.18L786.93,71.42L789.43,76.45L791.94,71.57L799.46,66.52L801.97,68.06L804.47,73.26L806.98,72.42L809.48,74.29L817,69.75L819.51,63.61L822.01,66.21L827.03,67.23L834.55,69.95L839.56,65.28L842.06,64.28L844.57,60.33L852.09,63.67L854.59,61.05L857.1,61.32L859.61,62.09L862.11,58.85L869.63,62.89L872.14,58.83L874.64,61.38L877.15,59.73L879.66,59.28L887.17,64.12L889.68,66.56L892.19,64.32L904.72,60.09L907.22,61.17L909.73,60.62L912.24,57.87L922.26,63.59L924.77,61.99L929.78,61.19L932.29,58.11L944.82,60.24L947.32,62.3L949.83,65.47L959.85,65.41L962.36,63.45L964.86,64.82L967.37,66.61L974.89,64.75L977.4,64.46L979.9,74.83L982.41,70.65L984.91,77.2L992.43,76.01L994.94,73.11L997.44,72.44L999.95,69.41L1002.46,66.07L1009.98,63.11L1014.99,62.69L1017.49,62.69L1020,62.23" style="vector-effect: non-scaling-stroke; fill: none; stroke: rgb(25, 211, 243); stroke-opacity: 1; stroke-width: 2px; opacity: 1;"/></g><g class="points"/><g class="text"/></g><g class="trace scatter tracea3f7a5" style="stroke-miterlimit: 2; opacity: 1;"><g class="fills"/><g class="errorbars"/><g class="lines"><path class="js-line" d="M0,48.77L2.51,51.64L10.02,50.97L12.53,53.37L15.04,53.2L17.54,50.15L20.05,50.42L30.07,48.34L32.58,45.5L37.59,43.52L47.62,44.43L52.63,43.64L55.14,47.02L67.67,50.98L70.17,46.52L72.68,50.94L80.2,50.4L82.7,48.41L85.21,44.59L87.71,44.79L90.22,46.13L97.74,44.69L100.25,45.49L107.76,45.88L117.79,48.44L120.29,47.63L122.8,48.56L125.31,48.09L132.83,58.61L135.33,66.44L137.84,69.55L140.34,86.78L142.85,93.21L150.37,75.59L152.87,83.13L155.38,65.85L157.89,77.88L160.39,81.96L167.91,106.25L170.42,92.03L172.92,110.44L175.43,144.9L177.94,124.38L185.45,156.03L187.96,140.29L190.47,155.44L192.97,160.27L195.48,176.36L203,188.03L205.5,166.09L208.01,161.99L210.52,144.6L213.02,154L220.54,140.35L223.05,145.38L225.55,155.66L228.06,143.36L230.57,145.13L238.08,127.28L240.59,129.95L243.1,121.09L245.6,116.48L255.63,121.92L258.13,111.56L260.64,119.86L263.14,120.99L265.65,109.57L273.17,119.27L275.68,125.76L278.18,119.38L280.69,119.95L283.19,117.68L290.71,112.59L293.22,113.05L295.72,108.58L300.74,121.29L308.26,121.81L310.76,121.01L313.27,126.06L315.77,125.26L318.28,117.38L325.8,119.04L328.3,125.1L330.81,131.53L333.32,129.22L335.82,129.59L343.34,118.16L345.85,124.1L348.35,117.94L350.86,121.12L353.37,121.55L363.39,116.74L365.9,112.91L370.91,110.98L378.43,111.84L380.93,109.41L383.44,103.12L385.95,103.92L388.45,95.82L395.97,89.81L398.48,95.23L400.98,99.59L403.49,121.2L406,117.8L413.51,116.82L416.02,112.07L418.53,114.18L421.03,113.36L423.54,116.77L431.06,117.49L433.56,118.61L436.07,126.68L438.57,124.92L441.08,132.82L448.6,126.66L451.11,123.71L453.61,123.86L456.12,122.54L466.14,118.73L468.65,120.55L471.15,120.45L473.66,126.5L476.17,120.49L483.69,119.39L486.19,112.83L488.7,110.27L491.2,110.64L493.71,109.03L501.23,111.84L506.24,101.75L508.75,102.98L511.25,103.24L518.77,102.46L521.28,103L523.78,102.64L528.8,106.7L536.31,107.75L541.33,100.48L543.83,99.05L546.34,97.06L553.86,95.28L556.36,95.65L558.87,92.21L561.38,93.67L563.88,93.04L571.4,93.01L573.91,92.22L576.41,95.97L578.92,96.3L581.43,95.78L588.94,91.43L591.45,93.21L593.96,93.69L596.46,92.74L598.97,87.6L606.49,90.38L608.99,92.21L611.5,84.61L614,89.93L616.51,90.4L626.54,95.68L629.04,93.11L631.55,96.72L634.05,93.79L641.57,91.84L644.08,91.16L646.58,89.4L649.09,90.41L651.6,92.37L659.12,99.76L661.62,98.75L664.13,105.83L666.63,104.62L669.14,102.67L676.66,98.85L679.16,102.2L681.67,99.36L684.18,101.48L686.68,101.54L694.2,97.74L696.71,101.2L701.72,92.57L704.23,92.05L711.74,90.2L714.25,92.4L716.76,94.09L719.26,93.61L721.77,92.67L729.29,97.96L731.79,95.96L734.3,96.83L736.81,92.56L739.31,92.15L749.34,100.18L751.84,113.35L754.35,111.36L756.86,111.82L764.37,106.73L766.88,102.75L769.39,103.13L771.89,100.47L774.4,99.86L781.92,84.79L784.42,78.48L786.93,79L789.43,84.33L791.94,78.95L799.46,74.41L801.97,76.05L804.47,81.42L806.98,80.52L809.48,82.25L817,78.05L819.51,72.19L822.01,74.55L827.03,75.57L834.55,78.39L839.56,72.81L842.06,71.08L844.57,66.76L852.09,70.09L854.59,66.92L857.1,66.97L859.61,67.47L862.11,64.71L869.63,69.36L872.14,65.62L874.64,68.44L877.15,66.65L879.66,66.13L887.17,71.48L889.68,74.17L892.19,72.01L904.72,68.25L907.22,69.22L909.73,68.66L912.24,66.12L922.26,71.45L924.77,69.6L929.78,69.45L932.29,66.4L939.8,66.69L942.31,67.73L944.82,67.59L947.32,69.04L949.83,72.44L959.85,72.32L962.36,70.38L964.86,71.96L967.37,73.66L974.89,71.4L977.4,70.82L979.9,80.14L982.41,76.37L984.91,82.88L992.43,82.06L994.94,79.93L997.44,79.14L999.95,76.02L1002.46,72.12L1009.98,69.22L1014.99,68.92L1017.49,69.32L1020,68.55" style="vector-effect: non-scaling-stroke; fill: none; stroke: rgb(255, 102, 146); stroke-opacity: 1; stroke-width: 2px; opacity: 1;"/></g><g class="points"/><g class="text"/></g><g class="trace scatter trace2121f4" style="stroke-miterlimit: 2; opacity: 1;"><g class="fills"/><g class="errorbars"/><g class="lines"><path class="js-line" d="M0,48.77L2.51,51.63L10.02,50.95L12.53,53.33L15.04,53.13L17.54,50.05L20.05,50.31L30.07,48.2L32.58,45.33L37.59,43.34L47.62,44.23L52.63,43.42L55.14,46.82L67.67,50.68L70.17,46.21L72.68,50.59L80.2,49.97L82.7,47.98L85.21,44.22L87.71,44.43L90.22,45.77L97.74,44.33L100.25,45.1L107.76,45.48L117.79,48.02L120.29,47.25L122.8,48.15L125.31,47.64L132.83,58.13L135.33,65.88L137.84,68.96L140.34,86.19L142.85,92.73L150.37,75.07L152.87,82.54L155.38,65.2L157.89,77.21L160.39,81.25L167.91,105.45L170.42,91.17L172.92,109.7L175.43,144.19L177.94,123.6L185.45,155.31L187.96,139.51L190.47,154.55L192.97,159.52L195.48,175.66L203,187.39L205.5,165.42L208.01,161.43L210.52,144.04L213.02,153.34L220.54,139.61L223.05,144.67L225.55,155L228.06,142.71L230.57,144.4L238.08,126.49L240.59,129.27L243.1,120.44L245.6,115.78L255.63,121.22L258.13,110.77L260.64,119.05L263.14,120.16L265.65,108.79L273.17,118.49L275.68,124.98L278.18,118.59L280.69,119.22L283.19,116.94L290.71,111.85L293.22,112.36L295.72,108L300.74,120.6L308.26,121.14L310.76,120.34L313.27,125.39L315.77,124.62L318.28,116.77L325.8,118.4L328.3,124.45L330.81,130.84L333.32,128.54L335.82,128.9L343.34,117.55L345.85,123.47L348.35,117.33L350.86,120.5L353.37,120.94L363.39,116.17L365.9,112.36L370.91,110.37L378.43,111.23L380.93,108.82L383.44,102.57L385.95,103.4L388.45,95.38L395.97,89.37L398.48,94.78L400.98,99.07L403.49,120.64L406,117.28L413.51,116.29L416.02,111.55L418.53,113.62L421.03,112.82L423.54,116.17L431.06,116.91L433.56,118.03L436.07,126.06L438.57,124.31L441.08,132.19L448.6,126.05L451.11,123.08L453.61,123.2L456.12,121.87L466.14,118.05L468.65,119.82L471.15,119.74L473.66,125.75L476.17,119.75L483.69,118.62L486.19,112.06L488.7,109.51L491.2,109.87L493.71,108.22L501.23,111.01L506.24,100.86L508.75,102.1L511.25,102.34L518.77,101.56L521.28,102.1L523.78,101.74L528.8,105.75L536.31,106.81L538.82,102.43L541.33,99.6L546.34,96.17L553.86,94.43L556.36,94.82L558.87,91.34L561.38,92.77L563.88,92.15L571.4,92.08L573.91,91.26L576.41,95.02L578.92,95.32L581.43,94.77L588.94,90.45L591.45,92.2L593.96,92.66L596.46,91.69L598.97,86.54L606.49,89.3L608.99,91.12L611.5,83.48L614,88.86L616.51,89.33L626.54,94.61L629.04,91.99L631.55,95.6L634.05,92.63L641.57,90.66L644.08,89.95L646.58,88.24L649.09,89.27L651.6,91.21L659.12,98.61L661.62,97.56L664.13,104.61L666.63,103.38L669.14,101.44L676.66,97.62L679.16,100.95L681.67,98.07L684.18,100.15L686.68,100.21L694.2,96.41L696.71,99.87L701.72,91.26L704.23,90.71L711.74,88.84L714.25,91.06L716.76,92.72L719.26,92.24L721.77,91.28L729.29,96.59L731.79,94.56L734.3,95.4L736.81,91.19L739.31,90.75L749.34,98.74L751.84,111.95L754.35,110.04L756.86,110.52L764.37,105.44L766.88,101.4L769.39,101.8L771.89,99.14L774.4,98.5L781.92,83.62L784.42,77.32L786.93,77.77L789.43,83.08L791.94,77.7L799.46,73.25L801.97,74.94L804.47,80.3L806.98,79.39L809.48,81.11L817,77.02L819.51,71.25L822.01,73.56L827.03,74.57L834.55,77.31L839.56,71.82L842.06,70.11L844.57,65.82L852.09,69.13L854.59,65.97L857.1,66.03L859.61,66.57L862.11,63.86L869.63,68.45L872.14,64.73L874.64,67.58L877.15,65.75L879.66,65.19L887.17,70.53L889.68,73.21L892.19,71.07L904.72,67.28L907.22,68.25L909.73,67.7L912.24,65.12L922.26,70.5L924.77,68.69L929.78,68.62L932.29,65.53L939.8,65.86L942.31,66.94L944.82,66.81L947.32,68.34L949.83,71.68L959.85,71.6L962.36,69.67L964.86,71.21L967.37,72.88L974.89,70.59L977.4,69.88L979.9,79.23L982.41,75.51L984.91,82.02L992.43,81.19L994.94,79.13L997.44,78.4L999.95,75.29L1002.46,71.39L1009.98,68.56L1014.99,68.25L1017.49,68.62L1020,67.84" style="vector-effect: non-scaling-stroke; fill: none; stroke: rgb(182, 232, 128); stroke-opacity: 1; stroke-width: 2px; opacity: 1;"/></g><g class="points"/><g class="text"/></g><g class="trace scatter tracef22ca8" style="stroke-miterlimit: 2; opacity: 1;"><g class="fills"/><g class="errorbars"/><g class="lines"><path class="js-line" d="M0,48.77L2.51,51.69L10.02,51.01L12.53,53.17L15.04,52.72L17.54,49.48L20.05,49.65L30.07,47.43L32.58,44.47L35.09,43.09L37.59,42.59L47.62,43.41L50.12,42.73L52.63,42.43L55.14,45.94L67.67,49.29L70.17,44.69L72.68,48.9L80.2,47.71L85.21,42.66L87.71,42.85L90.22,44.38L97.74,42.89L105.26,44.07L107.76,44.03L117.79,46.42L120.29,45.7L122.8,46.56L125.31,45.89L132.83,56.41L135.33,63.87L137.84,67.01L140.34,84.18L142.85,91.09L150.37,73.56L152.87,80.84L155.38,63.41L157.89,75.59L160.39,79.08L167.91,102.8L170.42,87.96L172.92,107.12L175.43,141.69L177.94,120.68L185.45,151.99L187.96,136.76L190.47,150.76L192.97,155.84L195.48,172.89L203,185.01L205.5,162.49L208.01,158.47L210.52,141.48L213.02,150.86L220.54,136.6L223.05,141.92L225.55,152.13L228.06,140.07L230.57,141.48L238.08,123.13L240.59,126.42L243.1,117.91L245.6,113.05L255.63,118.56L258.13,107.63L260.64,115.31L263.14,115.94L265.65,105.1L273.17,114.77L275.68,121.44L278.18,114.97L280.69,115.84L283.19,113.66L290.71,108.42L293.22,109.36L295.72,105.38L298.23,110.6L300.74,117.27L308.26,118.27L310.76,117.62L313.27,122.45L315.77,121.63L318.28,114.02L325.8,115.39L328.3,121.45L330.81,127.3L333.32,124.85L335.82,124.84L343.34,113.81L345.85,119.54L348.35,113.36L350.86,116.67L353.37,117.16L363.39,112.75L365.9,109.2L370.91,107.22L378.43,108.09L380.93,105.94L383.44,99.76L385.95,100.85L388.45,93.49L395.97,87.73L398.48,93.08L400.98,96.88L403.49,118.08L406,114.95L413.51,113.89L416.02,109.23L418.53,111.03L421.03,110.37L423.54,113.77L431.06,114.39L433.56,115.41L436.07,123.24L438.57,121.86L441.08,129.58L448.6,123.56L451.11,120.61L453.61,120.2L466.14,115.06L468.65,116.39L471.15,116.31L473.66,121.66L476.17,115.93L483.69,114.79L486.19,108.3L488.7,105.63L491.2,106.2L493.71,104.44L501.23,107.02L503.73,102.41L506.24,96.93L508.75,98.18L511.25,98.58L518.77,97.8L523.78,98.26L526.29,100.26L528.8,101.7L536.31,102.75L541.33,95.07L543.83,93.45L546.34,91.56L553.86,90.36L556.36,90.69L558.87,86.86L561.38,88.13L563.88,87.6L571.4,87.22L573.91,86.24L576.41,89.93L578.92,89.94L581.43,89.23L588.94,85.13L591.45,86.71L593.96,86.75L596.46,85.72L598.97,80.21L608.99,84.52L611.5,76.71L614,82.47L616.51,83.07L626.54,88.04L629.04,85.18L631.55,88.62L634.05,85.61L644.08,82.69L646.58,81.28L651.6,84.4L659.12,91.97L661.62,90.67L664.13,97.53L676.66,90.48L679.16,93.55L681.67,90.59L684.18,92.52L686.68,92.67L694.2,88.99L696.71,92.71L699.21,88.89L701.72,84.46L704.23,83.46L711.74,81.53L714.25,83.35L716.76,85L719.26,84.66L721.77,83.54L729.29,89.06L731.79,87.05L734.3,87.82L736.81,83.88L739.31,83.35L749.34,91.14L751.84,104.94L754.35,103.31L756.86,103.95L764.37,99.35L766.88,94.99L769.39,94.93L771.89,92.47L774.4,91.51L781.92,77.16L784.42,71.31L786.93,71.6L789.43,76.79L791.94,71.49L799.46,67.29L801.97,68.81L804.47,73.96L806.98,73.13L809.48,74.92L817,71.25L819.51,65.88L822.01,68.01L834.55,70.93L837.05,67.82L842.06,64.38L844.57,60.36L852.09,63.43L854.59,60.29L857.1,60.32L859.61,61.12L862.11,57.35L869.63,62.02L872.14,58.23L874.64,61.19L877.15,59.1L879.66,58.41L889.68,66.16L892.19,64.12L904.72,59.84L907.22,60.68L909.73,59.95L912.24,57.21L922.26,63.01L924.77,61.35L929.78,61.98L932.29,58.74L939.8,59.28L942.31,60.99L944.82,60.99L947.32,63.02L949.83,66.15L959.85,66.12L962.36,64.21L964.86,65.76L967.37,66.93L974.89,64.57L977.4,63.23L979.9,73.21L982.41,69.09L984.91,75.62L992.43,74.71L994.94,72.51L997.44,72.19L999.95,69.18L1002.46,65.26L1009.98,62.47L1012.48,61.86L1014.99,62.14L1017.49,62.19L1020,61.49" style="vector-effect: non-scaling-stroke; fill: none; stroke: rgb(255, 151, 255); stroke-opacity: 1; stroke-width: 2px; opacity: 1;"/></g><g class="points"/><g class="text"/></g><g class="trace scatter trace516b8d" style="stroke-miterlimit: 2; opacity: 1;"><g class="fills"/><g class="errorbars"/><g class="lines"><path class="js-line" d="M0,48.77L2.51,52.22L10.02,51.21L12.53,52.98L15.04,50.6L17.54,47.47L20.05,49.44L30.07,47.72L32.58,46.39L35.09,42.44L37.59,41.7L52.63,44.47L55.14,46.99L62.65,53.69L65.16,50.92L67.67,50.75L70.17,48.91L72.68,57.81L80.2,55.69L85.21,42.54L87.71,41.23L90.22,45.32L97.74,42.75L100.25,42.76L102.75,38.7L105.26,40.59L107.76,40.96L117.79,43.41L120.29,41.7L122.8,43.59L125.31,46.95L132.83,62.17L135.33,75.15L137.84,76.98L140.34,94.56L142.85,99.83L150.37,80.73L152.87,92.33L155.38,75.01L157.89,89.32L160.39,93.11L167.91,122.83L170.42,105.6L172.92,127.22L175.43,161.95L177.94,132.65L185.45,176.89L187.96,161.41L190.47,181.16L192.97,178.38L195.48,191.86L203,200.45L205.5,169.26L208.01,161.95L210.52,142L213.02,155.51L220.54,145.32L223.05,151.37L225.55,165.74L228.06,158.81L230.57,164.13L238.08,140.11L240.59,140.5L243.1,128.99L245.6,124.77L255.63,129.62L258.13,121.37L260.64,127.95L263.14,127.45L265.65,117.05L273.17,125.79L275.68,135.11L278.18,128.37L280.69,127.79L283.19,123.95L290.71,118.66L293.22,119.13L295.72,111.28L298.23,115.53L300.74,124.71L308.26,124.32L310.76,122.36L313.27,125.58L315.77,122.46L318.28,115.74L325.8,117.35L328.3,124.1L330.81,131.73L333.32,126.16L335.82,125.27L343.34,111.81L345.85,117.58L348.35,112.13L350.86,113.63L353.37,113.77L363.39,105.94L365.9,97.78L368.4,99.96L370.91,100.22L378.43,98.86L380.93,94.91L383.44,87.13L385.95,86.95L388.45,74.71L395.97,67.9L400.98,76.5L403.49,103.98L406,96.93L413.51,94.61L416.02,86.83L418.53,89.35L421.03,89.93L423.54,93.01L431.06,90.74L433.56,88.81L436.07,99.29L438.57,94.87L441.08,105.64L448.6,97.08L451.11,93.87L453.61,95.02L456.12,93.66L466.14,86.88L468.65,92.73L471.15,90.12L473.66,95.45L476.17,90L483.69,89.85L486.19,81.63L488.7,78.27L491.2,80.27L493.71,81.19L501.23,81.06L506.24,76.27L508.75,81.48L511.25,84.18L518.77,82.48L521.28,85.51L523.78,83.15L526.29,86.48L528.8,84.79L536.31,81.31L538.82,78.88L541.33,73.38L543.83,70.64L546.34,69.95L553.86,64.67L556.36,66.21L558.87,61.94L561.38,63.12L563.88,62.61L573.91,64.87L576.41,66.13L578.92,65.43L581.43,62.62L588.94,57.04L591.45,57.93L593.96,56.69L596.46,54.33L598.97,51.94L606.49,55.25L608.99,52.06L611.5,45.35L614,57.27L616.51,59.63L626.54,68.96L629.04,62.47L631.55,68.46L634.05,66.53L641.57,61.69L644.08,61.66L646.58,61.12L649.09,63.04L651.6,66.65L659.12,74.17L661.62,72.1L664.13,79.85L666.63,79.08L669.14,73.79L676.66,67.73L679.16,69.67L681.67,64.82L684.18,64.3L686.68,66.28L694.2,59.4L696.71,64.95L699.21,57.11L704.23,52.93L711.74,49.23L716.76,54.01L719.26,54.3L721.77,52.64L729.29,58.71L731.79,57.04L734.3,58.48L736.81,56.23L739.31,56.64L749.34,69.52L751.84,83.44L754.35,81.38L756.86,83.71L764.37,77.46L766.88,69.27L769.39,63.84L771.89,55.83L774.4,56.82L781.92,44.5L784.42,40.62L786.93,40.97L789.43,45.65L791.94,39.75L799.46,32.81L801.97,35.27L804.47,40.36L806.98,39.7L809.48,42.95L817,38.11L819.51,31.39L822.01,33.96L827.03,33.4L834.55,37.41L837.05,34.67L839.56,33.79L842.06,32.52L844.57,28.85L852.09,31.04L854.59,29.51L859.61,32.09L862.11,31.39L869.63,34.12L872.14,29.13L874.64,29.79L877.15,27.6L879.66,29.43L887.17,28.88L889.68,31.85L892.19,30.16L894.69,29.13L904.72,26.11L907.22,27.12L909.73,26.03L912.24,23.12L922.26,28.77L924.77,26.3L927.27,19.83L929.78,16.71L932.29,15.87L939.8,17.19L942.31,16.3L944.82,16.42L947.32,17.44L949.83,20.06L959.85,18.34L962.36,14.54L964.86,14.72L967.37,17.36L974.89,17.91L977.4,18.24L979.9,27.6L982.41,23.17L984.91,32.33L992.43,28.95L994.94,21.93L997.44,21.4L999.95,16.49L1009.98,11.62L1012.48,11.77L1014.99,10.85L1017.49,10.96L1020,10.55" style="vector-effect: non-scaling-stroke; fill: none; stroke: rgb(254, 203, 82); stroke-opacity: 1; stroke-width: 2px; opacity: 1;"/></g><g class="points"/><g class="text"/></g></g></g><g class="overplot"/><path class="xlines-above crisp" d="M0,0" style="fill: none;"/><path class="ylines-above crisp" d="M0,0" style="fill: none;"/><g class="overlines-above"/><g class="xaxislayer-above"><g class="xtick"><text text-anchor="middle" x="0" y="284" transform="translate(197.86,0)" style="font-family: 'Open Sans', verdana, arial, sans-serif; font-size: 12px; fill: rgb(42, 63, 95); fill-opacity: 1; white-space: pre; opacity: 1;">Mar 2020</text></g><g class="xtick"><text text-anchor="middle" x="0" y="284" style="font-family: 'Open Sans', verdana, arial, sans-serif; font-size: 12px; fill: rgb(42, 63, 95); fill-opacity: 1; white-space: pre; opacity: 1;" transform="translate(350.74,0)">May 2020</text></g><g class="xtick"><text text-anchor="middle" x="0" y="284" style="font-family: 'Open Sans', verdana, arial, sans-serif; font-size: 12px; fill: rgb(42, 63, 95); fill-opacity: 1; white-space: pre; opacity: 1;" transform="translate(503.61,0)">Jul 2020</text></g><g class="xtick"><text text-anchor="middle" x="0" y="284" style="font-family: 'Open Sans', verdana, arial, sans-serif; font-size: 12px; fill: rgb(42, 63, 95); fill-opacity: 1; white-space: pre; opacity: 1;" transform="translate(658.99,0)">Sep 2020</text></g><g class="xtick"><text text-anchor="middle" x="0" y="284" style="font-family: 'Open Sans', verdana, arial, sans-serif; font-size: 12px; fill: rgb(42, 63, 95); fill-opacity: 1; white-space: pre; opacity: 1;" transform="translate(811.87,0)">Nov 2020</text></g><g class="xtick"><text text-anchor="middle" x="0" y="284" style="font-family: 'Open Sans', verdana, arial, sans-serif; font-size: 12px; fill: rgb(42, 63, 95); fill-opacity: 1; white-space: pre; opacity: 1;" transform="translate(964.74,0)">Jan 2021</text></g></g><g class="yaxislayer-above"><g class="ytick"><text text-anchor="end" x="49" y="4.199999999999999" transform="translate(0,239.67)" style="font-family: 'Open Sans', verdana, arial, sans-serif; font-size: 12px; fill: rgb(42, 63, 95); fill-opacity: 1; white-space: pre; opacity: 1;">20k</text></g><g class="ytick"><text text-anchor="end" x="49" y="4.199999999999999" style="font-family: 'Open Sans', verdana, arial, sans-serif; font-size: 12px; fill: rgb(42, 63, 95); fill-opacity: 1; white-space: pre; opacity: 1;" transform="translate(0,165.87)">25k</text></g><g class="ytick"><text text-anchor="end" x="49" y="4.199999999999999" style="font-family: 'Open Sans', verdana, arial, sans-serif; font-size: 12px; fill: rgb(42, 63, 95); fill-opacity: 1; white-space: pre; opacity: 1;" transform="translate(0,92.07)">30k</text></g></g><g class="overaxes-above"/></g></g><g class="polarlayer"/><g class="ternarylayer"/><g class="geolayer"/><g class="funnelarealayer"/><g class="pielayer"/><g class="iciclelayer"/><g class="treemaplayer"/><g class="sunburstlayer"/><g class="glimages"/><defs id="topdefs-4cc7b9"><g class="clips"/><clipPath id="legend4cc7b9"><rect width="136" height="200" x="0" y="0"/></clipPath></defs><g class="layer-above"><g class="imagelayer"/><g class="shapelayer"/></g><g class="infolayer"><g class="legend" pointer-events="all" transform="translate(1090.4,60)"><rect class="bg" shape-rendering="crispEdges" width="136" height="200" x="0" y="0" style="stroke: rgb(68, 68, 68); stroke-opacity: 1; fill: rgb(255, 255, 255); fill-opacity: 1; stroke-width: 0px;"/><g class="scrollbox" transform="" clip-path="url(#legend4cc7b9)"><g class="groups"><g class="traces" transform="translate(0,14.5)" style="opacity: 1;"><text class="legendtext" text-anchor="start" x="40" y="4.680000000000001" style="font-family: 'Open Sans', verdana, arial, sans-serif; font-size: 12px; fill: rgb(42, 63, 95); fill-opacity: 1; white-space: pre;">Conic γ=0.1</text><g class="layers" style="opacity: 1;"><g class="legendfill"/><g class="legendlines"><path class="js-line" d="M5,0h30" style="fill: none; stroke: rgb(99, 110, 250); stroke-opacity: 1; stroke-width: 2px;"/></g><g class="legendsymbols"><g class="legendpoints"/></g></g><rect class="legendtoggle" x="0" y="-9.5" width="130.8186798095703" height="19" style="fill: rgb(0, 0, 0); fill-opacity: 0;"/></g><g class="traces" transform="translate(0,33.5)" style="opacity: 1;"><text class="legendtext" text-anchor="start" x="40" y="4.680000000000001" style="font-family: 'Open Sans', verdana, arial, sans-serif; font-size: 12px; fill: rgb(42, 63, 95); fill-opacity: 1; white-space: pre;">Conic γ=3.275</text><g class="layers" style="opacity: 1;"><g class="legendfill"/><g class="legendlines"><path class="js-line" d="M5,0h30" style="fill: none; stroke: rgb(239, 85, 59); stroke-opacity: 1; stroke-width: 2px;"/></g><g class="legendsymbols"><g class="legendpoints"/></g></g><rect class="legendtoggle" x="0" y="-9.5" width="130.8186798095703" height="19" style="fill: rgb(0, 0, 0); fill-opacity: 0;"/></g><g class="traces" transform="translate(0,52.5)" style="opacity: 1;"><text class="legendtext" text-anchor="start" x="40" y="4.680000000000001" style="font-family: 'Open Sans', verdana, arial, sans-serif; font-size: 12px; fill: rgb(42, 63, 95); fill-opacity: 1; white-space: pre;">Conic γ=6.45</text><g class="layers" style="opacity: 1;"><g class="legendfill"/><g class="legendlines"><path class="js-line" d="M5,0h30" style="fill: none; stroke: rgb(0, 204, 150); stroke-opacity: 1; stroke-width: 2px;"/></g><g class="legendsymbols"><g class="legendpoints"/></g></g><rect class="legendtoggle" x="0" y="-9.5" width="130.8186798095703" height="19" style="fill: rgb(0, 0, 0); fill-opacity: 0;"/></g><g class="traces" transform="translate(0,71.5)" style="opacity: 1;"><text class="legendtext" text-anchor="start" x="40" y="4.680000000000001" style="font-family: 'Open Sans', verdana, arial, sans-serif; font-size: 12px; fill: rgb(42, 63, 95); fill-opacity: 1; white-space: pre;">Conic γ=9.625</text><g class="layers" style="opacity: 1;"><g class="legendfill"/><g class="legendlines"><path class="js-line" d="M5,0h30" style="fill: none; stroke: rgb(171, 99, 250); stroke-opacity: 1; stroke-width: 2px;"/></g><g class="legendsymbols"><g class="legendpoints"/></g></g><rect class="legendtoggle" x="0" y="-9.5" width="130.8186798095703" height="19" style="fill: rgb(0, 0, 0); fill-opacity: 0;"/></g><g class="traces" transform="translate(0,90.5)" style="opacity: 1;"><text class="legendtext" text-anchor="start" x="40" y="4.680000000000001" style="font-family: 'Open Sans', verdana, arial, sans-serif; font-size: 12px; fill: rgb(42, 63, 95); fill-opacity: 1; white-space: pre;">Conic γ=12.8</text><g class="layers" style="opacity: 1;"><g class="legendfill"/><g class="legendlines"><path class="js-line" d="M5,0h30" style="fill: none; stroke: rgb(255, 161, 90); stroke-opacity: 1; stroke-width: 2px;"/></g><g class="legendsymbols"><g class="legendpoints"/></g></g><rect class="legendtoggle" x="0" y="-9.5" width="130.8186798095703" height="19" style="fill: rgb(0, 0, 0); fill-opacity: 0;"/></g><g class="traces" transform="translate(0,109.5)" style="opacity: 1;"><text class="legendtext" text-anchor="start" x="40" y="4.680000000000001" style="font-family: 'Open Sans', verdana, arial, sans-serif; font-size: 12px; fill: rgb(42, 63, 95); fill-opacity: 1; white-space: pre;">Mean-Variance</text><g class="layers" style="opacity: 1;"><g class="legendfill"/><g class="legendlines"><path class="js-line" d="M5,0h30" style="fill: none; stroke: rgb(25, 211, 243); stroke-opacity: 1; stroke-width: 2px;"/></g><g class="legendsymbols"><g class="legendpoints"/></g></g><rect class="legendtoggle" x="0" y="-9.5" width="130.8186798095703" height="19" style="fill: rgb(0, 0, 0); fill-opacity: 0;"/></g><g class="traces" transform="translate(0,128.5)" style="opacity: 1;"><text class="legendtext" text-anchor="start" x="40" y="4.680000000000001" style="font-family: 'Open Sans', verdana, arial, sans-serif; font-size: 12px; fill: rgb(42, 63, 95); fill-opacity: 1; white-space: pre;">Mean-VaR</text><g class="layers" style="opacity: 1;"><g class="legendfill"/><g class="legendlines"><path class="js-line" d="M5,0h30" style="fill: none; stroke: rgb(255, 102, 146); stroke-opacity: 1; stroke-width: 2px;"/></g><g class="legendsymbols"><g class="legendpoints"/></g></g><rect class="legendtoggle" x="0" y="-9.5" width="130.8186798095703" height="19" style="fill: rgb(0, 0, 0); fill-opacity: 0;"/></g><g class="traces" transform="translate(0,147.5)" style="opacity: 1;"><text class="legendtext" text-anchor="start" x="40" y="4.680000000000001" style="font-family: 'Open Sans', verdana, arial, sans-serif; font-size: 12px; fill: rgb(42, 63, 95); fill-opacity: 1; white-space: pre;">Mean-CVaR 95%</text><g class="layers" style="opacity: 1;"><g class="legendfill"/><g class="legendlines"><path class="js-line" d="M5,0h30" style="fill: none; stroke: rgb(182, 232, 128); stroke-opacity: 1; stroke-width: 2px;"/></g><g class="legendsymbols"><g class="legendpoints"/></g></g><rect class="legendtoggle" x="0" y="-9.5" width="130.8186798095703" height="19" style="fill: rgb(0, 0, 0); fill-opacity: 0;"/></g><g class="traces" transform="translate(0,166.5)" style="opacity: 1;"><text class="legendtext" text-anchor="start" x="40" y="4.680000000000001" style="font-family: 'Open Sans', verdana, arial, sans-serif; font-size: 12px; fill: rgb(42, 63, 95); fill-opacity: 1; white-space: pre;">Mean-CVaR 99%</text><g class="layers" style="opacity: 1;"><g class="legendfill"/><g class="legendlines"><path class="js-line" d="M5,0h30" style="fill: none; stroke: rgb(255, 151, 255); stroke-opacity: 1; stroke-width: 2px;"/></g><g class="legendsymbols"><g class="legendpoints"/></g></g><rect class="legendtoggle" x="0" y="-9.5" width="130.8186798095703" height="19" style="fill: rgb(0, 0, 0); fill-opacity: 0;"/></g><g class="traces" transform="translate(0,185.5)" style="opacity: 1;"><text class="legendtext" text-anchor="start" x="40" y="4.680000000000001" style="font-family: 'Open Sans', verdana, arial, sans-serif; font-size: 12px; fill: rgb(42, 63, 95); fill-opacity: 1; white-space: pre;">DJIA</text><g class="layers" style="opacity: 1;"><g class="legendfill"/><g class="legendlines"><path class="js-line" d="M5,0h30" style="fill: none; stroke: rgb(254, 203, 82); stroke-opacity: 1; stroke-width: 2px;"/></g><g class="legendsymbols"><g class="legendpoints"/></g></g><rect class="legendtoggle" x="0" y="-9.5" width="130.8186798095703" height="19" style="fill: rgb(0, 0, 0); fill-opacity: 0;"/></g></g></g><rect class="scrollbar" rx="20" ry="3" width="0" height="0" x="0" y="0" style="fill: rgb(128, 139, 164); fill-opacity: 1;"/></g><g class="g-gtitle"/><g class="g-xtitle"/><g class="g-ytitle"/></g></svg>