<svg class="main-svg" xmlns="http://www.w3.org/2000/svg" xmlns:xlink="http://www.w3.org/1999/xlink" width="1238" height="321" style=""><rect x="0" y="0" width="1238" height="321" style="fill: rgb(255, 255, 255); fill-opacity: 1;"/><defs id="defs-8b22c3"><g class="clips"><clipPath id="clip8b22c3xyplot" class="plotclip"><rect width="1020" height="211"/></clipPath><clipPath class="axesclip" id="clip8b22c3x"><rect x="50" y="0" width="1020" height="321"/></clipPath><clipPath class="axesclip" id="clip8b22c3y"><rect x="0" y="60" width="1238" height="211"/></clipPath><clipPath class="axesclip" id="clip8b22c3xy"><rect x="50" y="60" width="1020" height="211"/></clipPath></g><g class="gradients"/><g class="patterns"/></defs><g class="bglayer"><rect class="bg" x="50" y="60" width="1020" height="211" style="fill: rgb(229, 236, 246); fill-opacity: 1; stroke-width: 0;"/></g><g class="layer-below"><g class="imagelayer"/><g class="shapelayer"/></g><g class="cartesianlayer"><g class="subplot xy"><g class="layer-subplot"><g class="shapelayer"/><g class="imagelayer"/></g><g class="gridlayer"><g class="x"><path class="xgrid crisp" transform="translate(197.86,0)" d="M0,60v211" style="stroke: rgb(255, 255, 255); stroke-opacity: 1; stroke-width: 1px;"/><path class="xgrid crisp" transform="translate(350.74,0)" d="M0,60v211" style="stroke: rgb(255, 255, 255); stroke-opacity: 1; stroke-width: 1px;"/><path class="xgrid crisp" transform="translate(503.61,0)" d="M0,60v211" style="stroke: rgb(255, 255, 255); stroke-opacity: 1; stroke-width: 1px;"/><path class="xgrid crisp" transform="translate(658.99,0)" d="M0,60v211" style="stroke: rgb(255, 255, 255); stroke-opacity: 1; stroke-width: 1px;"/><path class="xgrid crisp" transform="translate(811.87,0)" d="M0,60v211" style="stroke: rgb(255, 255, 255); stroke-opacity: 1; stroke-width: 1px;"/><path class="xgrid crisp" transform="translate(964.74,0)" d="M0,60v211" style="stroke: rgb(255, 255, 255); stroke-opacity: 1; stroke-width: 1px;"/></g><g class="y"><path class="ygrid crisp" transform="translate(0,235.22)" d="M50,0h1020" style="stroke: rgb(255, 255, 255); stroke-opacity: 1; stroke-width: 1px;"/><path class="ygrid crisp" transform="translate(0,163.36)" d="M50,0h1020" style="stroke: rgb(255, 255, 255); stroke-opacity: 1; stroke-width: 1px;"/><path class="ygrid crisp" transform="translate(0,91.51)" d="M50,0h1020" style="stroke: rgb(255, 255, 255); stroke-opacity: 1; stroke-width: 1px;"/></g></g><g class="zerolinelayer"/><path class="xlines-below"/><path class="ylines-below"/><g class="overlines-below"/><g class="xaxislayer-below"/><g class="yaxislayer-below"/><g class="overaxes-below"/><g class="plot" transform="translate(50,60)" clip-path="url(#clip8b22c3xyplot)"><g class="scatterlayer mlayer"><g class="trace scatter tracebd2ff4" style="stroke-miterlimit: 2; opacity: 1;"><g class="fills"/><g class="errorbars"/><g class="lines"><path class="js-line" d="M0,47.76L2.51,49.83L10.02,49.05L12.53,51L15.04,51.02L17.54,47.97L20.05,48.06L27.57,47.28L30.07,46.2L32.58,43.48L35.09,42.69L37.59,41.55L47.62,41.8L50.12,40.28L52.63,40.56L55.14,44.75L62.65,45.76L67.67,46.65L70.17,42.21L72.68,47.3L80.2,47.07L82.7,45.79L85.21,41.4L90.22,42.42L97.74,41.48L102.75,42.04L105.26,41.8L107.76,41.9L117.79,44.96L120.29,43.67L122.8,44.6L125.31,43.84L132.83,53.84L135.33,62.96L137.84,65.91L140.34,82.03L142.85,89.81L150.37,71.68L152.87,78.42L155.38,60.86L157.89,73.55L160.39,78.46L167.91,103.52L170.42,88.69L172.92,106.42L175.43,138.72L177.94,121.12L185.45,157.44L187.96,143.35L190.47,163.83L192.97,167.93L195.48,180.98L203,192.27L205.5,169.94L208.01,163.7L210.52,146.21L213.02,156.83L220.54,145.53L223.05,151.52L225.55,162.12L228.06,151.05L230.57,154.04L238.08,135.87L240.59,138.83L243.1,129.24L245.6,122.85L255.63,126.91L258.13,117.52L260.64,126.06L263.14,129.67L265.65,116.71L273.17,127.12L275.68,132.29L278.18,125.98L280.69,126.23L283.19,123.86L290.71,117.89L293.22,118.58L295.72,114.4L298.23,119.15L300.74,125.64L308.26,125.53L310.76,124.56L313.27,129.24L315.77,127.98L318.28,121.42L325.8,122.66L330.81,134.81L333.32,133L335.82,134.19L343.34,122.51L345.85,128.23L348.35,122.92L350.86,124.85L353.37,125.18L363.39,119.55L365.9,116.45L368.4,115.31L370.91,115.26L378.43,115.78L380.93,114.3L383.44,107.91L385.95,108.91L388.45,99.71L395.97,93.72L400.98,104.56L403.49,126.29L406,122.09L413.51,121.76L416.02,118.19L418.53,120.47L421.03,119.67L423.54,123.48L433.56,124.24L436.07,132.62L438.57,131.33L441.08,139.98L451.11,131.35L453.61,131.81L456.12,130.72L466.14,127.31L468.65,129.72L471.15,129.48L473.66,136.64L476.17,130.27L483.69,128.69L486.19,122.32L488.7,119.24L491.2,119.29L493.71,117.96L501.23,120.73L506.24,110.55L508.75,111.85L511.25,112.28L518.77,112.78L523.78,112.54L526.29,115.78L536.31,117.87L538.82,113.22L541.33,109.95L543.83,108.39L546.34,106.63L553.86,104.51L556.36,103.99L558.87,101.2L563.88,99.71L571.4,99.19L573.91,99.06L576.41,102.23L578.92,103.23L581.43,101.82L588.94,97.19L591.45,99.29L593.96,100.68L596.46,100.79L598.97,95.81L606.49,98.52L608.99,101.19L611.5,95.27L614,100.44L616.51,101.42L626.54,106.77L629.04,104.73L631.55,108.07L634.05,105.87L644.08,103.04L646.58,100.87L651.6,104.2L659.12,110.65L661.62,110.79L664.13,117.28L666.63,117L669.14,114.98L676.66,110.48L679.16,113.83L681.67,111.77L684.18,113.29L686.68,112.77L694.2,109.27L696.71,113.02L699.21,109.63L701.72,104.84L704.23,105.5L711.74,104.15L714.25,107.32L716.76,109.41L719.26,108.83L721.77,108.33L729.29,113.04L731.79,111.65L734.3,112.38L736.81,107.85L739.31,106.96L746.83,111.88L749.34,114.56L751.84,127.17L754.35,124.52L756.86,125.66L764.37,120.46L766.88,117.27L769.39,115.92L771.89,114.01L774.4,113.56L781.92,97.13L784.42,89.33L786.93,90.26L789.43,96.4L791.94,92.49L799.46,87.24L801.97,88.48L804.47,93.61L806.98,92.53L809.48,94.63L817,89.69L819.51,83.74L822.01,86.01L827.03,87.22L834.55,90.5L837.05,87.23L839.56,84.27L842.06,82.97L844.57,79.38L852.09,82.18L854.59,78.94L857.1,79.4L859.61,79.23L862.11,77.83L869.63,82.68L872.14,78.87L874.64,82.08L877.15,80.04L879.66,80.78L887.17,85.45L889.68,87.93L892.19,84.96L894.69,84.58L904.72,81.19L907.22,81.99L909.73,81.05L912.24,79.38L922.26,84.34L924.77,82.49L927.27,82.9L929.78,82.63L932.29,79.5L939.8,79.64L942.31,80.57L944.82,80.22L947.32,81.91L949.83,85.45L959.85,86.19L962.36,84.65L964.86,85.49L967.37,88.02L974.89,85.58L977.4,84.58L979.9,94.67L982.41,92.5L984.91,98.94L992.43,97.91L994.94,96.18L997.44,95.06L999.95,90.78L1002.46,87.87L1009.98,85.65L1014.99,84.3L1017.49,85.11L1020,84.23" style="vector-effect: non-scaling-stroke; fill: none; stroke: rgb(99, 110, 250); stroke-opacity: 1; stroke-width: 2px; opacity: 1;"/></g><g class="points"/><g class="text"/></g><g class="trace scatter trace160719" style="stroke-miterlimit: 2; opacity: 1;"><g class="fills"/><g class="errorbars"/><g class="lines"><path class="js-line" d="M0,47.76L2.51,49.57L10.02,48.33L12.53,50.28L15.04,51.19L17.54,47.48L20.05,47.99L27.57,47.7L30.07,46.72L32.58,44.37L35.09,43.83L37.59,43.83L47.62,44.72L50.12,43.05L52.63,43.9L55.14,46.79L62.65,47.79L67.67,49.56L70.17,44.19L72.68,48.88L80.2,47.81L82.7,47.01L85.21,43.26L90.22,45.44L97.74,44.84L100.25,44.38L102.75,44.81L107.76,44.45L117.79,47.63L120.29,46.93L122.8,47.81L125.31,46.74L132.83,56.39L135.33,63.7L137.84,67.7L140.34,83.77L142.85,90.5L150.37,73.11L152.87,79.55L155.38,62.08L157.89,74.26L160.39,77.34L167.91,101.35L170.42,86.81L172.92,104.97L175.43,140L177.94,124.25L185.45,159.92L187.96,145.37L190.47,164.62L192.97,167.75L195.48,181.93L203,190.95L205.5,168.53L208.01,164.03L210.52,147.53L213.02,156.67L220.54,144.28L223.05,149.96L225.55,159.24L228.06,147.77L230.57,150.07L238.08,133L240.59,136.55L243.1,127.72L245.6,122.75L255.63,125.31L258.13,115.14L260.64,121.85L263.14,123.88L265.65,112.31L273.17,123.59L275.68,128.92L278.18,122.6L280.69,123.44L290.71,116.11L293.22,117.28L295.72,114.84L298.23,120.23L300.74,127.43L308.26,127.04L310.76,126.8L313.27,131.53L315.77,130.5L318.28,124.16L325.8,124.68L328.3,130.38L330.81,136.4L333.32,135.56L335.82,136.13L343.34,124.11L345.85,129.88L348.35,124.15L350.86,125.76L353.37,125.97L363.39,120.65L365.9,117.39L370.91,117.46L378.43,116.4L380.93,115.22L383.44,108.71L385.95,109.58L388.45,100.52L395.97,94.45L398.48,100.29L400.98,105.81L403.49,127.55L406,124.3L413.51,123.58L416.02,119.6L418.53,121.87L421.03,120.94L423.54,124.44L433.56,124.94L436.07,132.95L438.57,132.66L441.08,141.1L451.11,132.1L453.61,132.36L456.12,131.76L466.14,128.32L468.65,129.87L471.15,129.74L473.66,136.43L476.17,130.16L483.69,129.03L486.19,122.26L488.7,119.44L491.2,119.58L493.71,118.66L501.23,121.92L506.24,111.76L508.75,113.52L511.25,115.78L518.77,116.16L521.28,116.87L523.78,118.38L526.29,120.78L528.8,121.69L536.31,122.38L538.82,117.53L541.33,113.73L543.83,112.78L546.34,111.15L553.86,109.19L556.36,108.77L558.87,105.45L563.88,103.33L571.4,102.62L573.91,102.38L576.41,106.22L578.92,107.6L581.43,106.48L588.94,102.32L591.45,104.51L593.96,105.83L596.46,105.67L598.97,100.23L606.49,102.8L608.99,105.16L611.5,98.91L614,103.74L616.51,104.86L626.54,109.18L629.04,107.38L631.55,110.63L634.05,108.09L644.08,106.46L646.58,103.12L651.6,106.35L659.12,112.39L661.62,112.54L664.13,118.24L669.14,115.76L676.66,111.86L679.16,115.38L681.67,113.25L684.18,115.54L686.68,115.15L694.2,111.88L696.71,115.53L701.72,107.39L704.23,108.06L711.74,106.73L714.25,108.64L716.76,110.44L719.26,109.47L721.77,108.99L729.29,113.27L731.79,111.42L734.3,111.22L736.81,106.84L739.31,107.78L749.34,115.63L751.84,127.51L754.35,125.81L756.86,126.84L764.37,122.17L766.88,118.78L771.89,116.46L774.4,115.94L781.92,103.78L784.42,95.85L786.93,95.92L789.43,102.3L791.94,98.29L799.46,92.55L801.97,93.23L804.47,98.48L806.98,97.09L809.48,98.84L817,93.88L819.51,88.2L822.01,90.57L827.03,92.4L834.55,95.69L837.05,92.77L842.06,88.56L844.57,85.24L852.09,88.91L854.59,85.5L859.61,83.89L862.11,80.29L869.63,85.09L872.14,81.53L874.64,84.06L877.15,82.41L889.68,91.24L892.19,88.31L894.69,87.97L904.72,84.46L907.22,85.07L909.73,84.46L912.24,82.57L922.26,87.94L924.77,85.54L927.27,85.94L929.78,86.6L932.29,83.7L942.31,84.03L944.82,82.57L947.32,82.95L949.83,87.15L959.85,87.88L962.36,86.31L964.86,86.57L967.37,89.84L974.89,88.14L977.4,86.16L979.9,95.81L982.41,92.75L984.91,99.18L992.43,97.59L997.44,94.41L999.95,91.58L1002.46,87.83L1009.98,84.36L1014.99,82.04L1017.49,83.04L1020,82.02" style="vector-effect: non-scaling-stroke; fill: none; stroke: rgb(239, 85, 59); stroke-opacity: 1; stroke-width: 2px; opacity: 1;"/></g><g class="points"/><g class="text"/></g><g class="trace scatter tracee2346a" style="stroke-miterlimit: 2; opacity: 1;"><g class="fills"/><g class="errorbars"/><g class="lines"><path class="js-line" d="M0,47.76L2.51,49.19L10.02,47.71L15.04,51.38L17.54,47.43L20.05,48.59L27.57,48.85L35.09,45.79L37.59,46.45L47.62,47.92L50.12,46.42L52.63,47.34L55.14,50.11L67.67,51.51L70.17,45.56L72.68,50.93L80.2,49.78L82.7,48.97L85.21,45.66L90.22,47.91L97.74,47.48L100.25,46.55L102.75,46.8L107.76,46.07L117.79,49.07L120.29,48.71L122.8,49.75L125.31,48.6L132.83,58.21L135.33,65.53L137.84,70.22L140.34,86.15L142.85,92.84L150.37,75.59L152.87,82.07L155.38,65.34L157.89,77.96L160.39,79.95L167.91,104.72L170.42,90.44L172.92,109.35L175.43,145.17L177.94,130.48L185.45,168.21L187.96,155.15L190.47,176.89L192.97,177.4L195.48,190.14L203,198.08L205.5,174.4L208.01,169.08L210.52,153.33L213.02,163.51L220.54,151.97L223.05,157.47L225.55,166.69L228.06,156.68L230.57,159.31L238.08,141.32L240.59,144.89L243.1,136.36L245.6,131.31L255.63,133.06L258.13,123.63L260.64,129.54L263.14,131.58L265.65,119.5L275.68,136.85L278.18,130.47L280.69,131.81L283.19,130.76L290.71,125.28L293.22,126.47L295.72,124.19L298.23,130.13L300.74,137.6L308.26,137.14L310.76,137.49L313.27,142.23L315.77,140.5L318.28,134.69L325.8,135.28L328.3,140.93L330.81,146.93L333.32,146.41L335.82,147.03L343.34,133.93L345.85,139.66L348.35,133.8L353.37,134.89L363.39,128.72L365.9,125.51L368.4,126.63L370.91,127.47L378.43,125.04L380.93,124.36L383.44,116.81L385.95,117.23L388.45,107.61L395.97,100.76L398.48,107.3L400.98,113.7L403.49,135.6L406,132.08L413.51,131.26L416.02,127.14L418.53,129.81L421.03,129.13L423.54,132.59L431.06,131.61L433.56,132.19L436.07,140.5L438.57,141.03L441.08,149.8L448.6,142.72L451.11,140.75L453.61,141.23L456.12,141.14L466.14,137.41L468.65,138.5L471.15,138.38L473.66,145.18L476.17,138.61L483.69,138.23L486.19,131.1L488.7,127.84L491.2,128.4L493.71,128.4L501.23,131.94L503.73,125.49L506.24,121.9L511.25,126.84L518.77,127.62L521.28,128.68L523.78,131.13L526.29,133.96L528.8,134.92L536.31,134.87L538.82,130.04L541.33,125.46L543.83,124.61L546.34,123.15L553.86,120.43L556.36,119.83L558.87,116.86L563.88,113.57L571.4,112.79L573.91,113.03L576.41,116.99L578.92,119.1L581.43,117.95L588.94,113.52L591.45,116.07L593.96,117.54L596.46,116.65L598.97,110.93L606.49,113.81L608.99,115.18L611.5,109.87L614,114.43L616.51,115.68L626.54,120.09L629.04,118.68L631.55,121.92L634.05,119.76L644.08,118.71L646.58,114.54L659.12,123.6L661.62,124L664.13,129.52L666.63,128.87L669.14,127.17L676.66,123.1L679.16,126.79L681.67,124.83L684.18,126.88L686.68,126.25L694.2,123.04L696.71,127.28L701.72,119.55L704.23,120.53L711.74,119.04L714.25,120.39L716.76,122.31L719.26,120.78L721.77,120.63L729.29,124.65L731.79,122.48L734.3,122.09L736.81,117.28L739.31,118.94L746.83,124.62L749.34,127.56L751.84,139.21L754.35,137.59L756.86,138.83L764.37,134.23L766.88,130.6L769.39,129.14L774.4,127.74L781.92,115.14L784.42,106.69L786.93,106.99L789.43,113.56L791.94,109.49L799.46,101.96L801.97,102.67L804.47,107.76L806.98,105.78L809.48,107.98L817,101.88L819.51,95.73L822.01,98.29L834.55,104.53L837.05,101.98L842.06,97.07L844.57,94.2L852.09,98.12L854.59,94.88L857.1,94.32L859.61,92.46L862.11,87.96L869.63,93.07L872.14,89.66L874.64,92.09L877.15,90.83L879.66,93.68L887.17,97.73L889.68,99.96L892.19,96.66L894.69,96.77L904.72,93L907.22,93.84L912.24,91.58L922.26,96.82L924.77,93.97L927.27,94.08L929.78,94.63L932.29,91.85L942.31,91.19L944.82,89.42L947.32,89L949.83,94.1L959.85,94.75L962.36,92.77L964.86,93.45L967.37,96.06L974.89,95.49L977.4,93.46L979.9,103.33L982.41,99.79L984.91,106.37L992.43,104.47L999.95,97.07L1002.46,93.2L1014.99,85.62L1017.49,86.98L1020,85.86" style="vector-effect: non-scaling-stroke; fill: none; stroke: rgb(0, 204, 150); stroke-opacity: 1; stroke-width: 2px; opacity: 1;"/></g><g class="points"/><g class="text"/></g><g class="trace scatter trace003145" style="stroke-miterlimit: 2; opacity: 1;"><g class="fills"/><g class="errorbars"/><g class="lines"><path class="js-line" d="M0,47.76L2.51,49.24L10.02,47.74L15.04,51.96L17.54,47.89L20.05,49.35L27.57,49.96L35.09,47.32L37.59,48.25L47.62,49.97L50.12,48.54L52.63,49.44L55.14,52.81L62.65,53.62L65.16,52.96L67.67,52.81L70.17,46.63L72.68,51.71L80.2,50.36L82.7,49.25L85.21,46.04L90.22,48.21L97.74,47.62L100.25,46.86L102.75,47.25L105.26,46.36L107.76,46.41L117.79,49.1L120.29,48.8L122.8,49.5L125.31,48.39L132.83,57.91L135.33,65.08L137.84,70.26L140.34,86.55L142.85,93.35L150.37,76.06L152.87,82.81L155.38,66.67L157.89,79.4L160.39,81.27L167.91,107.16L170.42,92.75L172.92,111.64L175.43,147.62L177.94,132.76L185.45,170.68L187.96,157.63L190.47,179.98L192.97,179.95L195.48,192.55L203,199.68L205.5,175.86L208.01,170.53L210.52,154.86L213.02,165.73L220.54,154.11L223.05,159.64L225.55,168.73L228.06,158.69L230.57,161.53L238.08,143.67L240.59,147.53L243.1,139.15L245.6,133.84L255.63,135.46L258.13,126.61L260.64,132.12L263.14,134.32L265.65,121.73L273.17,133.9L275.68,139.5L278.18,133.52L280.69,134.62L283.19,133.69L290.71,128.35L293.22,129.86L295.72,127.58L298.23,133.46L300.74,140.86L308.26,140.49L310.76,141.12L313.27,145.91L315.77,143.97L318.28,138.24L325.8,138.94L328.3,144.5L330.81,150.14L333.32,149.52L335.82,149.89L343.34,136.81L345.85,143.02L348.35,137.26L353.37,138.61L363.39,132.26L365.9,129.04L368.4,130.53L370.91,131.46L378.43,128.25L380.93,127.77L383.44,119.88L385.95,120.19L388.45,110.23L395.97,103.18L398.48,110.08L400.98,116.72L403.49,138.6L406,135.09L413.51,134.54L416.02,129.91L418.53,132.94L421.03,132.21L423.54,135.6L431.06,134.63L433.56,135.15L436.07,143.54L438.57,144.16L441.08,152.78L448.6,145.66L451.11,143.78L453.61,144.44L456.12,144.57L466.14,140.87L468.65,141.6L471.15,141.37L473.66,147.92L476.17,141.16L483.69,141.07L486.19,133.85L488.7,130.55L491.2,131.13L493.71,131.51L501.23,135.09L503.73,128.62L506.24,125.66L511.25,130.39L518.77,131.22L521.28,132.18L523.78,134.82L526.29,137.76L528.8,138.75L536.31,138.3L538.82,133.53L541.33,128.8L543.83,128.01L546.34,126.78L553.86,124.04L556.36,123.09L558.87,120.14L563.88,116.65L571.4,115.72L573.91,116.21L576.41,120.22L578.92,122.7L581.43,121.72L588.94,117.12L591.45,119.64L593.96,121.1L596.46,119.69L598.97,114L606.49,117.37L608.99,118.34L611.5,113.23L614,117.63L616.51,119.02L626.54,123.38L629.04,121.91L631.55,125.3L634.05,123.34L644.08,122.89L646.58,118.45L659.12,127.3L661.62,127.95L664.13,133.7L666.63,133.18L669.14,131.35L676.66,127.25L679.16,130.89L681.67,128.91L684.18,130.92L686.68,130.36L694.2,127.2L696.71,131.69L701.72,123.89L704.23,124.97L711.74,123.49L714.25,124.36L716.76,126.41L719.26,124.75L721.77,124.77L729.29,128.91L731.79,127.19L734.3,126.95L736.81,121.98L739.31,123.39L749.34,132.07L751.84,143.53L754.35,141.81L756.86,142.82L764.37,138.26L766.88,134.46L771.89,132.1L774.4,131.58L781.92,119.2L784.42,110.68L786.93,111.12L789.43,117.51L791.94,113.67L799.46,105.54L801.97,106.41L804.47,111.59L806.98,109.52L809.48,112.04L817,105.36L819.51,98.83L822.01,101.62L827.03,104.19L834.55,108.35L837.05,106.09L842.06,101.39L844.57,98.66L852.09,102.7L854.59,99.73L857.1,99.03L859.61,97.15L862.11,91.77L869.63,96.91L872.14,93.54L874.64,95.63L877.15,94.66L879.66,97.54L887.17,101.32L889.68,103.43L892.19,100.03L894.69,100.19L904.72,96.37L907.22,97.41L912.24,95.07L922.26,100.08L924.77,97.04L927.27,96.54L929.78,96.89L932.29,94.31L942.31,93.1L944.82,91.55L947.32,90.82L949.83,96.07L959.85,96.76L962.36,95.06L964.86,96.13L967.37,98.73L974.89,98.51L977.4,96.34L979.9,106.62L982.41,102.72L984.91,109.29L992.43,107.2L997.44,101.74L999.95,99.43L1002.46,95.69L1009.98,90.96L1014.99,87.29L1017.49,88.88L1020,87.82" style="vector-effect: non-scaling-stroke; fill: none; stroke: rgb(171, 99, 250); stroke-opacity: 1; stroke-width: 2px; opacity: 1;"/></g><g class="points"/><g class="text"/></g><g class="trace scatter tracebbf1af" style="stroke-miterlimit: 2; opacity: 1;"><g class="fills"/><g class="errorbars"/><g class="lines"><path class="js-line" d="M0,47.76L2.51,49.31L10.02,47.83L15.04,52.27L17.54,48.18L20.05,49.66L27.57,50.41L35.09,47.82L37.59,48.94L47.62,50.69L50.12,49.23L52.63,49.77L55.14,53.33L62.65,54.18L65.16,53.04L67.67,52.68L70.17,46.24L72.68,51.48L80.2,49.91L82.7,48.48L85.21,45.74L90.22,47.84L97.74,47.11L100.25,46.42L102.75,46.99L107.76,46.27L117.79,48.76L120.29,48.4L122.8,49.04L125.31,48.01L132.83,57.72L137.84,70.31L140.34,86.84L142.85,93.59L150.37,76.46L152.87,83.23L155.38,67.35L157.89,80.52L160.39,82.37L167.91,108.94L170.42,94.22L172.92,113.07L175.43,148.63L177.94,133.05L185.45,171.29L187.96,158.61L190.47,181.39L192.97,180.98L195.48,193.45L203,200.45L205.5,176.31L208.01,170.65L210.52,154.91L213.02,166.69L220.54,154.85L223.05,160.54L225.55,169.55L228.06,159.45L230.57,162.51L238.08,144.33L240.59,148.47L243.1,140.02L245.6,134.62L255.63,136.22L258.13,127.5L260.64,132.75L263.14,134.78L265.65,122.09L273.17,134.27L275.68,140.37L278.18,134.35L280.69,135.41L283.19,134.49L290.71,128.95L293.22,130.87L295.72,128.33L298.23,134.2L300.74,141.53L308.26,141.4L310.76,142.01L313.27,146.66L315.77,144.81L318.28,139.18L325.8,139.81L328.3,145.33L330.81,150.62L333.32,149.64L335.82,150.04L343.34,137.09L345.85,143.37L348.35,137.59L353.37,139.24L363.39,132.79L365.9,129.66L368.4,131.31L370.91,132.36L378.43,129.23L380.93,128.96L383.44,120.99L385.95,121.42L388.45,111.5L395.97,104.65L398.48,111.72L400.98,118.3L403.49,140.04L406,136.61L413.51,136.2L416.02,131.47L418.53,134.61L421.03,133.96L423.54,137.46L431.06,136.45L433.56,136.9L436.07,145.27L438.57,146.06L441.08,154.53L448.6,147.57L451.11,145.63L453.61,146.11L456.12,146.35L466.14,142.67L468.65,143.31L471.15,143.1L473.66,149.35L476.17,142.57L483.69,142.67L486.19,135.62L488.7,132.21L491.2,132.97L493.71,133.37L501.23,136.81L503.73,130.37L506.24,127.65L511.25,132.83L518.77,133.68L521.28,134.41L523.78,137.35L526.29,140.39L528.8,141.51L536.31,140.83L538.82,136.09L541.33,131.26L543.83,130.43L556.36,125.75L558.87,122.62L563.88,119.33L571.4,118.15L573.91,118.86L576.41,122.79L578.92,125.3L581.43,124.47L588.94,120L591.45,122.45L593.96,123.73L596.46,122.19L598.97,116.3L606.49,119.98L608.99,120.82L611.5,115.77L614,120.12L616.51,121.58L626.54,125.98L629.04,124.43L631.55,127.75L634.05,125.9L644.08,125.58L646.58,121.07L659.12,129.83L661.62,130.59L664.13,136.57L666.63,136.11L669.14,134.26L676.66,130.15L679.16,133.71L681.67,131.73L684.18,133.65L686.68,133.11L694.2,130.18L696.71,134.8L701.72,127.14L704.23,128.26L711.74,126.75L714.25,127.15L716.76,129.25L719.26,127.65L721.77,127.61L729.29,131.73L731.79,130.49L734.3,130.57L736.81,125.44L739.31,126.98L749.34,135.85L751.84,147.62L754.35,145.91L756.86,146.64L764.37,142.27L766.88,138.42L771.89,135.74L774.4,135.22L781.92,122.67L784.42,114.41L786.93,114.86L789.43,121.24L791.94,117.45L799.46,109.17L801.97,109.9L804.47,114.96L806.98,112.75L809.48,115.48L817,108.41L819.51,101.71L822.01,104.66L827.03,107.17L834.55,111.14L837.05,109.05L844.57,101.99L852.09,105.99L854.59,103.09L857.1,102.53L859.61,100.76L862.11,94.91L869.63,100.13L872.14,97.06L874.64,98.99L877.15,98.25L879.66,101.35L887.17,104.96L889.68,107.01L892.19,103.44L894.69,103.62L904.72,99.77L907.22,100.59L909.73,99.64L912.24,98.2L922.26,103.12L924.77,100.01L927.27,99.48L929.78,99.64L932.29,97.14L942.31,95.66L944.82,94.17L947.32,93.39L949.83,98.79L959.85,99.55L962.36,98.14L964.86,99.45L967.37,102.03L974.89,102.19L977.4,99.96L979.9,110.65L982.41,106.16L984.91,112.55L992.43,110.25L997.44,104.25L999.95,102.16L1002.46,98.72L1009.98,93.84L1014.99,90.2L1017.49,91.59L1020,90.45" style="vector-effect: non-scaling-stroke; fill: none; stroke: rgb(255, 161, 90); stroke-opacity: 1; stroke-width: 2px; opacity: 1;"/></g><g class="points"/><g class="text"/></g><g class="trace scatter trace06a1c0" style="stroke-miterlimit: 2; opacity: 1;"><g class="fills"/><g class="errorbars"/><g class="lines"><path class="js-line" d="M0,47.76L2.51,49.98L10.02,49.33L12.53,51.28L15.04,50.7L17.54,47.51L20.05,47.76L27.57,47.34L30.07,46.09L32.58,43.46L35.09,42.55L37.59,41.79L47.62,42.16L50.12,40.52L52.63,40.54L55.14,44.57L62.65,46.02L65.16,45.68L67.67,46.11L70.17,41.76L72.68,46.66L80.2,46.03L82.7,44.47L85.21,40.37L87.71,40.96L90.22,41.61L97.74,40.53L100.25,41.12L102.75,40.73L105.26,39.84L107.76,39.94L117.79,42.58L120.29,41.05L122.8,42.01L125.31,41.39L132.83,51.7L135.33,61.18L137.84,64.49L140.34,80.91L142.85,89.14L150.37,71.1L152.87,77.93L155.38,60.49L157.89,73.43L160.39,78.06L167.91,104L170.42,88.6L172.92,106.52L175.43,139.85L177.94,120.44L185.45,158.19L187.96,145.25L190.47,167.36L192.97,170.36L195.48,183.28L203,194.62L205.5,170.84L208.01,163.46L210.52,146.07L213.02,157.24L220.54,146.26L223.05,152.81L225.55,163.95L228.06,152.89L230.57,155.95L238.08,136.86L240.59,139.93L245.6,123.83L255.63,127.96L258.13,119.54L260.64,126.99L263.14,130.18L265.65,117.32L273.17,127.96L275.68,133.53L278.18,127.43L280.69,127.84L290.71,119.97L293.22,120.56L295.72,116.41L298.23,120.77L300.74,126.72L308.26,127.36L310.76,126.76L313.27,131.56L315.77,129.62L318.28,123.22L325.8,125.03L328.3,130.97L330.81,137.03L333.32,134.71L335.82,135.89L343.34,124.22L345.85,129.97L348.35,124.24L350.86,126.21L353.37,126.71L363.39,120.92L365.9,117.22L368.4,116.36L370.91,116.97L378.43,116.55L380.93,115.28L383.44,108.21L385.95,109.16L388.45,100.18L395.97,94.08L400.98,105.16L403.49,126.57L406,122.36L413.51,121.67L416.02,118.11L418.53,120.43L421.03,119.74L423.54,123.95L433.56,124.34L436.07,132.58L438.57,131.16L441.08,140.37L451.11,131.52L453.61,131.72L466.14,127.27L468.65,129.55L471.15,129.14L473.66,135.72L476.17,129.2L483.69,127.79L486.19,121.46L488.7,118.48L491.2,118.75L493.71,117.79L501.23,120.59L503.73,115.09L506.24,110.5L508.75,111.65L511.25,112.28L518.77,112.94L523.78,112.94L526.29,115.82L528.8,116.89L536.31,118.42L541.33,109.67L543.83,107.96L546.34,106.09L553.86,103.98L556.36,103.11L558.87,100.43L563.88,98.3L571.4,97.98L573.91,97.99L576.41,101.06L578.92,102.11L581.43,100.74L588.94,96L591.45,97.65L593.96,98.85L596.46,98.42L598.97,93.17L606.49,96.2L608.99,97.89L611.5,91.52L614,96.45L616.51,97.34L626.54,102.57L629.04,100.29L631.55,103.34L634.05,101.17L641.57,98.54L644.08,98.49L646.58,96.55L649.09,98.28L659.12,106.8L661.62,106.74L664.13,113.01L666.63,112.68L669.14,110.37L676.66,105.77L679.16,108.8L681.67,106.65L684.18,107.58L686.68,106.98L694.2,103.44L696.71,107.23L701.72,99.19L704.23,99.52L711.74,98.19L714.25,100.73L716.76,103.07L719.26,102.43L721.77,102.02L729.29,106.82L731.79,105.63L734.3,106.39L736.81,101.89L739.31,101.16L749.34,108.76L751.84,121.54L754.35,119.07L756.86,120.18L764.37,115.38L766.88,111.43L771.89,107.64L774.4,107.36L781.92,91.09L784.42,83.8L786.93,84.74L789.43,90.49L791.94,86.86L799.46,81.18L801.97,82.05L804.47,87.16L806.98,86.15L809.48,88.35L817,83.08L819.51,76.98L822.01,79.4L827.03,80.73L834.55,83.82L837.05,80.87L839.56,78.29L842.06,77.27L844.57,73.93L852.09,76.66L854.59,74.04L857.1,74.89L859.61,75.04L862.11,72.82L869.63,77.16L872.14,73.17L874.64,76.26L877.15,74.51L879.66,75.28L887.17,79.52L889.68,81.86L892.19,78.86L894.69,78.4L904.72,74.7L907.22,75.37L909.73,74.46L912.24,72.46L922.26,77.87L924.77,76.1L927.27,75.9L929.78,75.66L932.29,72.66L939.8,73.4L942.31,74.6L944.82,74.47L947.32,76.55L949.83,80.18L959.85,80.8L962.36,79.33L964.86,80.33L967.37,83.17L974.89,81.29L977.4,80.69L979.9,91.9L982.41,88.84L984.91,95.04L992.43,93.86L994.94,91.32L997.44,90.41L999.95,86.57L1002.46,84.13L1009.98,81.88L1014.99,80.47L1017.49,80.77L1020,80.18" style="vector-effect: non-scaling-stroke; fill: none; stroke: rgb(25, 211, 243); stroke-opacity: 1; stroke-width: 2px; opacity: 1;"/></g><g class="points"/><g class="text"/></g><g class="trace scatter trace20a7f2" style="stroke-miterlimit: 2; opacity: 1;"><g class="fills"/><g class="errorbars"/><g class="lines"><path class="js-line" d="M0,47.76L2.51,49.76L10.02,49.03L12.53,50.86L15.04,51.16L17.54,48.11L20.05,48.03L27.57,47.2L30.07,46.14L32.58,43.38L35.09,42.71L37.59,41.59L47.62,41.67L50.12,39.95L52.63,40.33L55.14,44.47L62.65,45.23L67.67,46.06L70.17,41.62L72.68,46.59L80.2,46.43L82.7,45.17L85.21,41.1L90.22,42.35L97.74,41.61L100.25,42.34L102.75,42.24L107.76,41.95L117.79,45.11L120.29,43.8L122.8,44.66L125.31,43.49L132.83,53.35L135.33,62.3L137.84,65.55L140.34,81.67L142.85,89.52L150.37,71.42L152.87,77.62L155.38,59.98L157.89,72.51L160.39,76.91L167.91,101.51L170.42,86.92L172.92,104.75L175.43,136.96L177.94,119.51L185.45,154.08L187.96,139.7L190.47,159.35L192.97,164.33L195.48,178.01L203,189.76L205.5,167.91L208.01,162.12L210.52,144.69L213.02,154.98L220.54,143.38L223.05,149.37L225.55,159.67L228.06,148.28L230.57,151L238.08,132.99L240.59,136.32L243.1,126.75L245.6,120.67L255.63,124.53L258.13,114.56L260.64,122.99L263.14,126.55L265.65,113.96L273.17,124.41L275.68,129.37L278.18,123.07L280.69,123.36L290.71,115.29L293.22,116.11L295.72,112.26L298.23,117.22L300.74,123.38L308.26,123.57L310.76,122.47L313.27,127.19L315.77,126.09L318.28,119.35L325.8,120.5L328.3,126.21L330.81,132.2L333.32,130.68L335.82,131.84L343.34,120.28L345.85,126.08L348.35,120.7L350.86,122.81L353.37,123.18L363.39,117.61L365.9,114.8L368.4,113.55L370.91,113.49L378.43,113.96L380.93,112.64L383.44,106.64L385.95,107.9L388.45,99.21L395.97,93.43L400.98,103.98L403.49,125.17L406,121.27L413.51,120.95L416.02,117.46L418.53,119.64L421.03,118.82L423.54,122.53L433.56,123.5L436.07,131.71L438.57,130.53L441.08,139.22L451.11,130.61L453.61,130.99L456.12,129.91L466.14,126.61L468.65,128.53L471.15,128.38L473.66,135.54L476.17,129.1L483.69,127.46L486.19,121.05L488.7,117.94L491.2,117.85L493.71,116.29L501.23,119.23L506.24,109.04L508.75,110.17L511.25,110.7L518.77,111.28L521.28,110.61L523.78,110.96L526.29,113.89L528.8,114.35L536.31,116.26L538.82,111.31L541.33,108.06L543.83,106.51L546.34,104.79L553.86,102.57L556.36,102.22L558.87,99.31L563.88,97.77L571.4,97.04L573.91,96.78L576.41,100.03L578.92,101.03L581.43,99.35L588.94,94.79L591.45,96.98L593.96,98.38L596.46,98.69L598.97,93.58L606.49,96.08L608.99,98.62L611.5,92.71L614,97.77L616.51,98.78L626.54,103.89L629.04,102.02L631.55,105.25L634.05,103.04L644.08,100.35L646.58,98.19L651.6,101.38L659.12,107.68L661.62,107.71L664.13,114.18L666.63,113.77L669.14,111.98L676.66,107.56L679.16,110.83L681.67,108.79L684.18,110.35L686.68,109.83L694.2,106.49L696.71,110.06L699.21,106.84L701.72,102.08L704.23,102.8L711.74,101.28L714.25,104.51L716.76,106.59L719.26,106.07L721.77,105.64L729.29,110.29L731.79,108.94L734.3,109.61L736.81,105.34L739.31,104.5L746.83,109.16L749.34,111.81L751.84,124.65L754.35,121.96L756.86,123.11L764.37,117.94L766.88,114.74L769.39,113.66L771.89,111.9L774.4,111.26L781.92,94.95L784.42,86.7L786.93,87.61L789.43,93.72L791.94,89.75L799.46,84.72L801.97,86.13L804.47,91.17L806.98,90.06L809.48,92.17L817,87.43L819.51,81.81L822.01,84.01L827.03,85.29L834.55,88.2L837.05,84.88L839.56,82.06L842.06,80.73L844.57,76.86L852.09,79.79L854.59,76.59L857.1,77.06L859.61,76.85L862.11,75.15L869.63,80.16L872.14,76.24L874.64,79.83L877.15,77.59L879.66,78.25L887.17,83.24L889.68,85.83L892.19,82.78L894.69,82.3L904.72,78.69L907.22,79.45L909.73,78.3L912.24,76.59L922.26,81.33L924.77,79.56L927.27,80.08L929.78,80.02L932.29,76.77L939.8,76.98L942.31,77.99L944.82,77.59L947.32,79.35L949.83,83.1L959.85,84.26L962.36,82.95L964.86,83.71L967.37,86.33L974.89,83.85L977.4,82.61L979.9,93.19L982.41,91.14L984.91,97.53L992.43,96.56L994.94,94.81L997.44,94.02L999.95,89.67L1002.46,86.68L1009.98,84.49L1014.99,83.1L1017.49,83.77L1020,82.98" style="vector-effect: non-scaling-stroke; fill: none; stroke: rgb(255, 102, 146); stroke-opacity: 1; stroke-width: 2px; opacity: 1;"/></g><g class="points"/><g class="text"/></g><g class="trace scatter tracef8a376" style="stroke-miterlimit: 2; opacity: 1;"><g class="fills"/><g class="errorbars"/><g class="lines"><path class="js-line" d="M0,47.76L2.51,49.75L10.02,49.01L12.53,50.79L15.04,51.09L17.54,48.01L20.05,47.93L27.57,47.13L30.07,46.06L32.58,43.29L35.09,42.63L37.59,41.51L47.62,41.59L50.12,39.84L52.63,40.34L55.14,44.46L62.65,45.24L67.67,46.07L70.17,41.59L72.68,46.47L80.2,46.3L82.7,45.08L85.21,41.05L90.22,42.34L97.74,41.63L100.25,42.38L102.75,42.28L107.76,41.94L117.79,45.11L120.29,43.8L122.8,44.71L125.31,43.48L132.83,53.28L135.33,62.21L137.84,65.54L140.34,81.61L142.85,89.45L150.37,71.36L152.87,77.58L155.38,59.94L157.89,72.47L160.39,76.76L167.91,101.26L170.42,86.72L172.92,104.59L175.43,136.9L177.94,119.66L185.45,154.13L187.96,139.79L190.47,159.48L192.97,164.33L195.48,178.08L203,189.83L205.5,168.02L208.01,162.2L210.52,144.85L213.02,155.08L220.54,143.5L223.05,149.47L225.55,159.75L228.06,148.41L230.57,151.18L238.08,133.17L240.59,136.41L243.1,126.82L245.6,120.76L255.63,124.65L258.13,114.67L260.64,123.03L263.14,126.59L265.65,114.09L273.17,124.56L275.68,129.46L278.18,123.2L280.69,123.51L290.71,115.51L293.22,116.31L295.72,112.5L298.23,117.54L300.74,123.74L308.26,123.98L310.76,122.94L313.27,127.65L315.77,126.48L318.28,119.77L325.8,120.96L328.3,126.69L330.81,132.67L333.32,131.24L335.82,132.35L343.34,120.71L345.85,126.5L348.35,121.1L350.86,123.16L353.37,123.52L363.39,117.89L365.9,115.06L368.4,113.85L370.91,113.83L378.43,114.19L380.93,112.9L383.44,106.86L385.95,108.05L388.45,99.37L395.97,93.57L400.98,104.14L403.49,125.37L406,121.45L413.51,121.1L416.02,117.64L418.53,119.81L421.03,118.97L423.54,122.68L433.56,123.64L436.07,131.89L438.57,130.73L441.08,139.48L451.11,130.85L453.61,131.21L466.14,126.82L468.65,128.73L471.15,128.56L473.66,135.75L476.17,129.31L483.69,127.67L486.19,121.2L488.7,118.06L491.2,117.97L493.71,116.45L501.23,119.39L503.73,114.02L506.24,109.27L508.75,110.49L511.25,110.97L518.77,111.58L521.28,110.95L523.78,111.36L526.29,114.27L528.8,114.76L536.31,116.67L538.82,111.72L541.33,108.33L543.83,106.79L546.34,105.04L553.86,102.86L556.36,102.48L558.87,99.62L563.88,97.96L571.4,97.28L573.91,96.99L576.41,100.24L578.92,101.24L581.43,99.57L588.94,94.98L591.45,97.17L593.96,98.56L596.46,98.83L598.97,93.72L606.49,96.21L608.99,98.73L611.5,92.78L614,97.79L616.51,98.8L626.54,103.85L629.04,102.04L631.55,105.25L634.05,103.05L644.08,100.44L646.58,98.22L651.6,101.41L659.12,107.73L661.62,107.76L664.13,114.2L666.63,113.73L669.14,111.96L676.66,107.55L679.16,110.84L681.67,108.83L684.18,110.42L686.68,109.88L694.2,106.54L696.71,110.12L699.21,106.91L701.72,102.16L704.23,102.84L711.74,101.34L714.25,104.59L716.76,106.67L719.26,106.18L721.77,105.76L729.29,110.39L731.79,108.99L734.3,109.56L736.81,105.3L739.31,104.48L746.83,109.16L749.34,111.83L751.84,124.6L754.35,121.9L756.86,123.08L764.37,117.95L766.88,114.73L769.39,113.67L771.89,111.9L774.4,111.24L781.92,94.85L784.42,86.57L786.93,87.54L789.43,93.67L791.94,89.74L799.46,84.7L801.97,86.04L804.47,91.05L806.98,89.99L809.48,92.1L817,87.38L819.51,81.78L822.01,83.97L827.03,85.3L834.55,88.24L837.05,84.91L839.56,82.08L842.06,80.71L844.57,76.81L852.09,79.78L854.59,76.58L857.1,76.97L859.61,76.74L862.11,74.89L869.63,79.91L872.14,75.92L874.64,79.53L877.15,77.27L879.66,77.91L887.17,82.91L889.68,85.5L892.19,82.44L894.69,81.95L904.72,78.26L907.22,79.02L909.73,77.79L912.24,76.06L922.26,80.86L924.77,79.13L927.27,79.63L929.78,79.65L932.29,76.43L939.8,76.71L942.31,77.76L944.82,77.33L947.32,79.07L949.83,82.84L959.85,84.01L962.36,82.67L964.86,83.39L967.37,86.07L974.89,83.61L977.4,82.33L979.9,92.97L982.41,90.91L984.91,97.32L992.43,96.31L994.94,94.51L997.44,93.77L999.95,89.4L1002.46,86.39L1009.98,84.15L1014.99,82.66L1017.49,83.32L1020,82.56" style="vector-effect: non-scaling-stroke; fill: none; stroke: rgb(182, 232, 128); stroke-opacity: 1; stroke-width: 2px; opacity: 1;"/></g><g class="points"/><g class="text"/></g><g class="trace scatter traceda47c6" style="stroke-miterlimit: 2; opacity: 1;"><g class="fills"/><g class="errorbars"/><g class="lines"><path class="js-line" d="M0,47.76L2.51,49.7L10.02,48.87L12.53,50.44L15.04,50.74L17.54,47.69L20.05,47.54L27.57,47.05L30.07,45.82L32.58,42.91L35.09,42.35L37.59,41.29L47.62,41.31L50.12,39.74L52.63,40.37L55.14,45.33L62.65,45.78L67.67,46.36L70.17,41.67L72.68,46.17L80.2,45.63L82.7,44.26L85.21,40.87L90.22,42.34L97.74,41.77L100.25,42.58L102.75,42.48L105.26,41.95L107.76,42.24L117.79,45.26L120.29,44.02L122.8,45.04L125.31,43.48L132.83,53.13L135.33,61.71L137.84,65.19L140.34,81.03L142.85,88.66L150.37,70.76L152.87,76.73L155.38,59.13L157.89,71.81L160.39,75.6L167.91,99.66L170.42,84.97L172.92,102.7L175.43,134.49L177.94,118.39L185.45,151.8L187.96,137.63L190.47,156.81L192.97,161.19L195.48,175.49L203,188.37L205.5,166.48L208.01,160.69L210.52,143.63L213.02,153.88L220.54,141.71L223.05,147.49L225.55,157.16L228.06,145.81L230.57,148.72L238.08,130.79L240.59,134.29L243.1,124.53L245.6,118.4L255.63,122.38L258.13,111.7L260.64,119.52L263.14,122.47L265.65,110.46L273.17,120.89L275.68,125.74L278.18,119.39L280.69,119.72L283.19,117.64L290.71,111.57L293.22,112.89L295.72,109.77L298.23,114.71L300.74,120.85L308.26,121.34L310.76,120.3L313.27,124.8L315.77,123.9L318.28,117.5L325.8,118.34L328.3,124.08L330.81,129.67L333.32,128.65L335.82,129.45L343.34,117.98L345.85,123.63L348.35,118.45L350.86,120.47L353.37,120.9L363.39,115.22L365.9,112.81L368.4,111.4L370.91,111.62L378.43,111.9L380.93,110.95L383.44,105.1L385.95,106.75L388.45,98.43L395.97,92.95L400.98,103.24L403.49,124.15L406,120.53L413.51,120.25L416.02,116.84L418.53,118.87L421.03,117.95L423.54,121.71L433.56,122.4L436.07,130.6L438.57,129.66L441.08,138.56L451.11,129.97L453.61,129.86L466.14,125.44L468.65,127.06L471.15,126.82L473.66,133.95L476.17,127.66L483.69,125.92L486.19,119.32L488.7,116.12L491.2,116L493.71,114.55L501.23,117.43L503.73,112.2L506.24,107.32L508.75,108.7L518.77,109.42L521.28,108.7L523.78,109.39L526.29,112.19L536.31,114.54L538.82,109.63L541.33,105.74L543.83,104.12L546.34,102.45L553.86,100.72L556.36,100.29L558.87,97.15L563.88,95.04L571.4,94.06L573.91,93.61L576.41,96.86L578.92,97.9L581.43,96.2L588.94,91.85L591.45,93.99L593.96,95.18L596.46,95.48L598.97,90.07L606.49,92.8L608.99,95.3L611.5,89.18L614,94.22L616.51,95.46L626.54,100.12L629.04,98.22L631.55,101.29L634.05,99.15L644.08,96.87L646.58,94.41L651.6,97.48L659.12,103.81L661.62,103.86L664.13,109.91L666.63,109.24L669.14,107.69L676.66,103.59L679.16,106.83L681.67,104.99L684.18,106.77L686.68,106.07L694.2,102.89L696.71,106.44L699.21,103.32L701.72,98.81L704.23,99.32L711.74,97.83L714.25,100.7L716.76,102.84L719.26,102.4L721.77,101.91L729.29,106.6L731.79,105.27L734.3,105.7L736.81,101.46L739.31,100.04L746.83,104.64L749.34,107.32L751.84,120.66L754.35,117.91L756.86,118.99L764.37,114.07L766.88,110.78L769.39,109.28L774.4,106.84L781.92,91.1L784.42,82.87L786.93,83.72L789.43,89.9L791.94,86.33L799.46,81.5L801.97,82.54L804.47,87.27L806.98,86.25L809.48,88.36L817,83.75L819.51,78.37L822.01,80.66L834.55,84.89L837.05,81.69L839.56,79.15L842.06,78.05L844.57,74.06L852.09,77.02L854.59,73.62L857.1,73.81L859.61,73.71L862.11,70.82L869.63,76.13L872.14,72.12L874.64,75.8L877.15,73.3L879.66,73.74L887.17,78.57L889.68,81.08L892.19,77.95L894.69,77.46L904.72,73.43L907.22,74.29L909.73,72.8L912.24,70.99L922.26,75.9L924.77,74.25L927.27,74.99L929.78,75.02L932.29,71.64L939.8,71.87L942.31,73.43L944.82,73.31L947.32,75.34L949.83,79.14L959.85,80.64L962.36,79.42L964.86,80.41L967.37,82.77L974.89,80.18L977.4,78.15L979.9,89.31L982.41,87.03L984.91,93.41L992.43,92.28L994.94,90.37L997.44,89.79L999.95,85.83L1002.46,82.73L1009.98,80.49L1014.99,78.53L1017.49,79.19L1020,78.61" style="vector-effect: non-scaling-stroke; fill: none; stroke: rgb(255, 151, 255); stroke-opacity: 1; stroke-width: 2px; opacity: 1;"/></g><g class="points"/><g class="text"/></g><g class="trace scatter trace09bc97" style="stroke-miterlimit: 2; opacity: 1;"><g class="fills"/><g class="errorbars"/><g class="lines"><path class="js-line" d="M0,47.76L2.51,51.13L10.02,50.14L12.53,51.86L15.04,49.54L17.54,46.5L20.05,48.41L30.07,46.75L32.58,45.44L35.09,41.6L37.59,40.88L52.63,43.58L55.14,46.03L62.65,52.55L65.16,49.86L67.67,49.7L70.17,47.9L72.68,56.57L80.2,54.5L85.21,41.7L87.71,40.42L90.22,44.41L97.74,41.9L100.25,41.91L102.75,37.95L105.26,39.8L107.76,40.16L117.79,42.54L120.29,40.88L122.8,42.72L125.31,45.99L132.83,60.81L135.33,73.45L137.84,75.23L140.34,92.34L142.85,97.48L150.37,78.88L152.87,90.18L155.38,73.31L157.89,87.25L160.39,90.93L167.91,119.87L170.42,103.1L172.92,124.15L175.43,157.96L177.94,129.44L185.45,172.51L187.96,157.43L190.47,176.67L192.97,173.96L195.48,187.09L203,195.45L205.5,165.09L208.01,157.96L210.52,138.54L213.02,151.69L220.54,141.77L223.05,147.66L225.55,161.66L228.06,154.9L230.57,160.09L238.08,136.7L240.59,137.08L243.1,125.87L245.6,121.77L255.63,126.49L258.13,118.45L260.64,124.86L263.14,124.38L265.65,114.25L273.17,122.76L275.68,131.83L278.18,125.27L280.69,124.7L283.19,120.96L290.71,115.81L293.22,116.27L295.72,108.62L298.23,112.76L300.74,121.7L308.26,121.33L310.76,119.41L313.27,122.55L315.77,119.52L318.28,112.97L325.8,114.54L328.3,121.11L330.81,128.54L333.32,123.12L335.82,122.25L343.34,109.15L345.85,114.76L348.35,109.46L350.86,110.92L353.37,111.05L363.39,103.43L365.9,95.48L368.4,97.6L370.91,97.86L378.43,96.54L380.93,92.69L383.44,85.11L385.95,84.94L388.45,73.03L395.97,66.39L400.98,74.76L403.49,101.52L406,94.66L413.51,92.39L416.02,84.82L418.53,87.27L421.03,87.84L423.54,90.84L431.06,88.63L433.56,86.75L436.07,96.95L438.57,92.65L441.08,103.14L448.6,94.8L451.11,91.68L453.61,92.8L456.12,91.47L466.14,84.87L468.65,90.57L471.15,88.02L473.66,93.22L476.17,87.91L483.69,87.76L486.19,79.76L488.7,76.49L491.2,78.43L493.71,79.33L501.23,79.21L506.24,74.54L508.75,79.62L511.25,82.24L518.77,80.59L521.28,83.54L523.78,81.24L526.29,84.48L528.8,82.84L536.31,79.44L538.82,77.09L541.33,71.72L543.83,69.06L546.34,68.39L553.86,63.25L556.36,64.75L558.87,60.58L561.38,61.73L563.88,61.24L573.91,63.44L576.41,64.66L578.92,63.99L581.43,61.25L588.94,55.82L591.45,56.68L593.96,55.48L596.46,53.18L598.97,50.85L606.49,54.07L608.99,50.97L611.5,44.43L614,56.04L616.51,58.33L626.54,67.42L629.04,61.11L631.55,66.94L634.05,65.05L641.57,60.35L644.08,60.31L646.58,59.78L649.09,61.66L651.6,65.17L659.12,72.5L661.62,70.48L664.13,78.02L666.63,77.27L669.14,72.12L676.66,66.23L679.16,68.12L681.67,63.39L684.18,62.88L686.68,64.81L694.2,58.11L696.71,63.52L699.21,55.89L704.23,51.82L711.74,48.21L716.76,52.86L719.26,53.15L721.77,51.54L729.29,57.44L731.79,55.81L734.3,57.22L736.81,55.02L739.31,55.43L749.34,67.96L751.84,81.52L754.35,79.52L756.86,81.78L764.37,75.7L766.88,67.72L769.39,62.44L771.89,54.64L774.4,55.6L781.92,43.61L784.42,39.83L786.93,40.16L789.43,44.73L791.94,38.98L799.46,32.22L801.97,34.62L804.47,39.58L806.98,38.93L809.48,42.09L817,37.38L819.51,30.84L822.01,33.34L827.03,32.8L834.55,36.7L837.05,34.04L839.56,33.18L842.06,31.95L844.57,28.37L852.09,30.51L854.59,29.01L859.61,31.52L862.11,30.84L869.63,33.5L872.14,28.64L874.64,29.29L877.15,27.15L879.66,28.94L887.17,28.4L889.68,31.29L892.19,29.64L894.69,28.64L904.72,25.7L907.22,26.68L909.73,25.62L912.24,22.79L922.26,28.29L924.77,25.88L927.27,19.59L929.78,16.55L932.29,15.73L939.8,17.01L942.31,16.15L944.82,16.27L947.32,17.26L949.83,19.81L959.85,18.14L962.36,14.43L964.86,14.61L967.37,17.18L974.89,17.71L977.4,18.04L979.9,27.15L982.41,22.84L984.91,31.76L992.43,28.46L994.94,21.63L997.44,21.11L999.95,16.33L1009.98,11.59L1012.48,11.74L1014.99,10.85L1017.49,10.95L1020,10.55" style="vector-effect: non-scaling-stroke; fill: none; stroke: rgb(254, 203, 82); stroke-opacity: 1; stroke-width: 2px; opacity: 1;"/></g><g class="points"/><g class="text"/></g></g></g><g class="overplot"/><path class="xlines-above crisp" d="M0,0" style="fill: none;"/><path class="ylines-above crisp" d="M0,0" style="fill: none;"/><g class="overlines-above"/><g class="xaxislayer-above"><g class="xtick"><text text-anchor="middle" x="0" y="284" transform="translate(197.86,0)" style="font-family: 'Open Sans', verdana, arial, sans-serif; font-size: 12px; fill: rgb(42, 63, 95); fill-opacity: 1; white-space: pre; opacity: 1;">Mar 2020</text></g><g class="xtick"><text text-anchor="middle" x="0" y="284" style="font-family: 'Open Sans', verdana, arial, sans-serif; font-size: 12px; fill: rgb(42, 63, 95); fill-opacity: 1; white-space: pre; opacity: 1;" transform="translate(350.74,0)">May 2020</text></g><g class="xtick"><text text-anchor="middle" x="0" y="284" style="font-family: 'Open Sans', verdana, arial, sans-serif; font-size: 12px; fill: rgb(42, 63, 95); fill-opacity: 1; white-space: pre; opacity: 1;" transform="translate(503.61,0)">Jul 2020</text></g><g class="xtick"><text text-anchor="middle" x="0" y="284" style="font-family: 'Open Sans', verdana, arial, sans-serif; font-size: 12px; fill: rgb(42, 63, 95); fill-opacity: 1; white-space: pre; opacity: 1;" transform="translate(658.99,0)">Sep 2020</text></g><g class="xtick"><text text-anchor="middle" x="0" y="284" style="font-family: 'Open Sans', verdana, arial, sans-serif; font-size: 12px; fill: rgb(42, 63, 95); fill-opacity: 1; white-space: pre; opacity: 1;" transform="translate(811.87,0)">Nov 2020</text></g><g class="xtick"><text text-anchor="middle" x="0" y="284" style="font-family: 'Open Sans', verdana, arial, sans-serif; font-size: 12px; fill: rgb(42, 63, 95); fill-opacity: 1; white-space: pre; opacity: 1;" transform="translate(964.74,0)">Jan 2021</text></g></g><g class="yaxislayer-above"><g class="ytick"><text text-anchor="end" x="49" y="4.199999999999999" transform="translate(0,235.22)" style="font-family: 'Open Sans', verdana, arial, sans-serif; font-size: 12px; fill: rgb(42, 63, 95); fill-opacity: 1; white-space: pre; opacity: 1;">20k</text></g><g class="ytick"><text text-anchor="end" x="49" y="4.199999999999999" style="font-family: 'Open Sans', verdana, arial, sans-serif; font-size: 12px; fill: rgb(42, 63, 95); fill-opacity: 1; white-space: pre; opacity: 1;" transform="translate(0,163.36)">25k</text></g><g class="ytick"><text text-anchor="end" x="49" y="4.199999999999999" style="font-family: 'Open Sans', verdana, arial, sans-serif; font-size: 12px; fill: rgb(42, 63, 95); fill-opacity: 1; white-space: pre; opacity: 1;" transform="translate(0,91.51)">30k</text></g></g><g class="overaxes-above"/></g></g><g class="polarlayer"/><g class="ternarylayer"/><g class="geolayer"/><g class="funnelarealayer"/><g class="pielayer"/><g class="iciclelayer"/><g class="treemaplayer"/><g class="sunburstlayer"/><g class="glimages"/><defs id="topdefs-8b22c3"><g class="clips"/><clipPath id="legend8b22c3"><rect width="136" height="200" x="0" y="0"/></clipPath></defs><g class="layer-above"><g class="imagelayer"/><g class="shapelayer"/></g><g class="infolayer"><g class="legend" pointer-events="all" transform="translate(1090.4,60)"><rect class="bg" shape-rendering="crispEdges" width="136" height="200" x="0" y="0" style="stroke: rgb(68, 68, 68); stroke-opacity: 1; fill: rgb(255, 255, 255); fill-opacity: 1; stroke-width: 0px;"/><g class="scrollbox" transform="" clip-path="url(#legend8b22c3)"><g class="groups"><g class="traces" transform="translate(0,14.5)" style="opacity: 1;"><text class="legendtext" text-anchor="start" x="40" y="4.680000000000001" style="font-family: 'Open Sans', verdana, arial, sans-serif; font-size: 12px; fill: rgb(42, 63, 95); fill-opacity: 1; white-space: pre;">Conic γ=0.1</text><g class="layers" style="opacity: 1;"><g class="legendfill"/><g class="legendlines"><path class="js-line" d="M5,0h30" style="fill: none; stroke: rgb(99, 110, 250); stroke-opacity: 1; stroke-width: 2px;"/></g><g class="legendsymbols"><g class="legendpoints"/></g></g><rect class="legendtoggle" x="0" y="-9.5" width="130.8186798095703" height="19" style="fill: rgb(0, 0, 0); fill-opacity: 0;"/></g><g class="traces" transform="translate(0,33.5)" style="opacity: 1;"><text class="legendtext" text-anchor="start" x="40" y="4.680000000000001" style="font-family: 'Open Sans', verdana, arial, sans-serif; font-size: 12px; fill: rgb(42, 63, 95); fill-opacity: 1; white-space: pre;">Conic γ=3.275</text><g class="layers" style="opacity: 1;"><g class="legendfill"/><g class="legendlines"><path class="js-line" d="M5,0h30" style="fill: none; stroke: rgb(239, 85, 59); stroke-opacity: 1; stroke-width: 2px;"/></g><g class="legendsymbols"><g class="legendpoints"/></g></g><rect class="legendtoggle" x="0" y="-9.5" width="130.8186798095703" height="19" style="fill: rgb(0, 0, 0); fill-opacity: 0;"/></g><g class="traces" transform="translate(0,52.5)" style="opacity: 1;"><text class="legendtext" text-anchor="start" x="40" y="4.680000000000001" style="font-family: 'Open Sans', verdana, arial, sans-serif; font-size: 12px; fill: rgb(42, 63, 95); fill-opacity: 1; white-space: pre;">Conic γ=6.45</text><g class="layers" style="opacity: 1;"><g class="legendfill"/><g class="legendlines"><path class="js-line" d="M5,0h30" style="fill: none; stroke: rgb(0, 204, 150); stroke-opacity: 1; stroke-width: 2px;"/></g><g class="legendsymbols"><g class="legendpoints"/></g></g><rect class="legendtoggle" x="0" y="-9.5" width="130.8186798095703" height="19" style="fill: rgb(0, 0, 0); fill-opacity: 0;"/></g><g class="traces" transform="translate(0,71.5)" style="opacity: 1;"><text class="legendtext" text-anchor="start" x="40" y="4.680000000000001" style="font-family: 'Open Sans', verdana, arial, sans-serif; font-size: 12px; fill: rgb(42, 63, 95); fill-opacity: 1; white-space: pre;">Conic γ=9.625</text><g class="layers" style="opacity: 1;"><g class="legendfill"/><g class="legendlines"><path class="js-line" d="M5,0h30" style="fill: none; stroke: rgb(171, 99, 250); stroke-opacity: 1; stroke-width: 2px;"/></g><g class="legendsymbols"><g class="legendpoints"/></g></g><rect class="legendtoggle" x="0" y="-9.5" width="130.8186798095703" height="19" style="fill: rgb(0, 0, 0); fill-opacity: 0;"/></g><g class="traces" transform="translate(0,90.5)" style="opacity: 1;"><text class="legendtext" text-anchor="start" x="40" y="4.680000000000001" style="font-family: 'Open Sans', verdana, arial, sans-serif; font-size: 12px; fill: rgb(42, 63, 95); fill-opacity: 1; white-space: pre;">Conic γ=12.8</text><g class="layers" style="opacity: 1;"><g class="legendfill"/><g class="legendlines"><path class="js-line" d="M5,0h30" style="fill: none; stroke: rgb(255, 161, 90); stroke-opacity: 1; stroke-width: 2px;"/></g><g class="legendsymbols"><g class="legendpoints"/></g></g><rect class="legendtoggle" x="0" y="-9.5" width="130.8186798095703" height="19" style="fill: rgb(0, 0, 0); fill-opacity: 0;"/></g><g class="traces" transform="translate(0,109.5)" style="opacity: 1;"><text class="legendtext" text-anchor="start" x="40" y="4.680000000000001" style="font-family: 'Open Sans', verdana, arial, sans-serif; font-size: 12px; fill: rgb(42, 63, 95); fill-opacity: 1; white-space: pre;">Mean-Variance</text><g class="layers" style="opacity: 1;"><g class="legendfill"/><g class="legendlines"><path class="js-line" d="M5,0h30" style="fill: none; stroke: rgb(25, 211, 243); stroke-opacity: 1; stroke-width: 2px;"/></g><g class="legendsymbols"><g class="legendpoints"/></g></g><rect class="legendtoggle" x="0" y="-9.5" width="130.8186798095703" height="19" style="fill: rgb(0, 0, 0); fill-opacity: 0;"/></g><g class="traces" transform="translate(0,128.5)" style="opacity: 1;"><text class="legendtext" text-anchor="start" x="40" y="4.680000000000001" style="font-family: 'Open Sans', verdana, arial, sans-serif; font-size: 12px; fill: rgb(42, 63, 95); fill-opacity: 1; white-space: pre;">Mean-VaR</text><g class="layers" style="opacity: 1;"><g class="legendfill"/><g class="legendlines"><path class="js-line" d="M5,0h30" style="fill: none; stroke: rgb(255, 102, 146); stroke-opacity: 1; stroke-width: 2px;"/></g><g class="legendsymbols"><g class="legendpoints"/></g></g><rect class="legendtoggle" x="0" y="-9.5" width="130.8186798095703" height="19" style="fill: rgb(0, 0, 0); fill-opacity: 0;"/></g><g class="traces" transform="translate(0,147.5)" style="opacity: 1;"><text class="legendtext" text-anchor="start" x="40" y="4.680000000000001" style="font-family: 'Open Sans', verdana, arial, sans-serif; font-size: 12px; fill: rgb(42, 63, 95); fill-opacity: 1; white-space: pre;">Mean-CVaR 95%</text><g class="layers" style="opacity: 1;"><g class="legendfill"/><g class="legendlines"><path class="js-line" d="M5,0h30" style="fill: none; stroke: rgb(182, 232, 128); stroke-opacity: 1; stroke-width: 2px;"/></g><g class="legendsymbols"><g class="legendpoints"/></g></g><rect class="legendtoggle" x="0" y="-9.5" width="130.8186798095703" height="19" style="fill: rgb(0, 0, 0); fill-opacity: 0;"/></g><g class="traces" transform="translate(0,166.5)" style="opacity: 1;"><text class="legendtext" text-anchor="start" x="40" y="4.680000000000001" style="font-family: 'Open Sans', verdana, arial, sans-serif; font-size: 12px; fill: rgb(42, 63, 95); fill-opacity: 1; white-space: pre;">Mean-CVaR 99%</text><g class="layers" style="opacity: 1;"><g class="legendfill"/><g class="legendlines"><path class="js-line" d="M5,0h30" style="fill: none; stroke: rgb(255, 151, 255); stroke-opacity: 1; stroke-width: 2px;"/></g><g class="legendsymbols"><g class="legendpoints"/></g></g><rect class="legendtoggle" x="0" y="-9.5" width="130.8186798095703" height="19" style="fill: rgb(0, 0, 0); fill-opacity: 0;"/></g><g class="traces" transform="translate(0,185.5)" style="opacity: 1;"><text class="legendtext" text-anchor="start" x="40" y="4.680000000000001" style="font-family: 'Open Sans', verdana, arial, sans-serif; font-size: 12px; fill: rgb(42, 63, 95); fill-opacity: 1; white-space: pre;">DJIA</text><g class="layers" style="opacity: 1;"><g class="legendfill"/><g class="legendlines"><path class="js-line" d="M5,0h30" style="fill: none; stroke: rgb(254, 203, 82); stroke-opacity: 1; stroke-width: 2px;"/></g><g class="legendsymbols"><g class="legendpoints"/></g></g><rect class="legendtoggle" x="0" y="-9.5" width="130.8186798095703" height="19" style="fill: rgb(0, 0, 0); fill-opacity: 0;"/></g></g></g><rect class="scrollbar" rx="20" ry="3" width="0" height="0" x="0" y="0" style="fill: rgb(128, 139, 164); fill-opacity: 1;"/></g><g class="g-gtitle"/><g class="g-xtitle"/><g class="g-ytitle"/></g></svg>