<svg class="main-svg" xmlns="http://www.w3.org/2000/svg" xmlns:xlink="http://www.w3.org/1999/xlink" width="1238" height="321" style=""><rect x="0" y="0" width="1238" height="321" style="fill: rgb(255, 255, 255); fill-opacity: 1;"/><defs id="defs-882231"><g class="clips"><clipPath id="clip882231xyplot" class="plotclip"><rect width="1020" height="211"/></clipPath><clipPath class="axesclip" id="clip882231x"><rect x="50" y="0" width="1020" height="321"/></clipPath><clipPath class="axesclip" id="clip882231y"><rect x="0" y="60" width="1238" height="211"/></clipPath><clipPath class="axesclip" id="clip882231xy"><rect x="50" y="60" width="1020" height="211"/></clipPath></g><g class="gradients"/><g class="patterns"/></defs><g class="bglayer"><rect class="bg" x="50" y="60" width="1020" height="211" style="fill: rgb(229, 236, 246); fill-opacity: 1; stroke-width: 0;"/></g><g class="layer-below"><g class="imagelayer"/><g class="shapelayer"/></g><g class="cartesianlayer"><g class="subplot xy"><g class="layer-subplot"><g class="shapelayer"/><g class="imagelayer"/></g><g class="gridlayer"><g class="x"><path class="xgrid crisp" transform="translate(85.28999999999999,0)" d="M0,60v211" style="stroke: rgb(255, 255, 255); stroke-opacity: 1; stroke-width: 1px;"/><path class="xgrid crisp" transform="translate(190.02,0)" d="M0,60v211" style="stroke: rgb(255, 255, 255); stroke-opacity: 1; stroke-width: 1px;"/><path class="xgrid crisp" transform="translate(292.48,0)" d="M0,60v211" style="stroke: rgb(255, 255, 255); stroke-opacity: 1; stroke-width: 1px;"/><path class="xgrid crisp" transform="translate(396.07,0)" d="M0,60v211" style="stroke: rgb(255, 255, 255); stroke-opacity: 1; stroke-width: 1px;"/><path class="xgrid crisp" transform="translate(500.8,0)" d="M0,60v211" style="stroke: rgb(255, 255, 255); stroke-opacity: 1; stroke-width: 1px;"/><path class="xgrid crisp" transform="translate(605.54,0)" d="M0,60v211" style="stroke: rgb(255, 255, 255); stroke-opacity: 1; stroke-width: 1px;"/><path class="xgrid crisp" transform="translate(709.13,0)" d="M0,60v211" style="stroke: rgb(255, 255, 255); stroke-opacity: 1; stroke-width: 1px;"/><path class="xgrid crisp" transform="translate(812.72,0)" d="M0,60v211" style="stroke: rgb(255, 255, 255); stroke-opacity: 1; stroke-width: 1px;"/><path class="xgrid crisp" transform="translate(917.46,0)" d="M0,60v211" style="stroke: rgb(255, 255, 255); stroke-opacity: 1; stroke-width: 1px;"/><path class="xgrid crisp" transform="translate(1022.19,0)" d="M0,60v211" style="stroke: rgb(255, 255, 255); stroke-opacity: 1; stroke-width: 1px;"/></g><g class="y"><path class="ygrid crisp" transform="translate(0,241.71)" d="M50,0h1020" style="stroke: rgb(255, 255, 255); stroke-opacity: 1; stroke-width: 1px;"/><path class="ygrid crisp" transform="translate(0,175.15)" d="M50,0h1020" style="stroke: rgb(255, 255, 255); stroke-opacity: 1; stroke-width: 1px;"/><path class="ygrid crisp" transform="translate(0,108.6)" d="M50,0h1020" style="stroke: rgb(255, 255, 255); stroke-opacity: 1; stroke-width: 1px;"/></g></g><g class="zerolinelayer"/><path class="xlines-below"/><path class="ylines-below"/><g class="overlines-below"/><g class="xaxislayer-below"/><g class="yaxislayer-below"/><g class="overaxes-below"/><g class="plot" transform="translate(50,60)" clip-path="url(#clip882231xyplot)"><g class="scatterlayer mlayer"><g class="trace scatter trace807175" style="stroke-miterlimit: 2; opacity: 1;"><g class="fills"/><g class="errorbars"/><g class="lines"><path class="js-line" d="M0,102.31L4.55,102.67L5.69,99.59L11.38,98.95L12.52,97.73L13.66,96.64L14.8,96.63L15.94,96.97L19.35,97.01L20.49,97.12L21.63,96.16L23.91,91.14L27.32,93.36L28.46,94.12L29.6,93.94L31.88,91.86L35.29,90.56L36.43,89.54L37.57,91.74L39.84,92.12L43.26,89.23L44.4,87.38L45.54,93.13L46.67,103.34L47.81,101.7L51.23,101.67L52.37,97.39L53.5,95.39L54.64,96.26L55.78,91.49L59.2,93.06L60.33,86.91L61.47,89.02L62.61,89.33L63.75,93.53L67.17,92.22L68.3,86.1L69.44,86.81L70.58,86.28L71.72,86.22L75.13,82L79.69,73.44L83.1,75.9L85.38,79.51L86.52,79.73L87.66,76.59L91.07,75.21L93.35,85.41L95.63,86.97L99.04,85.78L100.18,82.79L101.32,78.57L102.46,78.84L103.59,74.78L107.01,76.64L108.15,80.37L110.42,81.5L111.56,84.62L114.98,84.49L116.12,84.4L117.25,86.02L118.39,83.26L119.53,89.69L125.22,101.81L126.36,107.86L127.5,109.57L130.92,119.99L134.33,105.53L135.47,106.33L138.88,103.48L141.16,103.76L142.3,108.27L143.44,101.95L146.85,101.16L147.99,97.75L149.13,99.3L150.27,98.16L151.41,97.23L154.82,99.07L155.96,97.31L157.1,100.84L158.24,100.1L159.38,97.19L163.93,98.15L165.07,94.52L167.34,98.98L170.76,98.94L171.9,98.73L173.04,96.62L175.31,88.89L178.73,88.41L181,88.81L182.14,90.01L183.28,89.71L186.7,90.86L188.97,86.89L190.11,93.84L191.25,90.22L195.8,89.78L196.94,90.1L198.08,89.34L199.22,88.25L202.63,89.81L204.91,90.5L206.05,88.79L207.19,87.49L210.6,89.6L211.74,89.1L212.88,91.01L215.16,93.99L218.57,88.59L221.99,87.04L223.13,85.78L228.82,86.67L229.96,85.13L231.09,85.07L234.51,85.91L235.65,81.86L236.79,82.19L237.92,81.68L239.06,80.33L242.48,80.03L243.62,82.59L244.75,83.41L245.89,81.77L247.03,80.6L250.45,79.68L253.86,81.3L255,79.44L258.42,77.66L259.55,78.21L261.83,78.98L266.38,78.44L267.52,76.35L268.66,76.4L269.8,77.07L270.94,76.04L274.35,75.73L275.49,72.55L276.63,74.94L277.77,74.65L278.91,73.21L282.32,72.64L283.46,76.31L284.6,75.62L285.74,76.32L286.88,73.56L290.29,76.2L291.43,74.67L293.71,70.42L294.84,70.96L299.4,71.11L300.54,69.37L301.67,71.41L302.81,71.16L307.37,74.49L308.5,78.15L309.64,77.19L310.78,80.48L314.2,76.82L315.33,72.59L318.75,64.22L322.17,66.1L323.3,66.4L324.44,64.07L325.58,63.53L326.72,62.01L331.27,63.76L332.41,62.06L333.55,59.46L334.69,59.71L339.24,58.92L340.38,62.97L346.07,58.98L347.21,56.17L348.35,52.97L350.63,54.11L355.18,55.26L356.32,52.45L357.46,52.94L358.59,54.35L362.01,53.76L363.15,54.72L364.29,55.44L365.42,54.16L366.56,57.82L369.98,58.89L371.12,54.18L372.25,53.93L373.39,54.83L374.53,50.76L377.95,51.37L379.08,54.38L381.36,61.71L382.5,59.88L385.92,68.13L387.05,64.64L388.19,63.78L389.33,58.24L390.47,59.06L393.88,62.84L395.02,59.63L396.16,68.13L398.44,59.39L401.85,56.48L402.99,59.2L404.13,56.74L405.27,55.51L406.41,63.3L409.82,58.11L410.96,57.98L413.24,52.57L414.38,52.57L418.93,51.84L420.07,49.19L421.21,48.48L422.34,46.56L426.9,49.35L428.04,47.98L429.17,46.28L430.31,48.3L433.73,50.02L434.87,48.92L437.14,48.8L438.28,49.82L443.97,49L445.11,49.61L449.67,49.07L450.8,50.64L451.94,58.18L453.08,54.88L454.22,48.9L457.63,50.91L458.77,54.59L459.91,52.86L462.19,51.4L465.6,51.89L466.74,50.85L467.88,51.17L470.16,50.8L473.57,50.9L474.71,53.59L475.85,51.4L476.99,52.54L478.13,54.97L482.68,56.51L483.82,52.84L486.09,52.33L489.51,55.51L490.65,55.86L491.79,54.62L494.06,55.27L497.48,56.13L498.62,56.63L499.75,52.78L500.89,51.98L502.03,50L505.45,48.45L506.58,49.47L508.86,49.47L510,48.27L513.42,48.63L514.55,46.03L515.69,44.42L517.97,45.15L521.38,44.78L522.52,46.06L523.66,42.82L524.8,42.58L525.94,40.83L529.35,41.72L531.63,43.22L532.77,41.28L533.91,41.32L537.32,38.78L538.46,39.47L539.6,41.69L541.88,37.29L545.29,38.31L546.43,38.3L548.71,36.94L549.84,35.93L553.26,38.09L554.4,36.83L556.67,35.63L557.81,37.68L561.23,36.9L562.37,38.85L563.5,38.86L564.64,35.84L565.78,35.92L569.2,35.14L570.33,34.08L572.61,30.58L573.75,29.45L578.3,29.7L579.44,28.19L580.58,28.47L581.72,32.63L587.41,34.52L588.55,30.11L589.69,35.16L593.1,34.94L594.24,33.67L595.38,29.31L597.66,30.32L601.07,29.38L603.35,29.94L604.49,29.69L605.63,29.8L610.18,32.84L611.32,31.56L612.46,32.48L613.59,31.73L617.01,41.66L618.15,50.73L619.29,53.66L621.56,77.41L624.98,59.39L626.12,66.1L627.25,48.64L629.53,66.13L632.95,91.04L634.08,76.29L635.22,93.92L636.36,126.02L637.5,108.53L640.92,144.63L642.05,130.62L643.19,150.97L644.33,155.04L645.47,168.01L648.88,179.24L650.02,157.05L651.16,150.84L652.3,133.46L653.44,144.02L656.85,132.78L657.99,138.74L659.13,149.27L660.27,138.27L661.41,141.24L664.82,123.19L665.96,126.13L667.1,116.6L668.24,110.25L672.79,114.28L673.93,104.95L675.07,113.43L676.21,117.02L677.34,104.14L681.9,119.63L683.04,113.36L684.17,113.6L685.31,111.26L688.73,105.32L689.87,106.01L691,101.85L692.14,106.56L693.28,113.02L696.7,112.91L697.83,111.94L698.97,116.6L700.11,115.35L701.25,108.83L704.67,110.06L705.8,115.84L706.94,122.13L708.08,120.33L709.22,121.51L712.63,109.91L713.77,115.59L714.91,110.32L716.05,112.24L717.19,112.56L721.74,106.96L722.88,103.89L724.02,102.75L725.16,102.7L728.57,103.22L729.71,101.75L730.85,95.4L731.99,96.4L733.13,87.26L736.54,81.3L738.82,92.07L739.96,113.67L741.09,109.49L744.51,109.17L745.65,105.62L746.79,107.88L747.92,107.09L749.06,110.87L753.62,111.63L754.75,119.95L755.89,118.68L757.03,127.27L761.58,118.7L762.72,119.15L768.42,114.68L769.55,117.07L770.69,116.83L771.83,123.96L772.97,117.62L776.38,116.05L778.66,106.66L779.8,106.7L780.94,105.38L784.35,108.14L786.63,98.02L787.77,99.32L792.32,100.24L793.46,99.85L794.6,100L795.74,103.22L800.29,105.3L801.43,100.67L803.71,95.88L804.84,94.12L809.4,91.5L810.54,88.73L812.81,87.25L816.23,86.73L817.37,86.61L818.5,89.75L819.64,90.75L820.78,89.35L824.2,84.75L825.33,86.83L826.47,88.21L827.61,88.32L828.75,83.37L832.17,86.07L833.3,88.73L834.44,82.84L835.58,87.98L836.72,88.95L841.27,94.26L842.41,92.24L843.55,95.56L844.69,93.37L849.24,90.56L850.38,88.4L852.66,91.72L856.07,98.12L857.21,98.26L858.35,104.71L859.49,104.44L860.63,102.43L864.04,97.95L865.18,101.28L866.32,99.23L867.46,100.75L868.59,100.23L872.01,96.75L873.15,100.47L874.29,97.11L875.42,92.35L876.56,93.01L879.98,91.66L881.12,94.82L882.25,96.89L883.39,96.32L884.53,95.82L887.95,100.5L889.08,99.11L890.22,99.84L891.36,95.34L892.5,94.46L897.05,102L898.19,114.54L899.33,111.91L900.47,113.04L903.88,107.87L905.02,104.7L908.44,101.02L911.85,84.69L912.99,76.94L914.13,77.86L915.27,83.96L916.41,80.08L919.82,74.86L920.96,76.09L922.1,81.19L923.24,80.11L924.38,82.2L927.79,77.29L928.93,71.38L930.07,73.63L932.34,74.84L935.76,78.09L940.31,67.04L943.73,69.83L944.87,66.61L946,67.07L947.14,66.9L948.28,65.5L951.7,70.33L952.83,66.54L953.97,69.73L955.11,67.71L956.25,68.44L959.67,73.07L960.8,75.54L961.94,72.59L963.08,72.21L967.63,68.84L968.77,69.64L969.91,68.71L971.05,67.04L975.6,71.97L976.74,70.13L977.88,70.54L979.02,70.27L980.16,67.16L983.57,67.31L984.71,68.22L985.85,67.88L986.99,69.56L988.13,73.08L992.68,73.81L993.82,72.29L994.96,73.11L996.09,75.63L999.51,73.21L1000.65,72.21L1001.79,82.25L1002.92,80.08L1004.06,86.48L1007.48,85.46L1008.62,83.74L1009.75,82.63L1010.89,78.38L1012.03,75.49L1015.45,73.28L1017.72,71.94L1018.86,72.74L1020,71.86" style="vector-effect: non-scaling-stroke; fill: none; stroke: rgb(99, 110, 250); stroke-opacity: 1; stroke-width: 2px; opacity: 1;"/></g><g class="points"/><g class="text"/></g><g class="trace scatter trace83d34d" style="stroke-miterlimit: 2; opacity: 1;"><g class="fills"/><g class="errorbars"/><g class="lines"><path class="js-line" d="M0,102.31L4.55,103.06L5.69,98.71L12.52,98.37L13.66,97.16L15.94,97.7L19.35,97.22L20.49,97.08L21.63,95.88L23.91,90.61L27.32,92.32L28.46,93.22L29.6,92.89L31.88,90.06L35.29,89.45L36.43,87.74L37.57,90.53L39.84,91.25L43.26,87.1L44.4,85.07L45.54,90.64L46.67,101.17L47.81,100.5L51.23,99.32L52.37,94.95L53.5,92.25L54.64,92.78L55.78,87.32L59.2,88.71L60.33,83.41L61.47,85.67L62.61,86.42L63.75,88.83L67.17,87.03L68.3,78.82L69.44,81.04L70.58,80.83L71.72,79.88L75.13,75.05L77.41,70.42L78.55,70.19L79.69,67.04L83.1,69.35L86.52,73.95L87.66,70.31L91.07,68.61L92.21,76.12L93.35,79.17L95.63,80.2L99.04,79.46L100.18,76.7L101.32,72.21L102.46,71.68L103.59,67.85L107.01,69.68L108.15,72.61L110.42,73.65L111.56,76.69L114.98,76.28L116.12,75.88L117.25,76.96L118.39,73.02L119.53,79.79L124.08,88.75L125.22,92.74L126.36,98.97L127.5,99.58L130.92,110.7L133.19,100.12L134.33,96.21L135.47,97L138.88,94.07L141.16,95.17L142.3,99.25L143.44,92.53L146.85,92.36L147.99,89.53L149.13,91.3L150.27,90.03L151.41,88.88L154.82,91.04L155.96,89.13L157.1,92.15L158.24,90.83L159.38,87.73L163.93,88.57L165.07,84.76L167.34,90.06L170.76,89.33L173.04,87.28L174.17,83.17L175.31,78.86L178.73,78L181,77.86L182.14,78.49L183.28,78.43L186.7,79.76L188.97,74.87L190.11,82.26L191.25,78.82L195.8,78.23L196.94,79.14L198.08,77.87L199.22,76.95L202.63,79.02L204.91,79.75L206.05,77.89L207.19,76.61L210.6,78.46L211.74,77.85L212.88,79.94L215.16,83.74L218.57,78.88L219.71,78.55L220.85,77.24L221.99,77.83L223.13,77.02L228.82,77.58L229.96,76.24L234.51,77.44L235.65,73.03L236.79,73.46L237.92,71.98L239.06,70.72L242.48,70.93L244.75,74.99L245.89,72.87L247.03,71.87L250.45,71.26L253.86,73.07L255,70.33L258.42,68.58L259.55,69.19L260.69,69.6L261.83,69.11L266.38,68.7L267.52,66.04L268.66,65.76L269.8,66.7L270.94,67.4L274.35,68.12L275.49,64.79L276.63,68.01L277.77,67.49L278.91,65.69L282.32,64.81L283.46,68.3L284.6,67.64L285.74,69.18L286.88,65.91L290.29,67.9L291.43,66.75L292.57,64.09L293.71,63.29L294.84,64.76L299.4,66.33L300.54,63.64L307.37,69.16L308.5,72.84L309.64,70.38L310.78,72.45L314.2,70.38L315.33,65.81L316.47,63.96L317.61,59.48L318.75,57.18L322.17,58.82L323.3,59.28L324.44,57.04L326.72,54.5L330.13,55.54L331.27,55.21L332.41,53.41L333.55,50.88L334.69,51.09L338.1,50.72L339.24,49.75L340.38,53.9L341.52,53.54L342.66,52.45L346.07,50.32L347.21,48.05L348.35,43.98L350.63,45.9L354.04,45.71L355.18,46.39L356.32,43.95L358.59,45.48L362.01,44.74L364.29,46.28L365.42,45.77L366.56,49.11L369.98,49.86L371.12,45.09L372.25,45.61L373.39,46.04L374.53,42.63L377.95,42.15L379.08,43.57L381.36,52.13L382.5,49.67L385.92,57.36L387.05,53.52L388.19,53.09L389.33,48.26L390.47,48.82L393.88,52.68L395.02,49.22L396.16,57.62L398.44,48.02L401.85,45.25L402.99,48.04L404.13,45.55L405.27,44.56L406.41,52.58L409.82,46.85L410.96,46.73L413.24,41.38L414.38,41.88L418.93,40.82L420.07,37.72L421.21,37.67L422.34,35.88L425.76,38.02L426.9,40.58L429.17,36.85L430.31,39.07L433.73,41.18L434.87,39.66L437.14,39.63L438.28,40.84L442.83,40.05L443.97,40.1L446.25,40.21L449.67,39.24L450.8,41.84L451.94,49.27L453.08,46.25L454.22,40.2L457.63,42.74L458.77,46.21L461.05,43.24L462.19,43.48L470.16,43.86L473.57,43.99L474.71,47.23L475.85,44.95L478.13,49.45L481.54,51.25L482.68,50.88L483.82,46.81L484.96,46.4L486.09,47.58L489.51,50.82L490.65,50.36L491.79,49.23L492.92,49.58L494.06,49.35L497.48,51.07L498.62,51.16L499.75,45.33L500.89,44.54L502.03,42.71L505.45,40.72L506.58,42.21L510,40.61L513.42,40.81L514.55,37.53L515.69,36.6L517.97,37.63L521.38,36.56L522.52,38.3L523.66,34.64L524.8,35.02L525.94,32.97L529.35,34.22L530.49,35.59L531.63,35.67L532.77,34.27L533.91,34.11L537.32,31.85L538.46,32.85L539.6,35.04L541.88,30.1L545.29,30.91L546.43,31.01L548.71,30.11L549.84,28.86L553.26,31.08L556.67,28.48L557.81,30.3L561.23,29.05L562.37,31.02L563.5,31.94L564.64,28.19L565.78,28.71L569.2,28.42L570.33,27.42L571.47,25.05L573.75,24.5L578.3,25.4L579.44,23.71L580.58,24.57L581.72,27.49L585.13,28.51L587.41,30.29L588.55,24.86L589.69,29.6L593.1,28.52L594.24,27.71L595.38,23.93L597.66,26.13L601.07,25.52L602.21,25.06L603.35,25.49L605.63,25.13L610.18,28.34L611.32,27.64L612.46,28.52L613.59,27.44L617.01,37.2L619.29,48.64L620.42,64.88L621.56,71.69L624.98,54.1L626.12,60.62L627.25,42.95L628.39,55.26L629.53,58.38L632.95,82.66L634.08,67.95L635.22,86.31L636.36,121.74L637.5,105.81L640.92,141.87L642.05,127.16L643.19,146.62L644.33,149.78L645.47,164.12L648.88,173.24L650.02,150.58L651.16,146.02L652.3,129.35L653.44,138.59L656.85,126.06L659.13,141.18L660.27,129.59L661.41,131.91L664.82,114.65L665.96,118.25L667.1,109.32L668.24,104.29L672.79,106.88L673.93,96.6L675.07,103.39L676.21,105.43L677.34,93.74L681.9,110.53L683.04,104.14L684.17,104.99L685.31,103.23L688.73,97.58L689.87,98.76L691,96.29L692.14,101.74L693.28,109.02L696.7,108.63L697.83,108.39L698.97,113.17L700.11,112.12L701.25,105.72L704.67,106.24L705.8,112L706.94,118.1L708.08,117.24L709.22,117.82L712.63,105.66L713.77,111.5L714.91,105.7L716.05,107.34L717.19,107.54L721.74,102.17L722.88,98.88L725.16,98.94L728.57,97.87L729.71,96.68L730.85,90.09L731.99,90.98L733.13,81.82L736.54,75.68L737.68,81.58L738.82,87.16L739.96,109.14L741.09,105.86L744.51,105.13L745.65,101.11L746.79,103.4L747.92,102.46L749.06,106L753.62,106.5L754.75,114.61L755.89,114.31L757.03,122.84L761.58,113.74L762.72,114L763.86,113.4L768.42,109.92L769.55,111.49L770.69,111.36L771.83,118.12L772.97,111.78L776.38,110.64L777.52,103.8L778.66,100.95L779.8,101.09L780.94,100.15L784.35,103.45L786.63,93.18L787.77,94.96L788.91,97.25L792.32,97.63L794.6,99.87L795.74,102.3L796.88,103.22L800.29,103.92L802.57,95.17L803.71,94.21L804.84,92.56L808.26,90.58L809.4,90.16L810.54,86.8L812.81,84.65L816.23,83.94L817.37,83.69L818.5,87.57L819.64,88.97L820.78,87.84L824.2,83.64L825.33,85.85L826.47,87.18L827.61,87.03L828.75,81.52L832.17,84.12L833.3,86.5L834.44,80.19L835.58,85.07L836.72,86.2L841.27,90.57L842.41,88.75L843.55,92.04L844.69,89.47L849.24,87.82L850.38,84.44L852.66,87.71L856.07,93.82L857.21,93.97L858.35,99.73L860.63,97.22L864.04,93.28L865.18,96.84L866.32,94.69L867.46,97.01L868.59,96.61L872.01,93.3L873.15,96.99L875.42,88.76L876.56,89.44L879.98,88.09L881.12,90.03L882.25,91.85L883.39,90.87L884.53,90.37L887.95,94.7L889.08,92.83L890.22,92.64L891.36,88.2L892.5,89.16L897.05,97.09L898.19,109.11L899.33,107.38L900.47,108.42L903.88,103.7L905.02,100.28L907.3,97.93L908.44,97.41L911.85,85.11L912.99,77.09L914.13,77.16L915.27,83.62L916.41,79.56L919.82,73.75L920.96,74.45L922.1,79.76L923.24,78.34L924.38,80.11L927.79,75.11L928.93,69.36L930.07,71.75L932.34,73.61L935.76,76.94L936.9,73.98L940.31,66.36L943.73,70.08L944.87,66.63L946,66.03L947.14,65L948.28,61.36L951.7,66.22L952.83,62.61L953.97,65.18L955.11,63.5L960.8,72.43L961.94,69.47L963.08,69.12L967.63,65.58L968.77,66.2L969.91,65.58L971.05,63.66L975.6,69.1L976.74,66.67L977.88,67.07L979.02,67.74L980.16,64.81L984.71,65.14L985.85,63.67L986.99,64.06L988.13,68.29L992.68,69.04L993.82,67.45L994.96,67.71L996.09,71.02L999.51,69.3L1000.65,67.3L1001.79,77.05L1002.92,73.96L1004.06,80.46L1007.48,78.85L1010.89,72.78L1012.03,68.99L1017.72,63.13L1018.86,64.14L1020,63.11" style="vector-effect: non-scaling-stroke; fill: none; stroke: rgb(239, 85, 59); stroke-opacity: 1; stroke-width: 2px; opacity: 1;"/></g><g class="points"/><g class="text"/></g><g class="trace scatter traceb8e377" style="stroke-miterlimit: 2; opacity: 1;"><g class="fills"/><g class="errorbars"/><g class="lines"><path class="js-line" d="M0,102.31L4.55,103.02L5.69,98.38L7.97,98.36L11.38,97.73L12.52,98.55L13.66,97.37L15.94,98.11L19.35,97.78L20.49,97.18L21.63,95.59L23.91,90.66L27.32,91.82L29.6,91.98L30.74,90.38L31.88,88.79L35.29,88.29L36.43,86.48L37.57,89.27L39.84,90.19L43.26,85.39L44.4,82.79L45.54,88.66L46.67,99.05L47.81,98.86L51.23,97.41L52.37,92.95L53.5,90.05L54.64,90.27L55.78,85.43L59.2,86.87L60.33,81.45L61.47,84.43L62.61,84.84L63.75,86.36L67.17,84.99L68.3,75.56L69.44,78.41L70.58,78.32L75.13,72.2L76.27,70.02L77.41,67.82L78.55,67.69L79.69,64.44L83.1,67.46L86.52,73.53L87.66,70.22L91.07,68.92L92.21,76.71L93.35,79.47L95.63,80.31L99.04,80.01L100.18,78.08L101.32,73.02L102.46,72.11L103.59,69.27L107.01,70.09L108.15,73.47L110.42,74.92L111.56,77.62L114.98,77.49L116.12,77.27L117.25,78.17L118.39,74.32L119.53,81.25L124.08,89.44L125.22,93.85L126.36,101.07L127.5,101.8L130.92,112.6L133.19,101.6L134.33,98.1L135.47,98.64L138.88,95.63L141.16,96.37L142.3,100.55L143.44,93.91L146.85,93.48L147.99,90.76L149.13,91.92L150.27,90.48L151.41,89.65L154.82,91.69L155.96,89.82L157.1,92.27L158.24,90.68L159.38,87.56L163.93,88.42L165.07,85.15L166.21,86.75L167.34,90.42L170.76,89.02L171.9,87.65L173.04,87.48L174.17,83.18L175.31,79.12L178.73,77.82L179.87,77.01L181,77.15L183.28,77.6L186.7,79.13L188.97,73.76L190.11,80.2L191.25,76.35L195.8,75.56L196.94,76.98L198.08,76.1L199.22,75.24L202.63,77.56L204.91,78.25L206.05,76.19L207.19,74.97L210.6,77.08L211.74,76.26L212.88,78.38L215.16,82.48L218.57,78.5L219.71,78.71L220.85,77.45L221.99,77.97L223.13,77.37L228.82,78.08L229.96,77L231.09,77.8L234.51,78.7L235.65,74.43L236.79,74.85L239.06,71.72L242.48,71.63L244.75,76.66L245.89,73.87L247.03,72.76L250.45,72.66L253.86,74.42L255,70.78L258.42,69.12L259.55,69.49L266.38,68.25L267.52,64.91L269.8,64.64L270.94,66.64L274.35,67.29L275.49,64.35L276.63,67.65L277.77,66.98L278.91,65.02L282.32,63.84L283.46,67.35L284.6,66.54L285.74,67.75L286.88,64.53L290.29,67.08L291.43,65.86L292.57,63.43L293.71,63.27L294.84,65.01L298.26,66.37L299.4,66.81L300.54,64.2L307.37,69.51L308.5,73.28L309.64,70.75L310.78,72.11L314.2,71.39L315.33,66.28L316.47,64.86L317.61,60.1L318.75,57.75L322.17,59.52L323.3,60.67L324.44,58.42L326.72,55.41L330.13,56.24L332.41,53.46L333.55,51.02L334.69,51.26L338.1,51.21L339.24,49.96L340.38,53.58L341.52,53.26L342.66,51.73L346.07,49.77L347.21,48.03L348.35,43.91L350.63,45.8L355.18,45.35L356.32,43.24L358.59,44.36L362.01,43.85L364.29,45.64L365.42,45.54L366.56,48.43L369.98,49.2L371.12,44.79L372.25,45.43L373.39,45.51L374.53,42.81L377.95,42.09L379.08,42.95L381.36,51.91L382.5,48.71L385.92,56.37L387.05,52.17L388.19,52.23L389.33,47.37L390.47,47.41L393.88,51.56L395.02,47.92L396.16,56.65L398.44,45.99L401.85,43.39L402.99,45.75L404.13,43.14L405.27,41.89L406.41,49.92L409.82,43.85L410.96,44.03L413.24,38.14L414.38,38.8L418.93,38.19L420.07,34.89L421.21,35.05L422.34,33.29L425.76,35.11L426.9,38.25L429.17,34.34L430.31,36.38L433.73,38.28L434.87,36.49L436,35.89L437.14,36.68L438.28,38.28L441.7,36.86L442.83,37.29L443.97,36.88L446.25,37.43L449.67,36.31L450.8,39.13L451.94,46.54L453.08,43.88L454.22,37.74L457.63,40.16L458.77,43.13L461.05,39.55L462.19,39.7L473.57,41.1L474.71,44.56L475.85,42.82L476.99,45.28L478.13,47.4L481.54,49.67L482.68,49.51L483.82,45.52L484.96,45.27L486.09,46.27L489.51,48.52L490.65,47.25L492.92,46.55L494.06,46.08L498.62,47.47L499.75,40.25L502.03,37.38L505.45,35.23L506.58,37.38L507.72,36.59L508.86,36.65L510,35.56L513.42,36.05L514.55,32.66L515.69,31.9L517.97,33.12L521.38,32.2L522.52,34.28L523.66,30.58L524.8,30.86L525.94,28.51L529.35,30.22L530.49,31.76L531.63,31.77L533.91,30.37L537.32,28.47L539.6,31.66L540.74,29.79L541.88,27.15L545.29,27.99L546.43,27.95L548.71,27.1L549.84,25.99L553.26,27.91L554.4,27.62L556.67,24.74L557.81,26.19L561.23,24.69L563.5,28.43L564.64,24.4L565.78,25.58L569.2,25.84L572.61,22.73L573.75,23.39L578.3,24.89L579.44,23.37L580.58,24.31L581.72,27.13L587.41,28.56L588.55,22.49L589.69,27.97L593.1,26.79L594.24,25.97L595.38,22.6L597.66,24.88L601.07,24.45L602.21,23.49L603.35,23.75L605.63,23.01L610.18,26.07L611.32,25.7L612.46,26.76L613.59,25.59L617.01,35.4L619.29,47.65L620.42,63.89L621.56,70.72L624.98,53.12L626.12,59.73L627.25,42.67L628.39,55.54L629.53,57.56L632.95,82.84L634.08,68.27L635.22,87.55L636.36,124.1L637.5,109.11L640.92,147.59L642.05,134.28L643.19,156.45L644.33,156.97L645.47,169.97L648.88,178.07L650.02,153.91L651.16,148.48L652.3,132.42L653.44,142.8L656.85,131.03L657.99,136.64L659.13,146.05L660.27,135.83L661.41,138.52L664.82,120.17L665.96,123.81L668.24,109.96L672.79,111.74L673.93,102.12L675.07,108.15L676.21,110.23L677.34,97.91L681.9,115.61L683.04,109.1L684.17,110.47L685.31,109.39L688.73,103.81L689.87,105.02L691,102.7L692.14,108.76L693.28,116.37L696.7,115.91L697.83,116.26L698.97,121.09L700.11,119.33L701.25,113.4L704.67,114.01L705.8,119.77L706.94,125.89L708.08,125.36L709.22,125.99L712.63,112.63L713.77,118.48L714.91,112.5L717.19,113.61L721.74,107.31L722.88,104.04L724.02,105.18L725.16,106.04L728.57,103.57L729.71,102.87L730.85,95.17L731.99,95.59L733.13,85.78L736.54,78.79L737.68,85.47L738.82,92L739.96,114.33L741.09,110.74L744.51,109.9L745.65,105.7L746.79,108.42L747.92,107.73L749.06,111.26L752.48,110.26L753.62,110.86L754.75,119.34L755.89,119.88L757.03,128.82L760.45,121.59L761.58,119.58L762.72,120.08L763.86,119.98L768.42,116.18L769.55,117.3L770.69,117.17L771.83,124.11L772.97,117.4L776.38,117.02L777.52,109.74L778.66,106.41L779.8,106.99L780.94,106.99L784.35,110.6L786.63,100.36L787.77,102.72L788.91,105.4L792.32,106.19L793.46,107.27L794.6,109.78L796.88,113.64L800.29,113.59L802.57,103.99L803.71,103.12L804.84,101.63L808.26,98.85L809.4,98.25L810.54,95.21L812.81,91.87L816.23,91.07L817.37,91.31L818.5,95.35L819.64,97.5L820.78,96.33L824.2,91.81L825.33,94.42L826.47,95.91L827.61,95L828.75,89.17L832.17,92.11L833.3,93.5L834.44,88.09L835.58,92.74L836.72,94.01L841.27,98.51L842.41,97.07L843.55,100.38L844.69,98.17L849.24,97.1L850.38,92.85L857.21,102.5L858.35,108.13L859.49,107.47L860.63,105.73L864.04,101.58L865.18,105.34L866.32,103.35L867.46,105.44L868.59,104.8L872.01,101.52L873.15,105.84L874.29,102.3L875.42,97.96L876.56,98.96L879.98,97.44L881.12,98.82L882.25,100.78L883.39,99.22L884.53,99.06L887.95,103.17L889.08,100.95L890.22,100.55L891.36,95.65L892.5,97.34L897.05,106.13L898.19,118.02L899.33,116.36L900.47,117.63L903.88,112.93L905.02,109.23L907.3,106.89L908.44,106.31L911.85,93.46L912.99,84.85L914.13,85.15L915.27,91.85L916.41,87.7L919.82,80.02L920.96,80.75L922.1,85.93L923.24,83.91L924.38,86.16L927.79,79.94L928.93,73.66L930.07,76.28L932.34,78.68L935.76,82.64L936.9,80.04L940.31,72.11L943.73,76.1L944.87,72.8L946,72.23L947.14,70.33L948.28,65.74L951.7,70.95L952.83,67.48L953.97,69.95L955.11,68.66L956.25,71.58L959.67,75.7L960.8,77.98L961.94,74.61L963.08,74.73L967.63,70.88L968.77,71.74L969.91,70.89L971.05,69.43L975.6,74.77L976.74,71.87L977.88,71.98L979.02,72.54L980.16,69.71L984.71,69.03L985.85,67.23L986.99,66.8L988.13,72.01L992.68,72.67L993.82,70.64L994.96,71.34L996.09,74L999.51,73.42L1000.65,71.35L1001.79,81.41L1002.92,77.81L1004.06,84.51L1007.48,82.58L1012.03,71.08L1015.45,66.79L1017.72,63.35L1018.86,64.73L1020,63.59" style="vector-effect: non-scaling-stroke; fill: none; stroke: rgb(0, 204, 150); stroke-opacity: 1; stroke-width: 2px; opacity: 1;"/></g><g class="points"/><g class="text"/></g><g class="trace scatter traceccf730" style="stroke-miterlimit: 2; opacity: 1;"><g class="fills"/><g class="errorbars"/><g class="lines"><path class="js-line" d="M0,102.31L4.55,102.85L5.69,98.23L7.97,98.06L11.38,97.4L12.52,98.25L13.66,96.92L15.94,97.91L19.35,97.44L20.49,96.81L21.63,94.93L23.91,90.2L27.32,91.19L29.6,91.09L30.74,89.58L31.88,88.09L35.29,87.43L36.43,85.53L37.57,88.44L39.84,89.63L43.26,84.65L44.4,81.89L45.54,87.58L46.67,98.06L47.81,98.23L51.23,96.57L52.37,91.99L53.5,89.72L54.64,89.98L55.78,85.31L59.2,86.82L60.33,81.61L61.47,84.56L62.61,84.91L63.75,86.31L67.17,85.29L68.3,75.83L69.44,78.7L70.58,78.81L75.13,72.29L76.27,69.82L77.41,67.79L78.55,67.79L79.69,64.45L83.1,67.42L86.52,73.86L87.66,70.95L91.07,69.71L92.21,77.65L93.35,80.24L95.63,80.99L99.04,80.79L100.18,78.85L101.32,73.55L102.46,72.58L103.59,69.74L107.01,70.25L108.15,73.94L110.42,75.52L111.56,78.16L114.98,78.2L116.12,77.93L117.25,78.75L118.39,74.77L119.53,81.68L124.08,89.83L125.22,94.05L126.36,101.49L127.5,102.59L130.92,113.14L133.19,101.99L134.33,98.51L135.47,98.98L138.88,95.97L141.16,96.48L142.3,100.34L143.44,93.64L146.85,93.18L147.99,90.47L149.13,91.48L150.27,89.94L151.41,89.3L154.82,91.28L155.96,89.39L157.1,91.75L158.24,90.26L159.38,87.01L163.93,88.01L165.07,84.4L166.21,86.01L167.34,89.53L171.9,86.64L173.04,86.98L175.31,78.55L178.73,76.99L179.87,76.09L181,76.31L183.28,76.76L186.7,78.55L188.97,72.73L190.11,78.7L191.25,74.51L195.8,73.58L196.94,75.11L198.08,74.19L199.22,73.49L202.63,76.07L204.91,77.15L206.05,75.15L207.19,73.96L210.6,76L211.74,75.04L212.88,77.04L215.16,81.28L218.57,77.75L219.71,78.16L220.85,77.03L223.13,76.9L226.54,77.13L228.82,77.64L229.96,76.96L231.09,77.82L234.51,78.63L235.65,74.47L236.79,74.99L239.06,71.54L242.48,71.16L244.75,76.24L245.89,73.31L247.03,72.26L250.45,72.25L253.86,73.91L255,69.41L259.55,68.05L260.69,67.76L261.83,67.22L266.38,66.56L267.52,63.13L268.66,62.82L269.8,61.87L270.94,64.03L274.35,64.63L275.49,61.76L276.63,65.27L277.77,64.47L278.91,62.57L282.32,61.25L283.46,64.85L284.6,63.92L285.74,64.99L286.88,61.84L290.29,64.79L291.43,63.62L292.57,61.35L293.71,61.16L294.84,63.06L298.26,64.22L299.4,64.71L300.54,62.17L307.37,67.38L308.5,71.16L309.64,68.68L310.78,69.82L314.2,69.7L315.33,64.27L316.47,62.98L317.61,58.17L318.75,55.98L322.17,57.6L323.3,58.85L324.44,56.64L326.72,53.03L330.13,53.65L333.55,48.44L334.69,48.76L338.1,48.87L339.24,47.58L340.38,50.9L341.52,50.83L342.66,49.08L346.07,47.11L347.21,45.57L348.35,41.41L350.63,43.24L354.04,42.6L355.18,42.36L356.32,40.46L358.59,41.36L362.01,41.03L364.29,42.81L365.42,42.78L366.56,45.39L369.98,46.33L371.12,42.14L372.25,43.11L373.39,42.89L374.53,40.32L379.08,39.06L380.22,43.54L381.36,48.08L382.5,44.45L385.92,52.12L387.05,47.85L388.19,48.72L389.33,43.62L390.47,43.57L393.88,47.83L395.02,44.08L396.16,53.12L398.44,41.69L401.85,39.13L402.99,41.12L404.13,38.5L405.27,37.17L406.41,45.1L409.82,39.05L410.96,39.2L413.24,33.03L414.38,33.75L418.93,33.43L420.07,30.14L421.21,30.34L422.34,28.64L425.76,30.27L426.9,33.45L429.17,29.54L430.31,31.01L433.73,33.1L434.87,31.17L436,30.31L437.14,31.21L438.28,32.88L441.7,31.43L442.83,31.94L443.97,31.57L446.25,32.46L449.67,31.21L450.8,33.88L451.94,41.15L453.08,38.81L454.22,32.48L457.63,34.9L458.77,37.85L461.05,33.83L462.19,34.01L473.57,36.13L474.71,38.9L475.85,37.13L476.99,39.4L478.13,41.69L481.54,44.12L482.68,43.93L483.82,39.9L484.96,39.9L486.09,40.69L489.51,42.82L490.65,41.34L494.06,39.8L497.48,41.33L498.62,41.22L499.75,33.34L502.03,30.36L505.45,27.99L506.58,30.71L507.72,29.73L508.86,29.7L510,28.77L513.42,29.32L514.55,25.61L515.69,25.2L517.97,26.45L521.38,25.48L522.52,27.53L523.66,23.67L524.8,23.94L525.94,21.79L529.35,23.5L530.49,25.15L531.63,25.16L532.77,23.84L533.91,23.8L537.32,22.23L538.46,23.26L539.6,25.24L540.74,23.63L541.88,20.93L545.29,21.97L548.71,21.1L549.84,20.06L554.4,21.96L556.67,18.72L557.81,20.25L561.23,18.69L563.5,23.06L564.64,18.85L565.78,20.36L569.2,20.99L572.61,18.26L573.75,19.22L578.3,21L579.44,19.52L580.58,20.46L581.72,23.94L585.13,24.78L586.27,24.1L587.41,23.94L588.55,17.55L589.69,22.8L593.1,21.4L594.24,20.26L595.38,16.94L597.66,19.18L601.07,18.57L602.21,17.78L603.35,18.18L604.49,17.27L605.63,17.32L610.18,20.1L611.32,19.8L612.46,20.52L613.59,19.37L617.01,29.21L618.15,36.63L619.29,41.99L620.42,58.85L621.56,65.88L624.98,47.99L626.12,54.97L627.25,38.28L628.39,51.45L629.53,53.38L632.95,80.16L634.08,65.26L635.22,84.8L636.36,122.03L637.5,106.65L640.92,145.89L642.05,132.38L643.19,155.5L644.33,155.48L645.47,168.51L648.88,175.88L650.02,151.24L651.16,145.73L652.3,129.51L653.44,140.76L656.85,128.74L659.13,143.87L660.27,133.47L661.41,136.42L664.82,117.94L665.96,121.94L667.1,113.27L668.24,107.77L672.79,109.44L673.93,100.29L675.07,105.99L676.21,108.26L677.34,95.24L681.9,113.62L683.04,107.44L684.17,108.57L685.31,107.62L688.73,102.09L689.87,103.65L691,101.29L692.14,107.37L693.28,115.03L696.7,114.64L697.83,115.3L698.97,120.25L700.11,118.25L701.25,112.32L704.67,113.05L705.8,118.8L706.94,124.64L708.08,123.99L709.22,124.37L712.63,110.84L713.77,117.27L714.91,111.31L717.19,112.7L721.74,106.13L722.88,102.81L724.02,104.34L725.16,105.3L728.57,101.99L729.71,101.49L730.85,93.33L731.99,93.65L733.13,83.34L736.54,76.05L737.68,83.18L738.82,90.06L739.96,112.7L741.09,109.06L744.51,108.49L745.65,103.7L746.79,106.84L747.92,106.08L749.06,109.59L752.48,108.58L753.62,109.12L754.75,117.8L755.89,118.45L757.03,127.36L760.45,120L761.58,118.05L762.72,118.73L763.86,118.87L768.42,115.04L769.55,115.8L770.69,115.56L771.83,122.33L772.97,115.34L776.38,115.25L777.52,107.78L778.66,104.37L779.8,104.97L780.94,105.36L784.35,109.06L786.63,99.3L787.77,101.73L788.91,104.2L792.32,105.06L793.46,106.05L794.6,108.78L796.88,112.85L800.29,112.38L802.57,102.55L803.71,101.74L808.26,97.63L809.4,96.65L811.67,91.37L812.81,89.99L816.23,89.02L817.37,89.53L819.64,96.25L820.78,95.23L824.2,90.47L825.33,93.08L826.47,94.59L827.61,93.13L828.75,87.25L832.17,90.73L833.3,91.73L834.44,86.44L835.58,91L836.72,92.44L841.27,96.95L842.41,95.43L843.55,98.93L844.69,96.9L849.24,96.44L850.38,91.85L857.21,101.68L858.35,107.62L859.49,107.09L860.63,105.19L864.04,100.95L865.18,104.72L866.32,102.67L867.46,104.75L868.59,104.17L872.01,100.9L873.15,105.55L874.29,102.02L875.42,97.48L876.56,98.59L879.98,97.06L881.12,97.96L882.25,100.08L883.39,98.37L884.53,98.39L887.95,102.67L889.08,100.89L890.22,100.64L891.36,95.5L892.5,96.95L897.05,105.94L898.19,117.8L899.33,116.01L900.47,117.06L903.88,112.34L905.02,108.41L908.44,105.43L911.85,92.62L912.99,83.81L914.13,84.27L915.27,90.88L916.41,86.9L919.82,78.49L920.96,79.39L922.1,84.75L923.24,82.61L924.38,85.22L927.79,78.31L928.93,71.55L930.07,74.44L935.76,81.39L936.9,79.06L940.31,71.38L943.73,75.56L944.87,72.49L946,71.75L947.14,69.82L948.28,64.25L951.7,69.56L952.83,66.07L953.97,68.24L955.11,67.24L956.25,70.21L959.67,74.12L960.8,76.31L961.94,72.79L963.08,72.96L967.63,69.01L968.77,70.08L969.91,69.11L971.05,67.66L975.6,72.85L976.74,69.7L977.88,69.18L979.02,69.55L980.16,66.87L984.71,65.62L985.85,64.01L986.99,63.26L988.13,68.69L992.68,69.4L993.82,67.65L994.96,68.76L996.09,71.44L999.51,71.22L1000.65,68.98L1001.79,79.61L1002.92,75.58L1004.06,82.37L1007.48,80.21L1012.03,68.3L1015.45,63.4L1017.72,59.61L1018.86,61.26L1020,60.16" style="vector-effect: non-scaling-stroke; fill: none; stroke: rgb(171, 99, 250); stroke-opacity: 1; stroke-width: 2px; opacity: 1;"/></g><g class="points"/><g class="text"/></g><g class="trace scatter trace79396a" style="stroke-miterlimit: 2; opacity: 1;"><g class="fills"/><g class="errorbars"/><g class="lines"><path class="js-line" d="M0,102.31L4.55,102.72L5.69,98.32L7.97,98.08L11.38,97.29L12.52,98.35L13.66,96.96L15.94,97.98L19.35,97.46L20.49,96.83L21.63,94.81L23.91,90.19L27.32,90.98L29.6,90.74L30.74,89.28L31.88,87.74L35.29,87.04L36.43,85.09L37.57,88.01L39.84,89.36L43.26,84.44L44.4,81.65L45.54,87.38L46.67,97.83L47.81,98.02L51.23,96.39L52.37,91.6L53.5,89.44L54.64,89.73L55.78,85.19L59.2,86.69L60.33,81.52L61.47,84.84L62.61,84.75L63.75,86.06L67.17,85.17L68.3,75.73L69.44,78.4L70.58,78.52L76.27,69.46L77.41,67.32L78.55,67.35L79.69,64.07L83.1,67.04L84.24,69.12L86.52,73.32L87.66,70.73L91.07,69.61L92.21,77.54L93.35,80.05L95.63,80.58L99.04,80.54L100.18,78.7L101.32,73.33L102.46,72.42L103.59,69.47L107.01,69.79L108.15,73.67L110.42,75.13L111.56,77.91L114.98,77.91L116.12,77.62L117.25,78.35L118.39,74.23L119.53,81.04L124.08,89.27L125.22,93.5L126.36,100.92L127.5,102.36L130.92,112.76L133.19,101.45L134.33,98.03L135.47,98.41L138.88,95.38L141.16,95.65L142.3,99.56L143.44,92.7L146.85,92.21L147.99,89.59L149.13,90.59L150.27,89.19L151.41,88.55L154.82,90.5L155.96,88.59L157.1,90.92L158.24,89.42L159.38,86.12L163.93,87.15L165.07,83.51L166.21,85.17L167.34,88.95L171.9,85.87L173.04,86.51L175.31,77.93L178.73,76.18L179.87,75.24L181,75.45L183.28,75.92L186.7,77.91L188.97,71.99L190.11,77.64L191.25,73.2L195.8,72.27L196.94,73.87L198.08,72.91L199.22,72.23L202.63,74.96L204.91,76.25L206.05,74.25L207.19,72.97L210.6,74.86L211.74,73.76L212.88,75.63L215.16,80.05L218.57,76.59L219.71,77.07L220.85,75.91L223.13,75.8L226.54,76.07L229.96,76.21L231.09,77.24L234.51,78.03L235.65,73.82L236.79,74.55L237.92,72.34L239.06,70.82L242.48,70.15L244.75,74.82L245.89,71.77L247.03,70.79L250.45,70.77L253.86,72.36L255,67.34L258.42,65.73L259.55,66.19L261.83,65.35L266.38,64.4L267.52,60.75L268.66,60.5L269.8,58.76L270.94,61.29L274.35,61.89L275.49,59.04L276.63,62.73L277.77,61.89L278.91,59.9L282.32,58.46L283.46,62.19L284.6,61.24L285.74,62.38L286.88,59.33L290.29,62.6L291.43,61.45L292.57,59.22L293.71,58.74L294.84,60.79L298.26,61.95L299.4,62.37L300.54,59.82L301.67,60.77L302.81,60.74L307.37,64.99L308.5,68.59L309.64,66.09L310.78,67.08L314.2,67.42L315.33,61.8L316.47,60.47L317.61,55.57L318.75,53.47L322.17,55.08L323.3,56.66L324.44,54.46L326.72,50.64L330.13,51.18L333.55,45.89L334.69,46.28L338.1,46.37L339.24,45.27L340.38,48.27L341.52,48.37L342.66,46.38L346.07,44.36L347.21,42.87L348.35,38.69L350.63,40.53L354.04,39.96L355.18,39.47L356.32,37.56L358.59,38.41L362.01,38.24L364.29,39.95L365.42,39.9L366.56,42.33L369.98,43.12L371.12,38.77L372.25,39.84L373.39,39.54L374.53,37.06L379.08,35.42L380.22,39.97L381.36,44.53L382.5,40.79L385.92,48.61L387.05,44.11L388.19,45.49L389.33,40.22L390.47,40.14L393.88,44.6L395.02,40.84L396.16,50.04L398.44,38.42L401.85,35.78L402.99,37.64L404.13,34.98L405.27,33.72L406.41,41.69L409.82,35.61L410.96,35.83L413.24,29.3L414.38,30.06L418.93,29.87L420.07,26.6L421.21,26.83L422.34,25.1L425.76,26.76L426.9,30.14L429.17,26.02L430.31,27.15L433.73,29.34L434.87,27.45L436,26.42L437.14,27.34L438.28,29.07L441.7,27.66L442.83,28.35L443.97,27.98L446.25,29.22L449.67,27.98L450.8,30.57L451.94,37.91L453.08,35.47L454.22,28.99L457.63,31.33L458.77,34.3L461.05,29.97L462.19,30.23L473.57,32.07L474.71,34.18L475.85,32.5L476.99,34.38L478.13,36.51L481.54,38.92L482.68,38.55L483.82,34.44L484.96,34.49L486.09,35.41L489.51,37.61L490.65,36.27L494.06,34.32L497.48,36.1L498.62,35.85L499.75,27.6L502.03,24.71L505.45,22.23L506.58,25.11L507.72,24.12L510,23.14L513.42,23.6L514.55,19.65L515.69,19.37L517.97,20.68L521.38,19.7L522.52,21.82L523.66,17.89L524.8,18.12L525.94,16.11L529.35,17.9L530.49,19.57L531.63,19.47L532.77,17.92L533.91,17.87L537.32,16.33L539.6,19.37L540.74,17.81L541.88,15.01L545.29,16.17L548.71,15.16L549.84,14.2L554.4,16.26L556.67,12.67L557.81,14.3L561.23,12.74L563.5,17.4L564.64,13.11L565.78,14.66L569.2,15.45L572.61,12.73L573.75,13.91L578.3,15.75L579.44,14.22L580.58,14.78L581.72,18.51L585.13,19.41L586.27,18.2L587.41,17.83L588.55,11.07L589.69,16.57L593.1,14.92L594.24,13.43L595.38,10.55L597.66,12.75L601.07,11.99L602.21,11.27L603.35,11.86L605.63,11.11L610.18,13.72L611.32,13.34L612.46,14.01L613.59,12.93L617.01,23.12L619.29,36.33L620.42,53.67L621.56,60.75L624.98,42.78L626.12,49.88L627.25,33.22L628.39,47.04L629.53,48.98L632.95,76.86L634.08,61.41L635.22,81.19L636.36,118.5L637.5,102.15L640.92,142.27L642.05,128.97L643.19,152.87L644.33,152.44L645.47,165.52L648.88,172.86L650.02,147.54L651.16,141.6L652.3,125.08L653.44,137.45L656.85,125.02L659.13,140.44L660.27,129.84L661.41,133.05L664.82,113.98L665.96,118.32L667.1,109.46L668.24,103.8L672.79,105.47L673.93,96.33L675.07,101.83L676.21,103.96L677.34,90.65L681.9,109.83L683.04,103.51L684.17,104.62L685.31,103.66L688.73,97.85L689.87,99.86L691,97.19L692.14,103.35L693.28,111.04L696.7,110.91L697.83,111.55L698.97,116.42L700.11,114.49L701.25,108.58L704.67,109.24L705.8,115.03L706.94,120.58L708.08,119.55L709.22,119.97L712.63,106.39L713.77,112.98L714.91,106.91L717.19,108.64L721.74,101.88L722.88,98.59L724.02,100.33L725.16,101.42L728.57,98.14L729.71,97.86L730.85,89.5L731.99,89.95L733.13,79.54L736.54,72.35L737.68,79.77L738.82,86.67L739.96,109.48L741.09,105.89L744.51,105.46L745.65,100.49L746.79,103.79L747.92,103.11L749.06,106.78L752.48,105.72L753.62,106.19L754.75,114.97L755.89,115.8L757.03,124.68L760.45,117.38L761.58,115.35L762.72,115.85L763.86,116.11L768.42,112.24L769.55,112.91L770.69,112.69L771.83,119.24L772.97,112.14L776.38,112.24L777.52,104.84L778.66,101.27L779.8,102.06L780.94,102.48L784.35,106.09L786.63,96.49L787.77,98.8L788.91,101.91L792.32,102.81L793.46,103.58L794.6,106.66L796.88,111.03L800.29,110.31L802.57,100.27L803.71,99.4L809.4,94.49L810.54,91.21L812.81,87.75L816.23,86.51L817.37,87.26L818.5,91.38L819.64,94.01L820.78,93.14L824.2,88.45L825.33,91.03L826.47,92.37L827.61,90.76L828.75,84.58L832.17,88.43L833.3,89.32L834.44,84.02L836.72,90.11L841.27,94.73L842.41,93.1L843.55,96.59L844.69,94.65L848.1,94.41L849.24,94.31L850.38,89.58L856.07,98.78L857.21,99.56L858.35,105.84L859.49,105.36L860.63,103.42L864.04,99.11L865.18,102.84L866.32,100.76L867.46,102.78L868.59,102.21L872.01,99.13L873.15,103.98L875.42,95.95L876.56,97.12L879.98,95.54L881.12,95.96L882.25,98.16L883.39,96.48L884.53,96.44L887.95,100.76L889.08,99.46L890.22,99.55L891.36,94.16L892.5,95.78L897.05,105.09L898.19,117.43L899.33,115.64L900.47,116.4L903.88,111.83L905.02,107.78L907.3,104.97L908.44,104.42L911.85,91.26L912.99,82.59L914.13,83.06L915.27,89.75L916.41,85.78L919.82,77.09L920.96,77.86L922.1,83.17L923.24,80.85L924.38,83.72L927.79,76.3L928.93,69.26L930.07,72.36L932.34,75L935.76,79.16L936.9,76.97L940.31,69.56L943.73,73.75L944.87,70.72L946,70.13L947.14,68.27L948.28,62.14L951.7,67.61L952.83,64.39L953.97,66.42L955.11,65.64L956.25,68.89L959.67,72.68L960.8,74.82L961.94,71.09L963.08,71.27L967.63,67.24L968.77,68.1L969.91,67.1L971.05,65.59L975.6,70.75L976.74,67.49L977.88,66.93L979.02,67.1L980.16,64.48L984.71,62.92L985.85,61.36L986.99,60.54L988.13,66.21L992.68,67L993.82,65.52L994.96,66.9L996.09,69.61L999.51,69.77L1000.65,67.43L1001.79,78.65L1002.92,73.94L1004.06,80.65L1007.48,78.23L1012.03,66.13L1015.45,61.01L1017.72,57.19L1018.86,58.65L1020,57.46" style="vector-effect: non-scaling-stroke; fill: none; stroke: rgb(255, 161, 90); stroke-opacity: 1; stroke-width: 2px; opacity: 1;"/></g><g class="points"/><g class="text"/></g><g class="trace scatter trace91c9cf" style="stroke-miterlimit: 2; opacity: 1;"><g class="fills"/><g class="errorbars"/><g class="lines"><path class="js-line" d="M0,102.31L4.55,102.79L5.69,99.95L12.52,98.9L13.66,97.82L19.35,98.47L20.49,98.71L21.63,97.53L22.77,94.33L23.91,92.49L27.32,94.78L29.6,95.35L30.74,93.87L36.43,90.88L37.57,93.13L39.84,93.39L43.26,90.65L44.4,88.64L45.54,94.53L46.67,104.5L47.81,103.28L51.23,103.01L52.37,98.47L53.5,96.48L54.64,97.42L55.78,92.17L59.2,93.93L60.33,87.66L61.47,89.21L62.61,89.5L63.75,93.6L67.17,92.56L68.3,86.2L69.44,87.12L70.58,86.7L71.72,86.28L75.13,81.7L79.69,73.1L83.1,75.54L85.38,78.61L86.52,79.17L87.66,76.18L91.07,75.3L93.35,85.19L95.63,86.79L99.04,85.41L100.18,82.45L101.32,78.02L102.46,78.22L103.59,74.31L107.01,76.21L108.15,80.17L110.42,81.41L111.56,84.67L114.98,84.53L116.12,84.43L117.25,85.8L118.39,82.95L119.53,88.61L125.22,100.36L126.36,106.5L127.5,108.05L130.92,118.37L134.33,103.52L135.47,104.22L138.88,101.21L141.16,101.55L142.3,105.75L143.44,99.5L146.85,98.64L147.99,95.39L149.13,97.07L150.27,95.69L151.41,94.67L154.82,96.29L155.96,94.41L157.1,97.64L158.24,96.81L159.38,93.73L163.93,94.5L165.07,90.59L167.34,95.01L170.76,94.74L171.9,94.82L173.04,92.99L175.31,86.5L178.73,85.54L181,85.88L182.14,87.05L183.28,87.15L186.7,88.37L188.97,84.42L190.11,91.24L191.25,87.5L195.8,87.13L196.94,87.2L198.08,86.23L199.22,85.36L202.63,87.16L203.77,87.34L204.91,88.28L207.19,85.1L210.6,87.41L211.74,86.62L212.88,88.08L215.16,90.95L218.57,85.78L219.71,85.59L220.85,84.3L221.99,84.21L223.13,82.8L228.82,84.5L229.96,83.44L234.51,84.61L235.65,80.65L236.79,81.11L237.92,80.5L239.06,79.08L242.48,78.72L244.75,81.17L245.89,79.12L247.03,78.05L250.45,77.41L252.72,78.33L253.86,78.77L255,76.19L258.42,74.35L260.69,75.36L261.83,74.97L266.38,74.51L267.52,72.7L269.8,72.87L270.94,71.4L274.35,71.18L275.49,68.3L276.63,71.14L277.77,70.86L278.91,69.25L282.32,68.44L283.46,72.01L284.6,71.52L285.74,72.3L286.88,69.21L290.29,71.9L291.43,70.55L293.71,66.36L294.84,66.88L299.4,66.8L300.54,65.13L301.67,67.04L302.81,66.77L307.37,70.25L308.5,73.64L309.64,72.48L310.78,75.76L314.2,72.07L315.33,68.01L318.75,59.46L322.17,61.33L323.3,61.6L324.44,59.41L326.72,56.81L330.13,58.38L331.27,58.72L332.41,57.02L333.55,54.64L334.69,54.9L339.24,54.33L340.38,58.16L341.52,57.6L342.66,56.06L346.07,54.16L347.21,51.4L348.35,48.21L350.63,49.16L354.04,49.43L355.18,50.28L356.32,47.58L357.46,47.22L358.59,47.95L362.01,47.45L364.29,48.53L365.42,47.43L366.56,51.06L369.98,51.97L371.12,47.42L372.25,47.61L373.39,48.55L374.53,44.39L377.95,44.78L379.08,46.89L381.36,54.7L382.5,52.49L385.92,60.82L387.05,56.97L388.19,56.44L389.33,50.86L390.47,51.28L393.88,55.33L395.02,51.91L396.16,60.17L398.44,50.63L401.85,48.2L402.99,51.35L404.13,48.87L405.27,47.68L406.41,55.3L409.82,50.12L410.96,50.06L413.24,44.17L414.38,44.24L418.93,43.88L420.07,41.23L421.21,40.66L422.34,38.98L425.76,40.87L426.9,42.58L429.17,39.14L430.31,40.79L433.73,43L434.87,41.44L436,40.77L437.14,41.15L438.28,42.31L441.7,41.16L443.97,41.21L445.11,42.07L446.25,42.22L449.67,41.64L450.8,43.43L451.94,50.78L453.08,47.66L454.22,41.58L457.63,43.39L458.77,47.03L461.05,44.04L462.19,44.21L465.6,44.87L466.74,43.56L469.02,43.73L470.16,43.14L473.57,43.13L474.71,45.29L475.85,43.39L476.99,44.46L478.13,47.01L481.54,48.36L482.68,48.62L483.82,44.92L484.96,44.51L486.09,44.99L490.65,49.06L491.79,47.55L494.06,47.66L497.48,48.72L498.62,49.07L499.75,44.52L502.03,41.65L505.45,39.71L506.58,40.67L507.72,40.34L508.86,40.78L510,39.5L513.42,39.7L514.55,36.77L515.69,35.39L517.97,36.03L521.38,35.54L522.52,37.08L523.66,33.65L524.8,33.28L525.94,31.4L529.35,32.61L531.63,33.76L532.77,31.76L533.91,31.57L537.32,29.3L538.46,30.04L539.6,32.35L541.88,28.34L545.29,29.54L546.43,29.37L548.71,28.08L549.84,26.9L553.26,29.32L554.4,28.06L556.67,26.85L557.81,29.09L561.23,28.43L562.37,30.42L563.5,29.82L564.64,26.59L565.78,26.85L569.2,26.42L570.33,25.15L572.61,21.55L573.75,20.78L578.3,21.16L579.44,19.5L580.58,19.52L581.72,23.6L585.13,25.07L586.27,24.73L587.41,25.17L588.55,20.76L589.69,25.73L593.1,25.09L594.24,23.5L595.38,19.34L597.66,20.6L601.07,19.51L602.21,20.11L603.35,19.71L604.49,18.8L605.63,18.9L610.18,21.58L611.32,20.03L612.46,21.01L613.59,20.38L617.01,30.84L618.15,40.46L619.29,43.83L620.42,60.49L621.56,68.84L624.98,50.53L626.12,57.46L627.25,39.76L629.53,57.59L632.95,83.93L634.08,68.29L635.22,86.49L636.36,120.31L637.5,100.61L640.92,138.92L642.05,125.79L643.19,148.23L644.33,151.27L645.47,164.39L648.88,175.9L650.02,151.77L651.16,144.28L652.3,126.62L653.44,137.96L656.85,126.82L657.99,133.46L659.13,144.77L660.27,133.54L661.41,136.65L664.82,117.28L665.96,120.39L667.1,110.97L668.24,104.05L672.79,108.24L673.93,99.69L675.07,107.25L676.21,110.5L677.34,97.44L681.9,113.89L683.04,107.7L684.17,108.12L685.31,106.17L688.73,100.13L689.87,100.73L691,96.52L692.14,100.94L693.28,106.99L696.7,107.64L697.83,107.03L698.97,111.9L700.11,109.93L701.25,103.43L704.67,105.27L705.8,111.3L706.94,117.45L708.08,115.09L709.22,116.29L712.63,104.44L713.77,110.29L714.91,104.46L717.19,106.98L721.74,101.1L722.88,97.34L724.02,96.47L725.16,97.09L728.57,96.66L729.71,95.38L730.85,88.2L731.99,89.16L733.13,80.05L736.54,73.86L737.68,79.56L738.82,85.1L739.96,106.84L741.09,102.56L744.51,101.86L745.65,98.25L746.79,100.6L747.92,99.9L749.06,104.18L753.62,104.57L754.75,112.93L755.89,111.49L757.03,120.83L761.58,111.85L762.72,112.06L768.42,107.55L769.55,109.86L770.69,109.44L771.83,116.12L772.97,109.5L776.38,108.07L778.66,98.62L779.8,98.9L780.94,97.92L784.35,100.76L786.63,90.53L787.77,91.69L788.91,92.33L792.32,93L794.6,93L795.74,95.92L796.88,97.01L800.29,98.56L802.57,89.68L803.71,87.94L804.84,86.04L808.26,83.91L809.4,83.02L810.54,80.3L812.81,78.14L816.23,77.81L817.37,77.83L818.5,80.94L819.64,82.01L820.78,80.61L824.2,75.8L825.33,77.48L826.47,78.7L827.61,78.26L828.75,72.94L832.17,76.01L833.3,77.73L834.44,71.26L835.58,76.27L836.72,77.16L841.27,82.47L842.41,80.16L843.55,83.25L844.69,81.05L849.24,78.33L850.38,76.37L852.66,80.07L856.07,86.77L857.21,86.71L858.35,93.07L859.49,92.73L860.63,90.39L864.04,85.72L865.18,88.8L866.32,86.61L867.46,87.56L868.59,86.94L872.01,83.36L873.15,87.21L874.29,83.47L875.42,79.04L876.56,79.38L879.98,78.03L881.12,80.6L882.25,82.98L883.39,82.33L884.53,81.91L887.95,86.78L889.08,85.58L890.22,86.35L891.36,81.78L892.5,81.04L897.05,88.76L898.19,101.73L899.33,99.22L900.47,100.34L903.88,95.48L905.02,91.47L907.3,87.62L908.44,87.33L912.99,63.42L914.13,64.37L915.27,70.21L916.41,66.52L919.82,60.76L920.96,61.65L922.1,66.83L923.24,65.81L924.38,68.04L927.79,62.69L928.93,56.5L930.07,58.96L932.34,60.31L935.76,63.44L938.04,57.83L939.17,56.79L940.31,53.41L943.73,56.17L944.87,53.52L946,54.38L947.14,54.53L948.28,52.27L951.7,56.68L952.83,52.64L953.97,55.77L955.11,54L956.25,54.77L959.67,59.08L960.8,61.46L961.94,58.41L963.08,57.94L967.63,54.19L968.77,54.86L969.91,53.95L971.05,51.91L975.6,57.4L976.74,55.6L977.88,55.4L979.02,55.16L980.16,52.11L983.57,52.86L984.71,54.08L985.85,53.95L986.99,56.06L988.13,59.75L992.68,60.38L993.82,58.89L994.96,59.9L996.09,62.78L999.51,60.88L1000.65,60.26L1001.79,71.64L1002.92,68.53L1004.06,74.83L1007.48,73.64L1008.62,71.06L1009.75,70.13L1010.89,66.23L1012.03,63.76L1015.45,61.47L1017.72,60.04L1018.86,60.34L1020,59.75" style="vector-effect: non-scaling-stroke; fill: none; stroke: rgb(25, 211, 243); stroke-opacity: 1; stroke-width: 2px; opacity: 1;"/></g><g class="points"/><g class="text"/></g><g class="trace scatter traceecb7ee" style="stroke-miterlimit: 2; opacity: 1;"><g class="fills"/><g class="errorbars"/><g class="lines"><path class="js-line" d="M0,102.31L4.55,102.75L5.69,99.41L11.38,98.96L12.52,97.97L13.66,96.69L14.8,96.66L15.94,97.08L19.35,97.04L20.49,97.26L21.63,96.29L23.91,91.29L27.32,93.55L28.46,94.29L29.6,93.98L31.88,91.76L35.29,90.61L36.43,89.46L37.57,91.83L39.84,92.24L43.26,89.25L44.4,87.37L45.54,92.84L46.67,103.06L47.81,101.43L51.23,101.17L52.37,96.96L53.5,94.76L54.64,95.6L55.78,90.23L59.2,91.87L60.33,85.48L61.47,87.24L62.61,87.85L63.75,91.89L67.17,90.39L68.3,84.23L69.44,85.17L70.58,84.48L71.72,84.52L75.13,80.28L77.41,75.66L78.55,75.22L79.69,71.94L83.1,74.25L85.38,77.68L86.52,78.18L87.66,75.25L91.07,73.73L93.35,84.11L95.63,85.6L99.04,84.81L100.18,81.9L101.32,77.8L102.46,78.18L103.59,74.11L107.01,76.1L108.15,79.56L110.42,80.55L111.56,83.48L114.98,83.32L116.12,83.16L117.25,84.92L118.39,82.04L119.53,88.39L125.22,100.7L126.36,106.7L127.5,108.2L130.92,118.68L134.33,104.32L135.47,105.12L138.88,102.26L141.16,102.58L142.3,107.01L143.44,100.92L146.85,100.17L147.99,96.72L149.13,98.46L150.27,97.2L151.41,96.22L154.82,98.16L155.96,96.42L157.1,99.97L158.24,99.24L159.38,96.48L163.93,97.36L165.07,93.38L167.34,98.1L170.76,98.07L171.9,97.75L173.04,95.85L175.31,87.57L178.73,87.15L181,87.6L182.14,88.75L183.28,88.41L186.7,89.48L188.97,85.71L190.11,92.95L191.25,89.61L195.8,88.99L196.94,89.41L198.08,88.78L199.22,87.8L202.63,89.45L204.91,90.08L206.05,88.31L207.19,87.11L210.6,89.04L211.74,88.49L212.88,90.45L215.16,93.48L218.57,87.99L223.13,85.19L226.54,85.85L228.82,86.26L229.96,84.73L231.09,84.44L234.51,85.33L235.65,81.17L236.79,81.45L237.92,80.95L239.06,79.58L242.48,79.54L243.62,82.34L244.75,83.25L245.89,81.71L247.03,80.5L250.45,79.38L253.86,80.85L255,78.97L258.42,77.07L259.55,77.55L261.83,78.42L266.38,77.99L267.52,76.07L268.66,76.16L269.8,76.69L270.94,75.58L274.35,75.26L275.49,71.98L276.63,74.05L277.77,73.73L278.91,72.28L282.32,71.65L283.46,75.2L284.6,74.51L285.74,75.25L286.88,72.46L290.29,75.05L291.43,73.49L293.71,69.28L294.84,69.93L299.4,70.24L300.54,68.43L301.67,70.36L302.81,70.21L307.37,73.56L308.5,77.22L309.64,76.14L310.78,79.46L314.2,75.53L315.33,71.45L316.47,68.94L317.61,64.61L318.75,62.99L322.17,64.91L323.3,65.14L324.44,62.65L325.58,62.07L326.72,60.56L331.27,62.83L332.41,60.98L333.55,58.33L334.69,58.62L339.24,57.36L340.38,61.59L346.07,57.55L347.21,54.67L348.35,51.34L350.63,52.49L355.18,53.47L356.32,50.64L357.46,51.3L358.59,52.93L362.01,52.2L363.15,53.16L364.29,53.91L365.42,52.4L366.56,56.18L369.98,57.35L371.12,52.56L372.25,52.47L373.39,53.17L374.53,48.89L377.95,49.41L379.08,52.3L381.36,59.77L382.5,57.96L385.92,66.27L387.05,62.74L388.19,61.69L389.33,56.17L390.47,57.07L393.88,60.8L395.02,57.58L396.16,65.82L398.44,56.81L401.85,53.95L402.99,56.8L404.13,54.42L405.27,53.13L406.41,61L409.82,55.59L410.96,55.22L413.24,50.04L414.38,50.14L418.93,49.11L420.07,46.27L421.21,45.89L422.34,43.96L426.9,46.79L428.04,45.24L429.17,43.57L430.31,45.85L433.73,47.69L434.87,46.5L436,46.13L437.14,46.57L438.28,47.53L441.7,46.45L443.97,46.47L445.11,47.06L449.67,46.51L450.8,47.68L451.94,55.31L453.08,52.02L454.22,45.92L457.63,47.94L458.77,51.61L459.91,49.98L462.19,48.57L465.6,49.2L467.88,48.84L469.02,48.94L470.16,48.29L473.57,48.46L474.71,50.89L475.85,48.65L476.99,49.63L478.13,52.11L482.68,54L483.82,50.23L484.96,49.41L486.09,49.63L490.65,53.69L491.79,52.32L494.06,52.93L497.48,53.79L498.62,54.3L499.75,50.04L500.89,49.35L502.03,47.59L505.45,45.92L506.58,46.8L508.86,46.79L510,45.66L513.42,46.07L514.55,43.39L515.69,41.81L517.97,42.42L521.38,41.86L522.52,43.08L523.66,39.86L524.8,39.46L525.94,37.98L529.35,38.89L531.63,40.3L532.77,38.5L533.91,38.47L537.32,35.89L538.46,36.56L539.6,38.95L540.74,37.4L541.88,34.58L546.43,35.67L548.71,34.27L549.84,33.22L553.26,35.32L554.4,34.07L556.67,33.12L557.81,35.11L561.23,34.38L562.37,36.22L563.5,36.52L564.64,33.46L565.78,33.38L569.2,32.55L570.33,31.49L571.47,28.73L572.61,28.07L573.75,26.94L578.3,27.03L579.44,25.3L580.58,25.68L581.72,29.82L585.13,30.58L587.41,31.41L588.55,26.98L589.69,31.94L593.1,31.78L594.24,30.52L595.38,26.45L597.66,27.7L601.07,26.96L603.35,27.59L604.49,27.12L605.63,27.3L610.18,30.46L611.32,29.16L612.46,30.01L613.59,28.84L617.01,38.7L619.29,50.9L620.42,67.02L621.56,74.87L624.98,56.77L626.12,62.97L627.25,45.33L629.53,62.25L632.95,86.85L634.08,72.27L635.22,90.09L636.36,122.3L637.5,104.86L640.92,139.41L642.05,125.04L643.19,144.68L644.33,149.67L645.47,163.34L648.88,175.09L650.02,153.24L651.16,147.46L652.3,130.03L653.44,140.32L656.85,128.72L657.99,134.7L659.13,145.01L660.27,133.62L661.41,136.34L664.82,118.33L665.96,121.66L667.1,112.09L668.24,106.01L672.79,109.87L673.93,99.9L675.07,108.33L676.21,111.89L677.34,99.3L681.9,114.71L683.04,108.41L684.17,108.7L685.31,106.5L688.73,100.63L689.87,101.45L691,97.6L692.14,102.56L693.28,108.72L696.7,108.91L697.83,107.81L698.97,112.53L700.11,111.43L701.25,104.69L704.67,105.85L705.8,111.55L706.94,117.54L708.08,116.02L709.22,117.18L712.63,105.62L713.77,111.42L714.91,106.04L716.05,108.15L717.19,108.52L721.74,102.96L722.88,100.14L724.02,98.9L725.16,98.83L728.57,99.3L729.71,97.98L730.85,91.98L731.99,93.25L733.13,84.55L736.54,78.77L738.82,89.32L739.96,110.51L741.09,106.61L744.51,106.29L745.65,102.8L746.79,104.98L747.92,104.17L749.06,107.87L753.62,108.84L754.75,117.05L755.89,115.87L757.03,124.56L761.58,115.95L762.72,116.32L768.42,111.95L769.55,113.87L770.69,113.72L771.83,120.88L772.97,114.44L776.38,112.8L778.66,103.28L779.8,103.2L780.94,101.64L784.35,104.57L786.63,94.38L787.77,95.52L788.91,96.04L792.32,96.62L793.46,95.95L794.6,96.3L795.74,99.23L796.88,99.7L800.29,101.6L801.43,96.65L803.71,91.86L804.84,90.13L809.4,87.56L810.54,84.66L812.81,83.11L816.23,82.39L817.37,82.13L818.5,85.37L819.64,86.38L820.78,84.69L824.2,80.13L825.33,82.33L827.61,84.03L828.75,78.93L832.17,81.43L833.3,83.96L834.44,78.06L835.58,83.12L836.72,84.12L841.27,89.23L842.41,87.36L843.55,90.6L844.69,88.38L848.1,85.98L849.24,85.7L850.38,83.53L852.66,86.73L856.07,93.02L857.21,93.05L858.35,99.52L859.49,99.11L860.63,97.32L864.04,92.9L865.18,96.18L866.32,94.14L867.46,95.69L868.59,95.17L872.01,91.83L873.15,95.4L874.29,92.18L875.42,87.42L876.56,88.14L879.98,86.63L881.12,89.86L882.25,91.93L883.39,91.41L884.53,90.98L887.95,95.63L889.08,94.29L890.22,94.95L891.36,90.68L892.5,89.84L897.05,97.15L898.19,109.99L899.33,107.3L900.47,108.45L903.88,103.28L905.02,100.08L908.44,96.6L911.85,80.3L912.99,72.05L914.13,72.96L915.27,79.07L916.41,75.1L919.82,70.07L920.96,71.47L922.1,76.51L923.24,75.41L924.38,77.52L927.79,72.78L928.93,67.16L930.07,69.35L932.34,70.63L935.76,73.54L938.04,67.41L939.17,66.08L940.31,62.21L943.73,65.13L944.87,61.94L946,62.4L947.14,62.19L948.28,60.5L951.7,65.51L952.83,61.59L953.97,65.17L955.11,62.94L956.25,63.6L959.67,68.58L960.8,71.17L961.94,68.13L963.08,67.65L967.63,64.04L968.77,64.8L969.91,63.64L971.05,61.93L975.6,66.67L976.74,64.91L977.88,65.43L979.02,65.37L980.16,62.12L983.57,62.32L984.71,63.33L985.85,62.94L986.99,64.7L988.13,68.45L992.68,69.61L993.82,68.29L994.96,69.06L996.09,71.68L999.51,69.2L1000.65,67.96L1001.79,78.54L1002.92,76.48L1004.06,82.88L1007.48,81.9L1008.62,80.15L1009.75,79.37L1010.89,75.02L1012.03,72.02L1015.45,69.84L1017.72,68.45L1018.86,69.12L1020,68.33" style="vector-effect: non-scaling-stroke; fill: none; stroke: rgb(255, 102, 146); stroke-opacity: 1; stroke-width: 2px; opacity: 1;"/></g><g class="points"/><g class="text"/></g><g class="trace scatter trace293d86" style="stroke-miterlimit: 2; opacity: 1;"><g class="fills"/><g class="errorbars"/><g class="lines"><path class="js-line" d="M0,102.31L4.55,102.79L5.69,99.41L11.38,99L12.52,98.06L13.66,96.77L14.8,96.71L15.94,97.16L19.35,97.12L20.49,97.35L21.63,96.36L23.91,91.36L27.32,93.61L28.46,94.35L29.6,94.02L31.88,91.77L35.29,90.65L36.43,89.46L37.57,91.86L39.84,92.25L43.26,89.23L44.4,87.34L45.54,92.81L46.67,103.01L47.81,101.41L51.23,101.08L52.37,96.85L53.5,94.57L54.64,95.38L55.78,90.02L59.2,91.67L60.33,85.26L61.47,87.07L62.61,87.73L63.75,91.69L67.17,90.19L68.3,83.99L69.44,84.98L70.58,84.31L71.72,84.34L75.13,80.13L77.41,75.52L78.55,75.09L79.69,71.78L83.1,74.13L85.38,77.56L86.52,78.13L87.66,75.17L91.07,73.65L93.35,84.04L95.63,85.53L99.04,84.75L100.18,81.87L101.32,77.77L102.46,78.14L103.59,74.16L107.01,76.19L108.15,79.61L110.42,80.58L111.56,83.45L114.98,83.3L116.12,83.17L117.25,84.95L118.39,82.06L119.53,88.48L125.22,100.68L126.36,106.67L127.5,108.19L130.92,118.68L134.33,104.38L135.47,105.19L138.88,102.29L141.16,102.64L142.3,107.05L143.44,100.99L146.85,100.26L147.99,96.79L149.13,98.52L150.27,97.2L151.41,96.21L154.82,98.16L155.96,96.43L157.1,99.89L158.24,99.14L159.38,96.42L163.93,97.29L165.07,93.3L167.34,98.01L170.76,97.97L171.9,97.65L173.04,95.8L175.31,87.55L178.73,87.15L181,87.59L182.14,88.7L183.28,88.39L186.7,89.47L188.97,85.69L190.11,92.98L191.25,89.64L195.8,89.03L196.94,89.43L198.08,88.8L199.22,87.83L202.63,89.49L204.91,90.09L206.05,88.31L207.19,87.08L210.6,89.04L211.74,88.49L212.88,90.45L215.16,93.45L218.57,87.99L223.13,85.25L226.54,85.94L228.82,86.43L229.96,84.92L231.09,84.56L234.51,85.44L235.65,81.25L236.79,81.5L237.92,81L239.06,79.65L242.48,79.68L243.62,82.49L244.75,83.42L245.89,81.87L247.03,80.68L250.45,79.62L253.86,81.07L255,79.05L258.42,77.18L259.55,77.66L261.83,78.5L266.38,78.1L267.52,76.14L268.66,76.21L269.8,76.76L270.94,75.6L274.35,75.25L275.49,72.02L276.63,74.04L277.77,73.73L278.91,72.27L282.32,71.61L283.46,75.14L284.6,74.43L285.74,75.19L286.88,72.4L290.29,74.94L291.43,73.38L293.71,69.24L294.84,69.91L299.4,70.23L300.54,68.37L301.67,70.29L302.81,70.16L307.37,73.51L308.5,77.21L309.64,76.1L310.78,79.37L314.2,75.48L315.33,71.42L316.47,68.96L317.61,64.63L318.75,62.98L322.17,64.93L323.3,65.18L324.44,62.64L325.58,62.05L326.72,60.54L331.27,62.85L332.41,60.96L333.55,58.35L334.69,58.63L339.24,57.25L340.38,61.55L346.07,57.51L347.21,54.63L348.35,51.3L350.63,52.45L355.18,53.43L356.32,50.62L357.46,51.28L358.59,52.95L362.01,52.21L363.15,53.16L364.29,53.91L365.42,52.42L366.56,56.22L369.98,57.42L371.12,52.64L372.25,52.55L373.39,53.2L374.53,48.9L377.95,49.4L379.08,52.26L381.36,59.74L382.5,57.85L385.92,66.12L387.05,62.58L388.19,61.55L389.33,56.08L390.47,56.91L393.88,60.65L395.02,57.43L396.16,65.65L398.44,56.49L401.85,53.71L402.99,56.59L404.13,54.24L405.27,52.94L406.41,60.83L409.82,55.38L410.96,54.98L413.24,49.85L414.38,49.96L418.93,48.93L420.07,46.09L421.21,45.73L422.34,43.82L426.9,46.82L428.04,45.27L429.17,43.58L430.31,45.9L433.73,47.75L434.87,46.53L436,46.19L437.14,46.64L438.28,47.62L441.7,46.54L443.97,46.57L445.11,47.15L449.67,46.64L450.8,47.77L451.94,55.31L453.08,52.1L454.22,45.97L457.63,48L458.77,51.65L459.91,50.07L462.19,48.67L465.6,49.28L467.88,48.93L469.02,49.07L470.16,48.48L473.57,48.72L474.71,51.31L475.85,49.03L476.99,50.04L478.13,52.54L482.68,54.47L483.82,50.67L484.96,49.84L486.09,50.06L490.65,54.14L491.79,52.77L494.06,53.28L497.48,54.17L498.62,54.66L499.75,50.3L500.89,49.54L502.03,47.8L505.45,46.1L506.58,46.89L508.86,46.85L510,45.68L513.42,46.09L514.55,43.38L515.69,41.81L517.97,42.4L521.38,41.85L522.52,43.06L523.66,39.85L524.8,39.45L525.94,37.95L529.35,38.89L531.63,40.28L532.77,38.56L533.91,38.51L537.32,35.94L538.46,36.61L539.6,39.04L540.74,37.5L541.88,34.68L546.43,35.79L548.71,34.41L549.84,33.34L553.26,35.43L554.4,34.22L556.67,33.22L557.81,35.2L561.23,34.47L562.37,36.24L563.5,36.54L564.64,33.46L565.78,33.39L569.2,32.59L570.33,31.51L571.47,28.74L572.61,28.09L573.75,26.97L578.3,27.05L579.44,25.3L580.58,25.8L581.72,29.92L585.13,30.69L587.41,31.53L588.55,27.04L589.69,31.93L593.1,31.76L594.24,30.54L595.38,26.51L597.66,27.8L601.07,27.09L603.35,27.74L604.49,27.2L605.63,27.39L610.18,30.56L611.32,29.25L612.46,30.17L613.59,28.94L617.01,38.73L619.29,50.99L620.42,67.05L621.56,74.89L624.98,56.81L626.12,63.02L627.25,45.39L629.53,62.2L632.95,86.69L634.08,72.16L635.22,90.02L636.36,122.32L637.5,105.09L640.92,139.54L642.05,125.21L643.19,144.89L644.33,149.74L645.47,163.48L648.88,175.23L650.02,153.43L651.16,147.61L652.3,130.27L653.44,140.49L656.85,128.92L657.99,134.88L659.13,145.16L660.27,133.83L661.41,136.6L664.82,118.59L665.96,121.83L667.1,112.24L668.24,106.18L672.79,110.07L673.93,100.1L675.07,108.45L676.21,112.01L677.34,99.51L681.9,114.88L683.04,108.62L684.17,108.93L685.31,106.82L688.73,100.94L689.87,101.74L691,97.93L692.14,102.97L693.28,109.16L696.7,109.4L697.83,108.36L698.97,113.08L700.11,111.9L701.25,105.2L704.67,106.39L705.8,112.11L706.94,118.09L708.08,116.66L709.22,117.77L712.63,106.14L713.77,111.92L714.91,106.53L716.05,108.59L717.19,108.94L721.74,103.32L722.88,100.49L724.02,99.28L725.16,99.26L728.57,99.62L729.71,98.32L730.85,92.29L731.99,93.48L733.13,84.8L736.54,79L738.82,89.58L739.96,110.79L741.09,106.88L744.51,106.53L745.65,103.06L746.79,105.23L747.92,104.39L749.06,108.11L753.62,109.07L754.75,117.31L755.89,116.15L757.03,124.9L761.58,116.27L762.72,116.63L768.42,112.24L769.55,114.15L770.69,113.98L771.83,121.17L772.97,114.73L776.38,113.09L778.66,103.49L779.8,103.39L780.94,101.87L784.35,104.81L786.63,94.7L787.77,95.91L788.91,96.4L792.32,97.01L793.46,96.38L794.6,96.78L795.74,99.7L796.88,100.19L800.29,102.09L801.43,97.15L803.71,92.22L804.84,90.47L809.4,87.91L810.54,85.06L812.81,83.39L816.23,82.72L817.37,82.43L818.5,85.67L819.64,86.68L820.78,85L824.2,80.42L825.33,82.6L827.61,84.26L828.75,79.15L832.17,81.65L833.3,84.17L834.44,78.21L835.58,83.23L836.72,84.24L841.27,89.28L842.41,87.47L843.55,90.68L844.69,88.49L848.1,86.13L849.24,85.88L850.38,83.65L852.66,86.85L856.07,93.16L857.21,93.19L858.35,99.63L859.49,99.15L860.63,97.39L864.04,92.98L865.18,96.27L866.32,94.26L867.46,95.85L868.59,95.31L872.01,91.97L873.15,95.55L874.29,92.35L875.42,87.6L876.56,88.28L879.98,86.78L881.12,90.02L882.25,92.11L883.39,91.62L884.53,91.2L887.95,95.82L889.08,94.42L890.22,94.99L891.36,90.73L892.5,89.91L897.05,97.26L898.19,110.02L899.33,107.33L900.47,108.51L903.88,103.38L905.02,100.16L908.44,96.67L911.85,80.29L912.99,72.01L914.13,72.98L915.27,79.1L916.41,75.18L919.82,70.14L920.96,71.48L922.1,76.49L923.24,75.42L924.38,77.54L927.79,72.82L928.93,67.22L930.07,69.41L932.34,70.74L935.76,73.68L938.04,67.52L939.17,66.16L940.31,62.26L943.73,65.22L944.87,62.02L946,62.41L947.14,62.18L948.28,60.33L951.7,65.35L952.83,61.37L953.97,64.97L955.11,62.71L956.25,63.35L959.67,68.35L960.8,70.94L961.94,67.88L963.08,67.39L967.63,63.7L968.77,64.46L969.91,63.24L971.05,61.51L975.6,66.31L976.74,64.57L977.88,65.08L979.02,65.09L980.16,61.87L983.57,62.15L984.71,63.21L985.85,62.77L986.99,64.52L988.13,68.28L992.68,69.45L993.82,68.11L994.96,68.83L996.09,71.51L999.51,69.05L1000.65,67.77L1001.79,78.4L1002.92,76.35L1004.06,82.76L1007.48,81.74L1008.62,79.95L1009.75,79.21L1010.89,74.84L1012.03,71.83L1015.45,69.59L1017.72,68.1L1018.86,68.76L1020,68.01" style="vector-effect: non-scaling-stroke; fill: none; stroke: rgb(182, 232, 128); stroke-opacity: 1; stroke-width: 2px; opacity: 1;"/></g><g class="points"/><g class="text"/></g><g class="trace scatter trace34710a" style="stroke-miterlimit: 2; opacity: 1;"><g class="fills"/><g class="errorbars"/><g class="lines"><path class="js-line" d="M0,102.31L4.55,102.99L5.69,99.42L12.52,98.01L13.66,96.61L19.35,97.08L20.49,97.35L21.63,96.27L22.77,92.91L23.91,91.18L27.32,93.33L28.46,93.93L29.6,93.43L31.88,91.11L35.29,90.09L36.43,89.04L37.57,91.68L39.84,91.96L43.26,88.8L44.4,86.81L45.54,92.25L46.67,102.4L47.81,100.94L51.23,100.36L52.37,95.95L53.5,93.4L54.64,94.06L55.78,88.77L59.2,90.53L60.33,83.8L61.47,86.03L62.61,86.71L63.75,90.49L67.17,88.89L68.3,82.78L69.44,83.73L70.58,83.19L71.72,82.99L75.13,78.86L77.41,74.26L78.55,74.01L79.69,70.53L83.1,72.65L85.38,76.06L86.52,77.05L87.66,74.04L91.07,72.41L93.35,82.89L95.63,84.02L99.04,83.63L100.18,81.05L101.32,76.89L102.46,77.13L103.59,73.46L107.01,75.58L108.15,78.51L110.42,79.38L111.56,82.12L114.98,81.94L116.12,81.8L117.25,83.62L118.39,80.51L119.53,87.47L125.22,99.49L126.36,105.47L127.5,106.71L130.92,117.4L134.33,103.36L135.47,104.17L138.88,101.15L141.16,101.62L142.3,105.83L143.44,100.05L146.85,99.43L147.99,96.02L149.13,97.78L150.27,96.49L151.41,95.53L154.82,97.47L155.96,95.59L157.1,98.92L158.24,97.99L159.38,95.37L163.93,96.12L165.07,91.9L167.34,96.97L170.76,96.83L173.04,94.93L174.17,91.56L175.31,86.94L178.73,86.59L181,87.18L182.14,88.19L183.28,87.87L186.7,89.18L188.97,85.49L190.11,92.72L191.25,89.29L195.8,88.65L196.94,89.12L198.08,88.45L199.22,87.59L202.63,89.39L204.91,90.2L206.05,88.47L207.19,87.08L210.6,89.15L211.74,88.47L212.88,90.35L215.16,93.48L218.57,87.99L223.13,85.49L226.54,86.14L228.82,86.71L229.96,85.41L231.09,85.04L234.51,85.95L235.65,81.62L236.79,81.95L239.06,79.8L242.48,80.08L244.75,83.87L245.89,82.35L247.03,81.15L250.45,80.09L252.72,80.89L253.86,81.54L255,79.01L258.42,77.05L261.83,78.66L266.38,78.21L267.52,75.86L268.66,75.89L269.8,75.99L270.94,74.38L274.35,73.92L275.49,70.72L276.63,72.78L277.77,72.59L278.91,71.09L282.32,70.21L283.46,73.72L284.6,72.79L285.74,73.42L286.88,70.56L290.29,72.93L291.43,71.49L293.71,67.56L294.84,68.37L299.4,68.8L300.54,66.6L301.67,68.51L302.81,68.57L307.37,71.92L308.5,75.8L309.64,74.44L310.78,77.26L314.2,73.64L315.33,69.58L316.47,67.24L317.61,62.86L318.75,61.15L322.17,63.41L323.3,63.96L324.44,61.08L325.58,60.42L326.72,58.82L331.27,61.54L332.41,59.5L333.55,56.87L334.69,57.17L338.1,56.54L339.24,55.44L340.38,60.11L341.52,59.09L342.66,57.75L346.07,55.67L348.35,49.35L350.63,50.58L355.18,51.36L356.32,48.67L357.46,49.42L358.59,51.55L362.01,50.82L363.15,51.75L364.29,52.61L365.42,51.14L366.56,54.98L369.98,56.23L371.12,51.41L372.25,51.45L373.39,51.6L374.53,47.16L377.95,47.6L379.08,50.47L381.36,57.83L382.5,55.68L385.92,63.84L387.05,60.05L388.19,59.3L389.33,53.9L390.47,54.49L393.88,58.4L395.02,55.28L396.16,63.43L398.44,53.85L401.85,51.25L402.99,54.13L404.13,51.9L405.27,50.74L406.41,58.7L409.82,53.07L410.96,52.64L413.24,47.52L414.38,47.71L418.93,46.43L420.07,43.75L421.21,43.68L422.34,41.94L425.76,43.98L426.9,45.63L429.17,42.39L430.31,44.64L433.73,46.6L434.87,45.36L436,44.91L437.14,45.3L438.28,46.24L441.7,45.21L443.97,45.47L445.11,46.14L449.67,45.69L450.8,46.65L451.94,53.65L453.08,50.55L454.22,44.31L457.63,46.32L458.77,49.9L459.91,48.49L461.05,47.34L462.19,47.31L466.74,47.4L467.88,47.34L473.57,47.28L474.71,49.95L475.85,47.56L476.99,48.65L478.13,51.5L481.54,53.06L482.68,53.37L483.82,49.2L484.96,48.34L486.09,48.79L490.65,53.31L491.79,51.94L494.06,52.03L497.48,53.28L498.62,53.61L499.75,48.68L500.89,47.74L502.03,45.79L505.45,43.86L506.58,44.44L508.86,44.15L510,42.82L513.42,43.33L514.55,40.37L515.69,38.76L517.97,39.32L521.38,38.49L522.52,39.66L523.66,36.29L524.8,35.77L525.94,34.48L529.35,35.56L531.63,36.79L532.77,35.15L533.91,35.1L537.32,32.26L538.46,33.07L539.6,35.54L540.74,34.06L541.88,31.26L546.43,32.47L548.71,31.08L549.84,29.98L553.26,32.08L554.4,30.94L556.67,29.8L557.81,31.75L561.23,30.92L563.5,32.8L564.64,29.73L569.2,29.08L570.33,27.84L571.47,24.91L572.61,24.34L573.75,23.28L578.3,23.3L579.44,21.72L580.58,22.35L581.72,27.35L585.13,27.8L587.41,28.39L588.55,23.66L589.69,28.2L593.1,27.66L594.24,26.27L595.38,22.86L597.66,24.34L601.07,23.76L603.35,24.48L604.49,23.94L605.63,24.24L610.18,27.28L611.32,26.03L612.46,27.06L613.59,25.49L617.01,35.22L619.29,47.36L620.42,63.33L621.56,71.02L624.98,52.98L626.12,58.99L627.25,41.26L628.39,54.04L629.53,57.86L632.95,82.11L634.08,67.3L635.22,85.17L636.36,117.21L637.5,100.98L640.92,134.65L642.05,120.37L643.19,139.7L644.33,144.11L645.47,158.53L648.88,171.51L650.02,149.45L651.16,143.61L652.3,126.43L653.44,136.75L656.85,124.49L657.99,130.31L659.13,140.05L660.27,128.62L661.41,131.55L664.82,113.48L665.96,117L668.24,100.99L672.79,105L673.93,94.24L675.07,102.12L676.21,105.09L677.34,92.99L681.9,108.39L683.04,101.99L684.17,102.32L685.31,100.23L688.73,94.11L689.87,95.43L691,92.3L692.14,97.27L693.28,103.46L696.7,103.95L697.83,102.91L698.97,107.44L700.11,106.54L701.25,100.09L704.67,100.93L705.8,106.72L706.94,112.35L708.08,111.32L709.22,112.13L712.63,100.57L713.77,106.26L714.91,101.04L716.05,103.08L717.19,103.51L724.02,93.94L725.16,94.16L728.57,94.44L729.71,93.49L730.85,87.59L731.99,89.25L733.13,80.87L736.54,75.34L738.82,85.71L739.96,106.79L741.09,103.14L744.51,102.85L745.65,99.42L746.79,101.47L747.92,100.54L749.06,104.33L753.62,105.02L754.75,113.29L755.89,112.34L757.03,121.31L761.58,112.65L762.72,112.54L768.42,108.09L769.55,109.72L770.69,109.48L771.83,116.66L772.97,110.32L776.38,108.57L778.66,98.69L779.8,98.58L780.94,97.11L784.35,100.02L786.63,89.82L787.77,91.22L792.32,91.94L793.46,91.22L794.6,91.91L795.74,94.73L800.29,97.1L801.43,92.15L803.71,86.6L804.84,84.92L809.4,82.74L810.54,79.58L812.81,77.45L816.23,76.46L817.37,76.01L818.5,79.28L819.64,80.33L820.78,78.62L824.2,74.23L825.33,76.39L827.61,77.89L828.75,72.44L832.17,75.19L833.3,77.71L834.44,71.54L835.58,76.63L841.27,82.57L842.41,80.66L843.55,83.74L844.69,81.59L849.24,79.3L850.38,76.82L852.66,79.9L856.07,86.29L857.21,86.34L858.35,92.44L859.49,91.76L860.63,90.2L864.04,86.07L865.18,89.33L866.32,87.47L867.46,89.27L868.59,88.56L872.01,85.36L873.15,88.94L874.29,85.8L875.42,81.25L876.56,81.76L879.98,80.26L881.12,83.15L882.25,85.31L883.39,84.87L884.53,84.38L887.95,89.1L889.08,87.76L890.22,88.2L892.5,82.49L895.92,87.12L897.05,89.83L898.19,103.27L899.33,100.5L900.47,101.59L903.88,96.63L905.02,93.31L908.44,89.34L911.85,73.48L912.99,65.18L914.13,66.04L915.27,72.27L916.41,68.67L919.82,63.8L920.96,64.86L922.1,69.62L923.24,68.59L924.38,70.72L927.79,66.07L928.93,60.65L930.07,62.96L935.76,67.22L936.9,64L940.31,56.3L943.73,59.29L944.87,55.86L946,56.06L947.14,55.96L948.28,53.04L951.7,58.39L952.83,54.35L953.97,58.06L955.11,55.54L956.25,55.98L959.67,60.85L960.8,63.38L961.94,60.23L963.08,59.73L967.63,55.68L968.77,56.53L969.91,55.04L971.05,53.22L975.6,58.16L976.74,56.5L977.88,57.24L979.02,57.28L980.16,53.87L983.57,54.1L984.71,55.67L985.85,55.55L986.99,57.59L988.13,61.42L992.68,62.94L993.82,61.7L994.96,62.71L996.09,65.08L999.51,62.48L1000.65,60.43L1001.79,71.67L1002.92,69.38L1004.06,75.81L1007.48,74.67L1008.62,72.74L1009.75,72.16L1010.89,68.17L1012.03,65.05L1015.45,62.78L1017.72,60.81L1018.86,61.48L1020,60.89" style="vector-effect: non-scaling-stroke; fill: none; stroke: rgb(255, 151, 255); stroke-opacity: 1; stroke-width: 2px; opacity: 1;"/></g><g class="points"/><g class="text"/></g><g class="trace scatter tracec6369f" style="stroke-miterlimit: 2; opacity: 1;"><g class="fills"/><g class="errorbars"/><g class="lines"><path class="js-line" d="M0,102.31L6.83,101.9L7.97,102.95L11.38,103.75L12.52,102.23L13.66,101.86L14.8,99.9L15.94,99.79L19.35,101.02L23.91,91.95L27.32,94.36L29.6,96.72L30.74,95.99L31.88,95.74L35.29,93.18L37.57,90.82L38.71,93.49L39.84,95.89L43.26,95.36L44.4,96.11L45.54,107.18L46.67,114.45L47.81,110.63L51.23,111.82L52.37,104.53L53.5,105.75L54.64,110.1L55.78,109.24L59.2,110.93L60.33,112.61L61.47,120.7L62.61,115.36L63.75,119.3L67.17,122.57L68.3,116.82L70.58,110.09L71.72,111.55L75.13,109.01L76.27,106.7L77.41,99.44L78.55,99.3L85.38,114.08L86.52,111.3L87.66,109.65L91.07,114.92L92.21,122.27L93.35,122.28L95.63,124.66L99.04,119.94L100.18,118.5L101.32,110.28L102.46,110.64L103.59,107.99L107.01,104.15L108.15,114.79L110.42,115.85L111.56,123.29L114.98,122.83L116.12,123.54L118.39,120.51L119.53,127.13L122.95,133.88L124.08,132.78L127.5,149.16L130.92,157.85L134.33,139.93L135.47,140.95L138.88,137.42L141.16,137.17L142.3,145.95L143.44,136.01L146.85,134.7L147.99,131.29L150.27,128.44L151.41,128.52L154.82,129.67L155.96,127.59L158.24,123.54L159.38,119.06L163.93,123.08L165.07,120.8L166.21,121.1L167.34,118.65L170.76,121.43L171.9,120.75L173.04,114.96L174.17,115.16L178.73,111.97L179.87,109.68L181,109.96L182.14,112.9L183.28,113.74L186.7,114.45L187.83,109.49L188.97,107.92L190.11,109.31L191.25,103.4L195.8,103.29L196.94,102.45L198.08,103.83L199.22,101.42L203.77,101.07L204.91,102.04L206.05,102.96L207.19,101.49L212.88,106.19L214.02,108.86L215.16,109.16L218.57,106.49L219.71,107.77L220.85,105.8L221.99,105.7L223.13,103.86L227.68,103.34L228.82,105.23L229.96,102.34L231.09,108.47L234.51,108.28L235.65,106.4L236.79,106.83L237.92,105.6L239.06,102.79L242.48,98.4L243.62,99.46L244.75,98.94L245.89,96.72L247.03,96.19L250.45,97.3L251.58,99.84L253.86,99.94L255,96.36L258.42,96.72L259.55,95.82L260.69,95.86L261.83,94.4L266.38,95.04L267.52,93.11L268.66,93.9L269.8,95.69L270.94,94.61L274.35,94.46L275.49,93.95L276.63,96.12L277.77,97.75L278.91,95.12L282.32,96.01L283.46,102.31L284.6,102.28L285.74,104.13L286.88,102.61L290.29,110.83L293.71,103.67L294.84,104.99L298.26,106.1L299.4,103.48L300.54,104.82L301.67,108.63L302.81,107.36L307.37,110.53L308.5,113.47L309.64,112.89L310.78,117.62L314.2,117.55L316.47,107.97L317.61,105.56L318.75,102.06L322.17,101.01L324.44,101.78L325.58,100.42L326.72,100.65L330.13,100.35L331.27,95.65L332.41,95.14L333.55,91.82L334.69,92.27L338.1,92.16L339.24,94.55L341.52,94.83L342.66,93.86L347.21,91.37L348.35,88.99L355.18,91.42L356.32,90.39L358.59,84.11L362.01,83.75L363.15,84.07L364.29,85.61L365.42,85.57L366.56,86.48L369.98,86.25L371.12,83.89L373.39,86.66L374.53,85.97L379.08,85.9L380.22,90.34L382.5,95.39L385.92,105.6L387.05,101.45L388.19,101.75L389.33,96.81L390.47,98.02L393.88,103.22L395.02,98.12L396.16,108.77L397.3,107.44L398.44,103.36L401.85,100.04L402.99,102.34L404.13,99.15L405.27,98.49L406.41,106.78L409.82,103.19L410.96,104.8L413.24,97.02L414.38,96.48L418.93,100.27L420.07,97.11L421.21,92.15L422.34,91.23L425.76,90.72L426.9,89.74L428.04,86.71L429.17,86.1L430.31,85.61L433.73,87.51L436,86.58L437.14,87.27L438.28,89.4L441.7,89.2L442.83,91.09L443.97,88.92L446.25,90.93L449.67,89.64L451.94,100.8L453.08,99.17L454.22,94.21L457.63,95.48L458.77,99.66L459.91,97.24L461.05,95.23L462.19,90.97L465.6,91.36L466.74,88.2L469.02,88.19L470.16,91.59L473.57,90.83L474.71,91.35L475.85,90.74L476.99,91.12L478.13,89.09L481.54,87.33L482.68,87.58L483.82,86.05L484.96,87.92L486.09,83.91L491.79,81.98L492.92,79.55L498.62,79.33L499.75,78.1L500.89,78.12L502.03,75.16L505.45,74.74L506.58,76.1L508.86,78.33L510,76.88L515.69,73.04L517.97,74.54L521.38,78.11L522.52,81.84L523.66,79.88L524.8,79.51L525.94,75.02L529.35,76.43L531.63,76.4L532.77,73.47L533.91,73.42L537.32,72.08L539.6,72.04L540.74,70.21L541.88,69.17L545.29,67.88L546.43,68.36L548.71,66.95L549.84,66.63L553.26,69.07L554.4,68.06L556.67,63.66L557.81,66.77L561.23,65.86L562.37,67.45L563.5,65.31L564.64,62.49L565.78,64.26L570.33,62.72L571.47,61.51L572.61,57.95L573.75,57.28L580.58,59.78L581.72,62.05L585.13,68.09L586.27,65.6L587.41,65.45L588.55,63.78L589.69,71.81L593.1,69.9L595.38,58.04L596.52,56.86L597.66,60.55L601.07,58.23L602.21,58.23L603.35,54.57L604.49,56.28L605.63,56.61L610.18,58.82L611.32,57.28L613.59,62.01L617.01,75.74L618.15,87.45L619.29,89.1L620.42,104.95L621.56,109.71L624.98,92.48L626.12,102.94L627.25,87.32L628.39,100.23L629.53,103.64L632.95,130.45L634.08,114.91L635.22,134.41L636.36,165.73L637.5,139.31L640.92,179.2L642.05,165.24L643.19,183.05L644.33,180.55L645.47,192.7L648.88,200.45L650.02,172.32L651.16,165.73L652.3,147.74L653.44,159.92L656.85,150.73L657.99,156.19L659.13,169.15L660.27,162.89L661.41,167.7L664.82,146.04L665.96,146.38L667.1,136L668.24,132.2L672.79,136.57L673.93,129.13L675.07,135.06L676.21,134.62L677.34,125.24L680.76,133.12L681.9,141.52L683.04,135.44L684.17,134.92L685.31,131.46L688.73,126.68L689.87,127.11L691,120.03L692.14,123.86L693.28,132.14L696.7,131.8L697.83,130.02L698.97,132.93L700.11,130.12L701.25,124.06L704.67,125.51L706.94,138.48L708.08,133.45L709.22,132.65L712.63,120.51L713.77,125.71L714.91,120.8L716.05,122.15L717.19,122.27L721.74,115.22L722.88,107.86L724.02,109.82L725.16,110.06L728.57,108.83L729.71,105.27L730.85,98.25L731.99,98.09L733.13,87.06L736.54,80.91L738.82,88.67L739.96,113.45L741.09,107.09L744.51,105L745.65,97.98L746.79,100.25L747.92,100.78L749.06,103.55L752.48,101.51L753.62,99.77L754.75,109.22L755.89,105.23L757.03,114.95L760.45,107.22L761.58,104.33L762.72,105.37L763.86,104.14L768.42,98.02L769.55,103.31L770.69,100.95L771.83,105.76L772.97,100.84L776.38,100.7L777.52,93.29L778.66,90.26L779.8,92.06L780.94,92.9L784.35,92.78L786.63,88.46L787.77,93.16L788.91,95.59L792.32,94.06L793.46,96.8L794.6,94.66L795.74,97.67L796.88,96.14L800.29,93L801.43,90.82L803.71,83.38L804.84,82.76L808.26,78L809.4,79.39L810.54,75.53L811.67,76.6L812.81,76.14L816.23,77.29L818.5,79.31L819.64,78.69L820.78,76.15L824.2,71.12L825.33,71.92L826.47,70.8L828.75,66.52L832.17,69.5L833.3,66.63L834.44,60.57L835.58,71.33L836.72,73.45L841.27,81.87L842.41,76.02L843.55,81.42L844.69,79.67L848.1,75.31L849.24,75.28L850.38,74.79L851.52,76.53L852.66,79.78L856.07,86.57L857.21,84.7L858.35,91.69L859.49,90.99L860.63,86.22L864.04,80.76L865.18,82.51L866.32,78.13L867.46,77.66L868.59,79.44L872.01,73.24L873.15,78.25L874.29,71.18L876.56,67.41L879.98,64.07L882.25,68.38L883.39,68.64L884.53,67.15L887.95,72.62L889.08,71.11L890.22,72.42L891.36,70.38L892.5,70.76L897.05,82.37L898.19,94.92L899.33,93.07L900.47,95.17L903.88,89.53L905.02,82.14L907.3,70.03L908.44,70.92L912.99,56.31L914.13,56.62L915.27,60.85L916.41,55.53L919.82,49.26L920.96,51.49L922.1,56.08L923.24,55.48L924.38,58.41L927.79,54.04L928.93,47.99L930.07,50.3L932.34,49.79L935.76,53.41L938.04,50.15L939.17,49.01L940.31,45.7L943.73,47.67L944.87,46.29L946,47.69L947.14,48.61L948.28,47.98L951.7,50.44L952.83,45.95L953.97,46.54L955.11,44.56L956.25,46.22L959.67,45.72L960.8,48.4L961.94,46.87L963.08,45.94L967.63,43.22L968.77,44.13L969.91,43.15L971.05,40.53L975.6,45.62L976.74,43.39L977.88,37.56L979.02,34.74L980.16,33.99L983.57,35.18L984.71,34.38L985.85,34.49L986.99,35.4L988.13,37.76L992.68,36.22L993.82,32.78L994.96,32.95L996.09,35.33L999.51,35.82L1000.65,36.13L1001.79,44.57L1002.92,40.57L1004.06,48.83L1007.48,45.78L1008.62,39.45L1009.75,38.97L1010.89,34.55L1015.45,30.16L1016.58,30.29L1017.72,29.46L1018.86,29.56L1020,29.19" style="vector-effect: non-scaling-stroke; fill: none; stroke: rgb(254, 203, 82); stroke-opacity: 1; stroke-width: 2px; opacity: 1;"/></g><g class="points"/><g class="text"/></g></g></g><g class="overplot"/><path class="xlines-above crisp" d="M0,0" style="fill: none;"/><path class="ylines-above crisp" d="M0,0" style="fill: none;"/><g class="overlines-above"/><g class="xaxislayer-above"><g class="xtick"><text text-anchor="middle" x="0" y="284" transform="translate(85.28999999999999,0)" style="font-family: 'Open Sans', verdana, arial, sans-serif; font-size: 12px; fill: rgb(42, 63, 95); fill-opacity: 1; white-space: pre; opacity: 1;">Oct 2018</text></g><g class="xtick"><text text-anchor="middle" x="0" y="284" style="font-family: 'Open Sans', verdana, arial, sans-serif; font-size: 12px; fill: rgb(42, 63, 95); fill-opacity: 1; white-space: pre; opacity: 1;" transform="translate(190.02,0)">Jan 2019</text></g><g class="xtick"><text text-anchor="middle" x="0" y="284" style="font-family: 'Open Sans', verdana, arial, sans-serif; font-size: 12px; fill: rgb(42, 63, 95); fill-opacity: 1; white-space: pre; opacity: 1;" transform="translate(292.48,0)">Apr 2019</text></g><g class="xtick"><text text-anchor="middle" x="0" y="284" style="font-family: 'Open Sans', verdana, arial, sans-serif; font-size: 12px; fill: rgb(42, 63, 95); fill-opacity: 1; white-space: pre; opacity: 1;" transform="translate(396.07,0)">Jul 2019</text></g><g class="xtick"><text text-anchor="middle" x="0" y="284" style="font-family: 'Open Sans', verdana, arial, sans-serif; font-size: 12px; fill: rgb(42, 63, 95); fill-opacity: 1; white-space: pre; opacity: 1;" transform="translate(500.8,0)">Oct 2019</text></g><g class="xtick"><text text-anchor="middle" x="0" y="284" style="font-family: 'Open Sans', verdana, arial, sans-serif; font-size: 12px; fill: rgb(42, 63, 95); fill-opacity: 1; white-space: pre; opacity: 1;" transform="translate(605.54,0)">Jan 2020</text></g><g class="xtick"><text text-anchor="middle" x="0" y="284" style="font-family: 'Open Sans', verdana, arial, sans-serif; font-size: 12px; fill: rgb(42, 63, 95); fill-opacity: 1; white-space: pre; opacity: 1;" transform="translate(709.13,0)">Apr 2020</text></g><g class="xtick"><text text-anchor="middle" x="0" y="284" style="font-family: 'Open Sans', verdana, arial, sans-serif; font-size: 12px; fill: rgb(42, 63, 95); fill-opacity: 1; white-space: pre; opacity: 1;" transform="translate(812.72,0)">Jul 2020</text></g><g class="xtick"><text text-anchor="middle" x="0" y="284" style="font-family: 'Open Sans', verdana, arial, sans-serif; font-size: 12px; fill: rgb(42, 63, 95); fill-opacity: 1; white-space: pre; opacity: 1;" transform="translate(917.46,0)">Oct 2020</text></g><g class="xtick"><text text-anchor="middle" x="0" y="284" style="font-family: 'Open Sans', verdana, arial, sans-serif; font-size: 12px; fill: rgb(42, 63, 95); fill-opacity: 1; white-space: pre; opacity: 1;" transform="translate(1022.19,0)">Jan 2021</text></g></g><g class="yaxislayer-above"><g class="ytick"><text text-anchor="end" x="49" y="4.199999999999999" transform="translate(0,241.71)" style="font-family: 'Open Sans', verdana, arial, sans-serif; font-size: 12px; fill: rgb(42, 63, 95); fill-opacity: 1; white-space: pre; opacity: 1;">20k</text></g><g class="ytick"><text text-anchor="end" x="49" y="4.199999999999999" style="font-family: 'Open Sans', verdana, arial, sans-serif; font-size: 12px; fill: rgb(42, 63, 95); fill-opacity: 1; white-space: pre; opacity: 1;" transform="translate(0,175.15)">25k</text></g><g class="ytick"><text text-anchor="end" x="49" y="4.199999999999999" style="font-family: 'Open Sans', verdana, arial, sans-serif; font-size: 12px; fill: rgb(42, 63, 95); fill-opacity: 1; white-space: pre; opacity: 1;" transform="translate(0,108.6)">30k</text></g></g><g class="overaxes-above"/></g></g><g class="polarlayer"/><g class="ternarylayer"/><g class="geolayer"/><g class="funnelarealayer"/><g class="pielayer"/><g class="iciclelayer"/><g class="treemaplayer"/><g class="sunburstlayer"/><g class="glimages"/><defs id="topdefs-882231"><g class="clips"/><clipPath id="legend882231"><rect width="136" height="200" x="0" y="0"/></clipPath></defs><g class="layer-above"><g class="imagelayer"/><g class="shapelayer"/></g><g class="infolayer"><g class="legend" pointer-events="all" transform="translate(1090.4,60)"><rect class="bg" shape-rendering="crispEdges" width="136" height="200" x="0" y="0" style="stroke: rgb(68, 68, 68); stroke-opacity: 1; fill: rgb(255, 255, 255); fill-opacity: 1; stroke-width: 0px;"/><g class="scrollbox" transform="" clip-path="url(#legend882231)"><g class="groups"><g class="traces" transform="translate(0,14.5)" style="opacity: 1;"><text class="legendtext" text-anchor="start" x="40" y="4.680000000000001" style="font-family: 'Open Sans', verdana, arial, sans-serif; font-size: 12px; fill: rgb(42, 63, 95); fill-opacity: 1; white-space: pre;">Conic =0.1</text><g class="layers" style="opacity: 1;"><g class="legendfill"/><g class="legendlines"><path class="js-line" d="M5,0h30" style="fill: none; stroke: rgb(99, 110, 250); stroke-opacity: 1; stroke-width: 2px;"/></g><g class="legendsymbols"><g class="legendpoints"/></g></g><rect class="legendtoggle" x="0" y="-9.5" width="130.8186798095703" height="19" style="fill: rgb(0, 0, 0); fill-opacity: 0;"/></g><g class="traces" transform="translate(0,33.5)" style="opacity: 1;"><text class="legendtext" text-anchor="start" x="40" y="4.680000000000001" style="font-family: 'Open Sans', verdana, arial, sans-serif; font-size: 12px; fill: rgb(42, 63, 95); fill-opacity: 1; white-space: pre;">Conic =3.275</text><g class="layers" style="opacity: 1;"><g class="legendfill"/><g class="legendlines"><path class="js-line" d="M5,0h30" style="fill: none; stroke: rgb(239, 85, 59); stroke-opacity: 1; stroke-width: 2px;"/></g><g class="legendsymbols"><g class="legendpoints"/></g></g><rect class="legendtoggle" x="0" y="-9.5" width="130.8186798095703" height="19" style="fill: rgb(0, 0, 0); fill-opacity: 0;"/></g><g class="traces" transform="translate(0,52.5)" style="opacity: 1;"><text class="legendtext" text-anchor="start" x="40" y="4.680000000000001" style="font-family: 'Open Sans', verdana, arial, sans-serif; font-size: 12px; fill: rgb(42, 63, 95); fill-opacity: 1; white-space: pre;">Conic =6.45</text><g class="layers" style="opacity: 1;"><g class="legendfill"/><g class="legendlines"><path class="js-line" d="M5,0h30" style="fill: none; stroke: rgb(0, 204, 150); stroke-opacity: 1; stroke-width: 2px;"/></g><g class="legendsymbols"><g class="legendpoints"/></g></g><rect class="legendtoggle" x="0" y="-9.5" width="130.8186798095703" height="19" style="fill: rgb(0, 0, 0); fill-opacity: 0;"/></g><g class="traces" transform="translate(0,71.5)" style="opacity: 1;"><text class="legendtext" text-anchor="start" x="40" y="4.680000000000001" style="font-family: 'Open Sans', verdana, arial, sans-serif; font-size: 12px; fill: rgb(42, 63, 95); fill-opacity: 1; white-space: pre;">Conic =9.625</text><g class="layers" style="opacity: 1;"><g class="legendfill"/><g class="legendlines"><path class="js-line" d="M5,0h30" style="fill: none; stroke: rgb(171, 99, 250); stroke-opacity: 1; stroke-width: 2px;"/></g><g class="legendsymbols"><g class="legendpoints"/></g></g><rect class="legendtoggle" x="0" y="-9.5" width="130.8186798095703" height="19" style="fill: rgb(0, 0, 0); fill-opacity: 0;"/></g><g class="traces" transform="translate(0,90.5)" style="opacity: 1;"><text class="legendtext" text-anchor="start" x="40" y="4.680000000000001" style="font-family: 'Open Sans', verdana, arial, sans-serif; font-size: 12px; fill: rgb(42, 63, 95); fill-opacity: 1; white-space: pre;">Conic =12.8</text><g class="layers" style="opacity: 1;"><g class="legendfill"/><g class="legendlines"><path class="js-line" d="M5,0h30" style="fill: none; stroke: rgb(255, 161, 90); stroke-opacity: 1; stroke-width: 2px;"/></g><g class="legendsymbols"><g class="legendpoints"/></g></g><rect class="legendtoggle" x="0" y="-9.5" width="130.8186798095703" height="19" style="fill: rgb(0, 0, 0); fill-opacity: 0;"/></g><g class="traces" transform="translate(0,109.5)" style="opacity: 1;"><text class="legendtext" text-anchor="start" x="40" y="4.680000000000001" style="font-family: 'Open Sans', verdana, arial, sans-serif; font-size: 12px; fill: rgb(42, 63, 95); fill-opacity: 1; white-space: pre;">Mean-Variance</text><g class="layers" style="opacity: 1;"><g class="legendfill"/><g class="legendlines"><path class="js-line" d="M5,0h30" style="fill: none; stroke: rgb(25, 211, 243); stroke-opacity: 1; stroke-width: 2px;"/></g><g class="legendsymbols"><g class="legendpoints"/></g></g><rect class="legendtoggle" x="0" y="-9.5" width="130.8186798095703" height="19" style="fill: rgb(0, 0, 0); fill-opacity: 0;"/></g><g class="traces" transform="translate(0,128.5)" style="opacity: 1;"><text class="legendtext" text-anchor="start" x="40" y="4.680000000000001" style="font-family: 'Open Sans', verdana, arial, sans-serif; font-size: 12px; fill: rgb(42, 63, 95); fill-opacity: 1; white-space: pre;">Mean-VaR</text><g class="layers" style="opacity: 1;"><g class="legendfill"/><g class="legendlines"><path class="js-line" d="M5,0h30" style="fill: none; stroke: rgb(255, 102, 146); stroke-opacity: 1; stroke-width: 2px;"/></g><g class="legendsymbols"><g class="legendpoints"/></g></g><rect class="legendtoggle" x="0" y="-9.5" width="130.8186798095703" height="19" style="fill: rgb(0, 0, 0); fill-opacity: 0;"/></g><g class="traces" transform="translate(0,147.5)" style="opacity: 1;"><text class="legendtext" text-anchor="start" x="40" y="4.680000000000001" style="font-family: 'Open Sans', verdana, arial, sans-serif; font-size: 12px; fill: rgb(42, 63, 95); fill-opacity: 1; white-space: pre;">Mean-CVaR 95%</text><g class="layers" style="opacity: 1;"><g class="legendfill"/><g class="legendlines"><path class="js-line" d="M5,0h30" style="fill: none; stroke: rgb(182, 232, 128); stroke-opacity: 1; stroke-width: 2px;"/></g><g class="legendsymbols"><g class="legendpoints"/></g></g><rect class="legendtoggle" x="0" y="-9.5" width="130.8186798095703" height="19" style="fill: rgb(0, 0, 0); fill-opacity: 0;"/></g><g class="traces" transform="translate(0,166.5)" style="opacity: 1;"><text class="legendtext" text-anchor="start" x="40" y="4.680000000000001" style="font-family: 'Open Sans', verdana, arial, sans-serif; font-size: 12px; fill: rgb(42, 63, 95); fill-opacity: 1; white-space: pre;">Mean-CVaR 99%</text><g class="layers" style="opacity: 1;"><g class="legendfill"/><g class="legendlines"><path class="js-line" d="M5,0h30" style="fill: none; stroke: rgb(255, 151, 255); stroke-opacity: 1; stroke-width: 2px;"/></g><g class="legendsymbols"><g class="legendpoints"/></g></g><rect class="legendtoggle" x="0" y="-9.5" width="130.8186798095703" height="19" style="fill: rgb(0, 0, 0); fill-opacity: 0;"/></g><g class="traces" transform="translate(0,185.5)" style="opacity: 1;"><text class="legendtext" text-anchor="start" x="40" y="4.680000000000001" style="font-family: 'Open Sans', verdana, arial, sans-serif; font-size: 12px; fill: rgb(42, 63, 95); fill-opacity: 1; white-space: pre;">DJIA</text><g class="layers" style="opacity: 1;"><g class="legendfill"/><g class="legendlines"><path class="js-line" d="M5,0h30" style="fill: none; stroke: rgb(254, 203, 82); stroke-opacity: 1; stroke-width: 2px;"/></g><g class="legendsymbols"><g class="legendpoints"/></g></g><rect class="legendtoggle" x="0" y="-9.5" width="130.8186798095703" height="19" style="fill: rgb(0, 0, 0); fill-opacity: 0;"/></g></g></g><rect class="scrollbar" rx="20" ry="3" width="0" height="0" x="0" y="0" style="fill: rgb(128, 139, 164); fill-opacity: 1;"/></g><g class="g-gtitle"/><g class="g-xtitle"/><g class="g-ytitle"/></g></svg>