<svg class="main-svg" xmlns="http://www.w3.org/2000/svg" xmlns:xlink="http://www.w3.org/1999/xlink" width="1238" height="321" style=""><rect x="0" y="0" width="1238" height="321" style="fill: rgb(255, 255, 255); fill-opacity: 1;"/><defs id="defs-842446"><g class="clips"><clipPath id="clip842446xyplot" class="plotclip"><rect width="1020" height="211"/></clipPath><clipPath class="axesclip" id="clip842446x"><rect x="50" y="0" width="1020" height="321"/></clipPath><clipPath class="axesclip" id="clip842446y"><rect x="0" y="60" width="1238" height="211"/></clipPath><clipPath class="axesclip" id="clip842446xy"><rect x="50" y="60" width="1020" height="211"/></clipPath></g><g class="gradients"/><g class="patterns"/></defs><g class="bglayer"><rect class="bg" x="50" y="60" width="1020" height="211" style="fill: rgb(229, 236, 246); fill-opacity: 1; stroke-width: 0;"/></g><g class="layer-below"><g class="imagelayer"/><g class="shapelayer"/></g><g class="cartesianlayer"><g class="subplot xy"><g class="layer-subplot"><g class="shapelayer"/><g class="imagelayer"/></g><g class="gridlayer"><g class="x"><path class="xgrid crisp" transform="translate(84,0)" d="M0,60v211" style="stroke: rgb(255, 255, 255); stroke-opacity: 1; stroke-width: 1px;"/><path class="xgrid crisp" transform="translate(256.83000000000004,0)" d="M0,60v211" style="stroke: rgb(255, 255, 255); stroke-opacity: 1; stroke-width: 1px;"/><path class="xgrid crisp" transform="translate(429.67,0)" d="M0,60v211" style="stroke: rgb(255, 255, 255); stroke-opacity: 1; stroke-width: 1px;"/><path class="xgrid crisp" transform="translate(605.33,0)" d="M0,60v211" style="stroke: rgb(255, 255, 255); stroke-opacity: 1; stroke-width: 1px;"/><path class="xgrid crisp" transform="translate(778.17,0)" d="M0,60v211" style="stroke: rgb(255, 255, 255); stroke-opacity: 1; stroke-width: 1px;"/><path class="xgrid crisp" transform="translate(951,0)" d="M0,60v211" style="stroke: rgb(255, 255, 255); stroke-opacity: 1; stroke-width: 1px;"/></g><g class="y"><path class="ygrid crisp" transform="translate(0,239.67)" d="M50,0h1020" style="stroke: rgb(255, 255, 255); stroke-opacity: 1; stroke-width: 1px;"/><path class="ygrid crisp" transform="translate(0,165.87)" d="M50,0h1020" style="stroke: rgb(255, 255, 255); stroke-opacity: 1; stroke-width: 1px;"/><path class="ygrid crisp" transform="translate(0,92.07)" d="M50,0h1020" style="stroke: rgb(255, 255, 255); stroke-opacity: 1; stroke-width: 1px;"/></g></g><g class="zerolinelayer"/><path class="xlines-below"/><path class="ylines-below"/><g class="overlines-below"/><g class="xaxislayer-below"/><g class="yaxislayer-below"/><g class="overaxes-below"/><g class="plot" transform="translate(50,60)" clip-path="url(#clip842446xyplot)"><g class="scatterlayer mlayer"><g class="trace scatter trace088ff4" style="stroke-miterlimit: 2; opacity: 1;"><g class="fills"/><g class="errorbars"/><g class="lines"><path class="js-line" d="M0,43.41L2.83,42.64L5.67,43.6L8.5,43.24L17,53.9L19.83,61.85L22.67,64.85L25.5,82.19L28.33,88.91L36.83,71.01L39.67,78.71L42.5,61.08L45.33,73.31L48.17,77.85L56.67,102.81L59.5,88.2L62.33,106.67L65.17,141.47L68,120.97L76.5,154.75L79.33,139.01L82.17,155.33L85,159.41L87.83,175.11L96.33,186.34L99.17,163.62L102,159.36L104.83,141.68L107.67,151.44L116.17,137.83L119,142.86L121.83,153.55L124.67,141.3L127.5,143.28L136,125.02L138.83,127.37L141.67,118.23L144.5,113.34L155.83,118.97L158.67,108.63L161.5,117.28L164.33,118.41L167.17,106.67L175.67,116.29L178.5,122.93L181.33,116.29L184.17,116.84L187,114.1L195.5,108.79L198.33,109.23L201.17,104.55L204,110.03L206.83,117.45L215.33,117.68L218.17,116.67L221,121.65L223.83,120.68L226.67,112.87L235.17,114.41L240.83,127.25L243.67,124.71L246.5,125.09L255,113.52L257.83,119.49L260.67,113.39L263.5,116.33L266.33,116.75L277.67,111.86L280.5,107.87L286.17,105.96L294.67,107.08L297.5,104.42L300.33,98.07L303.17,98.8L306,90.39L314.5,84.26L317.33,89.62L320.17,94.22L323,116.55L325.83,112.89L334.33,112.03L337.17,107.07L340,109.19L342.83,108.52L345.67,112L354.17,112.59L357,113.65L359.83,121.89L362.67,120.12L365.5,128.12L374,121.9L376.83,118.86L379.67,119.1L382.5,117.75L393.83,113.88L396.67,116.05L399.5,115.91L402.33,122.08L405.17,116.06L413.67,114.74L416.5,107.9L419.33,105.31L422.17,105.66L425,104.05L433.5,106.77L439.17,96.4L442,97.82L444.83,98.08L453.33,97.22L456.17,97.94L459,97.45L461.83,100.23L464.67,101.67L473.17,102.64L476,98.31L478.83,95.51L481.67,94L484.5,91.94L493,90.02L495.83,90.4L498.67,86.87L501.5,88.36L504.33,87.75L515.67,86.95L518.5,90.68L521.33,91.08L524.17,90.42L532.67,85.99L535.5,87.86L538.33,88.28L541.17,87.48L544,82.51L552.5,85.21L555.33,87.14L558.17,79.62L561,85.34L563.83,85.92L575.17,91.26L578,88.47L580.83,92.25L583.67,89.28L595,86.37L597.83,84.65L600.67,85.74L603.5,87.86L612,95.33L614.83,94.46L617.67,101.65L620.5,100.51L623.33,98.41L631.83,94.4L634.67,97.8L637.5,94.83L640.33,97.04L643.17,96.97L651.67,92.99L654.5,96.63L660.17,87.7L663,87.26L671.5,85.38L674.33,87.67L677.17,89.41L680,88.93L682.83,87.92L691.33,93.27L694.17,91.24L697,92.21L699.83,87.86L702.67,87.43L714,95.76L716.83,109.02L719.67,106.94L722.5,107.52L731,102.26L733.83,98.31L736.67,98.39L739.5,95.7L742.33,95.24L750.83,80.12L753.67,73.84L756.5,74.31L759.33,79.79L762.17,74.46L770.67,69.83L773.5,71.51L776.33,76.86L779.17,75.95L782,77.65L790.5,73.38L793.33,67.35L796.17,69.75L801.83,70.64L810.33,73.49L816,67.74L818.83,66.15L821.67,61.9L830.17,65.24L833,61.96L835.83,61.86L838.67,62.28L841.5,60.03L850,64.7L852.83,60.85L855.67,63.65L858.5,61.76L861.33,61.45L869.83,66.69L872.67,69.36L875.5,67.15L889.67,63.59L892.5,64.66L895.33,64.15L898.17,61.66L909.5,67.03L912.33,65.02L918,64.64L920.83,61.49L935,62.45L937.83,63.88L940.67,67.04L952,66.82L954.83,64.71L957.67,66.03L960.5,67.68L969,65.43L971.83,65L974.67,74.43L977.5,70.83L980.33,77.49L988.83,76.68L991.67,74.59L994.5,73.73L997.33,70.4L1000.17,66.54L1008.67,63.61L1014.33,63.25L1017.17,63.81L1020,62.94" style="vector-effect: non-scaling-stroke; fill: none; stroke: rgb(99, 110, 250); stroke-opacity: 1; stroke-width: 2px; opacity: 1;"/></g><g class="points"/><g class="text"/></g><g class="trace scatter trace4438dd" style="stroke-miterlimit: 2; opacity: 1;"><g class="fills"/><g class="errorbars"/><g class="lines"><path class="js-line" d="M0,43.41L2.83,42.83L5.67,43.55L8.5,42.98L17,54.02L19.83,61.7L22.67,65.41L25.5,83.04L28.33,89.36L36.83,71.4L39.67,78.8L42.5,61.81L45.33,74.53L48.17,78.48L56.67,103.38L59.5,88.23L62.33,106.73L65.17,142.33L68,122.42L76.5,154.41L79.33,139.13L82.17,154.42L85,158.35L87.83,175.12L96.33,187.18L99.17,164.17L102,159.78L104.83,143.51L107.67,152.91L116.17,139.01L119,143.89L121.83,154.18L124.67,142.09L127.5,143.96L136,125.39L138.83,128.49L141.67,119.69L144.5,114.77L155.83,120.6L158.67,110.16L161.5,118.31L164.33,119.3L167.17,107.98L175.67,118.24L178.5,125.02L181.33,118.68L184.17,119.58L195.5,111.91L198.33,112.7L201.17,108.51L204,114.31L206.83,121.64L215.33,122.13L218.17,121.73L221,126.69L223.83,125.75L226.67,117.95L235.17,119.27L238,125.07L240.83,131.21L243.67,128.72L246.5,128.82L255,117.09L257.83,122.97L260.67,116.24L263.5,119.51L266.33,120.02L277.67,115.14L280.5,111.75L286.17,110.47L294.67,109.93L297.5,107.83L300.33,101.04L303.17,102.11L306,93.76L314.5,87.7L317.33,93.28L320.17,98L323,119.67L325.83,116.73L334.33,115.58L337.17,110.61L340,112.86L342.83,112.08L345.67,115.28L357,116.16L359.83,124.22L362.67,122.8L365.5,130.84L374,125.11L376.83,122.1L379.67,121.92L382.5,120.93L393.83,116.88L396.67,118.02L399.5,118.26L402.33,123.9L405.17,117.85L413.67,117.2L416.5,110.47L419.33,107.45L422.17,108.4L425,107.09L433.5,110.1L436.33,104.98L439.17,100.13L442,101.56L444.83,102.13L453.33,100.87L456.17,102L459,101.96L461.83,104.53L464.67,105.66L473.17,106.52L476,102.12L478.83,98.61L481.67,97.15L484.5,95.5L493,94.18L495.83,93.99L498.67,90.16L501.5,91.39L504.33,90.84L515.67,89.8L518.5,93.73L521.33,94.13L524.17,93.66L532.67,89.32L535.5,91.09L538.33,91.28L541.17,89.95L544,83.82L552.5,86.86L555.33,88.01L558.17,80.34L561,85.99L563.83,86.41L575.17,91.85L578,89.07L580.83,92.61L583.67,89.61L595,87.34L597.83,85.19L603.5,88.56L612,96.2L614.83,95.22L617.67,102.32L631.83,95.22L634.67,98.7L637.5,95.75L640.33,97.98L643.17,98.27L651.67,94.57L654.5,98.46L657.33,94.77L660.17,89.96L663,89.05L671.5,87.2L674.33,88.89L677.17,90.41L680,89.91L682.83,89.22L691.33,94.73L694.17,92.07L697,92.55L699.83,88.15L702.67,88.21L714,96.26L716.83,109.69L719.67,107.75L722.5,108.97L731,104.1L733.83,99.73L736.67,99.41L739.5,97.11L742.33,96.44L750.83,81.78L753.67,75.86L756.5,76.16L759.33,81.68L762.17,76.36L770.67,71.24L773.5,72.58L776.33,78.34L779.17,77.23L782,79.39L790.5,75.06L793.33,69.12L796.17,71.45L810.33,75.89L813.17,72.85L818.83,69.48L821.67,65.06L830.17,68.45L833,65.25L838.67,65.07L841.5,61.11L850,65.66L852.83,61.62L855.67,64.04L858.5,62.26L861.33,61.86L869.83,67.05L872.67,69.33L875.5,67.23L889.67,62.47L892.5,63.4L895.33,62.46L898.17,59.88L909.5,65.94L912.33,64.03L918,64.38L920.83,60.7L929.33,60.65L932.17,62.03L935,61.73L937.83,63.67L940.67,67.42L952,67.36L954.83,65.2L957.67,67.2L960.5,68.37L969,66.75L971.83,65.46L974.67,75.45L977.5,70.98L980.33,77.68L988.83,76.58L991.67,73.64L994.5,72.96L997.33,69.96L1000.17,65.6L1008.67,62.25L1014.33,62.12L1017.17,62.13L1020,61.09" style="vector-effect: non-scaling-stroke; fill: none; stroke: rgb(239, 85, 59); stroke-opacity: 1; stroke-width: 2px; opacity: 1;"/></g><g class="points"/><g class="text"/></g><g class="trace scatter trace7179b6" style="stroke-miterlimit: 2; opacity: 1;"><g class="fills"/><g class="errorbars"/><g class="lines"><path class="js-line" d="M0,43.41L2.83,43.16L5.67,43.83L8.5,43.17L17,53.94L19.83,61.37L22.67,64.77L25.5,82.18L28.33,88.77L36.83,70.46L39.67,77.53L42.5,60.66L45.33,73.6L48.17,77.78L56.67,102.3L59.5,87.04L62.33,104.7L65.17,140.42L68,121.52L76.5,153.97L79.33,139.09L82.17,154.43L85,158.24L87.83,174.62L96.33,186.52L99.17,163.7L102,158.79L104.83,143.09L107.67,152.67L116.17,138.5L119,142.92L121.83,153.49L124.67,140.8L127.5,142.51L136,123.22L138.83,126.66L141.67,117.83L144.5,112.73L155.83,118.87L158.67,108.53L161.5,116.59L164.33,117.28L167.17,106.41L175.67,116.52L178.5,123.93L181.33,117.22L184.17,118.55L187,116.16L195.5,110.24L198.33,111.3L201.17,107.71L206.83,120.39L215.33,120.92L218.17,120.21L221,124.97L223.83,124.44L226.67,116.88L235.17,117.83L238,123.45L240.83,129.22L243.67,126.65L246.5,127.05L255,115.65L257.83,121.38L260.67,114.62L263.5,118.01L266.33,118.69L277.67,114.01L280.5,110.99L283.33,109.84L286.17,109.55L294.67,109.3L297.5,107.3L300.33,100.41L303.17,101.68L306,93.6L314.5,87.63L320.17,97.87L323,119.2L325.83,116.68L334.33,115.8L337.17,110.74L340,113.01L342.83,112.44L345.67,115.59L357,116.28L359.83,124L362.67,122.78L365.5,130.75L374,125.25L376.83,122.24L382.5,120.82L393.83,117.02L399.5,118.4L402.33,123.63L405.17,117.58L413.67,116.84L416.5,110.16L419.33,106.96L422.17,108.2L425,106.69L433.5,109.72L436.33,104.37L439.17,99.23L442,100.71L444.83,101.38L453.33,99.59L456.17,100.87L459,101.1L461.83,104.03L464.67,105.12L473.17,106.01L476,101.49L478.83,98.53L481.67,97.04L484.5,95.62L493,94.41L495.83,94.14L498.67,90.11L501.5,91.03L504.33,90.45L515.67,88.95L518.5,93.03L521.33,93.6L524.17,93.04L532.67,88.93L535.5,90.77L538.33,90.78L541.17,89.36L544,82.54L552.5,85.55L555.33,86.05L558.17,78.15L561,83.89L563.83,84.29L575.17,90.16L578,87.13L580.83,90.63L583.67,87.44L595,85L597.83,82.85L603.5,86.37L612,93.94L614.83,92.87L617.67,100.08L623.33,96.68L631.83,93.14L634.67,96.58L637.5,93.44L640.33,95.56L643.17,95.87L651.67,92.44L654.5,96.48L657.33,92.94L660.17,88.1L671.5,85.52L674.33,86.85L677.17,88.3L680,88.15L682.83,87.34L691.33,92.64L694.17,90.26L697,91.16L699.83,86.58L702.67,86.79L714,94.53L716.83,108.22L719.67,106.25L722.5,107.65L731,102.85L733.83,98.69L736.67,97.72L739.5,95.91L742.33,95.29L750.83,81.13L753.67,75.46L756.5,75.33L759.33,81.05L762.17,75.94L770.67,71.06L773.5,71.71L776.33,77.41L779.17,75.78L782,78.04L790.5,73.71L793.33,67.87L796.17,70.24L810.33,74.35L813.17,71.54L818.83,69.11L821.67,64.62L830.17,67.88L833,64.58L838.67,64.48L841.5,61.25L850,65.63L852.83,61.86L855.67,64.43L858.5,62.95L861.33,62.65L869.83,67.8L872.67,69.84L875.5,67.83L889.67,63.05L892.5,63.84L895.33,63.15L898.17,60.62L909.5,66.89L912.33,65.15L915.17,66.54L918,66.4L920.83,62.44L929.33,62.34L932.17,63.86L935,63.93L937.83,66.19L940.67,69.91L952,69.99L954.83,67.61L960.5,70.9L969,69.6L971.83,68.3L974.67,78.57L977.5,74.38L980.33,80.74L988.83,79.64L991.67,76.58L994.5,75.98L997.33,73.44L1000.17,69.13L1008.67,66.13L1011.5,65.63L1014.33,66.26L1017.17,66.02L1020,64.66" style="vector-effect: non-scaling-stroke; fill: none; stroke: rgb(0, 204, 150); stroke-opacity: 1; stroke-width: 2px; opacity: 1;"/></g><g class="points"/><g class="text"/></g><g class="trace scatter trace90f17b" style="stroke-miterlimit: 2; opacity: 1;"><g class="fills"/><g class="errorbars"/><g class="lines"><path class="js-line" d="M0,43.41L2.83,43.2L5.67,43.86L8.5,43.21L17,53.95L19.83,61.42L22.67,64.88L25.5,82.24L28.33,88.91L36.83,70.55L39.67,77.47L42.5,60.66L45.33,73.57L48.17,77.66L56.67,102.28L59.5,86.98L62.33,104.39L65.17,140.31L68,121.31L76.5,154.12L79.33,139.44L82.17,155.18L85,158.73L87.83,174.86L96.33,186.62L99.17,163.7L102,158.83L104.83,143.14L107.67,152.9L116.17,138.8L119,143.21L121.83,153.91L124.67,141.17L127.5,142.9L136,123.4L138.83,126.82L141.67,118.16L144.5,112.92L155.83,119L158.67,108.73L161.5,116.88L164.33,117.58L167.17,106.78L175.67,116.97L178.5,124.45L181.33,117.74L184.17,119.27L187,116.84L195.5,110.76L198.33,111.79L201.17,108.23L206.83,120.87L215.33,121.46L218.17,120.75L221,125.54L223.83,124.9L226.67,117.34L235.17,118.35L238,123.97L240.83,129.72L243.67,127.16L246.5,127.6L255,116.13L257.83,121.88L260.67,114.96L263.5,118.33L266.33,119.06L277.67,114.3L280.5,111.3L283.33,110.25L286.17,110.02L294.67,109.66L297.5,107.72L300.33,100.82L303.17,102.05L306,94.03L314.5,88.02L320.17,98.34L323,119.59L325.83,117.09L334.33,116.19L337.17,111.14L340,113.42L342.83,112.84L345.67,116L357,116.63L359.83,124.31L362.67,123.09L365.5,131.09L374,125.58L376.83,122.58L382.5,121.22L393.83,117.46L399.5,118.73L402.33,123.93L405.17,117.76L413.67,117.18L416.5,110.48L419.33,107.26L422.17,108.54L425,107.04L433.5,110.12L436.33,104.66L439.17,99.44L442,100.96L444.83,101.56L453.33,99.74L456.17,101.09L459,101.35L461.83,104.34L464.67,105.5L473.17,106.45L476,101.89L478.83,98.95L481.67,97.36L484.5,95.97L493,94.69L495.83,94.41L498.67,90.39L501.5,91.2L504.33,90.6L515.67,89.12L518.5,93.32L521.33,93.99L524.17,93.44L532.67,89.31L535.5,91.11L538.33,91.08L541.17,89.51L544,82.6L552.5,85.67L555.33,85.92L558.17,77.97L561,83.67L563.83,84.08L575.17,90.06L578,87.03L580.83,90.49L583.67,87.31L595,84.9L597.83,82.77L603.5,86.33L612,93.82L614.83,92.64L617.67,100.04L623.33,96.64L631.83,93.1L634.67,96.55L637.5,93.42L640.33,95.4L643.17,95.67L651.67,92.27L654.5,96.3L660.17,87.98L663,87.19L671.5,85.4L674.33,86.59L677.17,88.11L680,87.9L682.83,87.15L691.33,92.4L694.17,89.97L697,90.83L699.83,86.3L702.67,86.5L714,94.27L716.83,107.92L719.67,105.94L722.5,107.31L731,102.53L733.83,98.23L736.67,97.3L739.5,95.42L742.33,94.85L750.83,80.69L753.67,74.91L756.5,74.75L759.33,80.49L762.17,75.36L770.67,70.31L773.5,71.07L776.33,76.75L779.17,74.99L782,77.27L790.5,72.83L793.33,66.94L796.17,69.36L810.33,73.56L813.17,70.87L818.83,68.55L821.67,64.06L830.17,67.39L833,64.24L838.67,64.24L841.5,60.93L850,65.18L852.83,61.47L855.67,64.11L858.5,62.76L861.33,62.46L869.83,67.57L872.67,69.64L875.5,67.6L889.67,62.77L892.5,63.61L895.33,62.95L898.17,60.45L909.5,66.75L912.33,65.19L915.17,66.66L918,66.53L920.83,62.51L929.33,62.48L932.17,63.94L935,64.07L937.83,66.53L940.67,70.26L952,70.43L954.83,67.96L960.5,71.28L969,70.08L971.83,68.88L974.67,79.16L977.5,74.99L980.33,81.32L988.83,80.18L991.67,77L994.5,76.42L997.33,73.94L1000.17,69.73L1008.67,66.74L1011.5,66.25L1014.33,66.91L1017.17,66.55L1020,65.21" style="vector-effect: non-scaling-stroke; fill: none; stroke: rgb(171, 99, 250); stroke-opacity: 1; stroke-width: 2px; opacity: 1;"/></g><g class="points"/><g class="text"/></g><g class="trace scatter trace3b1da3" style="stroke-miterlimit: 2; opacity: 1;"><g class="fills"/><g class="errorbars"/><g class="lines"><path class="js-line" d="M0,43.41L2.83,43.22L5.67,43.99L8.5,43.33L17,54.04L19.83,61.54L22.67,64.82L25.5,82.03L28.33,88.94L36.83,70.64L39.67,77.62L42.5,60.84L45.33,73.96L48.17,78.41L56.67,103.16L59.5,88.1L62.33,105.52L65.17,141.21L68,122.93L76.5,155.68L79.33,141.2L82.17,157.22L85,161.37L87.83,177.49L96.33,188.68L99.17,166.24L102,160.32L104.83,144.45L107.67,154.69L116.17,140.52L119,144.68L121.83,155.63L124.67,142.93L127.5,144.66L136,125.11L138.83,128.41L141.67,119.39L144.5,114.17L155.83,120.77L158.67,110.69L161.5,118.55L164.33,119.49L167.17,108.64L175.67,118.64L178.5,126.39L181.33,119.82L184.17,121.11L195.5,112.52L198.33,113.68L201.17,110.06L204,115.98L206.83,122.8L215.33,123.43L218.17,122.62L221,127.23L223.83,126.71L226.67,119.18L235.17,120.13L238,125.73L240.83,131.34L243.67,128.76L246.5,129.25L255,117.79L257.83,123.45L260.67,116.69L263.5,119.98L266.33,120.78L277.67,115.92L280.5,113.01L283.33,111.82L286.17,111.6L294.67,111.53L297.5,109.51L300.33,102.35L303.17,103.34L306,95.18L314.5,89.08L320.17,99.54L323,121.42L325.83,118.62L334.33,117.87L337.17,112.66L340,115.04L342.83,114.5L345.67,117.78L357,118.4L359.83,126.23L362.67,125.08L365.5,133.06L374,127.4L376.83,124.6L382.5,123.1L393.83,119.39L399.5,120.93L402.33,126.17L405.17,120.05L413.67,119.23L416.5,112.63L419.33,109.19L422.17,110.63L425,109.11L433.5,112.17L436.33,106.65L439.17,101.49L442,103.1L444.83,103.9L453.33,102.13L456.17,103.41L459,103.82L461.83,107.04L464.67,108.17L473.17,109.06L476,104.79L478.83,101.6L481.67,100.18L484.5,98.88L493,97.68L495.83,97.29L498.67,93.33L501.5,94.18L504.33,93.58L515.67,92.26L518.5,96.38L521.33,96.98L524.17,96.51L532.67,92.27L535.5,94.17L538.33,94.11L541.17,92.59L544,85.6L552.5,88.64L555.33,89.1L558.17,81.02L561,86.84L563.83,87.06L575.17,93.22L578,90.19L580.83,93.74L583.67,90.43L595,88.02L597.83,85.89L603.5,89.45L612,97.19L614.83,96.1L617.67,103.43L623.33,100.07L631.83,96.42L634.67,99.83L637.5,96.71L640.33,98.88L643.17,99.2L651.67,95.92L654.5,100.22L657.33,96.66L660.17,91.75L663,90.89L671.5,89.26L677.17,92.16L680,92.26L682.83,91.33L691.33,96.46L694.17,94.14L697,95.21L699.83,90.39L702.67,90.69L714,98.5L716.83,112.06L719.67,110.05L722.5,111.48L731,106.68L733.83,102.73L742.33,99.15L750.83,83.97L753.67,78.31L756.5,78.51L759.33,84.28L762.17,79.16L770.67,74.16L773.5,74.32L776.33,80.03L779.17,78.23L782,80.54L790.5,76.16L793.33,70.27L796.17,72.76L810.33,76.88L813.17,73.92L818.83,71.16L821.67,66.57L830.17,69.74L833,66.34L838.67,66.12L841.5,62.95L850,67.61L852.83,63.9L855.67,66.66L858.5,65.31L861.33,65.06L869.83,70.15L872.67,72.05L875.5,69.98L889.67,65.28L892.5,65.92L895.33,65.15L898.17,62.74L909.5,69.41L912.33,67.73L915.17,69.55L918,69.45L920.83,65.52L929.33,65.54L932.17,67.06L935,67.29L937.83,69.5L940.67,73.23L952,73.11L954.83,70.72L960.5,74.03L969,72.88L971.83,71.75L974.67,81.98L977.5,77.73L980.33,84.18L988.83,82.98L991.67,79.8L994.5,79.21L997.33,76.77L1000.17,72.55L1008.67,69.47L1011.5,69.03L1014.33,69.76L1017.17,69.34L1020,67.84" style="vector-effect: non-scaling-stroke; fill: none; stroke: rgb(255, 161, 90); stroke-opacity: 1; stroke-width: 2px; opacity: 1;"/></g><g class="points"/><g class="text"/></g><g class="trace scatter trace9e8639" style="stroke-miterlimit: 2; opacity: 1;"><g class="fills"/><g class="errorbars"/><g class="lines"><path class="js-line" d="M0,43.41L2.83,42.41L5.67,43.25L8.5,42.9L17,53.83L19.83,62.17L22.67,65.58L25.5,83.08L28.33,90.05L36.83,72.23L39.67,79.89L42.5,62.37L45.33,74.87L48.17,79.08L56.67,104.66L59.5,89.31L62.33,107.43L65.17,142.43L68,120.38L76.5,155.59L79.33,140.77L82.17,158.55L85,161.08L87.83,176.67L96.33,188.47L99.17,164.41L102,159.51L104.83,142.1L107.67,152.41L116.17,138.98L119,144.73L121.83,155.48L124.67,142.93L127.5,145.43L136,126.49L138.83,129.04L141.67,120.08L144.5,114.76L155.83,120.21L158.67,110.53L161.5,118.29L164.33,119L167.17,107.55L175.67,117.35L178.5,124.28L181.33,117.85L184.17,118.63L187,116.06L195.5,110.65L198.33,111.25L201.17,106.75L204,111.88L206.83,118.63L215.33,119.51L218.17,118.77L221,123.87L223.83,122.32L226.67,114.73L235.17,116.75L240.83,129.23L243.67,126.22L246.5,126.47L255,115.11L257.83,121.12L260.67,114.69L263.5,117.75L266.33,118.27L277.67,113.32L280.5,108.86L286.17,107.69L294.67,107.93L297.5,105.74L300.33,99.1L303.17,100.04L306,91.79L314.5,86.03L317.33,91.3L320.17,95.8L323,117.41L325.83,113.91L334.33,112.73L337.17,107.87L340,110.05L342.83,109.39L345.67,113.33L357,114.45L359.83,122.5L362.67,120.6L365.5,128.92L374,122.92L376.83,119.73L379.67,119.72L382.5,118.83L393.83,114.78L396.67,116.6L399.5,116.21L402.33,121.62L405.17,115.5L413.67,114.43L416.5,107.56L419.33,105.23L422.17,105.65L425,104.34L433.5,107.03L436.33,101.9L439.17,96.96L442,98.19L444.83,98.38L453.33,97.65L456.17,98.7L459,98.11L464.67,102.29L473.17,103.38L478.83,95.47L481.67,93.63L484.5,91.56L493,89.83L495.83,89.75L498.67,86.18L501.5,87.34L504.33,86.79L515.67,86.25L518.5,89.88L521.33,90.39L524.17,89.65L532.67,85.32L535.5,86.67L538.33,86.86L541.17,85.52L544,80.27L552.5,83.28L555.33,84.22L558.17,76.49L561,82.02L563.83,82.64L575.17,87.89L578,84.78L580.83,88.31L583.67,85.54L597.83,81.51L600.67,82.96L603.5,84.92L612,92.38L614.83,91.41L617.67,98.64L620.5,97.42L623.33,95.15L631.83,91.16L634.67,94.23L637.5,91.28L640.33,92.85L643.17,92.68L651.67,88.73L654.5,92.22L657.33,88.04L660.17,83.62L663,82.81L671.5,80.79L674.33,82.46L677.17,84.54L680,83.97L682.83,83.15L691.33,88.73L694.17,86.87L697,87.71L699.83,83.5L702.67,82.93L714,91.23L716.83,104.61L719.67,102.53L722.5,102.97L731,98.26L733.83,93.55L736.67,93.37L739.5,90.29L742.33,89.92L750.83,75.37L753.67,69.44L756.5,69.69L759.33,74.74L762.17,69.83L770.67,64.76L773.5,66.31L776.33,71.53L779.17,70.69L782,72.57L790.5,68.01L793.33,61.84L796.17,64.45L801.83,65.48L810.33,68.21L816,63.52L818.83,62.51L821.67,58.55L830.17,61.91L833,59.27L835.83,59.54L838.67,60.32L841.5,57.06L850,61.12L852.83,57.04L855.67,59.6L858.5,57.94L861.33,57.49L869.83,62.35L872.67,64.8L875.5,62.55L889.67,58.31L892.5,59.39L895.33,58.84L898.17,56.07L909.5,61.82L912.33,60.22L918,59.41L920.83,56.32L935,58.46L937.83,60.53L940.67,63.71L952,63.65L954.83,61.68L957.67,63.06L960.5,64.85L969,62.99L971.83,62.7L974.67,73.11L977.5,68.91L980.33,75.49L988.83,74.3L991.67,71.38L994.5,70.71L997.33,67.66L1000.17,64.31L1008.67,61.34L1014.33,60.91L1017.17,60.92L1020,60.46" style="vector-effect: non-scaling-stroke; fill: none; stroke: rgb(25, 211, 243); stroke-opacity: 1; stroke-width: 2px; opacity: 1;"/></g><g class="points"/><g class="text"/></g><g class="trace scatter trace8ab49b" style="stroke-miterlimit: 2; opacity: 1;"><g class="fills"/><g class="errorbars"/><g class="lines"><path class="js-line" d="M0,43.41L2.83,42.59L5.67,43.53L8.5,43.06L17,53.7L19.83,61.62L22.67,64.77L25.5,82.2L28.33,88.71L36.83,70.88L39.67,78.51L42.5,61.02L45.33,73.19L48.17,77.33L56.67,101.9L59.5,87.51L62.33,106.14L65.17,141.01L68,120.24L76.5,152.27L79.33,136.35L82.17,151.67L85,156.56L87.83,172.84L96.33,184.65L99.17,162.45L102,158.3L104.83,140.7L107.67,150.22L116.17,136.41L119,141.49L121.83,151.89L124.67,139.45L127.5,141.24L136,123.18L138.83,125.88L141.67,116.92L144.5,112.25L155.83,117.75L158.67,107.27L161.5,115.67L164.33,116.82L167.17,105.26L175.67,115.08L178.5,121.64L181.33,115.19L184.17,115.76L187,113.46L195.5,108.31L198.33,108.78L201.17,104.26L204,109.85L206.83,117.12L215.33,117.64L218.17,116.84L221,121.94L223.83,121.14L226.67,113.16L235.17,114.85L240.83,127.48L243.67,125.14L246.5,125.52L255,113.95L257.83,119.97L260.67,113.73L263.5,116.95L266.33,117.38L277.67,112.51L280.5,108.65L286.17,106.68L294.67,107.55L297.5,105.1L300.33,98.74L303.17,99.54L306,91.35L314.5,85.27L317.33,90.75L320.17,95.16L323,117.03L325.83,113.59L334.33,112.59L337.17,107.79L340,109.93L342.83,109.1L345.67,112.55L354.17,113.27L357,114.4L359.83,122.58L362.67,120.79L365.5,128.78L374,122.56L376.83,119.56L379.67,119.72L382.5,118.38L393.83,114.53L396.67,116.38L399.5,116.27L402.33,122.39L405.17,116.31L413.67,115.2L416.5,108.56L419.33,105.97L422.17,106.34L425,104.71L433.5,107.56L439.17,97.35L442,98.6L444.83,98.85L453.33,98.07L456.17,98.62L459,98.24L461.83,100.84L464.67,102.35L473.17,103.42L476,98.98L478.83,96.06L481.67,94.62L484.5,92.61L493,90.8L495.83,91.18L498.67,87.7L501.5,89.17L504.33,88.54L512.83,88.51L515.67,87.71L518.5,91.5L521.33,91.83L524.17,91.31L532.67,86.9L535.5,88.71L538.33,89.19L541.17,88.23L544,83.03L552.5,85.85L555.33,87.69L558.17,80.01L561,85.39L563.83,85.86L575.17,91.2L578,88.6L580.83,92.25L583.67,89.29L592.17,87.33L595,86.63L597.83,84.85L600.67,85.87L603.5,87.86L612,95.34L614.83,94.31L617.67,101.48L620.5,100.25L623.33,98.28L631.83,94.41L634.67,97.8L637.5,94.93L640.33,97.08L643.17,97.14L651.67,93.29L654.5,96.79L660.17,88.06L663,87.54L671.5,85.67L674.33,87.89L677.17,89.6L680,89.11L682.83,88.16L691.33,93.52L694.17,91.49L697,92.37L699.83,88.05L702.67,87.64L714,95.76L716.83,109.08L719.67,107.08L722.5,107.54L731,102.39L733.83,98.36L736.67,98.74L739.5,96.05L742.33,95.44L750.83,80.19L753.67,73.8L756.5,74.33L759.33,79.72L762.17,74.28L770.67,69.68L773.5,71.34L776.33,76.78L779.17,75.87L782,77.62L790.5,73.37L793.33,67.44L796.17,69.83L801.83,70.86L810.33,73.72L816,68.07L818.83,66.32L821.67,61.95L830.17,65.32L833,62.11L835.83,62.15L838.67,62.67L841.5,59.88L850,64.57L852.83,60.79L855.67,63.65L858.5,61.83L861.33,61.31L869.83,66.72L872.67,69.44L875.5,67.26L889.67,63.45L892.5,64.44L895.33,63.87L898.17,61.29L909.5,66.69L912.33,64.82L918,64.67L920.83,61.58L929.33,61.88L932.17,62.93L935,62.78L937.83,64.25L940.67,67.7L952,67.57L954.83,65.61L957.67,67.21L960.5,68.93L969,66.64L971.83,66.05L974.67,75.48L977.5,71.67L980.33,78.26L988.83,77.42L991.67,75.27L994.5,74.48L997.33,71.31L1000.17,67.37L1008.67,64.43L1014.33,64.13L1017.17,64.54L1020,63.76" style="vector-effect: non-scaling-stroke; fill: none; stroke: rgb(255, 102, 146); stroke-opacity: 1; stroke-width: 2px; opacity: 1;"/></g><g class="points"/><g class="text"/></g><g class="trace scatter trace6f44ab" style="stroke-miterlimit: 2; opacity: 1;"><g class="fills"/><g class="errorbars"/><g class="lines"><path class="js-line" d="M0,43.41L2.83,42.63L5.67,43.54L8.5,43.03L17,53.63L19.83,61.46L22.67,64.58L25.5,81.99L28.33,88.6L36.83,70.76L39.67,78.31L42.5,60.77L45.33,72.91L48.17,77L56.67,101.46L59.5,87.02L62.33,105.75L65.17,140.62L68,119.81L76.5,151.86L79.33,135.88L82.17,151.09L85,156.11L87.83,172.43L96.33,184.29L99.17,162.08L102,158.05L104.83,140.47L107.67,149.87L116.17,135.99L119,141.11L121.83,151.54L124.67,139.13L127.5,140.83L136,122.73L138.83,125.53L141.67,116.62L144.5,111.9L155.83,117.4L158.67,106.84L161.5,115.21L164.33,116.32L167.17,104.83L175.67,114.64L178.5,121.2L181.33,114.75L184.17,115.38L187,113.07L195.5,107.93L198.33,108.44L201.17,104.04L206.83,116.77L215.33,117.32L218.17,116.51L221,121.61L223.83,120.84L226.67,112.9L235.17,114.55L238,120.67L240.83,127.12L243.67,124.8L246.5,125.17L255,113.69L257.83,119.68L260.67,113.46L263.5,116.67L266.33,117.11L277.67,112.3L280.5,108.44L286.17,106.44L294.67,107.3L297.5,104.86L300.33,98.55L303.17,99.39L306,91.28L314.5,85.21L317.33,90.67L320.17,95.02L323,116.82L325.83,113.42L334.33,112.42L337.17,107.63L340,109.72L342.83,108.9L345.67,112.29L354.17,113.04L357,114.18L359.83,122.29L362.67,120.52L365.5,128.49L374,122.28L376.83,119.28L379.67,119.4L382.5,118.06L393.83,114.2L396.67,115.98L399.5,115.91L402.33,121.98L405.17,115.92L413.67,114.77L416.5,108.15L419.33,105.56L422.17,105.93L425,104.26L433.5,107.08L439.17,96.82L442,98.08L444.83,98.32L453.33,97.53L456.17,98.08L459,97.71L464.67,101.76L473.17,102.84L476,98.41L478.83,95.55L484.5,92.08L493,90.32L495.83,90.71L498.67,87.2L501.5,88.64L504.33,88.02L512.83,87.94L515.67,87.11L518.5,90.92L521.33,91.22L524.17,90.67L532.67,86.3L535.5,88.07L538.33,88.53L541.17,87.55L544,82.34L552.5,85.13L555.33,86.97L558.17,79.25L561,84.69L563.83,85.17L575.17,90.51L578,87.86L580.83,91.5L583.67,88.5L592.17,86.51L595,85.8L597.83,84.07L600.67,85.1L603.5,87.07L612,94.55L614.83,93.48L617.67,100.62L620.5,99.37L623.33,97.4L631.83,93.54L634.67,96.91L637.5,94L640.33,96.11L643.17,96.17L651.67,92.32L654.5,95.82L660.17,87.11L663,86.56L671.5,84.67L674.33,86.91L677.17,88.6L680,88.11L682.83,87.14L691.33,92.5L694.17,90.45L697,91.3L699.83,87.05L702.67,86.6L714,94.68L716.83,108.03L719.67,106.1L722.5,106.58L731,101.45L733.83,97.37L736.67,97.77L739.5,95.08L742.33,94.44L750.83,79.4L753.67,73.02L756.5,73.48L759.33,78.85L762.17,73.41L770.67,68.92L773.5,70.62L776.33,76.04L779.17,75.12L782,76.86L790.5,72.72L793.33,66.9L796.17,69.22L801.83,70.24L810.33,73.02L816,67.47L818.83,65.73L821.67,61.4L830.17,64.75L833,61.56L835.83,61.62L838.67,62.16L841.5,59.43L850,64.06L852.83,60.3L855.67,63.18L858.5,61.33L861.33,60.76L869.83,66.16L872.67,68.87L875.5,66.71L889.67,62.88L892.5,63.86L895.33,63.3L898.17,60.7L909.5,66.13L912.33,64.3L918,64.23L920.83,61.11L929.33,61.44L932.17,62.53L935,62.41L937.83,63.95L940.67,67.33L952,67.25L954.83,65.29L957.67,66.85L960.5,68.54L969,66.22L971.83,65.5L974.67,74.96L977.5,71.2L980.33,77.77L988.83,76.94L991.67,74.85L994.5,74.12L997.33,70.97L1000.17,67.03L1008.67,64.17L1014.33,63.85L1017.17,64.23L1020,63.44" style="vector-effect: non-scaling-stroke; fill: none; stroke: rgb(182, 232, 128); stroke-opacity: 1; stroke-width: 2px; opacity: 1;"/></g><g class="points"/><g class="text"/></g><g class="trace scatter trace0d0877" style="stroke-miterlimit: 2; opacity: 1;"><g class="fills"/><g class="errorbars"/><g class="lines"><path class="js-line" d="M0,43.41L2.83,42.69L5.67,43.55L8.5,42.87L17,53.47L19.83,60.98L22.67,64.14L25.5,81.44L28.33,88.39L36.83,70.74L39.67,78.07L42.5,60.52L45.33,72.78L48.17,76.3L56.67,100.18L59.5,85.24L62.33,104.53L65.17,139.35L68,118.19L76.5,149.72L79.33,134.38L82.17,148.49L85,153.6L87.83,170.76L96.33,182.97L99.17,160.29L102,156.25L104.83,139.14L107.67,148.58L116.17,134.22L119,139.58L121.83,149.86L124.67,137.72L127.5,139.14L136,120.65L138.83,123.97L141.67,115.4L144.5,110.51L155.83,116.05L158.67,105.05L161.5,112.78L164.33,113.42L167.17,102.5L175.67,112.24L178.5,118.95L181.33,112.44L184.17,113.31L187,111.13L195.5,105.85L198.33,106.79L201.17,102.78L206.83,114.76L215.33,115.76L218.17,115.11L221,119.97L223.83,119.15L226.67,111.49L235.17,112.87L238,118.96L240.83,124.86L243.67,122.39L246.5,122.38L255,111.28L257.83,117.04L260.67,110.82L263.5,114.15L266.33,114.65L277.67,110.2L280.5,106.63L286.17,104.63L294.67,105.51L297.5,103.35L300.33,97.13L303.17,98.22L306,90.81L314.5,85.01L317.33,90.4L320.17,94.22L323,115.57L325.83,112.42L334.33,111.36L337.17,106.66L340,108.48L342.83,107.81L345.67,111.23L354.17,111.86L357,112.89L359.83,120.77L362.67,119.38L365.5,127.15L374,121.09L376.83,118.12L379.67,117.71L393.83,112.53L396.67,113.88L399.5,113.79L402.33,119.18L405.17,113.41L413.67,112.26L416.5,105.73L419.33,103.03L422.17,103.61L425,101.84L433.5,104.44L436.33,99.8L439.17,94.27L442,95.53L444.83,95.94L453.33,95.15L459,95.62L461.83,97.63L464.67,99.08L473.17,100.14L478.83,92.4L481.67,90.77L484.5,88.87L493,87.66L495.83,87.99L498.67,84.14L501.5,85.42L504.33,84.88L512.83,84.5L515.67,83.51L518.5,87.23L521.33,87.24L524.17,86.52L532.67,82.39L535.5,83.99L538.33,84.02L541.17,82.98L544,77.44L555.33,81.78L558.17,73.91L561,79.71L563.83,80.31L575.17,85.32L578,82.45L580.83,85.9L583.67,82.88L595,79.94L597.83,78.52L603.5,81.66L612,89.28L614.83,87.97L617.67,94.88L631.83,87.78L634.67,90.87L637.5,87.89L640.33,89.83L643.17,89.99L651.67,86.28L654.5,90.02L657.33,86.18L660.17,81.71L663,80.71L671.5,78.77L674.33,80.59L677.17,82.26L680,81.92L682.83,80.79L691.33,86.35L694.17,84.32L697,85.1L699.83,81.14L702.67,80.6L714,88.44L716.83,102.34L719.67,100.69L722.5,101.34L731,96.71L733.83,92.32L736.67,92.26L739.5,89.79L742.33,88.81L750.83,74.36L753.67,68.47L756.5,68.77L759.33,73.99L762.17,68.66L770.67,64.43L773.5,65.95L776.33,71.14L779.17,70.31L782,72.11L790.5,68.42L793.33,63L796.17,65.15L810.33,68.1L813.17,64.96L818.83,61.5L821.67,57.44L830.17,60.54L833,57.38L835.83,57.41L838.67,58.22L841.5,54.42L850,59.12L852.83,55.3L855.67,58.28L858.5,56.18L861.33,55.48L872.67,63.29L875.5,61.23L889.67,56.93L892.5,57.77L895.33,57.03L898.17,54.28L909.5,60.11L912.33,58.45L918,59.08L920.83,55.81L929.33,56.36L932.17,58.08L935,58.08L937.83,60.12L940.67,63.28L952,63.25L954.83,61.33L957.67,62.88L960.5,64.06L969,61.69L971.83,60.33L974.67,70.38L977.5,66.24L980.33,72.81L988.83,71.89L991.67,69.69L994.5,69.36L997.33,66.33L1000.17,62.38L1008.67,59.57L1011.5,58.95L1014.33,59.24L1020,58.59" style="vector-effect: non-scaling-stroke; fill: none; stroke: rgb(255, 151, 255); stroke-opacity: 1; stroke-width: 2px; opacity: 1;"/></g><g class="points"/><g class="text"/></g><g class="trace scatter traceebf3ba" style="stroke-miterlimit: 2; opacity: 1;"><g class="fills"/><g class="errorbars"/><g class="lines"><path class="js-line" d="M0,43.41L2.83,41.7L5.67,43.59L8.5,46.95L17,62.17L19.83,75.15L22.67,76.98L25.5,94.56L28.33,99.83L36.83,80.73L39.67,92.33L42.5,75.01L45.33,89.32L48.17,93.11L56.67,122.83L59.5,105.6L62.33,127.22L65.17,161.95L68,132.65L76.5,176.89L79.33,161.41L82.17,181.16L85,178.38L87.83,191.86L96.33,200.45L99.17,169.26L102,161.95L104.83,142L107.67,155.51L116.17,145.32L119,151.37L121.83,165.74L124.67,158.81L127.5,164.13L136,140.11L138.83,140.5L141.67,128.99L144.5,124.77L155.83,129.62L158.67,121.37L161.5,127.95L164.33,127.45L167.17,117.05L175.67,125.79L178.5,135.11L181.33,128.37L184.17,127.79L187,123.95L195.5,118.66L198.33,119.13L201.17,111.28L204,115.53L206.83,124.71L215.33,124.32L218.17,122.36L221,125.58L223.83,122.46L226.67,115.74L235.17,117.35L240.83,131.73L243.67,126.16L246.5,125.27L255,111.81L257.83,117.58L260.67,112.13L263.5,113.63L266.33,113.77L277.67,105.94L280.5,97.78L283.33,99.96L286.17,100.22L294.67,98.86L297.5,94.91L300.33,87.13L303.17,86.95L306,74.71L314.5,67.9L320.17,76.5L323,103.98L325.83,96.93L334.33,94.61L337.17,86.83L340,89.35L342.83,89.93L345.67,93.01L354.17,90.74L357,88.81L359.83,99.29L362.67,94.87L365.5,105.64L374,97.08L376.83,93.87L379.67,95.02L382.5,93.66L393.83,86.88L396.67,92.73L399.5,90.12L402.33,95.45L405.17,90L413.67,89.85L416.5,81.63L419.33,78.27L422.17,80.27L425,81.19L433.5,81.06L439.17,76.27L442,81.48L444.83,84.18L453.33,82.48L456.17,85.51L459,83.15L461.83,86.48L464.67,84.79L473.17,81.31L476,78.88L478.83,73.38L481.67,70.64L484.5,69.95L493,64.67L495.83,66.21L498.67,61.94L501.5,63.12L504.33,62.61L515.67,64.87L518.5,66.13L521.33,65.43L524.17,62.62L532.67,57.04L535.5,57.93L538.33,56.69L541.17,54.33L544,51.94L552.5,55.25L555.33,52.06L558.17,45.35L561,57.27L563.83,59.63L575.17,68.96L578,62.47L580.83,68.46L583.67,66.53L592.17,61.69L595,61.66L597.83,61.12L600.67,63.04L603.5,66.65L612,74.17L614.83,72.1L617.67,79.85L620.5,79.08L623.33,73.79L631.83,67.73L634.67,69.67L637.5,64.82L640.33,64.3L643.17,66.28L651.67,59.4L654.5,64.95L657.33,57.11L663,52.93L671.5,49.23L677.17,54.01L680,54.3L682.83,52.64L691.33,58.71L694.17,57.04L697,58.48L699.83,56.23L702.67,56.64L714,69.52L716.83,83.44L719.67,81.38L722.5,83.71L731,77.46L733.83,69.27L736.67,63.84L739.5,55.83L742.33,56.82L750.83,44.5L753.67,40.62L756.5,40.97L759.33,45.65L762.17,39.75L770.67,32.81L773.5,35.27L776.33,40.36L779.17,39.7L782,42.95L790.5,38.11L793.33,31.39L796.17,33.96L801.83,33.4L810.33,37.41L813.17,34.67L816,33.79L818.83,32.52L821.67,28.85L830.17,31.04L833,29.51L838.67,32.09L841.5,31.39L850,34.12L852.83,29.13L855.67,29.79L858.5,27.6L861.33,29.43L869.83,28.88L872.67,31.85L875.5,30.16L878.33,29.13L889.67,26.11L892.5,27.12L895.33,26.03L898.17,23.12L909.5,28.77L912.33,26.3L915.17,19.83L918,16.71L920.83,15.87L929.33,17.19L932.17,16.3L935,16.42L937.83,17.44L940.67,20.06L952,18.34L954.83,14.54L957.67,14.72L960.5,17.36L969,17.91L971.83,18.24L974.67,27.6L977.5,23.17L980.33,32.33L988.83,28.95L991.67,21.93L994.5,21.4L997.33,16.49L1008.67,11.62L1011.5,11.77L1014.33,10.85L1017.17,10.96L1020,10.55" style="vector-effect: non-scaling-stroke; fill: none; stroke: rgb(254, 203, 82); stroke-opacity: 1; stroke-width: 2px; opacity: 1;"/></g><g class="points"/><g class="text"/></g></g></g><g class="overplot"/><path class="xlines-above crisp" d="M0,0" style="fill: none;"/><path class="ylines-above crisp" d="M0,0" style="fill: none;"/><g class="overlines-above"/><g class="xaxislayer-above"><g class="xtick"><text text-anchor="middle" x="0" y="284" transform="translate(84,0)" style="font-family: 'Open Sans', verdana, arial, sans-serif; font-size: 12px; fill: rgb(42, 63, 95); fill-opacity: 1; white-space: pre; opacity: 1;">Mar 2020</text></g><g class="xtick"><text text-anchor="middle" x="0" y="284" style="font-family: 'Open Sans', verdana, arial, sans-serif; font-size: 12px; fill: rgb(42, 63, 95); fill-opacity: 1; white-space: pre; opacity: 1;" transform="translate(256.83000000000004,0)">May 2020</text></g><g class="xtick"><text text-anchor="middle" x="0" y="284" style="font-family: 'Open Sans', verdana, arial, sans-serif; font-size: 12px; fill: rgb(42, 63, 95); fill-opacity: 1; white-space: pre; opacity: 1;" transform="translate(429.67,0)">Jul 2020</text></g><g class="xtick"><text text-anchor="middle" x="0" y="284" style="font-family: 'Open Sans', verdana, arial, sans-serif; font-size: 12px; fill: rgb(42, 63, 95); fill-opacity: 1; white-space: pre; opacity: 1;" transform="translate(605.33,0)">Sep 2020</text></g><g class="xtick"><text text-anchor="middle" x="0" y="284" style="font-family: 'Open Sans', verdana, arial, sans-serif; font-size: 12px; fill: rgb(42, 63, 95); fill-opacity: 1; white-space: pre; opacity: 1;" transform="translate(778.17,0)">Nov 2020</text></g><g class="xtick"><text text-anchor="middle" x="0" y="284" style="font-family: 'Open Sans', verdana, arial, sans-serif; font-size: 12px; fill: rgb(42, 63, 95); fill-opacity: 1; white-space: pre; opacity: 1;" transform="translate(951,0)">Jan 2021</text></g></g><g class="yaxislayer-above"><g class="ytick"><text text-anchor="end" x="49" y="4.199999999999999" transform="translate(0,239.67)" style="font-family: 'Open Sans', verdana, arial, sans-serif; font-size: 12px; fill: rgb(42, 63, 95); fill-opacity: 1; white-space: pre; opacity: 1;">20k</text></g><g class="ytick"><text text-anchor="end" x="49" y="4.199999999999999" style="font-family: 'Open Sans', verdana, arial, sans-serif; font-size: 12px; fill: rgb(42, 63, 95); fill-opacity: 1; white-space: pre; opacity: 1;" transform="translate(0,165.87)">25k</text></g><g class="ytick"><text text-anchor="end" x="49" y="4.199999999999999" style="font-family: 'Open Sans', verdana, arial, sans-serif; font-size: 12px; fill: rgb(42, 63, 95); fill-opacity: 1; white-space: pre; opacity: 1;" transform="translate(0,92.07)">30k</text></g></g><g class="overaxes-above"/></g></g><g class="polarlayer"/><g class="ternarylayer"/><g class="geolayer"/><g class="funnelarealayer"/><g class="pielayer"/><g class="iciclelayer"/><g class="treemaplayer"/><g class="sunburstlayer"/><g class="glimages"/><defs id="topdefs-842446"><g class="clips"/><clipPath id="legend842446"><rect width="136" height="200" x="0" y="0"/></clipPath></defs><g class="layer-above"><g class="imagelayer"/><g class="shapelayer"/></g><g class="infolayer"><g class="legend" pointer-events="all" transform="translate(1090.4,60)"><rect class="bg" shape-rendering="crispEdges" width="136" height="200" x="0" y="0" style="stroke: rgb(68, 68, 68); stroke-opacity: 1; fill: rgb(255, 255, 255); fill-opacity: 1; stroke-width: 0px;"/><g class="scrollbox" transform="" clip-path="url(#legend842446)"><g class="groups"><g class="traces" transform="translate(0,14.5)" style="opacity: 1;"><text class="legendtext" text-anchor="start" x="40" y="4.680000000000001" style="font-family: 'Open Sans', verdana, arial, sans-serif; font-size: 12px; fill: rgb(42, 63, 95); fill-opacity: 1; white-space: pre;">Conic γ=0.1</text><g class="layers" style="opacity: 1;"><g class="legendfill"/><g class="legendlines"><path class="js-line" d="M5,0h30" style="fill: none; stroke: rgb(99, 110, 250); stroke-opacity: 1; stroke-width: 2px;"/></g><g class="legendsymbols"><g class="legendpoints"/></g></g><rect class="legendtoggle" x="0" y="-9.5" width="130.8186798095703" height="19" style="fill: rgb(0, 0, 0); fill-opacity: 0;"/></g><g class="traces" transform="translate(0,33.5)" style="opacity: 1;"><text class="legendtext" text-anchor="start" x="40" y="4.680000000000001" style="font-family: 'Open Sans', verdana, arial, sans-serif; font-size: 12px; fill: rgb(42, 63, 95); fill-opacity: 1; white-space: pre;">Conic γ=3.275</text><g class="layers" style="opacity: 1;"><g class="legendfill"/><g class="legendlines"><path class="js-line" d="M5,0h30" style="fill: none; stroke: rgb(239, 85, 59); stroke-opacity: 1; stroke-width: 2px;"/></g><g class="legendsymbols"><g class="legendpoints"/></g></g><rect class="legendtoggle" x="0" y="-9.5" width="130.8186798095703" height="19" style="fill: rgb(0, 0, 0); fill-opacity: 0;"/></g><g class="traces" transform="translate(0,52.5)" style="opacity: 1;"><text class="legendtext" text-anchor="start" x="40" y="4.680000000000001" style="font-family: 'Open Sans', verdana, arial, sans-serif; font-size: 12px; fill: rgb(42, 63, 95); fill-opacity: 1; white-space: pre;">Conic γ=6.45</text><g class="layers" style="opacity: 1;"><g class="legendfill"/><g class="legendlines"><path class="js-line" d="M5,0h30" style="fill: none; stroke: rgb(0, 204, 150); stroke-opacity: 1; stroke-width: 2px;"/></g><g class="legendsymbols"><g class="legendpoints"/></g></g><rect class="legendtoggle" x="0" y="-9.5" width="130.8186798095703" height="19" style="fill: rgb(0, 0, 0); fill-opacity: 0;"/></g><g class="traces" transform="translate(0,71.5)" style="opacity: 1;"><text class="legendtext" text-anchor="start" x="40" y="4.680000000000001" style="font-family: 'Open Sans', verdana, arial, sans-serif; font-size: 12px; fill: rgb(42, 63, 95); fill-opacity: 1; white-space: pre;">Conic γ=9.625</text><g class="layers" style="opacity: 1;"><g class="legendfill"/><g class="legendlines"><path class="js-line" d="M5,0h30" style="fill: none; stroke: rgb(171, 99, 250); stroke-opacity: 1; stroke-width: 2px;"/></g><g class="legendsymbols"><g class="legendpoints"/></g></g><rect class="legendtoggle" x="0" y="-9.5" width="130.8186798095703" height="19" style="fill: rgb(0, 0, 0); fill-opacity: 0;"/></g><g class="traces" transform="translate(0,90.5)" style="opacity: 1;"><text class="legendtext" text-anchor="start" x="40" y="4.680000000000001" style="font-family: 'Open Sans', verdana, arial, sans-serif; font-size: 12px; fill: rgb(42, 63, 95); fill-opacity: 1; white-space: pre;">Conic γ=12.8</text><g class="layers" style="opacity: 1;"><g class="legendfill"/><g class="legendlines"><path class="js-line" d="M5,0h30" style="fill: none; stroke: rgb(255, 161, 90); stroke-opacity: 1; stroke-width: 2px;"/></g><g class="legendsymbols"><g class="legendpoints"/></g></g><rect class="legendtoggle" x="0" y="-9.5" width="130.8186798095703" height="19" style="fill: rgb(0, 0, 0); fill-opacity: 0;"/></g><g class="traces" transform="translate(0,109.5)" style="opacity: 1;"><text class="legendtext" text-anchor="start" x="40" y="4.680000000000001" style="font-family: 'Open Sans', verdana, arial, sans-serif; font-size: 12px; fill: rgb(42, 63, 95); fill-opacity: 1; white-space: pre;">Mean-Variance</text><g class="layers" style="opacity: 1;"><g class="legendfill"/><g class="legendlines"><path class="js-line" d="M5,0h30" style="fill: none; stroke: rgb(25, 211, 243); stroke-opacity: 1; stroke-width: 2px;"/></g><g class="legendsymbols"><g class="legendpoints"/></g></g><rect class="legendtoggle" x="0" y="-9.5" width="130.8186798095703" height="19" style="fill: rgb(0, 0, 0); fill-opacity: 0;"/></g><g class="traces" transform="translate(0,128.5)" style="opacity: 1;"><text class="legendtext" text-anchor="start" x="40" y="4.680000000000001" style="font-family: 'Open Sans', verdana, arial, sans-serif; font-size: 12px; fill: rgb(42, 63, 95); fill-opacity: 1; white-space: pre;">Mean-VaR</text><g class="layers" style="opacity: 1;"><g class="legendfill"/><g class="legendlines"><path class="js-line" d="M5,0h30" style="fill: none; stroke: rgb(255, 102, 146); stroke-opacity: 1; stroke-width: 2px;"/></g><g class="legendsymbols"><g class="legendpoints"/></g></g><rect class="legendtoggle" x="0" y="-9.5" width="130.8186798095703" height="19" style="fill: rgb(0, 0, 0); fill-opacity: 0;"/></g><g class="traces" transform="translate(0,147.5)" style="opacity: 1;"><text class="legendtext" text-anchor="start" x="40" y="4.680000000000001" style="font-family: 'Open Sans', verdana, arial, sans-serif; font-size: 12px; fill: rgb(42, 63, 95); fill-opacity: 1; white-space: pre;">Mean-CVaR 95%</text><g class="layers" style="opacity: 1;"><g class="legendfill"/><g class="legendlines"><path class="js-line" d="M5,0h30" style="fill: none; stroke: rgb(182, 232, 128); stroke-opacity: 1; stroke-width: 2px;"/></g><g class="legendsymbols"><g class="legendpoints"/></g></g><rect class="legendtoggle" x="0" y="-9.5" width="130.8186798095703" height="19" style="fill: rgb(0, 0, 0); fill-opacity: 0;"/></g><g class="traces" transform="translate(0,166.5)" style="opacity: 1;"><text class="legendtext" text-anchor="start" x="40" y="4.680000000000001" style="font-family: 'Open Sans', verdana, arial, sans-serif; font-size: 12px; fill: rgb(42, 63, 95); fill-opacity: 1; white-space: pre;">Mean-CVaR 99%</text><g class="layers" style="opacity: 1;"><g class="legendfill"/><g class="legendlines"><path class="js-line" d="M5,0h30" style="fill: none; stroke: rgb(255, 151, 255); stroke-opacity: 1; stroke-width: 2px;"/></g><g class="legendsymbols"><g class="legendpoints"/></g></g><rect class="legendtoggle" x="0" y="-9.5" width="130.8186798095703" height="19" style="fill: rgb(0, 0, 0); fill-opacity: 0;"/></g><g class="traces" transform="translate(0,185.5)" style="opacity: 1;"><text class="legendtext" text-anchor="start" x="40" y="4.680000000000001" style="font-family: 'Open Sans', verdana, arial, sans-serif; font-size: 12px; fill: rgb(42, 63, 95); fill-opacity: 1; white-space: pre;">DJIA</text><g class="layers" style="opacity: 1;"><g class="legendfill"/><g class="legendlines"><path class="js-line" d="M5,0h30" style="fill: none; stroke: rgb(254, 203, 82); stroke-opacity: 1; stroke-width: 2px;"/></g><g class="legendsymbols"><g class="legendpoints"/></g></g><rect class="legendtoggle" x="0" y="-9.5" width="130.8186798095703" height="19" style="fill: rgb(0, 0, 0); fill-opacity: 0;"/></g></g></g><rect class="scrollbar" rx="20" ry="3" width="0" height="0" x="0" y="0" style="fill: rgb(128, 139, 164); fill-opacity: 1;"/></g><g class="g-gtitle"/><g class="g-xtitle"/><g class="g-ytitle"/></g></svg>