<svg class="main-svg" xmlns="http://www.w3.org/2000/svg" xmlns:xlink="http://www.w3.org/1999/xlink" width="1238" height="321" style=""><rect x="0" y="0" width="1238" height="321" style="fill: rgb(255, 255, 255); fill-opacity: 1;"/><defs id="defs-c997e6"><g class="clips"><clipPath id="clipc997e6xyplot" class="plotclip"><rect width="1020" height="211"/></clipPath><clipPath class="axesclip" id="clipc997e6x"><rect x="50" y="0" width="1020" height="321"/></clipPath><clipPath class="axesclip" id="clipc997e6y"><rect x="0" y="60" width="1238" height="211"/></clipPath><clipPath class="axesclip" id="clipc997e6xy"><rect x="50" y="60" width="1020" height="211"/></clipPath></g><g class="gradients"/><g class="patterns"/></defs><g class="bglayer"><rect class="bg" x="50" y="60" width="1020" height="211" style="fill: rgb(229, 236, 246); fill-opacity: 1; stroke-width: 0;"/></g><g class="layer-below"><g class="imagelayer"/><g class="shapelayer"/></g><g class="cartesianlayer"><g class="subplot xy"><g class="layer-subplot"><g class="shapelayer"/><g class="imagelayer"/></g><g class="gridlayer"><g class="x"><path class="xgrid crisp" transform="translate(84,0)" d="M0,60v211" style="stroke: rgb(255, 255, 255); stroke-opacity: 1; stroke-width: 1px;"/><path class="xgrid crisp" transform="translate(256.83000000000004,0)" d="M0,60v211" style="stroke: rgb(255, 255, 255); stroke-opacity: 1; stroke-width: 1px;"/><path class="xgrid crisp" transform="translate(429.67,0)" d="M0,60v211" style="stroke: rgb(255, 255, 255); stroke-opacity: 1; stroke-width: 1px;"/><path class="xgrid crisp" transform="translate(605.33,0)" d="M0,60v211" style="stroke: rgb(255, 255, 255); stroke-opacity: 1; stroke-width: 1px;"/><path class="xgrid crisp" transform="translate(778.17,0)" d="M0,60v211" style="stroke: rgb(255, 255, 255); stroke-opacity: 1; stroke-width: 1px;"/><path class="xgrid crisp" transform="translate(951,0)" d="M0,60v211" style="stroke: rgb(255, 255, 255); stroke-opacity: 1; stroke-width: 1px;"/></g><g class="y"><path class="ygrid crisp" transform="translate(0,239.67)" d="M50,0h1020" style="stroke: rgb(255, 255, 255); stroke-opacity: 1; stroke-width: 1px;"/><path class="ygrid crisp" transform="translate(0,165.87)" d="M50,0h1020" style="stroke: rgb(255, 255, 255); stroke-opacity: 1; stroke-width: 1px;"/><path class="ygrid crisp" transform="translate(0,92.07)" d="M50,0h1020" style="stroke: rgb(255, 255, 255); stroke-opacity: 1; stroke-width: 1px;"/></g></g><g class="zerolinelayer"/><path class="xlines-below"/><path class="ylines-below"/><g class="overlines-below"/><g class="xaxislayer-below"/><g class="yaxislayer-below"/><g class="overaxes-below"/><g class="plot" transform="translate(50,60)" clip-path="url(#clipc997e6xyplot)"><g class="scatterlayer mlayer"><g class="trace scatter traceca17df" style="stroke-miterlimit: 2; opacity: 1;"><g class="fills"/><g class="errorbars"/><g class="lines"><path class="js-line" d="M0,43.41L2.83,41.84L5.67,42.83L8.5,42.19L17,52.78L19.83,62.51L22.67,65.92L25.5,82.78L28.33,91.23L36.83,72.7L39.67,79.72L42.5,61.81L45.33,75.1L48.17,79.85L56.67,106.5L59.5,90.68L62.33,109.09L65.17,143.32L68,123.38L76.5,162.15L79.33,148.87L82.17,171.57L85,174.65L87.83,187.93L96.33,199.57L99.17,175.15L102,167.57L104.83,149.71L107.67,161.18L116.17,149.9L119,156.63L121.83,168.07L124.67,156.71L127.5,159.85L136,140.25L138.83,143.4L141.67,133.87L144.5,126.87L155.83,131.1L158.67,122.45L161.5,130.11L164.33,133.39L167.17,120.17L175.67,131.1L178.5,136.82L181.33,130.56L184.17,130.99L195.5,122.9L198.33,123.5L201.17,119.24L204,123.72L206.83,129.84L215.33,130.49L218.17,129.88L221,134.81L223.83,132.81L226.67,126.24L235.17,128.1L238,134.2L240.83,140.43L243.67,138.03L246.5,139.25L255,127.26L257.83,133.17L260.67,127.28L263.5,129.31L266.33,129.83L277.67,123.88L280.5,120.08L283.33,119.19L286.17,119.82L294.67,119.39L297.5,118.09L300.33,110.82L303.17,111.8L306,102.57L314.5,96.31L320.17,107.69L323,129.68L325.83,125.35L334.33,124.65L337.17,120.99L340,123.37L342.83,122.67L345.67,126.99L357,127.39L359.83,135.85L362.67,134.39L365.5,143.85L376.83,134.76L379.67,134.97L393.83,130.4L396.67,132.74L399.5,132.32L402.33,139.08L405.17,132.38L413.67,130.94L416.5,124.43L419.33,121.37L422.17,121.65L425,120.67L433.5,123.53L436.33,117.88L439.17,113.18L442,114.36L444.83,115L453.33,115.68L459,115.68L461.83,118.64L464.67,119.74L473.17,121.31L478.83,112.32L481.67,110.56L484.5,108.64L493,106.48L495.83,105.58L498.67,102.83L504.33,100.64L512.83,100.31L515.67,100.33L518.5,103.48L521.33,104.56L524.17,103.15L532.67,98.28L535.5,99.98L538.33,101.21L541.17,100.76L544,95.38L552.5,98.49L555.33,100.22L558.17,93.68L561,98.75L563.83,99.65L575.17,105.03L578,102.68L580.83,105.82L583.67,103.59L592.17,100.89L595,100.83L597.83,98.85L600.67,100.62L612,109.37L614.83,109.31L617.67,115.75L620.5,115.41L623.33,113.04L631.83,108.32L634.67,111.43L637.5,109.22L640.33,110.17L643.17,109.55L651.67,105.92L654.5,109.82L660.17,101.55L663,101.9L671.5,100.53L674.33,103.13L677.17,105.54L680,104.88L682.83,104.46L691.33,109.39L694.17,108.17L697,108.95L699.83,104.33L702.67,103.58L714,111.39L716.83,124.52L719.67,121.98L722.5,123.11L731,118.19L733.83,114.13L739.5,110.23L742.33,109.95L750.83,93.23L753.67,85.75L756.5,86.71L759.33,92.62L762.17,88.89L770.67,83.06L773.5,83.95L776.33,89.2L779.17,88.16L782,90.43L790.5,85.01L793.33,78.75L796.17,81.23L801.83,82.6L810.33,85.77L813.17,82.74L816,80.09L818.83,79.04L821.67,75.61L830.17,78.41L833,75.73L835.83,76.6L838.67,76.75L841.5,74.47L850,78.93L852.83,74.83L855.67,78L858.5,76.21L861.33,76.99L869.83,81.36L872.67,83.76L875.5,80.68L878.33,80.2L889.67,76.4L892.5,77.09L895.33,76.16L898.17,74.1L909.5,79.66L912.33,77.84L915.17,77.63L918,77.39L920.83,74.3L929.33,75.06L932.17,76.3L935,76.16L937.83,78.3L940.67,82.03L952,82.67L954.83,81.16L957.67,82.18L960.5,85.1L969,83.17L971.83,82.55L974.67,94.06L977.5,90.92L980.33,97.29L988.83,96.09L991.67,93.47L994.5,92.53L997.33,88.59L1000.17,86.09L1008.67,83.78L1014.33,82.33L1017.17,82.63L1020,82.03" style="vector-effect: non-scaling-stroke; fill: none; stroke: rgb(25, 211, 243); stroke-opacity: 1; stroke-width: 2px; opacity: 1;"/></g><g class="points"/><g class="text"/></g><g class="trace scatter traceebd412" style="stroke-miterlimit: 2; opacity: 1;"><g class="fills"/><g class="errorbars"/><g class="lines"><path class="js-line" d="M0,43.41L2.83,42.06L5.67,42.95L8.5,41.74L17,51.93L19.83,61.17L22.67,64.53L25.5,81.19L28.33,89.3L36.83,70.6L39.67,77.01L42.5,58.77L45.33,71.72L48.17,76.27L56.67,101.69L59.5,86.61L62.33,105.03L65.17,138.32L68,120.3L76.5,156.01L79.33,141.15L82.17,161.46L85,166.61L87.83,180.74L96.33,192.89L99.17,170.3L102,164.33L104.83,146.31L107.67,156.95L116.17,144.96L119,151.14L121.83,161.79L124.67,150.02L127.5,152.83L136,134.22L138.83,137.66L141.67,127.77L144.5,121.49L155.83,125.48L158.67,115.18L161.5,123.89L164.33,127.56L167.17,114.56L175.67,125.35L178.5,130.48L181.33,123.97L184.17,124.27L195.5,115.93L198.33,116.78L201.17,112.8L204,117.93L206.83,124.29L215.33,124.49L218.17,123.35L221,128.23L223.83,127.09L226.67,120.12L235.17,121.32L238,127.22L240.83,133.4L243.67,131.84L246.5,133.03L255,121.09L257.83,127.08L260.67,121.52L263.5,123.7L266.33,124.08L277.67,118.33L280.5,115.42L283.33,114.14L286.17,114.07L294.67,114.56L297.5,113.19L300.33,106.99L303.17,108.3L306,99.31L314.5,93.34L320.17,104.24L323,126.14L325.83,122.11L334.33,121.78L337.17,118.17L340,120.42L342.83,119.58L345.67,123.41L357,124.41L359.83,132.9L362.67,131.68L365.5,140.66L376.83,131.76L379.67,132.15L382.5,131.04L393.83,127.63L396.67,129.61L399.5,129.46L402.33,136.86L405.17,130.2L413.67,128.51L416.5,121.89L419.33,118.66L422.17,118.58L425,116.97L433.5,120L439.17,109.47L442,110.64L444.83,111.18L453.33,111.78L456.17,111.09L459,111.46L461.83,114.48L464.67,114.96L473.17,116.93L476,111.82L478.83,108.46L481.67,106.86L484.5,105.08L493,102.78L495.83,102.42L498.67,99.42L504.33,97.82L512.83,97.08L515.67,96.8L518.5,100.16L521.33,101.2L524.17,99.45L532.67,94.74L535.5,97.01L538.33,98.46L541.17,98.77L544,93.5L552.5,96.08L555.33,98.7L558.17,92.6L561,97.83L563.83,98.87L575.17,104.15L578,102.22L580.83,105.56L583.67,103.27L595,100.5L597.83,98.26L603.5,101.56L612,108.07L614.83,108.09L617.67,114.78L620.5,114.36L623.33,112.51L631.83,107.94L634.67,111.33L637.5,109.22L640.33,110.83L643.17,110.29L651.67,106.83L654.5,110.52L657.33,107.2L660.17,102.28L663,103.02L671.5,101.46L674.33,104.8L677.17,106.94L680,106.4L682.83,105.95L691.33,110.76L694.17,109.37L697,110.06L699.83,105.64L702.67,104.78L711.17,109.6L714,112.33L716.83,125.6L719.67,122.82L722.5,124.01L731,118.67L733.83,115.36L736.67,114.24L739.5,112.43L742.33,111.77L750.83,94.92L753.67,86.39L756.5,87.33L759.33,93.64L762.17,89.54L770.67,84.34L773.5,85.79L776.33,91L779.17,89.86L782,92.04L790.5,87.15L793.33,81.34L796.17,83.61L801.83,84.93L810.33,87.93L813.17,84.51L816,81.59L818.83,80.22L821.67,76.22L830.17,79.24L833,75.94L835.83,76.42L838.67,76.21L841.5,74.46L850,79.63L852.83,75.58L855.67,79.29L858.5,76.98L861.33,77.66L869.83,82.81L872.67,85.49L875.5,82.34L878.33,81.84L889.67,78.11L892.5,78.9L895.33,77.7L898.17,75.94L909.5,80.83L912.33,79.01L915.17,79.55L918,79.49L920.83,76.13L929.33,76.34L932.17,77.38L935,76.98L937.83,78.79L940.67,82.67L952,83.87L954.83,82.51L957.67,83.3L960.5,86.01L969,83.44L971.83,82.16L974.67,93.1L977.5,90.97L980.33,97.58L988.83,96.57L991.67,94.77L994.5,93.95L997.33,89.46L1000.17,86.37L1008.67,84.1L1014.33,82.67L1017.17,83.36L1020,82.54" style="vector-effect: non-scaling-stroke; fill: none; stroke: rgb(255, 102, 146); stroke-opacity: 1; stroke-width: 2px; opacity: 1;"/></g><g class="points"/><g class="text"/></g><g class="trace scatter trace3ccf30" style="stroke-miterlimit: 2; opacity: 1;"><g class="fills"/><g class="errorbars"/><g class="lines"><path class="js-line" d="M0,43.41L2.83,42.05L5.67,43L8.5,41.73L17,51.85L19.83,61.08L22.67,64.52L25.5,81.12L28.33,89.23L36.83,70.54L39.67,76.96L42.5,58.73L45.33,71.68L48.17,76.11L56.67,101.43L59.5,86.41L62.33,104.87L65.17,138.26L68,120.45L76.5,156.06L79.33,141.25L82.17,161.59L85,166.61L87.83,180.81L96.33,192.96L99.17,170.42L102,164.41L104.83,146.48L107.67,157.05L116.17,145.08L119,151.25L121.83,161.87L124.67,150.16L127.5,153.02L136,134.41L138.83,137.75L141.67,127.84L144.5,121.58L155.83,125.6L158.67,115.29L161.5,123.93L164.33,127.61L167.17,114.69L175.67,125.5L178.5,130.57L181.33,124.1L184.17,124.42L195.5,116.16L198.33,116.99L201.17,113.05L204,118.26L206.83,124.66L215.33,124.91L218.17,123.83L221,128.71L223.83,127.49L226.67,120.56L235.17,121.79L238,127.71L240.83,133.89L243.67,132.42L246.5,133.56L255,121.54L257.83,127.51L260.67,121.94L263.5,124.07L266.33,124.43L277.67,118.62L280.5,115.69L283.33,114.45L286.17,114.43L294.67,114.8L297.5,113.46L300.33,107.22L303.17,108.45L306,99.48L314.5,93.48L320.17,104.41L323,126.35L325.83,122.3L334.33,121.94L337.17,118.36L340,120.6L342.83,119.73L345.67,123.57L357,124.56L359.83,133.09L362.67,131.89L365.5,140.93L376.83,132.01L379.67,132.38L382.5,131.31L393.83,127.84L396.67,129.82L399.5,129.64L402.33,137.07L405.17,130.41L413.67,128.72L416.5,122.03L419.33,118.79L422.17,118.7L425,117.13L433.5,120.16L439.17,109.71L442,110.97L444.83,111.47L453.33,112.1L456.17,111.45L459,111.86L461.83,114.88L464.67,115.38L473.17,117.35L476,112.24L478.83,108.74L481.67,107.14L484.5,105.34L493,103.09L495.83,102.69L498.67,99.74L504.33,98.02L512.83,97.32L515.67,97.02L518.5,100.37L521.33,101.42L524.17,99.68L532.67,94.94L535.5,97.2L538.33,98.64L541.17,98.92L544,93.64L552.5,96.22L555.33,98.82L558.17,92.67L561,97.85L563.83,98.89L575.17,104.11L578,102.23L580.83,105.55L583.67,103.29L595,100.59L597.83,98.29L603.5,101.59L612,108.12L614.83,108.15L617.67,114.81L620.5,114.31L623.33,112.49L631.83,107.94L634.67,111.33L637.5,109.26L640.33,110.89L643.17,110.34L651.67,106.89L654.5,110.59L657.33,107.28L660.17,102.37L663,103.07L671.5,101.52L674.33,104.87L677.17,107.03L680,106.52L682.83,106.09L691.33,110.87L694.17,109.42L697,110.01L699.83,105.61L702.67,104.76L711.17,109.6L714,112.36L716.83,125.55L719.67,122.76L722.5,123.98L731,118.68L733.83,115.35L736.67,114.25L739.5,112.43L742.33,111.74L750.83,94.81L753.67,86.25L756.5,87.25L759.33,93.59L762.17,89.53L770.67,84.32L773.5,85.7L776.33,90.89L779.17,89.78L782,91.97L790.5,87.09L793.33,81.3L796.17,83.56L801.83,84.94L810.33,87.98L813.17,84.54L816,81.61L818.83,80.2L821.67,76.17L830.17,79.23L833,75.93L835.83,76.33L838.67,76.1L841.5,74.18L850,79.37L852.83,75.25L855.67,78.98L858.5,76.64L861.33,77.3L869.83,82.47L872.67,85.15L875.5,81.99L878.33,81.47L889.67,77.66L892.5,78.45L895.33,77.18L898.17,75.39L909.5,80.36L912.33,78.57L915.17,79.09L918,79.1L920.83,75.77L929.33,76.06L932.17,77.15L935,76.71L937.83,78.51L940.67,82.4L952,83.61L954.83,82.22L957.67,82.97L960.5,85.73L969,83.19L971.83,81.87L974.67,92.86L977.5,90.74L980.33,97.36L988.83,96.32L991.67,94.46L994.5,93.7L997.33,89.18L1000.17,86.07L1008.67,83.75L1014.33,82.21L1017.17,82.89L1020,82.11" style="vector-effect: non-scaling-stroke; fill: none; stroke: rgb(182, 232, 128); stroke-opacity: 1; stroke-width: 2px; opacity: 1;"/></g><g class="points"/><g class="text"/></g><g class="trace scatter tracee659b0" style="stroke-miterlimit: 2; opacity: 1;"><g class="fills"/><g class="errorbars"/><g class="lines"><path class="js-line" d="M0,43.41L2.83,42.13L5.67,43.18L8.5,41.57L17,51.55L19.83,60.41L22.67,64.01L25.5,80.38L28.33,88.27L36.83,69.77L39.67,75.94L42.5,57.75L45.33,70.86L48.17,74.78L56.67,99.65L59.5,84.46L62.33,102.78L65.17,135.64L68,119.01L76.5,153.54L79.33,138.89L82.17,158.72L85,163.25L87.83,178.03L96.33,191.35L99.17,168.72L102,162.73L104.83,145.1L107.67,155.69L116.17,143.11L119,149.09L121.83,159.08L124.67,147.35L127.5,150.36L136,131.82L138.83,135.44L141.67,125.35L144.5,119.02L155.83,123.13L158.67,112.09L161.5,120.18L164.33,123.22L167.17,110.81L175.67,121.58L178.5,126.6L181.33,120.04L184.17,120.38L195.5,111.96L198.33,113.31L201.17,110.09L204,115.2L206.83,121.55L215.33,122.05L218.17,120.98L221,125.63L223.83,124.7L226.67,118.09L235.17,118.95L238,124.89L240.83,130.67L243.67,129.61L246.5,130.44L255,118.58L257.83,124.42L260.67,119.07L263.5,121.16L266.33,121.6L277.67,115.73L280.5,113.24L283.33,111.78L286.17,112.01L294.67,112.3L297.5,111.32L300.33,105.27L303.17,106.97L306,98.37L314.5,92.7L320.17,103.34L323,124.96L325.83,121.22L334.33,120.92L337.17,117.4L340,119.51L342.83,118.56L345.67,122.44L357,123.15L359.83,131.63L362.67,130.65L365.5,139.85L376.83,130.97L379.67,130.86L393.83,126.3L396.67,127.97L399.5,127.72L402.33,135.09L405.17,128.59L413.67,126.79L416.5,119.97L419.33,116.66L422.17,116.54L425,115.04L433.5,118.01L436.33,112.61L439.17,107.56L442,108.99L453.33,109.73L456.17,108.99L459,109.7L461.83,112.6L473.17,115.02L476,109.95L478.83,105.93L481.67,104.26L484.5,102.53L493,100.74L495.83,100.3L498.67,97.05L504.33,94.87L512.83,93.86L515.67,93.39L518.5,96.75L521.33,97.83L524.17,96.06L532.67,91.57L535.5,93.78L538.33,95.01L541.17,95.32L544,89.73L552.5,92.55L555.33,95.14L558.17,88.81L561,94.03L563.83,95.3L575.17,100.12L578,98.16L580.83,101.32L583.67,99.12L595,96.76L597.83,94.22L603.5,97.39L612,103.93L614.83,103.98L617.67,110.24L620.5,109.54L623.33,107.95L631.83,103.71L634.67,107.05L637.5,105.15L640.33,106.99L643.17,106.26L651.67,102.98L654.5,106.65L657.33,103.43L660.17,98.77L663,99.29L671.5,97.75L674.33,100.72L677.17,102.93L680,102.48L682.83,101.97L691.33,106.82L694.17,105.44L697,105.89L699.83,101.51L702.67,100.04L711.17,104.79L714,107.57L716.83,121.35L719.67,118.51L722.5,119.63L731,114.54L733.83,111.14L736.67,109.59L742.33,107.07L750.83,90.79L753.67,82.28L756.5,83.17L759.33,89.55L762.17,85.86L770.67,80.87L773.5,81.95L776.33,86.83L779.17,85.79L782,87.97L790.5,83.2L793.33,77.64L796.17,80L810.33,84.38L813.17,81.07L816,78.44L818.83,77.3L821.67,73.18L830.17,76.24L833,72.73L835.83,72.92L838.67,72.82L841.5,69.83L850,75.32L852.83,71.18L855.67,74.98L858.5,72.4L861.33,72.85L869.83,77.84L872.67,80.43L875.5,77.2L878.33,76.69L889.67,72.53L892.5,73.41L895.33,71.88L898.17,70.01L909.5,75.08L912.33,73.38L915.17,74.14L918,74.18L920.83,70.68L929.33,70.91L932.17,72.53L935,72.41L937.83,74.5L940.67,78.43L952,79.98L954.83,78.72L957.67,79.75L960.5,82.18L969,79.51L971.83,77.41L974.67,88.94L977.5,86.59L980.33,93.19L988.83,92.01L991.67,90.04L994.5,89.44L997.33,85.35L1000.17,82.15L1008.67,79.82L1014.33,77.8L1017.17,78.48L1020,77.88" style="vector-effect: non-scaling-stroke; fill: none; stroke: rgb(255, 151, 255); stroke-opacity: 1; stroke-width: 2px; opacity: 1;"/></g><g class="points"/><g class="text"/></g><g class="trace scatter trace21b23f" style="stroke-miterlimit: 2; opacity: 1;"><g class="fills"/><g class="errorbars"/><g class="lines"><path class="js-line" d="M0,43.41L2.83,41.7L5.67,43.59L8.5,46.95L17,62.17L19.83,75.15L22.67,76.98L25.5,94.56L28.33,99.83L36.83,80.73L39.67,92.33L42.5,75.01L45.33,89.32L48.17,93.11L56.67,122.83L59.5,105.6L62.33,127.22L65.17,161.95L68,132.65L76.5,176.89L79.33,161.41L82.17,181.16L85,178.38L87.83,191.86L96.33,200.45L99.17,169.26L102,161.95L104.83,142L107.67,155.51L116.17,145.32L119,151.37L121.83,165.74L124.67,158.81L127.5,164.13L136,140.11L138.83,140.5L141.67,128.99L144.5,124.77L155.83,129.62L158.67,121.37L161.5,127.95L164.33,127.45L167.17,117.05L175.67,125.79L178.5,135.11L181.33,128.37L184.17,127.79L187,123.95L195.5,118.66L198.33,119.13L201.17,111.28L204,115.53L206.83,124.71L215.33,124.32L218.17,122.36L221,125.58L223.83,122.46L226.67,115.74L235.17,117.35L240.83,131.73L243.67,126.16L246.5,125.27L255,111.81L257.83,117.58L260.67,112.13L263.5,113.63L266.33,113.77L277.67,105.94L280.5,97.78L283.33,99.96L286.17,100.22L294.67,98.86L297.5,94.91L300.33,87.13L303.17,86.95L306,74.71L314.5,67.9L320.17,76.5L323,103.98L325.83,96.93L334.33,94.61L337.17,86.83L340,89.35L342.83,89.93L345.67,93.01L354.17,90.74L357,88.81L359.83,99.29L362.67,94.87L365.5,105.64L374,97.08L376.83,93.87L379.67,95.02L382.5,93.66L393.83,86.88L396.67,92.73L399.5,90.12L402.33,95.45L405.17,90L413.67,89.85L416.5,81.63L419.33,78.27L422.17,80.27L425,81.19L433.5,81.06L439.17,76.27L442,81.48L444.83,84.18L453.33,82.48L456.17,85.51L459,83.15L461.83,86.48L464.67,84.79L473.17,81.31L476,78.88L478.83,73.38L481.67,70.64L484.5,69.95L493,64.67L495.83,66.21L498.67,61.94L501.5,63.12L504.33,62.61L515.67,64.87L518.5,66.13L521.33,65.43L524.17,62.62L532.67,57.04L535.5,57.93L538.33,56.69L541.17,54.33L544,51.94L552.5,55.25L555.33,52.06L558.17,45.35L561,57.27L563.83,59.63L575.17,68.96L578,62.47L580.83,68.46L583.67,66.53L592.17,61.69L595,61.66L597.83,61.12L600.67,63.04L603.5,66.65L612,74.17L614.83,72.1L617.67,79.85L620.5,79.08L623.33,73.79L631.83,67.73L634.67,69.67L637.5,64.82L640.33,64.3L643.17,66.28L651.67,59.4L654.5,64.95L657.33,57.11L663,52.93L671.5,49.23L677.17,54.01L680,54.3L682.83,52.64L691.33,58.71L694.17,57.04L697,58.48L699.83,56.23L702.67,56.64L714,69.52L716.83,83.44L719.67,81.38L722.5,83.71L731,77.46L733.83,69.27L736.67,63.84L739.5,55.83L742.33,56.82L750.83,44.5L753.67,40.62L756.5,40.97L759.33,45.65L762.17,39.75L770.67,32.81L773.5,35.27L776.33,40.36L779.17,39.7L782,42.95L790.5,38.11L793.33,31.39L796.17,33.96L801.83,33.4L810.33,37.41L813.17,34.67L816,33.79L818.83,32.52L821.67,28.85L830.17,31.04L833,29.51L838.67,32.09L841.5,31.39L850,34.12L852.83,29.13L855.67,29.79L858.5,27.6L861.33,29.43L869.83,28.88L872.67,31.85L875.5,30.16L878.33,29.13L889.67,26.11L892.5,27.12L895.33,26.03L898.17,23.12L909.5,28.77L912.33,26.3L915.17,19.83L918,16.71L920.83,15.87L929.33,17.19L932.17,16.3L935,16.42L937.83,17.44L940.67,20.06L952,18.34L954.83,14.54L957.67,14.72L960.5,17.36L969,17.91L971.83,18.24L974.67,27.6L977.5,23.17L980.33,32.33L988.83,28.95L991.67,21.93L994.5,21.4L997.33,16.49L1008.67,11.62L1011.5,11.77L1014.33,10.85L1017.17,10.96L1020,10.55" style="vector-effect: non-scaling-stroke; fill: none; stroke: rgb(254, 203, 82); stroke-opacity: 1; stroke-width: 2px; opacity: 1;"/></g><g class="points"/><g class="text"/></g></g></g><g class="overplot"/><path class="xlines-above crisp" d="M0,0" style="fill: none;"/><path class="ylines-above crisp" d="M0,0" style="fill: none;"/><g class="overlines-above"/><g class="xaxislayer-above"><g class="xtick"><text text-anchor="middle" x="0" y="284" transform="translate(84,0)" style="font-family: 'Open Sans', verdana, arial, sans-serif; font-size: 12px; fill: rgb(42, 63, 95); fill-opacity: 1; white-space: pre; opacity: 1;">Mar 2020</text></g><g class="xtick"><text text-anchor="middle" x="0" y="284" style="font-family: 'Open Sans', verdana, arial, sans-serif; font-size: 12px; fill: rgb(42, 63, 95); fill-opacity: 1; white-space: pre; opacity: 1;" transform="translate(256.83000000000004,0)">May 2020</text></g><g class="xtick"><text text-anchor="middle" x="0" y="284" style="font-family: 'Open Sans', verdana, arial, sans-serif; font-size: 12px; fill: rgb(42, 63, 95); fill-opacity: 1; white-space: pre; opacity: 1;" transform="translate(429.67,0)">Jul 2020</text></g><g class="xtick"><text text-anchor="middle" x="0" y="284" style="font-family: 'Open Sans', verdana, arial, sans-serif; font-size: 12px; fill: rgb(42, 63, 95); fill-opacity: 1; white-space: pre; opacity: 1;" transform="translate(605.33,0)">Sep 2020</text></g><g class="xtick"><text text-anchor="middle" x="0" y="284" style="font-family: 'Open Sans', verdana, arial, sans-serif; font-size: 12px; fill: rgb(42, 63, 95); fill-opacity: 1; white-space: pre; opacity: 1;" transform="translate(778.17,0)">Nov 2020</text></g><g class="xtick"><text text-anchor="middle" x="0" y="284" style="font-family: 'Open Sans', verdana, arial, sans-serif; font-size: 12px; fill: rgb(42, 63, 95); fill-opacity: 1; white-space: pre; opacity: 1;" transform="translate(951,0)">Jan 2021</text></g></g><g class="yaxislayer-above"><g class="ytick"><text text-anchor="end" x="49" y="4.199999999999999" transform="translate(0,239.67)" style="font-family: 'Open Sans', verdana, arial, sans-serif; font-size: 12px; fill: rgb(42, 63, 95); fill-opacity: 1; white-space: pre; opacity: 1;">20k</text></g><g class="ytick"><text text-anchor="end" x="49" y="4.199999999999999" style="font-family: 'Open Sans', verdana, arial, sans-serif; font-size: 12px; fill: rgb(42, 63, 95); fill-opacity: 1; white-space: pre; opacity: 1;" transform="translate(0,165.87)">25k</text></g><g class="ytick"><text text-anchor="end" x="49" y="4.199999999999999" style="font-family: 'Open Sans', verdana, arial, sans-serif; font-size: 12px; fill: rgb(42, 63, 95); fill-opacity: 1; white-space: pre; opacity: 1;" transform="translate(0,92.07)">30k</text></g></g><g class="overaxes-above"/></g></g><g class="polarlayer"/><g class="ternarylayer"/><g class="geolayer"/><g class="funnelarealayer"/><g class="pielayer"/><g class="iciclelayer"/><g class="treemaplayer"/><g class="sunburstlayer"/><g class="glimages"/><defs id="topdefs-c997e6"><g class="clips"/><clipPath id="legendc997e6"><rect width="136" height="200" x="0" y="0"/></clipPath></defs><g class="layer-above"><g class="imagelayer"/><g class="shapelayer"/></g><g class="infolayer"><g class="legend" pointer-events="all" transform="translate(1090.4,60)"><rect class="bg" shape-rendering="crispEdges" width="136" height="200" x="0" y="0" style="stroke: rgb(68, 68, 68); stroke-opacity: 1; fill: rgb(255, 255, 255); fill-opacity: 1; stroke-width: 0px;"/><g class="scrollbox" transform="" clip-path="url(#legendc997e6)"><g class="groups"><g class="traces" transform="translate(0,14.5)" style="opacity: 0.5;"><text class="legendtext" text-anchor="start" x="40" y="4.680000000000001" style="font-family: 'Open Sans', verdana, arial, sans-serif; font-size: 12px; fill: rgb(42, 63, 95); fill-opacity: 1; white-space: pre;">Conic γ=0.1</text><g class="layers" style="opacity: 1;"><g class="legendfill"/><g class="legendlines"><path class="js-line" d="M5,0h30" style="fill: none; stroke: rgb(99, 110, 250); stroke-opacity: 1; stroke-width: 2px;"/></g><g class="legendsymbols"><g class="legendpoints"/></g></g><rect class="legendtoggle" x="0" y="-9.5" width="130.8186798095703" height="19" style="fill: rgb(0, 0, 0); fill-opacity: 0;"/></g><g class="traces" transform="translate(0,33.5)" style="opacity: 0.5;"><text class="legendtext" text-anchor="start" x="40" y="4.680000000000001" style="font-family: 'Open Sans', verdana, arial, sans-serif; font-size: 12px; fill: rgb(42, 63, 95); fill-opacity: 1; white-space: pre;">Conic γ=3.275</text><g class="layers" style="opacity: 1;"><g class="legendfill"/><g class="legendlines"><path class="js-line" d="M5,0h30" style="fill: none; stroke: rgb(239, 85, 59); stroke-opacity: 1; stroke-width: 2px;"/></g><g class="legendsymbols"><g class="legendpoints"/></g></g><rect class="legendtoggle" x="0" y="-9.5" width="130.8186798095703" height="19" style="fill: rgb(0, 0, 0); fill-opacity: 0;"/></g><g class="traces" transform="translate(0,52.5)" style="opacity: 0.5;"><text class="legendtext" text-anchor="start" x="40" y="4.680000000000001" style="font-family: 'Open Sans', verdana, arial, sans-serif; font-size: 12px; fill: rgb(42, 63, 95); fill-opacity: 1; white-space: pre;">Conic γ=6.45</text><g class="layers" style="opacity: 1;"><g class="legendfill"/><g class="legendlines"><path class="js-line" d="M5,0h30" style="fill: none; stroke: rgb(0, 204, 150); stroke-opacity: 1; stroke-width: 2px;"/></g><g class="legendsymbols"><g class="legendpoints"/></g></g><rect class="legendtoggle" x="0" y="-9.5" width="130.8186798095703" height="19" style="fill: rgb(0, 0, 0); fill-opacity: 0;"/></g><g class="traces" transform="translate(0,71.5)" style="opacity: 0.5;"><text class="legendtext" text-anchor="start" x="40" y="4.680000000000001" style="font-family: 'Open Sans', verdana, arial, sans-serif; font-size: 12px; fill: rgb(42, 63, 95); fill-opacity: 1; white-space: pre;">Conic γ=9.625</text><g class="layers" style="opacity: 1;"><g class="legendfill"/><g class="legendlines"><path class="js-line" d="M5,0h30" style="fill: none; stroke: rgb(171, 99, 250); stroke-opacity: 1; stroke-width: 2px;"/></g><g class="legendsymbols"><g class="legendpoints"/></g></g><rect class="legendtoggle" x="0" y="-9.5" width="130.8186798095703" height="19" style="fill: rgb(0, 0, 0); fill-opacity: 0;"/></g><g class="traces" transform="translate(0,90.5)" style="opacity: 0.5;"><text class="legendtext" text-anchor="start" x="40" y="4.680000000000001" style="font-family: 'Open Sans', verdana, arial, sans-serif; font-size: 12px; fill: rgb(42, 63, 95); fill-opacity: 1; white-space: pre;">Conic γ=12.8</text><g class="layers" style="opacity: 1;"><g class="legendfill"/><g class="legendlines"><path class="js-line" d="M5,0h30" style="fill: none; stroke: rgb(255, 161, 90); stroke-opacity: 1; stroke-width: 2px;"/></g><g class="legendsymbols"><g class="legendpoints"/></g></g><rect class="legendtoggle" x="0" y="-9.5" width="130.8186798095703" height="19" style="fill: rgb(0, 0, 0); fill-opacity: 0;"/></g><g class="traces" transform="translate(0,109.5)" style="opacity: 1;"><text class="legendtext" text-anchor="start" x="40" y="4.680000000000001" style="font-family: 'Open Sans', verdana, arial, sans-serif; font-size: 12px; fill: rgb(42, 63, 95); fill-opacity: 1; white-space: pre;">Mean-Variance</text><g class="layers" style="opacity: 1;"><g class="legendfill"/><g class="legendlines"><path class="js-line" d="M5,0h30" style="fill: none; stroke: rgb(25, 211, 243); stroke-opacity: 1; stroke-width: 2px;"/></g><g class="legendsymbols"><g class="legendpoints"/></g></g><rect class="legendtoggle" x="0" y="-9.5" width="130.8186798095703" height="19" style="fill: rgb(0, 0, 0); fill-opacity: 0;"/></g><g class="traces" transform="translate(0,128.5)" style="opacity: 1;"><text class="legendtext" text-anchor="start" x="40" y="4.680000000000001" style="font-family: 'Open Sans', verdana, arial, sans-serif; font-size: 12px; fill: rgb(42, 63, 95); fill-opacity: 1; white-space: pre;">Mean-VaR</text><g class="layers" style="opacity: 1;"><g class="legendfill"/><g class="legendlines"><path class="js-line" d="M5,0h30" style="fill: none; stroke: rgb(255, 102, 146); stroke-opacity: 1; stroke-width: 2px;"/></g><g class="legendsymbols"><g class="legendpoints"/></g></g><rect class="legendtoggle" x="0" y="-9.5" width="130.8186798095703" height="19" style="fill: rgb(0, 0, 0); fill-opacity: 0;"/></g><g class="traces" transform="translate(0,147.5)" style="opacity: 1;"><text class="legendtext" text-anchor="start" x="40" y="4.680000000000001" style="font-family: 'Open Sans', verdana, arial, sans-serif; font-size: 12px; fill: rgb(42, 63, 95); fill-opacity: 1; white-space: pre;">Mean-CVaR 95%</text><g class="layers" style="opacity: 1;"><g class="legendfill"/><g class="legendlines"><path class="js-line" d="M5,0h30" style="fill: none; stroke: rgb(182, 232, 128); stroke-opacity: 1; stroke-width: 2px;"/></g><g class="legendsymbols"><g class="legendpoints"/></g></g><rect class="legendtoggle" x="0" y="-9.5" width="130.8186798095703" height="19" style="fill: rgb(0, 0, 0); fill-opacity: 0;"/></g><g class="traces" transform="translate(0,166.5)" style="opacity: 1;"><text class="legendtext" text-anchor="start" x="40" y="4.680000000000001" style="font-family: 'Open Sans', verdana, arial, sans-serif; font-size: 12px; fill: rgb(42, 63, 95); fill-opacity: 1; white-space: pre;">Mean-CVaR 99%</text><g class="layers" style="opacity: 1;"><g class="legendfill"/><g class="legendlines"><path class="js-line" d="M5,0h30" style="fill: none; stroke: rgb(255, 151, 255); stroke-opacity: 1; stroke-width: 2px;"/></g><g class="legendsymbols"><g class="legendpoints"/></g></g><rect class="legendtoggle" x="0" y="-9.5" width="130.8186798095703" height="19" style="fill: rgb(0, 0, 0); fill-opacity: 0;"/></g><g class="traces" transform="translate(0,185.5)" style="opacity: 1;"><text class="legendtext" text-anchor="start" x="40" y="4.680000000000001" style="font-family: 'Open Sans', verdana, arial, sans-serif; font-size: 12px; fill: rgb(42, 63, 95); fill-opacity: 1; white-space: pre;">DJIA</text><g class="layers" style="opacity: 1;"><g class="legendfill"/><g class="legendlines"><path class="js-line" d="M5,0h30" style="fill: none; stroke: rgb(254, 203, 82); stroke-opacity: 1; stroke-width: 2px;"/></g><g class="legendsymbols"><g class="legendpoints"/></g></g><rect class="legendtoggle" x="0" y="-9.5" width="130.8186798095703" height="19" style="fill: rgb(0, 0, 0); fill-opacity: 0;"/></g></g></g><rect class="scrollbar" rx="20" ry="3" width="0" height="0" x="0" y="0" style="fill: rgb(128, 139, 164); fill-opacity: 1;"/></g><g class="g-gtitle"/><g class="g-xtitle"/><g class="g-ytitle"/></g></svg>