<svg class="main-svg" xmlns="http://www.w3.org/2000/svg" xmlns:xlink="http://www.w3.org/1999/xlink" width="1238" height="321" style=""><rect x="0" y="0" width="1238" height="321" style="fill: rgb(255, 255, 255); fill-opacity: 1;"/><defs id="defs-f240c9"><g class="clips"><clipPath id="clipf240c9xyplot" class="plotclip"><rect width="1020" height="211"/></clipPath><clipPath class="axesclip" id="clipf240c9x"><rect x="50" y="0" width="1020" height="321"/></clipPath><clipPath class="axesclip" id="clipf240c9y"><rect x="0" y="60" width="1238" height="211"/></clipPath><clipPath class="axesclip" id="clipf240c9xy"><rect x="50" y="60" width="1020" height="211"/></clipPath></g><g class="gradients"/><g class="patterns"/></defs><g class="bglayer"><rect class="bg" x="50" y="60" width="1020" height="211" style="fill: rgb(229, 236, 246); fill-opacity: 1; stroke-width: 0;"/></g><g class="layer-below"><g class="imagelayer"/><g class="shapelayer"/></g><g class="cartesianlayer"><g class="subplot xy"><g class="layer-subplot"><g class="shapelayer"/><g class="imagelayer"/></g><g class="gridlayer"><g class="x"><path class="xgrid crisp" transform="translate(85.28999999999999,0)" d="M0,60v211" style="stroke: rgb(255, 255, 255); stroke-opacity: 1; stroke-width: 1px;"/><path class="xgrid crisp" transform="translate(190.02,0)" d="M0,60v211" style="stroke: rgb(255, 255, 255); stroke-opacity: 1; stroke-width: 1px;"/><path class="xgrid crisp" transform="translate(292.48,0)" d="M0,60v211" style="stroke: rgb(255, 255, 255); stroke-opacity: 1; stroke-width: 1px;"/><path class="xgrid crisp" transform="translate(396.07,0)" d="M0,60v211" style="stroke: rgb(255, 255, 255); stroke-opacity: 1; stroke-width: 1px;"/><path class="xgrid crisp" transform="translate(500.8,0)" d="M0,60v211" style="stroke: rgb(255, 255, 255); stroke-opacity: 1; stroke-width: 1px;"/><path class="xgrid crisp" transform="translate(605.54,0)" d="M0,60v211" style="stroke: rgb(255, 255, 255); stroke-opacity: 1; stroke-width: 1px;"/><path class="xgrid crisp" transform="translate(709.13,0)" d="M0,60v211" style="stroke: rgb(255, 255, 255); stroke-opacity: 1; stroke-width: 1px;"/><path class="xgrid crisp" transform="translate(812.72,0)" d="M0,60v211" style="stroke: rgb(255, 255, 255); stroke-opacity: 1; stroke-width: 1px;"/><path class="xgrid crisp" transform="translate(917.46,0)" d="M0,60v211" style="stroke: rgb(255, 255, 255); stroke-opacity: 1; stroke-width: 1px;"/><path class="xgrid crisp" transform="translate(1022.19,0)" d="M0,60v211" style="stroke: rgb(255, 255, 255); stroke-opacity: 1; stroke-width: 1px;"/></g><g class="y"><path class="ygrid crisp" transform="translate(0,241.08)" d="M50,0h1020" style="stroke: rgb(255, 255, 255); stroke-opacity: 1; stroke-width: 1px;"/><path class="ygrid crisp" transform="translate(0,172.29000000000002)" d="M50,0h1020" style="stroke: rgb(255, 255, 255); stroke-opacity: 1; stroke-width: 1px;"/><path class="ygrid crisp" transform="translate(0,103.5)" d="M50,0h1020" style="stroke: rgb(255, 255, 255); stroke-opacity: 1; stroke-width: 1px;"/></g></g><g class="zerolinelayer"/><path class="xlines-below"/><path class="ylines-below"/><g class="overlines-below"/><g class="xaxislayer-below"/><g class="yaxislayer-below"/><g class="overaxes-below"/><g class="plot" transform="translate(50,60)" clip-path="url(#clipf240c9xyplot)"><g class="scatterlayer mlayer"><g class="trace scatter trace895a52" style="stroke-miterlimit: 2; opacity: 1;"><g class="fills"/><g class="errorbars"/><g class="lines"><path class="js-line" d="M0,99.01L4.55,100.05L5.69,96.61L12.52,93.97L13.66,92.6L20.49,92.75L21.63,92.28L23.91,86.02L27.32,88.67L29.6,89.67L30.74,88.61L35.29,86.89L36.43,85.41L37.57,87.51L38.71,87.8L39.84,88.18L43.26,85.28L44.4,83.76L45.54,90.11L46.67,100.13L47.81,97.98L51.23,98.02L52.37,93.71L53.5,91.17L54.64,92.46L55.78,87.54L59.2,89.39L60.33,85.27L61.47,88.45L62.61,88L63.75,92.16L67.17,90.46L68.3,83.23L70.58,83.41L71.72,82.06L76.27,75.02L77.41,70.85L78.55,70.74L79.69,69.01L83.1,71.01L84.24,72.64L85.38,74.03L86.52,73.01L87.66,69.46L91.07,68.61L92.21,76.6L93.35,78.89L95.63,80.19L99.04,77.81L101.32,69.24L102.46,69.27L103.59,64.4L107.01,67.04L108.15,71.38L110.42,72.02L111.56,76.46L114.98,75.25L116.12,74.45L117.25,75.63L118.39,72.68L119.53,79.27L125.22,92.47L126.36,98.42L127.5,100.03L130.92,111.56L134.33,95.77L135.47,96.84L138.88,93.52L141.16,94.91L142.3,99.2L143.44,91.7L146.85,91.41L147.99,87.88L149.13,89.96L150.27,88.89L151.41,87.71L154.82,89.75L155.96,87.73L157.1,90.87L158.24,89.38L159.38,85.97L163.93,87.4L165.07,83.85L167.34,88.06L170.76,90.36L171.9,90.18L173.04,87.58L175.31,82.07L178.73,81.47L179.87,81.18L181,81.88L182.14,83.23L183.28,82.65L186.7,83.28L187.83,80.67L188.97,79.26L190.11,86.71L191.25,82.93L195.8,82.55L196.94,82.24L198.08,80.56L199.22,79.47L202.63,80.54L204.91,80.9L206.05,79.31L207.19,78.36L210.6,79.9L211.74,79.88L212.88,81.65L215.16,85.2L218.57,79.45L219.71,78.79L220.85,77.17L221.99,77.85L223.13,76.63L228.82,77.04L229.96,74.97L231.09,75.5L234.51,75.82L235.65,71.77L236.79,72.5L237.92,72.17L239.06,70.5L242.48,69.95L243.62,72.54L244.75,73.31L245.89,71.89L247.03,70.65L250.45,69.89L252.72,70.93L253.86,71.19L255,69.27L258.42,67.78L259.55,68.04L260.69,69.13L261.83,68.21L266.38,68.3L267.52,66.37L268.66,66.85L269.8,67.21L270.94,65.58L274.35,65.95L275.49,62.21L276.63,65.93L277.77,66.64L278.91,64L282.32,64.13L283.46,68.18L284.6,68.26L285.74,69.39L286.88,65.6L290.29,68.81L291.43,67.22L293.71,61.67L294.84,62.81L299.4,62.75L300.54,60.64L301.67,62.37L302.81,62.32L307.37,66.11L308.5,69.86L309.64,68.16L310.78,72.34L314.2,67.7L315.33,64.24L318.75,54.17L322.17,55.45L323.3,54.74L324.44,52.98L326.72,50.89L330.13,52.13L331.27,52.01L332.41,50.04L333.55,47.13L334.69,47.19L339.24,46.53L340.38,50.56L346.07,47.78L347.21,44.66L348.35,41.32L350.63,42.83L354.04,43.29L355.18,44.74L356.32,41.98L357.46,42.65L358.59,43.15L362.01,41.95L364.29,44.46L365.42,43.67L366.56,47.22L369.98,48.3L371.12,42.74L372.25,43.82L373.39,44.3L374.53,40.59L377.95,40.77L379.08,43.85L381.36,52.57L382.5,51.58L385.92,59.44L387.05,55.61L388.19,54.37L389.33,49.21L393.88,54.72L395.02,50.97L396.16,59.51L397.3,55.85L398.44,52.35L401.85,49.11L402.99,52.89L404.13,50.18L405.27,49.54L406.41,57.97L409.82,53.05L410.96,52.88L413.24,47.47L414.38,47.52L418.93,47.1L420.07,44.26L422.34,41.89L425.76,43.47L426.9,44.43L428.04,42.44L429.17,40.94L430.31,42.63L433.73,45.14L434.87,43.79L437.14,43.46L438.28,44.32L442.83,43.9L443.97,43.94L446.25,44.39L449.67,43.56L450.8,47.33L451.94,55.11L454.22,46.09L457.63,48.4L458.77,52.35L459.91,50.28L462.19,48.82L465.6,49.56L466.74,48.41L467.88,48.58L470.16,47.83L473.57,47.54L474.71,50.35L475.85,48.05L478.13,51.64L481.54,52.41L482.68,52.06L483.82,48.37L486.09,48.61L489.51,51.52L490.65,51.68L491.79,50.45L494.06,50.72L497.48,52.05L498.62,52.33L499.75,48.94L500.89,49.51L502.03,47.85L505.45,46.88L506.58,47.7L508.86,47.49L510,46.23L513.42,46.03L514.55,43.52L515.69,42.28L517.97,43.25L521.38,43.07L522.52,44.7L523.66,41.62L524.8,41.95L525.94,39.59L529.35,40.43L531.63,41.27L532.77,38.6L533.91,38.72L537.32,36.44L538.46,36.85L539.6,39.08L540.74,37.22L541.88,33.87L546.43,35.23L548.71,34.19L549.84,33.07L553.26,35.53L554.4,34.18L556.67,32.96L557.81,35.78L561.23,35.05L562.37,37.41L563.5,36.97L564.64,33.92L565.78,34.22L570.33,32.25L571.47,29.39L573.75,27.09L578.3,27.96L580.58,27.16L581.72,30.59L587.41,34.58L588.55,30.38L589.69,34.92L593.1,34.34L594.24,32.33L595.38,28.16L596.52,28.42L597.66,29.78L601.07,28.32L602.21,28.82L605.63,29.3L610.18,31.85L611.32,31.1L612.46,32.04L613.59,31.68L617.01,42.17L619.29,52.94L620.42,70L621.56,76.61L624.98,59L626.12,66.57L627.25,49.23L629.53,65.73L632.95,90.29L634.08,75.91L635.22,94.08L636.36,128.3L637.5,108.14L640.92,141.37L642.05,125.89L643.19,141.94L644.33,145.96L645.47,161.39L648.88,172.45L650.02,150.1L651.16,145.91L652.3,128.52L653.44,138.11L656.85,124.73L657.99,129.68L659.13,140.19L660.27,128.14L661.41,130.09L664.82,112.13L665.96,114.44L667.1,105.45L668.24,100.64L672.79,106.17L673.93,96.01L675.07,104.51L676.21,105.63L677.34,94.08L680.76,103.54L681.9,110.07L683.04,103.55L684.17,104.08L685.31,101.38L688.73,96.16L689.87,96.6L691,91.99L693.28,104.68L696.7,104.91L697.83,103.91L698.97,108.81L700.11,107.86L701.25,100.18L704.67,101.69L705.8,107.78L706.94,114.32L708.08,111.82L709.22,112.19L712.63,100.82L713.77,106.68L714.91,100.69L716.05,103.58L717.19,104L721.74,99.19L722.88,95.26L725.16,93.38L728.57,94.48L729.71,91.87L730.85,85.62L731.99,86.34L733.13,78.07L736.54,72.04L737.68,77.3L738.82,81.83L739.96,103.8L741.09,100.2L744.51,99.35L745.65,94.47L746.79,96.56L747.92,95.9L749.06,99.32L752.48,99.9L753.62,100.95L754.75,109.05L755.89,107.3L757.03,115.18L760.45,109.06L761.58,106.07L762.72,106.31L763.86,104.98L768.42,101.17L769.55,103.3L770.69,103.16L771.83,109.23L772.97,103.32L776.38,102.02L777.52,95.29L778.66,92.74L779.8,93.08L780.94,91.5L784.35,94.18L786.63,83.98L787.77,85.38L788.91,85.63L792.32,84.79L793.46,85.49L794.6,85L796.88,89.16L800.29,90.11L802.57,83.1L803.71,81.62L804.84,79.59L808.26,77.7L809.4,78.08L810.54,74.6L811.67,76.07L812.81,75.46L817.37,74.68L818.5,78.35L819.64,78.74L820.78,78.1L824.2,73.74L825.33,75.57L826.47,75.99L827.61,75.2L828.75,70.31L832.17,72.97L833.3,74.87L834.44,67.47L835.58,73.1L836.72,73.66L841.27,78.92L842.41,76.17L843.55,79.89L844.69,76.98L849.24,74.11L850.38,72.41L852.66,75.58L856.07,82.93L857.21,82.06L858.35,89.14L860.63,85.96L864.04,82.01L865.18,85.35L866.32,82.43L867.46,84.6L868.59,84.54L872.01,80.62L873.15,84.2L875.42,75.42L876.56,74.99L879.98,73.13L881.12,75.39L882.25,77.1L883.39,76.63L884.53,75.63L887.95,80.9L889.08,78.9L890.22,79.85L891.36,75.57L892.5,75.15L897.05,83.34L898.19,96.39L899.33,94.35L900.47,94.91L903.88,89.74L905.02,85.85L906.16,85.93L907.3,83.29L908.44,82.84L911.85,67.96L912.99,61.78L914.13,62.24L915.27,67.63L916.41,62.4L919.82,57.84L920.96,59.49L922.1,64.75L923.24,63.86L924.38,65.53L927.79,61.33L928.93,55.4L930.07,57.77L932.34,58.64L935.76,61.44L940.31,50.04L943.73,53.33L944.87,50.1L946,50.01L947.14,50.42L948.28,48.2L951.7,52.8L952.83,49L953.97,51.76L955.11,49.9L956.25,49.59L959.67,54.75L960.8,57.38L961.94,55.2L967.63,51.71L968.77,52.75L969.91,52.26L971.05,49.8L975.6,55.09L976.74,53.11L979.02,52.74L980.16,49.64L985.85,50.58L986.99,51.99L988.13,55.1L992.68,54.88L993.82,52.8L994.96,54.1L996.09,55.73L999.51,53.51L1000.65,53.09L1001.79,62.36L1002.92,58.82L1004.06,65.38L1007.48,64.58L1008.62,62.52L1009.75,61.68L1010.89,58.4L1012.03,54.6L1015.45,51.73L1017.72,51.37L1018.86,51.91L1020,51.06" style="vector-effect: non-scaling-stroke; fill: none; stroke: rgb(99, 110, 250); stroke-opacity: 1; stroke-width: 2px; opacity: 1;"/></g><g class="points"/><g class="text"/></g><g class="trace scatter trace28e13f" style="stroke-miterlimit: 2; opacity: 1;"><g class="fills"/><g class="errorbars"/><g class="lines"><path class="js-line" d="M0,99.01L4.55,99.85L5.69,96.27L11.38,93.81L12.52,93.78L13.66,92.23L14.8,92.5L15.94,92.97L19.35,92.38L20.49,92.72L21.63,91.9L23.91,85.61L27.32,87.88L29.6,88.57L30.74,87.69L31.88,87.05L35.29,86.07L36.43,84.51L37.57,87.31L39.84,88.17L43.26,84.82L44.4,83L45.54,89.34L46.67,99.43L47.81,97.36L51.23,97.07L52.37,92.39L53.5,88.66L54.64,89.84L55.78,83.96L59.2,85.95L60.33,82.2L61.47,85.06L62.61,84.52L63.75,88L67.17,86L68.3,78.06L70.58,77.77L71.72,76.42L76.27,69.28L77.41,65.56L78.55,65.67L79.69,63.75L83.1,65.4L84.24,66.89L85.38,68.45L86.52,67.81L87.66,64.77L91.07,64.1L92.21,72.29L93.35,74.63L95.63,75.38L99.04,73.31L101.32,64.95L102.46,64.54L103.59,59.73L107.01,61.77L108.15,65.86L110.42,66.5L111.56,70.91L114.98,69.8L116.12,69.1L117.25,69.76L118.39,66.03L119.53,72.99L125.22,86.57L126.36,92.69L127.5,94.12L130.92,105.74L134.33,89.89L135.47,91.07L138.88,87.86L141.16,89.53L142.3,93.76L143.44,85.78L146.85,86.1L147.99,83L149.13,85.46L150.27,84.48L151.41,83.38L154.82,85.64L155.96,83.33L157.1,86.21L159.38,80.98L163.93,82.01L165.07,78.72L166.21,81.49L167.34,83.49L170.76,84.88L173.04,82.32L174.17,79.51L175.31,76.7L178.73,75.62L179.87,75.05L181,75.66L182.14,76.7L183.28,76.28L186.7,76.87L187.83,74.27L188.97,72.69L190.11,81.12L191.25,77.78L195.8,77.44L196.94,77.29L198.08,75.26L199.22,74.72L202.63,76.18L204.91,76.19L206.05,74.34L207.19,73.48L210.6,74.49L211.74,74.32L212.88,75.8L215.16,79.84L218.57,74.14L219.71,73.53L220.85,71.84L221.99,72.41L223.13,71.62L228.82,71.98L229.96,70.45L231.09,71.41L234.51,71.95L235.65,67.64L236.79,68.58L239.06,65.62L242.48,65.48L244.75,69.11L245.89,67.57L247.03,66.62L250.45,65.87L253.86,66.79L255,63.48L259.55,62.29L260.69,62.79L261.83,61.88L266.38,62L267.52,59.21L268.66,59.28L270.94,57.1L274.35,57.6L275.49,53.8L276.63,57.74L277.77,58.82L278.91,56.01L282.32,56.24L283.46,60.34L284.6,60.28L285.74,61.97L286.88,57.67L290.29,60.93L292.57,56.56L293.71,53.31L294.84,55.11L298.26,55.87L299.4,56.06L300.54,52.98L302.81,54.7L307.37,58.68L308.5,62.42L309.64,59.52L310.78,62.51L314.2,58.39L318.75,44.12L322.17,45.16L323.3,44.52L324.44,42.63L326.72,40.72L330.13,41.82L331.27,41.75L332.41,39.68L333.55,36.55L334.69,36.88L339.24,35.9L340.38,40L342.66,39.33L346.07,36.99L348.35,30.16L350.63,32.09L354.04,32.38L355.18,33.24L356.32,30.72L357.46,31.92L358.59,32.81L362.01,31.62L364.29,33.76L365.42,33.29L366.56,37.14L369.98,37.69L371.12,31.25L372.25,33.07L373.39,33.69L374.53,29.85L377.95,29.38L379.08,30.94L381.36,40.06L382.5,38.66L385.92,46.79L387.05,41.94L388.19,40.42L389.33,35.37L390.47,36.3L393.88,40.58L395.02,36.49L396.16,45.11L398.44,36.65L401.85,33.49L402.99,37.58L404.13,34.87L405.27,34.35L406.41,43.06L409.82,37.8L410.96,37.68L413.24,32.59L414.38,33.14L418.93,32.31L420.07,29.19L421.21,29.16L422.34,28.04L425.76,30.69L426.9,33.83L429.17,29.54L430.31,31.01L433.73,34.04L434.87,32.22L437.14,31.65L438.28,32.62L441.7,31.51L442.83,31.99L446.25,32.43L449.67,31.47L450.8,35.12L451.94,43.17L454.22,33.26L457.63,36.11L458.77,40.11L459.91,37.78L462.19,37.55L465.6,38.27L473.57,36.3L474.71,39.98L475.85,37.22L476.99,39.36L478.13,41.39L481.54,42.61L482.68,42L483.82,38.03L484.96,37.7L486.09,38.26L489.51,42.07L490.65,41.93L491.79,40.8L492.92,41.22L494.06,40.46L497.48,42.17L498.62,42.2L499.75,37.48L500.89,38.23L502.03,37.2L505.45,35.8L506.58,36.22L510,34.72L513.42,34.53L515.69,30.16L517.97,31.21L521.38,30.34L522.52,31.93L523.66,28.54L524.8,28.96L525.94,26.79L529.35,27.87L530.49,28.94L531.63,28.48L532.77,25.79L533.91,25.51L537.32,23.6L538.46,24.26L539.6,26.59L540.74,24.5L541.88,21.33L545.29,22.31L546.43,22.67L548.71,21.6L549.84,20.32L553.26,22.71L556.67,19.91L557.81,22.84L561.23,21.86L562.37,24.49L563.5,24.5L564.64,20.63L565.78,21.17L569.2,19.63L570.33,18.97L571.47,15.88L573.75,14.56L578.3,15.7L580.58,15.37L581.72,19.15L586.27,21.83L587.41,21.97L588.55,16.76L589.69,22.24L593.1,20.72L594.24,18.75L595.38,16.34L596.52,16.89L597.66,18.57L601.07,17.17L605.63,17.28L610.18,19.63L611.32,19.04L612.46,19.78L613.59,19.19L617.01,30.37L619.29,41.89L620.42,59.73L621.56,66.13L624.98,47.96L626.12,55.44L627.25,38.25L628.39,51.12L629.53,55.13L632.95,80.31L634.08,64.98L635.22,83.71L636.36,119.73L637.5,99.59L640.92,131.96L642.05,116.49L643.19,131.96L644.33,135.95L645.47,152.92L648.88,165.13L650.02,141.84L651.16,137.39L652.3,120.93L653.44,130.44L656.85,116.37L657.99,121.31L659.13,131.72L660.27,119.49L661.41,121.38L664.82,102.6L665.96,105.73L668.24,91.84L672.79,97.74L673.93,87.18L675.07,95.42L676.21,96.43L677.34,84.97L680.76,95.35L681.9,102.22L683.04,95.8L684.17,96.72L688.73,88.96L689.87,89.75L691,85.51L692.14,91.38L693.28,98.79L696.7,99.29L697.83,98.88L698.97,103.91L700.11,102.96L701.25,95.06L704.67,96.4L705.8,102.27L706.94,108.48L708.08,105.96L709.22,106.06L712.63,94.2L713.77,100.14L714.91,93.33L716.05,96.65L717.19,97.16L721.74,92.21L722.88,88.79L725.16,87.5L728.57,86.94L729.71,84.82L730.85,77.95L731.99,79.04L733.13,70.59L736.54,64.45L737.68,70.09L738.82,74.87L739.96,96.8L741.09,93.83L744.51,92.66L745.65,87.64L746.79,89.92L747.92,89.12L749.06,92.37L753.62,93.25L754.75,101.4L755.89,99.97L757.03,108.1L761.58,99.27L762.72,99.08L768.42,93.98L769.55,95.14L770.69,95.38L771.83,101.09L772.97,94.96L776.38,94.31L778.66,84.44L779.8,85.4L780.94,84.07L784.35,87.11L786.63,77.02L787.77,78.47L788.91,79.05L792.32,77.78L793.46,78.92L794.6,78.88L796.88,82.62L800.29,83.49L802.57,75.5L803.71,74.02L804.84,72.34L808.26,71.01L809.4,70.81L810.54,66.94L811.67,68.18L812.81,67.63L817.37,66.57L818.5,70.55L819.64,70.96L820.78,70.48L824.2,66.09L825.33,67.88L826.47,68.08L827.61,66.73L828.75,60.52L832.17,63.6L833.3,64.76L834.44,57L835.58,62.72L836.72,63.14L841.27,68.65L842.41,65.84L843.55,69.42L844.69,66.38L849.24,64.08L850.38,61.91L852.66,65.32L856.07,73.06L857.21,72.06L858.35,79.24L864.04,72.06L865.18,75.59L866.32,72.6L867.46,74.85L868.59,75.15L872.01,71.4L873.15,75.34L874.29,71.6L875.42,66.74L876.56,65.82L879.98,63.95L881.12,65.65L882.25,67.2L883.39,66.68L884.53,65.99L887.95,71.57L889.08,68.87L890.22,69.36L891.36,64.9L892.5,64.97L897.05,73.11L898.19,86.71L899.33,84.74L900.47,85.98L903.88,81.05L905.02,76.62L906.16,76.3L907.3,73.97L908.44,73.29L911.85,58.46L912.99,52.47L914.13,52.77L915.27,58.36L916.41,52.98L919.82,47.79L920.96,49.15L922.1,54.98L923.24,53.86L924.38,56.04L927.79,51.66L928.93,45.65L930.07,48.01L935.76,52.5L936.9,49.43L939.17,46.01L940.31,41.54L943.73,44.97L944.87,41.73L947.14,41.55L948.28,37.54L951.7,42.15L952.83,38.05L953.97,40.51L955.11,38.71L956.25,38.3L959.67,43.55L960.8,45.86L961.94,43.74L967.63,38.92L968.77,39.86L969.91,38.9L971.05,36.3L975.6,42.43L976.74,40.5L979.02,40.85L980.16,37.12L983.57,37.08L984.71,38.47L985.85,38.17L986.99,40.13L988.13,43.93L992.68,43.87L993.82,41.69L994.96,43.71L996.09,44.89L999.51,43.25L1000.65,41.94L1001.79,52.05L1002.92,47.53L1004.06,54.31L1007.48,53.19L1008.62,50.22L1009.75,49.54L1010.89,46.5L1012.03,42.08L1015.45,38.7L1017.72,38.56L1018.86,38.58L1020,37.52" style="vector-effect: non-scaling-stroke; fill: none; stroke: rgb(239, 85, 59); stroke-opacity: 1; stroke-width: 2px; opacity: 1;"/></g><g class="points"/><g class="text"/></g><g class="trace scatter trace3c8b55" style="stroke-miterlimit: 2; opacity: 1;"><g class="fills"/><g class="errorbars"/><g class="lines"><path class="js-line" d="M0,99.01L4.55,99.7L5.69,95.95L7.97,94.56L11.38,93.03L12.52,93.13L13.66,91.73L15.94,92.72L19.35,92.18L20.49,92.61L21.63,91.83L23.91,85.59L27.32,87.78L29.6,88.31L30.74,87.43L31.88,86.73L35.29,85.7L36.43,84.33L37.57,87.18L39.84,87.91L43.26,84.44L44.4,82.22L45.54,88.59L46.67,98.73L47.81,96.55L51.23,96.61L52.37,91.85L53.5,88.21L54.64,89.28L55.78,84.06L59.2,85.95L60.33,82.03L61.47,84.73L62.61,84.31L63.75,87.68L67.17,85.54L68.3,77.51L70.58,77.38L71.72,75.96L76.27,68.7L77.41,64.76L78.55,64.89L79.69,63.1L83.1,64.76L84.24,66.44L85.38,68.08L86.52,67.75L87.66,64.79L91.07,64.18L92.21,72.54L93.35,74.73L95.63,75.34L99.04,73.44L100.18,70.48L101.32,65.07L102.46,64.52L103.59,59.35L107.01,61.26L108.15,65.41L110.42,66.17L111.56,70.76L116.12,68.93L117.25,69.64L118.39,65.94L119.53,72.23L125.22,85.4L126.36,91.65L127.5,92.78L130.92,104.02L134.33,88.02L135.47,89.14L138.88,86.01L141.16,87.58L142.3,91.8L143.44,83.87L146.85,84.24L147.99,81.32L149.13,83.98L150.27,83.22L151.41,82.02L154.82,84.34L155.96,81.91L157.1,84.76L159.38,79.29L163.93,79.92L165.07,76.96L166.21,80.02L167.34,82.42L170.76,83.82L173.04,81.41L174.17,78.77L175.31,75.9L178.73,74.45L179.87,73.75L181,74.31L182.14,75.2L183.28,74.79L186.7,75.39L187.83,72.85L188.97,71.23L190.11,80.38L191.25,77.19L195.8,77.06L196.94,76.88L198.08,74.58L199.22,74.26L202.63,75.9L204.91,75.84L206.05,73.7L207.19,72.66L210.6,73.63L211.74,73.29L212.88,74.76L215.16,79.07L218.57,73.11L219.71,72.59L220.85,70.91L221.99,71.48L223.13,70.89L228.82,70.61L229.96,69.17L231.09,70.09L234.51,70.6L235.65,66.36L236.79,67.65L239.06,64.58L242.48,64.48L244.75,67.39L245.89,65.73L247.03,64.88L250.45,64.24L253.86,65.05L255,62.42L258.42,61.09L259.55,61.74L260.69,62.67L261.83,61.84L266.38,61.92L267.52,58.45L268.66,58.62L269.8,57.49L270.94,56.72L274.35,57.17L275.49,53.04L276.63,57.15L277.77,58.14L278.91,55.16L282.32,55.39L283.46,59.52L284.6,59.67L285.74,61.3L286.88,56.83L290.29,60.14L292.57,55.78L293.71,52.34L294.84,54.4L298.26,55.17L299.4,55.31L300.54,51.74L302.81,53.38L307.37,57.23L308.5,60.68L309.64,57.53L310.78,60.09L314.2,55.91L318.75,41.87L322.17,42.8L323.3,42.17L324.44,40.13L326.72,38.66L330.13,39.67L331.27,39.26L332.41,37.18L333.55,34.19L334.69,34.31L339.24,33.52L340.38,37.48L342.66,36.74L346.07,34.33L348.35,27.56L350.63,29.61L355.18,30.79L356.32,28.33L358.59,30.73L362.01,29.46L364.29,30.99L365.42,30.42L366.56,34.32L369.98,34.79L371.12,27.45L372.25,29.61L373.39,30.51L374.53,26.69L377.95,26.62L379.08,28.56L381.36,37.47L382.5,35.88L385.92,44.09L387.05,38.99L388.19,37.07L389.33,32.22L390.47,33.2L393.88,37.61L395.02,33.51L396.16,41.88L398.44,32.79L401.85,29.6L402.99,33.78L404.13,30.95L405.27,30.47L406.41,38.93L409.82,33.76L410.96,33.87L413.24,28.41L414.38,29.01L418.93,28.07L420.07,25.22L421.21,25.48L422.34,24.43L425.76,27.54L426.9,31.11L429.17,26.67L430.31,28.21L433.73,31.14L434.87,29.23L437.14,28.26L438.28,29.38L441.7,28.26L442.83,28.7L446.25,29.1L449.67,28.07L450.8,31.78L451.94,40.3L454.22,29.74L457.63,32.76L458.77,36.44L459.91,33.7L469.02,33.86L470.16,32.6L473.57,32.19L474.71,36.72L475.85,33.65L476.99,35.86L478.13,38.14L481.54,39.49L482.68,38.63L483.82,34.58L484.96,34.03L486.09,35.2L489.51,39.16L490.65,39.21L491.79,37.93L492.92,38.52L494.06,38.04L497.48,40.11L498.62,40.07L499.75,35.42L500.89,36.09L502.03,35.35L505.45,34.08L506.58,34.47L510,32.91L513.42,32.77L515.69,28.17L517.97,29.28L521.38,28.22L522.52,29.78L523.66,26.37L524.8,26.76L525.94,24.43L529.35,25.69L530.49,26.69L531.63,26.32L532.77,23.47L533.91,23.01L537.32,21.15L538.46,21.9L539.6,24.12L540.74,22.12L541.88,18.83L545.29,19.79L546.43,20.15L548.71,19.08L549.84,17.8L553.26,20.05L556.67,17.26L557.81,20.18L561.23,19.12L562.37,22.1L563.5,21.87L564.64,17.51L565.78,17.94L569.2,16.46L570.33,15.85L571.47,12.49L573.75,11.59L578.3,12.71L580.58,11.82L581.72,16.05L586.27,18.94L587.41,18.62L588.55,13.1L589.69,18.73L593.1,17.14L594.24,15.29L595.38,13.44L596.52,14.21L597.66,15.71L601.07,14.33L603.35,14.32L604.49,14.76L605.63,14.13L610.18,16.09L611.32,15.83L612.46,16.52L613.59,15.85L617.01,26.84L619.29,37.89L620.42,55.65L621.56,62.37L624.98,43.69L626.12,50.9L627.25,33.69L628.39,46.89L629.53,51.15L632.95,76.17L634.08,60.6L635.22,78.62L636.36,115.06L637.5,95.78L640.92,128.88L642.05,113.7L643.19,129.35L644.33,133.24L645.47,149.95L648.88,162.09L650.02,138.8L651.16,133.8L652.3,117.78L653.44,127.56L656.85,113.1L657.99,117.61L659.13,128.39L660.27,115.45L661.41,117.19L664.82,97.51L665.96,101.02L668.24,86.82L672.79,93.07L673.93,82.53L675.07,90.75L676.21,91.45L677.34,80.36L680.76,90.68L681.9,98.24L683.04,91.39L684.17,92.75L688.73,84.27L689.87,85.35L691,81.69L692.14,87.57L693.28,94.62L696.7,95.16L697.83,94.44L698.97,99.29L700.11,98.76L701.25,91.04L704.67,92.01L705.8,97.74L706.94,103.63L708.08,101.01L709.22,101.42L712.63,89.79L713.77,95.64L714.91,88.74L716.05,92.2L717.19,92.89L721.74,88.12L722.88,85.04L725.16,83.57L728.57,83.31L729.71,81.27L730.85,74.24L731.99,75.54L733.13,67.29L736.54,61.2L737.68,66.72L738.82,71.65L739.96,93.41L741.09,90.84L744.51,89.95L745.65,84.78L746.79,87.1L747.92,86.51L749.06,89.73L753.62,90.43L754.75,98.31L755.89,97.06L757.03,105.2L762.72,95.96L763.86,95.07L768.42,91.19L769.55,91.74L770.69,92.6L771.83,97.94L772.97,91.76L776.38,91L778.66,80.92L779.8,82.18L780.94,80.65L784.35,83.74L786.63,73.04L787.77,74.55L788.91,75.23L792.32,73.4L794.6,74.94L795.74,77.93L796.88,79.05L800.29,79.95L802.57,72.33L803.71,70.8L804.84,69.35L808.26,68.12L809.4,67.84L810.54,63.74L811.67,64.67L812.81,64.09L817.37,62.55L818.5,66.71L819.64,67.29L820.78,66.72L824.2,62.53L825.33,64.41L826.47,64.42L827.61,62.97L828.75,56.01L832.17,59.08L833.3,59.59L834.44,51.54L835.58,57.39L836.72,57.8L841.27,63.78L842.41,60.69L843.55,64.27L844.69,61.01L849.24,58.52L850.38,56.33L852.66,59.92L856.07,67.64L857.21,66.55L858.35,73.91L860.63,70.44L864.04,66.83L865.18,70.33L866.32,67.13L867.46,69.3L868.59,69.61L872.01,66.11L873.15,70.23L875.42,61.69L876.56,60.85L879.98,59.05L881.12,60.41L882.25,61.89L883.39,61.73L884.53,60.91L887.95,66.32L889.08,63.88L890.22,64.81L891.36,60.14L892.5,60.35L897.05,68.25L898.19,82.21L899.33,80.2L900.47,81.62L903.88,76.73L905.02,72.49L908.44,69.02L911.85,54.57L912.99,48.79L914.13,48.66L915.27,54.49L916.41,49.28L919.82,44.3L920.96,44.96L922.1,50.77L923.24,49.11L924.38,51.42L927.79,47L928.93,41.04L930.07,43.47L935.76,47.66L936.9,44.79L939.17,42.31L940.31,37.73L943.73,41.06L944.87,37.69L947.14,37.59L948.28,34.29L951.7,38.76L952.83,34.92L953.97,37.53L955.11,36.03L956.25,35.72L959.67,40.97L960.8,43.05L961.94,41.01L967.63,36.13L968.77,36.94L969.91,36.23L971.05,33.65L975.6,40.04L976.74,38.28L977.88,39.69L979.02,39.54L980.16,35.51L983.57,35.4L984.71,36.95L985.85,37.02L988.13,43.13L992.68,43.21L993.82,40.78L994.96,42.9L996.09,44.14L999.51,42.81L1000.65,41.49L1001.79,51.96L1002.92,47.69L1004.06,54.18L1007.48,53.06L1008.62,49.94L1009.75,49.32L1010.89,46.73L1012.03,42.33L1015.45,39.27L1016.58,38.76L1017.72,39.4L1018.86,39.16L1020,37.77" style="vector-effect: non-scaling-stroke; fill: none; stroke: rgb(0, 204, 150); stroke-opacity: 1; stroke-width: 2px; opacity: 1;"/></g><g class="points"/><g class="text"/></g><g class="trace scatter trace33527a" style="stroke-miterlimit: 2; opacity: 1;"><g class="fills"/><g class="errorbars"/><g class="lines"><path class="js-line" d="M0,99.01L4.55,99.67L5.69,95.98L11.38,93.15L12.52,93.34L13.66,91.98L14.8,92.49L15.94,93L19.35,92.48L20.49,92.93L21.63,92.14L23.91,85.92L27.32,88.06L29.6,88.48L30.74,87.58L31.88,86.87L35.29,85.86L36.43,84.5L37.57,87.34L39.84,88.06L43.26,84.57L44.4,82.22L45.54,88.66L46.67,98.73L47.81,96.54L51.23,96.61L52.37,91.85L53.5,88.3L54.64,89.38L55.78,84.15L59.2,86.04L60.33,82.11L61.47,84.8L62.61,84.37L63.75,87.68L67.17,85.57L68.3,77.51L70.58,77.51L71.72,75.99L76.27,68.57L77.41,64.67L78.55,64.78L79.69,62.97L83.1,64.71L84.24,66.36L85.38,67.99L86.52,67.71L87.66,64.8L91.07,64.28L92.21,72.76L93.35,74.78L95.63,75.38L99.04,73.51L100.18,70.59L101.32,65.17L102.46,64.63L103.59,59.47L107.01,61.35L108.15,65.63L110.42,66.39L111.56,71L116.12,69.15L117.25,69.89L118.39,66.26L119.53,72.06L125.22,85.08L126.36,91.5L127.5,92.65L130.92,103.77L134.33,87.61L135.47,88.7L138.88,85.59L141.16,87.14L142.3,91.31L143.44,83.43L146.85,83.74L147.99,80.9L149.13,83.53L150.27,82.75L151.41,81.56L154.82,83.85L155.96,81.4L157.1,84.24L159.38,78.77L163.93,79.31L165.07,76.34L166.21,79.3L167.34,81.82L170.76,83.25L173.04,81.05L174.17,78.46L175.31,75.69L178.73,74.05L179.87,73.34L181,73.93L182.14,74.73L183.28,74.4L186.7,74.99L187.83,72.52L188.97,70.86L190.11,80.19L191.25,77.04L195.8,76.88L196.94,76.76L198.08,74.4L199.22,74.17L202.63,75.86L204.91,75.83L206.05,73.67L207.19,72.7L210.6,73.68L211.74,73.31L212.88,74.75L215.16,79.1L218.57,73.06L219.71,72.58L220.85,70.91L221.99,71.4L223.13,70.8L228.82,70.57L229.96,69.15L231.09,70.03L234.51,70.52L235.65,66.34L236.79,67.66L239.06,64.63L242.48,64.48L244.75,67.4L245.89,65.64L247.03,64.77L250.45,64.15L253.86,64.83L255,62.24L258.42,60.87L259.55,61.56L260.69,62.52L261.83,61.62L266.38,61.75L267.52,58.28L268.66,58.44L269.8,57.34L270.94,56.61L274.35,56.97L275.49,52.81L276.63,57.02L277.77,57.99L278.91,54.99L282.32,55.17L283.46,59.27L284.6,59.47L285.74,60.98L286.88,56.43L290.29,59.77L292.57,55.33L293.71,51.88L294.84,53.97L298.26,54.73L299.4,54.86L300.54,51.23L302.81,52.9L307.37,56.65L308.5,59.94L309.64,56.81L310.78,59.33L314.2,55.1L318.75,41.1L322.17,42.03L323.3,41.44L324.44,39.42L326.72,37.85L330.13,38.88L331.27,38.46L332.41,36.36L333.55,33.42L334.69,33.55L339.24,32.82L340.38,36.72L342.66,35.85L346.07,33.4L348.35,26.7L350.63,28.67L355.18,29.89L356.32,27.41L358.59,29.46L362.01,28.18L364.29,29.6L365.42,28.99L366.56,32.9L369.98,33.34L371.12,25.84L372.25,28.05L373.39,29.02L374.53,25.17L377.95,25.19L379.08,27.11L381.36,36.07L382.5,34.45L385.92,42.75L387.05,37.57L388.19,35.58L389.33,30.69L390.47,31.66L393.88,36.16L395.02,32.03L396.16,40.37L398.44,31.09L401.85,27.92L402.99,32.12L404.13,29.29L405.27,28.79L406.41,37.18L409.82,31.97L410.96,32.11L413.24,26.5L414.38,27.11L418.93,26.24L420.07,23.34L421.21,23.66L422.34,22.61L425.76,25.69L426.9,29.4L429.17,24.94L430.31,26.52L433.73,29.45L434.87,27.46L437.14,26.46L438.28,27.66L442.83,26.9L443.97,27.11L446.25,27.35L449.67,26.28L450.8,30.05L451.94,38.81L454.22,28.22L457.63,31.24L458.77,34.85L459.91,31.94L462.19,32.23L465.6,32.83L469.02,32.31L470.16,30.65L473.57,30.29L474.71,34.97L475.85,31.93L476.99,34.06L478.13,36.41L481.54,37.81L482.68,37L483.82,33.07L484.96,32.47L486.09,33.71L489.51,37.58L490.65,37.66L491.79,36.37L492.92,36.98L494.06,36.53L497.48,38.57L498.62,38.44L499.75,33.57L500.89,34.23L502.03,33.77L505.45,32.47L506.58,32.9L510,31.5L513.42,31.35L514.55,27.8L515.69,26.71L517.97,27.82L521.38,26.75L522.52,28.33L523.66,25L524.8,25.4L525.94,23.05L531.63,25.05L532.77,22.16L537.32,19.8L538.46,20.61L539.6,22.89L540.74,20.94L541.88,17.61L545.29,18.64L546.43,18.96L548.71,17.87L549.84,16.56L553.26,18.79L556.67,16.02L557.81,18.91L561.23,17.88L562.37,20.97L563.5,20.76L564.64,16.36L565.78,16.82L569.2,15.39L570.33,14.79L571.47,11.46L572.61,10.55L573.75,10.63L578.3,11.75L579.44,10.95L580.58,10.78L581.72,15.1L586.27,17.92L587.41,17.62L588.55,11.99L589.69,17.66L593.1,16.04L594.24,14.12L595.38,12.42L596.52,13.17L597.66,14.59L601.07,13.13L603.35,13.06L604.49,13.41L605.63,12.75L610.18,14.59L611.32,14.38L612.46,15.06L613.59,14.39L617.01,25.38L619.29,36.57L620.42,54.34L621.56,61.17L624.98,42.38L626.12,49.46L627.25,32.25L628.39,45.46L629.53,49.65L632.95,74.85L634.08,59.19L635.22,77.02L636.36,113.79L637.5,94.33L640.92,127.92L642.05,112.89L643.19,129.01L644.33,132.64L645.47,149.15L648.88,161.19L650.02,137.73L651.16,132.74L652.3,116.68L653.44,126.67L656.85,112.24L657.99,116.75L659.13,127.7L660.27,114.66L661.41,116.44L664.82,96.47L665.96,99.98L668.24,85.75L672.79,91.97L673.93,81.46L675.07,89.8L676.21,90.52L677.34,79.46L680.76,89.89L681.9,97.55L683.04,90.68L684.17,92.25L688.73,83.53L689.87,84.59L691,80.94L692.14,87.01L693.28,93.89L696.7,94.49L697.83,93.76L698.97,98.66L700.11,98.01L701.25,90.27L704.67,91.31L705.8,97.06L706.94,102.95L708.08,100.32L709.22,100.78L712.63,89.03L713.77,94.91L714.91,87.84L716.05,91.28L717.19,92.03L721.74,87.16L722.88,84.09L725.16,82.78L728.57,82.41L729.71,80.42L730.85,73.36L731.99,74.61L733.13,66.41L736.54,60.26L737.68,65.81L738.82,70.82L739.96,92.57L741.09,90.02L744.51,89.1L745.65,83.93L746.79,86.25L747.92,85.66L749.06,88.9L753.62,89.54L754.75,97.41L755.89,96.16L757.03,104.34L762.72,95.08L763.86,94.24L768.42,90.4L769.55,90.77L770.69,91.69L771.83,97.01L772.97,90.7L776.38,90.1L778.66,79.96L779.8,81.27L780.94,79.73L784.35,82.88L786.63,71.95L787.77,73.5L788.91,74.12L792.32,72.25L794.6,73.91L795.74,76.96L796.88,78.15L800.29,79.13L802.57,71.44L803.71,69.82L804.84,68.4L808.26,67.08L809.4,66.8L810.54,62.69L811.67,63.51L812.81,62.9L817.37,61.38L818.5,65.68L819.64,66.37L820.78,65.8L824.2,61.58L825.33,63.42L826.47,63.39L827.61,61.78L828.75,54.71L832.17,57.85L833.3,58.1L834.44,49.97L835.58,55.81L836.72,56.22L841.27,62.34L842.41,59.24L843.55,62.78L844.69,59.54L849.24,57.06L850.38,54.88L852.66,58.53L856.07,66.19L857.21,64.98L858.35,72.56L860.63,69.09L864.04,65.45L865.18,68.99L866.32,65.78L867.46,67.81L868.59,68.08L872.01,64.61L873.15,68.73L875.42,60.22L876.56,59.41L879.98,57.57L881.12,58.79L882.25,60.35L883.39,60.14L884.53,59.37L887.95,64.74L889.08,62.25L890.22,63.14L891.36,58.5L892.5,58.7L897.05,66.66L898.19,80.63L899.33,78.6L900.47,80L903.88,75.11L905.02,70.71L906.16,69.76L907.3,67.83L908.44,67.25L911.85,52.75L912.99,46.84L914.13,46.67L915.27,52.55L916.41,47.3L919.82,42.13L920.96,42.91L922.1,48.72L923.24,46.92L924.38,49.26L927.79,44.7L928.93,38.68L930.07,41.16L935.76,45.46L936.9,42.7L939.17,40.33L940.31,35.73L943.73,39.14L944.87,35.91L947.14,35.91L948.28,32.53L951.7,36.88L952.83,33.08L953.97,35.79L955.11,34.4L956.25,34.09L959.67,39.33L960.8,41.44L961.94,39.36L967.63,34.41L968.77,35.27L969.91,34.6L971.05,32.03L975.6,38.49L976.74,36.89L977.88,38.39L979.02,38.26L980.16,34.15L983.57,34.11L984.71,35.61L985.85,35.74L988.13,42.08L992.68,42.25L993.82,39.73L994.96,41.89L996.09,43.12L999.51,41.89L1000.65,40.66L1001.79,51.19L1002.92,46.92L1004.06,53.4L1007.48,52.23L1008.62,48.98L1009.75,48.38L1010.89,45.85L1012.03,41.54L1015.45,38.48L1016.58,37.98L1017.72,38.64L1018.86,38.28L1020,36.91" style="vector-effect: non-scaling-stroke; fill: none; stroke: rgb(171, 99, 250); stroke-opacity: 1; stroke-width: 2px; opacity: 1;"/></g><g class="points"/><g class="text"/></g><g class="trace scatter tracefd7e34" style="stroke-miterlimit: 2; opacity: 1;"><g class="fills"/><g class="errorbars"/><g class="lines"><path class="js-line" d="M0,99.01L4.55,99.62L5.69,95.84L7.97,94.18L11.38,92.76L12.52,92.82L13.66,91.47L15.94,92.29L19.35,91.68L20.49,92.08L21.63,91.37L23.91,85.32L27.32,87.4L29.6,88.01L30.74,87.06L31.88,86.32L35.29,85.17L36.43,83.77L37.57,86.56L39.84,87.25L43.26,83.77L44.4,81.48L45.54,88.1L46.67,98.18L47.81,96L51.23,96.24L52.37,91.32L53.5,87.77L54.64,88.81L55.78,84.29L59.2,86.15L60.33,82.59L61.47,85.5L62.61,84.98L63.75,88.31L67.17,86.24L68.3,78.14L70.58,77.87L71.72,76.55L76.27,69.36L77.41,65.24L78.55,65.42L79.69,63.73L83.1,65.45L84.24,67.28L85.38,69.01L86.52,68.72L87.66,65.78L91.07,65.1L92.21,73.52L93.35,75.73L95.63,76.36L99.04,74.54L100.18,71.57L101.32,66.04L102.46,65.46L103.59,60.11L107.01,61.86L108.15,66.17L110.42,67.08L111.56,71.67L116.12,69.93L117.25,70.63L118.39,67.18L119.53,73.52L125.22,86.3L126.36,92.31L127.5,93.46L130.92,104.63L134.33,88.57L135.47,89.63L138.88,86.48L141.16,88.06L142.3,92.43L143.44,84.45L146.85,84.98L147.99,81.93L149.13,84.61L150.27,83.86L151.41,82.63L154.82,84.97L155.96,82.49L157.1,85.37L159.38,79.78L163.93,80.38L165.07,77.85L166.21,81.13L167.34,83.43L170.76,84.88L173.04,82.17L174.17,79.53L175.31,76.49L178.73,74.92L179.87,74.06L181,74.61L182.14,75.43L183.28,74.97L186.7,75.68L187.83,73.1L188.97,71.47L190.11,81.28L191.25,78.2L195.8,78.33L196.94,77.95L198.08,75.6L199.22,75.31L202.63,76.97L203.77,77.34L204.91,76.82L207.19,73.3L210.6,74.12L211.74,73.76L212.88,75.27L215.16,79.61L218.57,73.67L219.71,73.38L220.85,71.8L221.99,72.44L223.13,72.08L228.82,71.68L229.96,70.37L231.09,71.23L234.51,71.63L235.65,67.4L236.79,68.72L239.06,65.73L242.48,65.48L244.75,68.12L245.89,66.39L247.03,65.65L250.45,65.25L253.86,66L255,63.44L258.42,62.23L259.55,63.02L260.69,64.2L261.83,63.47L266.38,63.54L267.52,59.57L268.66,59.89L269.8,58.56L270.94,57.97L274.35,58.33L275.49,54.11L276.63,58.07L277.77,59.12L278.91,56.18L282.32,56.48L283.46,60.76L284.6,60.97L285.74,62.59L286.88,58.21L290.29,61.67L292.57,57.12L293.71,53.58L294.84,55.64L298.26,56.46L299.4,56.51L300.54,52.76L302.81,54.24L307.37,57.97L308.5,61.54L309.64,58.42L310.78,60.8L314.2,56.58L318.75,42.74L322.17,43.57L323.3,43.13L324.44,41.01L326.72,39.73L330.13,40.69L331.27,39.97L332.41,37.87L333.55,34.92L334.69,34.98L338.1,33.81L339.24,34.25L340.38,38.14L341.52,38.18L342.66,37.71L346.07,35.21L348.35,28.78L350.63,30.77L355.18,32.13L356.32,29.73L358.59,32.46L362.01,31.21L364.29,32.58L365.42,32.13L366.56,35.99L369.98,36.56L371.12,28.58L372.25,30.8L373.39,31.95L374.53,28.23L377.95,28.32L379.08,30.67L381.36,39.48L382.5,37.8L385.92,45.78L387.05,40.68L388.19,38.91L389.33,34.11L390.47,35.11L393.88,39.44L395.02,35.48L396.16,43.84L398.44,34.67L401.85,31.51L402.99,35.74L404.13,32.83L405.27,32.17L406.41,40.44L409.82,35.33L410.96,35.51L413.24,30.07L414.38,30.59L418.93,29.69L420.07,27.06L421.21,27.41L422.34,26.34L425.76,29.79L426.9,33.02L429.17,28.59L430.31,30.09L433.73,32.8L434.87,30.95L437.14,29.91L438.28,31.1L442.83,30.57L443.97,30.82L446.25,31.19L449.67,30.16L450.8,33.69L451.94,42.21L454.22,31.55L457.63,34.58L458.77,38.16L459.91,35.46L465.6,36.1L466.74,35.45L467.88,35.78L469.02,35.26L470.16,34.12L473.57,34.05L474.71,38.78L475.85,35.5L478.13,40.09L481.54,41.39L482.68,40.37L483.82,36.4L484.96,35.7L486.09,37.04L490.65,41.02L491.79,39.78L492.92,40.3L494.06,39.87L498.62,41.98L499.75,37.31L500.89,37.87L502.03,37.09L510,34.41L513.42,34.17L514.55,30.65L515.69,29.61L517.97,30.77L521.38,29.82L522.52,31.34L523.66,27.98L524.8,28.42L525.94,25.93L530.49,28.32L531.63,27.92L532.77,25.1L533.91,24.68L537.32,22.94L538.46,23.59L539.6,25.71L540.74,23.74L541.88,20.37L545.29,21.2L546.43,21.67L548.71,20.63L549.84,19.39L553.26,21.55L556.67,18.71L557.81,21.64L561.23,20.68L562.37,23.76L563.5,23.54L564.64,19.07L565.78,19.45L569.2,17.94L570.33,17.31L571.47,13.95L572.61,13.07L573.75,13.19L578.3,14.34L579.44,13.62L580.58,13.36L581.72,17.62L586.27,20.79L587.41,20.38L588.55,14.73L589.69,20.29L593.1,18.64L594.24,16.75L595.38,15.07L596.52,15.74L597.66,17.14L601.07,15.64L602.21,15.27L603.35,15.74L604.49,16.35L605.63,15.72L612.46,18.17L613.59,17.5L617.01,28.39L618.15,36.01L619.29,39.35L620.42,56.85L621.56,63.87L624.98,45.27L626.12,52.37L627.25,35.3L628.39,48.65L629.53,53.17L632.95,78.33L634.08,63.02L635.22,80.73L636.36,117.01L637.5,98.43L640.92,131.73L642.05,117.01L643.19,133.29L644.33,137.51L645.47,153.91L648.88,165.29L650.02,142.47L651.16,136.44L652.3,120.31L653.44,130.72L656.85,116.31L657.99,120.54L659.13,131.68L660.27,118.77L661.41,120.53L664.82,100.65L665.96,104L668.24,89.53L672.79,96.23L673.93,85.99L675.07,93.98L676.21,94.93L677.34,83.9L680.76,94.07L681.9,101.95L683.04,95.27L684.17,96.59L688.73,87.84L689.87,89.03L691,85.35L692.14,91.37L693.28,98.3L696.7,98.94L697.83,98.11L698.97,102.81L700.11,102.28L701.25,94.62L704.67,95.59L705.8,101.28L706.94,106.99L708.08,104.36L709.22,104.86L712.63,93.21L713.77,98.96L714.91,92.09L716.05,95.43L717.19,96.24L721.74,91.3L722.88,88.34L725.16,86.91L728.57,86.84L729.71,84.79L730.85,77.51L731.99,78.51L733.13,70.22L736.54,64.02L737.68,69.6L738.82,74.65L739.96,96.9L741.09,94.05L744.51,93.28L745.65,87.99L746.79,90.41L747.92,89.86L749.06,93.19L753.62,93.83L754.75,101.78L755.89,100.62L757.03,108.73L762.72,99.46L763.86,98.61L768.42,94.83L769.55,95.42L770.69,96.4L771.83,101.73L772.97,95.51L776.38,94.67L778.66,84.47L779.8,85.93L780.94,84.38L784.35,87.49L786.63,76.64L787.77,78.28L788.91,79.09L792.32,77.29L794.6,79L795.74,82.27L796.88,83.43L800.29,84.33L802.57,76.74L803.71,75.3L804.84,73.98L808.26,72.76L809.4,72.37L810.54,68.34L811.67,69.21L812.81,68.6L817.37,67.24L818.5,71.44L819.64,72.05L820.78,71.57L824.2,67.26L825.33,69.19L826.47,69.13L827.61,67.59L828.75,60.48L832.17,63.57L833.3,64.03L834.44,55.82L835.58,61.74L836.72,61.97L841.27,68.23L842.41,65.15L843.55,68.75L844.69,65.39L849.24,62.94L850.38,60.77L852.66,64.39L856.07,72.27L857.21,71.16L858.35,78.61L864.04,71.48L865.18,74.95L866.32,71.78L867.46,73.98L868.59,74.31L872.01,70.98L873.15,75.34L874.29,71.72L875.42,66.73L876.56,65.86L879.98,64.2L881.12,65.68L882.25,67.15L883.39,67.25L884.53,66.3L887.95,71.52L889.08,69.16L890.22,70.25L891.36,65.35L892.5,65.65L897.05,73.6L898.19,87.38L899.33,85.33L900.47,86.79L903.88,81.91L905.02,77.89L908.44,74.26L911.85,58.82L912.99,53.06L914.13,53.27L915.27,59.14L916.41,53.93L919.82,48.85L920.96,49.01L922.1,54.82L923.24,52.98L924.38,55.34L927.79,50.88L928.93,44.89L930.07,47.43L935.76,51.62L936.9,48.6L939.17,45.79L940.31,41.13L943.73,44.35L944.87,40.89L947.14,40.68L948.28,37.45L951.7,42.19L952.83,38.41L953.97,41.22L955.11,39.85L956.25,39.59L959.67,44.77L960.8,46.7L961.94,44.6L967.63,39.82L968.77,40.47L969.91,39.69L971.05,37.24L975.6,44.01L976.74,42.31L977.88,44.16L979.02,44.06L980.16,40.07L983.57,40.08L984.71,41.63L985.85,41.86L988.13,47.9L992.68,47.78L993.82,45.35L994.96,47.46L996.09,48.71L999.51,47.54L1000.65,46.4L1001.79,56.79L1002.92,52.48L1004.06,59.04L1007.48,57.81L1008.62,54.58L1009.75,53.98L1010.89,51.5L1012.03,47.21L1015.45,44.08L1016.58,43.63L1017.72,44.37L1018.86,43.95L1020,42.42" style="vector-effect: non-scaling-stroke; fill: none; stroke: rgb(255, 161, 90); stroke-opacity: 1; stroke-width: 2px; opacity: 1;"/></g><g class="points"/><g class="text"/></g><g class="trace scatter tracec799ed" style="stroke-miterlimit: 2; opacity: 1;"><g class="fills"/><g class="errorbars"/><g class="lines"><path class="js-line" d="M0,99.01L4.55,100.04L5.69,96.97L12.52,95.22L13.66,93.99L20.49,94.65L21.63,93.86L23.91,87.69L27.32,90.3L29.6,91.16L30.74,90.22L35.29,88.37L36.43,86.9L37.57,89.12L38.71,89.33L39.84,89.63L43.26,86.96L44.4,85.2L45.54,91.62L46.67,101.5L47.81,99.75L51.23,99.61L52.37,95.06L53.5,92.56L54.64,93.89L55.78,88.45L59.2,90.46L60.33,85.94L61.47,88.69L62.61,88.17L63.75,92.36L67.17,90.87L68.3,83.6L70.58,84.17L71.72,82.51L76.27,75.07L77.41,71.12L78.55,70.85L79.69,69.02L84.24,72.38L85.38,73.71L86.52,72.78L87.66,69.42L91.07,68.97L92.21,76.92L93.35,79.04L95.63,80.32L99.04,77.89L100.18,74.36L101.32,69.37L102.46,69.47L103.59,64.85L107.01,67.51L108.15,71.98L110.42,72.61L111.56,77.1L114.98,75.98L116.12,75.2L117.25,76.27L118.39,73.15L119.53,79L125.22,91.86L126.36,97.97L127.5,99.62L130.92,110.92L134.33,94.9L135.47,95.86L138.88,92.45L141.16,93.85L142.3,97.93L143.44,90.64L146.85,90.24L147.99,86.98L149.13,89.15L150.27,87.83L151.41,86.63L154.82,88.36L155.96,86.2L157.1,89.12L158.24,87.72L159.38,84.14L163.93,85.36L165.07,81.35L167.34,85.41L170.76,87.38L171.9,87.55L173.04,85.42L175.31,80.87L178.73,79.81L179.87,79.63L181,80.32L182.14,81.62L183.28,81.42L186.7,82.17L187.83,79.61L188.97,78.25L190.11,85.38L191.25,81.41L195.8,80.99L196.94,80.54L198.08,78.69L199.22,77.85L202.63,79.19L204.91,80.13L206.05,78.91L207.19,77.5L210.6,79.24L211.74,78.8L212.88,79.99L215.16,83.39L218.57,77.61L219.71,77.03L220.85,75.33L221.99,75.6L223.13,74.31L228.82,75.52L229.96,73.92L231.09,74.71L234.51,75.03L235.65,71.06L236.79,71.89L237.92,71.43L239.06,69.69L242.48,69.09L243.62,70.72L244.75,71.33L245.89,69.55L247.03,68.35L250.45,67.64L253.86,68.64L255,65.92L258.42,64.24L259.55,64.66L260.69,65.29L261.83,63.95L266.38,63.87L267.52,62.13L269.8,62.63L270.94,60.49L274.35,60.74L275.49,57.42L276.63,61.51L277.77,62.18L278.91,59.49L282.32,59.24L283.46,63.12L284.6,63.3L285.74,64.42L286.88,60.34L290.29,63.61L291.43,62.19L293.71,56.58L294.84,57.68L299.4,57.43L300.54,55.41L301.67,57.25L302.81,57.15L307.37,61.06L308.5,64.5L309.64,62.71L310.78,66.78L314.2,62.48L315.33,59.06L318.75,48.67L322.17,50.02L323.3,49.37L324.44,47.68L326.72,45.12L330.13,46.6L331.27,46.64L332.41,44.6L333.55,41.83L334.69,41.97L339.24,41.55L340.38,45.4L342.66,44.45L346.07,42.51L348.35,35.88L350.63,37.14L354.04,37.45L355.18,38.96L356.32,36.23L357.46,35.95L362.01,34.75L363.15,35.76L364.29,36.78L365.42,36.1L366.56,39.77L369.98,40.61L371.12,35.33L372.25,36.74L373.39,37.12L374.53,33.23L377.95,33.05L379.08,35.19L381.36,44.22L382.5,42.93L385.92,51.03L387.05,46.76L388.19,45.95L389.33,40.64L390.47,41.55L393.88,46.04L395.02,41.96L396.16,50.35L398.44,42.54L401.85,39.69L402.99,43.75L404.13,41.13L405.27,40.74L406.41,49.09L409.82,44.1L410.96,43.99L413.24,38.18L414.38,38.37L418.93,38.27L420.07,35.38L422.34,33.34L425.76,35.06L426.9,36.77L428.04,34.82L429.17,32.86L430.31,34.19L433.73,37.09L434.87,35.4L437.14,34.91L438.28,35.88L442.83,35.18L443.97,35.36L446.25,36.43L449.67,35.49L450.8,39.36L451.94,46.97L453.08,43.68L454.22,37.96L457.63,40.03L458.77,44.03L461.05,40.9L462.19,40.75L465.6,41.71L466.74,40.16L469.02,39.58L470.16,38.85L473.57,38.19L474.71,40.49L475.85,38.45L476.99,40.53L478.13,42.12L481.54,43.02L482.68,42.84L483.82,39.02L486.09,39.72L489.51,43.28L490.65,43.49L491.79,41.85L494.06,41.51L497.48,43.31L498.62,43.39L499.75,39.16L500.89,39.71L502.03,38.29L505.45,36.79L506.58,37.53L508.86,37.5L510,36.27L513.42,35.9L514.55,32.99L515.69,31.93L517.97,32.73L521.38,32.39L522.52,34.2L523.66,30.92L524.8,31.11L525.94,28.76L529.35,29.91L531.63,30.41L532.77,27.55L533.91,27.4L537.32,25.08L538.46,25.5L539.6,27.93L541.88,23L545.29,24.2L546.43,24.39L548.71,23.31L549.84,22.05L553.26,24.67L554.4,23.34L556.67,22.03L557.81,25.07L561.23,24.41L562.37,26.9L563.5,25.75L564.64,22.54L565.78,22.99L570.33,21.23L571.47,18.42L573.75,16.09L578.3,16.93L580.58,15.86L581.72,19.58L585.13,22.25L586.27,21.95L587.41,23L588.55,18.47L589.69,23.23L593.1,22.33L595.38,15.91L596.52,16.24L597.66,17.72L601.07,16.06L602.21,16.62L603.35,16.2L605.63,16.2L610.18,18.44L611.32,17.43L612.46,18.28L613.59,17.93L617.01,29.02L619.29,40.94L620.42,58.7L621.56,65.77L624.98,47.69L626.12,55.46L627.25,37.68L628.39,50.37L629.53,54.64L632.95,80.59L634.08,65.02L635.22,83.4L636.36,118.92L637.5,96.55L640.92,132.28L642.05,117.24L643.19,135.28L644.33,137.84L645.47,153.67L648.88,165.64L650.02,141.23L651.16,136.26L652.3,118.58L653.44,129.05L656.85,115.42L657.99,121.26L659.13,132.17L660.27,119.43L661.41,121.97L664.82,102.75L665.96,105.33L668.24,90.85L672.79,96.38L673.93,86.55L675.07,94.43L676.21,95.14L677.34,83.53L680.76,93.48L681.9,100.5L683.04,93.98L684.17,94.77L685.31,92.16L688.73,86.68L689.87,87.28L691,82.72L693.28,94.78L696.7,95.66L697.83,94.92L698.97,100.09L700.11,98.51L701.25,90.81L704.67,92.87L705.8,99.11L706.94,105.53L708.08,102.48L709.22,102.73L712.63,91.2L713.77,97.3L714.91,90.77L716.05,93.88L717.19,94.41L721.74,89.38L722.88,84.86L725.16,83.67L728.57,83.91L729.71,81.69L730.85,74.96L731.99,75.91L733.13,67.54L736.54,61.69L737.68,67.04L738.82,71.61L739.96,93.53L741.09,89.99L744.51,88.78L745.65,83.86L746.79,86.07L747.92,85.4L749.06,89.39L753.62,90.53L754.75,98.7L755.89,96.78L757.03,105.21L761.58,95.89L762.72,95.88L768.42,90.86L769.55,92.71L770.69,92.32L771.83,97.81L772.97,91.6L776.38,90.51L778.66,81.17L779.8,81.6L780.94,80.28L784.35,83L786.63,72.78L787.77,74.03L788.91,74.23L792.32,73.49L793.46,74.54L794.6,73.95L796.88,78.19L800.29,79.3L802.57,71.27L803.71,69.41L804.84,67.3L808.26,65.55L809.4,65.47L810.54,61.84L811.67,63.02L812.81,62.46L817.37,61.91L818.5,65.6L819.64,66.11L820.78,65.37L824.2,60.97L825.33,62.34L826.47,62.53L827.61,61.18L828.75,55.84L832.17,58.9L833.3,59.86L834.44,52.01L835.58,57.62L836.72,58.25L841.27,63.58L842.41,60.43L843.55,64L844.69,61.2L850.38,57.11L851.52,58.58L852.66,60.57L856.07,68.14L857.21,67.15L858.35,74.48L860.63,70.94L864.04,66.89L865.18,70.01L866.32,67.01L867.46,68.62L868.59,68.44L872.01,64.43L873.15,67.97L875.42,59.25L876.56,58.42L879.98,56.38L881.12,58.07L882.25,60.18L883.39,59.6L884.53,58.77L887.95,64.43L889.08,62.55L890.22,63.4L891.36,59.12L892.5,58.54L897.05,66.97L898.19,80.55L899.33,78.44L900.47,78.89L903.88,74.1L905.02,69.32L906.16,69.14L907.3,66.02L908.44,65.64L911.85,50.88L912.99,44.86L914.13,45.11L915.27,50.24L916.41,45.26L919.82,40.11L920.96,41.68L922.1,46.98L923.24,46.12L924.38,48.03L927.79,43.41L928.93,37.15L930.07,39.8L932.34,40.84L935.76,43.61L938.04,38.85L939.17,37.83L940.31,33.81L943.73,37.21L944.87,34.54L946,34.81L947.14,35.6L948.28,32.29L951.7,36.42L952.83,32.28L953.97,34.87L955.11,33.19L956.25,32.73L959.67,37.67L960.8,40.15L961.94,37.87L967.63,33.56L968.77,34.66L969.91,34.11L971.05,31.3L975.6,37.12L976.74,35.5L979.02,34.68L980.16,31.54L985.85,33.72L986.99,35.82L988.13,39.04L992.68,38.98L993.82,36.98L994.96,38.38L996.09,40.2L999.51,38.31L1000.65,38.02L1001.79,48.58L1002.92,44.32L1004.06,51L1007.48,49.78L1008.62,46.83L1009.75,46.15L1010.89,43.06L1012.03,39.66L1015.45,36.64L1017.72,36.21L1018.86,36.21L1020,35.75" style="vector-effect: non-scaling-stroke; fill: none; stroke: rgb(25, 211, 243); stroke-opacity: 1; stroke-width: 2px; opacity: 1;"/></g><g class="points"/><g class="text"/></g><g class="trace scatter trace08b318" style="stroke-miterlimit: 2; opacity: 1;"><g class="fills"/><g class="errorbars"/><g class="lines"><path class="js-line" d="M0,99.01L4.55,100.26L5.69,96.73L12.52,94.42L13.66,92.84L20.49,92.96L21.63,92.56L23.91,86.19L27.32,88.82L29.6,89.77L30.74,88.74L35.29,87.01L36.43,85.33L37.57,87.63L38.71,87.85L39.84,88.16L43.26,85.22L44.4,83.6L45.54,89.9L46.67,99.92L47.81,97.84L51.23,97.64L52.37,93.33L53.5,90.34L54.64,91.48L55.78,85.82L59.2,87.66L60.33,83.49L61.47,86.34L62.61,86.04L63.75,89.97L67.17,88.17L68.3,80.8L70.58,81.23L71.72,79.71L76.27,72.53L77.41,68.7L78.55,68.61L79.69,66.63L83.1,68.2L84.24,69.69L85.38,70.99L86.52,69.98L87.66,66.53L91.07,65.58L92.21,73.56L93.35,75.9L95.63,77.06L99.04,74.8L101.32,66.47L102.46,66.47L103.59,61.57L107.01,64.47L108.15,68.5L110.42,69.07L111.56,73.43L114.98,72.09L116.12,71.15L117.25,72.47L118.39,69.29L119.53,75.73L125.22,89.18L126.36,95.14L127.5,96.6L130.92,108.41L134.33,92.64L135.47,93.76L138.88,90.43L141.16,91.91L142.3,95.93L143.44,88.47L146.85,88.37L147.99,84.78L149.13,87.15L150.27,85.99L151.41,84.78L154.82,86.85L155.96,84.71L157.1,88.01L158.24,86.45L159.38,83.16L163.93,84.5L165.07,80.57L167.34,85.18L170.76,87.43L171.9,87.28L173.04,84.88L175.31,79.22L178.73,78.58L179.87,78.31L181,78.95L182.14,80.25L183.28,79.63L186.7,80.13L187.83,77.59L188.97,76.22L190.11,84.04L191.25,80.47L195.8,79.94L196.94,79.73L198.08,77.92L199.22,76.9L202.63,78.05L204.91,78.19L206.05,76.58L207.19,75.77L210.6,77.15L211.74,77.17L212.88,78.94L215.16,82.43L218.57,76.6L219.71,76.03L220.85,74.3L221.99,74.96L223.13,73.75L228.82,74.44L229.96,72.57L231.09,73.02L234.51,73.33L235.65,69.09L236.79,69.83L237.92,69.52L239.06,67.88L242.48,67.53L243.62,70.28L244.75,71.24L245.89,69.85L247.03,68.67L250.45,67.87L252.72,68.68L253.86,68.95L255,66.73L258.42,65.17L259.55,65.35L260.69,66.39L261.83,65.44L266.38,65.55L267.52,63.88L268.66,64.29L269.8,64.65L270.94,62.73L274.35,63.11L275.49,59.29L276.63,63.08L277.77,63.86L278.91,61.16L282.32,61.33L283.46,65.26L284.6,65.33L285.74,66.56L286.88,62.54L290.29,65.58L291.43,64.01L293.71,58.23L294.84,59.48L299.4,59.55L300.54,57.16L301.67,58.94L302.81,58.97L307.37,62.84L308.5,66.58L309.64,64.81L310.78,69.12L314.2,64.29L315.33,61.03L318.75,50.7L322.17,52.05L323.3,51.29L324.44,49.49L326.72,47.38L330.13,48.73L331.27,48.84L332.41,46.79L333.55,43.87L334.69,43.97L339.24,43.03L340.38,47.29L346.07,44.57L347.21,41.33L348.35,37.88L350.63,39.42L354.04,39.85L355.18,41.35L356.32,38.49L357.46,39.25L358.59,39.82L362.01,38.61L364.29,40.98L365.42,40.19L366.56,43.77L369.98,44.82L371.12,39.17L372.25,40.42L373.39,40.9L374.53,37.02L377.95,37.05L379.08,39.65L381.36,48.67L382.5,47.61L385.92,55.44L387.05,51.59L388.19,50.23L389.33,45.03L393.88,50.46L395.02,46.65L396.16,55.05L397.3,51.13L398.44,47.52L401.85,44.35L402.99,48.59L404.13,45.97L405.27,45.28L406.41,53.76L410.96,48.28L412.1,44.87L413.24,43.14L414.38,43.3L418.93,42.67L420.07,39.67L422.34,37.71L425.76,39.44L426.9,40.71L428.04,38.58L429.17,36.98L430.31,38.7L433.73,41.42L434.87,39.87L437.14,39.45L438.28,40.19L442.83,39.61L443.97,39.77L446.25,40.19L449.67,39.43L450.8,43.15L451.94,51.03L454.22,41.86L457.63,44.25L458.77,48.31L459.91,46.23L462.19,45.13L465.6,45.96L467.88,45.25L469.02,44.78L470.16,44.37L473.57,44.04L474.71,46.56L475.85,44.16L478.13,47.76L481.54,48.65L482.68,48.25L483.82,44.52L486.09,44.88L489.51,48.09L490.65,48.22L491.79,46.96L498.62,48.77L499.75,45.03L500.89,45.68L502.03,44.26L505.45,43.16L506.58,43.61L508.86,43.27L510,42.02L513.42,41.86L514.55,39.18L515.69,38.08L517.97,38.95L521.38,38.56L522.52,40.02L523.66,36.88L524.8,37.2L525.94,34.96L529.35,35.89L531.63,36.59L532.77,33.97L533.91,34.09L537.32,31.93L538.46,32.45L539.6,34.87L540.74,32.99L541.88,29.54L546.43,31L548.71,29.97L549.84,28.73L553.26,31.23L554.4,29.92L556.67,28.85L557.81,31.74L561.23,31.06L562.37,33.47L563.5,33.29L564.64,30.24L565.78,30.51L570.33,28.42L571.47,25.58L573.75,23.59L578.3,24.5L580.58,23.7L581.72,27.09L587.41,31.07L588.55,26.6L589.69,31.03L593.1,30.48L594.24,28.49L595.38,24.66L596.52,24.86L597.66,26.2L601.07,24.77L602.21,25.56L605.63,25.96L610.18,28.52L611.32,27.71L612.46,28.64L613.59,28.17L617.01,38.73L619.29,49.7L620.42,66.98L621.56,73.43L624.98,55.76L626.12,63.32L627.25,45.98L629.53,62.15L632.95,86.51L634.08,72.24L635.22,90.71L636.36,125.28L637.5,104.69L640.92,136.45L642.05,120.66L643.19,135.85L644.33,140.69L645.47,156.83L648.88,168.54L650.02,146.53L651.16,142.42L652.3,124.97L653.44,134.41L656.85,120.72L657.99,125.76L659.13,136.07L660.27,123.73L661.41,125.51L664.82,107.6L665.96,110.28L667.1,101.4L668.24,96.77L672.79,102.22L673.93,91.83L675.07,100.16L676.21,101.29L677.34,89.84L680.76,99.57L681.9,106.08L683.04,99.68L684.17,100.25L685.31,97.97L688.73,92.87L689.87,93.33L691,88.85L693.28,101.6L696.7,102.12L697.83,101.32L698.97,106.38L700.11,105.58L701.25,97.67L704.67,99.34L705.8,105.42L706.94,111.86L708.08,109.54L709.22,109.92L712.63,98.45L713.77,104.42L714.91,98.24L716.05,101.43L717.19,101.86L721.74,97.03L722.88,93.19L725.16,91.25L728.57,92.11L729.71,89.68L730.85,83.37L731.99,84.17L733.13,76.05L736.54,70.02L737.68,75.46L738.82,79.82L739.96,101.5L741.09,98.1L744.51,97.11L745.65,92.35L746.79,94.47L747.92,93.65L749.06,97.06L752.48,97.78L753.62,98.9L754.75,107L755.89,105.24L757.03,113.16L760.45,106.98L761.58,104.02L762.72,104.18L763.86,102.85L768.42,99.02L769.55,100.86L770.69,100.76L771.83,106.82L772.97,100.79L776.38,99.69L777.52,93.11L778.66,90.54L779.8,90.91L780.94,89.29L784.35,92.11L786.63,81.99L787.77,83.23L788.91,83.49L792.32,82.71L793.46,83.25L794.6,82.88L796.88,86.96L800.29,88.01L802.57,80.72L803.71,79.29L804.84,77.3L808.26,75.5L809.4,75.88L810.54,72.43L811.67,73.89L812.81,73.26L816.23,73.23L817.37,72.44L818.5,76.2L819.64,76.53L820.78,76.01L824.2,71.64L826.47,73.91L827.61,72.95L828.75,67.8L832.17,70.6L833.3,72.42L834.44,64.81L835.58,70.14L836.72,70.61L841.27,75.9L842.41,73.32L843.55,76.95L844.69,74.01L849.24,71.37L850.38,69.6L852.66,72.59L856.07,80L857.21,78.98L858.35,86.09L864.04,79.09L865.18,82.45L866.32,79.6L867.46,81.72L868.59,81.79L872.01,77.97L873.15,81.44L874.29,77.68L875.42,72.79L876.56,72.27L879.98,70.41L881.12,72.62L882.25,74.32L883.39,73.83L884.53,72.89L887.95,78.2L889.08,76.19L890.22,77.06L891.36,72.77L892.5,72.37L897.05,80.42L898.19,93.63L899.33,91.64L900.47,92.1L903.88,86.99L905.02,82.99L906.16,83.38L907.3,80.71L908.44,80.1L911.85,64.99L912.99,58.65L914.13,59.18L915.27,64.52L916.41,59.12L919.82,54.57L920.96,56.21L922.1,61.61L923.24,60.7L924.38,62.43L927.79,58.22L928.93,52.35L930.07,54.71L932.34,55.74L935.76,58.57L940.31,46.9L943.73,50.24L944.87,47.06L946,47.1L947.14,47.61L948.28,44.85L951.7,49.5L952.83,45.75L953.97,48.59L955.11,46.79L956.25,46.27L959.67,51.64L960.8,54.33L961.94,52.16L967.63,48.39L968.77,49.37L969.91,48.8L971.05,46.25L975.6,51.6L976.74,49.74L979.02,49.6L980.16,46.54L983.57,46.83L984.71,47.87L985.85,47.73L986.99,49.19L988.13,52.6L992.68,52.48L993.82,50.53L994.96,52.12L996.09,53.82L999.51,51.56L1000.65,50.97L1001.79,60.32L1002.92,56.54L1004.06,63.07L1007.48,62.24L1008.62,60.11L1009.75,59.32L1010.89,56.19L1012.03,52.28L1015.45,49.36L1017.72,49.06L1018.86,49.47L1020,48.69" style="vector-effect: non-scaling-stroke; fill: none; stroke: rgb(255, 102, 146); stroke-opacity: 1; stroke-width: 2px; opacity: 1;"/></g><g class="points"/><g class="text"/></g><g class="trace scatter tracec71046" style="stroke-miterlimit: 2; opacity: 1;"><g class="fills"/><g class="errorbars"/><g class="lines"><path class="js-line" d="M0,99.01L4.55,100.24L5.69,96.69L12.52,94.38L13.66,92.79L20.49,92.94L21.63,92.53L23.91,86.12L27.32,88.81L29.6,89.76L30.74,88.74L35.29,87.02L36.43,85.36L37.57,87.69L38.71,87.91L39.84,88.2L43.26,85.26L44.4,83.63L45.54,89.89L46.67,99.93L47.81,97.84L51.23,97.63L52.37,93.31L53.5,90.29L54.64,91.46L55.78,85.74L59.2,87.59L60.33,83.38L61.47,86.14L62.61,85.86L63.75,89.79L67.17,87.97L68.3,80.6L70.58,81.04L71.72,79.55L76.27,72.31L77.41,68.49L78.55,68.38L79.69,66.39L83.1,67.95L84.24,69.42L85.38,70.73L86.52,69.75L87.66,66.31L91.07,65.36L92.21,73.32L93.35,75.71L95.63,76.81L99.04,74.58L101.32,66.22L102.46,66.21L103.59,61.29L107.01,64.21L108.15,68.21L110.42,68.78L111.56,73.14L114.98,71.77L116.12,70.85L117.25,72.12L118.39,68.92L119.53,75.43L125.22,88.87L126.36,94.8L127.5,96.22L130.92,108.03L134.33,92.26L135.47,93.39L138.88,90.05L141.16,91.59L142.3,95.59L143.44,88.13L146.85,88.05L147.99,84.49L149.13,86.89L150.27,85.73L151.41,84.51L154.82,86.61L155.96,84.44L157.1,87.75L158.24,86.17L159.38,82.88L163.93,84.2L165.07,80.24L167.34,84.87L170.76,87.09L171.9,86.9L173.04,84.52L175.31,78.9L178.73,78.24L179.87,77.98L181,78.61L182.14,79.9L183.28,79.3L186.7,79.79L187.83,77.26L188.97,75.9L190.11,83.76L191.25,80.23L195.8,79.71L196.94,79.52L198.08,77.69L199.22,76.7L202.63,77.84L204.91,77.99L206.05,76.35L207.19,75.56L210.6,76.95L211.74,76.96L212.88,78.72L215.16,82.26L218.57,76.44L219.71,75.85L220.85,74.12L221.99,74.8L223.13,73.58L228.82,74.24L229.96,72.36L231.09,72.82L234.51,73.13L235.65,68.89L236.79,69.64L237.92,69.28L239.06,67.63L242.48,67.33L243.62,70.08L244.75,71.05L245.89,69.7L247.03,68.52L250.45,67.71L252.72,68.52L253.86,68.79L255,66.58L258.42,65.02L259.55,65.18L260.69,66.22L261.83,65.27L266.38,65.43L267.52,63.74L268.66,64.11L269.8,64.45L270.94,62.51L274.35,62.9L275.49,59.03L276.63,62.81L277.77,63.56L278.91,60.84L282.32,61.01L283.46,64.95L284.6,65.02L285.74,66.26L286.88,62.22L290.29,65.24L291.43,63.68L293.71,57.88L294.84,59.15L299.4,59.28L300.54,56.84L301.67,58.56L302.81,58.62L307.37,62.47L308.5,66.24L309.64,64.39L310.78,68.65L314.2,63.85L315.33,60.6L318.75,50.22L322.17,51.55L323.3,50.77L324.44,48.94L326.72,46.87L330.13,48.23L331.27,48.35L332.41,46.29L333.55,43.36L334.69,43.49L339.24,42.5L340.38,46.8L346.07,44.05L347.21,40.79L348.35,37.31L350.63,38.88L354.04,39.28L355.18,40.77L356.32,37.94L357.46,38.72L358.59,39.35L362.01,38.11L364.29,40.45L365.42,39.63L366.56,43.23L369.98,44.27L371.12,38.61L372.25,39.89L373.39,40.38L374.53,36.47L377.95,36.52L379.08,39.11L381.36,48.1L382.5,47.01L385.92,54.87L387.05,51L388.19,49.57L389.33,44.4L393.88,49.82L395.02,46.02L396.16,54.38L397.3,50.41L398.44,46.81L401.85,43.64L402.99,47.89L404.13,45.27L405.27,44.58L406.41,53.04L410.96,47.54L412.1,44.15L413.24,42.42L414.38,42.6L418.93,41.94L420.07,38.94L422.34,37.04L425.76,38.8L426.9,40.14L428.04,38L429.17,36.39L430.31,38.14L433.73,40.92L434.87,39.34L437.14,38.88L438.28,39.61L442.83,38.99L443.97,39.16L446.25,39.53L449.67,38.75L450.8,42.45L451.94,50.33L454.22,41.14L457.63,43.54L458.77,47.59L459.91,45.52L462.19,44.49L465.6,45.33L467.88,44.62L469.02,44.17L470.16,43.77L473.57,43.45L474.71,46.04L475.85,43.62L478.13,47.28L481.54,48.15L482.68,47.75L483.82,43.95L486.09,44.38L489.51,47.7L490.65,47.83L491.79,46.53L498.62,48.36L499.75,44.62L500.89,45.27L502.03,43.84L505.45,42.73L506.58,43.18L508.86,42.88L510,41.62L513.42,41.45L514.55,38.76L515.69,37.65L517.97,38.51L521.38,38.09L522.52,39.54L523.66,36.4L524.8,36.72L525.94,34.5L529.35,35.42L531.63,36.13L532.77,33.52L533.91,33.6L537.32,31.46L538.46,31.97L539.6,34.41L540.74,32.48L541.88,29.06L546.43,30.51L548.71,29.49L549.84,28.23L553.26,30.73L554.4,29.42L556.67,28.39L557.81,31.26L561.23,30.58L562.37,32.97L563.5,32.76L564.64,29.67L565.78,29.93L570.33,27.82L571.47,24.93L573.75,22.94L578.3,23.83L580.58,23.02L581.72,26.43L587.41,30.31L588.55,25.82L589.69,30.22L593.1,29.6L594.24,27.6L595.38,23.82L596.52,24.03L597.66,25.38L601.07,23.93L602.21,24.7L605.63,25.09L610.18,27.63L611.32,26.87L612.46,27.77L613.59,27.26L617.01,37.79L619.29,48.66L620.42,65.97L621.56,72.53L624.98,54.8L626.12,62.3L627.25,44.89L628.39,56.94L629.53,61.01L632.95,85.3L634.08,70.96L635.22,89.57L636.36,124.2L637.5,103.53L640.92,135.37L642.05,119.5L643.19,134.6L644.33,139.6L645.47,155.8L648.88,167.59L650.02,145.52L651.16,141.52L652.3,124.06L653.44,133.4L656.85,119.61L657.99,124.69L659.13,135.06L660.27,122.72L661.41,124.41L664.82,106.43L665.96,109.22L668.24,95.68L672.79,101.14L673.93,90.65L675.07,98.96L676.21,100.07L677.34,88.66L680.76,98.4L681.9,104.91L683.04,98.5L684.17,99.13L685.31,96.84L688.73,91.73L689.87,92.24L691,87.86L693.28,100.51L696.7,101.05L697.83,100.25L698.97,105.32L700.11,104.55L701.25,96.67L704.67,98.31L705.8,104.38L706.94,110.8L708.08,108.49L709.22,108.85L712.63,97.45L713.77,103.4L714.91,97.23L716.05,100.42L717.19,100.86L721.74,96.07L722.88,92.24L725.16,90.25L728.57,91.11L729.71,88.68L730.85,82.41L731.99,83.24L733.13,75.19L736.54,69.16L737.68,74.59L738.82,78.9L739.96,100.56L741.09,97.18L744.51,96.19L745.65,91.43L746.79,93.51L747.92,92.7L749.06,96.07L752.48,96.81L753.62,97.94L754.75,106L755.89,104.24L757.03,112.15L760.45,105.99L761.58,103.01L762.72,103.13L763.86,101.8L768.42,97.96L769.55,99.73L770.69,99.66L771.83,105.69L772.97,99.66L776.38,98.53L777.52,91.95L778.66,89.38L779.8,89.74L780.94,88.09L784.35,90.88L786.63,80.69L787.77,81.94L788.91,82.18L792.32,81.4L793.46,81.94L794.6,81.57L796.88,85.6L800.29,86.67L802.57,79.43L803.71,78L804.84,75.98L808.26,74.24L809.4,74.63L810.54,71.14L811.67,72.57L812.81,71.95L816.23,71.88L817.37,71.05L818.5,74.83L819.64,75.13L820.78,74.58L824.2,70.25L826.47,72.46L827.61,71.49L828.75,66.31L832.17,69.08L833.3,70.91L834.44,63.24L835.58,68.65L836.72,69.12L841.27,74.42L842.41,71.79L843.55,75.41L844.69,72.43L849.24,69.74L850.38,68.03L852.66,71.01L856.07,78.44L857.21,77.38L858.35,84.46L864.04,77.44L865.18,80.79L866.32,77.89L867.46,79.98L868.59,80.04L872.01,76.22L873.15,79.7L874.29,75.93L875.42,71.05L876.56,70.5L879.98,68.62L881.12,70.85L882.25,72.53L883.39,72.04L884.53,71.07L887.95,76.41L889.08,74.37L890.22,75.21L891.36,70.98L892.5,70.54L897.05,78.56L898.19,91.83L899.33,89.92L900.47,90.39L903.88,85.3L905.02,81.24L906.16,81.64L907.3,78.97L908.44,78.33L911.85,63.39L912.99,57.05L914.13,57.51L915.27,62.84L916.41,57.44L919.82,52.97L920.96,54.67L922.1,60.05L923.24,59.14L924.38,60.86L927.79,56.75L928.93,50.97L930.07,53.28L932.34,54.29L935.76,57.05L940.31,45.5L943.73,48.83L944.87,45.66L946,45.72L947.14,46.26L948.28,43.55L951.7,48.15L952.83,44.41L953.97,47.28L955.11,45.44L956.25,44.87L959.67,50.24L960.8,52.93L961.94,50.78L967.63,46.98L968.77,47.95L969.91,47.39L971.05,44.81L975.6,50.21L976.74,48.39L979.02,48.32L980.16,45.22L983.57,45.55L984.71,46.63L985.85,46.51L986.99,48.04L988.13,51.4L992.68,51.32L993.82,49.38L994.96,50.93L996.09,52.6L999.51,50.3L1000.65,49.58L1001.79,58.98L1002.92,55.24L1004.06,61.77L1007.48,60.95L1008.62,58.87L1009.75,58.14L1010.89,55.02L1012.03,51.1L1015.45,48.26L1017.72,47.94L1018.86,48.32L1020,47.54" style="vector-effect: non-scaling-stroke; fill: none; stroke: rgb(182, 232, 128); stroke-opacity: 1; stroke-width: 2px; opacity: 1;"/></g><g class="points"/><g class="text"/></g><g class="trace scatter trace9c54c9" style="stroke-miterlimit: 2; opacity: 1;"><g class="fills"/><g class="errorbars"/><g class="lines"><path class="js-line" d="M0,99.01L4.55,100.23L5.69,96.69L7.97,95.79L11.38,94.52L12.52,94.21L13.66,92.64L20.49,93.12L21.63,92.69L23.91,86.19L27.32,88.9L29.6,89.62L30.74,88.62L35.29,86.83L36.43,85.26L37.57,87.77L38.71,88.03L39.84,88.3L43.26,85.29L44.4,83.59L45.54,89.75L46.67,99.78L47.81,97.62L51.23,97.34L52.37,92.81L53.5,89.33L54.64,90.56L55.78,84.64L59.2,86.47L60.33,82.02L61.47,84.76L62.61,84.31L63.75,88.24L67.17,86.28L68.3,78.83L70.58,79.2L71.72,77.93L76.27,70.72L77.41,66.94L78.55,66.81L79.69,64.69L83.1,66.07L84.24,67.41L85.38,68.68L86.52,67.99L87.66,64.77L91.07,63.89L93.35,74.44L95.63,75.19L99.04,73.25L100.18,69.61L101.32,64.66L102.46,64.53L103.59,59.68L107.01,62.64L108.15,66.41L110.42,66.81L111.56,71.19L114.98,69.72L116.12,68.82L117.25,69.85L118.39,66.38L119.53,73.66L125.22,86.97L126.36,92.69L127.5,94.02L130.92,105.88L134.33,90.17L135.47,91.18L138.88,87.69L141.16,89.52L142.3,93.64L143.44,86.18L146.85,86.21L147.99,82.68L149.13,85.22L150.27,84.13L151.41,82.84L154.82,85.06L155.96,82.88L157.1,86.25L158.24,84.53L159.38,81.31L163.93,82.44L165.07,78.56L167.34,83.51L170.76,85.45L171.9,84.93L173.04,82.79L175.31,77.49L178.73,76.68L179.87,76.41L181,77.02L182.14,78.33L183.28,77.67L186.7,78.32L187.83,75.93L188.97,74.64L190.11,82.44L191.25,78.94L195.8,78.51L196.94,78.32L198.08,76.34L199.22,75.41L202.63,76.74L204.91,76.99L206.05,75.17L207.19,74.23L210.6,75.54L211.74,75.47L212.88,76.96L215.16,80.75L218.57,75.03L219.71,74.43L220.85,72.81L221.99,73.55L223.13,72.38L228.82,73.19L229.96,71.58L231.09,72.13L234.51,72.49L235.65,68.11L236.79,68.89L237.92,68.23L239.06,66.54L242.48,66.43L243.62,68.84L244.75,69.82L245.89,68.47L247.03,67.34L250.45,66.6L253.86,67.53L255,64.35L258.42,62.63L259.55,63.03L260.69,63.75L261.83,62.84L266.38,63.17L267.52,61.06L269.8,61.02L270.94,58.95L274.35,59.49L275.49,55.71L276.63,59.36L277.77,60.14L278.91,57.32L282.32,57.38L283.46,61.46L284.6,61.46L285.74,62.99L286.88,58.9L290.29,62L291.43,60.5L293.71,54.53L294.84,55.94L299.4,56.44L300.54,53.72L302.81,55.3L307.37,59.1L308.5,63.09L309.64,60.74L310.78,64.5L314.2,60.07L318.75,46.02L322.17,47.39L323.3,46.68L324.44,44.54L326.72,42.51L330.13,43.96L331.27,44.16L332.41,42L333.55,39.01L334.69,39.37L339.24,38.12L340.38,42.46L346.07,39.83L347.21,36.46L348.35,32.75L350.63,34.54L354.04,34.94L355.18,36.2L356.32,33.47L357.46,34.43L358.59,35.51L362.01,34.22L364.29,36.46L365.42,35.68L366.56,39.48L369.98,40.37L371.12,34.57L372.25,36.07L373.39,36.34L374.53,32.38L377.95,32.29L379.08,34.91L381.36,43.72L382.5,42.41L385.92,50.33L387.05,46.1L388.19,44.89L389.33,39.85L390.47,40.81L393.88,45.1L395.02,41.28L396.16,49.49L398.44,41.61L401.85,38.59L402.99,42.85L404.13,40.24L405.27,39.61L406.41,48.2L410.96,42.48L412.1,39.13L413.24,37.43L414.38,37.78L418.93,36.98L420.07,34.08L422.34,32.67L425.76,34.85L426.9,36.83L428.04,34.51L429.17,32.77L430.31,34.51L433.73,37.71L434.87,35.96L437.14,35.43L438.28,36.16L442.83,35.37L443.97,35.57L446.25,36.11L449.67,35.21L450.8,38.7L451.94,46.15L454.22,36.76L457.63,39.11L458.77,43.07L459.91,41.15L462.19,40.6L465.6,41.48L469.02,39.82L470.16,39.94L473.57,39.63L474.71,42.24L475.85,39.84L476.99,42.05L478.13,43.73L481.54,44.58L482.68,44.07L483.82,39.81L486.09,40.53L489.51,44.6L490.65,44.86L491.79,43.31L492.92,43.8L494.06,43.14L498.62,44.79L499.75,40.42L500.89,41.15L502.03,39.7L506.58,38.57L507.72,38.21L508.86,38.4L510,36.97L513.42,36.7L514.55,33.77L515.69,32.6L517.97,33.43L521.38,32.88L522.52,34.4L523.66,31.17L524.8,31.49L525.94,29.38L529.35,30.41L530.49,31.24L531.63,30.87L532.77,28.42L533.91,28.24L537.32,26.11L538.46,26.59L539.6,29.1L540.74,26.95L541.88,23.68L545.29,24.82L546.43,25.14L548.71,24.13L549.84,22.83L553.26,25.38L554.4,24.1L556.67,22.89L557.81,25.87L561.23,25.17L562.37,27.37L563.5,26.91L564.64,23.62L565.78,23.79L570.33,21.53L571.47,18.52L573.75,16.6L578.3,17.45L580.58,16.45L581.72,20.01L587.41,23.42L588.55,18.74L589.69,23.03L593.1,21.82L595.38,16.67L596.52,16.87L597.66,18.43L601.07,16.91L604.49,18.11L605.63,18.08L610.18,20.5L611.32,19.77L612.46,20.65L613.59,19.96L617.01,30.66L618.15,38.25L619.29,41.44L620.42,58.91L621.56,65.93L624.98,48.1L626.12,55.51L627.25,37.78L628.39,50.17L629.53,53.72L632.95,77.84L634.08,62.75L635.22,82.23L636.36,117.39L637.5,96.03L640.92,127.88L642.05,112.38L643.19,126.62L644.33,131.79L645.47,149.12L648.88,161.45L650.02,138.55L651.16,134.47L652.3,117.18L653.44,126.72L656.85,112.22L657.99,117.63L659.13,128.01L660.27,115.75L661.41,117.18L664.82,98.52L665.96,101.87L668.24,88.27L672.79,93.87L673.93,82.76L675.07,90.56L676.21,91.21L677.34,80.18L680.76,90.02L681.9,96.8L683.04,90.22L684.17,91.1L688.73,83.56L689.87,84.51L691,80.47L692.14,85.78L693.28,92.56L696.7,93.58L697.83,92.92L698.97,97.83L700.11,97L701.25,89.26L704.67,90.65L705.8,96.81L706.94,102.76L708.08,100.27L709.22,100.26L712.63,89.04L713.77,94.87L714.91,88.58L716.05,91.95L717.19,92.45L721.74,87.96L722.88,84.35L725.16,82.34L728.57,83.22L729.71,81.04L730.85,74.76L731.99,75.86L733.13,68.38L736.54,62.52L737.68,67.96L738.82,71.82L739.96,93.38L741.09,90.2L744.51,89.13L745.65,84.38L746.79,86.22L747.92,85.54L749.06,89L752.48,89.63L753.62,90.67L754.75,98.63L755.89,97.23L757.03,105.08L760.45,98.96L761.58,95.96L762.72,95.54L768.42,90.31L769.55,91.67L770.69,91.59L771.83,97.03L772.97,91.2L776.38,90.04L778.66,80.72L779.8,81.3L780.94,79.52L784.35,82.14L786.63,71.87L787.77,73.14L788.91,73.55L792.32,72.76L794.6,73.23L795.74,75.26L796.88,76.72L800.29,77.79L802.57,69.98L803.71,68.33L804.84,66.42L808.26,65.19L809.4,65.53L810.54,61.64L811.67,62.93L812.81,62.39L816.23,62L817.37,61L818.5,64.76L819.64,64.77L820.78,64.05L824.2,59.88L825.33,61.48L826.47,61.52L827.61,60.47L828.75,54.87L833.3,59.26L834.44,51.3L835.58,57.17L836.72,57.77L841.27,62.83L842.41,59.93L843.55,63.42L844.69,60.36L849.24,57.4L850.38,55.96L852.66,59.13L856.07,66.83L857.21,65.51L858.35,72.49L864.04,65.31L865.18,68.44L866.32,65.43L867.46,67.38L868.59,67.54L872.01,63.8L873.15,67.58L874.29,63.7L875.42,59.19L876.56,58.18L879.98,56.21L881.12,58.06L882.25,59.74L883.39,59.4L884.53,58.26L887.95,63.87L889.08,61.82L890.22,62.61L891.36,58.61L892.5,58.06L897.05,65.98L898.19,80.02L899.33,78.36L900.47,79.01L903.88,74.33L905.02,69.9L906.16,69.84L907.3,67.34L908.44,66.36L911.85,51.76L912.99,45.81L914.13,46.11L915.27,51.39L916.41,46.01L919.82,41.73L920.96,43.27L922.1,48.51L923.24,47.67L924.38,49.49L927.79,45.76L928.93,40.29L930.07,42.46L935.76,45.43L936.9,42.27L939.17,38.77L940.31,34.68L943.73,37.8L944.87,34.61L946,34.64L947.14,35.46L948.28,31.62L951.7,36.37L952.83,32.51L953.97,35.52L956.25,32.69L959.67,38.15L960.8,40.58L961.94,38.51L967.63,34.16L968.77,35.01L969.91,34.26L971.05,31.48L975.6,37.37L976.74,35.69L979.02,36.33L980.16,33.03L983.57,33.58L984.71,35.32L985.85,35.32L986.99,37.38L988.13,40.57L992.68,40.54L993.82,38.6L994.96,40.17L996.09,41.36L999.51,38.96L1000.65,37.6L1001.79,47.75L1002.92,43.56L1004.06,50.2L1007.48,49.27L1008.62,47.04L1009.75,46.72L1010.89,43.65L1012.03,39.66L1015.45,36.83L1016.58,36.2L1017.72,36.49L1018.86,36.54L1020,35.83" style="vector-effect: non-scaling-stroke; fill: none; stroke: rgb(255, 151, 255); stroke-opacity: 1; stroke-width: 2px; opacity: 1;"/></g><g class="points"/><g class="text"/></g><g class="trace scatter trace38063a" style="stroke-miterlimit: 2; opacity: 1;"><g class="fills"/><g class="errorbars"/><g class="lines"><path class="js-line" d="M0,99.01L6.83,98.59L7.97,99.68L11.38,100.5L12.52,98.93L13.66,98.54L14.8,96.52L15.94,96.4L19.35,97.67L23.91,88.3L27.32,90.8L29.6,93.23L30.74,92.48L31.88,92.22L35.29,89.57L37.57,87.13L38.71,89.9L39.84,92.38L43.26,91.83L44.4,92.61L45.54,104.05L46.67,111.56L47.81,107.61L51.23,108.84L52.37,101.3L53.5,102.56L54.64,107.07L55.78,106.17L59.2,107.92L60.33,109.65L61.47,118.02L62.61,112.5L63.75,116.58L67.17,119.95L68.3,114.01L70.58,107.05L71.72,108.56L75.13,105.94L76.27,103.55L77.41,96.05L78.55,95.9L85.38,111.18L86.52,108.31L87.66,106.6L91.07,112.05L92.21,119.64L93.35,119.65L95.63,122.11L99.04,117.24L100.18,115.74L101.32,107.25L102.46,107.63L103.59,104.88L107.01,100.92L108.15,111.91L110.42,113.01L111.56,120.69L114.98,120.22L116.12,120.95L118.39,117.83L119.53,124.66L122.95,131.65L124.08,130.51L127.5,147.43L130.92,156.42L134.33,137.89L135.47,138.94L138.88,135.3L141.16,135.04L142.3,144.12L143.44,133.84L146.85,132.49L147.99,128.97L150.27,126.02L151.41,126.1L154.82,127.29L155.96,125.14L158.24,120.95L159.38,116.33L163.93,120.48L165.07,118.13L166.21,118.43L167.34,115.9L170.76,118.78L171.9,118.07L173.04,112.08L174.17,112.29L178.73,108.99L179.87,106.63L181,106.92L182.14,109.95L183.28,110.82L186.7,111.56L187.83,106.43L188.97,104.81L190.11,106.24L191.25,100.14L195.8,100.02L196.94,99.16L198.08,100.58L199.22,98.09L203.77,97.73L204.91,98.73L206.05,99.69L207.19,98.17L212.88,103.02L214.02,105.78L215.16,106.09L218.57,103.33L219.71,104.66L220.85,102.62L221.99,102.52L223.13,100.61L227.68,100.08L228.82,102.03L229.96,99.05L231.09,105.38L234.51,105.18L235.65,103.24L236.79,103.68L237.92,102.42L239.06,99.51L242.48,94.97L243.62,96.06L244.75,95.53L245.89,93.24L247.03,92.68L250.45,93.84L251.58,96.46L253.86,96.56L255,92.86L258.42,93.24L259.55,92.3L260.69,92.34L261.83,90.83L266.38,91.5L267.52,89.5L268.66,90.32L269.8,92.17L270.94,91.05L274.35,90.9L275.49,90.37L276.63,92.61L277.77,94.29L278.91,91.58L282.32,92.5L283.46,99.01L284.6,98.98L285.74,100.89L286.88,99.32L290.29,107.82L293.71,100.42L294.84,101.78L298.26,102.93L299.4,100.22L300.54,101.6L301.67,105.54L302.81,104.23L307.37,107.5L308.5,110.55L309.64,109.95L310.78,114.83L314.2,114.77L316.47,104.86L317.61,102.37L318.75,98.75L322.17,97.67L324.44,98.46L325.58,97.06L326.72,97.3L330.13,96.98L331.27,92.12L332.41,91.6L333.55,88.17L334.69,88.64L338.1,88.52L339.24,90.99L341.52,91.28L342.66,90.28L347.21,87.71L348.35,85.24L355.18,87.75L356.32,86.69L358.59,80.2L362.01,79.83L363.15,80.15L364.29,81.75L365.42,81.7L366.56,82.65L369.98,82.41L371.12,79.97L373.39,82.83L374.53,82.12L379.08,82.05L380.22,86.64L382.5,91.86L385.92,102.41L387.05,98.12L388.19,98.43L389.33,93.33L390.47,94.57L393.88,99.95L395.02,94.68L396.16,105.69L397.3,104.32L398.44,100.1L401.85,96.66L402.99,99.05L404.13,95.74L405.27,95.06L406.41,103.63L409.82,99.92L410.96,101.58L413.24,93.55L414.38,92.98L418.93,96.91L420.07,93.64L421.21,88.51L422.34,87.56L425.76,87.03L426.9,86.02L428.04,82.89L429.17,82.26L430.31,81.75L433.73,83.71L436,82.75L437.14,83.47L438.28,85.66L441.7,85.46L442.83,87.42L443.97,85.17L446.25,87.24L449.67,85.92L451.94,97.45L453.08,95.76L454.22,90.64L457.63,91.95L458.77,96.27L459.91,93.77L461.05,91.7L462.19,87.29L465.6,87.7L466.74,84.43L469.02,84.42L470.16,87.93L473.57,87.14L474.71,87.69L475.85,87.06L476.99,87.45L478.13,85.35L481.54,83.52L482.68,83.79L483.82,82.2L484.96,84.14L486.09,79.99L491.79,77.99L492.92,75.49L498.62,75.26L499.75,73.99L500.89,74.01L502.03,70.95L505.45,70.51L506.58,71.92L508.86,74.23L510,72.72L515.69,68.76L517.97,70.31L521.38,74L522.52,77.85L523.66,75.83L524.8,75.45L525.94,70.81L529.35,72.26L531.63,72.23L532.77,69.2L533.91,69.15L537.32,67.77L538.46,67.34L539.6,67.72L541.88,64.75L545.29,63.43L546.43,63.92L548.71,62.46L549.84,62.14L553.26,64.66L554.4,63.61L556.67,59.06L557.81,62.28L561.23,61.34L562.37,62.98L563.5,60.76L564.64,57.85L565.78,59.68L570.33,58.09L571.47,56.84L572.61,53.16L573.75,52.47L580.58,55.05L581.72,57.4L585.13,63.64L586.27,61.07L587.41,60.91L588.55,59.19L589.69,67.49L593.1,65.51L595.38,53.25L596.52,52.03L597.66,55.84L601.07,53.45L602.21,53.45L603.35,49.67L604.49,51.43L605.63,51.78L610.18,54.06L611.32,52.47L612.46,54.23L613.59,57.36L617.01,71.55L618.15,83.65L619.29,85.35L620.42,101.74L621.56,106.66L624.98,88.85L626.12,99.67L627.25,83.52L628.39,96.86L629.53,100.39L632.95,128.1L634.08,112.04L636.36,164.56L637.5,137.25L640.92,178.48L642.05,164.05L643.19,182.47L644.33,179.88L645.47,192.44L648.88,200.45L650.02,171.38L651.16,164.56L652.3,145.96L653.44,158.56L656.85,149.06L657.99,154.7L659.13,168.1L660.27,161.63L661.41,166.6L664.82,144.21L665.96,144.57L667.1,133.84L668.24,129.91L672.79,134.43L673.93,126.74L675.07,132.86L676.21,132.41L677.34,122.71L680.76,130.85L681.9,139.54L683.04,133.26L684.17,132.71L685.31,129.14L688.73,124.2L689.87,124.65L691,117.32L692.14,121.29L693.28,129.85L696.7,129.49L697.83,127.65L698.97,130.66L700.11,127.75L701.25,121.49L704.67,122.99L706.94,136.39L708.08,131.2L709.22,130.37L712.63,117.83L713.77,123.2L714.91,118.12L716.05,119.52L717.19,119.65L721.74,112.35L722.88,104.74L724.02,106.78L725.16,107.02L728.57,105.75L729.71,102.07L730.85,94.82L731.99,94.65L733.13,83.24L736.54,76.9L738.82,84.91L739.96,110.52L741.09,103.96L744.51,101.79L745.65,94.54L746.79,96.88L747.92,97.43L749.06,100.3L752.48,98.19L753.62,96.38L754.75,106.15L755.89,102.03L757.03,112.07L760.45,104.09L761.58,101.1L762.72,102.18L763.86,100.9L768.42,94.58L769.55,100.04L770.69,97.6L771.83,102.57L772.97,97.49L776.38,97.35L777.52,89.69L778.66,86.56L779.8,88.42L780.94,89.28L784.35,89.16L786.63,84.69L787.77,89.55L788.91,92.06L792.32,90.48L793.46,93.31L794.6,91.11L795.74,94.21L796.88,92.64L800.29,89.39L801.43,87.13L803.71,79.45L804.84,78.81L808.26,73.88L809.4,75.32L810.54,71.33L811.67,72.43L812.81,71.96L816.23,73.15L818.5,75.24L819.64,74.59L820.78,71.97L824.2,66.77L825.33,67.6L826.47,66.45L828.75,62.02L832.17,65.1L833.3,62.13L834.44,55.87L835.58,66.99L836.72,69.18L841.27,77.88L842.41,71.83L843.55,77.42L844.69,75.61L848.1,71.1L849.24,71.07L850.38,70.57L851.52,72.36L852.66,75.73L856.07,82.74L857.21,80.81L858.35,88.03L859.49,87.31L860.63,82.38L864.04,76.74L865.18,78.54L866.32,74.02L867.46,73.53L868.59,75.38L872.01,68.97L873.15,74.14L874.29,66.84L876.56,62.94L879.98,59.49L882.25,63.94L883.39,64.21L884.53,62.67L887.95,68.32L889.08,66.76L890.22,68.11L891.36,66.01L892.5,66.4L897.05,78.4L898.19,91.38L899.33,89.46L900.47,91.63L903.88,85.8L905.02,78.17L907.3,65.65L908.44,66.56L912.99,51.46L914.13,51.78L915.27,56.15L916.41,50.65L919.82,44.18L920.96,46.48L922.1,51.22L923.24,50.61L924.38,53.63L927.79,49.12L928.93,42.86L930.07,45.25L932.34,44.73L935.76,48.47L938.04,45.1L939.17,43.92L940.31,40.49L943.73,42.54L944.87,41.1L946,42.55L947.14,43.51L948.28,42.86L951.7,45.4L952.83,40.75L953.97,41.37L955.11,39.32L956.25,41.03L959.67,40.52L960.8,43.28L961.94,41.71L963.08,40.75L967.63,37.94L968.77,38.88L969.91,37.86L971.05,35.15L975.6,40.42L976.74,38.11L977.88,32.09L979.02,29.17L980.16,28.39L983.57,29.62L984.71,28.79L985.85,28.91L986.99,29.86L988.13,32.29L992.68,30.69L993.82,27.15L994.96,27.32L996.09,29.78L999.51,30.29L1000.65,30.61L1001.79,39.33L1002.92,35.2L1004.06,43.74L1007.48,40.58L1008.62,34.04L1009.75,33.54L1010.89,28.97L1015.45,24.43L1016.58,24.57L1017.72,23.72L1018.86,23.81L1020,23.43" style="vector-effect: non-scaling-stroke; fill: none; stroke: rgb(254, 203, 82); stroke-opacity: 1; stroke-width: 2px; opacity: 1;"/></g><g class="points"/><g class="text"/></g></g></g><g class="overplot"/><path class="xlines-above crisp" d="M0,0" style="fill: none;"/><path class="ylines-above crisp" d="M0,0" style="fill: none;"/><g class="overlines-above"/><g class="xaxislayer-above"><g class="xtick"><text text-anchor="middle" x="0" y="284" transform="translate(85.28999999999999,0)" style="font-family: 'Open Sans', verdana, arial, sans-serif; font-size: 12px; fill: rgb(42, 63, 95); fill-opacity: 1; white-space: pre; opacity: 1;">Oct 2018</text></g><g class="xtick"><text text-anchor="middle" x="0" y="284" style="font-family: 'Open Sans', verdana, arial, sans-serif; font-size: 12px; fill: rgb(42, 63, 95); fill-opacity: 1; white-space: pre; opacity: 1;" transform="translate(190.02,0)">Jan 2019</text></g><g class="xtick"><text text-anchor="middle" x="0" y="284" style="font-family: 'Open Sans', verdana, arial, sans-serif; font-size: 12px; fill: rgb(42, 63, 95); fill-opacity: 1; white-space: pre; opacity: 1;" transform="translate(292.48,0)">Apr 2019</text></g><g class="xtick"><text text-anchor="middle" x="0" y="284" style="font-family: 'Open Sans', verdana, arial, sans-serif; font-size: 12px; fill: rgb(42, 63, 95); fill-opacity: 1; white-space: pre; opacity: 1;" transform="translate(396.07,0)">Jul 2019</text></g><g class="xtick"><text text-anchor="middle" x="0" y="284" style="font-family: 'Open Sans', verdana, arial, sans-serif; font-size: 12px; fill: rgb(42, 63, 95); fill-opacity: 1; white-space: pre; opacity: 1;" transform="translate(500.8,0)">Oct 2019</text></g><g class="xtick"><text text-anchor="middle" x="0" y="284" style="font-family: 'Open Sans', verdana, arial, sans-serif; font-size: 12px; fill: rgb(42, 63, 95); fill-opacity: 1; white-space: pre; opacity: 1;" transform="translate(605.54,0)">Jan 2020</text></g><g class="xtick"><text text-anchor="middle" x="0" y="284" style="font-family: 'Open Sans', verdana, arial, sans-serif; font-size: 12px; fill: rgb(42, 63, 95); fill-opacity: 1; white-space: pre; opacity: 1;" transform="translate(709.13,0)">Apr 2020</text></g><g class="xtick"><text text-anchor="middle" x="0" y="284" style="font-family: 'Open Sans', verdana, arial, sans-serif; font-size: 12px; fill: rgb(42, 63, 95); fill-opacity: 1; white-space: pre; opacity: 1;" transform="translate(812.72,0)">Jul 2020</text></g><g class="xtick"><text text-anchor="middle" x="0" y="284" style="font-family: 'Open Sans', verdana, arial, sans-serif; font-size: 12px; fill: rgb(42, 63, 95); fill-opacity: 1; white-space: pre; opacity: 1;" transform="translate(917.46,0)">Oct 2020</text></g><g class="xtick"><text text-anchor="middle" x="0" y="284" style="font-family: 'Open Sans', verdana, arial, sans-serif; font-size: 12px; fill: rgb(42, 63, 95); fill-opacity: 1; white-space: pre; opacity: 1;" transform="translate(1022.19,0)">Jan 2021</text></g></g><g class="yaxislayer-above"><g class="ytick"><text text-anchor="end" x="49" y="4.199999999999999" transform="translate(0,241.08)" style="font-family: 'Open Sans', verdana, arial, sans-serif; font-size: 12px; fill: rgb(42, 63, 95); fill-opacity: 1; white-space: pre; opacity: 1;">20k</text></g><g class="ytick"><text text-anchor="end" x="49" y="4.199999999999999" style="font-family: 'Open Sans', verdana, arial, sans-serif; font-size: 12px; fill: rgb(42, 63, 95); fill-opacity: 1; white-space: pre; opacity: 1;" transform="translate(0,172.29000000000002)">25k</text></g><g class="ytick"><text text-anchor="end" x="49" y="4.199999999999999" style="font-family: 'Open Sans', verdana, arial, sans-serif; font-size: 12px; fill: rgb(42, 63, 95); fill-opacity: 1; white-space: pre; opacity: 1;" transform="translate(0,103.5)">30k</text></g></g><g class="overaxes-above"/></g></g><g class="polarlayer"/><g class="ternarylayer"/><g class="geolayer"/><g class="funnelarealayer"/><g class="pielayer"/><g class="iciclelayer"/><g class="treemaplayer"/><g class="sunburstlayer"/><g class="glimages"/><defs id="topdefs-f240c9"><g class="clips"/><clipPath id="legendf240c9"><rect width="136" height="200" x="0" y="0"/></clipPath></defs><g class="layer-above"><g class="imagelayer"/><g class="shapelayer"/></g><g class="infolayer"><g class="legend" pointer-events="all" transform="translate(1090.4,60)"><rect class="bg" shape-rendering="crispEdges" width="136" height="200" x="0" y="0" style="stroke: rgb(68, 68, 68); stroke-opacity: 1; fill: rgb(255, 255, 255); fill-opacity: 1; stroke-width: 0px;"/><g class="scrollbox" transform="" clip-path="url(#legendf240c9)"><g class="groups"><g class="traces" transform="translate(0,14.5)" style="opacity: 1;"><text class="legendtext" text-anchor="start" x="40" y="4.680000000000001" style="font-family: 'Open Sans', verdana, arial, sans-serif; font-size: 12px; fill: rgb(42, 63, 95); fill-opacity: 1; white-space: pre;">Conic =0.1</text><g class="layers" style="opacity: 1;"><g class="legendfill"/><g class="legendlines"><path class="js-line" d="M5,0h30" style="fill: none; stroke: rgb(99, 110, 250); stroke-opacity: 1; stroke-width: 2px;"/></g><g class="legendsymbols"><g class="legendpoints"/></g></g><rect class="legendtoggle" x="0" y="-9.5" width="130.8186798095703" height="19" style="fill: rgb(0, 0, 0); fill-opacity: 0;"/></g><g class="traces" transform="translate(0,33.5)" style="opacity: 1;"><text class="legendtext" text-anchor="start" x="40" y="4.680000000000001" style="font-family: 'Open Sans', verdana, arial, sans-serif; font-size: 12px; fill: rgb(42, 63, 95); fill-opacity: 1; white-space: pre;">Conic =3.275</text><g class="layers" style="opacity: 1;"><g class="legendfill"/><g class="legendlines"><path class="js-line" d="M5,0h30" style="fill: none; stroke: rgb(239, 85, 59); stroke-opacity: 1; stroke-width: 2px;"/></g><g class="legendsymbols"><g class="legendpoints"/></g></g><rect class="legendtoggle" x="0" y="-9.5" width="130.8186798095703" height="19" style="fill: rgb(0, 0, 0); fill-opacity: 0;"/></g><g class="traces" transform="translate(0,52.5)" style="opacity: 1;"><text class="legendtext" text-anchor="start" x="40" y="4.680000000000001" style="font-family: 'Open Sans', verdana, arial, sans-serif; font-size: 12px; fill: rgb(42, 63, 95); fill-opacity: 1; white-space: pre;">Conic =6.45</text><g class="layers" style="opacity: 1;"><g class="legendfill"/><g class="legendlines"><path class="js-line" d="M5,0h30" style="fill: none; stroke: rgb(0, 204, 150); stroke-opacity: 1; stroke-width: 2px;"/></g><g class="legendsymbols"><g class="legendpoints"/></g></g><rect class="legendtoggle" x="0" y="-9.5" width="130.8186798095703" height="19" style="fill: rgb(0, 0, 0); fill-opacity: 0;"/></g><g class="traces" transform="translate(0,71.5)" style="opacity: 1;"><text class="legendtext" text-anchor="start" x="40" y="4.680000000000001" style="font-family: 'Open Sans', verdana, arial, sans-serif; font-size: 12px; fill: rgb(42, 63, 95); fill-opacity: 1; white-space: pre;">Conic =9.625</text><g class="layers" style="opacity: 1;"><g class="legendfill"/><g class="legendlines"><path class="js-line" d="M5,0h30" style="fill: none; stroke: rgb(171, 99, 250); stroke-opacity: 1; stroke-width: 2px;"/></g><g class="legendsymbols"><g class="legendpoints"/></g></g><rect class="legendtoggle" x="0" y="-9.5" width="130.8186798095703" height="19" style="fill: rgb(0, 0, 0); fill-opacity: 0;"/></g><g class="traces" transform="translate(0,90.5)" style="opacity: 1;"><text class="legendtext" text-anchor="start" x="40" y="4.680000000000001" style="font-family: 'Open Sans', verdana, arial, sans-serif; font-size: 12px; fill: rgb(42, 63, 95); fill-opacity: 1; white-space: pre;">Conic =12.8</text><g class="layers" style="opacity: 1;"><g class="legendfill"/><g class="legendlines"><path class="js-line" d="M5,0h30" style="fill: none; stroke: rgb(255, 161, 90); stroke-opacity: 1; stroke-width: 2px;"/></g><g class="legendsymbols"><g class="legendpoints"/></g></g><rect class="legendtoggle" x="0" y="-9.5" width="130.8186798095703" height="19" style="fill: rgb(0, 0, 0); fill-opacity: 0;"/></g><g class="traces" transform="translate(0,109.5)" style="opacity: 1;"><text class="legendtext" text-anchor="start" x="40" y="4.680000000000001" style="font-family: 'Open Sans', verdana, arial, sans-serif; font-size: 12px; fill: rgb(42, 63, 95); fill-opacity: 1; white-space: pre;">Mean-Variance</text><g class="layers" style="opacity: 1;"><g class="legendfill"/><g class="legendlines"><path class="js-line" d="M5,0h30" style="fill: none; stroke: rgb(25, 211, 243); stroke-opacity: 1; stroke-width: 2px;"/></g><g class="legendsymbols"><g class="legendpoints"/></g></g><rect class="legendtoggle" x="0" y="-9.5" width="130.8186798095703" height="19" style="fill: rgb(0, 0, 0); fill-opacity: 0;"/></g><g class="traces" transform="translate(0,128.5)" style="opacity: 1;"><text class="legendtext" text-anchor="start" x="40" y="4.680000000000001" style="font-family: 'Open Sans', verdana, arial, sans-serif; font-size: 12px; fill: rgb(42, 63, 95); fill-opacity: 1; white-space: pre;">Mean-VaR</text><g class="layers" style="opacity: 1;"><g class="legendfill"/><g class="legendlines"><path class="js-line" d="M5,0h30" style="fill: none; stroke: rgb(255, 102, 146); stroke-opacity: 1; stroke-width: 2px;"/></g><g class="legendsymbols"><g class="legendpoints"/></g></g><rect class="legendtoggle" x="0" y="-9.5" width="130.8186798095703" height="19" style="fill: rgb(0, 0, 0); fill-opacity: 0;"/></g><g class="traces" transform="translate(0,147.5)" style="opacity: 1;"><text class="legendtext" text-anchor="start" x="40" y="4.680000000000001" style="font-family: 'Open Sans', verdana, arial, sans-serif; font-size: 12px; fill: rgb(42, 63, 95); fill-opacity: 1; white-space: pre;">Mean-CVaR 95%</text><g class="layers" style="opacity: 1;"><g class="legendfill"/><g class="legendlines"><path class="js-line" d="M5,0h30" style="fill: none; stroke: rgb(182, 232, 128); stroke-opacity: 1; stroke-width: 2px;"/></g><g class="legendsymbols"><g class="legendpoints"/></g></g><rect class="legendtoggle" x="0" y="-9.5" width="130.8186798095703" height="19" style="fill: rgb(0, 0, 0); fill-opacity: 0;"/></g><g class="traces" transform="translate(0,166.5)" style="opacity: 1;"><text class="legendtext" text-anchor="start" x="40" y="4.680000000000001" style="font-family: 'Open Sans', verdana, arial, sans-serif; font-size: 12px; fill: rgb(42, 63, 95); fill-opacity: 1; white-space: pre;">Mean-CVaR 99%</text><g class="layers" style="opacity: 1;"><g class="legendfill"/><g class="legendlines"><path class="js-line" d="M5,0h30" style="fill: none; stroke: rgb(255, 151, 255); stroke-opacity: 1; stroke-width: 2px;"/></g><g class="legendsymbols"><g class="legendpoints"/></g></g><rect class="legendtoggle" x="0" y="-9.5" width="130.8186798095703" height="19" style="fill: rgb(0, 0, 0); fill-opacity: 0;"/></g><g class="traces" transform="translate(0,185.5)" style="opacity: 1;"><text class="legendtext" text-anchor="start" x="40" y="4.680000000000001" style="font-family: 'Open Sans', verdana, arial, sans-serif; font-size: 12px; fill: rgb(42, 63, 95); fill-opacity: 1; white-space: pre;">DJIA</text><g class="layers" style="opacity: 1;"><g class="legendfill"/><g class="legendlines"><path class="js-line" d="M5,0h30" style="fill: none; stroke: rgb(254, 203, 82); stroke-opacity: 1; stroke-width: 2px;"/></g><g class="legendsymbols"><g class="legendpoints"/></g></g><rect class="legendtoggle" x="0" y="-9.5" width="130.8186798095703" height="19" style="fill: rgb(0, 0, 0); fill-opacity: 0;"/></g></g></g><rect class="scrollbar" rx="20" ry="3" width="0" height="0" x="0" y="0" style="fill: rgb(128, 139, 164); fill-opacity: 1;"/></g><g class="g-gtitle"/><g class="g-xtitle"/><g class="g-ytitle"/></g></svg>