<svg class="main-svg" xmlns="http://www.w3.org/2000/svg" xmlns:xlink="http://www.w3.org/1999/xlink" width="1238" height="321" style=""><rect x="0" y="0" width="1238" height="321" style="fill: rgb(255, 255, 255); fill-opacity: 1;"/><defs id="defs-2f21d8"><g class="clips"><clipPath id="clip2f21d8xyplot" class="plotclip"><rect width="1020" height="211"/></clipPath><clipPath class="axesclip" id="clip2f21d8x"><rect x="50" y="0" width="1020" height="321"/></clipPath><clipPath class="axesclip" id="clip2f21d8y"><rect x="0" y="60" width="1238" height="211"/></clipPath><clipPath class="axesclip" id="clip2f21d8xy"><rect x="50" y="60" width="1020" height="211"/></clipPath></g><g class="gradients"/><g class="patterns"/></defs><g class="bglayer"><rect class="bg" x="50" y="60" width="1020" height="211" style="fill: rgb(229, 236, 246); fill-opacity: 1; stroke-width: 0;"/></g><g class="layer-below"><g class="imagelayer"/><g class="shapelayer"/></g><g class="cartesianlayer"><g class="subplot xy"><g class="layer-subplot"><g class="shapelayer"/><g class="imagelayer"/></g><g class="gridlayer"><g class="x"><path class="xgrid crisp" transform="translate(84,0)" d="M0,60v211" style="stroke: rgb(255, 255, 255); stroke-opacity: 1; stroke-width: 1px;"/><path class="xgrid crisp" transform="translate(256.83000000000004,0)" d="M0,60v211" style="stroke: rgb(255, 255, 255); stroke-opacity: 1; stroke-width: 1px;"/><path class="xgrid crisp" transform="translate(429.67,0)" d="M0,60v211" style="stroke: rgb(255, 255, 255); stroke-opacity: 1; stroke-width: 1px;"/><path class="xgrid crisp" transform="translate(605.33,0)" d="M0,60v211" style="stroke: rgb(255, 255, 255); stroke-opacity: 1; stroke-width: 1px;"/><path class="xgrid crisp" transform="translate(778.17,0)" d="M0,60v211" style="stroke: rgb(255, 255, 255); stroke-opacity: 1; stroke-width: 1px;"/><path class="xgrid crisp" transform="translate(951,0)" d="M0,60v211" style="stroke: rgb(255, 255, 255); stroke-opacity: 1; stroke-width: 1px;"/></g><g class="y"><path class="ygrid crisp" transform="translate(0,238.71)" d="M50,0h1020" style="stroke: rgb(255, 255, 255); stroke-opacity: 1; stroke-width: 1px;"/><path class="ygrid crisp" transform="translate(0,165.32999999999998)" d="M50,0h1020" style="stroke: rgb(255, 255, 255); stroke-opacity: 1; stroke-width: 1px;"/><path class="ygrid crisp" transform="translate(0,91.95)" d="M50,0h1020" style="stroke: rgb(255, 255, 255); stroke-opacity: 1; stroke-width: 1px;"/></g></g><g class="zerolinelayer"/><path class="xlines-below"/><path class="ylines-below"/><g class="overlines-below"/><g class="xaxislayer-below"/><g class="yaxislayer-below"/><g class="overaxes-below"/><g class="plot" transform="translate(50,60)" clip-path="url(#clip2f21d8xyplot)"><g class="scatterlayer mlayer"><g class="trace scatter trace9fa0b9" style="stroke-miterlimit: 2; opacity: 1;"><g class="fills"/><g class="errorbars"/><g class="lines"><path class="js-line" d="M0,43.22L2.83,41.9L5.67,42.85L8.5,42.07L17,52.34L19.83,61.72L22.67,64.74L25.5,81.3L28.33,89.29L36.83,70.67L39.67,77.6L42.5,59.55L45.33,72.59L48.17,77.63L56.67,103.37L59.5,88.13L62.33,106.35L65.17,139.53L68,121.45L76.5,158.76L79.33,144.28L82.17,165.32L85,169.52L87.83,182.93L96.33,194.53L99.17,171.59L102,165.18L104.83,147.21L107.67,158.13L116.17,146.52L119,152.67L121.83,163.56L124.67,152.19L127.5,155.25L136,136.6L138.83,139.64L141.67,129.79L144.5,123.22L155.83,127.39L158.67,117.75L161.5,126.52L164.33,130.22L167.17,116.92L175.67,127.61L178.5,132.92L181.33,126.44L184.17,126.69L187,124.27L195.5,118.13L198.33,118.84L201.17,114.55L204,119.42L206.83,126.09L215.33,125.98L218.17,124.98L221,129.79L223.83,128.49L226.67,121.76L235.17,123.03L240.83,135.5L243.67,133.65L246.5,134.87L255,122.87L257.83,128.75L260.67,123.3L263.5,125.28L266.33,125.61L277.67,119.83L280.5,116.65L283.33,115.48L286.17,115.43L294.67,115.96L297.5,114.44L300.33,107.88L303.17,108.91L306,99.46L314.5,93.31L320.17,104.44L323,126.76L325.83,122.44L334.33,122.11L337.17,118.44L340,120.78L342.83,119.96L345.67,123.87L357,124.65L359.83,133.25L362.67,131.94L365.5,140.82L376.83,131.96L379.67,132.42L382.5,131.3L393.83,127.81L396.67,130.28L399.5,130.03L402.33,137.39L405.17,130.84L413.67,129.22L416.5,122.68L419.33,119.52L422.17,119.56L425,118.2L433.5,121.05L439.17,110.59L442,111.93L444.83,112.37L453.33,112.88L459,112.63L461.83,115.96L473.17,118.11L476,113.33L478.83,109.97L481.67,108.37L484.5,106.56L493,104.39L495.83,103.85L498.67,100.99L504.33,99.46L512.83,98.92L515.67,98.79L518.5,102.04L521.33,103.08L524.17,101.63L532.67,96.87L535.5,99.03L538.33,100.45L541.17,100.57L544,95.45L552.5,98.24L555.33,100.98L558.17,94.9L561,100.21L563.83,101.21L575.17,106.71L578,104.62L580.83,108.05L583.67,105.78L595,102.88L597.83,100.64L603.5,104.07L612,110.7L614.83,110.83L617.67,117.5L620.5,117.22L623.33,115.14L631.83,110.52L634.67,113.96L637.5,111.84L640.33,113.41L643.17,112.87L651.67,109.27L654.5,113.12L657.33,109.64L660.17,104.73L663,105.41L671.5,104.02L674.33,107.28L677.17,109.42L680,108.83L682.83,108.31L691.33,113.15L694.17,111.72L697,112.47L699.83,107.82L702.67,106.9L711.17,111.96L714,114.71L716.83,127.66L719.67,124.94L722.5,126.11L731,120.77L733.83,117.5L736.67,116.11L739.5,114.14L742.33,113.68L750.83,96.81L753.67,88.8L756.5,89.75L759.33,96.06L762.17,92.05L770.67,86.65L773.5,87.93L776.33,93.19L779.17,92.08L782,94.24L790.5,89.16L793.33,83.05L796.17,85.38L801.83,86.63L810.33,89.99L813.17,86.63L816,83.6L818.83,82.26L821.67,78.57L830.17,81.45L833,78.13L835.83,78.6L838.67,78.42L841.5,76.98L850,81.97L852.83,78.06L855.67,81.35L858.5,79.26L861.33,80.01L869.83,84.81L872.67,87.36L875.5,84.31L878.33,83.92L889.67,80.44L892.5,81.26L895.33,80.3L898.17,78.57L909.5,83.67L912.33,81.77L915.17,82.19L918,81.91L920.83,78.7L929.33,78.84L932.17,79.79L935,79.44L937.83,81.17L940.67,84.82L952,85.57L954.83,83.99L957.67,84.85L960.5,87.45L969,84.95L971.83,83.92L974.67,94.28L977.5,92.05L980.33,98.66L988.83,97.61L991.67,95.83L994.5,94.68L997.33,90.29L1000.17,87.3L1008.67,85.02L1014.33,83.63L1017.17,84.47L1020,83.55" style="vector-effect: non-scaling-stroke; fill: none; stroke: rgb(99, 110, 250); stroke-opacity: 1; stroke-width: 2px; opacity: 1;"/></g><g class="points"/><g class="text"/></g><g class="trace scatter tracedc924d" style="stroke-miterlimit: 2; opacity: 1;"><g class="fills"/><g class="errorbars"/><g class="lines"><path class="js-line" d="M0,43.22L2.83,42.5L5.67,43.4L8.5,42.3L17,52.28L19.83,59.84L22.67,63.97L25.5,80.58L28.33,87.54L36.83,69.56L39.67,76.22L42.5,58.16L45.33,70.74L48.17,73.94L56.67,98.76L59.5,83.72L62.33,102.49L65.17,138.71L68,122.43L76.5,159.3L79.33,144.25L82.17,164.15L85,167.38L87.83,182.05L96.33,191.37L99.17,168.2L102,163.54L104.83,146.49L107.67,155.94L116.17,143.13L119,149L121.83,158.59L124.67,146.74L127.5,149.12L136,131.46L138.83,135.14L141.67,126.02L144.5,120.87L155.83,123.52L158.67,113.01L161.5,119.95L164.33,122.04L167.17,110.09L175.67,121.74L178.5,127.25L181.33,120.72L184.17,121.59L195.5,114.01L198.33,115.22L201.17,112.69L204,118.27L206.83,125.71L215.33,125.31L218.17,125.06L221,129.95L223.83,128.88L226.67,122.34L235.17,122.87L238,128.76L240.83,134.99L243.67,134.11L246.5,134.7L255,122.28L257.83,128.25L260.67,122.32L263.5,123.99L266.33,124.2L277.67,118.7L280.5,115.34L286.17,115.4L294.67,114.3L297.5,113.09L300.33,106.36L303.17,107.26L306,97.9L314.5,91.62L317.33,97.65L320.17,103.36L323,125.84L325.83,122.48L334.33,121.73L337.17,117.62L340,119.96L342.83,119L345.67,122.62L357,123.13L359.83,131.42L362.67,131.12L365.5,139.84L376.83,130.54L379.67,130.8L382.5,130.19L393.83,126.63L396.67,128.23L399.5,128.1L402.33,135.01L405.17,128.53L413.67,127.37L416.5,120.37L419.33,117.46L422.17,117.6L425,116.64L433.5,120.02L439.17,109.51L442,111.34L444.83,113.67L453.33,114.06L456.17,114.79L459,116.36L461.83,118.84L464.67,119.78L473.17,120.49L476,115.48L478.83,111.55L481.67,110.57L484.5,108.88L493,106.86L495.83,106.43L498.67,102.99L504.33,100.79L512.83,100.07L515.67,99.81L518.5,103.78L521.33,105.21L524.17,104.05L532.67,99.75L535.5,102.02L538.33,103.38L541.17,103.22L544,97.59L552.5,100.25L555.33,102.69L558.17,96.23L561,101.22L563.83,102.38L575.17,106.85L578,104.99L580.83,108.35L583.67,105.72L595,104.04L597.83,100.58L603.5,103.92L612,110.17L614.83,110.32L617.67,116.21L620.5,115.33L623.33,113.65L631.83,109.61L634.67,113.25L637.5,111.05L640.33,113.42L643.17,113.01L651.67,109.64L654.5,113.41L657.33,109.76L660.17,104.99L663,105.69L671.5,104.31L674.33,106.29L677.17,108.15L680,107.15L682.83,106.64L691.33,111.07L694.17,109.16L697,108.96L699.83,104.42L702.67,105.4L714,113.51L716.83,125.8L719.67,124.03L722.5,125.1L731,120.27L733.83,116.77L739.5,114.37L742.33,113.84L750.83,101.27L753.67,93.06L756.5,93.14L759.33,99.73L762.17,95.59L770.67,89.65L773.5,90.36L776.33,95.79L779.17,94.34L782,96.15L790.5,91.03L793.33,85.16L796.17,87.6L801.83,89.5L810.33,92.9L813.17,89.88L818.83,85.53L821.67,82.09L830.17,85.89L833,82.36L838.67,80.7L841.5,76.98L850,81.95L852.83,78.26L855.67,80.88L858.5,79.17L872.67,88.3L875.5,85.27L878.33,84.92L889.67,81.29L892.5,81.93L895.33,81.29L898.17,79.33L909.5,84.89L912.33,82.4L915.17,82.82L918,83.5L920.83,80.5L932.17,80.85L935,79.34L937.83,79.73L940.67,84.07L952,84.83L954.83,83.2L957.67,83.47L960.5,86.86L969,85.1L971.83,83.05L974.67,93.02L977.5,89.86L980.33,96.51L988.83,94.86L994.5,91.58L997.33,88.66L1000.17,84.78L1008.67,81.19L1014.33,78.79L1017.17,79.82L1020,78.77" style="vector-effect: non-scaling-stroke; fill: none; stroke: rgb(239, 85, 59); stroke-opacity: 1; stroke-width: 2px; opacity: 1;"/></g><g class="points"/><g class="text"/></g><g class="trace scatter tracecf1fea" style="stroke-miterlimit: 2; opacity: 1;"><g class="fills"/><g class="errorbars"/><g class="lines"><path class="js-line" d="M0,43.22L2.83,42.84L5.67,43.92L8.5,42.73L17,52.7L19.83,60.3L22.67,65.16L25.5,81.68L28.33,88.62L36.83,70.73L39.67,77.44L42.5,60.1L45.33,73.19L48.17,75.24L56.67,100.95L59.5,86.13L62.33,105.74L65.17,142.91L68,127.67L76.5,166.8L79.33,153.26L82.17,175.8L85,176.34L87.83,189.56L96.33,197.79L99.17,173.22L102,167.71L104.83,151.37L107.67,161.92L116.17,149.95L119,155.66L121.83,165.22L124.67,154.84L127.5,157.57L136,138.91L138.83,142.62L141.67,133.76L144.5,128.53L155.83,130.34L158.67,120.56L161.5,126.69L164.33,128.8L167.17,116.27L175.67,128.75L178.5,134.27L181.33,127.65L184.17,129.04L187,127.95L195.5,122.27L198.33,123.5L201.17,121.14L206.83,135.05L215.33,134.58L218.17,134.94L221,139.85L223.83,138.06L226.67,132.03L235.17,132.65L238,138.51L240.83,144.73L243.67,144.19L246.5,144.83L255,131.25L257.83,137.19L260.67,131.11L266.33,132.24L277.67,125.84L280.5,122.51L283.33,123.67L286.17,124.55L294.67,122.03L297.5,121.32L300.33,113.49L303.17,113.92L306,103.94L314.5,96.83L317.33,103.62L320.17,110.26L323,132.98L325.83,129.32L334.33,128.47L337.17,124.2L340,126.97L342.83,126.26L345.67,129.86L354.17,128.83L357,129.44L359.83,138.06L362.67,138.61L365.5,147.7L374,140.36L376.83,138.31L379.67,138.82L382.5,138.72L393.83,134.85L396.67,135.99L399.5,135.86L402.33,142.91L405.17,136.1L413.67,135.71L416.5,128.31L419.33,124.92L422.17,125.51L425,125.51L433.5,129.18L436.33,122.49L439.17,118.76L444.83,123.89L453.33,124.7L456.17,125.8L459,128.34L461.83,131.28L464.67,132.27L473.17,132.22L476,127.21L478.83,122.45L481.67,121.57L484.5,120.06L493,117.24L495.83,116.62L498.67,113.53L504.33,110.13L512.83,109.32L515.67,109.56L518.5,113.67L521.33,115.86L524.17,114.67L532.67,110.08L535.5,112.72L538.33,114.24L541.17,113.32L544,107.39L552.5,110.38L555.33,111.79L558.17,106.29L561,111.02L563.83,112.31L575.17,116.88L578,115.43L580.83,118.79L583.67,116.54L595,115.46L597.83,111.13L612,120.53L614.83,120.94L617.67,126.67L620.5,125.99L623.33,124.23L631.83,120.01L634.67,123.84L637.5,121.8L640.33,123.93L643.17,123.28L651.67,119.95L654.5,124.34L660.17,116.33L663,117.34L671.5,115.8L674.33,117.2L677.17,119.19L680,117.61L682.83,117.45L691.33,121.62L694.17,119.37L697,118.96L699.83,113.98L702.67,115.69L711.17,121.59L714,124.64L716.83,136.72L719.67,135.04L722.5,136.33L731,131.55L733.83,127.79L736.67,126.27L742.33,124.82L750.83,111.75L753.67,102.99L756.5,103.3L759.33,110.11L762.17,105.89L770.67,98.08L773.5,98.82L776.33,104.1L779.17,102.04L782,104.32L790.5,98L793.33,91.62L796.17,94.28L810.33,100.74L813.17,98.1L818.83,93L821.67,90.03L830.17,94.1L833,90.74L835.83,90.16L838.67,88.23L841.5,83.56L850,88.86L852.83,85.33L855.67,87.84L858.5,86.53L861.33,89.5L869.83,93.69L872.67,96.01L875.5,92.58L878.33,92.7L889.67,88.79L892.5,89.66L898.17,87.32L909.5,92.75L912.33,89.79L915.17,89.9L918,90.48L920.83,87.6L932.17,86.91L935,85.08L937.83,84.64L940.67,89.93L952,90.6L954.83,88.54L957.67,89.26L960.5,91.96L969,91.37L971.83,89.26L974.67,99.5L977.5,95.83L980.33,102.65L988.83,100.69L997.33,93.01L1000.17,88.99L1014.33,81.13L1017.17,82.54L1020,81.37" style="vector-effect: non-scaling-stroke; fill: none; stroke: rgb(0, 204, 150); stroke-opacity: 1; stroke-width: 2px; opacity: 1;"/></g><g class="points"/><g class="text"/></g><g class="trace scatter trace5f1be0" style="stroke-miterlimit: 2; opacity: 1;"><g class="fills"/><g class="errorbars"/><g class="lines"><path class="js-line" d="M0,43.22L2.83,42.91L5.67,43.64L8.5,42.48L17,52.36L22.67,65.17L25.5,82.07L28.33,89.12L36.83,71.19L39.67,78.19L42.5,61.45L45.33,74.66L48.17,76.59L56.67,103.45L59.5,88.5L62.33,108.09L65.17,145.43L68,130.01L76.5,169.35L79.33,155.81L82.17,178.99L85,178.97L87.83,192.04L96.33,199.42L99.17,174.72L102,169.19L104.83,152.93L107.67,164.21L116.17,152.15L119,157.89L121.83,167.33L124.67,156.9L127.5,159.86L136,141.32L138.83,145.33L141.67,136.64L144.5,131.13L155.83,132.81L158.67,123.63L161.5,129.34L164.33,131.62L167.17,118.57L175.67,131.19L178.5,137L181.33,130.8L184.17,131.93L187,130.97L195.5,125.43L198.33,127L201.17,124.63L204,130.73L206.83,138.41L215.33,138.02L218.17,138.68L221,143.65L223.83,141.64L226.67,135.69L235.17,136.42L238,142.19L240.83,148.04L243.67,147.39L246.5,147.78L255,134.21L257.83,140.65L260.67,134.67L266.33,136.08L277.67,129.48L280.5,126.15L283.33,127.69L286.17,128.65L294.67,125.33L297.5,124.83L300.33,116.64L303.17,116.96L306,106.64L314.5,99.33L317.33,106.47L320.17,113.37L323,136.07L325.83,132.42L334.33,131.85L337.17,127.05L340,130.19L342.83,129.44L345.67,132.95L354.17,131.94L357,132.48L359.83,141.19L362.67,141.83L365.5,150.78L374,143.39L376.83,141.44L379.67,142.12L382.5,142.26L393.83,138.42L396.67,139.18L399.5,138.94L402.33,145.73L405.17,138.72L413.67,138.63L416.5,131.13L419.33,127.72L422.17,128.32L425,128.72L433.5,132.42L436.33,125.71L439.17,122.64L444.83,127.55L453.33,128.41L456.17,129.4L459,132.15L461.83,135.19L464.67,136.22L473.17,135.75L476,130.8L478.83,125.89L481.67,125.08L484.5,123.81L493,120.96L495.83,119.98L498.67,116.92L504.33,113.3L512.83,112.33L515.67,112.84L518.5,117L521.33,119.58L524.17,118.55L532.67,113.78L535.5,116.4L538.33,117.91L541.17,116.45L544,110.55L552.5,114.04L555.33,115.05L558.17,109.74L561,114.31L563.83,115.76L575.17,120.28L578,118.75L580.83,122.27L583.67,120.23L595,119.77L597.83,115.16L612,124.34L614.83,125.02L617.67,130.98L620.5,130.44L623.33,128.54L631.83,124.29L634.67,128.07L637.5,126.01L640.33,128.1L643.17,127.52L651.67,124.24L654.5,128.9L660.17,120.81L663,121.93L671.5,120.39L674.33,121.29L677.17,123.42L680,121.7L682.83,121.72L691.33,126.01L694.17,124.23L697,123.98L699.83,118.82L702.67,120.28L714,129.29L716.83,141.18L719.67,139.39L722.5,140.44L731,135.71L733.83,131.77L739.5,129.32L742.33,128.78L750.83,115.94L753.67,107.1L756.5,107.56L759.33,114.19L762.17,110.2L770.67,101.77L773.5,102.67L776.33,108.04L779.17,105.9L782,108.52L790.5,101.59L793.33,94.8L796.17,97.71L801.83,100.37L810.33,104.68L813.17,102.34L818.83,97.47L821.67,94.64L830.17,98.83L833,95.75L835.83,95.01L838.67,93.07L841.5,87.49L850,92.81L852.83,89.32L855.67,91.49L858.5,90.48L861.33,93.47L869.83,97.39L872.67,99.58L875.5,96.05L878.33,96.22L889.67,92.26L892.5,93.33L898.17,90.91L909.5,96.11L912.33,92.95L915.17,92.44L918,92.8L920.83,90.12L932.17,88.87L935,87.25L937.83,86.5L940.67,91.94L952,92.66L954.83,90.9L957.67,92.01L960.5,94.7L969,94.48L971.83,92.23L974.67,102.89L977.5,98.85L980.33,105.65L988.83,103.49L994.5,97.83L997.33,95.43L1000.17,91.55L1008.67,86.64L1014.33,82.83L1017.17,84.49L1020,83.39" style="vector-effect: non-scaling-stroke; fill: none; stroke: rgb(171, 99, 250); stroke-opacity: 1; stroke-width: 2px; opacity: 1;"/></g><g class="points"/><g class="text"/></g><g class="trace scatter trace7236ef" style="stroke-miterlimit: 2; opacity: 1;"><g class="fills"/><g class="errorbars"/><g class="lines"><path class="js-line" d="M0,43.22L2.83,42.84L5.67,43.51L8.5,42.44L17,52.51L22.67,65.56L25.5,82.69L28.33,89.68L36.83,71.93L39.67,78.95L42.5,62.49L45.33,76.14L48.17,78.06L56.67,105.6L59.5,90.34L62.33,109.88L65.17,146.74L68,130.59L76.5,170.23L79.33,157.09L82.17,180.7L85,180.27L87.83,193.19L96.33,200.45L99.17,175.43L102,169.56L104.83,153.25L107.67,165.46L116.17,153.18L119,159.09L121.83,168.42L124.67,157.95L127.5,161.12L136,142.28L138.83,146.57L141.67,137.81L144.5,132.22L155.83,133.87L158.67,124.84L161.5,130.27L164.33,132.38L167.17,119.23L175.67,131.85L178.5,138.18L181.33,131.93L184.17,133.03L187,132.08L195.5,126.34L198.33,128.32L201.17,125.69L204,131.78L206.83,139.37L215.33,139.25L218.17,139.88L221,144.69L223.83,142.78L226.67,136.94L235.17,137.59L238,143.32L240.83,148.8L243.67,147.78L246.5,148.19L255,134.77L257.83,141.29L260.67,135.29L266.33,137L277.67,130.32L280.5,127.07L283.33,128.79L286.17,129.87L294.67,126.63L297.5,126.35L300.33,118.09L303.17,118.54L306,108.25L314.5,101.15L317.33,108.48L320.17,115.3L323,137.83L325.83,134.28L334.33,133.86L337.17,128.94L340,132.21L342.83,131.53L345.67,135.16L354.17,134.11L357,134.58L359.83,143.25L362.67,144.07L365.5,152.85L374,145.64L376.83,143.63L379.67,144.12L382.5,144.38L393.83,140.56L396.67,141.22L399.5,141.01L402.33,147.48L405.17,140.46L413.67,140.56L416.5,133.25L419.33,129.72L422.17,130.5L425,130.91L433.5,134.48L436.33,127.81L439.17,124.99L444.83,130.36L453.33,131.24L456.17,132L459,135.04L461.83,138.2L464.67,139.36L473.17,138.66L476,133.74L478.83,128.73L481.67,127.87L495.83,123.02L498.67,119.78L504.33,116.36L512.83,115.14L515.67,115.88L518.5,119.95L521.33,122.55L524.17,121.69L532.67,117.06L535.5,119.6L538.33,120.93L541.17,119.33L544,113.23L552.5,117.04L555.33,117.91L558.17,112.68L561,117.18L563.83,118.7L575.17,123.26L578,121.65L580.83,125.09L583.67,123.18L595,122.85L597.83,118.17L612,127.25L614.83,128.03L617.67,134.23L620.5,133.76L623.33,131.85L631.83,127.59L634.67,131.27L637.5,129.22L640.33,131.21L643.17,130.65L651.67,127.61L654.5,132.4L660.17,124.46L663,125.62L671.5,124.06L674.33,124.47L677.17,126.65L680,124.99L682.83,124.95L691.33,129.22L694.17,127.93L697,128.02L699.83,122.7L702.67,124.3L711.17,130.49L714,133.49L716.83,145.69L719.67,143.91L722.5,144.67L731,140.15L733.83,136.15L736.67,134.41L742.33,132.83L750.83,119.83L753.67,111.27L756.5,111.73L759.33,118.34L762.17,114.41L770.67,105.83L773.5,106.59L776.33,111.84L779.17,109.54L782,112.38L790.5,105.05L793.33,98.1L796.17,101.16L810.33,107.88L813.17,105.71L821.67,98.39L830.17,102.53L833,99.53L835.83,98.95L838.67,97.12L841.5,91.05L850,96.46L852.83,93.28L855.67,95.29L858.5,94.51L861.33,97.73L869.83,101.48L872.67,103.59L875.5,99.9L878.33,100.08L889.67,96.1L892.5,96.95L895.33,95.96L898.17,94.47L909.5,99.56L912.33,96.34L915.17,95.8L918,95.96L920.83,93.37L932.17,91.83L935,90.28L937.83,89.47L940.67,95.07L952,95.86L954.83,94.4L957.67,95.76L960.5,98.44L969,98.6L971.83,96.29L974.67,107.37L977.5,102.72L980.33,109.34L988.83,106.95L994.5,100.73L997.33,98.57L1000.17,95L1008.67,89.94L1014.33,86.17L1017.17,87.61L1020,86.43" style="vector-effect: non-scaling-stroke; fill: none; stroke: rgb(255, 161, 90); stroke-opacity: 1; stroke-width: 2px; opacity: 1;"/></g><g class="points"/><g class="text"/></g><g class="trace scatter trace4669ee" style="stroke-miterlimit: 2; opacity: 1;"><g class="fills"/><g class="errorbars"/><g class="lines"><path class="js-line" d="M0,43.22L2.83,41.66L5.67,42.64L8.5,42.01L17,52.54L19.83,62.22L22.67,65.6L25.5,82.37L28.33,90.77L36.83,72.35L39.67,79.33L42.5,61.51L45.33,74.73L48.17,79.45L56.67,105.96L59.5,90.22L62.33,108.53L65.17,142.56L68,122.74L76.5,161.29L79.33,148.08L82.17,170.65L85,173.72L87.83,186.92L96.33,198.5L99.17,174.21L102,166.68L104.83,148.92L107.67,160.32L116.17,149.11L119,155.8L121.83,167.17L124.67,155.88L127.5,159L136,139.51L138.83,142.64L141.67,133.17L144.5,126.21L155.83,130.42L158.67,121.82L161.5,129.43L164.33,132.69L167.17,119.55L175.67,130.42L178.5,136.1L181.33,129.88L184.17,130.3L195.5,122.26L198.33,122.86L201.17,118.63L204,123.08L206.83,129.16L215.33,129.81L218.17,129.2L221,134.1L223.83,132.12L226.67,125.58L235.17,127.43L238,133.5L240.83,139.69L243.67,137.31L246.5,138.51L255,126.6L257.83,132.48L260.67,126.62L263.5,128.64L266.33,129.15L277.67,123.23L280.5,119.45L283.33,118.57L286.17,119.19L294.67,118.77L297.5,117.47L300.33,110.25L303.17,111.22L306,102.05L314.5,95.82L320.17,107.13L323,129.01L325.83,124.7L334.33,124L337.17,120.36L340,122.73L342.83,122.03L345.67,126.33L357,126.72L359.83,135.14L362.67,133.69L365.5,143.09L376.83,134.05L379.67,134.26L393.83,129.72L396.67,132.04L399.5,131.63L402.33,138.35L405.17,131.69L413.67,130.25L416.5,123.78L419.33,120.74L422.17,121.02L425,120.04L433.5,122.89L436.33,117.27L439.17,112.59L442,113.76L444.83,114.41L453.33,115.09L459,115.08L461.83,118.02L464.67,119.12L473.17,120.68L478.83,111.74L481.67,109.99L484.5,108.08L493,105.93L495.83,105.04L498.67,102.3L504.33,100.13L512.83,99.8L515.67,99.81L518.5,102.95L521.33,104.02L524.17,102.62L532.67,97.78L535.5,99.47L538.33,100.69L541.17,100.25L544,94.89L552.5,97.98L555.33,99.71L558.17,93.21L561,98.24L563.83,99.15L575.17,104.49L578,102.16L580.83,105.28L583.67,103.06L592.17,100.38L595,100.32L597.83,98.35L600.67,100.11L612,108.81L614.83,108.75L617.67,115.16L620.5,114.81L623.33,112.45L631.83,107.76L634.67,110.86L637.5,108.65L640.33,109.61L643.17,108.99L651.67,105.38L654.5,109.25L660.17,101.04L663,101.38L671.5,100.02L674.33,102.61L677.17,105L680,104.34L682.83,103.93L691.33,108.83L694.17,107.61L697,108.39L699.83,103.79L702.67,103.05L714,110.81L716.83,123.87L719.67,121.34L722.5,122.47L731,117.57L733.83,113.54L739.5,109.67L742.33,109.38L750.83,92.76L753.67,85.32L756.5,86.28L759.33,92.15L762.17,88.44L770.67,82.65L773.5,83.54L776.33,88.75L779.17,87.72L782,89.97L790.5,84.58L793.33,78.36L796.17,80.83L801.83,82.19L810.33,85.34L813.17,82.33L816,79.7L818.83,78.65L821.67,75.24L830.17,78.03L833,75.36L835.83,76.22L838.67,76.38L841.5,74.1L850,78.54L852.83,74.47L855.67,77.62L858.5,75.84L861.33,76.62L869.83,80.95L872.67,83.34L875.5,80.28L878.33,79.81L889.67,76.03L892.5,76.71L895.33,75.79L898.17,73.74L909.5,79.27L912.33,77.45L915.17,77.25L918,77.01L920.83,73.94L929.33,74.7L932.17,75.92L935,75.79L937.83,77.91L940.67,81.63L952,82.26L954.83,80.76L957.67,81.78L960.5,84.67L969,82.76L971.83,82.14L974.67,93.59L977.5,90.46L980.33,96.8L988.83,95.6L991.67,93L994.5,92.07L997.33,88.15L1000.17,85.66L1008.67,83.36L1014.33,81.92L1017.17,82.22L1020,81.62" style="vector-effect: non-scaling-stroke; fill: none; stroke: rgb(25, 211, 243); stroke-opacity: 1; stroke-width: 2px; opacity: 1;"/></g><g class="points"/><g class="text"/></g><g class="trace scatter trace9c4fe1" style="stroke-miterlimit: 2; opacity: 1;"><g class="fills"/><g class="errorbars"/><g class="lines"><path class="js-line" d="M0,43.22L2.83,41.88L5.67,42.76L8.5,41.56L17,51.69L19.83,60.88L22.67,64.23L25.5,80.79L28.33,88.85L36.83,70.26L39.67,76.63L42.5,58.5L45.33,71.37L48.17,75.89L56.67,101.17L59.5,86.18L62.33,104.5L65.17,137.6L68,119.67L76.5,155.18L79.33,140.41L82.17,160.6L85,165.72L87.83,179.77L96.33,191.85L99.17,169.39L102,163.45L104.83,145.54L107.67,156.12L116.17,144.2L119,150.34L121.83,160.93L124.67,149.23L127.5,152.02L136,133.52L138.83,136.94L141.67,127.1L144.5,120.86L155.83,124.82L158.67,114.58L161.5,123.24L164.33,126.9L167.17,113.97L175.67,124.7L178.5,129.79L181.33,123.33L184.17,123.62L195.5,115.33L198.33,116.18L201.17,112.22L204,117.32L206.83,123.64L215.33,123.84L218.17,122.71L221,127.56L223.83,126.43L226.67,119.5L235.17,120.69L238,126.55L240.83,132.7L243.67,131.15L246.5,132.34L255,120.46L257.83,126.42L260.67,120.89L263.5,123.06L266.33,123.43L277.67,117.72L280.5,114.82L283.33,113.55L286.17,113.48L294.67,113.96L297.5,112.6L300.33,106.44L303.17,107.74L306,98.81L314.5,92.87L320.17,103.71L323,125.48L325.83,121.47L334.33,121.15L337.17,117.56L340,119.8L342.83,118.96L345.67,122.77L357,123.77L359.83,132.2L362.67,130.99L365.5,139.92L376.83,131.07L379.67,131.46L382.5,130.36L393.83,126.96L396.67,128.93L399.5,128.78L402.33,136.14L405.17,129.52L413.67,127.83L416.5,121.25L419.33,118.05L422.17,117.97L425,116.36L433.5,119.38L439.17,108.91L442,110.07L444.83,110.61L453.33,111.21L456.17,110.52L459,110.88L461.83,113.89L464.67,114.37L473.17,116.33L476,111.24L478.83,107.91L481.67,106.31L484.5,104.54L493,102.26L495.83,101.9L498.67,98.91L504.33,97.33L512.83,96.58L515.67,96.31L518.5,99.65L521.33,100.68L524.17,98.95L532.67,94.27L535.5,96.52L538.33,97.96L541.17,98.27L544,93.03L552.5,95.6L555.33,98.2L558.17,92.13L561,97.33L563.83,98.36L575.17,103.62L578,101.7L580.83,105.02L583.67,102.74L595,99.98L597.83,97.76L603.5,101.04L612,107.51L614.83,107.54L617.67,114.19L620.5,113.76L623.33,111.93L631.83,107.39L634.67,110.75L637.5,108.66L640.33,110.26L643.17,109.72L651.67,106.28L654.5,109.96L657.33,106.65L660.17,101.76L663,102.49L671.5,100.94L674.33,104.26L677.17,106.39L680,105.86L682.83,105.41L691.33,110.19L694.17,108.81L697,109.49L699.83,105.1L702.67,104.24L711.17,109.03L714,111.75L716.83,124.94L719.67,122.18L722.5,123.37L731,118.05L733.83,114.77L736.67,113.65L739.5,111.85L742.33,111.19L750.83,94.44L753.67,85.96L756.5,86.89L759.33,93.17L762.17,89.09L770.67,83.92L773.5,85.37L776.33,90.54L779.17,89.41L782,91.58L790.5,86.71L793.33,80.93L796.17,83.19L801.83,84.5L810.33,87.49L813.17,84.09L816,81.19L818.83,79.83L821.67,75.84L830.17,78.85L833,75.57L835.83,76.05L838.67,75.83L841.5,74.09L850,79.24L852.83,75.21L855.67,78.89L858.5,76.6L861.33,77.28L869.83,82.4L872.67,85.06L875.5,81.93L878.33,81.44L889.67,77.73L892.5,78.51L895.33,77.32L898.17,75.56L909.5,80.43L912.33,78.62L915.17,79.15L918,79.09L920.83,75.75L929.33,75.97L932.17,77L935,76.6L937.83,78.41L940.67,82.26L952,83.45L954.83,82.1L957.67,82.89L960.5,85.58L969,83.03L971.83,81.75L974.67,92.63L977.5,90.52L980.33,97.09L988.83,96.08L991.67,94.29L994.5,93.48L997.33,89.01L1000.17,85.93L1008.67,83.68L1014.33,82.26L1017.17,82.94L1020,82.13" style="vector-effect: non-scaling-stroke; fill: none; stroke: rgb(255, 102, 146); stroke-opacity: 1; stroke-width: 2px; opacity: 1;"/></g><g class="points"/><g class="text"/></g><g class="trace scatter trace9f9b81" style="stroke-miterlimit: 2; opacity: 1;"><g class="fills"/><g class="errorbars"/><g class="lines"><path class="js-line" d="M0,43.22L2.83,41.87L5.67,42.81L8.5,41.55L17,51.62L19.83,60.79L22.67,64.21L25.5,80.72L28.33,88.78L36.83,70.2L39.67,76.58L42.5,58.46L45.33,71.33L48.17,75.74L56.67,100.91L59.5,85.98L62.33,104.33L65.17,137.54L68,119.82L76.5,155.24L79.33,140.51L82.17,160.73L85,165.72L87.83,179.85L96.33,191.92L99.17,169.51L102,163.53L104.83,145.71L107.67,156.22L116.17,144.32L119,150.45L121.83,161.01L124.67,149.36L127.5,152.21L136,133.7L138.83,137.03L141.67,127.18L144.5,120.95L155.83,124.95L158.67,114.7L161.5,123.28L164.33,126.94L167.17,114.09L175.67,124.85L178.5,129.89L181.33,123.46L184.17,123.78L195.5,115.56L198.33,116.38L201.17,112.46L204,117.64L206.83,124.01L215.33,124.26L218.17,123.19L221,128.03L223.83,126.82L226.67,119.94L235.17,121.16L238,127.04L240.83,133.18L243.67,131.72L246.5,132.86L255,120.9L257.83,126.85L260.67,121.3L263.5,123.42L266.33,123.78L277.67,118L280.5,115.1L283.33,113.85L286.17,113.83L294.67,114.2L297.5,112.87L300.33,106.67L303.17,107.9L306,98.97L314.5,93.01L320.17,103.88L323,125.69L325.83,121.66L334.33,121.3L337.17,117.74L340,119.97L342.83,119.11L345.67,122.93L357,123.91L359.83,132.39L362.67,131.2L365.5,140.19L376.83,131.32L379.67,131.69L382.5,130.62L393.83,127.18L396.67,129.14L399.5,128.96L402.33,136.35L405.17,129.73L413.67,128.05L416.5,121.4L419.33,118.18L422.17,118.08L425,116.52L433.5,119.54L439.17,109.15L442,110.39L444.83,110.89L453.33,111.52L456.17,110.88L459,111.29L461.83,114.28L464.67,114.78L473.17,116.75L476,111.67L478.83,108.18L481.67,106.59L484.5,104.8L493,102.56L495.83,102.17L498.67,99.23L504.33,97.52L512.83,96.83L515.67,96.53L518.5,99.86L521.33,100.9L524.17,99.18L532.67,94.46L535.5,96.71L538.33,98.14L541.17,98.42L544,93.17L552.5,95.73L555.33,98.32L558.17,92.2L561,97.35L563.83,98.39L575.17,103.57L578,101.71L580.83,105.01L583.67,102.76L595,100.08L597.83,97.79L603.5,101.07L612,107.56L614.83,107.59L617.67,114.22L620.5,113.72L623.33,111.91L631.83,107.38L634.67,110.76L637.5,108.7L640.33,110.32L643.17,109.77L651.67,106.34L654.5,110.02L657.33,106.73L660.17,101.84L663,102.54L671.5,101L674.33,104.34L677.17,106.48L680,105.98L682.83,105.54L691.33,110.3L694.17,108.86L697,109.44L699.83,105.07L702.67,104.22L711.17,109.03L714,111.78L716.83,124.9L719.67,122.12L722.5,123.34L731,118.06L733.83,114.75L736.67,113.66L739.5,111.85L742.33,111.17L750.83,94.33L753.67,85.82L756.5,86.81L759.33,93.11L762.17,89.08L770.67,83.9L773.5,85.28L776.33,90.43L779.17,89.33L782,91.5L790.5,86.65L793.33,80.9L796.17,83.15L801.83,84.52L810.33,87.54L813.17,84.12L816,81.2L818.83,79.8L821.67,75.8L830.17,78.84L833,75.56L835.83,75.96L838.67,75.72L841.5,73.82L850,78.98L852.83,74.88L855.67,78.59L858.5,76.26L861.33,76.92L869.83,82.06L872.67,84.73L875.5,81.58L878.33,81.07L889.67,77.28L892.5,78.06L895.33,76.8L898.17,75.03L909.5,79.96L912.33,78.18L915.17,78.7L918,78.71L920.83,75.4L929.33,75.69L932.17,76.77L935,76.33L937.83,78.12L940.67,81.99L952,83.19L954.83,81.82L957.67,82.56L960.5,85.31L969,82.78L971.83,81.47L974.67,92.4L977.5,90.28L980.33,96.87L988.83,95.83L991.67,93.98L994.5,93.22L997.33,88.73L1000.17,85.64L1008.67,83.33L1014.33,81.8L1017.17,82.48L1020,81.71" style="vector-effect: non-scaling-stroke; fill: none; stroke: rgb(182, 232, 128); stroke-opacity: 1; stroke-width: 2px; opacity: 1;"/></g><g class="points"/><g class="text"/></g><g class="trace scatter trace26e0fc" style="stroke-miterlimit: 2; opacity: 1;"><g class="fills"/><g class="errorbars"/><g class="lines"><path class="js-line" d="M0,43.22L2.83,41.95L5.67,43L8.5,41.39L17,51.31L19.83,60.13L22.67,63.71L25.5,79.99L28.33,87.83L36.83,69.43L39.67,75.56L42.5,57.48L45.33,70.52L48.17,74.41L56.67,99.14L59.5,84.04L62.33,102.26L65.17,134.93L68,118.39L76.5,152.73L79.33,138.16L82.17,157.88L85,162.38L87.83,177.08L96.33,190.32L99.17,167.82L102,161.86L104.83,144.34L107.67,154.87L116.17,142.36L119,148.3L121.83,158.23L124.67,146.57L127.5,149.56L136,131.13L138.83,134.73L141.67,124.7L144.5,118.4L155.83,122.49L158.67,111.51L161.5,119.55L164.33,122.58L167.17,110.24L175.67,120.95L178.5,125.94L181.33,119.42L184.17,119.75L195.5,111.38L198.33,112.73L201.17,109.53L204,114.6L206.83,120.92L215.33,121.42L218.17,120.35L221,124.98L223.83,124.05L226.67,117.48L235.17,118.34L238,124.24L240.83,129.99L243.67,128.93L246.5,129.76L255,117.97L257.83,123.77L260.67,118.45L263.5,120.53L266.33,120.97L277.67,115.13L280.5,112.66L283.33,111.2L286.17,111.43L294.67,111.72L297.5,110.74L300.33,104.73L303.17,106.42L306,97.87L314.5,92.24L320.17,102.81L323,124.31L325.83,120.59L334.33,120.3L337.17,116.79L340,118.89L342.83,117.94L345.67,121.8L357,122.51L359.83,130.94L362.67,129.97L365.5,139.12L376.83,130.29L379.67,130.18L393.83,125.64L396.67,127.3L399.5,127.05L402.33,134.38L405.17,127.91L413.67,126.13L416.5,119.35L419.33,116.05L422.17,115.94L425,114.44L433.5,117.4L436.33,112.03L439.17,107.01L442,108.43L453.33,109.17L456.17,108.43L459,109.14L461.83,112.02L473.17,114.43L476,109.38L478.83,105.38L481.67,103.72L484.5,102.01L493,100.22L495.83,99.79L498.67,96.56L504.33,94.39L512.83,93.38L515.67,92.92L518.5,96.26L521.33,97.33L524.17,95.58L532.67,91.1L535.5,93.31L538.33,94.53L541.17,94.84L544,89.28L552.5,92.09L555.33,94.66L558.17,88.37L561,93.55L563.83,94.82L575.17,99.61L578,97.66L580.83,100.81L583.67,98.61L595,96.27L597.83,93.74L603.5,96.89L612,103.4L614.83,103.45L617.67,109.67L620.5,108.98L623.33,107.39L631.83,103.18L634.67,106.5L637.5,104.61L640.33,106.44L643.17,105.72L651.67,102.46L654.5,106.11L657.33,102.9L660.17,98.26L663,98.78L671.5,97.26L674.33,100.2L677.17,102.41L680,101.95L682.83,101.45L691.33,106.27L694.17,104.9L697,105.35L699.83,100.99L702.67,99.53L711.17,104.25L714,107.01L716.83,120.72L719.67,117.89L722.5,119.01L731,113.95L733.83,110.56L736.67,109.02L742.33,106.52L750.83,90.34L753.67,81.88L756.5,82.75L759.33,89.1L762.17,85.43L770.67,80.47L773.5,81.54L776.33,86.4L779.17,85.36L782,87.53L790.5,82.79L793.33,77.26L796.17,79.61L810.33,83.96L813.17,80.67L816,78.06L818.83,76.92L821.67,72.82L830.17,75.87L833,72.37L835.83,72.57L838.67,72.47L841.5,69.49L850,74.95L852.83,70.83L855.67,74.61L858.5,72.05L861.33,72.5L869.83,77.46L872.67,80.03L875.5,76.82L878.33,76.31L889.67,72.18L892.5,73.06L895.33,71.53L898.17,69.67L909.5,74.72L912.33,73.02L915.17,73.78L918,73.82L920.83,70.34L929.33,70.57L932.17,72.18L935,72.06L937.83,74.13L940.67,78.04L952,79.59L954.83,78.33L957.67,79.35L960.5,81.77L969,79.12L971.83,77.03L974.67,88.49L977.5,86.16L980.33,92.72L988.83,91.55L991.67,89.59L994.5,88.99L997.33,84.92L1000.17,81.74L1008.67,79.43L1014.33,77.42L1017.17,78.1L1020,77.5" style="vector-effect: non-scaling-stroke; fill: none; stroke: rgb(255, 151, 255); stroke-opacity: 1; stroke-width: 2px; opacity: 1;"/></g><g class="points"/><g class="text"/></g><g class="trace scatter trace568c55" style="stroke-miterlimit: 2; opacity: 1;"><g class="fills"/><g class="errorbars"/><g class="lines"><path class="js-line" d="M0,43.22L2.83,41.52L5.67,43.4L8.5,46.74L17,61.88L19.83,74.78L22.67,76.6L25.5,94.08L28.33,99.32L36.83,80.33L39.67,91.87L42.5,74.64L45.33,88.87L48.17,92.64L56.67,122.19L59.5,105.06L62.33,126.56L65.17,161.09L68,131.96L76.5,175.94L79.33,160.55L82.17,180.19L85,177.43L87.83,190.83L96.33,199.37L99.17,168.36L102,161.09L104.83,141.25L107.67,154.68L116.17,144.55L119,150.57L121.83,164.86L124.67,157.96L127.5,163.26L136,139.38L138.83,139.76L141.67,128.32L144.5,124.12L155.83,128.94L158.67,120.74L161.5,127.28L164.33,126.79L167.17,116.45L175.67,125.13L178.5,134.4L181.33,127.7L184.17,127.12L187,123.3L195.5,118.04L198.33,118.51L201.17,110.7L204,114.93L206.83,124.06L215.33,123.68L218.17,121.72L221,124.93L223.83,121.83L226.67,115.14L235.17,116.75L240.83,131.04L243.67,125.5L246.5,124.62L255,111.24L257.83,116.97L260.67,111.55L263.5,113.05L266.33,113.18L277.67,105.4L280.5,97.28L283.33,99.45L286.17,99.71L294.67,98.36L297.5,94.43L300.33,86.69L303.17,86.52L306,74.35L314.5,67.58L320.17,76.13L323,103.45L325.83,96.44L334.33,94.13L337.17,86.4L340,88.9L342.83,89.48L345.67,92.54L354.17,90.29L357,88.36L359.83,98.78L362.67,94.39L365.5,105.1L374,96.59L376.83,93.4L379.67,94.54L382.5,93.19L393.83,86.44L396.67,92.27L399.5,89.67L402.33,94.97L405.17,89.55L413.67,89.39L416.5,81.22L419.33,77.88L422.17,79.87L425,80.79L433.5,80.66L439.17,75.89L442,81.08L444.83,83.76L453.33,82.07L456.17,85.09L459,82.74L461.83,86.05L464.67,84.37L473.17,80.9L476,78.5L478.83,73.02L481.67,70.3L484.5,69.62L493,64.36L495.83,65.9L498.67,61.64L501.5,62.82L504.33,62.32L515.67,64.56L518.5,65.81L521.33,65.12L524.17,62.33L532.67,56.78L535.5,57.66L538.33,56.43L541.17,54.08L544,51.71L552.5,54.99L555.33,51.83L558.17,45.15L561,57.01L563.83,59.35L575.17,68.63L578,62.18L580.83,68.13L583.67,66.21L592.17,61.4L595,61.37L597.83,60.83L600.67,62.74L603.5,66.33L612,73.81L614.83,71.75L617.67,79.45L620.5,78.69L623.33,73.43L631.83,67.41L634.67,69.34L637.5,64.51L640.33,63.99L643.17,65.96L651.67,59.12L654.5,64.64L657.33,56.85L663,52.69L671.5,49.01L677.17,53.76L680,54.05L682.83,52.41L691.33,58.44L694.17,56.77L697,58.21L699.83,55.97L702.67,56.38L714,69.18L716.83,83.02L719.67,80.98L722.5,83.29L731,77.08L733.83,68.93L736.67,63.54L739.5,55.58L742.33,56.56L750.83,44.31L753.67,40.45L756.5,40.79L759.33,45.45L762.17,39.59L770.67,32.68L773.5,35.13L776.33,40.19L779.17,39.54L782,42.76L790.5,37.95L793.33,31.27L796.17,33.82L801.83,33.27L810.33,37.26L813.17,34.54L816,33.66L818.83,32.4L821.67,28.75L830.17,30.93L833,29.4L838.67,31.96L841.5,31.27L850,33.98L852.83,29.03L855.67,29.68L858.5,27.5L861.33,29.32L869.83,28.78L872.67,31.72L875.5,30.05L878.33,29.02L889.67,26.02L892.5,27.03L895.33,25.94L898.17,23.05L909.5,28.67L912.33,26.21L915.17,19.78L918,16.67L920.83,15.84L929.33,17.15L932.17,16.27L935,16.39L937.83,17.4L940.67,20L952,18.3L954.83,14.51L957.67,14.69L960.5,17.32L969,17.86L971.83,18.2L974.67,27.5L977.5,23.1L980.33,32.21L988.83,28.84L991.67,21.86L994.5,21.33L997.33,16.46L1008.67,11.62L1011.5,11.76L1014.33,10.85L1017.17,10.96L1020,10.55" style="vector-effect: non-scaling-stroke; fill: none; stroke: rgb(254, 203, 82); stroke-opacity: 1; stroke-width: 2px; opacity: 1;"/></g><g class="points"/><g class="text"/></g></g></g><g class="overplot"/><path class="xlines-above crisp" d="M0,0" style="fill: none;"/><path class="ylines-above crisp" d="M0,0" style="fill: none;"/><g class="overlines-above"/><g class="xaxislayer-above"><g class="xtick"><text text-anchor="middle" x="0" y="284" transform="translate(84,0)" style="font-family: 'Open Sans', verdana, arial, sans-serif; font-size: 12px; fill: rgb(42, 63, 95); fill-opacity: 1; white-space: pre; opacity: 1;">Mar 2020</text></g><g class="xtick"><text text-anchor="middle" x="0" y="284" style="font-family: 'Open Sans', verdana, arial, sans-serif; font-size: 12px; fill: rgb(42, 63, 95); fill-opacity: 1; white-space: pre; opacity: 1;" transform="translate(256.83000000000004,0)">May 2020</text></g><g class="xtick"><text text-anchor="middle" x="0" y="284" style="font-family: 'Open Sans', verdana, arial, sans-serif; font-size: 12px; fill: rgb(42, 63, 95); fill-opacity: 1; white-space: pre; opacity: 1;" transform="translate(429.67,0)">Jul 2020</text></g><g class="xtick"><text text-anchor="middle" x="0" y="284" style="font-family: 'Open Sans', verdana, arial, sans-serif; font-size: 12px; fill: rgb(42, 63, 95); fill-opacity: 1; white-space: pre; opacity: 1;" transform="translate(605.33,0)">Sep 2020</text></g><g class="xtick"><text text-anchor="middle" x="0" y="284" style="font-family: 'Open Sans', verdana, arial, sans-serif; font-size: 12px; fill: rgb(42, 63, 95); fill-opacity: 1; white-space: pre; opacity: 1;" transform="translate(778.17,0)">Nov 2020</text></g><g class="xtick"><text text-anchor="middle" x="0" y="284" style="font-family: 'Open Sans', verdana, arial, sans-serif; font-size: 12px; fill: rgb(42, 63, 95); fill-opacity: 1; white-space: pre; opacity: 1;" transform="translate(951,0)">Jan 2021</text></g></g><g class="yaxislayer-above"><g class="ytick"><text text-anchor="end" x="49" y="4.199999999999999" transform="translate(0,238.71)" style="font-family: 'Open Sans', verdana, arial, sans-serif; font-size: 12px; fill: rgb(42, 63, 95); fill-opacity: 1; white-space: pre; opacity: 1;">20k</text></g><g class="ytick"><text text-anchor="end" x="49" y="4.199999999999999" style="font-family: 'Open Sans', verdana, arial, sans-serif; font-size: 12px; fill: rgb(42, 63, 95); fill-opacity: 1; white-space: pre; opacity: 1;" transform="translate(0,165.32999999999998)">25k</text></g><g class="ytick"><text text-anchor="end" x="49" y="4.199999999999999" style="font-family: 'Open Sans', verdana, arial, sans-serif; font-size: 12px; fill: rgb(42, 63, 95); fill-opacity: 1; white-space: pre; opacity: 1;" transform="translate(0,91.95)">30k</text></g></g><g class="overaxes-above"/></g></g><g class="polarlayer"/><g class="ternarylayer"/><g class="geolayer"/><g class="funnelarealayer"/><g class="pielayer"/><g class="iciclelayer"/><g class="treemaplayer"/><g class="sunburstlayer"/><g class="glimages"/><defs id="topdefs-2f21d8"><g class="clips"/><clipPath id="legend2f21d8"><rect width="136" height="200" x="0" y="0"/></clipPath></defs><g class="layer-above"><g class="imagelayer"/><g class="shapelayer"/></g><g class="infolayer"><g class="legend" pointer-events="all" transform="translate(1090.4,60)"><rect class="bg" shape-rendering="crispEdges" width="136" height="200" x="0" y="0" style="stroke: rgb(68, 68, 68); stroke-opacity: 1; fill: rgb(255, 255, 255); fill-opacity: 1; stroke-width: 0px;"/><g class="scrollbox" transform="" clip-path="url(#legend2f21d8)"><g class="groups"><g class="traces" transform="translate(0,14.5)" style="opacity: 1;"><text class="legendtext" text-anchor="start" x="40" y="4.680000000000001" style="font-family: 'Open Sans', verdana, arial, sans-serif; font-size: 12px; fill: rgb(42, 63, 95); fill-opacity: 1; white-space: pre;">Conic γ=0.1</text><g class="layers" style="opacity: 1;"><g class="legendfill"/><g class="legendlines"><path class="js-line" d="M5,0h30" style="fill: none; stroke: rgb(99, 110, 250); stroke-opacity: 1; stroke-width: 2px;"/></g><g class="legendsymbols"><g class="legendpoints"/></g></g><rect class="legendtoggle" x="0" y="-9.5" width="130.8186798095703" height="19" style="fill: rgb(0, 0, 0); fill-opacity: 0;"/></g><g class="traces" transform="translate(0,33.5)" style="opacity: 1;"><text class="legendtext" text-anchor="start" x="40" y="4.680000000000001" style="font-family: 'Open Sans', verdana, arial, sans-serif; font-size: 12px; fill: rgb(42, 63, 95); fill-opacity: 1; white-space: pre;">Conic γ=3.275</text><g class="layers" style="opacity: 1;"><g class="legendfill"/><g class="legendlines"><path class="js-line" d="M5,0h30" style="fill: none; stroke: rgb(239, 85, 59); stroke-opacity: 1; stroke-width: 2px;"/></g><g class="legendsymbols"><g class="legendpoints"/></g></g><rect class="legendtoggle" x="0" y="-9.5" width="130.8186798095703" height="19" style="fill: rgb(0, 0, 0); fill-opacity: 0;"/></g><g class="traces" transform="translate(0,52.5)" style="opacity: 1;"><text class="legendtext" text-anchor="start" x="40" y="4.680000000000001" style="font-family: 'Open Sans', verdana, arial, sans-serif; font-size: 12px; fill: rgb(42, 63, 95); fill-opacity: 1; white-space: pre;">Conic γ=6.45</text><g class="layers" style="opacity: 1;"><g class="legendfill"/><g class="legendlines"><path class="js-line" d="M5,0h30" style="fill: none; stroke: rgb(0, 204, 150); stroke-opacity: 1; stroke-width: 2px;"/></g><g class="legendsymbols"><g class="legendpoints"/></g></g><rect class="legendtoggle" x="0" y="-9.5" width="130.8186798095703" height="19" style="fill: rgb(0, 0, 0); fill-opacity: 0;"/></g><g class="traces" transform="translate(0,71.5)" style="opacity: 1;"><text class="legendtext" text-anchor="start" x="40" y="4.680000000000001" style="font-family: 'Open Sans', verdana, arial, sans-serif; font-size: 12px; fill: rgb(42, 63, 95); fill-opacity: 1; white-space: pre;">Conic γ=9.625</text><g class="layers" style="opacity: 1;"><g class="legendfill"/><g class="legendlines"><path class="js-line" d="M5,0h30" style="fill: none; stroke: rgb(171, 99, 250); stroke-opacity: 1; stroke-width: 2px;"/></g><g class="legendsymbols"><g class="legendpoints"/></g></g><rect class="legendtoggle" x="0" y="-9.5" width="130.8186798095703" height="19" style="fill: rgb(0, 0, 0); fill-opacity: 0;"/></g><g class="traces" transform="translate(0,90.5)" style="opacity: 1;"><text class="legendtext" text-anchor="start" x="40" y="4.680000000000001" style="font-family: 'Open Sans', verdana, arial, sans-serif; font-size: 12px; fill: rgb(42, 63, 95); fill-opacity: 1; white-space: pre;">Conic γ=12.8</text><g class="layers" style="opacity: 1;"><g class="legendfill"/><g class="legendlines"><path class="js-line" d="M5,0h30" style="fill: none; stroke: rgb(255, 161, 90); stroke-opacity: 1; stroke-width: 2px;"/></g><g class="legendsymbols"><g class="legendpoints"/></g></g><rect class="legendtoggle" x="0" y="-9.5" width="130.8186798095703" height="19" style="fill: rgb(0, 0, 0); fill-opacity: 0;"/></g><g class="traces" transform="translate(0,109.5)" style="opacity: 1;"><text class="legendtext" text-anchor="start" x="40" y="4.680000000000001" style="font-family: 'Open Sans', verdana, arial, sans-serif; font-size: 12px; fill: rgb(42, 63, 95); fill-opacity: 1; white-space: pre;">Mean-Variance</text><g class="layers" style="opacity: 1;"><g class="legendfill"/><g class="legendlines"><path class="js-line" d="M5,0h30" style="fill: none; stroke: rgb(25, 211, 243); stroke-opacity: 1; stroke-width: 2px;"/></g><g class="legendsymbols"><g class="legendpoints"/></g></g><rect class="legendtoggle" x="0" y="-9.5" width="130.8186798095703" height="19" style="fill: rgb(0, 0, 0); fill-opacity: 0;"/></g><g class="traces" transform="translate(0,128.5)" style="opacity: 1;"><text class="legendtext" text-anchor="start" x="40" y="4.680000000000001" style="font-family: 'Open Sans', verdana, arial, sans-serif; font-size: 12px; fill: rgb(42, 63, 95); fill-opacity: 1; white-space: pre;">Mean-VaR</text><g class="layers" style="opacity: 1;"><g class="legendfill"/><g class="legendlines"><path class="js-line" d="M5,0h30" style="fill: none; stroke: rgb(255, 102, 146); stroke-opacity: 1; stroke-width: 2px;"/></g><g class="legendsymbols"><g class="legendpoints"/></g></g><rect class="legendtoggle" x="0" y="-9.5" width="130.8186798095703" height="19" style="fill: rgb(0, 0, 0); fill-opacity: 0;"/></g><g class="traces" transform="translate(0,147.5)" style="opacity: 1;"><text class="legendtext" text-anchor="start" x="40" y="4.680000000000001" style="font-family: 'Open Sans', verdana, arial, sans-serif; font-size: 12px; fill: rgb(42, 63, 95); fill-opacity: 1; white-space: pre;">Mean-CVaR 95%</text><g class="layers" style="opacity: 1;"><g class="legendfill"/><g class="legendlines"><path class="js-line" d="M5,0h30" style="fill: none; stroke: rgb(182, 232, 128); stroke-opacity: 1; stroke-width: 2px;"/></g><g class="legendsymbols"><g class="legendpoints"/></g></g><rect class="legendtoggle" x="0" y="-9.5" width="130.8186798095703" height="19" style="fill: rgb(0, 0, 0); fill-opacity: 0;"/></g><g class="traces" transform="translate(0,166.5)" style="opacity: 1;"><text class="legendtext" text-anchor="start" x="40" y="4.680000000000001" style="font-family: 'Open Sans', verdana, arial, sans-serif; font-size: 12px; fill: rgb(42, 63, 95); fill-opacity: 1; white-space: pre;">Mean-CVaR 99%</text><g class="layers" style="opacity: 1;"><g class="legendfill"/><g class="legendlines"><path class="js-line" d="M5,0h30" style="fill: none; stroke: rgb(255, 151, 255); stroke-opacity: 1; stroke-width: 2px;"/></g><g class="legendsymbols"><g class="legendpoints"/></g></g><rect class="legendtoggle" x="0" y="-9.5" width="130.8186798095703" height="19" style="fill: rgb(0, 0, 0); fill-opacity: 0;"/></g><g class="traces" transform="translate(0,185.5)" style="opacity: 1;"><text class="legendtext" text-anchor="start" x="40" y="4.680000000000001" style="font-family: 'Open Sans', verdana, arial, sans-serif; font-size: 12px; fill: rgb(42, 63, 95); fill-opacity: 1; white-space: pre;">DJIA</text><g class="layers" style="opacity: 1;"><g class="legendfill"/><g class="legendlines"><path class="js-line" d="M5,0h30" style="fill: none; stroke: rgb(254, 203, 82); stroke-opacity: 1; stroke-width: 2px;"/></g><g class="legendsymbols"><g class="legendpoints"/></g></g><rect class="legendtoggle" x="0" y="-9.5" width="130.8186798095703" height="19" style="fill: rgb(0, 0, 0); fill-opacity: 0;"/></g></g></g><rect class="scrollbar" rx="20" ry="3" width="0" height="0" x="0" y="0" style="fill: rgb(128, 139, 164); fill-opacity: 1;"/></g><g class="g-gtitle"/><g class="g-xtitle"/><g class="g-ytitle"/></g></svg>